G04 #@! TF.FileFunction,Copper,L2,Inr,Plane*
%FSLAX46Y46*%
G04 Gerber Fmt 4.6, Leading zero omitted, Abs format (unit mm)*
G04 Created by KiCad (PCBNEW (2015-01-16 BZR 5376)-product) date 23/07/2015 11:35:31*
%MOMM*%
G01*
G04 APERTURE LIST*
%ADD10C,0.100000*%
%ADD11O,1.300480X1.800860*%
%ADD12C,1.300480*%
%ADD13R,1.727200X1.727200*%
%ADD14O,1.727200X1.727200*%
%ADD15C,0.635000*%
%ADD16C,0.220000*%
G04 APERTURE END LIST*
D10*
D11*
X55120000Y-104630000D03*
D12*
X53673089Y-105723089D02*
X54026911Y-106076911D01*
X56213089Y-106076911D02*
X56566911Y-105723089D01*
D13*
X61000000Y-108000000D03*
D14*
X61000000Y-105460000D03*
X63540000Y-108000000D03*
X63540000Y-105460000D03*
X66080000Y-108000000D03*
X66080000Y-105460000D03*
X68620000Y-108000000D03*
X68620000Y-105460000D03*
X71160000Y-108000000D03*
X71160000Y-105460000D03*
X73700000Y-108000000D03*
X73700000Y-105460000D03*
X76240000Y-108000000D03*
X76240000Y-105460000D03*
X78780000Y-108000000D03*
X78780000Y-105460000D03*
X81320000Y-108000000D03*
X81320000Y-105460000D03*
X83860000Y-108000000D03*
X83860000Y-105460000D03*
X86400000Y-108000000D03*
X86400000Y-105460000D03*
X88940000Y-108000000D03*
X88940000Y-105460000D03*
D15*
X72400000Y-92350000D03*
X85080000Y-74550000D03*
X89710000Y-71750000D03*
X91760000Y-82390000D03*
X92050000Y-77980000D03*
X76050000Y-72100000D03*
X75830000Y-67900000D03*
X67770000Y-66870000D03*
X68000000Y-70910000D03*
X82510000Y-68010000D03*
X83000000Y-63550000D03*
X64750000Y-62200000D03*
X64950000Y-66100000D03*
X55750000Y-90150000D03*
X55750000Y-89400000D03*
X55750000Y-84850000D03*
X89250000Y-66750000D03*
X89250000Y-66100000D03*
X94000000Y-65750000D03*
X96700000Y-89000000D03*
X94850000Y-89000000D03*
X90550000Y-88300000D03*
X90750000Y-89000000D03*
X86550000Y-99950000D03*
X82350000Y-100150000D03*
X69750000Y-96050000D03*
X70900000Y-95250000D03*
X70750000Y-100650000D03*
X65790000Y-95010000D03*
X61650000Y-94650000D03*
X52600000Y-96900000D03*
X57100000Y-97000000D03*
X58200000Y-76650000D03*
X51450000Y-75200000D03*
X54050000Y-76550000D03*
X60000000Y-66750000D03*
X52700000Y-68250000D03*
X56800000Y-67950000D03*
X93800000Y-71750000D03*
X70000000Y-92500000D03*
X79950000Y-92700000D03*
X77070000Y-92400000D03*
X72050000Y-77350000D03*
X67700000Y-78500000D03*
X82235000Y-78515000D03*
X81800000Y-76300000D03*
X68025000Y-81175000D03*
X68150000Y-83300000D03*
X82250000Y-83250000D03*
X82300000Y-80750000D03*
X66400000Y-85300000D03*
X68100000Y-87440000D03*
X82150000Y-88000000D03*
X82350000Y-85500000D03*
X68000000Y-89700000D03*
X67650000Y-91510000D03*
X82250000Y-92400000D03*
X82100000Y-90300000D03*
X93200000Y-82370000D03*
X53750000Y-84800000D03*
X54650000Y-84800000D03*
X93475000Y-64175000D03*
X94400000Y-87250000D03*
X93750000Y-87250000D03*
X95350000Y-101600000D03*
X82300000Y-101200000D03*
X72050000Y-100050000D03*
X61700000Y-95950000D03*
X52700000Y-97950000D03*
X54100000Y-77900000D03*
X56550000Y-66750000D03*
X63250000Y-62000000D03*
X66800000Y-67250000D03*
X74500000Y-69100000D03*
X81800000Y-63700000D03*
X93750000Y-70800000D03*
X56630000Y-71000000D03*
X69010000Y-73590000D03*
X73250000Y-72750000D03*
X87750000Y-71100000D03*
X86850000Y-69800000D03*
X86350000Y-102850000D03*
X84950000Y-102850000D03*
X59050000Y-75450000D03*
X58900000Y-78700000D03*
X55800000Y-73100000D03*
X65910000Y-93510000D03*
X61380000Y-91450000D03*
X66400000Y-102850000D03*
X62920000Y-65160000D03*
X74040000Y-75600000D03*
X75930000Y-91460000D03*
X54450000Y-64700000D03*
X90120000Y-62330000D03*
X79120000Y-91640000D03*
X78790000Y-79020000D03*
X81620000Y-68050000D03*
X74975000Y-91405000D03*
X65650000Y-70670000D03*
X74330000Y-77190000D03*
X57700000Y-80400000D03*
X90150000Y-75200000D03*
X77380000Y-80210000D03*
X78920000Y-72370000D03*
X78140000Y-91680000D03*
X54700000Y-89550000D03*
X95940000Y-78750000D03*
X92500000Y-94250000D03*
X64780000Y-98540000D03*
X75375000Y-97615000D03*
X99050000Y-103550000D03*
X67550000Y-96050000D03*
X65640000Y-97880000D03*
X64000000Y-102900000D03*
D16*
G36*
X99540000Y-109540000D02*
X96667626Y-109540000D01*
X96667626Y-78605926D01*
X96557104Y-78338442D01*
X96352634Y-78133615D01*
X96085344Y-78022626D01*
X95795926Y-78022374D01*
X95528442Y-78132896D01*
X95323615Y-78337366D01*
X95212626Y-78604656D01*
X95212374Y-78894074D01*
X95322896Y-79161558D01*
X95527366Y-79366385D01*
X95794656Y-79477374D01*
X96084074Y-79477626D01*
X96351558Y-79367104D01*
X96556385Y-79162634D01*
X96667374Y-78895344D01*
X96667626Y-78605926D01*
X96667626Y-109540000D01*
X96077626Y-109540000D01*
X96077626Y-101455926D01*
X95967104Y-101188442D01*
X95762634Y-100983615D01*
X95495344Y-100872626D01*
X95205926Y-100872374D01*
X95127626Y-100904726D01*
X95127626Y-87105926D01*
X95017104Y-86838442D01*
X94812634Y-86633615D01*
X94545344Y-86522626D01*
X94477626Y-86522567D01*
X94477626Y-70655926D01*
X94367104Y-70388442D01*
X94202626Y-70223676D01*
X94202626Y-64030926D01*
X94092104Y-63763442D01*
X93887634Y-63558615D01*
X93620344Y-63447626D01*
X93330926Y-63447374D01*
X93063442Y-63557896D01*
X92858615Y-63762366D01*
X92747626Y-64029656D01*
X92747374Y-64319074D01*
X92857896Y-64586558D01*
X93062366Y-64791385D01*
X93329656Y-64902374D01*
X93619074Y-64902626D01*
X93886558Y-64792104D01*
X94091385Y-64587634D01*
X94202374Y-64320344D01*
X94202626Y-64030926D01*
X94202626Y-70223676D01*
X94162634Y-70183615D01*
X93895344Y-70072626D01*
X93605926Y-70072374D01*
X93338442Y-70182896D01*
X93133615Y-70387366D01*
X93022626Y-70654656D01*
X93022374Y-70944074D01*
X93132896Y-71211558D01*
X93337366Y-71416385D01*
X93604656Y-71527374D01*
X93894074Y-71527626D01*
X94161558Y-71417104D01*
X94366385Y-71212634D01*
X94477374Y-70945344D01*
X94477626Y-70655926D01*
X94477626Y-86522567D01*
X94255926Y-86522374D01*
X94074885Y-86597178D01*
X93927626Y-86536030D01*
X93927626Y-82225926D01*
X93817104Y-81958442D01*
X93612634Y-81753615D01*
X93345344Y-81642626D01*
X93055926Y-81642374D01*
X92788442Y-81752896D01*
X92583615Y-81957366D01*
X92472626Y-82224656D01*
X92472374Y-82514074D01*
X92582896Y-82781558D01*
X92787366Y-82986385D01*
X93054656Y-83097374D01*
X93344074Y-83097626D01*
X93611558Y-82987104D01*
X93816385Y-82782634D01*
X93927374Y-82515344D01*
X93927626Y-82225926D01*
X93927626Y-86536030D01*
X93895344Y-86522626D01*
X93605926Y-86522374D01*
X93338442Y-86632896D01*
X93133615Y-86837366D01*
X93022626Y-87104656D01*
X93022374Y-87394074D01*
X93132896Y-87661558D01*
X93337366Y-87866385D01*
X93604656Y-87977374D01*
X93894074Y-87977626D01*
X94075114Y-87902821D01*
X94254656Y-87977374D01*
X94544074Y-87977626D01*
X94811558Y-87867104D01*
X95016385Y-87662634D01*
X95127374Y-87395344D01*
X95127626Y-87105926D01*
X95127626Y-100904726D01*
X94938442Y-100982896D01*
X94733615Y-101187366D01*
X94622626Y-101454656D01*
X94622374Y-101744074D01*
X94732896Y-102011558D01*
X94937366Y-102216385D01*
X95204656Y-102327374D01*
X95494074Y-102327626D01*
X95761558Y-102217104D01*
X95966385Y-102012634D01*
X96077374Y-101745344D01*
X96077626Y-101455926D01*
X96077626Y-109540000D01*
X93227626Y-109540000D01*
X93227626Y-94105926D01*
X93117104Y-93838442D01*
X92912634Y-93633615D01*
X92645344Y-93522626D01*
X92355926Y-93522374D01*
X92088442Y-93632896D01*
X91883615Y-93837366D01*
X91772626Y-94104656D01*
X91772374Y-94394074D01*
X91882896Y-94661558D01*
X92087366Y-94866385D01*
X92354656Y-94977374D01*
X92644074Y-94977626D01*
X92911558Y-94867104D01*
X93116385Y-94662634D01*
X93227374Y-94395344D01*
X93227626Y-94105926D01*
X93227626Y-109540000D01*
X90877626Y-109540000D01*
X90877626Y-75055926D01*
X90847626Y-74983320D01*
X90847626Y-62185926D01*
X90737104Y-61918442D01*
X90532634Y-61713615D01*
X90265344Y-61602626D01*
X89975926Y-61602374D01*
X89708442Y-61712896D01*
X89503615Y-61917366D01*
X89392626Y-62184656D01*
X89392374Y-62474074D01*
X89502896Y-62741558D01*
X89707366Y-62946385D01*
X89974656Y-63057374D01*
X90264074Y-63057626D01*
X90531558Y-62947104D01*
X90736385Y-62742634D01*
X90847374Y-62475344D01*
X90847626Y-62185926D01*
X90847626Y-74983320D01*
X90767104Y-74788442D01*
X90562634Y-74583615D01*
X90295344Y-74472626D01*
X90005926Y-74472374D01*
X89738442Y-74582896D01*
X89533615Y-74787366D01*
X89422626Y-75054656D01*
X89422374Y-75344074D01*
X89532896Y-75611558D01*
X89737366Y-75816385D01*
X90004656Y-75927374D01*
X90294074Y-75927626D01*
X90561558Y-75817104D01*
X90766385Y-75612634D01*
X90877374Y-75345344D01*
X90877626Y-75055926D01*
X90877626Y-109540000D01*
X90373916Y-109540000D01*
X90373916Y-108372905D01*
X90373916Y-107627095D01*
X90122061Y-107106745D01*
X89698803Y-106730000D01*
X90122061Y-106353255D01*
X90373916Y-105832905D01*
X90373916Y-105087095D01*
X90122061Y-104566745D01*
X89690248Y-104182385D01*
X89312903Y-104026095D01*
X89084000Y-104140736D01*
X89084000Y-105316000D01*
X90260097Y-105316000D01*
X90373916Y-105087095D01*
X90373916Y-105832905D01*
X90260097Y-105604000D01*
X89084000Y-105604000D01*
X89084000Y-106680736D01*
X89084000Y-106779264D01*
X89084000Y-107856000D01*
X90260097Y-107856000D01*
X90373916Y-107627095D01*
X90373916Y-108372905D01*
X90260097Y-108144000D01*
X89084000Y-108144000D01*
X89084000Y-109319264D01*
X89312903Y-109433905D01*
X89690248Y-109277615D01*
X90122061Y-108893255D01*
X90373916Y-108372905D01*
X90373916Y-109540000D01*
X88796000Y-109540000D01*
X88796000Y-109319264D01*
X88796000Y-108144000D01*
X88776000Y-108144000D01*
X88776000Y-107856000D01*
X88796000Y-107856000D01*
X88796000Y-106779264D01*
X88796000Y-106680736D01*
X88796000Y-105604000D01*
X88776000Y-105604000D01*
X88776000Y-105316000D01*
X88796000Y-105316000D01*
X88796000Y-104140736D01*
X88567097Y-104026095D01*
X88477626Y-104063152D01*
X88477626Y-70955926D01*
X88367104Y-70688442D01*
X88162634Y-70483615D01*
X87895344Y-70372626D01*
X87605926Y-70372374D01*
X87577626Y-70384067D01*
X87577626Y-69655926D01*
X87467104Y-69388442D01*
X87262634Y-69183615D01*
X86995344Y-69072626D01*
X86705926Y-69072374D01*
X86438442Y-69182896D01*
X86233615Y-69387366D01*
X86122626Y-69654656D01*
X86122374Y-69944074D01*
X86232896Y-70211558D01*
X86437366Y-70416385D01*
X86704656Y-70527374D01*
X86994074Y-70527626D01*
X87261558Y-70417104D01*
X87466385Y-70212634D01*
X87577374Y-69945344D01*
X87577626Y-69655926D01*
X87577626Y-70384067D01*
X87338442Y-70482896D01*
X87133615Y-70687366D01*
X87022626Y-70954656D01*
X87022374Y-71244074D01*
X87132896Y-71511558D01*
X87337366Y-71716385D01*
X87604656Y-71827374D01*
X87894074Y-71827626D01*
X88161558Y-71717104D01*
X88366385Y-71512634D01*
X88477374Y-71245344D01*
X88477626Y-70955926D01*
X88477626Y-104063152D01*
X88189752Y-104182385D01*
X87757939Y-104566745D01*
X87574865Y-104944987D01*
X87300571Y-104534478D01*
X87077626Y-104385510D01*
X87077626Y-102705926D01*
X86967104Y-102438442D01*
X86762634Y-102233615D01*
X86495344Y-102122626D01*
X86205926Y-102122374D01*
X85938442Y-102232896D01*
X85733615Y-102437366D01*
X85649930Y-102638898D01*
X85567104Y-102438442D01*
X85362634Y-102233615D01*
X85095344Y-102122626D01*
X84805926Y-102122374D01*
X84538442Y-102232896D01*
X84333615Y-102437366D01*
X84222626Y-102704656D01*
X84222374Y-102994074D01*
X84332896Y-103261558D01*
X84537366Y-103466385D01*
X84804656Y-103577374D01*
X85094074Y-103577626D01*
X85361558Y-103467104D01*
X85566385Y-103262634D01*
X85650069Y-103061101D01*
X85732896Y-103261558D01*
X85937366Y-103466385D01*
X86204656Y-103577374D01*
X86494074Y-103577626D01*
X86761558Y-103467104D01*
X86966385Y-103262634D01*
X87077374Y-102995344D01*
X87077626Y-102705926D01*
X87077626Y-104385510D01*
X86887386Y-104258396D01*
X86400000Y-104161449D01*
X85912614Y-104258396D01*
X85499429Y-104534478D01*
X85223347Y-104947663D01*
X85130000Y-105416950D01*
X85036653Y-104947663D01*
X84760571Y-104534478D01*
X84347386Y-104258396D01*
X83860000Y-104161449D01*
X83372614Y-104258396D01*
X83077626Y-104455501D01*
X83077626Y-85355926D01*
X83027626Y-85234916D01*
X83027626Y-80605926D01*
X82962626Y-80448613D01*
X82962626Y-78370926D01*
X82852104Y-78103442D01*
X82647634Y-77898615D01*
X82527626Y-77848783D01*
X82527626Y-76155926D01*
X82527626Y-63555926D01*
X82417104Y-63288442D01*
X82212634Y-63083615D01*
X81945344Y-62972626D01*
X81655926Y-62972374D01*
X81388442Y-63082896D01*
X81183615Y-63287366D01*
X81072626Y-63554656D01*
X81072374Y-63844074D01*
X81182896Y-64111558D01*
X81387366Y-64316385D01*
X81654656Y-64427374D01*
X81944074Y-64427626D01*
X82211558Y-64317104D01*
X82416385Y-64112634D01*
X82527374Y-63845344D01*
X82527626Y-63555926D01*
X82527626Y-76155926D01*
X82417104Y-75888442D01*
X82347626Y-75818842D01*
X82347626Y-67905926D01*
X82237104Y-67638442D01*
X82032634Y-67433615D01*
X81765344Y-67322626D01*
X81475926Y-67322374D01*
X81208442Y-67432896D01*
X81003615Y-67637366D01*
X80892626Y-67904656D01*
X80892374Y-68194074D01*
X81002896Y-68461558D01*
X81207366Y-68666385D01*
X81474656Y-68777374D01*
X81764074Y-68777626D01*
X82031558Y-68667104D01*
X82236385Y-68462634D01*
X82347374Y-68195344D01*
X82347626Y-67905926D01*
X82347626Y-75818842D01*
X82212634Y-75683615D01*
X81945344Y-75572626D01*
X81655926Y-75572374D01*
X81388442Y-75682896D01*
X81183615Y-75887366D01*
X81072626Y-76154656D01*
X81072374Y-76444074D01*
X81182896Y-76711558D01*
X81387366Y-76916385D01*
X81654656Y-77027374D01*
X81944074Y-77027626D01*
X82211558Y-76917104D01*
X82416385Y-76712634D01*
X82527374Y-76445344D01*
X82527626Y-76155926D01*
X82527626Y-77848783D01*
X82380344Y-77787626D01*
X82090926Y-77787374D01*
X81823442Y-77897896D01*
X81618615Y-78102366D01*
X81507626Y-78369656D01*
X81507374Y-78659074D01*
X81617896Y-78926558D01*
X81822366Y-79131385D01*
X82089656Y-79242374D01*
X82379074Y-79242626D01*
X82646558Y-79132104D01*
X82851385Y-78927634D01*
X82962374Y-78660344D01*
X82962626Y-78370926D01*
X82962626Y-80448613D01*
X82917104Y-80338442D01*
X82712634Y-80133615D01*
X82445344Y-80022626D01*
X82155926Y-80022374D01*
X81888442Y-80132896D01*
X81683615Y-80337366D01*
X81572626Y-80604656D01*
X81572374Y-80894074D01*
X81682896Y-81161558D01*
X81887366Y-81366385D01*
X82154656Y-81477374D01*
X82444074Y-81477626D01*
X82711558Y-81367104D01*
X82916385Y-81162634D01*
X83027374Y-80895344D01*
X83027626Y-80605926D01*
X83027626Y-85234916D01*
X82977626Y-85113907D01*
X82977626Y-83105926D01*
X82867104Y-82838442D01*
X82662634Y-82633615D01*
X82395344Y-82522626D01*
X82105926Y-82522374D01*
X81838442Y-82632896D01*
X81633615Y-82837366D01*
X81522626Y-83104656D01*
X81522374Y-83394074D01*
X81632896Y-83661558D01*
X81837366Y-83866385D01*
X82104656Y-83977374D01*
X82394074Y-83977626D01*
X82661558Y-83867104D01*
X82866385Y-83662634D01*
X82977374Y-83395344D01*
X82977626Y-83105926D01*
X82977626Y-85113907D01*
X82967104Y-85088442D01*
X82762634Y-84883615D01*
X82495344Y-84772626D01*
X82205926Y-84772374D01*
X81938442Y-84882896D01*
X81733615Y-85087366D01*
X81622626Y-85354656D01*
X81622374Y-85644074D01*
X81732896Y-85911558D01*
X81937366Y-86116385D01*
X82204656Y-86227374D01*
X82494074Y-86227626D01*
X82761558Y-86117104D01*
X82966385Y-85912634D01*
X83077374Y-85645344D01*
X83077626Y-85355926D01*
X83077626Y-104455501D01*
X83027626Y-104488910D01*
X83027626Y-101055926D01*
X82977626Y-100934916D01*
X82977626Y-92255926D01*
X82877626Y-92013907D01*
X82877626Y-87855926D01*
X82767104Y-87588442D01*
X82562634Y-87383615D01*
X82295344Y-87272626D01*
X82005926Y-87272374D01*
X81738442Y-87382896D01*
X81533615Y-87587366D01*
X81422626Y-87854656D01*
X81422374Y-88144074D01*
X81532896Y-88411558D01*
X81737366Y-88616385D01*
X82004656Y-88727374D01*
X82294074Y-88727626D01*
X82561558Y-88617104D01*
X82766385Y-88412634D01*
X82877374Y-88145344D01*
X82877626Y-87855926D01*
X82877626Y-92013907D01*
X82867104Y-91988442D01*
X82827626Y-91948895D01*
X82827626Y-90155926D01*
X82717104Y-89888442D01*
X82512634Y-89683615D01*
X82245344Y-89572626D01*
X81955926Y-89572374D01*
X81688442Y-89682896D01*
X81483615Y-89887366D01*
X81372626Y-90154656D01*
X81372374Y-90444074D01*
X81482896Y-90711558D01*
X81687366Y-90916385D01*
X81954656Y-91027374D01*
X82244074Y-91027626D01*
X82511558Y-90917104D01*
X82716385Y-90712634D01*
X82827374Y-90445344D01*
X82827626Y-90155926D01*
X82827626Y-91948895D01*
X82662634Y-91783615D01*
X82395344Y-91672626D01*
X82105926Y-91672374D01*
X81838442Y-91782896D01*
X81633615Y-91987366D01*
X81522626Y-92254656D01*
X81522374Y-92544074D01*
X81632896Y-92811558D01*
X81837366Y-93016385D01*
X82104656Y-93127374D01*
X82394074Y-93127626D01*
X82661558Y-93017104D01*
X82866385Y-92812634D01*
X82977374Y-92545344D01*
X82977626Y-92255926D01*
X82977626Y-100934916D01*
X82917104Y-100788442D01*
X82712634Y-100583615D01*
X82445344Y-100472626D01*
X82155926Y-100472374D01*
X81888442Y-100582896D01*
X81683615Y-100787366D01*
X81572626Y-101054656D01*
X81572374Y-101344074D01*
X81682896Y-101611558D01*
X81887366Y-101816385D01*
X82154656Y-101927374D01*
X82444074Y-101927626D01*
X82711558Y-101817104D01*
X82916385Y-101612634D01*
X83027374Y-101345344D01*
X83027626Y-101055926D01*
X83027626Y-104488910D01*
X82959429Y-104534478D01*
X82683347Y-104947663D01*
X82590000Y-105416950D01*
X82496653Y-104947663D01*
X82220571Y-104534478D01*
X81807386Y-104258396D01*
X81320000Y-104161449D01*
X80832614Y-104258396D01*
X80677626Y-104361955D01*
X80677626Y-92555926D01*
X80567104Y-92288442D01*
X80362634Y-92083615D01*
X80095344Y-91972626D01*
X79805926Y-91972374D01*
X79762211Y-91990436D01*
X79847374Y-91785344D01*
X79847626Y-91495926D01*
X79737104Y-91228442D01*
X79647626Y-91138807D01*
X79647626Y-72225926D01*
X79537104Y-71958442D01*
X79332634Y-71753615D01*
X79065344Y-71642626D01*
X78775926Y-71642374D01*
X78508442Y-71752896D01*
X78303615Y-71957366D01*
X78192626Y-72224656D01*
X78192374Y-72514074D01*
X78302896Y-72781558D01*
X78507366Y-72986385D01*
X78774656Y-73097374D01*
X79064074Y-73097626D01*
X79331558Y-72987104D01*
X79536385Y-72782634D01*
X79647374Y-72515344D01*
X79647626Y-72225926D01*
X79647626Y-91138807D01*
X79532634Y-91023615D01*
X79517626Y-91017383D01*
X79517626Y-78875926D01*
X79407104Y-78608442D01*
X79202634Y-78403615D01*
X78935344Y-78292626D01*
X78645926Y-78292374D01*
X78378442Y-78402896D01*
X78173615Y-78607366D01*
X78062626Y-78874656D01*
X78062374Y-79164074D01*
X78172896Y-79431558D01*
X78377366Y-79636385D01*
X78644656Y-79747374D01*
X78934074Y-79747626D01*
X79201558Y-79637104D01*
X79406385Y-79432634D01*
X79517374Y-79165344D01*
X79517626Y-78875926D01*
X79517626Y-91017383D01*
X79265344Y-90912626D01*
X78975926Y-90912374D01*
X78708442Y-91022896D01*
X78610042Y-91121123D01*
X78552634Y-91063615D01*
X78285344Y-90952626D01*
X78107626Y-90952471D01*
X78107626Y-80065926D01*
X77997104Y-79798442D01*
X77792634Y-79593615D01*
X77525344Y-79482626D01*
X77235926Y-79482374D01*
X76968442Y-79592896D01*
X76763615Y-79797366D01*
X76757208Y-79812794D01*
X76461826Y-79690141D01*
X76139588Y-79689860D01*
X75841771Y-79812915D01*
X75613716Y-80040573D01*
X75490141Y-80338174D01*
X75489860Y-80660412D01*
X75612915Y-80958229D01*
X75840573Y-81186284D01*
X76138174Y-81309859D01*
X76460412Y-81310140D01*
X76758229Y-81187085D01*
X76986284Y-80959427D01*
X77030621Y-80852651D01*
X77234656Y-80937374D01*
X77524074Y-80937626D01*
X77791558Y-80827104D01*
X77996385Y-80622634D01*
X78107374Y-80355344D01*
X78107626Y-80065926D01*
X78107626Y-90952471D01*
X77995926Y-90952374D01*
X77728442Y-91062896D01*
X77523615Y-91267366D01*
X77412626Y-91534656D01*
X77412434Y-91754465D01*
X77215344Y-91672626D01*
X76925926Y-91672374D01*
X76658442Y-91782896D01*
X76657626Y-91783710D01*
X76657626Y-91315926D01*
X76547104Y-91048442D01*
X76342634Y-90843615D01*
X76075344Y-90732626D01*
X75785926Y-90732374D01*
X75518442Y-90842896D01*
X75480064Y-90881206D01*
X75387634Y-90788615D01*
X75227626Y-90722173D01*
X75227626Y-68955926D01*
X75117104Y-68688442D01*
X74912634Y-68483615D01*
X74645344Y-68372626D01*
X74355926Y-68372374D01*
X74088442Y-68482896D01*
X73883615Y-68687366D01*
X73772626Y-68954656D01*
X73772374Y-69244074D01*
X73882896Y-69511558D01*
X74087366Y-69716385D01*
X74354656Y-69827374D01*
X74644074Y-69827626D01*
X74911558Y-69717104D01*
X75116385Y-69512634D01*
X75227374Y-69245344D01*
X75227626Y-68955926D01*
X75227626Y-90722173D01*
X75120344Y-90677626D01*
X75057626Y-90677571D01*
X75057626Y-77045926D01*
X74947104Y-76778442D01*
X74767626Y-76598650D01*
X74767626Y-75455926D01*
X74657104Y-75188442D01*
X74452634Y-74983615D01*
X74185344Y-74872626D01*
X73977626Y-74872445D01*
X73977626Y-72605926D01*
X73867104Y-72338442D01*
X73662634Y-72133615D01*
X73395344Y-72022626D01*
X73105926Y-72022374D01*
X72838442Y-72132896D01*
X72633615Y-72337366D01*
X72522626Y-72604656D01*
X72522374Y-72894074D01*
X72632896Y-73161558D01*
X72837366Y-73366385D01*
X73104656Y-73477374D01*
X73394074Y-73477626D01*
X73661558Y-73367104D01*
X73866385Y-73162634D01*
X73977374Y-72895344D01*
X73977626Y-72605926D01*
X73977626Y-74872445D01*
X73895926Y-74872374D01*
X73628442Y-74982896D01*
X73423615Y-75187366D01*
X73312626Y-75454656D01*
X73312374Y-75744074D01*
X73422896Y-76011558D01*
X73627366Y-76216385D01*
X73894656Y-76327374D01*
X74184074Y-76327626D01*
X74451558Y-76217104D01*
X74656385Y-76012634D01*
X74767374Y-75745344D01*
X74767626Y-75455926D01*
X74767626Y-76598650D01*
X74742634Y-76573615D01*
X74475344Y-76462626D01*
X74185926Y-76462374D01*
X73918442Y-76572896D01*
X73713615Y-76777366D01*
X73602626Y-77044656D01*
X73602374Y-77334074D01*
X73712896Y-77601558D01*
X73917366Y-77806385D01*
X74184656Y-77917374D01*
X74474074Y-77917626D01*
X74741558Y-77807104D01*
X74946385Y-77602634D01*
X75057374Y-77335344D01*
X75057626Y-77045926D01*
X75057626Y-90677571D01*
X74830926Y-90677374D01*
X74563442Y-90787896D01*
X74510140Y-90841105D01*
X74510140Y-89339588D01*
X74387085Y-89041771D01*
X74159427Y-88813716D01*
X73861826Y-88690141D01*
X73539588Y-88689860D01*
X73241771Y-88812915D01*
X73013716Y-89040573D01*
X72890141Y-89338174D01*
X72889860Y-89660412D01*
X73012915Y-89958229D01*
X73240573Y-90186284D01*
X73538174Y-90309859D01*
X73860412Y-90310140D01*
X74158229Y-90187085D01*
X74386284Y-89959427D01*
X74509859Y-89661826D01*
X74510140Y-89339588D01*
X74510140Y-90841105D01*
X74358615Y-90992366D01*
X74247626Y-91259656D01*
X74247374Y-91549074D01*
X74357896Y-91816558D01*
X74562366Y-92021385D01*
X74829656Y-92132374D01*
X75119074Y-92132626D01*
X75386558Y-92022104D01*
X75424935Y-91983793D01*
X75517366Y-92076385D01*
X75784656Y-92187374D01*
X76074074Y-92187626D01*
X76341558Y-92077104D01*
X76546385Y-91872634D01*
X76657374Y-91605344D01*
X76657626Y-91315926D01*
X76657626Y-91783710D01*
X76453615Y-91987366D01*
X76342626Y-92254656D01*
X76342374Y-92544074D01*
X76452896Y-92811558D01*
X76657366Y-93016385D01*
X76924656Y-93127374D01*
X77214074Y-93127626D01*
X77481558Y-93017104D01*
X77686385Y-92812634D01*
X77797374Y-92545344D01*
X77797565Y-92325534D01*
X77994656Y-92407374D01*
X78284074Y-92407626D01*
X78551558Y-92297104D01*
X78649957Y-92198876D01*
X78707366Y-92256385D01*
X78974656Y-92367374D01*
X79264074Y-92367626D01*
X79307788Y-92349563D01*
X79222626Y-92554656D01*
X79222374Y-92844074D01*
X79332896Y-93111558D01*
X79537366Y-93316385D01*
X79804656Y-93427374D01*
X80094074Y-93427626D01*
X80361558Y-93317104D01*
X80566385Y-93112634D01*
X80677374Y-92845344D01*
X80677626Y-92555926D01*
X80677626Y-104361955D01*
X80419429Y-104534478D01*
X80143347Y-104947663D01*
X80050000Y-105416950D01*
X79956653Y-104947663D01*
X79680571Y-104534478D01*
X79267386Y-104258396D01*
X78780000Y-104161449D01*
X78292614Y-104258396D01*
X77879429Y-104534478D01*
X77603347Y-104947663D01*
X77510000Y-105416950D01*
X77416653Y-104947663D01*
X77140571Y-104534478D01*
X76727386Y-104258396D01*
X76240000Y-104161449D01*
X76102626Y-104188774D01*
X76102626Y-97470926D01*
X75992104Y-97203442D01*
X75787634Y-96998615D01*
X75520344Y-96887626D01*
X75230926Y-96887374D01*
X74963442Y-96997896D01*
X74758615Y-97202366D01*
X74647626Y-97469656D01*
X74647374Y-97759074D01*
X74757896Y-98026558D01*
X74962366Y-98231385D01*
X75229656Y-98342374D01*
X75519074Y-98342626D01*
X75786558Y-98232104D01*
X75991385Y-98027634D01*
X76102374Y-97760344D01*
X76102626Y-97470926D01*
X76102626Y-104188774D01*
X75752614Y-104258396D01*
X75339429Y-104534478D01*
X75063347Y-104947663D01*
X74970000Y-105416950D01*
X74876653Y-104947663D01*
X74600571Y-104534478D01*
X74187386Y-104258396D01*
X73700000Y-104161449D01*
X73212614Y-104258396D01*
X73127626Y-104315183D01*
X73127626Y-92205926D01*
X73017104Y-91938442D01*
X72812634Y-91733615D01*
X72777626Y-91719078D01*
X72777626Y-77205926D01*
X72667104Y-76938442D01*
X72462634Y-76733615D01*
X72195344Y-76622626D01*
X71905926Y-76622374D01*
X71638442Y-76732896D01*
X71433615Y-76937366D01*
X71322626Y-77204656D01*
X71322374Y-77494074D01*
X71432896Y-77761558D01*
X71637366Y-77966385D01*
X71904656Y-78077374D01*
X72194074Y-78077626D01*
X72461558Y-77967104D01*
X72666385Y-77762634D01*
X72777374Y-77495344D01*
X72777626Y-77205926D01*
X72777626Y-91719078D01*
X72545344Y-91622626D01*
X72255926Y-91622374D01*
X71988442Y-91732896D01*
X71783615Y-91937366D01*
X71672626Y-92204656D01*
X71672374Y-92494074D01*
X71782896Y-92761558D01*
X71987366Y-92966385D01*
X72254656Y-93077374D01*
X72544074Y-93077626D01*
X72811558Y-92967104D01*
X73016385Y-92762634D01*
X73127374Y-92495344D01*
X73127626Y-92205926D01*
X73127626Y-104315183D01*
X72799429Y-104534478D01*
X72777626Y-104567108D01*
X72777626Y-99905926D01*
X72667104Y-99638442D01*
X72462634Y-99433615D01*
X72195344Y-99322626D01*
X71905926Y-99322374D01*
X71638442Y-99432896D01*
X71433615Y-99637366D01*
X71322626Y-99904656D01*
X71322374Y-100194074D01*
X71432896Y-100461558D01*
X71637366Y-100666385D01*
X71904656Y-100777374D01*
X72194074Y-100777626D01*
X72461558Y-100667104D01*
X72666385Y-100462634D01*
X72777374Y-100195344D01*
X72777626Y-99905926D01*
X72777626Y-104567108D01*
X72523347Y-104947663D01*
X72430000Y-105416950D01*
X72336653Y-104947663D01*
X72060571Y-104534478D01*
X71647386Y-104258396D01*
X71160000Y-104161449D01*
X70727626Y-104247453D01*
X70727626Y-92355926D01*
X70617104Y-92088442D01*
X70412634Y-91883615D01*
X70145344Y-91772626D01*
X69855926Y-91772374D01*
X69737626Y-91821254D01*
X69737626Y-73445926D01*
X69627104Y-73178442D01*
X69422634Y-72973615D01*
X69155344Y-72862626D01*
X68865926Y-72862374D01*
X68598442Y-72972896D01*
X68393615Y-73177366D01*
X68282626Y-73444656D01*
X68282374Y-73734074D01*
X68392896Y-74001558D01*
X68597366Y-74206385D01*
X68864656Y-74317374D01*
X69154074Y-74317626D01*
X69421558Y-74207104D01*
X69626385Y-74002634D01*
X69737374Y-73735344D01*
X69737626Y-73445926D01*
X69737626Y-91821254D01*
X69588442Y-91882896D01*
X69383615Y-92087366D01*
X69272626Y-92354656D01*
X69272374Y-92644074D01*
X69382896Y-92911558D01*
X69587366Y-93116385D01*
X69854656Y-93227374D01*
X70144074Y-93227626D01*
X70411558Y-93117104D01*
X70616385Y-92912634D01*
X70727374Y-92645344D01*
X70727626Y-92355926D01*
X70727626Y-104247453D01*
X70672614Y-104258396D01*
X70259429Y-104534478D01*
X69983347Y-104947663D01*
X69890000Y-105416950D01*
X69796653Y-104947663D01*
X69520571Y-104534478D01*
X69107386Y-104258396D01*
X68877626Y-104212693D01*
X68877626Y-83155926D01*
X68767104Y-82888442D01*
X68752626Y-82873938D01*
X68752626Y-81030926D01*
X68642104Y-80763442D01*
X68437634Y-80558615D01*
X68427626Y-80554459D01*
X68427626Y-78355926D01*
X68317104Y-78088442D01*
X68112634Y-77883615D01*
X67845344Y-77772626D01*
X67555926Y-77772374D01*
X67527626Y-77784067D01*
X67527626Y-67105926D01*
X67417104Y-66838442D01*
X67212634Y-66633615D01*
X66945344Y-66522626D01*
X66655926Y-66522374D01*
X66388442Y-66632896D01*
X66183615Y-66837366D01*
X66072626Y-67104656D01*
X66072374Y-67394074D01*
X66182896Y-67661558D01*
X66387366Y-67866385D01*
X66654656Y-67977374D01*
X66944074Y-67977626D01*
X67211558Y-67867104D01*
X67416385Y-67662634D01*
X67527374Y-67395344D01*
X67527626Y-67105926D01*
X67527626Y-77784067D01*
X67288442Y-77882896D01*
X67083615Y-78087366D01*
X66972626Y-78354656D01*
X66972374Y-78644074D01*
X67082896Y-78911558D01*
X67287366Y-79116385D01*
X67554656Y-79227374D01*
X67844074Y-79227626D01*
X68111558Y-79117104D01*
X68316385Y-78912634D01*
X68427374Y-78645344D01*
X68427626Y-78355926D01*
X68427626Y-80554459D01*
X68170344Y-80447626D01*
X67880926Y-80447374D01*
X67613442Y-80557896D01*
X67408615Y-80762366D01*
X67297626Y-81029656D01*
X67297374Y-81319074D01*
X67407896Y-81586558D01*
X67612366Y-81791385D01*
X67879656Y-81902374D01*
X68169074Y-81902626D01*
X68436558Y-81792104D01*
X68641385Y-81587634D01*
X68752374Y-81320344D01*
X68752626Y-81030926D01*
X68752626Y-82873938D01*
X68562634Y-82683615D01*
X68295344Y-82572626D01*
X68005926Y-82572374D01*
X67738442Y-82682896D01*
X67533615Y-82887366D01*
X67422626Y-83154656D01*
X67422374Y-83444074D01*
X67532896Y-83711558D01*
X67737366Y-83916385D01*
X68004656Y-84027374D01*
X68294074Y-84027626D01*
X68561558Y-83917104D01*
X68766385Y-83712634D01*
X68877374Y-83445344D01*
X68877626Y-83155926D01*
X68877626Y-104212693D01*
X68827626Y-104202748D01*
X68827626Y-87295926D01*
X68717104Y-87028442D01*
X68512634Y-86823615D01*
X68245344Y-86712626D01*
X67955926Y-86712374D01*
X67688442Y-86822896D01*
X67483615Y-87027366D01*
X67372626Y-87294656D01*
X67372374Y-87584074D01*
X67482896Y-87851558D01*
X67687366Y-88056385D01*
X67954656Y-88167374D01*
X68244074Y-88167626D01*
X68511558Y-88057104D01*
X68716385Y-87852634D01*
X68827374Y-87585344D01*
X68827626Y-87295926D01*
X68827626Y-104202748D01*
X68727626Y-104182857D01*
X68727626Y-89555926D01*
X68617104Y-89288442D01*
X68412634Y-89083615D01*
X68145344Y-88972626D01*
X67855926Y-88972374D01*
X67588442Y-89082896D01*
X67383615Y-89287366D01*
X67272626Y-89554656D01*
X67272374Y-89844074D01*
X67382896Y-90111558D01*
X67587366Y-90316385D01*
X67854656Y-90427374D01*
X68144074Y-90427626D01*
X68411558Y-90317104D01*
X68616385Y-90112634D01*
X68727374Y-89845344D01*
X68727626Y-89555926D01*
X68727626Y-104182857D01*
X68620000Y-104161449D01*
X68377626Y-104209660D01*
X68377626Y-91365926D01*
X68267104Y-91098442D01*
X68062634Y-90893615D01*
X67795344Y-90782626D01*
X67505926Y-90782374D01*
X67238442Y-90892896D01*
X67127626Y-91003518D01*
X67127626Y-85155926D01*
X67017104Y-84888442D01*
X66812634Y-84683615D01*
X66545344Y-84572626D01*
X66377626Y-84572479D01*
X66377626Y-70525926D01*
X66267104Y-70258442D01*
X66062634Y-70053615D01*
X65795344Y-69942626D01*
X65505926Y-69942374D01*
X65238442Y-70052896D01*
X65033615Y-70257366D01*
X64922626Y-70524656D01*
X64922374Y-70814074D01*
X65032896Y-71081558D01*
X65237366Y-71286385D01*
X65504656Y-71397374D01*
X65794074Y-71397626D01*
X66061558Y-71287104D01*
X66266385Y-71082634D01*
X66377374Y-70815344D01*
X66377626Y-70525926D01*
X66377626Y-84572479D01*
X66255926Y-84572374D01*
X65988442Y-84682896D01*
X65783615Y-84887366D01*
X65672626Y-85154656D01*
X65672374Y-85444074D01*
X65782896Y-85711558D01*
X65987366Y-85916385D01*
X66254656Y-86027374D01*
X66544074Y-86027626D01*
X66811558Y-85917104D01*
X67016385Y-85712634D01*
X67127374Y-85445344D01*
X67127626Y-85155926D01*
X67127626Y-91003518D01*
X67033615Y-91097366D01*
X66922626Y-91364656D01*
X66922374Y-91654074D01*
X67032896Y-91921558D01*
X67237366Y-92126385D01*
X67504656Y-92237374D01*
X67794074Y-92237626D01*
X68061558Y-92127104D01*
X68266385Y-91922634D01*
X68377374Y-91655344D01*
X68377626Y-91365926D01*
X68377626Y-104209660D01*
X68277626Y-104229551D01*
X68277626Y-95905926D01*
X68167104Y-95638442D01*
X67962634Y-95433615D01*
X67695344Y-95322626D01*
X67405926Y-95322374D01*
X67138442Y-95432896D01*
X66933615Y-95637366D01*
X66822626Y-95904656D01*
X66822374Y-96194074D01*
X66932896Y-96461558D01*
X67137366Y-96666385D01*
X67404656Y-96777374D01*
X67694074Y-96777626D01*
X67961558Y-96667104D01*
X68166385Y-96462634D01*
X68277374Y-96195344D01*
X68277626Y-95905926D01*
X68277626Y-104229551D01*
X68132614Y-104258396D01*
X67719429Y-104534478D01*
X67443347Y-104947663D01*
X67350000Y-105416950D01*
X67256653Y-104947663D01*
X67127626Y-104754560D01*
X67127626Y-102705926D01*
X67017104Y-102438442D01*
X66812634Y-102233615D01*
X66637626Y-102160945D01*
X66637626Y-93365926D01*
X66527104Y-93098442D01*
X66322634Y-92893615D01*
X66055344Y-92782626D01*
X65765926Y-92782374D01*
X65498442Y-92892896D01*
X65293615Y-93097366D01*
X65182626Y-93364656D01*
X65182374Y-93654074D01*
X65292896Y-93921558D01*
X65497366Y-94126385D01*
X65764656Y-94237374D01*
X66054074Y-94237626D01*
X66321558Y-94127104D01*
X66526385Y-93922634D01*
X66637374Y-93655344D01*
X66637626Y-93365926D01*
X66637626Y-102160945D01*
X66545344Y-102122626D01*
X66367626Y-102122471D01*
X66367626Y-97735926D01*
X66257104Y-97468442D01*
X66052634Y-97263615D01*
X65785344Y-97152626D01*
X65495926Y-97152374D01*
X65228442Y-97262896D01*
X65023615Y-97467366D01*
X64912626Y-97734656D01*
X64912558Y-97812614D01*
X64635926Y-97812374D01*
X64368442Y-97922896D01*
X64163615Y-98127366D01*
X64052626Y-98394656D01*
X64052374Y-98684074D01*
X64162896Y-98951558D01*
X64367366Y-99156385D01*
X64634656Y-99267374D01*
X64924074Y-99267626D01*
X65191558Y-99157104D01*
X65396385Y-98952634D01*
X65507374Y-98685344D01*
X65507441Y-98607385D01*
X65784074Y-98607626D01*
X66051558Y-98497104D01*
X66256385Y-98292634D01*
X66367374Y-98025344D01*
X66367626Y-97735926D01*
X66367626Y-102122471D01*
X66255926Y-102122374D01*
X65988442Y-102232896D01*
X65783615Y-102437366D01*
X65672626Y-102704656D01*
X65672374Y-102994074D01*
X65782896Y-103261558D01*
X65987366Y-103466385D01*
X66254656Y-103577374D01*
X66544074Y-103577626D01*
X66811558Y-103467104D01*
X67016385Y-103262634D01*
X67127374Y-102995344D01*
X67127626Y-102705926D01*
X67127626Y-104754560D01*
X66980571Y-104534478D01*
X66567386Y-104258396D01*
X66080000Y-104161449D01*
X65592614Y-104258396D01*
X65179429Y-104534478D01*
X64903347Y-104947663D01*
X64810000Y-105416950D01*
X64727626Y-105002827D01*
X64727626Y-102755926D01*
X64617104Y-102488442D01*
X64412634Y-102283615D01*
X64145344Y-102172626D01*
X63977626Y-102172479D01*
X63977626Y-61855926D01*
X63867104Y-61588442D01*
X63662634Y-61383615D01*
X63395344Y-61272626D01*
X63105926Y-61272374D01*
X62838442Y-61382896D01*
X62633615Y-61587366D01*
X62522626Y-61854656D01*
X62522374Y-62144074D01*
X62632896Y-62411558D01*
X62837366Y-62616385D01*
X63104656Y-62727374D01*
X63394074Y-62727626D01*
X63661558Y-62617104D01*
X63866385Y-62412634D01*
X63977374Y-62145344D01*
X63977626Y-61855926D01*
X63977626Y-102172479D01*
X63855926Y-102172374D01*
X63647626Y-102258441D01*
X63647626Y-65015926D01*
X63537104Y-64748442D01*
X63332634Y-64543615D01*
X63065344Y-64432626D01*
X62775926Y-64432374D01*
X62508442Y-64542896D01*
X62303615Y-64747366D01*
X62192626Y-65014656D01*
X62192374Y-65304074D01*
X62302896Y-65571558D01*
X62507366Y-65776385D01*
X62774656Y-65887374D01*
X63064074Y-65887626D01*
X63331558Y-65777104D01*
X63536385Y-65572634D01*
X63647374Y-65305344D01*
X63647626Y-65015926D01*
X63647626Y-102258441D01*
X63588442Y-102282896D01*
X63383615Y-102487366D01*
X63272626Y-102754656D01*
X63272374Y-103044074D01*
X63382896Y-103311558D01*
X63587366Y-103516385D01*
X63854656Y-103627374D01*
X64144074Y-103627626D01*
X64411558Y-103517104D01*
X64616385Y-103312634D01*
X64727374Y-103045344D01*
X64727626Y-102755926D01*
X64727626Y-105002827D01*
X64716653Y-104947663D01*
X64440571Y-104534478D01*
X64027386Y-104258396D01*
X63540000Y-104161449D01*
X63052614Y-104258396D01*
X62639429Y-104534478D01*
X62427626Y-104851461D01*
X62427626Y-95805926D01*
X62317104Y-95538442D01*
X62112634Y-95333615D01*
X62107626Y-95331535D01*
X62107626Y-91305926D01*
X61997104Y-91038442D01*
X61792634Y-90833615D01*
X61525344Y-90722626D01*
X61235926Y-90722374D01*
X60968442Y-90832896D01*
X60763615Y-91037366D01*
X60652626Y-91304656D01*
X60652374Y-91594074D01*
X60762896Y-91861558D01*
X60967366Y-92066385D01*
X61234656Y-92177374D01*
X61524074Y-92177626D01*
X61791558Y-92067104D01*
X61996385Y-91862634D01*
X62107374Y-91595344D01*
X62107626Y-91305926D01*
X62107626Y-95331535D01*
X61845344Y-95222626D01*
X61555926Y-95222374D01*
X61288442Y-95332896D01*
X61083615Y-95537366D01*
X60972626Y-95804656D01*
X60972374Y-96094074D01*
X61082896Y-96361558D01*
X61287366Y-96566385D01*
X61554656Y-96677374D01*
X61844074Y-96677626D01*
X62111558Y-96567104D01*
X62316385Y-96362634D01*
X62427374Y-96095344D01*
X62427626Y-95805926D01*
X62427626Y-104851461D01*
X62365134Y-104944987D01*
X62182061Y-104566745D01*
X61750248Y-104182385D01*
X61372903Y-104026095D01*
X61144000Y-104140736D01*
X61144000Y-105316000D01*
X61164000Y-105316000D01*
X61164000Y-105604000D01*
X61144000Y-105604000D01*
X61144000Y-105624000D01*
X60856000Y-105624000D01*
X60856000Y-105604000D01*
X60856000Y-105316000D01*
X60856000Y-104140736D01*
X60627097Y-104026095D01*
X60249752Y-104182385D01*
X59817939Y-104566745D01*
X59777626Y-104650034D01*
X59777626Y-75305926D01*
X59667104Y-75038442D01*
X59462634Y-74833615D01*
X59195344Y-74722626D01*
X58905926Y-74722374D01*
X58638442Y-74832896D01*
X58433615Y-75037366D01*
X58322626Y-75304656D01*
X58322374Y-75594074D01*
X58432896Y-75861558D01*
X58637366Y-76066385D01*
X58904656Y-76177374D01*
X59194074Y-76177626D01*
X59461558Y-76067104D01*
X59666385Y-75862634D01*
X59777374Y-75595344D01*
X59777626Y-75305926D01*
X59777626Y-104650034D01*
X59627626Y-104959944D01*
X59627626Y-78555926D01*
X59517104Y-78288442D01*
X59312634Y-78083615D01*
X59045344Y-77972626D01*
X58755926Y-77972374D01*
X58488442Y-78082896D01*
X58283615Y-78287366D01*
X58172626Y-78554656D01*
X58172374Y-78844074D01*
X58282896Y-79111558D01*
X58487366Y-79316385D01*
X58754656Y-79427374D01*
X59044074Y-79427626D01*
X59311558Y-79317104D01*
X59516385Y-79112634D01*
X59627374Y-78845344D01*
X59627626Y-78555926D01*
X59627626Y-104959944D01*
X59566084Y-105087095D01*
X59679903Y-105316000D01*
X60856000Y-105316000D01*
X60856000Y-105604000D01*
X59679903Y-105604000D01*
X59566084Y-105832905D01*
X59817939Y-106353255D01*
X60228128Y-106718368D01*
X60136400Y-106718368D01*
X59980068Y-106748700D01*
X59842667Y-106838957D01*
X59750692Y-106975215D01*
X59718368Y-107136400D01*
X59718368Y-108863600D01*
X59748700Y-109019932D01*
X59838957Y-109157333D01*
X59975215Y-109249308D01*
X60136400Y-109281632D01*
X61863600Y-109281632D01*
X62019932Y-109251300D01*
X62157333Y-109161043D01*
X62249308Y-109024785D01*
X62281632Y-108863600D01*
X62281632Y-108101527D01*
X62363347Y-108512337D01*
X62639429Y-108925522D01*
X63052614Y-109201604D01*
X63540000Y-109298551D01*
X64027386Y-109201604D01*
X64440571Y-108925522D01*
X64714865Y-108515012D01*
X64897939Y-108893255D01*
X65329752Y-109277615D01*
X65707097Y-109433905D01*
X65936000Y-109319264D01*
X65936000Y-108144000D01*
X65916000Y-108144000D01*
X65916000Y-107856000D01*
X65936000Y-107856000D01*
X65936000Y-107836000D01*
X66224000Y-107836000D01*
X66224000Y-107856000D01*
X66244000Y-107856000D01*
X66244000Y-108144000D01*
X66224000Y-108144000D01*
X66224000Y-109319264D01*
X66452903Y-109433905D01*
X66830248Y-109277615D01*
X67262061Y-108893255D01*
X67445134Y-108515012D01*
X67719429Y-108925522D01*
X68132614Y-109201604D01*
X68620000Y-109298551D01*
X69107386Y-109201604D01*
X69520571Y-108925522D01*
X69796653Y-108512337D01*
X69890000Y-108043049D01*
X69983347Y-108512337D01*
X70259429Y-108925522D01*
X70672614Y-109201604D01*
X71160000Y-109298551D01*
X71647386Y-109201604D01*
X72060571Y-108925522D01*
X72336653Y-108512337D01*
X72430000Y-108043049D01*
X72523347Y-108512337D01*
X72799429Y-108925522D01*
X73212614Y-109201604D01*
X73700000Y-109298551D01*
X74187386Y-109201604D01*
X74600571Y-108925522D01*
X74876653Y-108512337D01*
X74970000Y-108043049D01*
X75063347Y-108512337D01*
X75339429Y-108925522D01*
X75752614Y-109201604D01*
X76240000Y-109298551D01*
X76727386Y-109201604D01*
X77140571Y-108925522D01*
X77416653Y-108512337D01*
X77510000Y-108043049D01*
X77603347Y-108512337D01*
X77879429Y-108925522D01*
X78292614Y-109201604D01*
X78780000Y-109298551D01*
X79267386Y-109201604D01*
X79680571Y-108925522D01*
X79956653Y-108512337D01*
X80050000Y-108043049D01*
X80143347Y-108512337D01*
X80419429Y-108925522D01*
X80832614Y-109201604D01*
X81320000Y-109298551D01*
X81807386Y-109201604D01*
X82220571Y-108925522D01*
X82496653Y-108512337D01*
X82590000Y-108043049D01*
X82683347Y-108512337D01*
X82959429Y-108925522D01*
X83372614Y-109201604D01*
X83860000Y-109298551D01*
X84347386Y-109201604D01*
X84760571Y-108925522D01*
X85036653Y-108512337D01*
X85130000Y-108043049D01*
X85223347Y-108512337D01*
X85499429Y-108925522D01*
X85912614Y-109201604D01*
X86400000Y-109298551D01*
X86887386Y-109201604D01*
X87300571Y-108925522D01*
X87574865Y-108515012D01*
X87757939Y-108893255D01*
X88189752Y-109277615D01*
X88567097Y-109433905D01*
X88796000Y-109319264D01*
X88796000Y-109540000D01*
X58427626Y-109540000D01*
X58427626Y-80255926D01*
X58317104Y-79988442D01*
X58112634Y-79783615D01*
X57845344Y-79672626D01*
X57555926Y-79672374D01*
X57357626Y-79754309D01*
X57357626Y-70855926D01*
X57277626Y-70662310D01*
X57277626Y-66605926D01*
X57167104Y-66338442D01*
X56962634Y-66133615D01*
X56695344Y-66022626D01*
X56405926Y-66022374D01*
X56138442Y-66132896D01*
X55933615Y-66337366D01*
X55822626Y-66604656D01*
X55822374Y-66894074D01*
X55932896Y-67161558D01*
X56137366Y-67366385D01*
X56404656Y-67477374D01*
X56694074Y-67477626D01*
X56961558Y-67367104D01*
X57166385Y-67162634D01*
X57277374Y-66895344D01*
X57277626Y-66605926D01*
X57277626Y-70662310D01*
X57247104Y-70588442D01*
X57042634Y-70383615D01*
X56775344Y-70272626D01*
X56485926Y-70272374D01*
X56218442Y-70382896D01*
X56013615Y-70587366D01*
X55902626Y-70854656D01*
X55902374Y-71144074D01*
X56012896Y-71411558D01*
X56217366Y-71616385D01*
X56484656Y-71727374D01*
X56774074Y-71727626D01*
X57041558Y-71617104D01*
X57246385Y-71412634D01*
X57357374Y-71145344D01*
X57357626Y-70855926D01*
X57357626Y-79754309D01*
X57288442Y-79782896D01*
X57083615Y-79987366D01*
X56972626Y-80254656D01*
X56972374Y-80544074D01*
X57082896Y-80811558D01*
X57287366Y-81016385D01*
X57554656Y-81127374D01*
X57844074Y-81127626D01*
X58111558Y-81017104D01*
X58316385Y-80812634D01*
X58427374Y-80545344D01*
X58427626Y-80255926D01*
X58427626Y-109540000D01*
X57842080Y-109540000D01*
X57842080Y-105628636D01*
X57708868Y-105147840D01*
X57670944Y-105098955D01*
X57449657Y-105043989D01*
X57246011Y-105247635D01*
X57246011Y-104840343D01*
X57191045Y-104619056D01*
X57142160Y-104581132D01*
X56661364Y-104447920D01*
X56527626Y-104464373D01*
X56527626Y-72955926D01*
X56417104Y-72688442D01*
X56212634Y-72483615D01*
X55945344Y-72372626D01*
X55655926Y-72372374D01*
X55388442Y-72482896D01*
X55183615Y-72687366D01*
X55177626Y-72701789D01*
X55177626Y-64555926D01*
X55067104Y-64288442D01*
X54862634Y-64083615D01*
X54595344Y-63972626D01*
X54305926Y-63972374D01*
X54038442Y-64082896D01*
X53833615Y-64287366D01*
X53722626Y-64554656D01*
X53722374Y-64844074D01*
X53832896Y-65111558D01*
X54037366Y-65316385D01*
X54304656Y-65427374D01*
X54594074Y-65427626D01*
X54861558Y-65317104D01*
X55066385Y-65112634D01*
X55177374Y-64845344D01*
X55177626Y-64555926D01*
X55177626Y-72701789D01*
X55072626Y-72954656D01*
X55072374Y-73244074D01*
X55182896Y-73511558D01*
X55387366Y-73716385D01*
X55654656Y-73827374D01*
X55944074Y-73827626D01*
X56211558Y-73717104D01*
X56416385Y-73512634D01*
X56527374Y-73245344D01*
X56527626Y-72955926D01*
X56527626Y-104464373D01*
X56180240Y-104507112D01*
X56180240Y-104354137D01*
X56099534Y-103948401D01*
X55869703Y-103604434D01*
X55525736Y-103374603D01*
X55427626Y-103355087D01*
X55427626Y-89405926D01*
X55377626Y-89284916D01*
X55377626Y-84655926D01*
X55267104Y-84388442D01*
X55062634Y-84183615D01*
X54827626Y-84086030D01*
X54827626Y-77755926D01*
X54717104Y-77488442D01*
X54512634Y-77283615D01*
X54245344Y-77172626D01*
X53955926Y-77172374D01*
X53688442Y-77282896D01*
X53483615Y-77487366D01*
X53372626Y-77754656D01*
X53372374Y-78044074D01*
X53482896Y-78311558D01*
X53687366Y-78516385D01*
X53954656Y-78627374D01*
X54244074Y-78627626D01*
X54511558Y-78517104D01*
X54716385Y-78312634D01*
X54827374Y-78045344D01*
X54827626Y-77755926D01*
X54827626Y-84086030D01*
X54795344Y-84072626D01*
X54505926Y-84072374D01*
X54238442Y-84182896D01*
X54200112Y-84221158D01*
X54162634Y-84183615D01*
X53895344Y-84072626D01*
X53605926Y-84072374D01*
X53338442Y-84182896D01*
X53133615Y-84387366D01*
X53022626Y-84654656D01*
X53022374Y-84944074D01*
X53132896Y-85211558D01*
X53337366Y-85416385D01*
X53604656Y-85527374D01*
X53894074Y-85527626D01*
X54161558Y-85417104D01*
X54199887Y-85378841D01*
X54237366Y-85416385D01*
X54504656Y-85527374D01*
X54794074Y-85527626D01*
X55061558Y-85417104D01*
X55266385Y-85212634D01*
X55377374Y-84945344D01*
X55377626Y-84655926D01*
X55377626Y-89284916D01*
X55317104Y-89138442D01*
X55112634Y-88933615D01*
X54845344Y-88822626D01*
X54555926Y-88822374D01*
X54288442Y-88932896D01*
X54083615Y-89137366D01*
X53972626Y-89404656D01*
X53972374Y-89694074D01*
X54082896Y-89961558D01*
X54287366Y-90166385D01*
X54554656Y-90277374D01*
X54844074Y-90277626D01*
X55111558Y-90167104D01*
X55316385Y-89962634D01*
X55427374Y-89695344D01*
X55427626Y-89405926D01*
X55427626Y-103355087D01*
X55120000Y-103293897D01*
X54714264Y-103374603D01*
X54370297Y-103604434D01*
X54140466Y-103948401D01*
X54059760Y-104354137D01*
X54059760Y-104725219D01*
X53654935Y-104644695D01*
X53427626Y-104689909D01*
X53427626Y-97805926D01*
X53317104Y-97538442D01*
X53112634Y-97333615D01*
X52845344Y-97222626D01*
X52555926Y-97222374D01*
X52288442Y-97332896D01*
X52083615Y-97537366D01*
X51972626Y-97804656D01*
X51972374Y-98094074D01*
X52082896Y-98361558D01*
X52287366Y-98566385D01*
X52554656Y-98677374D01*
X52844074Y-98677626D01*
X53111558Y-98567104D01*
X53316385Y-98362634D01*
X53427374Y-98095344D01*
X53427626Y-97805926D01*
X53427626Y-104689909D01*
X53249199Y-104725401D01*
X52905232Y-104955232D01*
X52675401Y-105299199D01*
X52594695Y-105704935D01*
X52675401Y-106110671D01*
X52905232Y-106454638D01*
X53295362Y-106844768D01*
X53639328Y-107074599D01*
X54045065Y-107155305D01*
X54450801Y-107074599D01*
X54794768Y-106844768D01*
X55024599Y-106500801D01*
X55026519Y-106491143D01*
X55071132Y-106652160D01*
X55109056Y-106701045D01*
X55330343Y-106756011D01*
X56186353Y-105900000D01*
X56172211Y-105885858D01*
X56375858Y-105682211D01*
X56390000Y-105696353D01*
X57246011Y-104840343D01*
X57246011Y-105247635D01*
X56593647Y-105900000D01*
X57283603Y-106589956D01*
X57535380Y-106557981D01*
X57781159Y-106123812D01*
X57842080Y-105628636D01*
X57842080Y-109540000D01*
X57079956Y-109540000D01*
X57079956Y-106793603D01*
X56390000Y-106103647D01*
X55533989Y-106959657D01*
X55588955Y-107180944D01*
X55637840Y-107218868D01*
X56118636Y-107352080D01*
X56613812Y-107291159D01*
X57047981Y-107045380D01*
X57079956Y-106793603D01*
X57079956Y-109540000D01*
X50460000Y-109540000D01*
X50460000Y-60460000D01*
X99540000Y-60460000D01*
X99540000Y-103011116D01*
X99462634Y-102933615D01*
X99195344Y-102822626D01*
X98905926Y-102822374D01*
X98638442Y-102932896D01*
X98433615Y-103137366D01*
X98322626Y-103404656D01*
X98322374Y-103694074D01*
X98432896Y-103961558D01*
X98637366Y-104166385D01*
X98904656Y-104277374D01*
X99194074Y-104277626D01*
X99461558Y-104167104D01*
X99540000Y-104088798D01*
X99540000Y-109540000D01*
X99540000Y-109540000D01*
G37*
X99540000Y-109540000D02*
X96667626Y-109540000D01*
X96667626Y-78605926D01*
X96557104Y-78338442D01*
X96352634Y-78133615D01*
X96085344Y-78022626D01*
X95795926Y-78022374D01*
X95528442Y-78132896D01*
X95323615Y-78337366D01*
X95212626Y-78604656D01*
X95212374Y-78894074D01*
X95322896Y-79161558D01*
X95527366Y-79366385D01*
X95794656Y-79477374D01*
X96084074Y-79477626D01*
X96351558Y-79367104D01*
X96556385Y-79162634D01*
X96667374Y-78895344D01*
X96667626Y-78605926D01*
X96667626Y-109540000D01*
X96077626Y-109540000D01*
X96077626Y-101455926D01*
X95967104Y-101188442D01*
X95762634Y-100983615D01*
X95495344Y-100872626D01*
X95205926Y-100872374D01*
X95127626Y-100904726D01*
X95127626Y-87105926D01*
X95017104Y-86838442D01*
X94812634Y-86633615D01*
X94545344Y-86522626D01*
X94477626Y-86522567D01*
X94477626Y-70655926D01*
X94367104Y-70388442D01*
X94202626Y-70223676D01*
X94202626Y-64030926D01*
X94092104Y-63763442D01*
X93887634Y-63558615D01*
X93620344Y-63447626D01*
X93330926Y-63447374D01*
X93063442Y-63557896D01*
X92858615Y-63762366D01*
X92747626Y-64029656D01*
X92747374Y-64319074D01*
X92857896Y-64586558D01*
X93062366Y-64791385D01*
X93329656Y-64902374D01*
X93619074Y-64902626D01*
X93886558Y-64792104D01*
X94091385Y-64587634D01*
X94202374Y-64320344D01*
X94202626Y-64030926D01*
X94202626Y-70223676D01*
X94162634Y-70183615D01*
X93895344Y-70072626D01*
X93605926Y-70072374D01*
X93338442Y-70182896D01*
X93133615Y-70387366D01*
X93022626Y-70654656D01*
X93022374Y-70944074D01*
X93132896Y-71211558D01*
X93337366Y-71416385D01*
X93604656Y-71527374D01*
X93894074Y-71527626D01*
X94161558Y-71417104D01*
X94366385Y-71212634D01*
X94477374Y-70945344D01*
X94477626Y-70655926D01*
X94477626Y-86522567D01*
X94255926Y-86522374D01*
X94074885Y-86597178D01*
X93927626Y-86536030D01*
X93927626Y-82225926D01*
X93817104Y-81958442D01*
X93612634Y-81753615D01*
X93345344Y-81642626D01*
X93055926Y-81642374D01*
X92788442Y-81752896D01*
X92583615Y-81957366D01*
X92472626Y-82224656D01*
X92472374Y-82514074D01*
X92582896Y-82781558D01*
X92787366Y-82986385D01*
X93054656Y-83097374D01*
X93344074Y-83097626D01*
X93611558Y-82987104D01*
X93816385Y-82782634D01*
X93927374Y-82515344D01*
X93927626Y-82225926D01*
X93927626Y-86536030D01*
X93895344Y-86522626D01*
X93605926Y-86522374D01*
X93338442Y-86632896D01*
X93133615Y-86837366D01*
X93022626Y-87104656D01*
X93022374Y-87394074D01*
X93132896Y-87661558D01*
X93337366Y-87866385D01*
X93604656Y-87977374D01*
X93894074Y-87977626D01*
X94075114Y-87902821D01*
X94254656Y-87977374D01*
X94544074Y-87977626D01*
X94811558Y-87867104D01*
X95016385Y-87662634D01*
X95127374Y-87395344D01*
X95127626Y-87105926D01*
X95127626Y-100904726D01*
X94938442Y-100982896D01*
X94733615Y-101187366D01*
X94622626Y-101454656D01*
X94622374Y-101744074D01*
X94732896Y-102011558D01*
X94937366Y-102216385D01*
X95204656Y-102327374D01*
X95494074Y-102327626D01*
X95761558Y-102217104D01*
X95966385Y-102012634D01*
X96077374Y-101745344D01*
X96077626Y-101455926D01*
X96077626Y-109540000D01*
X93227626Y-109540000D01*
X93227626Y-94105926D01*
X93117104Y-93838442D01*
X92912634Y-93633615D01*
X92645344Y-93522626D01*
X92355926Y-93522374D01*
X92088442Y-93632896D01*
X91883615Y-93837366D01*
X91772626Y-94104656D01*
X91772374Y-94394074D01*
X91882896Y-94661558D01*
X92087366Y-94866385D01*
X92354656Y-94977374D01*
X92644074Y-94977626D01*
X92911558Y-94867104D01*
X93116385Y-94662634D01*
X93227374Y-94395344D01*
X93227626Y-94105926D01*
X93227626Y-109540000D01*
X90877626Y-109540000D01*
X90877626Y-75055926D01*
X90847626Y-74983320D01*
X90847626Y-62185926D01*
X90737104Y-61918442D01*
X90532634Y-61713615D01*
X90265344Y-61602626D01*
X89975926Y-61602374D01*
X89708442Y-61712896D01*
X89503615Y-61917366D01*
X89392626Y-62184656D01*
X89392374Y-62474074D01*
X89502896Y-62741558D01*
X89707366Y-62946385D01*
X89974656Y-63057374D01*
X90264074Y-63057626D01*
X90531558Y-62947104D01*
X90736385Y-62742634D01*
X90847374Y-62475344D01*
X90847626Y-62185926D01*
X90847626Y-74983320D01*
X90767104Y-74788442D01*
X90562634Y-74583615D01*
X90295344Y-74472626D01*
X90005926Y-74472374D01*
X89738442Y-74582896D01*
X89533615Y-74787366D01*
X89422626Y-75054656D01*
X89422374Y-75344074D01*
X89532896Y-75611558D01*
X89737366Y-75816385D01*
X90004656Y-75927374D01*
X90294074Y-75927626D01*
X90561558Y-75817104D01*
X90766385Y-75612634D01*
X90877374Y-75345344D01*
X90877626Y-75055926D01*
X90877626Y-109540000D01*
X90373916Y-109540000D01*
X90373916Y-108372905D01*
X90373916Y-107627095D01*
X90122061Y-107106745D01*
X89698803Y-106730000D01*
X90122061Y-106353255D01*
X90373916Y-105832905D01*
X90373916Y-105087095D01*
X90122061Y-104566745D01*
X89690248Y-104182385D01*
X89312903Y-104026095D01*
X89084000Y-104140736D01*
X89084000Y-105316000D01*
X90260097Y-105316000D01*
X90373916Y-105087095D01*
X90373916Y-105832905D01*
X90260097Y-105604000D01*
X89084000Y-105604000D01*
X89084000Y-106680736D01*
X89084000Y-106779264D01*
X89084000Y-107856000D01*
X90260097Y-107856000D01*
X90373916Y-107627095D01*
X90373916Y-108372905D01*
X90260097Y-108144000D01*
X89084000Y-108144000D01*
X89084000Y-109319264D01*
X89312903Y-109433905D01*
X89690248Y-109277615D01*
X90122061Y-108893255D01*
X90373916Y-108372905D01*
X90373916Y-109540000D01*
X88796000Y-109540000D01*
X88796000Y-109319264D01*
X88796000Y-108144000D01*
X88776000Y-108144000D01*
X88776000Y-107856000D01*
X88796000Y-107856000D01*
X88796000Y-106779264D01*
X88796000Y-106680736D01*
X88796000Y-105604000D01*
X88776000Y-105604000D01*
X88776000Y-105316000D01*
X88796000Y-105316000D01*
X88796000Y-104140736D01*
X88567097Y-104026095D01*
X88477626Y-104063152D01*
X88477626Y-70955926D01*
X88367104Y-70688442D01*
X88162634Y-70483615D01*
X87895344Y-70372626D01*
X87605926Y-70372374D01*
X87577626Y-70384067D01*
X87577626Y-69655926D01*
X87467104Y-69388442D01*
X87262634Y-69183615D01*
X86995344Y-69072626D01*
X86705926Y-69072374D01*
X86438442Y-69182896D01*
X86233615Y-69387366D01*
X86122626Y-69654656D01*
X86122374Y-69944074D01*
X86232896Y-70211558D01*
X86437366Y-70416385D01*
X86704656Y-70527374D01*
X86994074Y-70527626D01*
X87261558Y-70417104D01*
X87466385Y-70212634D01*
X87577374Y-69945344D01*
X87577626Y-69655926D01*
X87577626Y-70384067D01*
X87338442Y-70482896D01*
X87133615Y-70687366D01*
X87022626Y-70954656D01*
X87022374Y-71244074D01*
X87132896Y-71511558D01*
X87337366Y-71716385D01*
X87604656Y-71827374D01*
X87894074Y-71827626D01*
X88161558Y-71717104D01*
X88366385Y-71512634D01*
X88477374Y-71245344D01*
X88477626Y-70955926D01*
X88477626Y-104063152D01*
X88189752Y-104182385D01*
X87757939Y-104566745D01*
X87574865Y-104944987D01*
X87300571Y-104534478D01*
X87077626Y-104385510D01*
X87077626Y-102705926D01*
X86967104Y-102438442D01*
X86762634Y-102233615D01*
X86495344Y-102122626D01*
X86205926Y-102122374D01*
X85938442Y-102232896D01*
X85733615Y-102437366D01*
X85649930Y-102638898D01*
X85567104Y-102438442D01*
X85362634Y-102233615D01*
X85095344Y-102122626D01*
X84805926Y-102122374D01*
X84538442Y-102232896D01*
X84333615Y-102437366D01*
X84222626Y-102704656D01*
X84222374Y-102994074D01*
X84332896Y-103261558D01*
X84537366Y-103466385D01*
X84804656Y-103577374D01*
X85094074Y-103577626D01*
X85361558Y-103467104D01*
X85566385Y-103262634D01*
X85650069Y-103061101D01*
X85732896Y-103261558D01*
X85937366Y-103466385D01*
X86204656Y-103577374D01*
X86494074Y-103577626D01*
X86761558Y-103467104D01*
X86966385Y-103262634D01*
X87077374Y-102995344D01*
X87077626Y-102705926D01*
X87077626Y-104385510D01*
X86887386Y-104258396D01*
X86400000Y-104161449D01*
X85912614Y-104258396D01*
X85499429Y-104534478D01*
X85223347Y-104947663D01*
X85130000Y-105416950D01*
X85036653Y-104947663D01*
X84760571Y-104534478D01*
X84347386Y-104258396D01*
X83860000Y-104161449D01*
X83372614Y-104258396D01*
X83077626Y-104455501D01*
X83077626Y-85355926D01*
X83027626Y-85234916D01*
X83027626Y-80605926D01*
X82962626Y-80448613D01*
X82962626Y-78370926D01*
X82852104Y-78103442D01*
X82647634Y-77898615D01*
X82527626Y-77848783D01*
X82527626Y-76155926D01*
X82527626Y-63555926D01*
X82417104Y-63288442D01*
X82212634Y-63083615D01*
X81945344Y-62972626D01*
X81655926Y-62972374D01*
X81388442Y-63082896D01*
X81183615Y-63287366D01*
X81072626Y-63554656D01*
X81072374Y-63844074D01*
X81182896Y-64111558D01*
X81387366Y-64316385D01*
X81654656Y-64427374D01*
X81944074Y-64427626D01*
X82211558Y-64317104D01*
X82416385Y-64112634D01*
X82527374Y-63845344D01*
X82527626Y-63555926D01*
X82527626Y-76155926D01*
X82417104Y-75888442D01*
X82347626Y-75818842D01*
X82347626Y-67905926D01*
X82237104Y-67638442D01*
X82032634Y-67433615D01*
X81765344Y-67322626D01*
X81475926Y-67322374D01*
X81208442Y-67432896D01*
X81003615Y-67637366D01*
X80892626Y-67904656D01*
X80892374Y-68194074D01*
X81002896Y-68461558D01*
X81207366Y-68666385D01*
X81474656Y-68777374D01*
X81764074Y-68777626D01*
X82031558Y-68667104D01*
X82236385Y-68462634D01*
X82347374Y-68195344D01*
X82347626Y-67905926D01*
X82347626Y-75818842D01*
X82212634Y-75683615D01*
X81945344Y-75572626D01*
X81655926Y-75572374D01*
X81388442Y-75682896D01*
X81183615Y-75887366D01*
X81072626Y-76154656D01*
X81072374Y-76444074D01*
X81182896Y-76711558D01*
X81387366Y-76916385D01*
X81654656Y-77027374D01*
X81944074Y-77027626D01*
X82211558Y-76917104D01*
X82416385Y-76712634D01*
X82527374Y-76445344D01*
X82527626Y-76155926D01*
X82527626Y-77848783D01*
X82380344Y-77787626D01*
X82090926Y-77787374D01*
X81823442Y-77897896D01*
X81618615Y-78102366D01*
X81507626Y-78369656D01*
X81507374Y-78659074D01*
X81617896Y-78926558D01*
X81822366Y-79131385D01*
X82089656Y-79242374D01*
X82379074Y-79242626D01*
X82646558Y-79132104D01*
X82851385Y-78927634D01*
X82962374Y-78660344D01*
X82962626Y-78370926D01*
X82962626Y-80448613D01*
X82917104Y-80338442D01*
X82712634Y-80133615D01*
X82445344Y-80022626D01*
X82155926Y-80022374D01*
X81888442Y-80132896D01*
X81683615Y-80337366D01*
X81572626Y-80604656D01*
X81572374Y-80894074D01*
X81682896Y-81161558D01*
X81887366Y-81366385D01*
X82154656Y-81477374D01*
X82444074Y-81477626D01*
X82711558Y-81367104D01*
X82916385Y-81162634D01*
X83027374Y-80895344D01*
X83027626Y-80605926D01*
X83027626Y-85234916D01*
X82977626Y-85113907D01*
X82977626Y-83105926D01*
X82867104Y-82838442D01*
X82662634Y-82633615D01*
X82395344Y-82522626D01*
X82105926Y-82522374D01*
X81838442Y-82632896D01*
X81633615Y-82837366D01*
X81522626Y-83104656D01*
X81522374Y-83394074D01*
X81632896Y-83661558D01*
X81837366Y-83866385D01*
X82104656Y-83977374D01*
X82394074Y-83977626D01*
X82661558Y-83867104D01*
X82866385Y-83662634D01*
X82977374Y-83395344D01*
X82977626Y-83105926D01*
X82977626Y-85113907D01*
X82967104Y-85088442D01*
X82762634Y-84883615D01*
X82495344Y-84772626D01*
X82205926Y-84772374D01*
X81938442Y-84882896D01*
X81733615Y-85087366D01*
X81622626Y-85354656D01*
X81622374Y-85644074D01*
X81732896Y-85911558D01*
X81937366Y-86116385D01*
X82204656Y-86227374D01*
X82494074Y-86227626D01*
X82761558Y-86117104D01*
X82966385Y-85912634D01*
X83077374Y-85645344D01*
X83077626Y-85355926D01*
X83077626Y-104455501D01*
X83027626Y-104488910D01*
X83027626Y-101055926D01*
X82977626Y-100934916D01*
X82977626Y-92255926D01*
X82877626Y-92013907D01*
X82877626Y-87855926D01*
X82767104Y-87588442D01*
X82562634Y-87383615D01*
X82295344Y-87272626D01*
X82005926Y-87272374D01*
X81738442Y-87382896D01*
X81533615Y-87587366D01*
X81422626Y-87854656D01*
X81422374Y-88144074D01*
X81532896Y-88411558D01*
X81737366Y-88616385D01*
X82004656Y-88727374D01*
X82294074Y-88727626D01*
X82561558Y-88617104D01*
X82766385Y-88412634D01*
X82877374Y-88145344D01*
X82877626Y-87855926D01*
X82877626Y-92013907D01*
X82867104Y-91988442D01*
X82827626Y-91948895D01*
X82827626Y-90155926D01*
X82717104Y-89888442D01*
X82512634Y-89683615D01*
X82245344Y-89572626D01*
X81955926Y-89572374D01*
X81688442Y-89682896D01*
X81483615Y-89887366D01*
X81372626Y-90154656D01*
X81372374Y-90444074D01*
X81482896Y-90711558D01*
X81687366Y-90916385D01*
X81954656Y-91027374D01*
X82244074Y-91027626D01*
X82511558Y-90917104D01*
X82716385Y-90712634D01*
X82827374Y-90445344D01*
X82827626Y-90155926D01*
X82827626Y-91948895D01*
X82662634Y-91783615D01*
X82395344Y-91672626D01*
X82105926Y-91672374D01*
X81838442Y-91782896D01*
X81633615Y-91987366D01*
X81522626Y-92254656D01*
X81522374Y-92544074D01*
X81632896Y-92811558D01*
X81837366Y-93016385D01*
X82104656Y-93127374D01*
X82394074Y-93127626D01*
X82661558Y-93017104D01*
X82866385Y-92812634D01*
X82977374Y-92545344D01*
X82977626Y-92255926D01*
X82977626Y-100934916D01*
X82917104Y-100788442D01*
X82712634Y-100583615D01*
X82445344Y-100472626D01*
X82155926Y-100472374D01*
X81888442Y-100582896D01*
X81683615Y-100787366D01*
X81572626Y-101054656D01*
X81572374Y-101344074D01*
X81682896Y-101611558D01*
X81887366Y-101816385D01*
X82154656Y-101927374D01*
X82444074Y-101927626D01*
X82711558Y-101817104D01*
X82916385Y-101612634D01*
X83027374Y-101345344D01*
X83027626Y-101055926D01*
X83027626Y-104488910D01*
X82959429Y-104534478D01*
X82683347Y-104947663D01*
X82590000Y-105416950D01*
X82496653Y-104947663D01*
X82220571Y-104534478D01*
X81807386Y-104258396D01*
X81320000Y-104161449D01*
X80832614Y-104258396D01*
X80677626Y-104361955D01*
X80677626Y-92555926D01*
X80567104Y-92288442D01*
X80362634Y-92083615D01*
X80095344Y-91972626D01*
X79805926Y-91972374D01*
X79762211Y-91990436D01*
X79847374Y-91785344D01*
X79847626Y-91495926D01*
X79737104Y-91228442D01*
X79647626Y-91138807D01*
X79647626Y-72225926D01*
X79537104Y-71958442D01*
X79332634Y-71753615D01*
X79065344Y-71642626D01*
X78775926Y-71642374D01*
X78508442Y-71752896D01*
X78303615Y-71957366D01*
X78192626Y-72224656D01*
X78192374Y-72514074D01*
X78302896Y-72781558D01*
X78507366Y-72986385D01*
X78774656Y-73097374D01*
X79064074Y-73097626D01*
X79331558Y-72987104D01*
X79536385Y-72782634D01*
X79647374Y-72515344D01*
X79647626Y-72225926D01*
X79647626Y-91138807D01*
X79532634Y-91023615D01*
X79517626Y-91017383D01*
X79517626Y-78875926D01*
X79407104Y-78608442D01*
X79202634Y-78403615D01*
X78935344Y-78292626D01*
X78645926Y-78292374D01*
X78378442Y-78402896D01*
X78173615Y-78607366D01*
X78062626Y-78874656D01*
X78062374Y-79164074D01*
X78172896Y-79431558D01*
X78377366Y-79636385D01*
X78644656Y-79747374D01*
X78934074Y-79747626D01*
X79201558Y-79637104D01*
X79406385Y-79432634D01*
X79517374Y-79165344D01*
X79517626Y-78875926D01*
X79517626Y-91017383D01*
X79265344Y-90912626D01*
X78975926Y-90912374D01*
X78708442Y-91022896D01*
X78610042Y-91121123D01*
X78552634Y-91063615D01*
X78285344Y-90952626D01*
X78107626Y-90952471D01*
X78107626Y-80065926D01*
X77997104Y-79798442D01*
X77792634Y-79593615D01*
X77525344Y-79482626D01*
X77235926Y-79482374D01*
X76968442Y-79592896D01*
X76763615Y-79797366D01*
X76757208Y-79812794D01*
X76461826Y-79690141D01*
X76139588Y-79689860D01*
X75841771Y-79812915D01*
X75613716Y-80040573D01*
X75490141Y-80338174D01*
X75489860Y-80660412D01*
X75612915Y-80958229D01*
X75840573Y-81186284D01*
X76138174Y-81309859D01*
X76460412Y-81310140D01*
X76758229Y-81187085D01*
X76986284Y-80959427D01*
X77030621Y-80852651D01*
X77234656Y-80937374D01*
X77524074Y-80937626D01*
X77791558Y-80827104D01*
X77996385Y-80622634D01*
X78107374Y-80355344D01*
X78107626Y-80065926D01*
X78107626Y-90952471D01*
X77995926Y-90952374D01*
X77728442Y-91062896D01*
X77523615Y-91267366D01*
X77412626Y-91534656D01*
X77412434Y-91754465D01*
X77215344Y-91672626D01*
X76925926Y-91672374D01*
X76658442Y-91782896D01*
X76657626Y-91783710D01*
X76657626Y-91315926D01*
X76547104Y-91048442D01*
X76342634Y-90843615D01*
X76075344Y-90732626D01*
X75785926Y-90732374D01*
X75518442Y-90842896D01*
X75480064Y-90881206D01*
X75387634Y-90788615D01*
X75227626Y-90722173D01*
X75227626Y-68955926D01*
X75117104Y-68688442D01*
X74912634Y-68483615D01*
X74645344Y-68372626D01*
X74355926Y-68372374D01*
X74088442Y-68482896D01*
X73883615Y-68687366D01*
X73772626Y-68954656D01*
X73772374Y-69244074D01*
X73882896Y-69511558D01*
X74087366Y-69716385D01*
X74354656Y-69827374D01*
X74644074Y-69827626D01*
X74911558Y-69717104D01*
X75116385Y-69512634D01*
X75227374Y-69245344D01*
X75227626Y-68955926D01*
X75227626Y-90722173D01*
X75120344Y-90677626D01*
X75057626Y-90677571D01*
X75057626Y-77045926D01*
X74947104Y-76778442D01*
X74767626Y-76598650D01*
X74767626Y-75455926D01*
X74657104Y-75188442D01*
X74452634Y-74983615D01*
X74185344Y-74872626D01*
X73977626Y-74872445D01*
X73977626Y-72605926D01*
X73867104Y-72338442D01*
X73662634Y-72133615D01*
X73395344Y-72022626D01*
X73105926Y-72022374D01*
X72838442Y-72132896D01*
X72633615Y-72337366D01*
X72522626Y-72604656D01*
X72522374Y-72894074D01*
X72632896Y-73161558D01*
X72837366Y-73366385D01*
X73104656Y-73477374D01*
X73394074Y-73477626D01*
X73661558Y-73367104D01*
X73866385Y-73162634D01*
X73977374Y-72895344D01*
X73977626Y-72605926D01*
X73977626Y-74872445D01*
X73895926Y-74872374D01*
X73628442Y-74982896D01*
X73423615Y-75187366D01*
X73312626Y-75454656D01*
X73312374Y-75744074D01*
X73422896Y-76011558D01*
X73627366Y-76216385D01*
X73894656Y-76327374D01*
X74184074Y-76327626D01*
X74451558Y-76217104D01*
X74656385Y-76012634D01*
X74767374Y-75745344D01*
X74767626Y-75455926D01*
X74767626Y-76598650D01*
X74742634Y-76573615D01*
X74475344Y-76462626D01*
X74185926Y-76462374D01*
X73918442Y-76572896D01*
X73713615Y-76777366D01*
X73602626Y-77044656D01*
X73602374Y-77334074D01*
X73712896Y-77601558D01*
X73917366Y-77806385D01*
X74184656Y-77917374D01*
X74474074Y-77917626D01*
X74741558Y-77807104D01*
X74946385Y-77602634D01*
X75057374Y-77335344D01*
X75057626Y-77045926D01*
X75057626Y-90677571D01*
X74830926Y-90677374D01*
X74563442Y-90787896D01*
X74510140Y-90841105D01*
X74510140Y-89339588D01*
X74387085Y-89041771D01*
X74159427Y-88813716D01*
X73861826Y-88690141D01*
X73539588Y-88689860D01*
X73241771Y-88812915D01*
X73013716Y-89040573D01*
X72890141Y-89338174D01*
X72889860Y-89660412D01*
X73012915Y-89958229D01*
X73240573Y-90186284D01*
X73538174Y-90309859D01*
X73860412Y-90310140D01*
X74158229Y-90187085D01*
X74386284Y-89959427D01*
X74509859Y-89661826D01*
X74510140Y-89339588D01*
X74510140Y-90841105D01*
X74358615Y-90992366D01*
X74247626Y-91259656D01*
X74247374Y-91549074D01*
X74357896Y-91816558D01*
X74562366Y-92021385D01*
X74829656Y-92132374D01*
X75119074Y-92132626D01*
X75386558Y-92022104D01*
X75424935Y-91983793D01*
X75517366Y-92076385D01*
X75784656Y-92187374D01*
X76074074Y-92187626D01*
X76341558Y-92077104D01*
X76546385Y-91872634D01*
X76657374Y-91605344D01*
X76657626Y-91315926D01*
X76657626Y-91783710D01*
X76453615Y-91987366D01*
X76342626Y-92254656D01*
X76342374Y-92544074D01*
X76452896Y-92811558D01*
X76657366Y-93016385D01*
X76924656Y-93127374D01*
X77214074Y-93127626D01*
X77481558Y-93017104D01*
X77686385Y-92812634D01*
X77797374Y-92545344D01*
X77797565Y-92325534D01*
X77994656Y-92407374D01*
X78284074Y-92407626D01*
X78551558Y-92297104D01*
X78649957Y-92198876D01*
X78707366Y-92256385D01*
X78974656Y-92367374D01*
X79264074Y-92367626D01*
X79307788Y-92349563D01*
X79222626Y-92554656D01*
X79222374Y-92844074D01*
X79332896Y-93111558D01*
X79537366Y-93316385D01*
X79804656Y-93427374D01*
X80094074Y-93427626D01*
X80361558Y-93317104D01*
X80566385Y-93112634D01*
X80677374Y-92845344D01*
X80677626Y-92555926D01*
X80677626Y-104361955D01*
X80419429Y-104534478D01*
X80143347Y-104947663D01*
X80050000Y-105416950D01*
X79956653Y-104947663D01*
X79680571Y-104534478D01*
X79267386Y-104258396D01*
X78780000Y-104161449D01*
X78292614Y-104258396D01*
X77879429Y-104534478D01*
X77603347Y-104947663D01*
X77510000Y-105416950D01*
X77416653Y-104947663D01*
X77140571Y-104534478D01*
X76727386Y-104258396D01*
X76240000Y-104161449D01*
X76102626Y-104188774D01*
X76102626Y-97470926D01*
X75992104Y-97203442D01*
X75787634Y-96998615D01*
X75520344Y-96887626D01*
X75230926Y-96887374D01*
X74963442Y-96997896D01*
X74758615Y-97202366D01*
X74647626Y-97469656D01*
X74647374Y-97759074D01*
X74757896Y-98026558D01*
X74962366Y-98231385D01*
X75229656Y-98342374D01*
X75519074Y-98342626D01*
X75786558Y-98232104D01*
X75991385Y-98027634D01*
X76102374Y-97760344D01*
X76102626Y-97470926D01*
X76102626Y-104188774D01*
X75752614Y-104258396D01*
X75339429Y-104534478D01*
X75063347Y-104947663D01*
X74970000Y-105416950D01*
X74876653Y-104947663D01*
X74600571Y-104534478D01*
X74187386Y-104258396D01*
X73700000Y-104161449D01*
X73212614Y-104258396D01*
X73127626Y-104315183D01*
X73127626Y-92205926D01*
X73017104Y-91938442D01*
X72812634Y-91733615D01*
X72777626Y-91719078D01*
X72777626Y-77205926D01*
X72667104Y-76938442D01*
X72462634Y-76733615D01*
X72195344Y-76622626D01*
X71905926Y-76622374D01*
X71638442Y-76732896D01*
X71433615Y-76937366D01*
X71322626Y-77204656D01*
X71322374Y-77494074D01*
X71432896Y-77761558D01*
X71637366Y-77966385D01*
X71904656Y-78077374D01*
X72194074Y-78077626D01*
X72461558Y-77967104D01*
X72666385Y-77762634D01*
X72777374Y-77495344D01*
X72777626Y-77205926D01*
X72777626Y-91719078D01*
X72545344Y-91622626D01*
X72255926Y-91622374D01*
X71988442Y-91732896D01*
X71783615Y-91937366D01*
X71672626Y-92204656D01*
X71672374Y-92494074D01*
X71782896Y-92761558D01*
X71987366Y-92966385D01*
X72254656Y-93077374D01*
X72544074Y-93077626D01*
X72811558Y-92967104D01*
X73016385Y-92762634D01*
X73127374Y-92495344D01*
X73127626Y-92205926D01*
X73127626Y-104315183D01*
X72799429Y-104534478D01*
X72777626Y-104567108D01*
X72777626Y-99905926D01*
X72667104Y-99638442D01*
X72462634Y-99433615D01*
X72195344Y-99322626D01*
X71905926Y-99322374D01*
X71638442Y-99432896D01*
X71433615Y-99637366D01*
X71322626Y-99904656D01*
X71322374Y-100194074D01*
X71432896Y-100461558D01*
X71637366Y-100666385D01*
X71904656Y-100777374D01*
X72194074Y-100777626D01*
X72461558Y-100667104D01*
X72666385Y-100462634D01*
X72777374Y-100195344D01*
X72777626Y-99905926D01*
X72777626Y-104567108D01*
X72523347Y-104947663D01*
X72430000Y-105416950D01*
X72336653Y-104947663D01*
X72060571Y-104534478D01*
X71647386Y-104258396D01*
X71160000Y-104161449D01*
X70727626Y-104247453D01*
X70727626Y-92355926D01*
X70617104Y-92088442D01*
X70412634Y-91883615D01*
X70145344Y-91772626D01*
X69855926Y-91772374D01*
X69737626Y-91821254D01*
X69737626Y-73445926D01*
X69627104Y-73178442D01*
X69422634Y-72973615D01*
X69155344Y-72862626D01*
X68865926Y-72862374D01*
X68598442Y-72972896D01*
X68393615Y-73177366D01*
X68282626Y-73444656D01*
X68282374Y-73734074D01*
X68392896Y-74001558D01*
X68597366Y-74206385D01*
X68864656Y-74317374D01*
X69154074Y-74317626D01*
X69421558Y-74207104D01*
X69626385Y-74002634D01*
X69737374Y-73735344D01*
X69737626Y-73445926D01*
X69737626Y-91821254D01*
X69588442Y-91882896D01*
X69383615Y-92087366D01*
X69272626Y-92354656D01*
X69272374Y-92644074D01*
X69382896Y-92911558D01*
X69587366Y-93116385D01*
X69854656Y-93227374D01*
X70144074Y-93227626D01*
X70411558Y-93117104D01*
X70616385Y-92912634D01*
X70727374Y-92645344D01*
X70727626Y-92355926D01*
X70727626Y-104247453D01*
X70672614Y-104258396D01*
X70259429Y-104534478D01*
X69983347Y-104947663D01*
X69890000Y-105416950D01*
X69796653Y-104947663D01*
X69520571Y-104534478D01*
X69107386Y-104258396D01*
X68877626Y-104212693D01*
X68877626Y-83155926D01*
X68767104Y-82888442D01*
X68752626Y-82873938D01*
X68752626Y-81030926D01*
X68642104Y-80763442D01*
X68437634Y-80558615D01*
X68427626Y-80554459D01*
X68427626Y-78355926D01*
X68317104Y-78088442D01*
X68112634Y-77883615D01*
X67845344Y-77772626D01*
X67555926Y-77772374D01*
X67527626Y-77784067D01*
X67527626Y-67105926D01*
X67417104Y-66838442D01*
X67212634Y-66633615D01*
X66945344Y-66522626D01*
X66655926Y-66522374D01*
X66388442Y-66632896D01*
X66183615Y-66837366D01*
X66072626Y-67104656D01*
X66072374Y-67394074D01*
X66182896Y-67661558D01*
X66387366Y-67866385D01*
X66654656Y-67977374D01*
X66944074Y-67977626D01*
X67211558Y-67867104D01*
X67416385Y-67662634D01*
X67527374Y-67395344D01*
X67527626Y-67105926D01*
X67527626Y-77784067D01*
X67288442Y-77882896D01*
X67083615Y-78087366D01*
X66972626Y-78354656D01*
X66972374Y-78644074D01*
X67082896Y-78911558D01*
X67287366Y-79116385D01*
X67554656Y-79227374D01*
X67844074Y-79227626D01*
X68111558Y-79117104D01*
X68316385Y-78912634D01*
X68427374Y-78645344D01*
X68427626Y-78355926D01*
X68427626Y-80554459D01*
X68170344Y-80447626D01*
X67880926Y-80447374D01*
X67613442Y-80557896D01*
X67408615Y-80762366D01*
X67297626Y-81029656D01*
X67297374Y-81319074D01*
X67407896Y-81586558D01*
X67612366Y-81791385D01*
X67879656Y-81902374D01*
X68169074Y-81902626D01*
X68436558Y-81792104D01*
X68641385Y-81587634D01*
X68752374Y-81320344D01*
X68752626Y-81030926D01*
X68752626Y-82873938D01*
X68562634Y-82683615D01*
X68295344Y-82572626D01*
X68005926Y-82572374D01*
X67738442Y-82682896D01*
X67533615Y-82887366D01*
X67422626Y-83154656D01*
X67422374Y-83444074D01*
X67532896Y-83711558D01*
X67737366Y-83916385D01*
X68004656Y-84027374D01*
X68294074Y-84027626D01*
X68561558Y-83917104D01*
X68766385Y-83712634D01*
X68877374Y-83445344D01*
X68877626Y-83155926D01*
X68877626Y-104212693D01*
X68827626Y-104202748D01*
X68827626Y-87295926D01*
X68717104Y-87028442D01*
X68512634Y-86823615D01*
X68245344Y-86712626D01*
X67955926Y-86712374D01*
X67688442Y-86822896D01*
X67483615Y-87027366D01*
X67372626Y-87294656D01*
X67372374Y-87584074D01*
X67482896Y-87851558D01*
X67687366Y-88056385D01*
X67954656Y-88167374D01*
X68244074Y-88167626D01*
X68511558Y-88057104D01*
X68716385Y-87852634D01*
X68827374Y-87585344D01*
X68827626Y-87295926D01*
X68827626Y-104202748D01*
X68727626Y-104182857D01*
X68727626Y-89555926D01*
X68617104Y-89288442D01*
X68412634Y-89083615D01*
X68145344Y-88972626D01*
X67855926Y-88972374D01*
X67588442Y-89082896D01*
X67383615Y-89287366D01*
X67272626Y-89554656D01*
X67272374Y-89844074D01*
X67382896Y-90111558D01*
X67587366Y-90316385D01*
X67854656Y-90427374D01*
X68144074Y-90427626D01*
X68411558Y-90317104D01*
X68616385Y-90112634D01*
X68727374Y-89845344D01*
X68727626Y-89555926D01*
X68727626Y-104182857D01*
X68620000Y-104161449D01*
X68377626Y-104209660D01*
X68377626Y-91365926D01*
X68267104Y-91098442D01*
X68062634Y-90893615D01*
X67795344Y-90782626D01*
X67505926Y-90782374D01*
X67238442Y-90892896D01*
X67127626Y-91003518D01*
X67127626Y-85155926D01*
X67017104Y-84888442D01*
X66812634Y-84683615D01*
X66545344Y-84572626D01*
X66377626Y-84572479D01*
X66377626Y-70525926D01*
X66267104Y-70258442D01*
X66062634Y-70053615D01*
X65795344Y-69942626D01*
X65505926Y-69942374D01*
X65238442Y-70052896D01*
X65033615Y-70257366D01*
X64922626Y-70524656D01*
X64922374Y-70814074D01*
X65032896Y-71081558D01*
X65237366Y-71286385D01*
X65504656Y-71397374D01*
X65794074Y-71397626D01*
X66061558Y-71287104D01*
X66266385Y-71082634D01*
X66377374Y-70815344D01*
X66377626Y-70525926D01*
X66377626Y-84572479D01*
X66255926Y-84572374D01*
X65988442Y-84682896D01*
X65783615Y-84887366D01*
X65672626Y-85154656D01*
X65672374Y-85444074D01*
X65782896Y-85711558D01*
X65987366Y-85916385D01*
X66254656Y-86027374D01*
X66544074Y-86027626D01*
X66811558Y-85917104D01*
X67016385Y-85712634D01*
X67127374Y-85445344D01*
X67127626Y-85155926D01*
X67127626Y-91003518D01*
X67033615Y-91097366D01*
X66922626Y-91364656D01*
X66922374Y-91654074D01*
X67032896Y-91921558D01*
X67237366Y-92126385D01*
X67504656Y-92237374D01*
X67794074Y-92237626D01*
X68061558Y-92127104D01*
X68266385Y-91922634D01*
X68377374Y-91655344D01*
X68377626Y-91365926D01*
X68377626Y-104209660D01*
X68277626Y-104229551D01*
X68277626Y-95905926D01*
X68167104Y-95638442D01*
X67962634Y-95433615D01*
X67695344Y-95322626D01*
X67405926Y-95322374D01*
X67138442Y-95432896D01*
X66933615Y-95637366D01*
X66822626Y-95904656D01*
X66822374Y-96194074D01*
X66932896Y-96461558D01*
X67137366Y-96666385D01*
X67404656Y-96777374D01*
X67694074Y-96777626D01*
X67961558Y-96667104D01*
X68166385Y-96462634D01*
X68277374Y-96195344D01*
X68277626Y-95905926D01*
X68277626Y-104229551D01*
X68132614Y-104258396D01*
X67719429Y-104534478D01*
X67443347Y-104947663D01*
X67350000Y-105416950D01*
X67256653Y-104947663D01*
X67127626Y-104754560D01*
X67127626Y-102705926D01*
X67017104Y-102438442D01*
X66812634Y-102233615D01*
X66637626Y-102160945D01*
X66637626Y-93365926D01*
X66527104Y-93098442D01*
X66322634Y-92893615D01*
X66055344Y-92782626D01*
X65765926Y-92782374D01*
X65498442Y-92892896D01*
X65293615Y-93097366D01*
X65182626Y-93364656D01*
X65182374Y-93654074D01*
X65292896Y-93921558D01*
X65497366Y-94126385D01*
X65764656Y-94237374D01*
X66054074Y-94237626D01*
X66321558Y-94127104D01*
X66526385Y-93922634D01*
X66637374Y-93655344D01*
X66637626Y-93365926D01*
X66637626Y-102160945D01*
X66545344Y-102122626D01*
X66367626Y-102122471D01*
X66367626Y-97735926D01*
X66257104Y-97468442D01*
X66052634Y-97263615D01*
X65785344Y-97152626D01*
X65495926Y-97152374D01*
X65228442Y-97262896D01*
X65023615Y-97467366D01*
X64912626Y-97734656D01*
X64912558Y-97812614D01*
X64635926Y-97812374D01*
X64368442Y-97922896D01*
X64163615Y-98127366D01*
X64052626Y-98394656D01*
X64052374Y-98684074D01*
X64162896Y-98951558D01*
X64367366Y-99156385D01*
X64634656Y-99267374D01*
X64924074Y-99267626D01*
X65191558Y-99157104D01*
X65396385Y-98952634D01*
X65507374Y-98685344D01*
X65507441Y-98607385D01*
X65784074Y-98607626D01*
X66051558Y-98497104D01*
X66256385Y-98292634D01*
X66367374Y-98025344D01*
X66367626Y-97735926D01*
X66367626Y-102122471D01*
X66255926Y-102122374D01*
X65988442Y-102232896D01*
X65783615Y-102437366D01*
X65672626Y-102704656D01*
X65672374Y-102994074D01*
X65782896Y-103261558D01*
X65987366Y-103466385D01*
X66254656Y-103577374D01*
X66544074Y-103577626D01*
X66811558Y-103467104D01*
X67016385Y-103262634D01*
X67127374Y-102995344D01*
X67127626Y-102705926D01*
X67127626Y-104754560D01*
X66980571Y-104534478D01*
X66567386Y-104258396D01*
X66080000Y-104161449D01*
X65592614Y-104258396D01*
X65179429Y-104534478D01*
X64903347Y-104947663D01*
X64810000Y-105416950D01*
X64727626Y-105002827D01*
X64727626Y-102755926D01*
X64617104Y-102488442D01*
X64412634Y-102283615D01*
X64145344Y-102172626D01*
X63977626Y-102172479D01*
X63977626Y-61855926D01*
X63867104Y-61588442D01*
X63662634Y-61383615D01*
X63395344Y-61272626D01*
X63105926Y-61272374D01*
X62838442Y-61382896D01*
X62633615Y-61587366D01*
X62522626Y-61854656D01*
X62522374Y-62144074D01*
X62632896Y-62411558D01*
X62837366Y-62616385D01*
X63104656Y-62727374D01*
X63394074Y-62727626D01*
X63661558Y-62617104D01*
X63866385Y-62412634D01*
X63977374Y-62145344D01*
X63977626Y-61855926D01*
X63977626Y-102172479D01*
X63855926Y-102172374D01*
X63647626Y-102258441D01*
X63647626Y-65015926D01*
X63537104Y-64748442D01*
X63332634Y-64543615D01*
X63065344Y-64432626D01*
X62775926Y-64432374D01*
X62508442Y-64542896D01*
X62303615Y-64747366D01*
X62192626Y-65014656D01*
X62192374Y-65304074D01*
X62302896Y-65571558D01*
X62507366Y-65776385D01*
X62774656Y-65887374D01*
X63064074Y-65887626D01*
X63331558Y-65777104D01*
X63536385Y-65572634D01*
X63647374Y-65305344D01*
X63647626Y-65015926D01*
X63647626Y-102258441D01*
X63588442Y-102282896D01*
X63383615Y-102487366D01*
X63272626Y-102754656D01*
X63272374Y-103044074D01*
X63382896Y-103311558D01*
X63587366Y-103516385D01*
X63854656Y-103627374D01*
X64144074Y-103627626D01*
X64411558Y-103517104D01*
X64616385Y-103312634D01*
X64727374Y-103045344D01*
X64727626Y-102755926D01*
X64727626Y-105002827D01*
X64716653Y-104947663D01*
X64440571Y-104534478D01*
X64027386Y-104258396D01*
X63540000Y-104161449D01*
X63052614Y-104258396D01*
X62639429Y-104534478D01*
X62427626Y-104851461D01*
X62427626Y-95805926D01*
X62317104Y-95538442D01*
X62112634Y-95333615D01*
X62107626Y-95331535D01*
X62107626Y-91305926D01*
X61997104Y-91038442D01*
X61792634Y-90833615D01*
X61525344Y-90722626D01*
X61235926Y-90722374D01*
X60968442Y-90832896D01*
X60763615Y-91037366D01*
X60652626Y-91304656D01*
X60652374Y-91594074D01*
X60762896Y-91861558D01*
X60967366Y-92066385D01*
X61234656Y-92177374D01*
X61524074Y-92177626D01*
X61791558Y-92067104D01*
X61996385Y-91862634D01*
X62107374Y-91595344D01*
X62107626Y-91305926D01*
X62107626Y-95331535D01*
X61845344Y-95222626D01*
X61555926Y-95222374D01*
X61288442Y-95332896D01*
X61083615Y-95537366D01*
X60972626Y-95804656D01*
X60972374Y-96094074D01*
X61082896Y-96361558D01*
X61287366Y-96566385D01*
X61554656Y-96677374D01*
X61844074Y-96677626D01*
X62111558Y-96567104D01*
X62316385Y-96362634D01*
X62427374Y-96095344D01*
X62427626Y-95805926D01*
X62427626Y-104851461D01*
X62365134Y-104944987D01*
X62182061Y-104566745D01*
X61750248Y-104182385D01*
X61372903Y-104026095D01*
X61144000Y-104140736D01*
X61144000Y-105316000D01*
X61164000Y-105316000D01*
X61164000Y-105604000D01*
X61144000Y-105604000D01*
X61144000Y-105624000D01*
X60856000Y-105624000D01*
X60856000Y-105604000D01*
X60856000Y-105316000D01*
X60856000Y-104140736D01*
X60627097Y-104026095D01*
X60249752Y-104182385D01*
X59817939Y-104566745D01*
X59777626Y-104650034D01*
X59777626Y-75305926D01*
X59667104Y-75038442D01*
X59462634Y-74833615D01*
X59195344Y-74722626D01*
X58905926Y-74722374D01*
X58638442Y-74832896D01*
X58433615Y-75037366D01*
X58322626Y-75304656D01*
X58322374Y-75594074D01*
X58432896Y-75861558D01*
X58637366Y-76066385D01*
X58904656Y-76177374D01*
X59194074Y-76177626D01*
X59461558Y-76067104D01*
X59666385Y-75862634D01*
X59777374Y-75595344D01*
X59777626Y-75305926D01*
X59777626Y-104650034D01*
X59627626Y-104959944D01*
X59627626Y-78555926D01*
X59517104Y-78288442D01*
X59312634Y-78083615D01*
X59045344Y-77972626D01*
X58755926Y-77972374D01*
X58488442Y-78082896D01*
X58283615Y-78287366D01*
X58172626Y-78554656D01*
X58172374Y-78844074D01*
X58282896Y-79111558D01*
X58487366Y-79316385D01*
X58754656Y-79427374D01*
X59044074Y-79427626D01*
X59311558Y-79317104D01*
X59516385Y-79112634D01*
X59627374Y-78845344D01*
X59627626Y-78555926D01*
X59627626Y-104959944D01*
X59566084Y-105087095D01*
X59679903Y-105316000D01*
X60856000Y-105316000D01*
X60856000Y-105604000D01*
X59679903Y-105604000D01*
X59566084Y-105832905D01*
X59817939Y-106353255D01*
X60228128Y-106718368D01*
X60136400Y-106718368D01*
X59980068Y-106748700D01*
X59842667Y-106838957D01*
X59750692Y-106975215D01*
X59718368Y-107136400D01*
X59718368Y-108863600D01*
X59748700Y-109019932D01*
X59838957Y-109157333D01*
X59975215Y-109249308D01*
X60136400Y-109281632D01*
X61863600Y-109281632D01*
X62019932Y-109251300D01*
X62157333Y-109161043D01*
X62249308Y-109024785D01*
X62281632Y-108863600D01*
X62281632Y-108101527D01*
X62363347Y-108512337D01*
X62639429Y-108925522D01*
X63052614Y-109201604D01*
X63540000Y-109298551D01*
X64027386Y-109201604D01*
X64440571Y-108925522D01*
X64714865Y-108515012D01*
X64897939Y-108893255D01*
X65329752Y-109277615D01*
X65707097Y-109433905D01*
X65936000Y-109319264D01*
X65936000Y-108144000D01*
X65916000Y-108144000D01*
X65916000Y-107856000D01*
X65936000Y-107856000D01*
X65936000Y-107836000D01*
X66224000Y-107836000D01*
X66224000Y-107856000D01*
X66244000Y-107856000D01*
X66244000Y-108144000D01*
X66224000Y-108144000D01*
X66224000Y-109319264D01*
X66452903Y-109433905D01*
X66830248Y-109277615D01*
X67262061Y-108893255D01*
X67445134Y-108515012D01*
X67719429Y-108925522D01*
X68132614Y-109201604D01*
X68620000Y-109298551D01*
X69107386Y-109201604D01*
X69520571Y-108925522D01*
X69796653Y-108512337D01*
X69890000Y-108043049D01*
X69983347Y-108512337D01*
X70259429Y-108925522D01*
X70672614Y-109201604D01*
X71160000Y-109298551D01*
X71647386Y-109201604D01*
X72060571Y-108925522D01*
X72336653Y-108512337D01*
X72430000Y-108043049D01*
X72523347Y-108512337D01*
X72799429Y-108925522D01*
X73212614Y-109201604D01*
X73700000Y-109298551D01*
X74187386Y-109201604D01*
X74600571Y-108925522D01*
X74876653Y-108512337D01*
X74970000Y-108043049D01*
X75063347Y-108512337D01*
X75339429Y-108925522D01*
X75752614Y-109201604D01*
X76240000Y-109298551D01*
X76727386Y-109201604D01*
X77140571Y-108925522D01*
X77416653Y-108512337D01*
X77510000Y-108043049D01*
X77603347Y-108512337D01*
X77879429Y-108925522D01*
X78292614Y-109201604D01*
X78780000Y-109298551D01*
X79267386Y-109201604D01*
X79680571Y-108925522D01*
X79956653Y-108512337D01*
X80050000Y-108043049D01*
X80143347Y-108512337D01*
X80419429Y-108925522D01*
X80832614Y-109201604D01*
X81320000Y-109298551D01*
X81807386Y-109201604D01*
X82220571Y-108925522D01*
X82496653Y-108512337D01*
X82590000Y-108043049D01*
X82683347Y-108512337D01*
X82959429Y-108925522D01*
X83372614Y-109201604D01*
X83860000Y-109298551D01*
X84347386Y-109201604D01*
X84760571Y-108925522D01*
X85036653Y-108512337D01*
X85130000Y-108043049D01*
X85223347Y-108512337D01*
X85499429Y-108925522D01*
X85912614Y-109201604D01*
X86400000Y-109298551D01*
X86887386Y-109201604D01*
X87300571Y-108925522D01*
X87574865Y-108515012D01*
X87757939Y-108893255D01*
X88189752Y-109277615D01*
X88567097Y-109433905D01*
X88796000Y-109319264D01*
X88796000Y-109540000D01*
X58427626Y-109540000D01*
X58427626Y-80255926D01*
X58317104Y-79988442D01*
X58112634Y-79783615D01*
X57845344Y-79672626D01*
X57555926Y-79672374D01*
X57357626Y-79754309D01*
X57357626Y-70855926D01*
X57277626Y-70662310D01*
X57277626Y-66605926D01*
X57167104Y-66338442D01*
X56962634Y-66133615D01*
X56695344Y-66022626D01*
X56405926Y-66022374D01*
X56138442Y-66132896D01*
X55933615Y-66337366D01*
X55822626Y-66604656D01*
X55822374Y-66894074D01*
X55932896Y-67161558D01*
X56137366Y-67366385D01*
X56404656Y-67477374D01*
X56694074Y-67477626D01*
X56961558Y-67367104D01*
X57166385Y-67162634D01*
X57277374Y-66895344D01*
X57277626Y-66605926D01*
X57277626Y-70662310D01*
X57247104Y-70588442D01*
X57042634Y-70383615D01*
X56775344Y-70272626D01*
X56485926Y-70272374D01*
X56218442Y-70382896D01*
X56013615Y-70587366D01*
X55902626Y-70854656D01*
X55902374Y-71144074D01*
X56012896Y-71411558D01*
X56217366Y-71616385D01*
X56484656Y-71727374D01*
X56774074Y-71727626D01*
X57041558Y-71617104D01*
X57246385Y-71412634D01*
X57357374Y-71145344D01*
X57357626Y-70855926D01*
X57357626Y-79754309D01*
X57288442Y-79782896D01*
X57083615Y-79987366D01*
X56972626Y-80254656D01*
X56972374Y-80544074D01*
X57082896Y-80811558D01*
X57287366Y-81016385D01*
X57554656Y-81127374D01*
X57844074Y-81127626D01*
X58111558Y-81017104D01*
X58316385Y-80812634D01*
X58427374Y-80545344D01*
X58427626Y-80255926D01*
X58427626Y-109540000D01*
X57842080Y-109540000D01*
X57842080Y-105628636D01*
X57708868Y-105147840D01*
X57670944Y-105098955D01*
X57449657Y-105043989D01*
X57246011Y-105247635D01*
X57246011Y-104840343D01*
X57191045Y-104619056D01*
X57142160Y-104581132D01*
X56661364Y-104447920D01*
X56527626Y-104464373D01*
X56527626Y-72955926D01*
X56417104Y-72688442D01*
X56212634Y-72483615D01*
X55945344Y-72372626D01*
X55655926Y-72372374D01*
X55388442Y-72482896D01*
X55183615Y-72687366D01*
X55177626Y-72701789D01*
X55177626Y-64555926D01*
X55067104Y-64288442D01*
X54862634Y-64083615D01*
X54595344Y-63972626D01*
X54305926Y-63972374D01*
X54038442Y-64082896D01*
X53833615Y-64287366D01*
X53722626Y-64554656D01*
X53722374Y-64844074D01*
X53832896Y-65111558D01*
X54037366Y-65316385D01*
X54304656Y-65427374D01*
X54594074Y-65427626D01*
X54861558Y-65317104D01*
X55066385Y-65112634D01*
X55177374Y-64845344D01*
X55177626Y-64555926D01*
X55177626Y-72701789D01*
X55072626Y-72954656D01*
X55072374Y-73244074D01*
X55182896Y-73511558D01*
X55387366Y-73716385D01*
X55654656Y-73827374D01*
X55944074Y-73827626D01*
X56211558Y-73717104D01*
X56416385Y-73512634D01*
X56527374Y-73245344D01*
X56527626Y-72955926D01*
X56527626Y-104464373D01*
X56180240Y-104507112D01*
X56180240Y-104354137D01*
X56099534Y-103948401D01*
X55869703Y-103604434D01*
X55525736Y-103374603D01*
X55427626Y-103355087D01*
X55427626Y-89405926D01*
X55377626Y-89284916D01*
X55377626Y-84655926D01*
X55267104Y-84388442D01*
X55062634Y-84183615D01*
X54827626Y-84086030D01*
X54827626Y-77755926D01*
X54717104Y-77488442D01*
X54512634Y-77283615D01*
X54245344Y-77172626D01*
X53955926Y-77172374D01*
X53688442Y-77282896D01*
X53483615Y-77487366D01*
X53372626Y-77754656D01*
X53372374Y-78044074D01*
X53482896Y-78311558D01*
X53687366Y-78516385D01*
X53954656Y-78627374D01*
X54244074Y-78627626D01*
X54511558Y-78517104D01*
X54716385Y-78312634D01*
X54827374Y-78045344D01*
X54827626Y-77755926D01*
X54827626Y-84086030D01*
X54795344Y-84072626D01*
X54505926Y-84072374D01*
X54238442Y-84182896D01*
X54200112Y-84221158D01*
X54162634Y-84183615D01*
X53895344Y-84072626D01*
X53605926Y-84072374D01*
X53338442Y-84182896D01*
X53133615Y-84387366D01*
X53022626Y-84654656D01*
X53022374Y-84944074D01*
X53132896Y-85211558D01*
X53337366Y-85416385D01*
X53604656Y-85527374D01*
X53894074Y-85527626D01*
X54161558Y-85417104D01*
X54199887Y-85378841D01*
X54237366Y-85416385D01*
X54504656Y-85527374D01*
X54794074Y-85527626D01*
X55061558Y-85417104D01*
X55266385Y-85212634D01*
X55377374Y-84945344D01*
X55377626Y-84655926D01*
X55377626Y-89284916D01*
X55317104Y-89138442D01*
X55112634Y-88933615D01*
X54845344Y-88822626D01*
X54555926Y-88822374D01*
X54288442Y-88932896D01*
X54083615Y-89137366D01*
X53972626Y-89404656D01*
X53972374Y-89694074D01*
X54082896Y-89961558D01*
X54287366Y-90166385D01*
X54554656Y-90277374D01*
X54844074Y-90277626D01*
X55111558Y-90167104D01*
X55316385Y-89962634D01*
X55427374Y-89695344D01*
X55427626Y-89405926D01*
X55427626Y-103355087D01*
X55120000Y-103293897D01*
X54714264Y-103374603D01*
X54370297Y-103604434D01*
X54140466Y-103948401D01*
X54059760Y-104354137D01*
X54059760Y-104725219D01*
X53654935Y-104644695D01*
X53427626Y-104689909D01*
X53427626Y-97805926D01*
X53317104Y-97538442D01*
X53112634Y-97333615D01*
X52845344Y-97222626D01*
X52555926Y-97222374D01*
X52288442Y-97332896D01*
X52083615Y-97537366D01*
X51972626Y-97804656D01*
X51972374Y-98094074D01*
X52082896Y-98361558D01*
X52287366Y-98566385D01*
X52554656Y-98677374D01*
X52844074Y-98677626D01*
X53111558Y-98567104D01*
X53316385Y-98362634D01*
X53427374Y-98095344D01*
X53427626Y-97805926D01*
X53427626Y-104689909D01*
X53249199Y-104725401D01*
X52905232Y-104955232D01*
X52675401Y-105299199D01*
X52594695Y-105704935D01*
X52675401Y-106110671D01*
X52905232Y-106454638D01*
X53295362Y-106844768D01*
X53639328Y-107074599D01*
X54045065Y-107155305D01*
X54450801Y-107074599D01*
X54794768Y-106844768D01*
X55024599Y-106500801D01*
X55026519Y-106491143D01*
X55071132Y-106652160D01*
X55109056Y-106701045D01*
X55330343Y-106756011D01*
X56186353Y-105900000D01*
X56172211Y-105885858D01*
X56375858Y-105682211D01*
X56390000Y-105696353D01*
X57246011Y-104840343D01*
X57246011Y-105247635D01*
X56593647Y-105900000D01*
X57283603Y-106589956D01*
X57535380Y-106557981D01*
X57781159Y-106123812D01*
X57842080Y-105628636D01*
X57842080Y-109540000D01*
X57079956Y-109540000D01*
X57079956Y-106793603D01*
X56390000Y-106103647D01*
X55533989Y-106959657D01*
X55588955Y-107180944D01*
X55637840Y-107218868D01*
X56118636Y-107352080D01*
X56613812Y-107291159D01*
X57047981Y-107045380D01*
X57079956Y-106793603D01*
X57079956Y-109540000D01*
X50460000Y-109540000D01*
X50460000Y-60460000D01*
X99540000Y-60460000D01*
X99540000Y-103011116D01*
X99462634Y-102933615D01*
X99195344Y-102822626D01*
X98905926Y-102822374D01*
X98638442Y-102932896D01*
X98433615Y-103137366D01*
X98322626Y-103404656D01*
X98322374Y-103694074D01*
X98432896Y-103961558D01*
X98637366Y-104166385D01*
X98904656Y-104277374D01*
X99194074Y-104277626D01*
X99461558Y-104167104D01*
X99540000Y-104088798D01*
X99540000Y-109540000D01*
M02*
