M48
;DRILL file {kicad (2015-01-16 BZR 5376)-product} date 23/07/2015 11:35:33
;FORMAT={-:-/ absolute / inch / decimal}
FMAT,2
INCH,TZ
T1C0.020
T2C0.031
T3C0.040
%
G90
G05
M72
T1
X2.0256Y-2.9606
X2.0709Y-3.815
X2.0748Y-2.687
X2.0748Y-3.8563
X2.1161Y-3.3386
X2.128Y-3.0138
X2.1299Y-3.0669
X2.1437Y-2.5472
X2.1516Y-3.3386
X2.1535Y-3.5256
X2.1949Y-3.3406
X2.1949Y-3.5197
X2.1949Y-3.5492
X2.1969Y-2.878
X2.2264Y-2.628
X2.2295Y-2.7953
X2.2362Y-2.6752
X2.248Y-3.8189
X2.2717Y-3.1654
X2.2913Y-3.0177
X2.3189Y-3.0984
X2.3248Y-2.9705
X2.3622Y-2.628
X2.4165Y-3.6004
X2.4272Y-3.7264
X2.4291Y-3.7776
X2.4772Y-2.5654
X2.4902Y-2.4409
X2.5197Y-4.0512
X2.5492Y-2.4488
X2.5504Y-3.8795
X2.5571Y-2.6024
X2.5843Y-3.8535
X2.5846Y-2.7823
X2.5902Y-3.7406
X2.5949Y-3.6815
X2.6142Y-3.3583
X2.6142Y-4.0492
X2.6299Y-2.6476
X2.6594Y-3.7815
X2.6634Y-3.6028
X2.6654Y-3.0906
X2.6681Y-2.6327
X2.6772Y-2.7917
X2.6772Y-3.5315
X2.6781Y-3.1959
X2.6811Y-3.4425
X2.6831Y-3.2795
X2.7169Y-2.8972
X2.7461Y-3.7815
X2.7559Y-3.6417
X2.7854Y-3.9626
X2.7913Y-3.75
X2.8366Y-3.0453
X2.8366Y-3.939
X2.8504Y-3.6358
X2.8839Y-2.8642
X2.915Y-2.9764
X2.9264Y-3.039
X2.9331Y-2.7205
X2.9518Y-3.5986
X2.9675Y-3.8431
X2.9854Y-2.6732
X2.9894Y-3.6008
X2.9941Y-2.8386
X3.0343Y-3.6378
X3.0465Y-3.1579
X3.0764Y-3.6094
X3.102Y-3.111
X3.1071Y-2.8492
X3.115Y-3.6079
X3.1476Y-3.6496
X3.2134Y-2.6791
X3.2205Y-2.5079
X3.2205Y-3.0039
X3.2323Y-3.5551
X3.2343Y-3.4646
X3.2376Y-3.0911
X3.2382Y-3.2776
X3.2382Y-3.6378
X3.2402Y-3.1791
X3.2402Y-3.9843
X3.2421Y-3.3661
X3.2421Y-3.9429
X3.2484Y-2.6776
X3.2677Y-2.502
X3.3445Y-4.0492
X3.3496Y-2.935
X3.3996Y-4.0492
X3.4075Y-3.935
X3.4193Y-2.748
X3.4547Y-2.7992
X3.5138Y-2.6024
X3.5138Y-2.628
X3.5319Y-2.8248
X3.548Y-2.4539
X3.5492Y-2.9606
X3.565Y-3.4764
X3.5728Y-3.5039
X3.6126Y-3.2437
X3.624Y-3.0701
X3.6417Y-3.7106
X3.6693Y-3.2429
X3.6801Y-2.5266
X3.6909Y-2.7874
X3.6909Y-3.435
X3.6929Y-2.8248
X3.7008Y-2.5886
X3.7165Y-3.435
X3.7343Y-3.5039
X3.7539Y-4.
X3.7772Y-3.1004
X3.8071Y-3.5039
X3.8996Y-4.0768
T2
X2.1201Y-4.1693
X2.1701Y-4.1193
X2.2201Y-4.1693
T3
X2.4016Y-4.152
X2.4016Y-4.252
X2.5016Y-4.152
X2.5016Y-4.252
X2.6016Y-4.152
X2.6016Y-4.252
X2.7016Y-4.152
X2.7016Y-4.252
X2.8016Y-4.152
X2.8016Y-4.252
X2.9016Y-4.152
X2.9016Y-4.252
X3.0016Y-4.152
X3.0016Y-4.252
X3.1016Y-4.152
X3.1016Y-4.252
X3.2016Y-4.152
X3.2016Y-4.252
X3.3016Y-4.152
X3.3016Y-4.252
X3.4016Y-4.152
X3.4016Y-4.252
X3.5016Y-4.152
X3.5016Y-4.252
T0
M30
