G04 #@! TF.FileFunction,Soldermask,Bot*
%FSLAX46Y46*%
G04 Gerber Fmt 4.6, Leading zero omitted, Abs format (unit mm)*
G04 Created by KiCad (PCBNEW (2015-01-16 BZR 5376)-product) date 23/07/2015 11:35:32*
%MOMM*%
G01*
G04 APERTURE LIST*
%ADD10C,0.100000*%
%ADD11R,0.700000X1.300000*%
%ADD12O,1.300480X1.800860*%
%ADD13C,1.300480*%
%ADD14R,1.727200X1.727200*%
%ADD15O,1.727200X1.727200*%
%ADD16R,2.000000X0.750000*%
%ADD17R,2.000000X0.550000*%
%ADD18C,0.800000*%
G04 APERTURE END LIST*
D10*
D11*
X83050000Y-75750000D03*
X84950000Y-75750000D03*
X83050000Y-80750000D03*
X84950000Y-80750000D03*
X83050000Y-85500000D03*
X84950000Y-85500000D03*
X83050000Y-90250000D03*
X84950000Y-90250000D03*
X83050000Y-78000000D03*
X84950000Y-78000000D03*
X83050000Y-83250000D03*
X84950000Y-83250000D03*
X83050000Y-88000000D03*
X84950000Y-88000000D03*
X83050000Y-92500000D03*
X84950000Y-92500000D03*
X67200000Y-78000000D03*
X65300000Y-78000000D03*
X67200000Y-82980000D03*
X65300000Y-82980000D03*
X67200000Y-87440000D03*
X65300000Y-87440000D03*
X67200000Y-92000000D03*
X65300000Y-92000000D03*
X67200000Y-75750000D03*
X65300000Y-75750000D03*
X67180000Y-80680000D03*
X65280000Y-80680000D03*
X67200000Y-85250000D03*
X65300000Y-85250000D03*
X67220000Y-89830000D03*
X65320000Y-89830000D03*
D12*
X55120000Y-104630000D03*
D13*
X53673089Y-105723089D02*
X54026911Y-106076911D01*
X56213089Y-106076911D02*
X56566911Y-105723089D01*
D14*
X61000000Y-108000000D03*
D15*
X61000000Y-105460000D03*
X63540000Y-108000000D03*
X63540000Y-105460000D03*
X66080000Y-108000000D03*
X66080000Y-105460000D03*
X68620000Y-108000000D03*
X68620000Y-105460000D03*
X71160000Y-108000000D03*
X71160000Y-105460000D03*
X73700000Y-108000000D03*
X73700000Y-105460000D03*
X76240000Y-108000000D03*
X76240000Y-105460000D03*
X78780000Y-108000000D03*
X78780000Y-105460000D03*
X81320000Y-108000000D03*
X81320000Y-105460000D03*
X83860000Y-108000000D03*
X83860000Y-105460000D03*
X86400000Y-108000000D03*
X86400000Y-105460000D03*
X88940000Y-108000000D03*
X88940000Y-105460000D03*
D16*
X77600000Y-81300000D03*
D17*
X77600000Y-82200000D03*
X77600000Y-83000000D03*
X77600000Y-83800000D03*
X77600000Y-84600000D03*
X77600000Y-85400000D03*
X77600000Y-86200000D03*
X77600000Y-87000000D03*
X77600000Y-87800000D03*
D16*
X77600000Y-88700000D03*
X72400000Y-88700000D03*
D17*
X72400000Y-87800000D03*
X72400000Y-87000000D03*
X72400000Y-86200000D03*
X72400000Y-85400000D03*
X72400000Y-84600000D03*
X72400000Y-83800000D03*
X72400000Y-83000000D03*
X72400000Y-82200000D03*
D16*
X72400000Y-81300000D03*
D18*
X76300000Y-80500000D03*
X73700000Y-89500000D03*
M02*
