G04 #@! TF.FileFunction,Legend,Bot*
%FSLAX46Y46*%
G04 Gerber Fmt 4.6, Leading zero omitted, Abs format (unit mm)*
G04 Created by KiCad (PCBNEW (2015-01-16 BZR 5376)-product) date 23/07/2015 11:35:31*
%MOMM*%
G01*
G04 APERTURE LIST*
%ADD10C,0.100000*%
%ADD11C,0.200000*%
%ADD12C,0.300000*%
%ADD13C,0.150000*%
G04 APERTURE END LIST*
D10*
D11*
X57500000Y-102500000D02*
X57500000Y-67500000D01*
X92500000Y-102500000D02*
X57500000Y-102500000D01*
X92500000Y-67500000D02*
X92500000Y-102500000D01*
X57500000Y-67500000D02*
X92500000Y-67500000D01*
D12*
X76964285Y-64678571D02*
X77464285Y-63964286D01*
X77821428Y-64678571D02*
X77821428Y-63178571D01*
X77250000Y-63178571D01*
X77107142Y-63250000D01*
X77035714Y-63321429D01*
X76964285Y-63464286D01*
X76964285Y-63678571D01*
X77035714Y-63821429D01*
X77107142Y-63892857D01*
X77250000Y-63964286D01*
X77821428Y-63964286D01*
X75750000Y-64607143D02*
X75892857Y-64678571D01*
X76178571Y-64678571D01*
X76321428Y-64607143D01*
X76392857Y-64464286D01*
X76392857Y-63892857D01*
X76321428Y-63750000D01*
X76178571Y-63678571D01*
X75892857Y-63678571D01*
X75750000Y-63750000D01*
X75678571Y-63892857D01*
X75678571Y-64035714D01*
X76392857Y-64178571D01*
X75178571Y-63678571D02*
X74821428Y-64678571D01*
X74464286Y-63678571D01*
X72821429Y-64250000D02*
X72107143Y-64250000D01*
X72964286Y-64678571D02*
X72464286Y-63178571D01*
X71964286Y-64678571D01*
X83392857Y-62607143D02*
X83178571Y-62678571D01*
X82821428Y-62678571D01*
X82678571Y-62607143D01*
X82607142Y-62535714D01*
X82535714Y-62392857D01*
X82535714Y-62250000D01*
X82607142Y-62107143D01*
X82678571Y-62035714D01*
X82821428Y-61964286D01*
X83107142Y-61892857D01*
X83250000Y-61821429D01*
X83321428Y-61750000D01*
X83392857Y-61607143D01*
X83392857Y-61464286D01*
X83321428Y-61321429D01*
X83250000Y-61250000D01*
X83107142Y-61178571D01*
X82750000Y-61178571D01*
X82535714Y-61250000D01*
X81892857Y-61892857D02*
X81392857Y-61892857D01*
X81178571Y-62678571D02*
X81892857Y-62678571D01*
X81892857Y-61178571D01*
X81178571Y-61178571D01*
X80535714Y-62678571D02*
X80535714Y-61178571D01*
X79678571Y-62678571D01*
X79678571Y-61178571D01*
X79035714Y-62607143D02*
X78821428Y-62678571D01*
X78464285Y-62678571D01*
X78321428Y-62607143D01*
X78249999Y-62535714D01*
X78178571Y-62392857D01*
X78178571Y-62250000D01*
X78249999Y-62107143D01*
X78321428Y-62035714D01*
X78464285Y-61964286D01*
X78749999Y-61892857D01*
X78892857Y-61821429D01*
X78964285Y-61750000D01*
X79035714Y-61607143D01*
X79035714Y-61464286D01*
X78964285Y-61321429D01*
X78892857Y-61250000D01*
X78749999Y-61178571D01*
X78392857Y-61178571D01*
X78178571Y-61250000D01*
X77250000Y-61178571D02*
X76964286Y-61178571D01*
X76821428Y-61250000D01*
X76678571Y-61392857D01*
X76607143Y-61678571D01*
X76607143Y-62178571D01*
X76678571Y-62464286D01*
X76821428Y-62607143D01*
X76964286Y-62678571D01*
X77250000Y-62678571D01*
X77392857Y-62607143D01*
X77535714Y-62464286D01*
X77607143Y-62178571D01*
X77607143Y-61678571D01*
X77535714Y-61392857D01*
X77392857Y-61250000D01*
X77250000Y-61178571D01*
X75107142Y-62678571D02*
X75607142Y-61964286D01*
X75964285Y-62678571D02*
X75964285Y-61178571D01*
X75392857Y-61178571D01*
X75249999Y-61250000D01*
X75178571Y-61321429D01*
X75107142Y-61464286D01*
X75107142Y-61678571D01*
X75178571Y-61821429D01*
X75249999Y-61892857D01*
X75392857Y-61964286D01*
X75964285Y-61964286D01*
X72821428Y-61892857D02*
X72607142Y-61964286D01*
X72535714Y-62035714D01*
X72464285Y-62178571D01*
X72464285Y-62392857D01*
X72535714Y-62535714D01*
X72607142Y-62607143D01*
X72750000Y-62678571D01*
X73321428Y-62678571D01*
X73321428Y-61178571D01*
X72821428Y-61178571D01*
X72678571Y-61250000D01*
X72607142Y-61321429D01*
X72535714Y-61464286D01*
X72535714Y-61607143D01*
X72607142Y-61750000D01*
X72678571Y-61821429D01*
X72821428Y-61892857D01*
X73321428Y-61892857D01*
X71535714Y-61178571D02*
X71250000Y-61178571D01*
X71107142Y-61250000D01*
X70964285Y-61392857D01*
X70892857Y-61678571D01*
X70892857Y-62178571D01*
X70964285Y-62464286D01*
X71107142Y-62607143D01*
X71250000Y-62678571D01*
X71535714Y-62678571D01*
X71678571Y-62607143D01*
X71821428Y-62464286D01*
X71892857Y-62178571D01*
X71892857Y-61678571D01*
X71821428Y-61392857D01*
X71678571Y-61250000D01*
X71535714Y-61178571D01*
X70321428Y-62250000D02*
X69607142Y-62250000D01*
X70464285Y-62678571D02*
X69964285Y-61178571D01*
X69464285Y-62678571D01*
X68107142Y-62678571D02*
X68607142Y-61964286D01*
X68964285Y-62678571D02*
X68964285Y-61178571D01*
X68392857Y-61178571D01*
X68249999Y-61250000D01*
X68178571Y-61321429D01*
X68107142Y-61464286D01*
X68107142Y-61678571D01*
X68178571Y-61821429D01*
X68249999Y-61892857D01*
X68392857Y-61964286D01*
X68964285Y-61964286D01*
X67464285Y-62678571D02*
X67464285Y-61178571D01*
X67107142Y-61178571D01*
X66892857Y-61250000D01*
X66749999Y-61392857D01*
X66678571Y-61535714D01*
X66607142Y-61821429D01*
X66607142Y-62035714D01*
X66678571Y-62321429D01*
X66749999Y-62464286D01*
X66892857Y-62607143D01*
X67107142Y-62678571D01*
X67464285Y-62678571D01*
D11*
X68500000Y-78300000D02*
X75000000Y-78300000D01*
X68500000Y-78400000D02*
X68500000Y-78300000D01*
X68500000Y-91700000D02*
X68500000Y-78400000D01*
X81500000Y-91700000D02*
X68500000Y-91700000D01*
X81500000Y-78300000D02*
X81500000Y-91700000D01*
X75000000Y-78300000D02*
X81500000Y-78300000D01*
D13*
X84600000Y-74875000D02*
X83400000Y-74875000D01*
X83400000Y-76625000D02*
X84600000Y-76625000D01*
X84600000Y-79875000D02*
X83400000Y-79875000D01*
X83400000Y-81625000D02*
X84600000Y-81625000D01*
X84600000Y-84625000D02*
X83400000Y-84625000D01*
X83400000Y-86375000D02*
X84600000Y-86375000D01*
X84600000Y-89375000D02*
X83400000Y-89375000D01*
X83400000Y-91125000D02*
X84600000Y-91125000D01*
X84600000Y-77125000D02*
X83400000Y-77125000D01*
X83400000Y-78875000D02*
X84600000Y-78875000D01*
X84600000Y-82375000D02*
X83400000Y-82375000D01*
X83400000Y-84125000D02*
X84600000Y-84125000D01*
X84600000Y-87125000D02*
X83400000Y-87125000D01*
X83400000Y-88875000D02*
X84600000Y-88875000D01*
X84600000Y-91625000D02*
X83400000Y-91625000D01*
X83400000Y-93375000D02*
X84600000Y-93375000D01*
X65650000Y-78875000D02*
X66850000Y-78875000D01*
X66850000Y-77125000D02*
X65650000Y-77125000D01*
X65650000Y-83855000D02*
X66850000Y-83855000D01*
X66850000Y-82105000D02*
X65650000Y-82105000D01*
X65650000Y-88315000D02*
X66850000Y-88315000D01*
X66850000Y-86565000D02*
X65650000Y-86565000D01*
X65650000Y-92875000D02*
X66850000Y-92875000D01*
X66850000Y-91125000D02*
X65650000Y-91125000D01*
X65650000Y-76625000D02*
X66850000Y-76625000D01*
X66850000Y-74875000D02*
X65650000Y-74875000D01*
X65630000Y-81555000D02*
X66830000Y-81555000D01*
X66830000Y-79805000D02*
X65630000Y-79805000D01*
X65650000Y-86125000D02*
X66850000Y-86125000D01*
X66850000Y-84375000D02*
X65650000Y-84375000D01*
X65670000Y-90705000D02*
X66870000Y-90705000D01*
X66870000Y-88955000D02*
X65670000Y-88955000D01*
X77200000Y-80200000D02*
X78000000Y-80200000D01*
X78000000Y-80200000D02*
X77600000Y-80800000D01*
X77600000Y-80800000D02*
X77200000Y-80200000D01*
X73400000Y-80200000D02*
X75900000Y-80200000D01*
X73400000Y-80200000D02*
X73400000Y-81000000D01*
X76600000Y-89800000D02*
X76600000Y-89000000D01*
X76600000Y-89800000D02*
X74100000Y-89800000D01*
M02*
