G04 #@! TF.FileFunction,Copper,L2,Bot,Signal*
%FSLAX46Y46*%
G04 Gerber Fmt 4.6, Leading zero omitted, Abs format (unit mm)*
G04 Created by KiCad (PCBNEW (2015-01-16 BZR 5376)-product) date 23/07/2015 11:54:15*
%MOMM*%
G01*
G04 APERTURE LIST*
%ADD10C,0.100000*%
%ADD11R,2.032000X2.032000*%
%ADD12O,2.032000X2.032000*%
%ADD13R,1.727200X1.727200*%
%ADD14O,1.727200X1.727200*%
%ADD15R,1.727200X2.032000*%
%ADD16O,1.727200X2.032000*%
%ADD17C,0.889000*%
%ADD18C,0.635000*%
%ADD19C,6.000000*%
%ADD20C,0.762000*%
%ADD21C,0.180000*%
%ADD22C,0.508000*%
%ADD23C,0.381000*%
%ADD24C,0.889000*%
%ADD25C,0.220000*%
G04 APERTURE END LIST*
D10*
D11*
X144110000Y-83905000D03*
D12*
X144110000Y-86445000D03*
D13*
X103000000Y-91000000D03*
D14*
X105540000Y-91000000D03*
X103000000Y-93540000D03*
X105540000Y-93540000D03*
X103000000Y-96080000D03*
X105540000Y-96080000D03*
X103000000Y-98620000D03*
X105540000Y-98620000D03*
X103000000Y-101160000D03*
X105540000Y-101160000D03*
X103000000Y-103700000D03*
X105540000Y-103700000D03*
X103000000Y-106240000D03*
X105540000Y-106240000D03*
X103000000Y-108780000D03*
X105540000Y-108780000D03*
X103000000Y-111320000D03*
X105540000Y-111320000D03*
X103000000Y-113860000D03*
X105540000Y-113860000D03*
X103000000Y-116400000D03*
X105540000Y-116400000D03*
X103000000Y-118940000D03*
X105540000Y-118940000D03*
D13*
X145000000Y-91000000D03*
D14*
X147540000Y-91000000D03*
X145000000Y-93540000D03*
X147540000Y-93540000D03*
X145000000Y-96080000D03*
X147540000Y-96080000D03*
X145000000Y-98620000D03*
X147540000Y-98620000D03*
X145000000Y-101160000D03*
X147540000Y-101160000D03*
X145000000Y-103700000D03*
X147540000Y-103700000D03*
X145000000Y-106240000D03*
X147540000Y-106240000D03*
X145000000Y-108780000D03*
X147540000Y-108780000D03*
X145000000Y-111320000D03*
X147540000Y-111320000D03*
X145000000Y-113860000D03*
X147540000Y-113860000D03*
X145000000Y-116400000D03*
X147540000Y-116400000D03*
X145000000Y-118940000D03*
X147540000Y-118940000D03*
D15*
X119000000Y-127000000D03*
D16*
X121540000Y-127000000D03*
X124080000Y-127000000D03*
X126620000Y-127000000D03*
X129160000Y-127000000D03*
X131700000Y-127000000D03*
X134240000Y-127000000D03*
X136780000Y-127000000D03*
D17*
X136510000Y-88880000D03*
X137910000Y-92030000D03*
D18*
X125550000Y-123250000D03*
X120600000Y-84300000D03*
X125050000Y-88200000D03*
D19*
X104000000Y-126000000D03*
X104000000Y-84000000D03*
D17*
X114635000Y-87905000D03*
X116385000Y-99905000D03*
X132110000Y-105730000D03*
X135185000Y-98605000D03*
X137910000Y-94905000D03*
X131710000Y-92505000D03*
D18*
X126000000Y-97000000D03*
X135000000Y-96500000D03*
X119050000Y-99280000D03*
X121950000Y-97330000D03*
D20*
X137910000Y-90280000D02*
X137910000Y-92030000D01*
X136510000Y-88880000D02*
X137910000Y-90280000D01*
D21*
X125550000Y-123250000D02*
X132110000Y-116690000D01*
X132110000Y-116690000D02*
X132110000Y-105730000D01*
X120600000Y-84300000D02*
X124500000Y-88200000D01*
X125050000Y-88200000D02*
X126000000Y-89150000D01*
X126000000Y-89150000D02*
X126000000Y-97000000D01*
X125050000Y-88200000D02*
X124500000Y-88200000D01*
X104000000Y-126000000D02*
X104000000Y-125500000D01*
X104000000Y-84000000D02*
X107905000Y-87905000D01*
X107905000Y-87905000D02*
X114635000Y-87905000D01*
D22*
X132110000Y-105730000D02*
X132010000Y-105630000D01*
X132010000Y-105630000D02*
X132010000Y-105605000D01*
X135185000Y-98605000D02*
X135060000Y-98480000D01*
X135060000Y-98480000D02*
X135060000Y-98280000D01*
X137935000Y-95130000D02*
X137935000Y-95030000D01*
X137910000Y-95155000D02*
X137935000Y-95130000D01*
X137910000Y-94905000D02*
X137910000Y-95155000D01*
D23*
X131710000Y-92505000D02*
X131685000Y-92480000D01*
X131685000Y-92480000D02*
X131685000Y-92405000D01*
D21*
X131710000Y-92505000D02*
X130495000Y-92505000D01*
X130495000Y-92505000D02*
X126000000Y-97000000D01*
X134500000Y-97000000D02*
X126000000Y-97000000D01*
X135000000Y-96500000D02*
X134500000Y-97000000D01*
D24*
X120000000Y-99280000D02*
X119050000Y-99280000D01*
X121950000Y-97330000D02*
X120000000Y-99280000D01*
D25*
G36*
X149540000Y-129540000D02*
X148973905Y-129540000D01*
X148973905Y-119312903D01*
X148973905Y-118567097D01*
X148817615Y-118189752D01*
X148433255Y-117757939D01*
X148055012Y-117574865D01*
X148465522Y-117300571D01*
X148741604Y-116887386D01*
X148838551Y-116400000D01*
X148741604Y-115912614D01*
X148465522Y-115499429D01*
X148055012Y-115225134D01*
X148433255Y-115042061D01*
X148817615Y-114610248D01*
X148973905Y-114232903D01*
X148973905Y-113487097D01*
X148817615Y-113109752D01*
X148433255Y-112677939D01*
X148055012Y-112494865D01*
X148465522Y-112220571D01*
X148741604Y-111807386D01*
X148838551Y-111320000D01*
X148741604Y-110832614D01*
X148465522Y-110419429D01*
X148052337Y-110143347D01*
X147583049Y-110050000D01*
X148052337Y-109956653D01*
X148465522Y-109680571D01*
X148741604Y-109267386D01*
X148838551Y-108780000D01*
X148741604Y-108292614D01*
X148465522Y-107879429D01*
X148052337Y-107603347D01*
X147583049Y-107510000D01*
X148052337Y-107416653D01*
X148465522Y-107140571D01*
X148741604Y-106727386D01*
X148838551Y-106240000D01*
X148741604Y-105752614D01*
X148465522Y-105339429D01*
X148052337Y-105063347D01*
X147583049Y-104970000D01*
X148052337Y-104876653D01*
X148465522Y-104600571D01*
X148741604Y-104187386D01*
X148838551Y-103700000D01*
X148741604Y-103212614D01*
X148465522Y-102799429D01*
X148052337Y-102523347D01*
X147583049Y-102430000D01*
X148052337Y-102336653D01*
X148465522Y-102060571D01*
X148741604Y-101647386D01*
X148838551Y-101160000D01*
X148741604Y-100672614D01*
X148465522Y-100259429D01*
X148052337Y-99983347D01*
X147583049Y-99890000D01*
X148052337Y-99796653D01*
X148465522Y-99520571D01*
X148741604Y-99107386D01*
X148838551Y-98620000D01*
X148741604Y-98132614D01*
X148465522Y-97719429D01*
X148052337Y-97443347D01*
X147583049Y-97350000D01*
X148052337Y-97256653D01*
X148465522Y-96980571D01*
X148741604Y-96567386D01*
X148838551Y-96080000D01*
X148741604Y-95592614D01*
X148465522Y-95179429D01*
X148052337Y-94903347D01*
X147583049Y-94810000D01*
X148052337Y-94716653D01*
X148465522Y-94440571D01*
X148741604Y-94027386D01*
X148838551Y-93540000D01*
X148741604Y-93052614D01*
X148465522Y-92639429D01*
X148052337Y-92363347D01*
X147583049Y-92270000D01*
X148052337Y-92176653D01*
X148465522Y-91900571D01*
X148741604Y-91487386D01*
X148838551Y-91000000D01*
X148741604Y-90512614D01*
X148465522Y-90099429D01*
X148052337Y-89823347D01*
X147564951Y-89726400D01*
X147515049Y-89726400D01*
X147027663Y-89823347D01*
X146614478Y-90099429D01*
X146338396Y-90512614D01*
X146281632Y-90797986D01*
X146281632Y-90136400D01*
X146251300Y-89980068D01*
X146161043Y-89842667D01*
X146024785Y-89750692D01*
X145863600Y-89718368D01*
X145695076Y-89718368D01*
X145695076Y-86841846D01*
X145695076Y-86048154D01*
X145511439Y-85604789D01*
X145248897Y-85315187D01*
X145282332Y-85308700D01*
X145419733Y-85218443D01*
X145511708Y-85082185D01*
X145544032Y-84921000D01*
X145544032Y-82889000D01*
X145513700Y-82732668D01*
X145423443Y-82595267D01*
X145287185Y-82503292D01*
X145126000Y-82470968D01*
X143094000Y-82470968D01*
X142937668Y-82501300D01*
X142800267Y-82591557D01*
X142708292Y-82727815D01*
X142675968Y-82889000D01*
X142675968Y-84921000D01*
X142706300Y-85077332D01*
X142796557Y-85214733D01*
X142932815Y-85306708D01*
X142971716Y-85314509D01*
X142708561Y-85604789D01*
X142524924Y-86048154D01*
X142637524Y-86301000D01*
X143966000Y-86301000D01*
X143966000Y-86281000D01*
X144254000Y-86281000D01*
X144254000Y-86301000D01*
X145582476Y-86301000D01*
X145695076Y-86048154D01*
X145695076Y-86841846D01*
X145582476Y-86589000D01*
X144254000Y-86589000D01*
X144254000Y-87918152D01*
X144506848Y-88030086D01*
X145083226Y-87757561D01*
X145511439Y-87285211D01*
X145695076Y-86841846D01*
X145695076Y-89718368D01*
X144136400Y-89718368D01*
X143980068Y-89748700D01*
X143966000Y-89757941D01*
X143966000Y-87918152D01*
X143966000Y-86589000D01*
X142637524Y-86589000D01*
X142524924Y-86841846D01*
X142708561Y-87285211D01*
X143136774Y-87757561D01*
X143713152Y-88030086D01*
X143966000Y-87918152D01*
X143966000Y-89757941D01*
X143842667Y-89838957D01*
X143750692Y-89975215D01*
X143718368Y-90136400D01*
X143718368Y-91863600D01*
X143748700Y-92019932D01*
X143838957Y-92157333D01*
X143975215Y-92249308D01*
X144136400Y-92281632D01*
X144898472Y-92281632D01*
X144487663Y-92363347D01*
X144074478Y-92639429D01*
X143798396Y-93052614D01*
X143701449Y-93540000D01*
X143798396Y-94027386D01*
X144074478Y-94440571D01*
X144487663Y-94716653D01*
X144956950Y-94810000D01*
X144487663Y-94903347D01*
X144074478Y-95179429D01*
X143798396Y-95592614D01*
X143701449Y-96080000D01*
X143798396Y-96567386D01*
X144074478Y-96980571D01*
X144487663Y-97256653D01*
X144956950Y-97350000D01*
X144487663Y-97443347D01*
X144074478Y-97719429D01*
X143798396Y-98132614D01*
X143701449Y-98620000D01*
X143798396Y-99107386D01*
X144074478Y-99520571D01*
X144487663Y-99796653D01*
X144956950Y-99890000D01*
X144487663Y-99983347D01*
X144074478Y-100259429D01*
X143798396Y-100672614D01*
X143701449Y-101160000D01*
X143798396Y-101647386D01*
X144074478Y-102060571D01*
X144487663Y-102336653D01*
X144956950Y-102430000D01*
X144487663Y-102523347D01*
X144074478Y-102799429D01*
X143798396Y-103212614D01*
X143701449Y-103700000D01*
X143798396Y-104187386D01*
X144074478Y-104600571D01*
X144487663Y-104876653D01*
X144956950Y-104970000D01*
X144487663Y-105063347D01*
X144074478Y-105339429D01*
X143798396Y-105752614D01*
X143701449Y-106240000D01*
X143798396Y-106727386D01*
X144074478Y-107140571D01*
X144487663Y-107416653D01*
X144956950Y-107510000D01*
X144487663Y-107603347D01*
X144074478Y-107879429D01*
X143798396Y-108292614D01*
X143701449Y-108780000D01*
X143798396Y-109267386D01*
X144074478Y-109680571D01*
X144487663Y-109956653D01*
X144956950Y-110050000D01*
X144487663Y-110143347D01*
X144074478Y-110419429D01*
X143798396Y-110832614D01*
X143701449Y-111320000D01*
X143798396Y-111807386D01*
X144074478Y-112220571D01*
X144484987Y-112494865D01*
X144106745Y-112677939D01*
X143722385Y-113109752D01*
X143566095Y-113487097D01*
X143680736Y-113716000D01*
X144856000Y-113716000D01*
X144856000Y-113696000D01*
X145144000Y-113696000D01*
X145144000Y-113716000D01*
X146220736Y-113716000D01*
X146319264Y-113716000D01*
X147396000Y-113716000D01*
X147396000Y-113696000D01*
X147684000Y-113696000D01*
X147684000Y-113716000D01*
X148859264Y-113716000D01*
X148973905Y-113487097D01*
X148973905Y-114232903D01*
X148859264Y-114004000D01*
X147684000Y-114004000D01*
X147684000Y-114024000D01*
X147396000Y-114024000D01*
X147396000Y-114004000D01*
X146319264Y-114004000D01*
X146220736Y-114004000D01*
X145144000Y-114004000D01*
X145144000Y-114024000D01*
X144856000Y-114024000D01*
X144856000Y-114004000D01*
X143680736Y-114004000D01*
X143566095Y-114232903D01*
X143722385Y-114610248D01*
X144106745Y-115042061D01*
X144484987Y-115225134D01*
X144074478Y-115499429D01*
X143798396Y-115912614D01*
X143701449Y-116400000D01*
X143798396Y-116887386D01*
X144074478Y-117300571D01*
X144487663Y-117576653D01*
X144956950Y-117670000D01*
X144487663Y-117763347D01*
X144074478Y-118039429D01*
X143798396Y-118452614D01*
X143701449Y-118940000D01*
X143798396Y-119427386D01*
X144074478Y-119840571D01*
X144487663Y-120116653D01*
X144975049Y-120213600D01*
X145024951Y-120213600D01*
X145512337Y-120116653D01*
X145925522Y-119840571D01*
X146171915Y-119471818D01*
X146262385Y-119690248D01*
X146646745Y-120122061D01*
X147167095Y-120373916D01*
X147396000Y-120260097D01*
X147396000Y-119084000D01*
X147376000Y-119084000D01*
X147376000Y-118796000D01*
X147396000Y-118796000D01*
X147396000Y-118776000D01*
X147684000Y-118776000D01*
X147684000Y-118796000D01*
X148859264Y-118796000D01*
X148973905Y-118567097D01*
X148973905Y-119312903D01*
X148859264Y-119084000D01*
X147684000Y-119084000D01*
X147684000Y-120260097D01*
X147912905Y-120373916D01*
X148433255Y-120122061D01*
X148817615Y-119690248D01*
X148973905Y-119312903D01*
X148973905Y-129540000D01*
X138764648Y-129540000D01*
X138764648Y-91860775D01*
X138701000Y-91706734D01*
X138701000Y-90280000D01*
X138640789Y-89977297D01*
X138469321Y-89720679D01*
X137297918Y-88549276D01*
X137234833Y-88396597D01*
X136994668Y-88156012D01*
X136680716Y-88025648D01*
X136340775Y-88025352D01*
X136026597Y-88155167D01*
X135786012Y-88395332D01*
X135655648Y-88709284D01*
X135655352Y-89049225D01*
X135785167Y-89363403D01*
X136025332Y-89603988D01*
X136179264Y-89667906D01*
X137119000Y-90607642D01*
X137119000Y-91706715D01*
X137055648Y-91859284D01*
X137055352Y-92199225D01*
X137185167Y-92513403D01*
X137425332Y-92753988D01*
X137739284Y-92884352D01*
X138079225Y-92884648D01*
X138393403Y-92754833D01*
X138633988Y-92514668D01*
X138764352Y-92200716D01*
X138764648Y-91860775D01*
X138764648Y-129540000D01*
X138053600Y-129540000D01*
X138053600Y-127180337D01*
X138053600Y-126819663D01*
X137956653Y-126332277D01*
X137680571Y-125919092D01*
X137267386Y-125643010D01*
X136780000Y-125546063D01*
X136292614Y-125643010D01*
X135879429Y-125919092D01*
X135603347Y-126332277D01*
X135510000Y-126801564D01*
X135416653Y-126332277D01*
X135140571Y-125919092D01*
X134727386Y-125643010D01*
X134240000Y-125546063D01*
X133752614Y-125643010D01*
X133339429Y-125919092D01*
X133063347Y-126332277D01*
X132970000Y-126801564D01*
X132876653Y-126332277D01*
X132600571Y-125919092D01*
X132187386Y-125643010D01*
X131700000Y-125546063D01*
X131212614Y-125643010D01*
X130799429Y-125919092D01*
X130523347Y-126332277D01*
X130430000Y-126801564D01*
X130336653Y-126332277D01*
X130060571Y-125919092D01*
X129647386Y-125643010D01*
X129160000Y-125546063D01*
X128672614Y-125643010D01*
X128259429Y-125919092D01*
X127983347Y-126332277D01*
X127890000Y-126801564D01*
X127796653Y-126332277D01*
X127520571Y-125919092D01*
X127107386Y-125643010D01*
X126620000Y-125546063D01*
X126132614Y-125643010D01*
X125719429Y-125919092D01*
X125443347Y-126332277D01*
X125350000Y-126801564D01*
X125256653Y-126332277D01*
X124980571Y-125919092D01*
X124567386Y-125643010D01*
X124080000Y-125546063D01*
X123592614Y-125643010D01*
X123179429Y-125919092D01*
X122903347Y-126332277D01*
X122901915Y-126339473D01*
X122808008Y-126080415D01*
X122804500Y-126076576D01*
X122804500Y-97330000D01*
X122739455Y-97002997D01*
X122554222Y-96725778D01*
X122277003Y-96540545D01*
X121950000Y-96475500D01*
X121622997Y-96540545D01*
X121345777Y-96725778D01*
X119646054Y-98425500D01*
X119050000Y-98425500D01*
X118722997Y-98490545D01*
X118445777Y-98675777D01*
X118260545Y-98952997D01*
X118195500Y-99280000D01*
X118260545Y-99607003D01*
X118445777Y-99884223D01*
X118722997Y-100069455D01*
X119050000Y-100134500D01*
X120000000Y-100134500D01*
X120327003Y-100069455D01*
X120604223Y-99884223D01*
X122554222Y-97934223D01*
X122739455Y-97657003D01*
X122804500Y-97330000D01*
X122804500Y-126076576D01*
X122417898Y-125653568D01*
X121912903Y-125413695D01*
X121684000Y-125528336D01*
X121684000Y-126856000D01*
X121704000Y-126856000D01*
X121704000Y-127144000D01*
X121684000Y-127144000D01*
X121684000Y-128471664D01*
X121912903Y-128586305D01*
X122417898Y-128346432D01*
X122808008Y-127919585D01*
X122901915Y-127660526D01*
X122903347Y-127667723D01*
X123179429Y-128080908D01*
X123592614Y-128356990D01*
X124080000Y-128453937D01*
X124567386Y-128356990D01*
X124980571Y-128080908D01*
X125256653Y-127667723D01*
X125350000Y-127198435D01*
X125443347Y-127667723D01*
X125719429Y-128080908D01*
X126132614Y-128356990D01*
X126620000Y-128453937D01*
X127107386Y-128356990D01*
X127520571Y-128080908D01*
X127796653Y-127667723D01*
X127890000Y-127198435D01*
X127983347Y-127667723D01*
X128259429Y-128080908D01*
X128672614Y-128356990D01*
X129160000Y-128453937D01*
X129647386Y-128356990D01*
X130060571Y-128080908D01*
X130336653Y-127667723D01*
X130430000Y-127198435D01*
X130523347Y-127667723D01*
X130799429Y-128080908D01*
X131212614Y-128356990D01*
X131700000Y-128453937D01*
X132187386Y-128356990D01*
X132600571Y-128080908D01*
X132876653Y-127667723D01*
X132970000Y-127198435D01*
X133063347Y-127667723D01*
X133339429Y-128080908D01*
X133752614Y-128356990D01*
X134240000Y-128453937D01*
X134727386Y-128356990D01*
X135140571Y-128080908D01*
X135416653Y-127667723D01*
X135510000Y-127198435D01*
X135603347Y-127667723D01*
X135879429Y-128080908D01*
X136292614Y-128356990D01*
X136780000Y-128453937D01*
X137267386Y-128356990D01*
X137680571Y-128080908D01*
X137956653Y-127667723D01*
X138053600Y-127180337D01*
X138053600Y-129540000D01*
X121396000Y-129540000D01*
X121396000Y-128471664D01*
X121396000Y-127144000D01*
X121376000Y-127144000D01*
X121376000Y-126856000D01*
X121396000Y-126856000D01*
X121396000Y-125528336D01*
X121167097Y-125413695D01*
X120662102Y-125653568D01*
X120281632Y-126069867D01*
X120281632Y-125984000D01*
X120251300Y-125827668D01*
X120161043Y-125690267D01*
X120024785Y-125598292D01*
X119863600Y-125565968D01*
X118136400Y-125565968D01*
X117980068Y-125596300D01*
X117842667Y-125686557D01*
X117750692Y-125822815D01*
X117718368Y-125984000D01*
X117718368Y-128016000D01*
X117748700Y-128172332D01*
X117838957Y-128309733D01*
X117975215Y-128401708D01*
X118136400Y-128434032D01*
X119863600Y-128434032D01*
X120019932Y-128403700D01*
X120157333Y-128313443D01*
X120249308Y-128177185D01*
X120281632Y-128016000D01*
X120281632Y-127930132D01*
X120662102Y-128346432D01*
X121167097Y-128586305D01*
X121396000Y-128471664D01*
X121396000Y-129540000D01*
X106973905Y-129540000D01*
X106973905Y-119312903D01*
X106973905Y-118567097D01*
X106817615Y-118189752D01*
X106433255Y-117757939D01*
X106055012Y-117574865D01*
X106465522Y-117300571D01*
X106741604Y-116887386D01*
X106838551Y-116400000D01*
X106741604Y-115912614D01*
X106465522Y-115499429D01*
X106055012Y-115225134D01*
X106433255Y-115042061D01*
X106817615Y-114610248D01*
X106973905Y-114232903D01*
X106973905Y-113487097D01*
X106817615Y-113109752D01*
X106433255Y-112677939D01*
X106055012Y-112494865D01*
X106465522Y-112220571D01*
X106741604Y-111807386D01*
X106838551Y-111320000D01*
X106741604Y-110832614D01*
X106465522Y-110419429D01*
X106052337Y-110143347D01*
X105583049Y-110050000D01*
X106052337Y-109956653D01*
X106465522Y-109680571D01*
X106741604Y-109267386D01*
X106838551Y-108780000D01*
X106741604Y-108292614D01*
X106465522Y-107879429D01*
X106052337Y-107603347D01*
X105583049Y-107510000D01*
X106052337Y-107416653D01*
X106465522Y-107140571D01*
X106741604Y-106727386D01*
X106838551Y-106240000D01*
X106741604Y-105752614D01*
X106465522Y-105339429D01*
X106052337Y-105063347D01*
X105583049Y-104970000D01*
X106052337Y-104876653D01*
X106465522Y-104600571D01*
X106741604Y-104187386D01*
X106838551Y-103700000D01*
X106741604Y-103212614D01*
X106465522Y-102799429D01*
X106052337Y-102523347D01*
X105583049Y-102430000D01*
X106052337Y-102336653D01*
X106465522Y-102060571D01*
X106741604Y-101647386D01*
X106838551Y-101160000D01*
X106741604Y-100672614D01*
X106465522Y-100259429D01*
X106052337Y-99983347D01*
X105583049Y-99890000D01*
X106052337Y-99796653D01*
X106465522Y-99520571D01*
X106741604Y-99107386D01*
X106838551Y-98620000D01*
X106741604Y-98132614D01*
X106465522Y-97719429D01*
X106052337Y-97443347D01*
X105583049Y-97350000D01*
X106052337Y-97256653D01*
X106465522Y-96980571D01*
X106741604Y-96567386D01*
X106838551Y-96080000D01*
X106741604Y-95592614D01*
X106465522Y-95179429D01*
X106052337Y-94903347D01*
X105583049Y-94810000D01*
X106052337Y-94716653D01*
X106465522Y-94440571D01*
X106741604Y-94027386D01*
X106838551Y-93540000D01*
X106741604Y-93052614D01*
X106465522Y-92639429D01*
X106052337Y-92363347D01*
X105583049Y-92270000D01*
X106052337Y-92176653D01*
X106465522Y-91900571D01*
X106741604Y-91487386D01*
X106838551Y-91000000D01*
X106741604Y-90512614D01*
X106465522Y-90099429D01*
X106052337Y-89823347D01*
X105564951Y-89726400D01*
X105515049Y-89726400D01*
X105027663Y-89823347D01*
X104614478Y-90099429D01*
X104338396Y-90512614D01*
X104281632Y-90797986D01*
X104281632Y-90136400D01*
X104251300Y-89980068D01*
X104161043Y-89842667D01*
X104024785Y-89750692D01*
X103863600Y-89718368D01*
X102136400Y-89718368D01*
X101980068Y-89748700D01*
X101842667Y-89838957D01*
X101750692Y-89975215D01*
X101718368Y-90136400D01*
X101718368Y-91863600D01*
X101748700Y-92019932D01*
X101838957Y-92157333D01*
X101975215Y-92249308D01*
X102136400Y-92281632D01*
X102898472Y-92281632D01*
X102487663Y-92363347D01*
X102074478Y-92639429D01*
X101798396Y-93052614D01*
X101701449Y-93540000D01*
X101798396Y-94027386D01*
X102074478Y-94440571D01*
X102487663Y-94716653D01*
X102956950Y-94810000D01*
X102487663Y-94903347D01*
X102074478Y-95179429D01*
X101798396Y-95592614D01*
X101701449Y-96080000D01*
X101798396Y-96567386D01*
X102074478Y-96980571D01*
X102487663Y-97256653D01*
X102956950Y-97350000D01*
X102487663Y-97443347D01*
X102074478Y-97719429D01*
X101798396Y-98132614D01*
X101701449Y-98620000D01*
X101798396Y-99107386D01*
X102074478Y-99520571D01*
X102487663Y-99796653D01*
X102956950Y-99890000D01*
X102487663Y-99983347D01*
X102074478Y-100259429D01*
X101798396Y-100672614D01*
X101701449Y-101160000D01*
X101798396Y-101647386D01*
X102074478Y-102060571D01*
X102487663Y-102336653D01*
X102956950Y-102430000D01*
X102487663Y-102523347D01*
X102074478Y-102799429D01*
X101798396Y-103212614D01*
X101701449Y-103700000D01*
X101798396Y-104187386D01*
X102074478Y-104600571D01*
X102487663Y-104876653D01*
X102956950Y-104970000D01*
X102487663Y-105063347D01*
X102074478Y-105339429D01*
X101798396Y-105752614D01*
X101701449Y-106240000D01*
X101798396Y-106727386D01*
X102074478Y-107140571D01*
X102487663Y-107416653D01*
X102956950Y-107510000D01*
X102487663Y-107603347D01*
X102074478Y-107879429D01*
X101798396Y-108292614D01*
X101701449Y-108780000D01*
X101798396Y-109267386D01*
X102074478Y-109680571D01*
X102487663Y-109956653D01*
X102956950Y-110050000D01*
X102487663Y-110143347D01*
X102074478Y-110419429D01*
X101798396Y-110832614D01*
X101701449Y-111320000D01*
X101798396Y-111807386D01*
X102074478Y-112220571D01*
X102484987Y-112494865D01*
X102106745Y-112677939D01*
X101722385Y-113109752D01*
X101566095Y-113487097D01*
X101680736Y-113716000D01*
X102856000Y-113716000D01*
X102856000Y-113696000D01*
X103144000Y-113696000D01*
X103144000Y-113716000D01*
X104220736Y-113716000D01*
X104319264Y-113716000D01*
X105396000Y-113716000D01*
X105396000Y-113696000D01*
X105684000Y-113696000D01*
X105684000Y-113716000D01*
X106859264Y-113716000D01*
X106973905Y-113487097D01*
X106973905Y-114232903D01*
X106859264Y-114004000D01*
X105684000Y-114004000D01*
X105684000Y-114024000D01*
X105396000Y-114024000D01*
X105396000Y-114004000D01*
X104319264Y-114004000D01*
X104220736Y-114004000D01*
X103144000Y-114004000D01*
X103144000Y-114024000D01*
X102856000Y-114024000D01*
X102856000Y-114004000D01*
X101680736Y-114004000D01*
X101566095Y-114232903D01*
X101722385Y-114610248D01*
X102106745Y-115042061D01*
X102484987Y-115225134D01*
X102074478Y-115499429D01*
X101798396Y-115912614D01*
X101701449Y-116400000D01*
X101798396Y-116887386D01*
X102074478Y-117300571D01*
X102487663Y-117576653D01*
X102956950Y-117670000D01*
X102487663Y-117763347D01*
X102074478Y-118039429D01*
X101798396Y-118452614D01*
X101701449Y-118940000D01*
X101798396Y-119427386D01*
X102074478Y-119840571D01*
X102487663Y-120116653D01*
X102975049Y-120213600D01*
X103024951Y-120213600D01*
X103512337Y-120116653D01*
X103925522Y-119840571D01*
X104171915Y-119471818D01*
X104262385Y-119690248D01*
X104646745Y-120122061D01*
X105167095Y-120373916D01*
X105396000Y-120260097D01*
X105396000Y-119084000D01*
X105376000Y-119084000D01*
X105376000Y-118796000D01*
X105396000Y-118796000D01*
X105396000Y-118776000D01*
X105684000Y-118776000D01*
X105684000Y-118796000D01*
X106859264Y-118796000D01*
X106973905Y-118567097D01*
X106973905Y-119312903D01*
X106859264Y-119084000D01*
X105684000Y-119084000D01*
X105684000Y-120260097D01*
X105912905Y-120373916D01*
X106433255Y-120122061D01*
X106817615Y-119690248D01*
X106973905Y-119312903D01*
X106973905Y-129540000D01*
X100460000Y-129540000D01*
X100460000Y-80460000D01*
X149540000Y-80460000D01*
X149540000Y-129540000D01*
X149540000Y-129540000D01*
G37*
X149540000Y-129540000D02*
X148973905Y-129540000D01*
X148973905Y-119312903D01*
X148973905Y-118567097D01*
X148817615Y-118189752D01*
X148433255Y-117757939D01*
X148055012Y-117574865D01*
X148465522Y-117300571D01*
X148741604Y-116887386D01*
X148838551Y-116400000D01*
X148741604Y-115912614D01*
X148465522Y-115499429D01*
X148055012Y-115225134D01*
X148433255Y-115042061D01*
X148817615Y-114610248D01*
X148973905Y-114232903D01*
X148973905Y-113487097D01*
X148817615Y-113109752D01*
X148433255Y-112677939D01*
X148055012Y-112494865D01*
X148465522Y-112220571D01*
X148741604Y-111807386D01*
X148838551Y-111320000D01*
X148741604Y-110832614D01*
X148465522Y-110419429D01*
X148052337Y-110143347D01*
X147583049Y-110050000D01*
X148052337Y-109956653D01*
X148465522Y-109680571D01*
X148741604Y-109267386D01*
X148838551Y-108780000D01*
X148741604Y-108292614D01*
X148465522Y-107879429D01*
X148052337Y-107603347D01*
X147583049Y-107510000D01*
X148052337Y-107416653D01*
X148465522Y-107140571D01*
X148741604Y-106727386D01*
X148838551Y-106240000D01*
X148741604Y-105752614D01*
X148465522Y-105339429D01*
X148052337Y-105063347D01*
X147583049Y-104970000D01*
X148052337Y-104876653D01*
X148465522Y-104600571D01*
X148741604Y-104187386D01*
X148838551Y-103700000D01*
X148741604Y-103212614D01*
X148465522Y-102799429D01*
X148052337Y-102523347D01*
X147583049Y-102430000D01*
X148052337Y-102336653D01*
X148465522Y-102060571D01*
X148741604Y-101647386D01*
X148838551Y-101160000D01*
X148741604Y-100672614D01*
X148465522Y-100259429D01*
X148052337Y-99983347D01*
X147583049Y-99890000D01*
X148052337Y-99796653D01*
X148465522Y-99520571D01*
X148741604Y-99107386D01*
X148838551Y-98620000D01*
X148741604Y-98132614D01*
X148465522Y-97719429D01*
X148052337Y-97443347D01*
X147583049Y-97350000D01*
X148052337Y-97256653D01*
X148465522Y-96980571D01*
X148741604Y-96567386D01*
X148838551Y-96080000D01*
X148741604Y-95592614D01*
X148465522Y-95179429D01*
X148052337Y-94903347D01*
X147583049Y-94810000D01*
X148052337Y-94716653D01*
X148465522Y-94440571D01*
X148741604Y-94027386D01*
X148838551Y-93540000D01*
X148741604Y-93052614D01*
X148465522Y-92639429D01*
X148052337Y-92363347D01*
X147583049Y-92270000D01*
X148052337Y-92176653D01*
X148465522Y-91900571D01*
X148741604Y-91487386D01*
X148838551Y-91000000D01*
X148741604Y-90512614D01*
X148465522Y-90099429D01*
X148052337Y-89823347D01*
X147564951Y-89726400D01*
X147515049Y-89726400D01*
X147027663Y-89823347D01*
X146614478Y-90099429D01*
X146338396Y-90512614D01*
X146281632Y-90797986D01*
X146281632Y-90136400D01*
X146251300Y-89980068D01*
X146161043Y-89842667D01*
X146024785Y-89750692D01*
X145863600Y-89718368D01*
X145695076Y-89718368D01*
X145695076Y-86841846D01*
X145695076Y-86048154D01*
X145511439Y-85604789D01*
X145248897Y-85315187D01*
X145282332Y-85308700D01*
X145419733Y-85218443D01*
X145511708Y-85082185D01*
X145544032Y-84921000D01*
X145544032Y-82889000D01*
X145513700Y-82732668D01*
X145423443Y-82595267D01*
X145287185Y-82503292D01*
X145126000Y-82470968D01*
X143094000Y-82470968D01*
X142937668Y-82501300D01*
X142800267Y-82591557D01*
X142708292Y-82727815D01*
X142675968Y-82889000D01*
X142675968Y-84921000D01*
X142706300Y-85077332D01*
X142796557Y-85214733D01*
X142932815Y-85306708D01*
X142971716Y-85314509D01*
X142708561Y-85604789D01*
X142524924Y-86048154D01*
X142637524Y-86301000D01*
X143966000Y-86301000D01*
X143966000Y-86281000D01*
X144254000Y-86281000D01*
X144254000Y-86301000D01*
X145582476Y-86301000D01*
X145695076Y-86048154D01*
X145695076Y-86841846D01*
X145582476Y-86589000D01*
X144254000Y-86589000D01*
X144254000Y-87918152D01*
X144506848Y-88030086D01*
X145083226Y-87757561D01*
X145511439Y-87285211D01*
X145695076Y-86841846D01*
X145695076Y-89718368D01*
X144136400Y-89718368D01*
X143980068Y-89748700D01*
X143966000Y-89757941D01*
X143966000Y-87918152D01*
X143966000Y-86589000D01*
X142637524Y-86589000D01*
X142524924Y-86841846D01*
X142708561Y-87285211D01*
X143136774Y-87757561D01*
X143713152Y-88030086D01*
X143966000Y-87918152D01*
X143966000Y-89757941D01*
X143842667Y-89838957D01*
X143750692Y-89975215D01*
X143718368Y-90136400D01*
X143718368Y-91863600D01*
X143748700Y-92019932D01*
X143838957Y-92157333D01*
X143975215Y-92249308D01*
X144136400Y-92281632D01*
X144898472Y-92281632D01*
X144487663Y-92363347D01*
X144074478Y-92639429D01*
X143798396Y-93052614D01*
X143701449Y-93540000D01*
X143798396Y-94027386D01*
X144074478Y-94440571D01*
X144487663Y-94716653D01*
X144956950Y-94810000D01*
X144487663Y-94903347D01*
X144074478Y-95179429D01*
X143798396Y-95592614D01*
X143701449Y-96080000D01*
X143798396Y-96567386D01*
X144074478Y-96980571D01*
X144487663Y-97256653D01*
X144956950Y-97350000D01*
X144487663Y-97443347D01*
X144074478Y-97719429D01*
X143798396Y-98132614D01*
X143701449Y-98620000D01*
X143798396Y-99107386D01*
X144074478Y-99520571D01*
X144487663Y-99796653D01*
X144956950Y-99890000D01*
X144487663Y-99983347D01*
X144074478Y-100259429D01*
X143798396Y-100672614D01*
X143701449Y-101160000D01*
X143798396Y-101647386D01*
X144074478Y-102060571D01*
X144487663Y-102336653D01*
X144956950Y-102430000D01*
X144487663Y-102523347D01*
X144074478Y-102799429D01*
X143798396Y-103212614D01*
X143701449Y-103700000D01*
X143798396Y-104187386D01*
X144074478Y-104600571D01*
X144487663Y-104876653D01*
X144956950Y-104970000D01*
X144487663Y-105063347D01*
X144074478Y-105339429D01*
X143798396Y-105752614D01*
X143701449Y-106240000D01*
X143798396Y-106727386D01*
X144074478Y-107140571D01*
X144487663Y-107416653D01*
X144956950Y-107510000D01*
X144487663Y-107603347D01*
X144074478Y-107879429D01*
X143798396Y-108292614D01*
X143701449Y-108780000D01*
X143798396Y-109267386D01*
X144074478Y-109680571D01*
X144487663Y-109956653D01*
X144956950Y-110050000D01*
X144487663Y-110143347D01*
X144074478Y-110419429D01*
X143798396Y-110832614D01*
X143701449Y-111320000D01*
X143798396Y-111807386D01*
X144074478Y-112220571D01*
X144484987Y-112494865D01*
X144106745Y-112677939D01*
X143722385Y-113109752D01*
X143566095Y-113487097D01*
X143680736Y-113716000D01*
X144856000Y-113716000D01*
X144856000Y-113696000D01*
X145144000Y-113696000D01*
X145144000Y-113716000D01*
X146220736Y-113716000D01*
X146319264Y-113716000D01*
X147396000Y-113716000D01*
X147396000Y-113696000D01*
X147684000Y-113696000D01*
X147684000Y-113716000D01*
X148859264Y-113716000D01*
X148973905Y-113487097D01*
X148973905Y-114232903D01*
X148859264Y-114004000D01*
X147684000Y-114004000D01*
X147684000Y-114024000D01*
X147396000Y-114024000D01*
X147396000Y-114004000D01*
X146319264Y-114004000D01*
X146220736Y-114004000D01*
X145144000Y-114004000D01*
X145144000Y-114024000D01*
X144856000Y-114024000D01*
X144856000Y-114004000D01*
X143680736Y-114004000D01*
X143566095Y-114232903D01*
X143722385Y-114610248D01*
X144106745Y-115042061D01*
X144484987Y-115225134D01*
X144074478Y-115499429D01*
X143798396Y-115912614D01*
X143701449Y-116400000D01*
X143798396Y-116887386D01*
X144074478Y-117300571D01*
X144487663Y-117576653D01*
X144956950Y-117670000D01*
X144487663Y-117763347D01*
X144074478Y-118039429D01*
X143798396Y-118452614D01*
X143701449Y-118940000D01*
X143798396Y-119427386D01*
X144074478Y-119840571D01*
X144487663Y-120116653D01*
X144975049Y-120213600D01*
X145024951Y-120213600D01*
X145512337Y-120116653D01*
X145925522Y-119840571D01*
X146171915Y-119471818D01*
X146262385Y-119690248D01*
X146646745Y-120122061D01*
X147167095Y-120373916D01*
X147396000Y-120260097D01*
X147396000Y-119084000D01*
X147376000Y-119084000D01*
X147376000Y-118796000D01*
X147396000Y-118796000D01*
X147396000Y-118776000D01*
X147684000Y-118776000D01*
X147684000Y-118796000D01*
X148859264Y-118796000D01*
X148973905Y-118567097D01*
X148973905Y-119312903D01*
X148859264Y-119084000D01*
X147684000Y-119084000D01*
X147684000Y-120260097D01*
X147912905Y-120373916D01*
X148433255Y-120122061D01*
X148817615Y-119690248D01*
X148973905Y-119312903D01*
X148973905Y-129540000D01*
X138764648Y-129540000D01*
X138764648Y-91860775D01*
X138701000Y-91706734D01*
X138701000Y-90280000D01*
X138640789Y-89977297D01*
X138469321Y-89720679D01*
X137297918Y-88549276D01*
X137234833Y-88396597D01*
X136994668Y-88156012D01*
X136680716Y-88025648D01*
X136340775Y-88025352D01*
X136026597Y-88155167D01*
X135786012Y-88395332D01*
X135655648Y-88709284D01*
X135655352Y-89049225D01*
X135785167Y-89363403D01*
X136025332Y-89603988D01*
X136179264Y-89667906D01*
X137119000Y-90607642D01*
X137119000Y-91706715D01*
X137055648Y-91859284D01*
X137055352Y-92199225D01*
X137185167Y-92513403D01*
X137425332Y-92753988D01*
X137739284Y-92884352D01*
X138079225Y-92884648D01*
X138393403Y-92754833D01*
X138633988Y-92514668D01*
X138764352Y-92200716D01*
X138764648Y-91860775D01*
X138764648Y-129540000D01*
X138053600Y-129540000D01*
X138053600Y-127180337D01*
X138053600Y-126819663D01*
X137956653Y-126332277D01*
X137680571Y-125919092D01*
X137267386Y-125643010D01*
X136780000Y-125546063D01*
X136292614Y-125643010D01*
X135879429Y-125919092D01*
X135603347Y-126332277D01*
X135510000Y-126801564D01*
X135416653Y-126332277D01*
X135140571Y-125919092D01*
X134727386Y-125643010D01*
X134240000Y-125546063D01*
X133752614Y-125643010D01*
X133339429Y-125919092D01*
X133063347Y-126332277D01*
X132970000Y-126801564D01*
X132876653Y-126332277D01*
X132600571Y-125919092D01*
X132187386Y-125643010D01*
X131700000Y-125546063D01*
X131212614Y-125643010D01*
X130799429Y-125919092D01*
X130523347Y-126332277D01*
X130430000Y-126801564D01*
X130336653Y-126332277D01*
X130060571Y-125919092D01*
X129647386Y-125643010D01*
X129160000Y-125546063D01*
X128672614Y-125643010D01*
X128259429Y-125919092D01*
X127983347Y-126332277D01*
X127890000Y-126801564D01*
X127796653Y-126332277D01*
X127520571Y-125919092D01*
X127107386Y-125643010D01*
X126620000Y-125546063D01*
X126132614Y-125643010D01*
X125719429Y-125919092D01*
X125443347Y-126332277D01*
X125350000Y-126801564D01*
X125256653Y-126332277D01*
X124980571Y-125919092D01*
X124567386Y-125643010D01*
X124080000Y-125546063D01*
X123592614Y-125643010D01*
X123179429Y-125919092D01*
X122903347Y-126332277D01*
X122901915Y-126339473D01*
X122808008Y-126080415D01*
X122804500Y-126076576D01*
X122804500Y-97330000D01*
X122739455Y-97002997D01*
X122554222Y-96725778D01*
X122277003Y-96540545D01*
X121950000Y-96475500D01*
X121622997Y-96540545D01*
X121345777Y-96725778D01*
X119646054Y-98425500D01*
X119050000Y-98425500D01*
X118722997Y-98490545D01*
X118445777Y-98675777D01*
X118260545Y-98952997D01*
X118195500Y-99280000D01*
X118260545Y-99607003D01*
X118445777Y-99884223D01*
X118722997Y-100069455D01*
X119050000Y-100134500D01*
X120000000Y-100134500D01*
X120327003Y-100069455D01*
X120604223Y-99884223D01*
X122554222Y-97934223D01*
X122739455Y-97657003D01*
X122804500Y-97330000D01*
X122804500Y-126076576D01*
X122417898Y-125653568D01*
X121912903Y-125413695D01*
X121684000Y-125528336D01*
X121684000Y-126856000D01*
X121704000Y-126856000D01*
X121704000Y-127144000D01*
X121684000Y-127144000D01*
X121684000Y-128471664D01*
X121912903Y-128586305D01*
X122417898Y-128346432D01*
X122808008Y-127919585D01*
X122901915Y-127660526D01*
X122903347Y-127667723D01*
X123179429Y-128080908D01*
X123592614Y-128356990D01*
X124080000Y-128453937D01*
X124567386Y-128356990D01*
X124980571Y-128080908D01*
X125256653Y-127667723D01*
X125350000Y-127198435D01*
X125443347Y-127667723D01*
X125719429Y-128080908D01*
X126132614Y-128356990D01*
X126620000Y-128453937D01*
X127107386Y-128356990D01*
X127520571Y-128080908D01*
X127796653Y-127667723D01*
X127890000Y-127198435D01*
X127983347Y-127667723D01*
X128259429Y-128080908D01*
X128672614Y-128356990D01*
X129160000Y-128453937D01*
X129647386Y-128356990D01*
X130060571Y-128080908D01*
X130336653Y-127667723D01*
X130430000Y-127198435D01*
X130523347Y-127667723D01*
X130799429Y-128080908D01*
X131212614Y-128356990D01*
X131700000Y-128453937D01*
X132187386Y-128356990D01*
X132600571Y-128080908D01*
X132876653Y-127667723D01*
X132970000Y-127198435D01*
X133063347Y-127667723D01*
X133339429Y-128080908D01*
X133752614Y-128356990D01*
X134240000Y-128453937D01*
X134727386Y-128356990D01*
X135140571Y-128080908D01*
X135416653Y-127667723D01*
X135510000Y-127198435D01*
X135603347Y-127667723D01*
X135879429Y-128080908D01*
X136292614Y-128356990D01*
X136780000Y-128453937D01*
X137267386Y-128356990D01*
X137680571Y-128080908D01*
X137956653Y-127667723D01*
X138053600Y-127180337D01*
X138053600Y-129540000D01*
X121396000Y-129540000D01*
X121396000Y-128471664D01*
X121396000Y-127144000D01*
X121376000Y-127144000D01*
X121376000Y-126856000D01*
X121396000Y-126856000D01*
X121396000Y-125528336D01*
X121167097Y-125413695D01*
X120662102Y-125653568D01*
X120281632Y-126069867D01*
X120281632Y-125984000D01*
X120251300Y-125827668D01*
X120161043Y-125690267D01*
X120024785Y-125598292D01*
X119863600Y-125565968D01*
X118136400Y-125565968D01*
X117980068Y-125596300D01*
X117842667Y-125686557D01*
X117750692Y-125822815D01*
X117718368Y-125984000D01*
X117718368Y-128016000D01*
X117748700Y-128172332D01*
X117838957Y-128309733D01*
X117975215Y-128401708D01*
X118136400Y-128434032D01*
X119863600Y-128434032D01*
X120019932Y-128403700D01*
X120157333Y-128313443D01*
X120249308Y-128177185D01*
X120281632Y-128016000D01*
X120281632Y-127930132D01*
X120662102Y-128346432D01*
X121167097Y-128586305D01*
X121396000Y-128471664D01*
X121396000Y-129540000D01*
X106973905Y-129540000D01*
X106973905Y-119312903D01*
X106973905Y-118567097D01*
X106817615Y-118189752D01*
X106433255Y-117757939D01*
X106055012Y-117574865D01*
X106465522Y-117300571D01*
X106741604Y-116887386D01*
X106838551Y-116400000D01*
X106741604Y-115912614D01*
X106465522Y-115499429D01*
X106055012Y-115225134D01*
X106433255Y-115042061D01*
X106817615Y-114610248D01*
X106973905Y-114232903D01*
X106973905Y-113487097D01*
X106817615Y-113109752D01*
X106433255Y-112677939D01*
X106055012Y-112494865D01*
X106465522Y-112220571D01*
X106741604Y-111807386D01*
X106838551Y-111320000D01*
X106741604Y-110832614D01*
X106465522Y-110419429D01*
X106052337Y-110143347D01*
X105583049Y-110050000D01*
X106052337Y-109956653D01*
X106465522Y-109680571D01*
X106741604Y-109267386D01*
X106838551Y-108780000D01*
X106741604Y-108292614D01*
X106465522Y-107879429D01*
X106052337Y-107603347D01*
X105583049Y-107510000D01*
X106052337Y-107416653D01*
X106465522Y-107140571D01*
X106741604Y-106727386D01*
X106838551Y-106240000D01*
X106741604Y-105752614D01*
X106465522Y-105339429D01*
X106052337Y-105063347D01*
X105583049Y-104970000D01*
X106052337Y-104876653D01*
X106465522Y-104600571D01*
X106741604Y-104187386D01*
X106838551Y-103700000D01*
X106741604Y-103212614D01*
X106465522Y-102799429D01*
X106052337Y-102523347D01*
X105583049Y-102430000D01*
X106052337Y-102336653D01*
X106465522Y-102060571D01*
X106741604Y-101647386D01*
X106838551Y-101160000D01*
X106741604Y-100672614D01*
X106465522Y-100259429D01*
X106052337Y-99983347D01*
X105583049Y-99890000D01*
X106052337Y-99796653D01*
X106465522Y-99520571D01*
X106741604Y-99107386D01*
X106838551Y-98620000D01*
X106741604Y-98132614D01*
X106465522Y-97719429D01*
X106052337Y-97443347D01*
X105583049Y-97350000D01*
X106052337Y-97256653D01*
X106465522Y-96980571D01*
X106741604Y-96567386D01*
X106838551Y-96080000D01*
X106741604Y-95592614D01*
X106465522Y-95179429D01*
X106052337Y-94903347D01*
X105583049Y-94810000D01*
X106052337Y-94716653D01*
X106465522Y-94440571D01*
X106741604Y-94027386D01*
X106838551Y-93540000D01*
X106741604Y-93052614D01*
X106465522Y-92639429D01*
X106052337Y-92363347D01*
X105583049Y-92270000D01*
X106052337Y-92176653D01*
X106465522Y-91900571D01*
X106741604Y-91487386D01*
X106838551Y-91000000D01*
X106741604Y-90512614D01*
X106465522Y-90099429D01*
X106052337Y-89823347D01*
X105564951Y-89726400D01*
X105515049Y-89726400D01*
X105027663Y-89823347D01*
X104614478Y-90099429D01*
X104338396Y-90512614D01*
X104281632Y-90797986D01*
X104281632Y-90136400D01*
X104251300Y-89980068D01*
X104161043Y-89842667D01*
X104024785Y-89750692D01*
X103863600Y-89718368D01*
X102136400Y-89718368D01*
X101980068Y-89748700D01*
X101842667Y-89838957D01*
X101750692Y-89975215D01*
X101718368Y-90136400D01*
X101718368Y-91863600D01*
X101748700Y-92019932D01*
X101838957Y-92157333D01*
X101975215Y-92249308D01*
X102136400Y-92281632D01*
X102898472Y-92281632D01*
X102487663Y-92363347D01*
X102074478Y-92639429D01*
X101798396Y-93052614D01*
X101701449Y-93540000D01*
X101798396Y-94027386D01*
X102074478Y-94440571D01*
X102487663Y-94716653D01*
X102956950Y-94810000D01*
X102487663Y-94903347D01*
X102074478Y-95179429D01*
X101798396Y-95592614D01*
X101701449Y-96080000D01*
X101798396Y-96567386D01*
X102074478Y-96980571D01*
X102487663Y-97256653D01*
X102956950Y-97350000D01*
X102487663Y-97443347D01*
X102074478Y-97719429D01*
X101798396Y-98132614D01*
X101701449Y-98620000D01*
X101798396Y-99107386D01*
X102074478Y-99520571D01*
X102487663Y-99796653D01*
X102956950Y-99890000D01*
X102487663Y-99983347D01*
X102074478Y-100259429D01*
X101798396Y-100672614D01*
X101701449Y-101160000D01*
X101798396Y-101647386D01*
X102074478Y-102060571D01*
X102487663Y-102336653D01*
X102956950Y-102430000D01*
X102487663Y-102523347D01*
X102074478Y-102799429D01*
X101798396Y-103212614D01*
X101701449Y-103700000D01*
X101798396Y-104187386D01*
X102074478Y-104600571D01*
X102487663Y-104876653D01*
X102956950Y-104970000D01*
X102487663Y-105063347D01*
X102074478Y-105339429D01*
X101798396Y-105752614D01*
X101701449Y-106240000D01*
X101798396Y-106727386D01*
X102074478Y-107140571D01*
X102487663Y-107416653D01*
X102956950Y-107510000D01*
X102487663Y-107603347D01*
X102074478Y-107879429D01*
X101798396Y-108292614D01*
X101701449Y-108780000D01*
X101798396Y-109267386D01*
X102074478Y-109680571D01*
X102487663Y-109956653D01*
X102956950Y-110050000D01*
X102487663Y-110143347D01*
X102074478Y-110419429D01*
X101798396Y-110832614D01*
X101701449Y-111320000D01*
X101798396Y-111807386D01*
X102074478Y-112220571D01*
X102484987Y-112494865D01*
X102106745Y-112677939D01*
X101722385Y-113109752D01*
X101566095Y-113487097D01*
X101680736Y-113716000D01*
X102856000Y-113716000D01*
X102856000Y-113696000D01*
X103144000Y-113696000D01*
X103144000Y-113716000D01*
X104220736Y-113716000D01*
X104319264Y-113716000D01*
X105396000Y-113716000D01*
X105396000Y-113696000D01*
X105684000Y-113696000D01*
X105684000Y-113716000D01*
X106859264Y-113716000D01*
X106973905Y-113487097D01*
X106973905Y-114232903D01*
X106859264Y-114004000D01*
X105684000Y-114004000D01*
X105684000Y-114024000D01*
X105396000Y-114024000D01*
X105396000Y-114004000D01*
X104319264Y-114004000D01*
X104220736Y-114004000D01*
X103144000Y-114004000D01*
X103144000Y-114024000D01*
X102856000Y-114024000D01*
X102856000Y-114004000D01*
X101680736Y-114004000D01*
X101566095Y-114232903D01*
X101722385Y-114610248D01*
X102106745Y-115042061D01*
X102484987Y-115225134D01*
X102074478Y-115499429D01*
X101798396Y-115912614D01*
X101701449Y-116400000D01*
X101798396Y-116887386D01*
X102074478Y-117300571D01*
X102487663Y-117576653D01*
X102956950Y-117670000D01*
X102487663Y-117763347D01*
X102074478Y-118039429D01*
X101798396Y-118452614D01*
X101701449Y-118940000D01*
X101798396Y-119427386D01*
X102074478Y-119840571D01*
X102487663Y-120116653D01*
X102975049Y-120213600D01*
X103024951Y-120213600D01*
X103512337Y-120116653D01*
X103925522Y-119840571D01*
X104171915Y-119471818D01*
X104262385Y-119690248D01*
X104646745Y-120122061D01*
X105167095Y-120373916D01*
X105396000Y-120260097D01*
X105396000Y-119084000D01*
X105376000Y-119084000D01*
X105376000Y-118796000D01*
X105396000Y-118796000D01*
X105396000Y-118776000D01*
X105684000Y-118776000D01*
X105684000Y-118796000D01*
X106859264Y-118796000D01*
X106973905Y-118567097D01*
X106973905Y-119312903D01*
X106859264Y-119084000D01*
X105684000Y-119084000D01*
X105684000Y-120260097D01*
X105912905Y-120373916D01*
X106433255Y-120122061D01*
X106817615Y-119690248D01*
X106973905Y-119312903D01*
X106973905Y-129540000D01*
X100460000Y-129540000D01*
X100460000Y-80460000D01*
X149540000Y-80460000D01*
X149540000Y-129540000D01*
M02*
