G04 #@! TF.FileFunction,Legend,Top*
%FSLAX46Y46*%
G04 Gerber Fmt 4.6, Leading zero omitted, Abs format (unit mm)*
G04 Created by KiCad (PCBNEW (2015-01-16 BZR 5376)-product) date 23/07/2015 11:54:15*
%MOMM*%
G01*
G04 APERTURE LIST*
%ADD10C,0.100000*%
%ADD11C,0.300000*%
%ADD12C,0.150000*%
G04 APERTURE END LIST*
D10*
D11*
X121857144Y-81178571D02*
X121571430Y-81178571D01*
X121428573Y-81250000D01*
X121357144Y-81321429D01*
X121214287Y-81535714D01*
X121142858Y-81821429D01*
X121142858Y-82392857D01*
X121214287Y-82535714D01*
X121285715Y-82607143D01*
X121428573Y-82678571D01*
X121714287Y-82678571D01*
X121857144Y-82607143D01*
X121928573Y-82535714D01*
X122000001Y-82392857D01*
X122000001Y-82035714D01*
X121928573Y-81892857D01*
X121857144Y-81821429D01*
X121714287Y-81750000D01*
X121428573Y-81750000D01*
X121285715Y-81821429D01*
X121214287Y-81892857D01*
X121142858Y-82035714D01*
X122642858Y-82107143D02*
X123785715Y-82107143D01*
X125285715Y-82678571D02*
X124428572Y-82678571D01*
X124857144Y-82678571D02*
X124857144Y-81178571D01*
X124714287Y-81392857D01*
X124571429Y-81535714D01*
X124428572Y-81607143D01*
X125857143Y-81321429D02*
X125928572Y-81250000D01*
X126071429Y-81178571D01*
X126428572Y-81178571D01*
X126571429Y-81250000D01*
X126642858Y-81321429D01*
X126714286Y-81464286D01*
X126714286Y-81607143D01*
X126642858Y-81821429D01*
X125785715Y-82678571D01*
X126714286Y-82678571D01*
X127142857Y-81178571D02*
X127642857Y-82678571D01*
X128142857Y-81178571D01*
X129785714Y-82678571D02*
X129785714Y-81178571D01*
X130357142Y-81178571D01*
X130500000Y-81250000D01*
X130571428Y-81321429D01*
X130642857Y-81464286D01*
X130642857Y-81678571D01*
X130571428Y-81821429D01*
X130500000Y-81892857D01*
X130357142Y-81964286D01*
X129785714Y-81964286D01*
X131142857Y-81178571D02*
X131500000Y-82678571D01*
X131785714Y-81607143D01*
X132071428Y-82678571D01*
X132428571Y-81178571D01*
X133857143Y-82678571D02*
X133357143Y-81964286D01*
X133000000Y-82678571D02*
X133000000Y-81178571D01*
X133571428Y-81178571D01*
X133714286Y-81250000D01*
X133785714Y-81321429D01*
X133857143Y-81464286D01*
X133857143Y-81678571D01*
X133785714Y-81821429D01*
X133714286Y-81892857D01*
X133571428Y-81964286D01*
X133000000Y-81964286D01*
X146428572Y-86607143D02*
X147571429Y-86607143D01*
X146428572Y-84107143D02*
X147571429Y-84107143D01*
X147000000Y-84678571D02*
X147000000Y-83535714D01*
X108214286Y-103478571D02*
X108214286Y-101978571D01*
X108785714Y-101978571D01*
X108928572Y-102050000D01*
X109000000Y-102121429D01*
X109071429Y-102264286D01*
X109071429Y-102478571D01*
X109000000Y-102621429D01*
X108928572Y-102692857D01*
X108785714Y-102764286D01*
X108214286Y-102764286D01*
X109928572Y-103478571D02*
X109785714Y-103407143D01*
X109714286Y-103335714D01*
X109642857Y-103192857D01*
X109642857Y-102764286D01*
X109714286Y-102621429D01*
X109785714Y-102550000D01*
X109928572Y-102478571D01*
X110142857Y-102478571D01*
X110285714Y-102550000D01*
X110357143Y-102621429D01*
X110428572Y-102764286D01*
X110428572Y-103192857D01*
X110357143Y-103335714D01*
X110285714Y-103407143D01*
X110142857Y-103478571D01*
X109928572Y-103478571D01*
X110928572Y-102478571D02*
X111214286Y-103478571D01*
X111500000Y-102764286D01*
X111785715Y-103478571D01*
X112071429Y-102478571D01*
X113214286Y-103407143D02*
X113071429Y-103478571D01*
X112785715Y-103478571D01*
X112642858Y-103407143D01*
X112571429Y-103264286D01*
X112571429Y-102692857D01*
X112642858Y-102550000D01*
X112785715Y-102478571D01*
X113071429Y-102478571D01*
X113214286Y-102550000D01*
X113285715Y-102692857D01*
X113285715Y-102835714D01*
X112571429Y-102978571D01*
X113928572Y-103478571D02*
X113928572Y-102478571D01*
X113928572Y-102764286D02*
X114000000Y-102621429D01*
X114071429Y-102550000D01*
X114214286Y-102478571D01*
X114357143Y-102478571D01*
X116500000Y-102692857D02*
X116714286Y-102764286D01*
X116785714Y-102835714D01*
X116857143Y-102978571D01*
X116857143Y-103192857D01*
X116785714Y-103335714D01*
X116714286Y-103407143D01*
X116571428Y-103478571D01*
X116000000Y-103478571D01*
X116000000Y-101978571D01*
X116500000Y-101978571D01*
X116642857Y-102050000D01*
X116714286Y-102121429D01*
X116785714Y-102264286D01*
X116785714Y-102407143D01*
X116714286Y-102550000D01*
X116642857Y-102621429D01*
X116500000Y-102692857D01*
X116000000Y-102692857D01*
X117714286Y-103478571D02*
X117571428Y-103407143D01*
X117500000Y-103335714D01*
X117428571Y-103192857D01*
X117428571Y-102764286D01*
X117500000Y-102621429D01*
X117571428Y-102550000D01*
X117714286Y-102478571D01*
X117928571Y-102478571D01*
X118071428Y-102550000D01*
X118142857Y-102621429D01*
X118214286Y-102764286D01*
X118214286Y-103192857D01*
X118142857Y-103335714D01*
X118071428Y-103407143D01*
X117928571Y-103478571D01*
X117714286Y-103478571D01*
X119500000Y-103478571D02*
X119500000Y-102692857D01*
X119428571Y-102550000D01*
X119285714Y-102478571D01*
X119000000Y-102478571D01*
X118857143Y-102550000D01*
X119500000Y-103407143D02*
X119357143Y-103478571D01*
X119000000Y-103478571D01*
X118857143Y-103407143D01*
X118785714Y-103264286D01*
X118785714Y-103121429D01*
X118857143Y-102978571D01*
X119000000Y-102907143D01*
X119357143Y-102907143D01*
X119500000Y-102835714D01*
X120214286Y-103478571D02*
X120214286Y-102478571D01*
X120214286Y-102764286D02*
X120285714Y-102621429D01*
X120357143Y-102550000D01*
X120500000Y-102478571D01*
X120642857Y-102478571D01*
X121785714Y-103478571D02*
X121785714Y-101978571D01*
X121785714Y-103407143D02*
X121642857Y-103478571D01*
X121357143Y-103478571D01*
X121214285Y-103407143D01*
X121142857Y-103335714D01*
X121071428Y-103192857D01*
X121071428Y-102764286D01*
X121142857Y-102621429D01*
X121214285Y-102550000D01*
X121357143Y-102478571D01*
X121642857Y-102478571D01*
X121785714Y-102550000D01*
X113035715Y-105878571D02*
X112535715Y-105164286D01*
X112178572Y-105878571D02*
X112178572Y-104378571D01*
X112750000Y-104378571D01*
X112892858Y-104450000D01*
X112964286Y-104521429D01*
X113035715Y-104664286D01*
X113035715Y-104878571D01*
X112964286Y-105021429D01*
X112892858Y-105092857D01*
X112750000Y-105164286D01*
X112178572Y-105164286D01*
X114250000Y-105807143D02*
X114107143Y-105878571D01*
X113821429Y-105878571D01*
X113678572Y-105807143D01*
X113607143Y-105664286D01*
X113607143Y-105092857D01*
X113678572Y-104950000D01*
X113821429Y-104878571D01*
X114107143Y-104878571D01*
X114250000Y-104950000D01*
X114321429Y-105092857D01*
X114321429Y-105235714D01*
X113607143Y-105378571D01*
X114821429Y-104878571D02*
X115178572Y-105878571D01*
X115535714Y-104878571D01*
X117178571Y-105450000D02*
X117892857Y-105450000D01*
X117035714Y-105878571D02*
X117535714Y-104378571D01*
X118035714Y-105878571D01*
X133607143Y-99428571D02*
X133607143Y-97928571D01*
X134178571Y-97928571D01*
X134321429Y-98000000D01*
X134392857Y-98071429D01*
X134464286Y-98214286D01*
X134464286Y-98428571D01*
X134392857Y-98571429D01*
X134321429Y-98642857D01*
X134178571Y-98714286D01*
X133607143Y-98714286D01*
D12*
X117110000Y-88505000D02*
X116410000Y-88505000D01*
X116410000Y-87305000D02*
X117110000Y-87305000D01*
X137350000Y-94250000D02*
X137350000Y-93250000D01*
X135650000Y-93250000D02*
X135650000Y-94250000D01*
X117325000Y-98950000D02*
X118325000Y-98950000D01*
X118325000Y-97250000D02*
X117325000Y-97250000D01*
X131750000Y-98525000D02*
X129750000Y-98525000D01*
X129750000Y-101475000D02*
X131750000Y-101475000D01*
X140059140Y-84279940D02*
X140059140Y-84630460D01*
X140059140Y-87780060D02*
X140059140Y-87429540D01*
X136009560Y-84279940D02*
X136009560Y-84630460D01*
X140510440Y-84279940D02*
X140510440Y-84630460D01*
X140510440Y-87780060D02*
X140510440Y-87429540D01*
X136009560Y-87780060D02*
X136009560Y-87429540D01*
X140510440Y-84279940D02*
X136009560Y-84279940D01*
X140510440Y-87780060D02*
X136009560Y-87780060D01*
X145380000Y-85175000D02*
X145380000Y-87715000D01*
X145660000Y-82355000D02*
X145660000Y-83905000D01*
X145380000Y-85175000D02*
X142840000Y-85175000D01*
X142560000Y-83905000D02*
X142560000Y-82355000D01*
X142560000Y-82355000D02*
X145660000Y-82355000D01*
X142840000Y-85175000D02*
X142840000Y-87715000D01*
X142840000Y-87715000D02*
X145380000Y-87715000D01*
X106810000Y-120210000D02*
X106810000Y-89730000D01*
X101730000Y-92270000D02*
X101730000Y-120210000D01*
X106810000Y-120210000D02*
X101730000Y-120210000D01*
X106810000Y-89730000D02*
X104270000Y-89730000D01*
X103000000Y-89450000D02*
X101450000Y-89450000D01*
X104270000Y-89730000D02*
X104270000Y-92270000D01*
X104270000Y-92270000D02*
X101730000Y-92270000D01*
X101450000Y-89450000D02*
X101450000Y-91000000D01*
X129000000Y-96575000D02*
X130000000Y-96575000D01*
X130000000Y-97925000D02*
X129000000Y-97925000D01*
X131750000Y-96575000D02*
X132750000Y-96575000D01*
X132750000Y-97925000D02*
X131750000Y-97925000D01*
X110100000Y-113875000D02*
X109100000Y-113875000D01*
X109100000Y-112525000D02*
X110100000Y-112525000D01*
X109100000Y-114425000D02*
X110100000Y-114425000D01*
X110100000Y-115775000D02*
X109100000Y-115775000D01*
X119625000Y-91100000D02*
X119480000Y-91100000D01*
X119625000Y-95250000D02*
X119480000Y-95250000D01*
X114475000Y-95250000D02*
X114620000Y-95250000D01*
X114475000Y-91100000D02*
X114620000Y-91100000D01*
X119625000Y-91100000D02*
X119625000Y-95250000D01*
X114475000Y-91100000D02*
X114475000Y-95250000D01*
X119480000Y-91100000D02*
X119480000Y-89700000D01*
X132675000Y-95425000D02*
X132675000Y-95175000D01*
X129325000Y-95425000D02*
X129325000Y-95175000D01*
X129325000Y-92075000D02*
X129325000Y-92325000D01*
X132675000Y-92075000D02*
X132675000Y-92325000D01*
X132675000Y-95425000D02*
X129325000Y-95425000D01*
X132675000Y-92075000D02*
X129325000Y-92075000D01*
X132675000Y-95175000D02*
X133925000Y-95175000D01*
X128912160Y-106404720D02*
X128912160Y-106729840D01*
X128912160Y-106729840D02*
X128411780Y-106729840D01*
X128411780Y-106404720D02*
X128411780Y-106729840D01*
X128912160Y-106404720D02*
X128411780Y-106404720D01*
X128912160Y-105782420D02*
X128912160Y-105932280D01*
X128912160Y-105932280D02*
X128660700Y-105932280D01*
X128660700Y-105782420D02*
X128660700Y-105932280D01*
X128912160Y-105782420D02*
X128660700Y-105782420D01*
X128912160Y-106277720D02*
X128912160Y-106427580D01*
X128912160Y-106427580D02*
X128660700Y-106427580D01*
X128660700Y-106277720D02*
X128660700Y-106427580D01*
X128912160Y-106277720D02*
X128660700Y-106277720D01*
X128912160Y-105906880D02*
X128912160Y-106303120D01*
X128912160Y-106303120D02*
X128736900Y-106303120D01*
X128736900Y-105906880D02*
X128736900Y-106303120D01*
X128912160Y-105906880D02*
X128736900Y-105906880D01*
X130408220Y-106404720D02*
X130408220Y-106729840D01*
X130408220Y-106729840D02*
X129907840Y-106729840D01*
X129907840Y-106404720D02*
X129907840Y-106729840D01*
X130408220Y-106404720D02*
X129907840Y-106404720D01*
X130408220Y-105480160D02*
X130408220Y-105805280D01*
X130408220Y-105805280D02*
X129907840Y-105805280D01*
X129907840Y-105480160D02*
X129907840Y-105805280D01*
X130408220Y-105480160D02*
X129907840Y-105480160D01*
X130159300Y-106277720D02*
X130159300Y-106427580D01*
X130159300Y-106427580D02*
X129907840Y-106427580D01*
X129907840Y-106277720D02*
X129907840Y-106427580D01*
X130159300Y-106277720D02*
X129907840Y-106277720D01*
X130159300Y-105782420D02*
X130159300Y-105932280D01*
X130159300Y-105932280D02*
X129907840Y-105932280D01*
X129907840Y-105782420D02*
X129907840Y-105932280D01*
X130159300Y-105782420D02*
X129907840Y-105782420D01*
X130083100Y-105906880D02*
X130083100Y-106303120D01*
X130083100Y-106303120D02*
X129907840Y-106303120D01*
X129907840Y-105906880D02*
X129907840Y-106303120D01*
X130083100Y-105906880D02*
X129907840Y-105906880D01*
X129410000Y-106005940D02*
X129410000Y-106204060D01*
X129410000Y-106204060D02*
X129211880Y-106204060D01*
X129211880Y-106005940D02*
X129211880Y-106204060D01*
X129410000Y-106005940D02*
X129211880Y-106005940D01*
X128912160Y-105505560D02*
X128912160Y-105805280D01*
X128912160Y-105805280D02*
X128612440Y-105805280D01*
X128612440Y-105505560D02*
X128612440Y-105805280D01*
X128912160Y-105505560D02*
X128612440Y-105505560D01*
X128485440Y-105480160D02*
X128485440Y-105706220D01*
X128485440Y-105706220D02*
X128411780Y-105706220D01*
X128411780Y-105480160D02*
X128411780Y-105706220D01*
X128485440Y-105480160D02*
X128411780Y-105480160D01*
X128886760Y-106679040D02*
X129933240Y-106679040D01*
X129907840Y-105530960D02*
X128485440Y-105530960D01*
X128633482Y-105655420D02*
G75*
G03X128633482Y-105655420I-71842J0D01*
G01*
X128411780Y-105757020D02*
G75*
G02X128411780Y-106452980I0J-347980D01*
G01*
X130408220Y-106452980D02*
G75*
G02X130408220Y-105757020I0J347980D01*
G01*
X125560000Y-103605000D02*
X125560000Y-102605000D01*
X126910000Y-102605000D02*
X126910000Y-103605000D01*
X148810000Y-120210000D02*
X148810000Y-89730000D01*
X143730000Y-92270000D02*
X143730000Y-120210000D01*
X148810000Y-120210000D02*
X143730000Y-120210000D01*
X148810000Y-89730000D02*
X146270000Y-89730000D01*
X145000000Y-89450000D02*
X143450000Y-89450000D01*
X146270000Y-89730000D02*
X146270000Y-92270000D01*
X146270000Y-92270000D02*
X143730000Y-92270000D01*
X143450000Y-89450000D02*
X143450000Y-91000000D01*
X120270000Y-125730000D02*
X138050000Y-125730000D01*
X138050000Y-125730000D02*
X138050000Y-128270000D01*
X138050000Y-128270000D02*
X120270000Y-128270000D01*
X117450000Y-125450000D02*
X119000000Y-125450000D01*
X120270000Y-125730000D02*
X120270000Y-128270000D01*
X119000000Y-128550000D02*
X117450000Y-128550000D01*
X117450000Y-128550000D02*
X117450000Y-125450000D01*
X140898095Y-83532381D02*
X140898095Y-82532381D01*
X141469524Y-83532381D02*
X141040952Y-82960952D01*
X141469524Y-82532381D02*
X140898095Y-83103810D01*
X135121905Y-83296667D02*
X135598096Y-83296667D01*
X135026667Y-83582381D02*
X135360000Y-82582381D01*
X135693334Y-83582381D01*
M02*
