M48
;DRILL file {kicad (2015-01-16 BZR 5376)-product} date 23/07/2015 11:54:17
;FORMAT={-:-/ absolute / inch / decimal}
FMAT,2
INCH,TZ
T1C0.012
T2C0.020
T3C0.040
T4C0.126
%
G90
G05
M72
T1
X4.687Y-3.9087
X4.748Y-3.3189
X4.8012Y-3.8319
X4.9232Y-3.4724
X4.9429Y-4.8524
X4.9606Y-3.8189
X5.315Y-3.7992
T2
X4.5132Y-3.4608
X4.5821Y-3.9333
X5.1854Y-3.6419
X5.2012Y-4.1626
X5.3222Y-3.8821
X5.3744Y-3.4992
X5.4295Y-3.6232
X5.4295Y-3.7364
T3
X4.0551Y-3.5827
X4.0551Y-3.6827
X4.0551Y-3.7827
X4.0551Y-3.8827
X4.0551Y-3.9827
X4.0551Y-4.0827
X4.0551Y-4.1827
X4.0551Y-4.2827
X4.0551Y-4.3827
X4.0551Y-4.4827
X4.0551Y-4.5827
X4.0551Y-4.6827
X4.1551Y-3.5827
X4.1551Y-3.6827
X4.1551Y-3.7827
X4.1551Y-3.8827
X4.1551Y-3.9827
X4.1551Y-4.0827
X4.1551Y-4.1827
X4.1551Y-4.2827
X4.1551Y-4.3827
X4.1551Y-4.4827
X4.1551Y-4.5827
X4.1551Y-4.6827
X4.685Y-5.
X4.785Y-5.
X4.885Y-5.
X4.985Y-5.
X5.085Y-5.
X5.185Y-5.
X5.285Y-5.
X5.385Y-5.
X5.6736Y-3.3033
X5.6736Y-3.4033
X5.7087Y-3.5827
X5.7087Y-3.6827
X5.7087Y-3.7827
X5.7087Y-3.8827
X5.7087Y-3.9827
X5.7087Y-4.0827
X5.7087Y-4.1827
X5.7087Y-4.2827
X5.7087Y-4.3827
X5.7087Y-4.4827
X5.7087Y-4.5827
X5.7087Y-4.6827
X5.8087Y-3.5827
X5.8087Y-3.6827
X5.8087Y-3.7827
X5.8087Y-3.8827
X5.8087Y-3.9827
X5.8087Y-4.0827
X5.8087Y-4.1827
X5.8087Y-4.2827
X5.8087Y-4.3827
X5.8087Y-4.4827
X5.8087Y-4.5827
X5.8087Y-4.6827
T4
X4.0945Y-3.3071
X4.0945Y-4.9606
T0
M30
