M48
;DRILL file {kicad (2015-01-16 BZR 5376)-product} date 23/07/2015 12:13:08
;FORMAT={-:-/ absolute / inch / decimal}
FMAT,2
INCH,TZ
T1C0.012
T2C0.020
T3C0.040
T4C0.126
%
G90
G05
M72
T1
X2.5817Y-4.0039
X2.7943Y-3.8199
X2.8356Y-4.003
X2.939Y-3.8209
X2.9685Y-2.8907
X2.9752Y-3.0531
X2.9793Y-3.9833
X2.9852Y-3.3386
X2.9941Y-4.0571
X3.0787Y-3.3701
X3.1122Y-2.75
X3.1211Y-4.0738
X3.1329Y-4.2402
X3.1654Y-2.7402
X3.248Y-3.4606
X3.2825Y-4.0364
X3.3268Y-3.4626
X3.3701Y-2.7372
X3.4075Y-3.3366
X3.4262Y-3.4646
X3.5256Y-3.4656
X3.5689Y-3.128
X3.689Y-3.2844
X3.7785Y-2.9232
X4.0492Y-2.5285
X4.0502Y-2.4518
T2
X2.7352Y-2.6959
X2.8081Y-3.3474
X2.8435Y-3.0689
X2.9193Y-2.6457
X2.9213Y-2.4764
X2.9213Y-2.5138
X2.9783Y-2.6457
X3.8317Y-2.7224
X4.0285Y-2.6329
T3
X2.4803Y-2.7953
X2.4803Y-2.8953
X2.4803Y-2.9953
X2.4803Y-3.0953
X2.4803Y-3.1953
X2.4803Y-3.2953
X2.4803Y-3.3953
X2.4803Y-3.4953
X2.4803Y-3.5953
X2.4803Y-3.6953
X2.4803Y-3.7953
X2.4803Y-3.8953
X2.5803Y-2.7953
X2.5803Y-2.8953
X2.5803Y-2.9953
X2.5803Y-3.0953
X2.5803Y-3.1953
X2.5803Y-3.2953
X2.5803Y-3.3953
X2.5803Y-3.4953
X2.5803Y-3.5953
X2.5803Y-3.6953
X2.5803Y-3.7953
X2.5803Y-3.8953
X2.902Y-3.7008
X3.002Y-3.7008
X3.2382Y-3.7008
X3.3382Y-3.7008
X3.4941Y-3.7008
X3.5941Y-3.7008
X3.6941Y-3.7008
X3.7941Y-3.7008
X3.8941Y-3.7008
X4.1339Y-2.6969
X4.1339Y-2.7969
X4.1339Y-2.8969
X4.1339Y-2.9969
X4.1339Y-3.0969
X4.1339Y-3.1969
X4.1339Y-3.2969
X4.1339Y-3.3969
X4.1339Y-3.4969
X4.1339Y-3.5969
X4.1339Y-3.6969
X4.1339Y-3.7969
X4.1339Y-3.8969
X4.1339Y-3.9969
X4.2339Y-2.6969
X4.2339Y-2.7969
X4.2339Y-2.8969
X4.2339Y-2.9969
X4.2339Y-3.0969
X4.2339Y-3.1969
X4.2339Y-3.2969
X4.2339Y-3.3969
X4.2339Y-3.4969
X4.2339Y-3.5969
X4.2339Y-3.6969
X4.2339Y-3.7969
X4.2339Y-3.8969
X4.2339Y-3.9969
T4
X2.5197Y-2.5197
X2.5197Y-4.1732
T0
M30
