G04 #@! TF.FileFunction,Legend,Top*
%FSLAX46Y46*%
G04 Gerber Fmt 4.6, Leading zero omitted, Abs format (unit mm)*
G04 Created by KiCad (PCBNEW (2015-01-16 BZR 5376)-product) date 23/07/2015 12:13:06*
%MOMM*%
G01*
G04 APERTURE LIST*
%ADD10C,0.100000*%
%ADD11C,0.300000*%
%ADD12C,0.150000*%
G04 APERTURE END LIST*
D10*
D11*
X92321429Y-104942857D02*
X91821429Y-104942857D01*
X91821429Y-105728571D02*
X91821429Y-104228571D01*
X92535715Y-104228571D01*
X93107143Y-105728571D02*
X93107143Y-104228571D01*
X93678571Y-104228571D01*
X93821429Y-104300000D01*
X93892857Y-104371429D01*
X93964286Y-104514286D01*
X93964286Y-104728571D01*
X93892857Y-104871429D01*
X93821429Y-104942857D01*
X93678571Y-105014286D01*
X93107143Y-105014286D01*
X95392857Y-104300000D02*
X95250000Y-104228571D01*
X95035714Y-104228571D01*
X94821429Y-104300000D01*
X94678571Y-104442857D01*
X94607143Y-104585714D01*
X94535714Y-104871429D01*
X94535714Y-105085714D01*
X94607143Y-105371429D01*
X94678571Y-105514286D01*
X94821429Y-105657143D01*
X95035714Y-105728571D01*
X95178571Y-105728571D01*
X95392857Y-105657143D01*
X95464286Y-105585714D01*
X95464286Y-105085714D01*
X95178571Y-105085714D01*
X96035714Y-105300000D02*
X96750000Y-105300000D01*
X95892857Y-105728571D02*
X96392857Y-104228571D01*
X96892857Y-105728571D01*
X99035714Y-104942857D02*
X99250000Y-105014286D01*
X99321428Y-105085714D01*
X99392857Y-105228571D01*
X99392857Y-105442857D01*
X99321428Y-105585714D01*
X99250000Y-105657143D01*
X99107142Y-105728571D01*
X98535714Y-105728571D01*
X98535714Y-104228571D01*
X99035714Y-104228571D01*
X99178571Y-104300000D01*
X99250000Y-104371429D01*
X99321428Y-104514286D01*
X99321428Y-104657143D01*
X99250000Y-104800000D01*
X99178571Y-104871429D01*
X99035714Y-104942857D01*
X98535714Y-104942857D01*
X100321428Y-104228571D02*
X100607142Y-104228571D01*
X100750000Y-104300000D01*
X100892857Y-104442857D01*
X100964285Y-104728571D01*
X100964285Y-105228571D01*
X100892857Y-105514286D01*
X100750000Y-105657143D01*
X100607142Y-105728571D01*
X100321428Y-105728571D01*
X100178571Y-105657143D01*
X100035714Y-105514286D01*
X99964285Y-105228571D01*
X99964285Y-104728571D01*
X100035714Y-104442857D01*
X100178571Y-104300000D01*
X100321428Y-104228571D01*
X101535714Y-105300000D02*
X102250000Y-105300000D01*
X101392857Y-105728571D02*
X101892857Y-104228571D01*
X102392857Y-105728571D01*
X103750000Y-105728571D02*
X103250000Y-105014286D01*
X102892857Y-105728571D02*
X102892857Y-104228571D01*
X103464285Y-104228571D01*
X103607143Y-104300000D01*
X103678571Y-104371429D01*
X103750000Y-104514286D01*
X103750000Y-104728571D01*
X103678571Y-104871429D01*
X103607143Y-104942857D01*
X103464285Y-105014286D01*
X102892857Y-105014286D01*
X104392857Y-105728571D02*
X104392857Y-104228571D01*
X104750000Y-104228571D01*
X104964285Y-104300000D01*
X105107143Y-104442857D01*
X105178571Y-104585714D01*
X105250000Y-104871429D01*
X105250000Y-105085714D01*
X105178571Y-105371429D01*
X105107143Y-105514286D01*
X104964285Y-105657143D01*
X104750000Y-105728571D01*
X104392857Y-105728571D01*
X96535715Y-108128571D02*
X96035715Y-107414286D01*
X95678572Y-108128571D02*
X95678572Y-106628571D01*
X96250000Y-106628571D01*
X96392858Y-106700000D01*
X96464286Y-106771429D01*
X96535715Y-106914286D01*
X96535715Y-107128571D01*
X96464286Y-107271429D01*
X96392858Y-107342857D01*
X96250000Y-107414286D01*
X95678572Y-107414286D01*
X97750000Y-108057143D02*
X97607143Y-108128571D01*
X97321429Y-108128571D01*
X97178572Y-108057143D01*
X97107143Y-107914286D01*
X97107143Y-107342857D01*
X97178572Y-107200000D01*
X97321429Y-107128571D01*
X97607143Y-107128571D01*
X97750000Y-107200000D01*
X97821429Y-107342857D01*
X97821429Y-107485714D01*
X97107143Y-107628571D01*
X98321429Y-107128571D02*
X98678572Y-108128571D01*
X99035714Y-107128571D01*
X100678571Y-107700000D02*
X101392857Y-107700000D01*
X100535714Y-108128571D02*
X101035714Y-106628571D01*
X101535714Y-108128571D01*
D12*
X92750000Y-88150000D02*
X91750000Y-88150000D01*
X91750000Y-89850000D02*
X92750000Y-89850000D01*
X75600000Y-75400000D02*
X75600000Y-76100000D01*
X74400000Y-76100000D02*
X74400000Y-75400000D01*
X82150000Y-67900000D02*
X82850000Y-67900000D01*
X82850000Y-69100000D02*
X82150000Y-69100000D01*
X90850000Y-69850000D02*
X90150000Y-69850000D01*
X90150000Y-68650000D02*
X90850000Y-68650000D01*
X74980000Y-95270000D02*
X72440000Y-95270000D01*
X77800000Y-95550000D02*
X76250000Y-95550000D01*
X74980000Y-95270000D02*
X74980000Y-92730000D01*
X76250000Y-92450000D02*
X77800000Y-92450000D01*
X77800000Y-92450000D02*
X77800000Y-95550000D01*
X74980000Y-92730000D02*
X72440000Y-92730000D01*
X72440000Y-92730000D02*
X72440000Y-95270000D01*
X108810000Y-102790000D02*
X108810000Y-67230000D01*
X103730000Y-69770000D02*
X103730000Y-102790000D01*
X108810000Y-102790000D02*
X103730000Y-102790000D01*
X108810000Y-67230000D02*
X106270000Y-67230000D01*
X105000000Y-66950000D02*
X103450000Y-66950000D01*
X106270000Y-67230000D02*
X106270000Y-69770000D01*
X106270000Y-69770000D02*
X103730000Y-69770000D01*
X103450000Y-66950000D02*
X103450000Y-68500000D01*
X88750000Y-95550000D02*
X87200000Y-95550000D01*
X87200000Y-95550000D02*
X87200000Y-92450000D01*
X87200000Y-92450000D02*
X88750000Y-92450000D01*
X90020000Y-92730000D02*
X100180000Y-92730000D01*
X100180000Y-92730000D02*
X100180000Y-95270000D01*
X100180000Y-95270000D02*
X90020000Y-95270000D01*
X90020000Y-92730000D02*
X90020000Y-95270000D01*
X83520000Y-92730000D02*
X86060000Y-92730000D01*
X80700000Y-92450000D02*
X82250000Y-92450000D01*
X83520000Y-92730000D02*
X83520000Y-95270000D01*
X82250000Y-95550000D02*
X80700000Y-95550000D01*
X80700000Y-95550000D02*
X80700000Y-92450000D01*
X83520000Y-95270000D02*
X86060000Y-95270000D01*
X86060000Y-95270000D02*
X86060000Y-92730000D01*
X80425000Y-97000000D02*
X80425000Y-98000000D01*
X79075000Y-98000000D02*
X79075000Y-97000000D01*
X71750000Y-89175000D02*
X70750000Y-89175000D01*
X70750000Y-87825000D02*
X71750000Y-87825000D01*
X79750000Y-69175000D02*
X78750000Y-69175000D01*
X78750000Y-67825000D02*
X79750000Y-67825000D01*
X75725000Y-82450000D02*
X75725000Y-83450000D01*
X74375000Y-83450000D02*
X74375000Y-82450000D01*
X91925000Y-86175000D02*
X91925000Y-85375000D01*
X77575000Y-86175000D02*
X77575000Y-85375000D01*
X77575000Y-71825000D02*
X77575000Y-72625000D01*
X91925000Y-71825000D02*
X91925000Y-72625000D01*
X91925000Y-86175000D02*
X91125000Y-86175000D01*
X91925000Y-71825000D02*
X91125000Y-71825000D01*
X77575000Y-71825000D02*
X78375000Y-71825000D01*
X77575000Y-86175000D02*
X78375000Y-86175000D01*
X91925000Y-85375000D02*
X93200000Y-85375000D01*
X66810000Y-100210000D02*
X66810000Y-69730000D01*
X61730000Y-72270000D02*
X61730000Y-100210000D01*
X66810000Y-100210000D02*
X61730000Y-100210000D01*
X66810000Y-69730000D02*
X64270000Y-69730000D01*
X63000000Y-69450000D02*
X61450000Y-69450000D01*
X64270000Y-69730000D02*
X64270000Y-72270000D01*
X64270000Y-72270000D02*
X61730000Y-72270000D01*
X61450000Y-69450000D02*
X61450000Y-71000000D01*
X76550000Y-96275000D02*
X77550000Y-96275000D01*
X77550000Y-97625000D02*
X76550000Y-97625000D01*
X81100000Y-101650000D02*
X81100000Y-102350000D01*
X79900000Y-102350000D02*
X79900000Y-101650000D01*
X84027160Y-109174720D02*
X84027160Y-109499840D01*
X84027160Y-109499840D02*
X83526780Y-109499840D01*
X83526780Y-109174720D02*
X83526780Y-109499840D01*
X84027160Y-109174720D02*
X83526780Y-109174720D01*
X84027160Y-108552420D02*
X84027160Y-108702280D01*
X84027160Y-108702280D02*
X83775700Y-108702280D01*
X83775700Y-108552420D02*
X83775700Y-108702280D01*
X84027160Y-108552420D02*
X83775700Y-108552420D01*
X84027160Y-109047720D02*
X84027160Y-109197580D01*
X84027160Y-109197580D02*
X83775700Y-109197580D01*
X83775700Y-109047720D02*
X83775700Y-109197580D01*
X84027160Y-109047720D02*
X83775700Y-109047720D01*
X84027160Y-108676880D02*
X84027160Y-109073120D01*
X84027160Y-109073120D02*
X83851900Y-109073120D01*
X83851900Y-108676880D02*
X83851900Y-109073120D01*
X84027160Y-108676880D02*
X83851900Y-108676880D01*
X85523220Y-109174720D02*
X85523220Y-109499840D01*
X85523220Y-109499840D02*
X85022840Y-109499840D01*
X85022840Y-109174720D02*
X85022840Y-109499840D01*
X85523220Y-109174720D02*
X85022840Y-109174720D01*
X85523220Y-108250160D02*
X85523220Y-108575280D01*
X85523220Y-108575280D02*
X85022840Y-108575280D01*
X85022840Y-108250160D02*
X85022840Y-108575280D01*
X85523220Y-108250160D02*
X85022840Y-108250160D01*
X85274300Y-109047720D02*
X85274300Y-109197580D01*
X85274300Y-109197580D02*
X85022840Y-109197580D01*
X85022840Y-109047720D02*
X85022840Y-109197580D01*
X85274300Y-109047720D02*
X85022840Y-109047720D01*
X85274300Y-108552420D02*
X85274300Y-108702280D01*
X85274300Y-108702280D02*
X85022840Y-108702280D01*
X85022840Y-108552420D02*
X85022840Y-108702280D01*
X85274300Y-108552420D02*
X85022840Y-108552420D01*
X85198100Y-108676880D02*
X85198100Y-109073120D01*
X85198100Y-109073120D02*
X85022840Y-109073120D01*
X85022840Y-108676880D02*
X85022840Y-109073120D01*
X85198100Y-108676880D02*
X85022840Y-108676880D01*
X84525000Y-108775940D02*
X84525000Y-108974060D01*
X84525000Y-108974060D02*
X84326880Y-108974060D01*
X84326880Y-108775940D02*
X84326880Y-108974060D01*
X84525000Y-108775940D02*
X84326880Y-108775940D01*
X84027160Y-108275560D02*
X84027160Y-108575280D01*
X84027160Y-108575280D02*
X83727440Y-108575280D01*
X83727440Y-108275560D02*
X83727440Y-108575280D01*
X84027160Y-108275560D02*
X83727440Y-108275560D01*
X83600440Y-108250160D02*
X83600440Y-108476220D01*
X83600440Y-108476220D02*
X83526780Y-108476220D01*
X83526780Y-108250160D02*
X83526780Y-108476220D01*
X83600440Y-108250160D02*
X83526780Y-108250160D01*
X84001760Y-109449040D02*
X85048240Y-109449040D01*
X85022840Y-108300960D02*
X83600440Y-108300960D01*
X83748482Y-108425420D02*
G75*
G03X83748482Y-108425420I-71842J0D01*
G01*
X83526780Y-108527020D02*
G75*
G02X83526780Y-109222980I0J-347980D01*
G01*
X85523220Y-109222980D02*
G75*
G02X85523220Y-108527020I0J347980D01*
G01*
X81675000Y-109550000D02*
X80675000Y-109550000D01*
X80675000Y-108200000D02*
X81675000Y-108200000D01*
X81825000Y-101250000D02*
X81825000Y-100250000D01*
X83175000Y-100250000D02*
X83175000Y-101250000D01*
X74075000Y-100325000D02*
X74075000Y-100575000D01*
X77425000Y-100325000D02*
X77425000Y-100575000D01*
X77425000Y-103675000D02*
X77425000Y-103425000D01*
X74075000Y-103675000D02*
X74075000Y-103425000D01*
X74075000Y-100325000D02*
X77425000Y-100325000D01*
X74075000Y-103675000D02*
X77425000Y-103675000D01*
X74075000Y-100575000D02*
X72825000Y-100575000D01*
M02*
