G04 #@! TF.FileFunction,Copper,L1,Top,Signal*
%FSLAX46Y46*%
G04 Gerber Fmt 4.6, Leading zero omitted, Abs format (unit mm)*
G04 Created by KiCad (PCBNEW (2015-01-16 BZR 5376)-product) date 23/07/2015 12:13:06*
%MOMM*%
G01*
G04 APERTURE LIST*
%ADD10C,0.100000*%
%ADD11R,1.000000X1.250000*%
%ADD12R,0.750000X0.800000*%
%ADD13R,0.800000X0.750000*%
%ADD14R,2.032000X2.032000*%
%ADD15O,2.032000X2.032000*%
%ADD16R,1.727200X1.727200*%
%ADD17O,1.727200X1.727200*%
%ADD18C,1.524000*%
%ADD19R,1.727200X2.032000*%
%ADD20O,1.727200X2.032000*%
%ADD21R,0.900000X0.500000*%
%ADD22R,0.500000X0.900000*%
%ADD23R,1.500000X0.300000*%
%ADD24R,0.300000X1.500000*%
%ADD25R,1.198880X1.198880*%
%ADD26R,1.450000X0.450000*%
%ADD27C,0.885000*%
%ADD28C,0.635000*%
%ADD29C,6.000000*%
%ADD30C,0.885000*%
%ADD31C,0.508000*%
%ADD32C,0.200000*%
%ADD33C,0.381000*%
%ADD34C,0.254000*%
%ADD35C,0.762000*%
%ADD36C,0.220000*%
G04 APERTURE END LIST*
D10*
D11*
X91250000Y-89000000D03*
X93250000Y-89000000D03*
D12*
X75000000Y-75000000D03*
X75000000Y-76500000D03*
D13*
X81750000Y-68500000D03*
X83250000Y-68500000D03*
X91250000Y-69250000D03*
X89750000Y-69250000D03*
D14*
X76250000Y-94000000D03*
D15*
X73710000Y-94000000D03*
D16*
X105000000Y-68500000D03*
D17*
X107540000Y-68500000D03*
X105000000Y-71040000D03*
X107540000Y-71040000D03*
X105000000Y-73580000D03*
X107540000Y-73580000D03*
X105000000Y-76120000D03*
X107540000Y-76120000D03*
X105000000Y-78660000D03*
X107540000Y-78660000D03*
X105000000Y-81200000D03*
X107540000Y-81200000D03*
X105000000Y-83740000D03*
X107540000Y-83740000D03*
X105000000Y-86280000D03*
X107540000Y-86280000D03*
X105000000Y-88820000D03*
X107540000Y-88820000D03*
X105000000Y-91360000D03*
X107540000Y-91360000D03*
X105000000Y-93900000D03*
X107540000Y-93900000D03*
X105000000Y-96440000D03*
X107540000Y-96440000D03*
X105000000Y-98980000D03*
X107540000Y-98980000D03*
X105000000Y-101520000D03*
X107540000Y-101520000D03*
D18*
X73750000Y-86500000D03*
X73750000Y-88500000D03*
D19*
X88750000Y-94000000D03*
D20*
X91290000Y-94000000D03*
X93830000Y-94000000D03*
X96370000Y-94000000D03*
X98910000Y-94000000D03*
D14*
X82250000Y-94000000D03*
D15*
X84790000Y-94000000D03*
D21*
X79750000Y-98250000D03*
X79750000Y-96750000D03*
D22*
X70500000Y-88500000D03*
X72000000Y-88500000D03*
X78500000Y-68500000D03*
X80000000Y-68500000D03*
D21*
X75050000Y-83700000D03*
X75050000Y-82200000D03*
D23*
X92450000Y-85000000D03*
X92450000Y-84500000D03*
X92450000Y-84000000D03*
X92450000Y-83500000D03*
X92450000Y-83000000D03*
X92450000Y-82500000D03*
X92450000Y-82000000D03*
X92450000Y-81500000D03*
X92450000Y-81000000D03*
X92450000Y-80500000D03*
X92450000Y-80000000D03*
X92450000Y-79500000D03*
X92450000Y-79000000D03*
X92450000Y-78500000D03*
X92450000Y-78000000D03*
X92450000Y-77500000D03*
X92450000Y-77000000D03*
X92450000Y-76500000D03*
X92450000Y-76000000D03*
X92450000Y-75500000D03*
X92450000Y-75000000D03*
X92450000Y-74500000D03*
X92450000Y-74000000D03*
X92450000Y-73500000D03*
X92450000Y-73000000D03*
D24*
X90750000Y-71300000D03*
X90250000Y-71300000D03*
X89750000Y-71300000D03*
X89250000Y-71300000D03*
X88750000Y-71300000D03*
X88250000Y-71300000D03*
X87750000Y-71300000D03*
X87250000Y-71300000D03*
X86750000Y-71300000D03*
X86250000Y-71300000D03*
X85750000Y-71300000D03*
X85250000Y-71300000D03*
X84750000Y-71300000D03*
X84250000Y-71300000D03*
X83750000Y-71300000D03*
X83250000Y-71300000D03*
X82750000Y-71300000D03*
X82250000Y-71300000D03*
X81750000Y-71300000D03*
X81250000Y-71300000D03*
X80750000Y-71300000D03*
X80250000Y-71300000D03*
X79750000Y-71300000D03*
X79250000Y-71300000D03*
X78750000Y-71300000D03*
D23*
X77050000Y-73000000D03*
X77050000Y-73500000D03*
X77050000Y-74000000D03*
X77050000Y-74500000D03*
X77050000Y-75000000D03*
X77050000Y-75500000D03*
X77050000Y-76000000D03*
X77050000Y-76500000D03*
X77050000Y-77000000D03*
X77050000Y-77500000D03*
X77050000Y-78000000D03*
X77050000Y-78500000D03*
X77050000Y-79000000D03*
X77050000Y-79500000D03*
X77050000Y-80000000D03*
X77050000Y-80500000D03*
X77050000Y-81000000D03*
X77050000Y-81500000D03*
X77050000Y-82000000D03*
X77050000Y-82500000D03*
X77050000Y-83000000D03*
X77050000Y-83500000D03*
X77050000Y-84000000D03*
X77050000Y-84500000D03*
X77050000Y-85000000D03*
D24*
X78750000Y-86700000D03*
X79250000Y-86700000D03*
X79750000Y-86700000D03*
X80250000Y-86700000D03*
X80750000Y-86700000D03*
X81250000Y-86700000D03*
X81750000Y-86700000D03*
X82250000Y-86700000D03*
X82750000Y-86700000D03*
X83250000Y-86700000D03*
X83750000Y-86700000D03*
X84250000Y-86700000D03*
X84750000Y-86700000D03*
X85250000Y-86700000D03*
X85750000Y-86700000D03*
X86250000Y-86700000D03*
X86750000Y-86700000D03*
X87250000Y-86700000D03*
X87750000Y-86700000D03*
X88250000Y-86700000D03*
X88750000Y-86700000D03*
X89250000Y-86700000D03*
X89750000Y-86700000D03*
X90250000Y-86700000D03*
X90750000Y-86700000D03*
D16*
X63000000Y-71000000D03*
D17*
X65540000Y-71000000D03*
X63000000Y-73540000D03*
X65540000Y-73540000D03*
X63000000Y-76080000D03*
X65540000Y-76080000D03*
X63000000Y-78620000D03*
X65540000Y-78620000D03*
X63000000Y-81160000D03*
X65540000Y-81160000D03*
X63000000Y-83700000D03*
X65540000Y-83700000D03*
X63000000Y-86240000D03*
X65540000Y-86240000D03*
X63000000Y-88780000D03*
X65540000Y-88780000D03*
X63000000Y-91320000D03*
X65540000Y-91320000D03*
X63000000Y-93860000D03*
X65540000Y-93860000D03*
X63000000Y-96400000D03*
X65540000Y-96400000D03*
X63000000Y-98940000D03*
X65540000Y-98940000D03*
D22*
X77800000Y-96950000D03*
X76300000Y-96950000D03*
D12*
X80500000Y-101250000D03*
X80500000Y-102750000D03*
D25*
X85574020Y-108875000D03*
X83475980Y-108875000D03*
D22*
X80425000Y-108875000D03*
X81925000Y-108875000D03*
D21*
X82500000Y-100000000D03*
X82500000Y-101500000D03*
D26*
X73550000Y-101025000D03*
X73550000Y-101675000D03*
X73550000Y-102325000D03*
X73550000Y-102975000D03*
X77950000Y-102975000D03*
X77950000Y-102325000D03*
X77950000Y-101675000D03*
X77950000Y-101025000D03*
D27*
X74200000Y-62900000D03*
X74200000Y-63850000D03*
X75650000Y-67200000D03*
X74150000Y-67200000D03*
D28*
X86550000Y-84750000D03*
X90650000Y-79450000D03*
D29*
X64000000Y-106000000D03*
X64000000Y-64000000D03*
D28*
X75400000Y-73425000D03*
X75570000Y-77550000D03*
X79050000Y-69850000D03*
X80400000Y-69600000D03*
X85600000Y-69525000D03*
X93700000Y-83425000D03*
X89550000Y-88025000D03*
X87025000Y-88000000D03*
X84500000Y-87950000D03*
X82500000Y-87900000D03*
X78200000Y-85600000D03*
X75825000Y-84800000D03*
X76050000Y-103050000D03*
X83375000Y-102525000D03*
X70975000Y-97025000D03*
X75675000Y-101175000D03*
X74650000Y-97050000D03*
D27*
X97325000Y-69150000D03*
D28*
X95975000Y-74250000D03*
D27*
X102325000Y-66875000D03*
X69475000Y-68475000D03*
X72225000Y-77950000D03*
X71325000Y-85025000D03*
D28*
X72025000Y-101675000D03*
X65575000Y-101700000D03*
X102850000Y-64225000D03*
X102875000Y-62275000D03*
X79275000Y-103475000D03*
X79575000Y-107700000D03*
D30*
X107540000Y-71040000D02*
X107540000Y-68500000D01*
X107540000Y-68500000D02*
X107540000Y-66490000D01*
X107540000Y-66490000D02*
X104300000Y-63250000D01*
X104300000Y-63250000D02*
X74550000Y-63250000D01*
X74550000Y-63250000D02*
X74200000Y-62900000D01*
X74200000Y-62900000D02*
X74200000Y-63850000D01*
X74300000Y-67200000D02*
X74150000Y-67200000D01*
X65540000Y-73540000D02*
X67810000Y-73540000D01*
D31*
X76850000Y-67000000D02*
X92400000Y-67000000D01*
X92400000Y-67000000D02*
X92950000Y-67550000D01*
X92950000Y-67550000D02*
X92950000Y-69750000D01*
D30*
X76650000Y-67200000D02*
X76850000Y-67000000D01*
X74300000Y-67200000D02*
X75650000Y-67200000D01*
X75650000Y-67200000D02*
X76650000Y-67200000D01*
X67810000Y-73540000D02*
X74150000Y-67200000D01*
D32*
X77800000Y-96950000D02*
X77800000Y-97950000D01*
X77800000Y-97950000D02*
X78100000Y-98250000D01*
X79750000Y-98250000D02*
X82250000Y-98250000D01*
D31*
X91250000Y-69250000D02*
X92450000Y-69250000D01*
X92450000Y-69250000D02*
X92950000Y-69750000D01*
D32*
X78750000Y-71300000D02*
X78750000Y-70850000D01*
X78750000Y-70850000D02*
X78275000Y-70375000D01*
X78275000Y-70375000D02*
X78275000Y-68725000D01*
X78275000Y-68725000D02*
X78500000Y-68500000D01*
X80750000Y-71300000D02*
X80750000Y-70175000D01*
X81750000Y-69175000D02*
X81750000Y-68500000D01*
X80750000Y-70175000D02*
X81750000Y-69175000D01*
X75000000Y-75000000D02*
X77050000Y-75000000D01*
D33*
X86550000Y-84750000D02*
X86550000Y-85000000D01*
X86550000Y-84750000D02*
X86550000Y-85000000D01*
D34*
X79750000Y-98250000D02*
X78100000Y-98250000D01*
X77750000Y-98250000D02*
X74000000Y-98250000D01*
X78100000Y-98250000D02*
X77750000Y-98250000D01*
X70600000Y-94850000D02*
X70600000Y-90050000D01*
X74000000Y-98250000D02*
X70600000Y-94850000D01*
X80750000Y-86700000D02*
X80750000Y-87600000D01*
X80750000Y-87600000D02*
X77850000Y-90500000D01*
X77850000Y-90500000D02*
X71050000Y-90500000D01*
X71050000Y-90500000D02*
X70600000Y-90050000D01*
X70500000Y-89950000D02*
X70500000Y-88500000D01*
X70600000Y-90050000D02*
X70500000Y-89950000D01*
X77050000Y-75000000D02*
X78150000Y-75000000D01*
X78150000Y-75000000D02*
X78500000Y-74650000D01*
X78750000Y-71300000D02*
X78750000Y-72250000D01*
X78750000Y-72250000D02*
X79500000Y-73000000D01*
X80750000Y-71300000D02*
X80750000Y-73000000D01*
X80750000Y-73000000D02*
X80750000Y-72750000D01*
X80750000Y-72750000D02*
X80750000Y-73000000D01*
X92450000Y-74000000D02*
X91100000Y-74000000D01*
X91100000Y-74000000D02*
X90650000Y-73550000D01*
X90750000Y-71300000D02*
X90750000Y-72200000D01*
X90750000Y-72200000D02*
X91150000Y-72600000D01*
X92450000Y-80000000D02*
X90650000Y-80000000D01*
X90650000Y-80000000D02*
X90800000Y-80000000D01*
X90800000Y-80000000D02*
X90650000Y-80000000D01*
X92450000Y-83000000D02*
X91050000Y-83000000D01*
X91050000Y-83000000D02*
X90650000Y-83400000D01*
X87250000Y-86700000D02*
X87250000Y-85000000D01*
X87250000Y-85000000D02*
X87250000Y-85150000D01*
X87250000Y-85150000D02*
X87250000Y-85000000D01*
X90750000Y-86700000D02*
X90750000Y-88500000D01*
X90750000Y-88500000D02*
X91250000Y-89000000D01*
X90750000Y-86700000D02*
X90750000Y-84800000D01*
X90750000Y-84800000D02*
X90650000Y-84700000D01*
X80750000Y-86700000D02*
X80750000Y-85350000D01*
X80750000Y-85350000D02*
X80400000Y-85000000D01*
X78500000Y-84000000D02*
X77050000Y-84000000D01*
D31*
X90650000Y-73100000D02*
X90650000Y-73550000D01*
X90650000Y-73550000D02*
X90650000Y-79450000D01*
X90650000Y-79450000D02*
X90650000Y-80000000D01*
X90650000Y-80000000D02*
X90650000Y-83400000D01*
X90650000Y-83400000D02*
X90650000Y-84700000D01*
X90750000Y-73000000D02*
X90650000Y-73100000D01*
X92950000Y-69750000D02*
X92950000Y-70800000D01*
X92950000Y-70800000D02*
X91150000Y-72600000D01*
X91150000Y-72600000D02*
X90750000Y-73000000D01*
X79500000Y-73000000D02*
X80750000Y-73000000D01*
X80750000Y-73000000D02*
X90750000Y-73000000D01*
X78500000Y-74000000D02*
X79500000Y-73000000D01*
X78500000Y-84700000D02*
X78500000Y-84000000D01*
X78500000Y-84000000D02*
X78500000Y-74650000D01*
X78500000Y-74650000D02*
X78500000Y-74000000D01*
X78800000Y-85000000D02*
X78500000Y-84700000D01*
X90350000Y-85000000D02*
X87250000Y-85000000D01*
X87250000Y-85000000D02*
X86550000Y-85000000D01*
X86550000Y-85000000D02*
X80400000Y-85000000D01*
X80400000Y-85000000D02*
X78800000Y-85000000D01*
X90650000Y-84700000D02*
X90350000Y-85000000D01*
D30*
X63000000Y-73540000D02*
X65540000Y-73540000D01*
X104200000Y-63150000D02*
X104300000Y-63250000D01*
D32*
X77950000Y-98250000D02*
X77750000Y-98250000D01*
X77950000Y-101025000D02*
X77950000Y-98250000D01*
X82500000Y-98500000D02*
X82250000Y-98250000D01*
X82500000Y-100000000D02*
X82500000Y-98500000D01*
X75500000Y-102325000D02*
X76800000Y-101025000D01*
X76800000Y-101025000D02*
X77950000Y-101025000D01*
X73550000Y-102325000D02*
X75500000Y-102325000D01*
X75650000Y-73550000D02*
X75525000Y-73550000D01*
X75400000Y-73425000D02*
X75525000Y-73550000D01*
X76040000Y-77550000D02*
X75570000Y-77550000D01*
X75570000Y-77550000D02*
X75560000Y-77540000D01*
X77050000Y-78500000D02*
X76070000Y-78500000D01*
X76040000Y-78470000D02*
X76040000Y-77860000D01*
X76070000Y-78500000D02*
X76040000Y-78470000D01*
X77050000Y-78000000D02*
X76180000Y-78000000D01*
X76040000Y-77860000D02*
X76040000Y-77550000D01*
X76040000Y-77550000D02*
X76040000Y-77440000D01*
X76180000Y-78000000D02*
X76040000Y-77860000D01*
X77050000Y-77500000D02*
X76100000Y-77500000D01*
X76040000Y-77440000D02*
X76040000Y-76970000D01*
X76100000Y-77500000D02*
X76040000Y-77440000D01*
X77050000Y-77000000D02*
X76070000Y-77000000D01*
X76040000Y-76970000D02*
X76040000Y-76190000D01*
X76070000Y-77000000D02*
X76040000Y-76970000D01*
X77050000Y-76500000D02*
X76350000Y-76500000D01*
X76350000Y-76500000D02*
X76040000Y-76190000D01*
X76040000Y-76190000D02*
X76040000Y-76000000D01*
X77050000Y-76000000D02*
X76040000Y-76000000D01*
X76040000Y-76000000D02*
X75790000Y-75750000D01*
X75000000Y-76500000D02*
X75040000Y-76500000D01*
X75040000Y-76500000D02*
X75790000Y-75750000D01*
X75790000Y-75750000D02*
X75960000Y-75580000D01*
X75960000Y-75580000D02*
X76970000Y-75580000D01*
X76970000Y-75580000D02*
X77050000Y-75500000D01*
X77050000Y-74000000D02*
X75650000Y-74000000D01*
X75575000Y-73800000D02*
X75650000Y-73800000D01*
X75575000Y-73925000D02*
X75575000Y-73800000D01*
X75650000Y-74000000D02*
X75575000Y-73925000D01*
X77050000Y-73500000D02*
X75700000Y-73500000D01*
X75700000Y-73500000D02*
X75650000Y-73550000D01*
X77050000Y-74500000D02*
X76000000Y-74500000D01*
X76200000Y-73000000D02*
X77050000Y-73000000D01*
X75650000Y-73550000D02*
X76200000Y-73000000D01*
X75650000Y-74150000D02*
X75650000Y-73800000D01*
X75650000Y-73800000D02*
X75650000Y-73550000D01*
X76000000Y-74500000D02*
X75650000Y-74150000D01*
X79050000Y-69850000D02*
X79250000Y-70050000D01*
X79250000Y-70300000D02*
X79250000Y-71300000D01*
X79250000Y-70300000D02*
X79250000Y-70050000D01*
X80400000Y-69600000D02*
X80250000Y-69750000D01*
X80250000Y-69750000D02*
X80250000Y-70050000D01*
X85600000Y-70200000D02*
X85600000Y-69525000D01*
X85600000Y-69525000D02*
X85625000Y-69500000D01*
X83250000Y-68500000D02*
X83250000Y-69700000D01*
X83250000Y-69700000D02*
X83625000Y-70075000D01*
X89750000Y-70125000D02*
X89750000Y-69250000D01*
X80250000Y-71300000D02*
X80250000Y-70050000D01*
X80250000Y-70050000D02*
X80275000Y-70075000D01*
X82250000Y-71300000D02*
X82250000Y-70475000D01*
X82250000Y-70475000D02*
X81850000Y-70075000D01*
X81750000Y-71300000D02*
X81750000Y-70350000D01*
X81750000Y-70350000D02*
X81475000Y-70075000D01*
X82750000Y-71300000D02*
X82750000Y-70450000D01*
X82750000Y-70450000D02*
X82375000Y-70075000D01*
X83250000Y-71300000D02*
X83250000Y-70425000D01*
X83250000Y-70425000D02*
X82900000Y-70075000D01*
X83750000Y-71300000D02*
X83750000Y-70425000D01*
X83750000Y-70425000D02*
X83400000Y-70075000D01*
X84250000Y-71300000D02*
X84250000Y-70450000D01*
X84250000Y-70450000D02*
X83875000Y-70075000D01*
X84750000Y-71300000D02*
X84750000Y-70350000D01*
X84750000Y-70350000D02*
X84475000Y-70075000D01*
X85250000Y-71300000D02*
X85250000Y-70475000D01*
X85250000Y-70475000D02*
X84850000Y-70075000D01*
X85750000Y-71300000D02*
X85750000Y-70350000D01*
X85750000Y-70350000D02*
X85600000Y-70200000D01*
X85600000Y-70200000D02*
X85475000Y-70075000D01*
X86250000Y-71300000D02*
X86250000Y-70425000D01*
X86250000Y-70425000D02*
X85900000Y-70075000D01*
X86750000Y-71300000D02*
X86750000Y-70250000D01*
X86750000Y-70250000D02*
X86575000Y-70075000D01*
X87250000Y-71300000D02*
X87250000Y-70200000D01*
X87250000Y-70200000D02*
X87125000Y-70075000D01*
X87750000Y-71300000D02*
X87750000Y-70300000D01*
X87750000Y-70300000D02*
X87525000Y-70075000D01*
X88250000Y-71300000D02*
X88250000Y-70125000D01*
X88250000Y-70125000D02*
X88200000Y-70075000D01*
X88750000Y-71300000D02*
X88750000Y-70325000D01*
X88750000Y-70325000D02*
X88500000Y-70075000D01*
X89250000Y-71300000D02*
X89250000Y-70250000D01*
X89250000Y-70250000D02*
X89075000Y-70075000D01*
X89750000Y-71300000D02*
X89750000Y-70125000D01*
X89750000Y-70125000D02*
X89750000Y-70075000D01*
X89750000Y-70075000D02*
X89750000Y-70175000D01*
X89750000Y-70175000D02*
X89750000Y-70075000D01*
X81250000Y-71300000D02*
X81250000Y-70300000D01*
X90250000Y-70250000D02*
X90250000Y-71300000D01*
X90075000Y-70075000D02*
X90250000Y-70250000D01*
X81475000Y-70075000D02*
X81850000Y-70075000D01*
X81850000Y-70075000D02*
X82375000Y-70075000D01*
X82375000Y-70075000D02*
X82900000Y-70075000D01*
X82900000Y-70075000D02*
X83400000Y-70075000D01*
X83400000Y-70075000D02*
X83625000Y-70075000D01*
X83625000Y-70075000D02*
X83875000Y-70075000D01*
X83875000Y-70075000D02*
X84475000Y-70075000D01*
X84475000Y-70075000D02*
X84850000Y-70075000D01*
X84850000Y-70075000D02*
X85475000Y-70075000D01*
X85475000Y-70075000D02*
X85900000Y-70075000D01*
X85900000Y-70075000D02*
X86575000Y-70075000D01*
X86575000Y-70075000D02*
X87125000Y-70075000D01*
X87125000Y-70075000D02*
X87525000Y-70075000D01*
X87525000Y-70075000D02*
X88200000Y-70075000D01*
X88200000Y-70075000D02*
X88500000Y-70075000D01*
X88500000Y-70075000D02*
X89075000Y-70075000D01*
X89075000Y-70075000D02*
X89750000Y-70075000D01*
X89750000Y-70075000D02*
X90075000Y-70075000D01*
X81250000Y-70300000D02*
X81475000Y-70075000D01*
X92450000Y-83500000D02*
X93625000Y-83500000D01*
X93700000Y-83425000D02*
X93600000Y-83425000D01*
X93600000Y-83525000D02*
X93700000Y-83425000D01*
X93625000Y-83500000D02*
X93600000Y-83525000D01*
X92450000Y-84500000D02*
X93375000Y-84500000D01*
X93375000Y-84500000D02*
X93600000Y-84275000D01*
X92450000Y-84000000D02*
X93450000Y-84000000D01*
X93450000Y-84000000D02*
X93600000Y-83850000D01*
X92450000Y-82500000D02*
X93500000Y-82500000D01*
X93425000Y-85000000D02*
X92450000Y-85000000D01*
X93600000Y-84825000D02*
X93425000Y-85000000D01*
X93600000Y-82600000D02*
X93600000Y-83425000D01*
X93600000Y-83425000D02*
X93600000Y-83850000D01*
X93600000Y-83850000D02*
X93600000Y-84275000D01*
X93600000Y-84275000D02*
X93600000Y-84525000D01*
X93600000Y-84525000D02*
X93600000Y-84825000D01*
X93500000Y-82500000D02*
X93600000Y-82600000D01*
X89750000Y-86700000D02*
X89750000Y-87825000D01*
X89750000Y-87825000D02*
X89550000Y-88025000D01*
X89250000Y-86700000D02*
X89250000Y-87900000D01*
X89250000Y-87900000D02*
X89375000Y-88025000D01*
X88750000Y-87950000D02*
X88775000Y-87950000D01*
X90250000Y-88025000D02*
X89550000Y-88025000D01*
X89550000Y-88025000D02*
X89375000Y-88025000D01*
X88750000Y-86700000D02*
X88750000Y-87950000D01*
X90250000Y-88025000D02*
X90250000Y-86700000D01*
X88850000Y-88025000D02*
X89375000Y-88025000D01*
X88775000Y-87950000D02*
X88850000Y-88025000D01*
X87025000Y-88000000D02*
X86925000Y-88000000D01*
X86750000Y-87825000D02*
X86925000Y-88000000D01*
X86925000Y-88000000D02*
X87025000Y-88000000D01*
X86750000Y-86700000D02*
X86750000Y-87825000D01*
X84250000Y-86700000D02*
X84250000Y-87950000D01*
X84775000Y-87875000D02*
X84775000Y-86725000D01*
X84700000Y-87950000D02*
X84775000Y-87875000D01*
X84250000Y-87950000D02*
X84500000Y-87950000D01*
X84500000Y-87950000D02*
X84700000Y-87950000D01*
X84775000Y-86725000D02*
X84750000Y-86700000D01*
X82250000Y-86700000D02*
X82250000Y-87875000D01*
X82750000Y-87825000D02*
X82750000Y-86700000D01*
X82675000Y-87900000D02*
X82750000Y-87825000D01*
X82275000Y-87900000D02*
X82500000Y-87900000D01*
X82500000Y-87900000D02*
X82525000Y-87900000D01*
X82525000Y-87900000D02*
X82675000Y-87900000D01*
X82250000Y-87875000D02*
X82275000Y-87900000D01*
X79850000Y-85600000D02*
X78200000Y-85600000D01*
X78200000Y-85600000D02*
X76625000Y-85600000D01*
X76025000Y-85000000D02*
X75825000Y-84800000D01*
X77050000Y-85000000D02*
X76025000Y-85000000D01*
X75825000Y-84800000D02*
X75825000Y-84350000D01*
X76625000Y-85600000D02*
X75825000Y-84800000D01*
X79750000Y-86700000D02*
X79750000Y-85700000D01*
X80250000Y-85675000D02*
X80250000Y-86700000D01*
X80175000Y-85600000D02*
X80250000Y-85675000D01*
X79850000Y-85600000D02*
X80175000Y-85600000D01*
X79750000Y-85700000D02*
X79850000Y-85600000D01*
X77050000Y-84500000D02*
X75975000Y-84500000D01*
X75825000Y-84350000D02*
X75825000Y-83500000D01*
X75975000Y-84500000D02*
X75825000Y-84350000D01*
X77050000Y-83500000D02*
X75825000Y-83500000D01*
X75825000Y-83500000D02*
X75750000Y-83500000D01*
X75700000Y-83500000D02*
X75700000Y-83550000D01*
X75750000Y-83500000D02*
X75700000Y-83500000D01*
X77050000Y-83000000D02*
X76250000Y-83000000D01*
X75550000Y-83700000D02*
X75050000Y-83700000D01*
X76250000Y-83000000D02*
X75700000Y-83550000D01*
X75700000Y-83550000D02*
X75550000Y-83700000D01*
X75975000Y-102975000D02*
X76050000Y-103050000D01*
X75975000Y-102975000D02*
X73550000Y-102975000D01*
X75675000Y-100200000D02*
X74275000Y-98800000D01*
X74275000Y-98800000D02*
X72750000Y-98800000D01*
X72750000Y-98800000D02*
X70975000Y-97025000D01*
X75675000Y-101175000D02*
X75675000Y-100200000D01*
X95725000Y-74500000D02*
X92450000Y-74500000D01*
X95975000Y-74250000D02*
X95725000Y-74500000D01*
D30*
X105000000Y-71040000D02*
X103390000Y-71040000D01*
X96275000Y-65375000D02*
X69750000Y-65375000D01*
X99075000Y-65375000D02*
X96275000Y-65375000D01*
X100950000Y-67250000D02*
X99075000Y-65375000D01*
X100950000Y-68600000D02*
X100950000Y-67250000D01*
X103390000Y-71040000D02*
X100950000Y-68600000D01*
D35*
X63000000Y-71000000D02*
X63000000Y-69775000D01*
X67125000Y-68000000D02*
X69750000Y-65375000D01*
X64775000Y-68000000D02*
X67125000Y-68000000D01*
X63000000Y-69775000D02*
X64775000Y-68000000D01*
D30*
X69350000Y-65375000D02*
X69750000Y-65375000D01*
D32*
X92450000Y-73000000D02*
X104420000Y-73000000D01*
X104420000Y-73000000D02*
X105000000Y-73580000D01*
X102475000Y-73500000D02*
X103450000Y-73500000D01*
X106295000Y-74825000D02*
X107540000Y-73580000D01*
X104275000Y-74825000D02*
X106295000Y-74825000D01*
X103850000Y-74400000D02*
X104275000Y-74825000D01*
X103850000Y-73900000D02*
X103850000Y-74400000D01*
X103450000Y-73500000D02*
X103850000Y-73900000D01*
X102375000Y-73500000D02*
X102475000Y-73500000D01*
X102475000Y-73500000D02*
X102650000Y-73500000D01*
X102450000Y-73500000D02*
X102375000Y-73500000D01*
X102375000Y-73500000D02*
X92450000Y-73500000D01*
X102175000Y-75000000D02*
X103880000Y-75000000D01*
X103880000Y-75000000D02*
X105000000Y-76120000D01*
X92450000Y-75000000D02*
X102175000Y-75000000D01*
X102175000Y-75000000D02*
X102200000Y-75000000D01*
X101675000Y-75500000D02*
X102225000Y-75500000D01*
X106310000Y-77350000D02*
X107540000Y-76120000D01*
X104075000Y-77350000D02*
X106310000Y-77350000D01*
X102225000Y-75500000D02*
X104075000Y-77350000D01*
X92450000Y-75500000D02*
X101675000Y-75500000D01*
X101675000Y-75500000D02*
X101800000Y-75500000D01*
X101125000Y-76000000D02*
X102025000Y-76000000D01*
X102025000Y-76000000D02*
X104685000Y-78660000D01*
X104685000Y-78660000D02*
X105000000Y-78660000D01*
X92450000Y-76000000D02*
X101125000Y-76000000D01*
X101125000Y-76000000D02*
X101150000Y-76000000D01*
X100525000Y-76500000D02*
X101875000Y-76500000D01*
X106350000Y-79850000D02*
X107540000Y-78660000D01*
X104475000Y-79850000D02*
X106350000Y-79850000D01*
X103775000Y-79150000D02*
X104475000Y-79850000D01*
X103775000Y-78400000D02*
X103775000Y-79150000D01*
X101875000Y-76500000D02*
X103775000Y-78400000D01*
X92450000Y-76500000D02*
X100525000Y-76500000D01*
X100525000Y-76500000D02*
X100550000Y-76500000D01*
X100150000Y-77000000D02*
X101650000Y-77000000D01*
X103000000Y-79200000D02*
X105000000Y-81200000D01*
X103000000Y-78350000D02*
X103000000Y-79200000D01*
X101650000Y-77000000D02*
X103000000Y-78350000D01*
X92450000Y-77000000D02*
X100150000Y-77000000D01*
X100150000Y-77000000D02*
X100300000Y-77000000D01*
X99600000Y-77500000D02*
X101375000Y-77500000D01*
X106315000Y-82425000D02*
X107540000Y-81200000D01*
X103800000Y-82425000D02*
X106315000Y-82425000D01*
X102500000Y-81125000D02*
X103800000Y-82425000D01*
X102500000Y-78625000D02*
X102500000Y-81125000D01*
X101375000Y-77500000D02*
X102500000Y-78625000D01*
X92450000Y-77500000D02*
X99600000Y-77500000D01*
X99600000Y-77500000D02*
X99850000Y-77500000D01*
X99250000Y-78000000D02*
X101125000Y-78000000D01*
X106305000Y-84975000D02*
X107540000Y-83740000D01*
X102850000Y-84975000D02*
X106305000Y-84975000D01*
X102099998Y-84224998D02*
X102850000Y-84975000D01*
X102099998Y-78974998D02*
X102099998Y-84224998D01*
X101125000Y-78000000D02*
X102099998Y-78974998D01*
X92450000Y-78000000D02*
X99250000Y-78000000D01*
X99250000Y-78000000D02*
X99350000Y-78000000D01*
X105000000Y-86280000D02*
X102455000Y-86280000D01*
X98950000Y-78500000D02*
X92450000Y-78500000D01*
X100875000Y-78500000D02*
X98950000Y-78500000D01*
X101600000Y-79225000D02*
X100875000Y-78500000D01*
X101600000Y-85425000D02*
X101600000Y-79225000D01*
X102455000Y-86280000D02*
X101600000Y-85425000D01*
X98650000Y-79000000D02*
X100475000Y-79000000D01*
X106295000Y-87525000D02*
X107540000Y-86280000D01*
X102200000Y-87525000D02*
X106295000Y-87525000D01*
X101125000Y-86450000D02*
X102200000Y-87525000D01*
X101125000Y-79650000D02*
X101125000Y-86450000D01*
X100475000Y-79000000D02*
X101125000Y-79650000D01*
X92450000Y-79000000D02*
X98650000Y-79000000D01*
X98650000Y-79000000D02*
X98850000Y-79000000D01*
X98600000Y-79500000D02*
X100400000Y-79500000D01*
X102795000Y-88820000D02*
X105000000Y-88820000D01*
X100700000Y-86725000D02*
X102795000Y-88820000D01*
X100700000Y-79800000D02*
X100700000Y-86725000D01*
X100400000Y-79500000D02*
X100700000Y-79800000D01*
X98650000Y-79500000D02*
X98600000Y-79500000D01*
X98600000Y-79500000D02*
X92450000Y-79500000D01*
X107540000Y-88820000D02*
X107540000Y-89110000D01*
X107540000Y-89110000D02*
X106600000Y-90050000D01*
X106600000Y-90050000D02*
X103275000Y-90050000D01*
X103275000Y-90050000D02*
X100275000Y-87050000D01*
X100275000Y-87050000D02*
X100275000Y-81299998D01*
X100275000Y-81299998D02*
X99475002Y-80500000D01*
X99475002Y-80500000D02*
X98999998Y-80500000D01*
X92450000Y-80500000D02*
X98999998Y-80500000D01*
X99825000Y-83025000D02*
X99825000Y-88750000D01*
X102435000Y-91360000D02*
X100225000Y-89150000D01*
X105000000Y-91360000D02*
X102435000Y-91360000D01*
X99374998Y-81000000D02*
X99825000Y-81450002D01*
X99825000Y-81450002D02*
X99825000Y-83025000D01*
X99374998Y-81000000D02*
X98525000Y-81000000D01*
X99825000Y-88750000D02*
X100225000Y-89150000D01*
X92450000Y-81000000D02*
X98525000Y-81000000D01*
X98525000Y-81000000D02*
X98550000Y-81000000D01*
X107540000Y-91360000D02*
X107540000Y-91435000D01*
X107540000Y-91435000D02*
X106325000Y-92650000D01*
X106325000Y-92650000D02*
X102750000Y-92650000D01*
X102750000Y-92650000D02*
X99325000Y-89225000D01*
X99325000Y-89225000D02*
X99325000Y-82150000D01*
X99325000Y-82150000D02*
X98675000Y-81500000D01*
X98675000Y-81500000D02*
X98484312Y-81500000D01*
X92450000Y-81500000D02*
X98484312Y-81500000D01*
X98350000Y-82000000D02*
X98425000Y-82000000D01*
X92450000Y-82000000D02*
X98350000Y-82000000D01*
X103300000Y-93900000D02*
X105000000Y-93900000D01*
X98800000Y-89400000D02*
X103300000Y-93900000D01*
X98800000Y-82375000D02*
X98800000Y-89400000D01*
X98425000Y-82000000D02*
X98800000Y-82375000D01*
X102850000Y-95075000D02*
X106365000Y-95075000D01*
X106365000Y-95075000D02*
X107540000Y-93900000D01*
X101275000Y-99025000D02*
X101275000Y-96650000D01*
X101275000Y-96650000D02*
X102850000Y-95075000D01*
X69500000Y-90250000D02*
X69500000Y-86950000D01*
X64290000Y-84950000D02*
X63000000Y-86240000D01*
X67500000Y-84950000D02*
X64290000Y-84950000D01*
X69500000Y-86950000D02*
X67500000Y-84950000D01*
X101275000Y-99000000D02*
X101275000Y-99025000D01*
X69500000Y-90250000D02*
X69500000Y-90175000D01*
X69500000Y-102300000D02*
X71450000Y-104250000D01*
X71450000Y-104250000D02*
X76975000Y-104250000D01*
X101275000Y-101550000D02*
X101275000Y-103050000D01*
X101275000Y-101550000D02*
X101275000Y-99025000D01*
X100075000Y-104250000D02*
X76975000Y-104250000D01*
X101275000Y-103050000D02*
X100075000Y-104250000D01*
X69500000Y-90250000D02*
X69500000Y-99500000D01*
X69500000Y-99500000D02*
X69500000Y-102300000D01*
X101750000Y-100225000D02*
X101750000Y-98050000D01*
X103360000Y-96440000D02*
X105000000Y-96440000D01*
X101750000Y-98050000D02*
X103360000Y-96440000D01*
X68950000Y-91800000D02*
X68950000Y-88450000D01*
X66740000Y-86240000D02*
X65540000Y-86240000D01*
X68950000Y-88450000D02*
X66740000Y-86240000D01*
X68950000Y-91725000D02*
X68950000Y-91800000D01*
X68950000Y-99600000D02*
X68950000Y-99725000D01*
X68950000Y-91800000D02*
X68950000Y-99600000D01*
X101750000Y-100225000D02*
X101750000Y-100190000D01*
X100500000Y-104825000D02*
X101750000Y-103575000D01*
X101750000Y-103575000D02*
X101750000Y-101775000D01*
X68950000Y-102450000D02*
X68950000Y-99600000D01*
X71325000Y-104825000D02*
X74100000Y-104825000D01*
X68950000Y-102450000D02*
X71325000Y-104825000D01*
X101750000Y-100225000D02*
X101750000Y-101775000D01*
X74100000Y-104825000D02*
X100500000Y-104825000D01*
X103650000Y-97700000D02*
X106280000Y-97700000D01*
X106280000Y-97700000D02*
X107540000Y-96440000D01*
X102350000Y-100300000D02*
X102350000Y-99000000D01*
X102350000Y-99000000D02*
X103650000Y-97700000D01*
X68500000Y-92250000D02*
X68500000Y-88800000D01*
X64280000Y-87500000D02*
X63000000Y-88780000D01*
X67200000Y-87500000D02*
X64280000Y-87500000D01*
X68500000Y-88800000D02*
X67200000Y-87500000D01*
X68500000Y-92250000D02*
X68500000Y-92125000D01*
X102350000Y-100250000D02*
X102350000Y-100300000D01*
X102350000Y-104200000D02*
X101125000Y-105425000D01*
X101125000Y-105425000D02*
X71150002Y-105425000D01*
X71150002Y-105425000D02*
X68500000Y-102774998D01*
X68500000Y-102774998D02*
X68500000Y-100500000D01*
X102350000Y-102125000D02*
X102350000Y-100300000D01*
X68500000Y-92250000D02*
X68500000Y-100500000D01*
X102350000Y-102125000D02*
X102350000Y-104200000D01*
X105000000Y-98980000D02*
X103820000Y-98980000D01*
X102900000Y-102325000D02*
X102900000Y-100525000D01*
X102900000Y-102425000D02*
X102900000Y-102325000D01*
X102900000Y-99900000D02*
X102900000Y-100525000D01*
X103820000Y-98980000D02*
X102900000Y-99900000D01*
X70865688Y-105900000D02*
X67925000Y-102959312D01*
X67925000Y-102959312D02*
X67925000Y-100875000D01*
X102900000Y-104675000D02*
X102900000Y-102325000D01*
X101675000Y-105900000D02*
X93600000Y-105900000D01*
X102900000Y-104675000D02*
X101675000Y-105900000D01*
X65540000Y-88780000D02*
X67180000Y-88780000D01*
X67925000Y-93050000D02*
X67925000Y-100875000D01*
X67925000Y-89525000D02*
X67925000Y-93050000D01*
X67180000Y-88780000D02*
X67925000Y-89525000D01*
X93600000Y-105900000D02*
X70865688Y-105900000D01*
X65540000Y-76080000D02*
X65880000Y-76080000D01*
X65880000Y-76080000D02*
X69300000Y-79500000D01*
X69300000Y-79500000D02*
X77050000Y-79500000D01*
X73450000Y-82850000D02*
X73300000Y-82850000D01*
X77050000Y-82500000D02*
X76000000Y-82500000D01*
X75650000Y-82850000D02*
X73450000Y-82850000D01*
X76000000Y-82500000D02*
X75650000Y-82850000D01*
X72650000Y-83700000D02*
X65540000Y-83700000D01*
X72650000Y-83500000D02*
X72650000Y-83700000D01*
X73300000Y-82850000D02*
X72650000Y-83500000D01*
X65540000Y-78620000D02*
X66520000Y-78620000D01*
X68400000Y-80500000D02*
X77050000Y-80500000D01*
X66520000Y-78620000D02*
X68400000Y-80500000D01*
X77050000Y-81000000D02*
X67800000Y-81000000D01*
X64210000Y-79950000D02*
X63000000Y-81160000D01*
X66750000Y-79950000D02*
X64210000Y-79950000D01*
X67800000Y-81000000D02*
X66750000Y-79950000D01*
X65575000Y-101700000D02*
X65550000Y-101725000D01*
X65550000Y-101725000D02*
X61300000Y-101725000D01*
X61300000Y-101725000D02*
X61225000Y-101650000D01*
X61225000Y-101650000D02*
X61225000Y-82935000D01*
X61225000Y-82935000D02*
X63000000Y-81160000D01*
X73550000Y-101675000D02*
X72025000Y-101675000D01*
X77050000Y-81500000D02*
X65880000Y-81500000D01*
X65880000Y-81500000D02*
X65540000Y-81160000D01*
X63000000Y-83700000D02*
X63000000Y-83600000D01*
X63000000Y-83600000D02*
X64100000Y-82500000D01*
X64100000Y-82500000D02*
X72900000Y-82500000D01*
X72900000Y-82500000D02*
X73200000Y-82200000D01*
X73200000Y-82200000D02*
X75050000Y-82200000D01*
X77050000Y-82000000D02*
X75250000Y-82000000D01*
X75250000Y-82000000D02*
X75050000Y-82200000D01*
X100675000Y-60550000D02*
X101900000Y-60550000D01*
X102875000Y-61525000D02*
X102875000Y-62275000D01*
X101900000Y-60550000D02*
X102875000Y-61525000D01*
X105000000Y-66375000D02*
X105000000Y-68500000D01*
X102850000Y-64225000D02*
X105000000Y-66375000D01*
X96450000Y-60550000D02*
X100675000Y-60550000D01*
X100675000Y-60550000D02*
X101000000Y-60550000D01*
X65900000Y-60550000D02*
X96450000Y-60550000D01*
X96450000Y-60550000D02*
X96550000Y-60550000D01*
X61350000Y-72350000D02*
X60550000Y-71550000D01*
X60550000Y-71550000D02*
X60550000Y-61900000D01*
X60550000Y-61900000D02*
X61900000Y-60550000D01*
X61900000Y-60550000D02*
X65900000Y-60550000D01*
X64550000Y-72350000D02*
X65540000Y-71360000D01*
X64550000Y-72350000D02*
X61700000Y-72350000D01*
X61700000Y-72350000D02*
X61350000Y-72350000D01*
X65540000Y-71000000D02*
X65540000Y-71360000D01*
X65540000Y-71210000D02*
X65540000Y-71000000D01*
X65540000Y-91320000D02*
X66170000Y-91320000D01*
X66875000Y-103250000D02*
X70450000Y-106825000D01*
X70450000Y-106825000D02*
X102950000Y-106825000D01*
X102950000Y-106825000D02*
X105000000Y-104775000D01*
X66875000Y-92025000D02*
X66875000Y-101225000D01*
X66875000Y-92025000D02*
X66170000Y-91320000D01*
X105000000Y-101520000D02*
X105000000Y-104775000D01*
X66875000Y-101225000D02*
X66875000Y-103250000D01*
X67425000Y-101025000D02*
X67425000Y-101075000D01*
X67425000Y-94000000D02*
X67425000Y-101025000D01*
X67425000Y-94000000D02*
X67425000Y-90625000D01*
X64270000Y-90050000D02*
X63000000Y-91320000D01*
X66850000Y-90050000D02*
X64270000Y-90050000D01*
X67425000Y-90625000D02*
X66850000Y-90050000D01*
X67425000Y-94000000D02*
X67425000Y-93900000D01*
X107540000Y-102020000D02*
X107540000Y-101940000D01*
X67425000Y-103025000D02*
X70775000Y-106375000D01*
X70775000Y-106375000D02*
X102000000Y-106375000D01*
X102000000Y-106375000D02*
X103600000Y-104775000D01*
X103600000Y-104775000D02*
X103600000Y-102500000D01*
X103600000Y-100500000D02*
X103900000Y-100200000D01*
X103900000Y-100200000D02*
X106220000Y-100200000D01*
X106220000Y-100200000D02*
X107540000Y-101520000D01*
X103600000Y-102500000D02*
X103600000Y-100500000D01*
X67425000Y-101025000D02*
X67425000Y-103025000D01*
X76250000Y-94000000D02*
X76250000Y-96900000D01*
X76250000Y-96900000D02*
X76300000Y-96950000D01*
X76250000Y-94000000D02*
X76250000Y-93000000D01*
X76250000Y-93000000D02*
X81250000Y-88000000D01*
X81250000Y-88000000D02*
X81250000Y-86700000D01*
X63000000Y-76080000D02*
X63370000Y-76080000D01*
X63370000Y-76080000D02*
X64650000Y-74800000D01*
X64650000Y-74800000D02*
X66500000Y-74800000D01*
X66500000Y-74800000D02*
X70700000Y-79000000D01*
X70700000Y-79000000D02*
X77050000Y-79000000D01*
X77050000Y-80000000D02*
X68850000Y-80000000D01*
X64170000Y-77450000D02*
X63000000Y-78620000D01*
X66300000Y-77450000D02*
X64170000Y-77450000D01*
X68850000Y-80000000D02*
X66300000Y-77450000D01*
X78750000Y-86700000D02*
X78750000Y-87450000D01*
X78750000Y-87450000D02*
X78500000Y-87700000D01*
X78500000Y-87700000D02*
X75750000Y-87700000D01*
X75750000Y-87700000D02*
X74550000Y-86500000D01*
X74550000Y-86500000D02*
X73750000Y-86500000D01*
X72000000Y-88500000D02*
X73750000Y-88500000D01*
X79250000Y-86700000D02*
X79250000Y-87750000D01*
X78500000Y-88500000D02*
X73750000Y-88500000D01*
X79250000Y-87750000D02*
X78500000Y-88500000D01*
X85750000Y-86700000D02*
X85750000Y-91000000D01*
X85750000Y-91000000D02*
X88750000Y-94000000D01*
X86250000Y-86700000D02*
X86250000Y-90800000D01*
X90450000Y-92450000D02*
X91290000Y-93290000D01*
X87900000Y-92450000D02*
X90450000Y-92450000D01*
X86250000Y-90800000D02*
X87900000Y-92450000D01*
X91290000Y-93290000D02*
X91290000Y-94000000D01*
X87750000Y-86700000D02*
X87750000Y-89500000D01*
X91480000Y-91650000D02*
X93830000Y-94000000D01*
X89900000Y-91650000D02*
X91480000Y-91650000D01*
X87750000Y-89500000D02*
X89900000Y-91650000D01*
X88250000Y-86700000D02*
X88250000Y-88900000D01*
X93420000Y-91050000D02*
X96370000Y-94000000D01*
X90400000Y-91050000D02*
X93420000Y-91050000D01*
X88250000Y-88900000D02*
X90400000Y-91050000D01*
X83250000Y-86700000D02*
X83250000Y-93000000D01*
X83250000Y-93000000D02*
X82250000Y-94000000D01*
X85250000Y-94460000D02*
X84790000Y-94000000D01*
X84790000Y-94000000D02*
X84450000Y-94000000D01*
X84450000Y-94000000D02*
X83750000Y-93300000D01*
X83750000Y-93300000D02*
X83750000Y-86700000D01*
X81750000Y-86700000D02*
X81750000Y-88450000D01*
X79750000Y-90450000D02*
X79750000Y-96750000D01*
X81750000Y-88450000D02*
X79750000Y-90450000D01*
X79750000Y-71300000D02*
X79750000Y-68750000D01*
X79750000Y-68750000D02*
X80000000Y-68500000D01*
X79700000Y-101675000D02*
X79725000Y-101675000D01*
X77950000Y-101675000D02*
X79700000Y-101675000D01*
X80075000Y-101675000D02*
X80500000Y-101250000D01*
X79700000Y-101675000D02*
X80075000Y-101675000D01*
X82250000Y-101250000D02*
X82500000Y-101500000D01*
X80500000Y-101250000D02*
X82250000Y-101250000D01*
X80075000Y-102325000D02*
X80500000Y-102750000D01*
X77950000Y-102325000D02*
X80075000Y-102325000D01*
X81925000Y-108875000D02*
X83475980Y-108875000D01*
X79575000Y-107700000D02*
X79550000Y-107725000D01*
X77950000Y-102975000D02*
X78775000Y-102975000D01*
X78775000Y-102975000D02*
X79275000Y-103475000D01*
X79750000Y-107875000D02*
X79575000Y-107700000D01*
X80425000Y-108550000D02*
X79575000Y-107700000D01*
X80425000Y-108875000D02*
X80425000Y-108550000D01*
D36*
G36*
X65704000Y-94004000D02*
X65684000Y-94004000D01*
X65684000Y-94024000D01*
X65396000Y-94024000D01*
X65396000Y-94004000D01*
X64319264Y-94004000D01*
X64220736Y-94004000D01*
X63144000Y-94004000D01*
X63144000Y-94024000D01*
X62856000Y-94024000D01*
X62856000Y-94004000D01*
X62836000Y-94004000D01*
X62836000Y-93716000D01*
X62856000Y-93716000D01*
X62856000Y-93696000D01*
X63144000Y-93696000D01*
X63144000Y-93716000D01*
X64220736Y-93716000D01*
X64319264Y-93716000D01*
X65396000Y-93716000D01*
X65396000Y-93696000D01*
X65684000Y-93696000D01*
X65684000Y-93716000D01*
X65704000Y-93716000D01*
X65704000Y-94004000D01*
X65704000Y-94004000D01*
G37*
X65704000Y-94004000D02*
X65684000Y-94004000D01*
X65684000Y-94024000D01*
X65396000Y-94024000D01*
X65396000Y-94004000D01*
X64319264Y-94004000D01*
X64220736Y-94004000D01*
X63144000Y-94004000D01*
X63144000Y-94024000D01*
X62856000Y-94024000D01*
X62856000Y-94004000D01*
X62836000Y-94004000D01*
X62836000Y-93716000D01*
X62856000Y-93716000D01*
X62856000Y-93696000D01*
X63144000Y-93696000D01*
X63144000Y-93716000D01*
X64220736Y-93716000D01*
X64319264Y-93716000D01*
X65396000Y-93716000D01*
X65396000Y-93696000D01*
X65684000Y-93696000D01*
X65684000Y-93716000D01*
X65704000Y-93716000D01*
X65704000Y-94004000D01*
G36*
X76501152Y-66227500D02*
X76321559Y-66347500D01*
X75650001Y-66347500D01*
X75650000Y-66347500D01*
X75649998Y-66347500D01*
X75649598Y-66347500D01*
X75481171Y-66347353D01*
X75480815Y-66347500D01*
X74300000Y-66347500D01*
X74150006Y-66347500D01*
X74150005Y-66347500D01*
X74150000Y-66347499D01*
X74149993Y-66347500D01*
X73981171Y-66347353D01*
X73823763Y-66412392D01*
X73823762Y-66412393D01*
X73823760Y-66412393D01*
X73667729Y-66476865D01*
X73547194Y-66597188D01*
X73547191Y-66597191D01*
X73547188Y-66597194D01*
X73546575Y-66597806D01*
X73427707Y-66716467D01*
X73427559Y-66716822D01*
X67456882Y-72687500D01*
X66497642Y-72687500D01*
X66465522Y-72639429D01*
X66052337Y-72363347D01*
X65583049Y-72270000D01*
X66052337Y-72176653D01*
X66465522Y-71900571D01*
X66741604Y-71487386D01*
X66838551Y-71000000D01*
X66741604Y-70512614D01*
X66465522Y-70099429D01*
X66052337Y-69823347D01*
X65564951Y-69726400D01*
X65515049Y-69726400D01*
X65027663Y-69823347D01*
X64614478Y-70099429D01*
X64338396Y-70512614D01*
X64281632Y-70797986D01*
X64281632Y-70136400D01*
X64251300Y-69980068D01*
X64161043Y-69842667D01*
X64095331Y-69798311D01*
X65102642Y-68791000D01*
X67125000Y-68791000D01*
X67125000Y-68790999D01*
X67427703Y-68730789D01*
X67684321Y-68559321D01*
X70016142Y-66227500D01*
X76501152Y-66227500D01*
X76501152Y-66227500D01*
G37*
X76501152Y-66227500D02*
X76321559Y-66347500D01*
X75650001Y-66347500D01*
X75650000Y-66347500D01*
X75649998Y-66347500D01*
X75649598Y-66347500D01*
X75481171Y-66347353D01*
X75480815Y-66347500D01*
X74300000Y-66347500D01*
X74150006Y-66347500D01*
X74150005Y-66347500D01*
X74150000Y-66347499D01*
X74149993Y-66347500D01*
X73981171Y-66347353D01*
X73823763Y-66412392D01*
X73823762Y-66412393D01*
X73823760Y-66412393D01*
X73667729Y-66476865D01*
X73547194Y-66597188D01*
X73547191Y-66597191D01*
X73547188Y-66597194D01*
X73546575Y-66597806D01*
X73427707Y-66716467D01*
X73427559Y-66716822D01*
X67456882Y-72687500D01*
X66497642Y-72687500D01*
X66465522Y-72639429D01*
X66052337Y-72363347D01*
X65583049Y-72270000D01*
X66052337Y-72176653D01*
X66465522Y-71900571D01*
X66741604Y-71487386D01*
X66838551Y-71000000D01*
X66741604Y-70512614D01*
X66465522Y-70099429D01*
X66052337Y-69823347D01*
X65564951Y-69726400D01*
X65515049Y-69726400D01*
X65027663Y-69823347D01*
X64614478Y-70099429D01*
X64338396Y-70512614D01*
X64281632Y-70797986D01*
X64281632Y-70136400D01*
X64251300Y-69980068D01*
X64161043Y-69842667D01*
X64095331Y-69798311D01*
X65102642Y-68791000D01*
X67125000Y-68791000D01*
X67125000Y-68790999D01*
X67427703Y-68730789D01*
X67684321Y-68559321D01*
X70016142Y-66227500D01*
X76501152Y-66227500D01*
G36*
X77491751Y-91037000D02*
X75962783Y-92565968D01*
X75234000Y-92565968D01*
X75077668Y-92596300D01*
X74940267Y-92686557D01*
X74848292Y-92822815D01*
X74840490Y-92861716D01*
X74550211Y-92598561D01*
X74106846Y-92414924D01*
X73854000Y-92527524D01*
X73854000Y-93856000D01*
X73874000Y-93856000D01*
X73874000Y-94144000D01*
X73854000Y-94144000D01*
X73854000Y-95472476D01*
X74106846Y-95585076D01*
X74550211Y-95401439D01*
X74839812Y-95138897D01*
X74846300Y-95172332D01*
X74936557Y-95309733D01*
X75072815Y-95401708D01*
X75234000Y-95434032D01*
X75740000Y-95434032D01*
X75740000Y-96226656D01*
X75664292Y-96338815D01*
X75631968Y-96500000D01*
X75631968Y-97400000D01*
X75662300Y-97556332D01*
X75752557Y-97693733D01*
X75781100Y-97713000D01*
X74222432Y-97713000D01*
X73566000Y-97056568D01*
X73566000Y-95472476D01*
X73566000Y-94144000D01*
X73566000Y-93856000D01*
X73566000Y-92527524D01*
X73313154Y-92414924D01*
X72869789Y-92598561D01*
X72397439Y-93026774D01*
X72124914Y-93603152D01*
X72236848Y-93856000D01*
X73566000Y-93856000D01*
X73566000Y-94144000D01*
X72236848Y-94144000D01*
X72124914Y-94396848D01*
X72397439Y-94973226D01*
X72869789Y-95401439D01*
X73313154Y-95585076D01*
X73566000Y-95472476D01*
X73566000Y-97056568D01*
X71137000Y-94627568D01*
X71137000Y-91037000D01*
X77491751Y-91037000D01*
X77491751Y-91037000D01*
G37*
X77491751Y-91037000D02*
X75962783Y-92565968D01*
X75234000Y-92565968D01*
X75077668Y-92596300D01*
X74940267Y-92686557D01*
X74848292Y-92822815D01*
X74840490Y-92861716D01*
X74550211Y-92598561D01*
X74106846Y-92414924D01*
X73854000Y-92527524D01*
X73854000Y-93856000D01*
X73874000Y-93856000D01*
X73874000Y-94144000D01*
X73854000Y-94144000D01*
X73854000Y-95472476D01*
X74106846Y-95585076D01*
X74550211Y-95401439D01*
X74839812Y-95138897D01*
X74846300Y-95172332D01*
X74936557Y-95309733D01*
X75072815Y-95401708D01*
X75234000Y-95434032D01*
X75740000Y-95434032D01*
X75740000Y-96226656D01*
X75664292Y-96338815D01*
X75631968Y-96500000D01*
X75631968Y-97400000D01*
X75662300Y-97556332D01*
X75752557Y-97693733D01*
X75781100Y-97713000D01*
X74222432Y-97713000D01*
X73566000Y-97056568D01*
X73566000Y-95472476D01*
X73566000Y-94144000D01*
X73566000Y-93856000D01*
X73566000Y-92527524D01*
X73313154Y-92414924D01*
X72869789Y-92598561D01*
X72397439Y-93026774D01*
X72124914Y-93603152D01*
X72236848Y-93856000D01*
X73566000Y-93856000D01*
X73566000Y-94144000D01*
X72236848Y-94144000D01*
X72124914Y-94396848D01*
X72397439Y-94973226D01*
X72869789Y-95401439D01*
X73313154Y-95585076D01*
X73566000Y-95472476D01*
X73566000Y-97056568D01*
X71137000Y-94627568D01*
X71137000Y-91037000D01*
X77491751Y-91037000D01*
G36*
X78091080Y-67664000D02*
X77956267Y-67752557D01*
X77864292Y-67888815D01*
X77831968Y-68050000D01*
X77831968Y-68487706D01*
X77803821Y-68529831D01*
X77765000Y-68725000D01*
X77765000Y-69890000D01*
X75890000Y-69890000D01*
X75890000Y-72386016D01*
X75776085Y-72499931D01*
X75682000Y-72727072D01*
X75682000Y-72770500D01*
X75836500Y-72925000D01*
X75851016Y-72925000D01*
X75776085Y-72999931D01*
X75682000Y-73227072D01*
X75682000Y-73229500D01*
X75682000Y-73270500D01*
X75682000Y-73272928D01*
X75776056Y-73500000D01*
X75682000Y-73727072D01*
X75682000Y-73729500D01*
X75682000Y-73770500D01*
X75682000Y-73772928D01*
X75776056Y-74000000D01*
X75682000Y-74227072D01*
X75682000Y-74229500D01*
X75682000Y-74270500D01*
X75682000Y-74272928D01*
X75716408Y-74355998D01*
X75705111Y-74355998D01*
X75682000Y-74320815D01*
X75672443Y-74306267D01*
X75536185Y-74214292D01*
X75375000Y-74181968D01*
X74625000Y-74181968D01*
X74468668Y-74212300D01*
X74331267Y-74302557D01*
X74239292Y-74438815D01*
X74206968Y-74600000D01*
X74206968Y-75400000D01*
X74237300Y-75556332D01*
X74260050Y-75590965D01*
X74101085Y-75749931D01*
X74007000Y-75977072D01*
X74007000Y-76201500D01*
X74161500Y-76356000D01*
X74856000Y-76356000D01*
X74856000Y-76336000D01*
X75144000Y-76336000D01*
X75144000Y-76356000D01*
X75164000Y-76356000D01*
X75164000Y-76644000D01*
X75144000Y-76644000D01*
X75144000Y-77363500D01*
X75298500Y-77518000D01*
X75497928Y-77518000D01*
X75682000Y-77441754D01*
X75725069Y-77423915D01*
X75738837Y-77410146D01*
X75776056Y-77500000D01*
X75682000Y-77727072D01*
X75682000Y-77729500D01*
X75682000Y-77770500D01*
X75682000Y-77772928D01*
X75776056Y-78000000D01*
X75682000Y-78227072D01*
X75682000Y-78229500D01*
X75682000Y-78270500D01*
X75682000Y-78272928D01*
X75716408Y-78355998D01*
X75682000Y-78355998D01*
X75682000Y-78490000D01*
X74856000Y-78490000D01*
X74856000Y-77363500D01*
X74856000Y-76644000D01*
X74161500Y-76644000D01*
X74007000Y-76798500D01*
X74007000Y-77022928D01*
X74101085Y-77250069D01*
X74274931Y-77423915D01*
X74502072Y-77518000D01*
X74701500Y-77518000D01*
X74856000Y-77363500D01*
X74856000Y-78490000D01*
X70911248Y-78490000D01*
X66860624Y-74439376D01*
X66790470Y-74392500D01*
X67809994Y-74392500D01*
X67810000Y-74392501D01*
X67810000Y-74392500D01*
X68082110Y-74338373D01*
X68136237Y-74327607D01*
X68136238Y-74327607D01*
X68412809Y-74142809D01*
X74503118Y-68052500D01*
X75650000Y-68052500D01*
X75650401Y-68052500D01*
X75818829Y-68052647D01*
X75819184Y-68052500D01*
X76649994Y-68052500D01*
X76650000Y-68052501D01*
X76650000Y-68052500D01*
X76922110Y-67998373D01*
X76976237Y-67987607D01*
X76976238Y-67987607D01*
X77252809Y-67802809D01*
X77391617Y-67664000D01*
X78091080Y-67664000D01*
X78091080Y-67664000D01*
G37*
X78091080Y-67664000D02*
X77956267Y-67752557D01*
X77864292Y-67888815D01*
X77831968Y-68050000D01*
X77831968Y-68487706D01*
X77803821Y-68529831D01*
X77765000Y-68725000D01*
X77765000Y-69890000D01*
X75890000Y-69890000D01*
X75890000Y-72386016D01*
X75776085Y-72499931D01*
X75682000Y-72727072D01*
X75682000Y-72770500D01*
X75836500Y-72925000D01*
X75851016Y-72925000D01*
X75776085Y-72999931D01*
X75682000Y-73227072D01*
X75682000Y-73229500D01*
X75682000Y-73270500D01*
X75682000Y-73272928D01*
X75776056Y-73500000D01*
X75682000Y-73727072D01*
X75682000Y-73729500D01*
X75682000Y-73770500D01*
X75682000Y-73772928D01*
X75776056Y-74000000D01*
X75682000Y-74227072D01*
X75682000Y-74229500D01*
X75682000Y-74270500D01*
X75682000Y-74272928D01*
X75716408Y-74355998D01*
X75705111Y-74355998D01*
X75682000Y-74320815D01*
X75672443Y-74306267D01*
X75536185Y-74214292D01*
X75375000Y-74181968D01*
X74625000Y-74181968D01*
X74468668Y-74212300D01*
X74331267Y-74302557D01*
X74239292Y-74438815D01*
X74206968Y-74600000D01*
X74206968Y-75400000D01*
X74237300Y-75556332D01*
X74260050Y-75590965D01*
X74101085Y-75749931D01*
X74007000Y-75977072D01*
X74007000Y-76201500D01*
X74161500Y-76356000D01*
X74856000Y-76356000D01*
X74856000Y-76336000D01*
X75144000Y-76336000D01*
X75144000Y-76356000D01*
X75164000Y-76356000D01*
X75164000Y-76644000D01*
X75144000Y-76644000D01*
X75144000Y-77363500D01*
X75298500Y-77518000D01*
X75497928Y-77518000D01*
X75682000Y-77441754D01*
X75725069Y-77423915D01*
X75738837Y-77410146D01*
X75776056Y-77500000D01*
X75682000Y-77727072D01*
X75682000Y-77729500D01*
X75682000Y-77770500D01*
X75682000Y-77772928D01*
X75776056Y-78000000D01*
X75682000Y-78227072D01*
X75682000Y-78229500D01*
X75682000Y-78270500D01*
X75682000Y-78272928D01*
X75716408Y-78355998D01*
X75682000Y-78355998D01*
X75682000Y-78490000D01*
X74856000Y-78490000D01*
X74856000Y-77363500D01*
X74856000Y-76644000D01*
X74161500Y-76644000D01*
X74007000Y-76798500D01*
X74007000Y-77022928D01*
X74101085Y-77250069D01*
X74274931Y-77423915D01*
X74502072Y-77518000D01*
X74701500Y-77518000D01*
X74856000Y-77363500D01*
X74856000Y-78490000D01*
X70911248Y-78490000D01*
X66860624Y-74439376D01*
X66790470Y-74392500D01*
X67809994Y-74392500D01*
X67810000Y-74392501D01*
X67810000Y-74392500D01*
X68082110Y-74338373D01*
X68136237Y-74327607D01*
X68136238Y-74327607D01*
X68412809Y-74142809D01*
X74503118Y-68052500D01*
X75650000Y-68052500D01*
X75650401Y-68052500D01*
X75818829Y-68052647D01*
X75819184Y-68052500D01*
X76649994Y-68052500D01*
X76650000Y-68052501D01*
X76650000Y-68052500D01*
X76922110Y-67998373D01*
X76976237Y-67987607D01*
X76976238Y-67987607D01*
X77252809Y-67802809D01*
X77391617Y-67664000D01*
X78091080Y-67664000D01*
G36*
X78597339Y-103740000D02*
X76975000Y-103740000D01*
X74586236Y-103740000D01*
X74625069Y-103723915D01*
X74798915Y-103550069D01*
X74893000Y-103322928D01*
X74893000Y-103242000D01*
X74738500Y-103087500D01*
X73694000Y-103087500D01*
X73694000Y-103139000D01*
X73406000Y-103139000D01*
X73406000Y-103087500D01*
X72361500Y-103087500D01*
X72207000Y-103242000D01*
X72207000Y-103322928D01*
X72301085Y-103550069D01*
X72474931Y-103723915D01*
X72513763Y-103740000D01*
X71661248Y-103740000D01*
X70010000Y-102088751D01*
X70010000Y-99500000D01*
X70010000Y-90250000D01*
X70010000Y-90175000D01*
X70010000Y-90164664D01*
X70063000Y-90243984D01*
X70063000Y-94850000D01*
X70103877Y-95055501D01*
X70220284Y-95229716D01*
X73620284Y-98629716D01*
X73794499Y-98746123D01*
X74000000Y-98787000D01*
X77440000Y-98787000D01*
X77440000Y-100381968D01*
X77225000Y-100381968D01*
X77068668Y-100412300D01*
X76931267Y-100502557D01*
X76922867Y-100515000D01*
X76800000Y-100515000D01*
X76604831Y-100553821D01*
X76538559Y-100598103D01*
X76439376Y-100664375D01*
X75288751Y-101815000D01*
X74693032Y-101815000D01*
X74693032Y-101705952D01*
X74798915Y-101600069D01*
X74893000Y-101372928D01*
X74893000Y-101292000D01*
X74893000Y-100758000D01*
X74893000Y-100677072D01*
X74798915Y-100449931D01*
X74625069Y-100276085D01*
X74397928Y-100182000D01*
X73848500Y-100182000D01*
X73694000Y-100336500D01*
X73694000Y-100912500D01*
X74738500Y-100912500D01*
X74893000Y-100758000D01*
X74893000Y-101292000D01*
X74738500Y-101137500D01*
X74544640Y-101137500D01*
X74436185Y-101064292D01*
X74275000Y-101031968D01*
X73406000Y-101031968D01*
X73386000Y-101031968D01*
X73386000Y-100912500D01*
X73406000Y-100912500D01*
X73406000Y-100336500D01*
X73251500Y-100182000D01*
X72702072Y-100182000D01*
X72474931Y-100276085D01*
X72301085Y-100449931D01*
X72207000Y-100677072D01*
X72207000Y-100758000D01*
X72329998Y-100880998D01*
X72207000Y-100880998D01*
X72207000Y-100962846D01*
X72170344Y-100947626D01*
X71880926Y-100947374D01*
X71613442Y-101057896D01*
X71408615Y-101262366D01*
X71297626Y-101529656D01*
X71297374Y-101819074D01*
X71407896Y-102086558D01*
X71612366Y-102291385D01*
X71879656Y-102402374D01*
X72169074Y-102402626D01*
X72389445Y-102311570D01*
X72301085Y-102399931D01*
X72207000Y-102627072D01*
X72207000Y-102708000D01*
X72361500Y-102862500D01*
X72555359Y-102862500D01*
X72663815Y-102935708D01*
X72825000Y-102968032D01*
X74275000Y-102968032D01*
X74431332Y-102937700D01*
X74545811Y-102862500D01*
X74738500Y-102862500D01*
X74766000Y-102835000D01*
X74893000Y-102835000D01*
X75500000Y-102835000D01*
X75500000Y-102834999D01*
X75695169Y-102796179D01*
X75860624Y-102685624D01*
X76806968Y-101739280D01*
X76806968Y-101900000D01*
X76826690Y-102001651D01*
X76806968Y-102100000D01*
X76806968Y-102550000D01*
X76826690Y-102651651D01*
X76806968Y-102750000D01*
X76806968Y-103200000D01*
X76837300Y-103356332D01*
X76927557Y-103493733D01*
X77063815Y-103585708D01*
X77225000Y-103618032D01*
X78547374Y-103618032D01*
X78547374Y-103619074D01*
X78597339Y-103740000D01*
X78597339Y-103740000D01*
G37*
X78597339Y-103740000D02*
X76975000Y-103740000D01*
X74586236Y-103740000D01*
X74625069Y-103723915D01*
X74798915Y-103550069D01*
X74893000Y-103322928D01*
X74893000Y-103242000D01*
X74738500Y-103087500D01*
X73694000Y-103087500D01*
X73694000Y-103139000D01*
X73406000Y-103139000D01*
X73406000Y-103087500D01*
X72361500Y-103087500D01*
X72207000Y-103242000D01*
X72207000Y-103322928D01*
X72301085Y-103550069D01*
X72474931Y-103723915D01*
X72513763Y-103740000D01*
X71661248Y-103740000D01*
X70010000Y-102088751D01*
X70010000Y-99500000D01*
X70010000Y-90250000D01*
X70010000Y-90175000D01*
X70010000Y-90164664D01*
X70063000Y-90243984D01*
X70063000Y-94850000D01*
X70103877Y-95055501D01*
X70220284Y-95229716D01*
X73620284Y-98629716D01*
X73794499Y-98746123D01*
X74000000Y-98787000D01*
X77440000Y-98787000D01*
X77440000Y-100381968D01*
X77225000Y-100381968D01*
X77068668Y-100412300D01*
X76931267Y-100502557D01*
X76922867Y-100515000D01*
X76800000Y-100515000D01*
X76604831Y-100553821D01*
X76538559Y-100598103D01*
X76439376Y-100664375D01*
X75288751Y-101815000D01*
X74693032Y-101815000D01*
X74693032Y-101705952D01*
X74798915Y-101600069D01*
X74893000Y-101372928D01*
X74893000Y-101292000D01*
X74893000Y-100758000D01*
X74893000Y-100677072D01*
X74798915Y-100449931D01*
X74625069Y-100276085D01*
X74397928Y-100182000D01*
X73848500Y-100182000D01*
X73694000Y-100336500D01*
X73694000Y-100912500D01*
X74738500Y-100912500D01*
X74893000Y-100758000D01*
X74893000Y-101292000D01*
X74738500Y-101137500D01*
X74544640Y-101137500D01*
X74436185Y-101064292D01*
X74275000Y-101031968D01*
X73406000Y-101031968D01*
X73386000Y-101031968D01*
X73386000Y-100912500D01*
X73406000Y-100912500D01*
X73406000Y-100336500D01*
X73251500Y-100182000D01*
X72702072Y-100182000D01*
X72474931Y-100276085D01*
X72301085Y-100449931D01*
X72207000Y-100677072D01*
X72207000Y-100758000D01*
X72329998Y-100880998D01*
X72207000Y-100880998D01*
X72207000Y-100962846D01*
X72170344Y-100947626D01*
X71880926Y-100947374D01*
X71613442Y-101057896D01*
X71408615Y-101262366D01*
X71297626Y-101529656D01*
X71297374Y-101819074D01*
X71407896Y-102086558D01*
X71612366Y-102291385D01*
X71879656Y-102402374D01*
X72169074Y-102402626D01*
X72389445Y-102311570D01*
X72301085Y-102399931D01*
X72207000Y-102627072D01*
X72207000Y-102708000D01*
X72361500Y-102862500D01*
X72555359Y-102862500D01*
X72663815Y-102935708D01*
X72825000Y-102968032D01*
X74275000Y-102968032D01*
X74431332Y-102937700D01*
X74545811Y-102862500D01*
X74738500Y-102862500D01*
X74766000Y-102835000D01*
X74893000Y-102835000D01*
X75500000Y-102835000D01*
X75500000Y-102834999D01*
X75695169Y-102796179D01*
X75860624Y-102685624D01*
X76806968Y-101739280D01*
X76806968Y-101900000D01*
X76826690Y-102001651D01*
X76806968Y-102100000D01*
X76806968Y-102550000D01*
X76826690Y-102651651D01*
X76806968Y-102750000D01*
X76806968Y-103200000D01*
X76837300Y-103356332D01*
X76927557Y-103493733D01*
X77063815Y-103585708D01*
X77225000Y-103618032D01*
X78547374Y-103618032D01*
X78547374Y-103619074D01*
X78597339Y-103740000D01*
G36*
X78600572Y-88989995D02*
X77627567Y-89963000D01*
X71272432Y-89963000D01*
X71037000Y-89727568D01*
X71037000Y-89251865D01*
X71043733Y-89247443D01*
X71135708Y-89111185D01*
X71168032Y-88950000D01*
X71168032Y-88050000D01*
X71137700Y-87893668D01*
X71047443Y-87756267D01*
X70911185Y-87664292D01*
X70750000Y-87631968D01*
X70250000Y-87631968D01*
X70093668Y-87662300D01*
X70010000Y-87717260D01*
X70010000Y-86950000D01*
X69971179Y-86754831D01*
X69860624Y-86589376D01*
X69860624Y-86589375D01*
X67860624Y-84589376D01*
X67695169Y-84478821D01*
X67500000Y-84440000D01*
X66572812Y-84440000D01*
X66726493Y-84210000D01*
X72650000Y-84210000D01*
X72845169Y-84171179D01*
X73010624Y-84060624D01*
X73121179Y-83895169D01*
X73157207Y-83714041D01*
X73511248Y-83360000D01*
X73982000Y-83360000D01*
X73982000Y-83420500D01*
X74136500Y-83575000D01*
X74906000Y-83575000D01*
X74906000Y-83536000D01*
X75194000Y-83536000D01*
X75194000Y-83575000D01*
X75214000Y-83575000D01*
X75214000Y-83825000D01*
X75194000Y-83825000D01*
X75194000Y-84413500D01*
X75348500Y-84568000D01*
X75377072Y-84568000D01*
X75622928Y-84568000D01*
X75682000Y-84543531D01*
X75682000Y-84644002D01*
X75716408Y-84644002D01*
X75682000Y-84727072D01*
X75682000Y-84729500D01*
X75682000Y-84770500D01*
X75682000Y-84772928D01*
X75776085Y-85000069D01*
X75851016Y-85075000D01*
X75836500Y-85075000D01*
X75682000Y-85229500D01*
X75682000Y-85272928D01*
X75776085Y-85500069D01*
X75890000Y-85613984D01*
X75890000Y-87118751D01*
X74910624Y-86139376D01*
X74906000Y-86136286D01*
X74906000Y-84413500D01*
X74906000Y-83825000D01*
X74136500Y-83825000D01*
X73982000Y-83979500D01*
X73982000Y-84072928D01*
X74076085Y-84300069D01*
X74249931Y-84473915D01*
X74477072Y-84568000D01*
X74722928Y-84568000D01*
X74751500Y-84568000D01*
X74906000Y-84413500D01*
X74906000Y-86136286D01*
X74853261Y-86101047D01*
X74744153Y-85836983D01*
X74414752Y-85507006D01*
X73984148Y-85328204D01*
X73517898Y-85327797D01*
X73086983Y-85505847D01*
X72757006Y-85835248D01*
X72578204Y-86265852D01*
X72577797Y-86732102D01*
X72755847Y-87163017D01*
X73085248Y-87492994D01*
X73101628Y-87499795D01*
X73086983Y-87505847D01*
X72757006Y-87835248D01*
X72692747Y-87990000D01*
X72656390Y-87990000D01*
X72637700Y-87893668D01*
X72547443Y-87756267D01*
X72411185Y-87664292D01*
X72250000Y-87631968D01*
X71750000Y-87631968D01*
X71593668Y-87662300D01*
X71456267Y-87752557D01*
X71364292Y-87888815D01*
X71331968Y-88050000D01*
X71331968Y-88950000D01*
X71362300Y-89106332D01*
X71452557Y-89243733D01*
X71588815Y-89335708D01*
X71750000Y-89368032D01*
X72250000Y-89368032D01*
X72406332Y-89337700D01*
X72543733Y-89247443D01*
X72635708Y-89111185D01*
X72655999Y-89010000D01*
X72692621Y-89010000D01*
X72755847Y-89163017D01*
X73085248Y-89492994D01*
X73515852Y-89671796D01*
X73982102Y-89672203D01*
X74413017Y-89494153D01*
X74742994Y-89164752D01*
X74807252Y-89010000D01*
X78500000Y-89010000D01*
X78500000Y-89009999D01*
X78600572Y-88989995D01*
X78600572Y-88989995D01*
G37*
X78600572Y-88989995D02*
X77627567Y-89963000D01*
X71272432Y-89963000D01*
X71037000Y-89727568D01*
X71037000Y-89251865D01*
X71043733Y-89247443D01*
X71135708Y-89111185D01*
X71168032Y-88950000D01*
X71168032Y-88050000D01*
X71137700Y-87893668D01*
X71047443Y-87756267D01*
X70911185Y-87664292D01*
X70750000Y-87631968D01*
X70250000Y-87631968D01*
X70093668Y-87662300D01*
X70010000Y-87717260D01*
X70010000Y-86950000D01*
X69971179Y-86754831D01*
X69860624Y-86589376D01*
X69860624Y-86589375D01*
X67860624Y-84589376D01*
X67695169Y-84478821D01*
X67500000Y-84440000D01*
X66572812Y-84440000D01*
X66726493Y-84210000D01*
X72650000Y-84210000D01*
X72845169Y-84171179D01*
X73010624Y-84060624D01*
X73121179Y-83895169D01*
X73157207Y-83714041D01*
X73511248Y-83360000D01*
X73982000Y-83360000D01*
X73982000Y-83420500D01*
X74136500Y-83575000D01*
X74906000Y-83575000D01*
X74906000Y-83536000D01*
X75194000Y-83536000D01*
X75194000Y-83575000D01*
X75214000Y-83575000D01*
X75214000Y-83825000D01*
X75194000Y-83825000D01*
X75194000Y-84413500D01*
X75348500Y-84568000D01*
X75377072Y-84568000D01*
X75622928Y-84568000D01*
X75682000Y-84543531D01*
X75682000Y-84644002D01*
X75716408Y-84644002D01*
X75682000Y-84727072D01*
X75682000Y-84729500D01*
X75682000Y-84770500D01*
X75682000Y-84772928D01*
X75776085Y-85000069D01*
X75851016Y-85075000D01*
X75836500Y-85075000D01*
X75682000Y-85229500D01*
X75682000Y-85272928D01*
X75776085Y-85500069D01*
X75890000Y-85613984D01*
X75890000Y-87118751D01*
X74910624Y-86139376D01*
X74906000Y-86136286D01*
X74906000Y-84413500D01*
X74906000Y-83825000D01*
X74136500Y-83825000D01*
X73982000Y-83979500D01*
X73982000Y-84072928D01*
X74076085Y-84300069D01*
X74249931Y-84473915D01*
X74477072Y-84568000D01*
X74722928Y-84568000D01*
X74751500Y-84568000D01*
X74906000Y-84413500D01*
X74906000Y-86136286D01*
X74853261Y-86101047D01*
X74744153Y-85836983D01*
X74414752Y-85507006D01*
X73984148Y-85328204D01*
X73517898Y-85327797D01*
X73086983Y-85505847D01*
X72757006Y-85835248D01*
X72578204Y-86265852D01*
X72577797Y-86732102D01*
X72755847Y-87163017D01*
X73085248Y-87492994D01*
X73101628Y-87499795D01*
X73086983Y-87505847D01*
X72757006Y-87835248D01*
X72692747Y-87990000D01*
X72656390Y-87990000D01*
X72637700Y-87893668D01*
X72547443Y-87756267D01*
X72411185Y-87664292D01*
X72250000Y-87631968D01*
X71750000Y-87631968D01*
X71593668Y-87662300D01*
X71456267Y-87752557D01*
X71364292Y-87888815D01*
X71331968Y-88050000D01*
X71331968Y-88950000D01*
X71362300Y-89106332D01*
X71452557Y-89243733D01*
X71588815Y-89335708D01*
X71750000Y-89368032D01*
X72250000Y-89368032D01*
X72406332Y-89337700D01*
X72543733Y-89247443D01*
X72635708Y-89111185D01*
X72655999Y-89010000D01*
X72692621Y-89010000D01*
X72755847Y-89163017D01*
X73085248Y-89492994D01*
X73515852Y-89671796D01*
X73982102Y-89672203D01*
X74413017Y-89494153D01*
X74742994Y-89164752D01*
X74807252Y-89010000D01*
X78500000Y-89010000D01*
X78500000Y-89009999D01*
X78600572Y-88989995D01*
G36*
X79591080Y-67664000D02*
X79456267Y-67752557D01*
X79364292Y-67888815D01*
X79331968Y-68050000D01*
X79331968Y-68475291D01*
X79278821Y-68554831D01*
X79240000Y-68750000D01*
X79240000Y-69890000D01*
X78785000Y-69890000D01*
X78785000Y-69361241D01*
X78906332Y-69337700D01*
X79043733Y-69247443D01*
X79135708Y-69111185D01*
X79168032Y-68950000D01*
X79168032Y-68050000D01*
X79137700Y-67893668D01*
X79047443Y-67756267D01*
X78911185Y-67664292D01*
X78909728Y-67664000D01*
X79591080Y-67664000D01*
X79591080Y-67664000D01*
G37*
X79591080Y-67664000D02*
X79456267Y-67752557D01*
X79364292Y-67888815D01*
X79331968Y-68050000D01*
X79331968Y-68475291D01*
X79278821Y-68554831D01*
X79240000Y-68750000D01*
X79240000Y-69890000D01*
X78785000Y-69890000D01*
X78785000Y-69361241D01*
X78906332Y-69337700D01*
X79043733Y-69247443D01*
X79135708Y-69111185D01*
X79168032Y-68950000D01*
X79168032Y-68050000D01*
X79137700Y-67893668D01*
X79047443Y-67756267D01*
X78911185Y-67664292D01*
X78909728Y-67664000D01*
X79591080Y-67664000D01*
G36*
X79825838Y-109540000D02*
X60460000Y-109540000D01*
X60460000Y-72181248D01*
X60989376Y-72710625D01*
X61088559Y-72776896D01*
X61154831Y-72821179D01*
X61154832Y-72821179D01*
X61350000Y-72860000D01*
X61700000Y-72860000D01*
X61927096Y-72860000D01*
X61798396Y-73052614D01*
X61701449Y-73540000D01*
X61798396Y-74027386D01*
X62074478Y-74440571D01*
X62487663Y-74716653D01*
X62956950Y-74810000D01*
X62487663Y-74903347D01*
X62074478Y-75179429D01*
X61798396Y-75592614D01*
X61701449Y-76080000D01*
X61798396Y-76567386D01*
X62074478Y-76980571D01*
X62487663Y-77256653D01*
X62956950Y-77350000D01*
X62487663Y-77443347D01*
X62074478Y-77719429D01*
X61798396Y-78132614D01*
X61701449Y-78620000D01*
X61798396Y-79107386D01*
X62074478Y-79520571D01*
X62487663Y-79796653D01*
X62956950Y-79890000D01*
X62487663Y-79983347D01*
X62074478Y-80259429D01*
X61798396Y-80672614D01*
X61701449Y-81160000D01*
X61797229Y-81641521D01*
X60864376Y-82574376D01*
X60753821Y-82739831D01*
X60715000Y-82935000D01*
X60715000Y-101650000D01*
X60753821Y-101845169D01*
X60864376Y-102010624D01*
X60939376Y-102085624D01*
X61104831Y-102196179D01*
X61300000Y-102235000D01*
X65081122Y-102235000D01*
X65162366Y-102316385D01*
X65429656Y-102427374D01*
X65719074Y-102427626D01*
X65986558Y-102317104D01*
X66191385Y-102112634D01*
X66302374Y-101845344D01*
X66302626Y-101555926D01*
X66192104Y-101288442D01*
X65987634Y-101083615D01*
X65720344Y-100972626D01*
X65430926Y-100972374D01*
X65163442Y-101082896D01*
X65031107Y-101215000D01*
X61735000Y-101215000D01*
X61735000Y-99108672D01*
X61798396Y-99427386D01*
X62074478Y-99840571D01*
X62487663Y-100116653D01*
X62975049Y-100213600D01*
X63024951Y-100213600D01*
X63512337Y-100116653D01*
X63925522Y-99840571D01*
X64171915Y-99471818D01*
X64262385Y-99690248D01*
X64646745Y-100122061D01*
X65167095Y-100373916D01*
X65396000Y-100260097D01*
X65396000Y-99084000D01*
X65376000Y-99084000D01*
X65376000Y-98796000D01*
X65396000Y-98796000D01*
X65396000Y-98776000D01*
X65684000Y-98776000D01*
X65684000Y-98796000D01*
X65704000Y-98796000D01*
X65704000Y-99084000D01*
X65684000Y-99084000D01*
X65684000Y-100260097D01*
X65912905Y-100373916D01*
X66365000Y-100155097D01*
X66365000Y-101225000D01*
X66365000Y-103250000D01*
X66403821Y-103445169D01*
X66514376Y-103610624D01*
X70089375Y-107185624D01*
X70089376Y-107185624D01*
X70254831Y-107296179D01*
X70450000Y-107335000D01*
X78938835Y-107335000D01*
X78847626Y-107554656D01*
X78847374Y-107844074D01*
X78957896Y-108111558D01*
X79162366Y-108316385D01*
X79429656Y-108427374D01*
X79581257Y-108427506D01*
X79756968Y-108603216D01*
X79756968Y-109325000D01*
X79787300Y-109481332D01*
X79825838Y-109540000D01*
X79825838Y-109540000D01*
G37*
X79825838Y-109540000D02*
X60460000Y-109540000D01*
X60460000Y-72181248D01*
X60989376Y-72710625D01*
X61088559Y-72776896D01*
X61154831Y-72821179D01*
X61154832Y-72821179D01*
X61350000Y-72860000D01*
X61700000Y-72860000D01*
X61927096Y-72860000D01*
X61798396Y-73052614D01*
X61701449Y-73540000D01*
X61798396Y-74027386D01*
X62074478Y-74440571D01*
X62487663Y-74716653D01*
X62956950Y-74810000D01*
X62487663Y-74903347D01*
X62074478Y-75179429D01*
X61798396Y-75592614D01*
X61701449Y-76080000D01*
X61798396Y-76567386D01*
X62074478Y-76980571D01*
X62487663Y-77256653D01*
X62956950Y-77350000D01*
X62487663Y-77443347D01*
X62074478Y-77719429D01*
X61798396Y-78132614D01*
X61701449Y-78620000D01*
X61798396Y-79107386D01*
X62074478Y-79520571D01*
X62487663Y-79796653D01*
X62956950Y-79890000D01*
X62487663Y-79983347D01*
X62074478Y-80259429D01*
X61798396Y-80672614D01*
X61701449Y-81160000D01*
X61797229Y-81641521D01*
X60864376Y-82574376D01*
X60753821Y-82739831D01*
X60715000Y-82935000D01*
X60715000Y-101650000D01*
X60753821Y-101845169D01*
X60864376Y-102010624D01*
X60939376Y-102085624D01*
X61104831Y-102196179D01*
X61300000Y-102235000D01*
X65081122Y-102235000D01*
X65162366Y-102316385D01*
X65429656Y-102427374D01*
X65719074Y-102427626D01*
X65986558Y-102317104D01*
X66191385Y-102112634D01*
X66302374Y-101845344D01*
X66302626Y-101555926D01*
X66192104Y-101288442D01*
X65987634Y-101083615D01*
X65720344Y-100972626D01*
X65430926Y-100972374D01*
X65163442Y-101082896D01*
X65031107Y-101215000D01*
X61735000Y-101215000D01*
X61735000Y-99108672D01*
X61798396Y-99427386D01*
X62074478Y-99840571D01*
X62487663Y-100116653D01*
X62975049Y-100213600D01*
X63024951Y-100213600D01*
X63512337Y-100116653D01*
X63925522Y-99840571D01*
X64171915Y-99471818D01*
X64262385Y-99690248D01*
X64646745Y-100122061D01*
X65167095Y-100373916D01*
X65396000Y-100260097D01*
X65396000Y-99084000D01*
X65376000Y-99084000D01*
X65376000Y-98796000D01*
X65396000Y-98796000D01*
X65396000Y-98776000D01*
X65684000Y-98776000D01*
X65684000Y-98796000D01*
X65704000Y-98796000D01*
X65704000Y-99084000D01*
X65684000Y-99084000D01*
X65684000Y-100260097D01*
X65912905Y-100373916D01*
X66365000Y-100155097D01*
X66365000Y-101225000D01*
X66365000Y-103250000D01*
X66403821Y-103445169D01*
X66514376Y-103610624D01*
X70089375Y-107185624D01*
X70089376Y-107185624D01*
X70254831Y-107296179D01*
X70450000Y-107335000D01*
X78938835Y-107335000D01*
X78847626Y-107554656D01*
X78847374Y-107844074D01*
X78957896Y-108111558D01*
X79162366Y-108316385D01*
X79429656Y-108427374D01*
X79581257Y-108427506D01*
X79756968Y-108603216D01*
X79756968Y-109325000D01*
X79787300Y-109481332D01*
X79825838Y-109540000D01*
G36*
X82437016Y-67664000D02*
X82341357Y-67759658D01*
X82311185Y-67739292D01*
X82150000Y-67706968D01*
X81350000Y-67706968D01*
X81193668Y-67737300D01*
X81056267Y-67827557D01*
X80964292Y-67963815D01*
X80931968Y-68125000D01*
X80931968Y-68875000D01*
X80962300Y-69031332D01*
X81045603Y-69158147D01*
X80389376Y-69814376D01*
X80338844Y-69890000D01*
X80260000Y-69890000D01*
X80260000Y-69366091D01*
X80406332Y-69337700D01*
X80543733Y-69247443D01*
X80635708Y-69111185D01*
X80668032Y-68950000D01*
X80668032Y-68050000D01*
X80637700Y-67893668D01*
X80547443Y-67756267D01*
X80411185Y-67664292D01*
X80409728Y-67664000D01*
X82437016Y-67664000D01*
X82437016Y-67664000D01*
G37*
X82437016Y-67664000D02*
X82341357Y-67759658D01*
X82311185Y-67739292D01*
X82150000Y-67706968D01*
X81350000Y-67706968D01*
X81193668Y-67737300D01*
X81056267Y-67827557D01*
X80964292Y-67963815D01*
X80931968Y-68125000D01*
X80931968Y-68875000D01*
X80962300Y-69031332D01*
X81045603Y-69158147D01*
X80389376Y-69814376D01*
X80338844Y-69890000D01*
X80260000Y-69890000D01*
X80260000Y-69366091D01*
X80406332Y-69337700D01*
X80543733Y-69247443D01*
X80635708Y-69111185D01*
X80668032Y-68950000D01*
X80668032Y-68050000D01*
X80637700Y-67893668D01*
X80547443Y-67756267D01*
X80411185Y-67664292D01*
X80409728Y-67664000D01*
X82437016Y-67664000D01*
G36*
X92286000Y-68586000D02*
X91950552Y-68586000D01*
X91947443Y-68581267D01*
X91811185Y-68489292D01*
X91650000Y-68456968D01*
X90850000Y-68456968D01*
X90693668Y-68487300D01*
X90659034Y-68510050D01*
X90500069Y-68351085D01*
X90272928Y-68257000D01*
X90048500Y-68257000D01*
X89894000Y-68411500D01*
X89894000Y-69106000D01*
X89914000Y-69106000D01*
X89914000Y-69394000D01*
X89894000Y-69394000D01*
X89894000Y-69414000D01*
X89606000Y-69414000D01*
X89606000Y-69394000D01*
X89606000Y-69106000D01*
X89606000Y-68411500D01*
X89451500Y-68257000D01*
X89227072Y-68257000D01*
X88999931Y-68351085D01*
X88826085Y-68524931D01*
X88732000Y-68752072D01*
X88732000Y-68951500D01*
X88886500Y-69106000D01*
X89606000Y-69106000D01*
X89606000Y-69394000D01*
X88886500Y-69394000D01*
X88732000Y-69548500D01*
X88732000Y-69747928D01*
X88790848Y-69890000D01*
X84268000Y-69890000D01*
X84268000Y-68997928D01*
X84268000Y-68798500D01*
X84113500Y-68644000D01*
X83394000Y-68644000D01*
X83394000Y-69338500D01*
X83548500Y-69493000D01*
X83772928Y-69493000D01*
X84000069Y-69398915D01*
X84173915Y-69225069D01*
X84268000Y-68997928D01*
X84268000Y-69890000D01*
X81756248Y-69890000D01*
X82110624Y-69535624D01*
X82110625Y-69535624D01*
X82176896Y-69436440D01*
X82221179Y-69370169D01*
X82221179Y-69370168D01*
X82239995Y-69275570D01*
X82306332Y-69262700D01*
X82340965Y-69239949D01*
X82499931Y-69398915D01*
X82727072Y-69493000D01*
X82951500Y-69493000D01*
X83106000Y-69338500D01*
X83106000Y-68644000D01*
X83086000Y-68644000D01*
X83086000Y-68356000D01*
X83106000Y-68356000D01*
X83106000Y-68336000D01*
X83394000Y-68336000D01*
X83394000Y-68356000D01*
X84113500Y-68356000D01*
X84268000Y-68201500D01*
X84268000Y-68002072D01*
X84173915Y-67774931D01*
X84062984Y-67664000D01*
X92124962Y-67664000D01*
X92286000Y-67825038D01*
X92286000Y-68586000D01*
X92286000Y-68586000D01*
G37*
X92286000Y-68586000D02*
X91950552Y-68586000D01*
X91947443Y-68581267D01*
X91811185Y-68489292D01*
X91650000Y-68456968D01*
X90850000Y-68456968D01*
X90693668Y-68487300D01*
X90659034Y-68510050D01*
X90500069Y-68351085D01*
X90272928Y-68257000D01*
X90048500Y-68257000D01*
X89894000Y-68411500D01*
X89894000Y-69106000D01*
X89914000Y-69106000D01*
X89914000Y-69394000D01*
X89894000Y-69394000D01*
X89894000Y-69414000D01*
X89606000Y-69414000D01*
X89606000Y-69394000D01*
X89606000Y-69106000D01*
X89606000Y-68411500D01*
X89451500Y-68257000D01*
X89227072Y-68257000D01*
X88999931Y-68351085D01*
X88826085Y-68524931D01*
X88732000Y-68752072D01*
X88732000Y-68951500D01*
X88886500Y-69106000D01*
X89606000Y-69106000D01*
X89606000Y-69394000D01*
X88886500Y-69394000D01*
X88732000Y-69548500D01*
X88732000Y-69747928D01*
X88790848Y-69890000D01*
X84268000Y-69890000D01*
X84268000Y-68997928D01*
X84268000Y-68798500D01*
X84113500Y-68644000D01*
X83394000Y-68644000D01*
X83394000Y-69338500D01*
X83548500Y-69493000D01*
X83772928Y-69493000D01*
X84000069Y-69398915D01*
X84173915Y-69225069D01*
X84268000Y-68997928D01*
X84268000Y-69890000D01*
X81756248Y-69890000D01*
X82110624Y-69535624D01*
X82110625Y-69535624D01*
X82176896Y-69436440D01*
X82221179Y-69370169D01*
X82221179Y-69370168D01*
X82239995Y-69275570D01*
X82306332Y-69262700D01*
X82340965Y-69239949D01*
X82499931Y-69398915D01*
X82727072Y-69493000D01*
X82951500Y-69493000D01*
X83106000Y-69338500D01*
X83106000Y-68644000D01*
X83086000Y-68644000D01*
X83086000Y-68356000D01*
X83106000Y-68356000D01*
X83106000Y-68336000D01*
X83394000Y-68336000D01*
X83394000Y-68356000D01*
X84113500Y-68356000D01*
X84268000Y-68201500D01*
X84268000Y-68002072D01*
X84173915Y-67774931D01*
X84062984Y-67664000D01*
X92124962Y-67664000D01*
X92286000Y-67825038D01*
X92286000Y-68586000D01*
G36*
X102365000Y-61756166D02*
X102258615Y-61862366D01*
X102147626Y-62129656D01*
X102147392Y-62397500D01*
X74903117Y-62397500D01*
X74802811Y-62297194D01*
X74802809Y-62297191D01*
X74802805Y-62297188D01*
X74683533Y-62177707D01*
X74526238Y-62112393D01*
X74370317Y-62047649D01*
X74200006Y-62047500D01*
X74200000Y-62047499D01*
X74199993Y-62047500D01*
X74031171Y-62047353D01*
X73873763Y-62112392D01*
X73873762Y-62112393D01*
X73873760Y-62112393D01*
X73717729Y-62176865D01*
X73597194Y-62297188D01*
X73597191Y-62297191D01*
X73597188Y-62297194D01*
X73477707Y-62416467D01*
X73347649Y-62729683D01*
X73347500Y-62899993D01*
X73347499Y-62900000D01*
X73347500Y-62900005D01*
X73347500Y-62900006D01*
X73347500Y-62900401D01*
X73347353Y-63068829D01*
X73347500Y-63069184D01*
X73347500Y-63850000D01*
X73347500Y-63850001D01*
X73347353Y-64018829D01*
X73412392Y-64176236D01*
X73412393Y-64176238D01*
X73412393Y-64176239D01*
X73476865Y-64332271D01*
X73597188Y-64452805D01*
X73597191Y-64452809D01*
X73597194Y-64452811D01*
X73666761Y-64522500D01*
X69750000Y-64522500D01*
X69350000Y-64522500D01*
X69023762Y-64587393D01*
X68747191Y-64772191D01*
X68562393Y-65048762D01*
X68497500Y-65375000D01*
X68519708Y-65486648D01*
X66797357Y-67209000D01*
X64775000Y-67209000D01*
X64472297Y-67269211D01*
X64215678Y-67440679D01*
X62440679Y-69215679D01*
X62269211Y-69472297D01*
X62220264Y-69718368D01*
X62136400Y-69718368D01*
X61980068Y-69748700D01*
X61842667Y-69838957D01*
X61750692Y-69975215D01*
X61718368Y-70136400D01*
X61718368Y-71840000D01*
X61700000Y-71840000D01*
X61561248Y-71840000D01*
X61060000Y-71338751D01*
X61060000Y-62111248D01*
X62111248Y-61060000D01*
X65900000Y-61060000D01*
X96450000Y-61060000D01*
X96550000Y-61060000D01*
X100675000Y-61060000D01*
X101000000Y-61060000D01*
X101688751Y-61060000D01*
X102365000Y-61736248D01*
X102365000Y-61756166D01*
X102365000Y-61756166D01*
G37*
X102365000Y-61756166D02*
X102258615Y-61862366D01*
X102147626Y-62129656D01*
X102147392Y-62397500D01*
X74903117Y-62397500D01*
X74802811Y-62297194D01*
X74802809Y-62297191D01*
X74802805Y-62297188D01*
X74683533Y-62177707D01*
X74526238Y-62112393D01*
X74370317Y-62047649D01*
X74200006Y-62047500D01*
X74200000Y-62047499D01*
X74199993Y-62047500D01*
X74031171Y-62047353D01*
X73873763Y-62112392D01*
X73873762Y-62112393D01*
X73873760Y-62112393D01*
X73717729Y-62176865D01*
X73597194Y-62297188D01*
X73597191Y-62297191D01*
X73597188Y-62297194D01*
X73477707Y-62416467D01*
X73347649Y-62729683D01*
X73347500Y-62899993D01*
X73347499Y-62900000D01*
X73347500Y-62900005D01*
X73347500Y-62900006D01*
X73347500Y-62900401D01*
X73347353Y-63068829D01*
X73347500Y-63069184D01*
X73347500Y-63850000D01*
X73347500Y-63850001D01*
X73347353Y-64018829D01*
X73412392Y-64176236D01*
X73412393Y-64176238D01*
X73412393Y-64176239D01*
X73476865Y-64332271D01*
X73597188Y-64452805D01*
X73597191Y-64452809D01*
X73597194Y-64452811D01*
X73666761Y-64522500D01*
X69750000Y-64522500D01*
X69350000Y-64522500D01*
X69023762Y-64587393D01*
X68747191Y-64772191D01*
X68562393Y-65048762D01*
X68497500Y-65375000D01*
X68519708Y-65486648D01*
X66797357Y-67209000D01*
X64775000Y-67209000D01*
X64472297Y-67269211D01*
X64215678Y-67440679D01*
X62440679Y-69215679D01*
X62269211Y-69472297D01*
X62220264Y-69718368D01*
X62136400Y-69718368D01*
X61980068Y-69748700D01*
X61842667Y-69838957D01*
X61750692Y-69975215D01*
X61718368Y-70136400D01*
X61718368Y-71840000D01*
X61700000Y-71840000D01*
X61561248Y-71840000D01*
X61060000Y-71338751D01*
X61060000Y-62111248D01*
X62111248Y-61060000D01*
X65900000Y-61060000D01*
X96450000Y-61060000D01*
X96550000Y-61060000D01*
X100675000Y-61060000D01*
X101000000Y-61060000D01*
X101688751Y-61060000D01*
X102365000Y-61736248D01*
X102365000Y-61756166D01*
G36*
X103357901Y-74490000D02*
X102200000Y-74490000D01*
X102175000Y-74490000D01*
X93818000Y-74490000D01*
X93818000Y-74355998D01*
X93732502Y-74355998D01*
X93818000Y-74270500D01*
X93818000Y-74227072D01*
X93728085Y-74010000D01*
X102375000Y-74010000D01*
X102450000Y-74010000D01*
X102475000Y-74010000D01*
X102650000Y-74010000D01*
X103238751Y-74010000D01*
X103340000Y-74111248D01*
X103340000Y-74400000D01*
X103357901Y-74490000D01*
X103357901Y-74490000D01*
G37*
X103357901Y-74490000D02*
X102200000Y-74490000D01*
X102175000Y-74490000D01*
X93818000Y-74490000D01*
X93818000Y-74355998D01*
X93732502Y-74355998D01*
X93818000Y-74270500D01*
X93818000Y-74227072D01*
X93728085Y-74010000D01*
X102375000Y-74010000D01*
X102450000Y-74010000D01*
X102475000Y-74010000D01*
X102650000Y-74010000D01*
X103238751Y-74010000D01*
X103340000Y-74111248D01*
X103340000Y-74400000D01*
X103357901Y-74490000D01*
G36*
X103917074Y-94565000D02*
X102850000Y-94565000D01*
X102654831Y-94603821D01*
X102489375Y-94714376D01*
X100914376Y-96289376D01*
X100803821Y-96454831D01*
X100765000Y-96650000D01*
X100765000Y-99000000D01*
X100765000Y-99025000D01*
X100765000Y-101550000D01*
X100765000Y-102838751D01*
X100375076Y-103228675D01*
X100375076Y-94375941D01*
X100375076Y-93624059D01*
X100178008Y-93080415D01*
X99787898Y-92653568D01*
X99282903Y-92413695D01*
X99054000Y-92528336D01*
X99054000Y-93856000D01*
X100237508Y-93856000D01*
X100375076Y-93624059D01*
X100375076Y-94375941D01*
X100237508Y-94144000D01*
X99054000Y-94144000D01*
X99054000Y-95471664D01*
X99282903Y-95586305D01*
X99787898Y-95346432D01*
X100178008Y-94919585D01*
X100375076Y-94375941D01*
X100375076Y-103228675D01*
X99863751Y-103740000D01*
X79952688Y-103740000D01*
X80002374Y-103620344D01*
X80002440Y-103543454D01*
X80125000Y-103568032D01*
X80875000Y-103568032D01*
X81031332Y-103537700D01*
X81168733Y-103447443D01*
X81260708Y-103311185D01*
X81293032Y-103150000D01*
X81293032Y-102350000D01*
X81262700Y-102193668D01*
X81172443Y-102056267D01*
X81088907Y-101999879D01*
X81168733Y-101947443D01*
X81260708Y-101811185D01*
X81270972Y-101760000D01*
X81633908Y-101760000D01*
X81662300Y-101906332D01*
X81752557Y-102043733D01*
X81888815Y-102135708D01*
X82050000Y-102168032D01*
X82950000Y-102168032D01*
X83106332Y-102137700D01*
X83243733Y-102047443D01*
X83335708Y-101911185D01*
X83368032Y-101750000D01*
X83368032Y-101250000D01*
X83337700Y-101093668D01*
X83247443Y-100956267D01*
X83111185Y-100864292D01*
X82950000Y-100831968D01*
X82524708Y-100831968D01*
X82445169Y-100778821D01*
X82250000Y-100740000D01*
X81271689Y-100740000D01*
X81262700Y-100693668D01*
X81172443Y-100556267D01*
X81036185Y-100464292D01*
X80875000Y-100431968D01*
X80125000Y-100431968D01*
X79968668Y-100462300D01*
X79831267Y-100552557D01*
X79739292Y-100688815D01*
X79706968Y-100850000D01*
X79706968Y-101165000D01*
X79700000Y-101165000D01*
X79093032Y-101165000D01*
X79093032Y-100800000D01*
X79062700Y-100643668D01*
X78972443Y-100506267D01*
X78836185Y-100414292D01*
X78675000Y-100381968D01*
X78460000Y-100381968D01*
X78460000Y-98787000D01*
X78998134Y-98787000D01*
X79002557Y-98793733D01*
X79138815Y-98885708D01*
X79300000Y-98918032D01*
X80200000Y-98918032D01*
X80356332Y-98887700D01*
X80493733Y-98797443D01*
X80519007Y-98760000D01*
X81990000Y-98760000D01*
X81990000Y-99343609D01*
X81893668Y-99362300D01*
X81756267Y-99452557D01*
X81664292Y-99588815D01*
X81631968Y-99750000D01*
X81631968Y-100250000D01*
X81662300Y-100406332D01*
X81752557Y-100543733D01*
X81888815Y-100635708D01*
X82050000Y-100668032D01*
X82950000Y-100668032D01*
X83106332Y-100637700D01*
X83243733Y-100547443D01*
X83335708Y-100411185D01*
X83368032Y-100250000D01*
X83368032Y-99750000D01*
X83337700Y-99593668D01*
X83247443Y-99456267D01*
X83111185Y-99364292D01*
X83010000Y-99344000D01*
X83010000Y-98500000D01*
X82971179Y-98304831D01*
X82860624Y-98139376D01*
X82860624Y-98139375D01*
X82610624Y-97889376D01*
X82445169Y-97778821D01*
X82250000Y-97740000D01*
X80519601Y-97740000D01*
X80497443Y-97706267D01*
X80361185Y-97614292D01*
X80200000Y-97581968D01*
X79300000Y-97581968D01*
X79143668Y-97612300D01*
X79006267Y-97702557D01*
X78999217Y-97713000D01*
X78320050Y-97713000D01*
X78343733Y-97697443D01*
X78435708Y-97561185D01*
X78468032Y-97400000D01*
X78468032Y-96500000D01*
X78437700Y-96343668D01*
X78347443Y-96206267D01*
X78211185Y-96114292D01*
X78050000Y-96081968D01*
X77550000Y-96081968D01*
X77393668Y-96112300D01*
X77256267Y-96202557D01*
X77164292Y-96338815D01*
X77131968Y-96500000D01*
X77131968Y-97400000D01*
X77162300Y-97556332D01*
X77252557Y-97693733D01*
X77281100Y-97713000D01*
X76820050Y-97713000D01*
X76843733Y-97697443D01*
X76935708Y-97561185D01*
X76968032Y-97400000D01*
X76968032Y-96500000D01*
X76937700Y-96343668D01*
X76847443Y-96206267D01*
X76760000Y-96147242D01*
X76760000Y-95434032D01*
X77266000Y-95434032D01*
X77422332Y-95403700D01*
X77559733Y-95313443D01*
X77651708Y-95177185D01*
X77684032Y-95016000D01*
X77684032Y-92984000D01*
X77653700Y-92827668D01*
X77563443Y-92690267D01*
X77427185Y-92598292D01*
X77382014Y-92589233D01*
X79240000Y-90731248D01*
X79240000Y-96093609D01*
X79143668Y-96112300D01*
X79006267Y-96202557D01*
X78914292Y-96338815D01*
X78881968Y-96500000D01*
X78881968Y-97000000D01*
X78912300Y-97156332D01*
X79002557Y-97293733D01*
X79138815Y-97385708D01*
X79300000Y-97418032D01*
X80200000Y-97418032D01*
X80356332Y-97387700D01*
X80493733Y-97297443D01*
X80585708Y-97161185D01*
X80618032Y-97000000D01*
X80618032Y-96500000D01*
X80587700Y-96343668D01*
X80497443Y-96206267D01*
X80361185Y-96114292D01*
X80260000Y-96094000D01*
X80260000Y-90661248D01*
X82110624Y-88810625D01*
X82110624Y-88810624D01*
X82221179Y-88645169D01*
X82259999Y-88450000D01*
X82260000Y-88450000D01*
X82260000Y-88068000D01*
X82394002Y-88068000D01*
X82394002Y-88033590D01*
X82477072Y-88068000D01*
X82479500Y-88068000D01*
X82520500Y-88068000D01*
X82522928Y-88068000D01*
X82605998Y-88033590D01*
X82605998Y-88068000D01*
X82740000Y-88068000D01*
X82740000Y-92565968D01*
X81234000Y-92565968D01*
X81077668Y-92596300D01*
X80940267Y-92686557D01*
X80848292Y-92822815D01*
X80815968Y-92984000D01*
X80815968Y-95016000D01*
X80846300Y-95172332D01*
X80936557Y-95309733D01*
X81072815Y-95401708D01*
X81234000Y-95434032D01*
X83266000Y-95434032D01*
X83422332Y-95403700D01*
X83559733Y-95313443D01*
X83651708Y-95177185D01*
X83684032Y-95016000D01*
X83684032Y-94890151D01*
X83781666Y-95036271D01*
X84244293Y-95345389D01*
X84790000Y-95453937D01*
X85335707Y-95345389D01*
X85798334Y-95036271D01*
X86107452Y-94573644D01*
X86216000Y-94027937D01*
X86216000Y-93972063D01*
X86107452Y-93426356D01*
X85798334Y-92963729D01*
X85335707Y-92654611D01*
X84790000Y-92546063D01*
X84260000Y-92651486D01*
X84260000Y-88068000D01*
X84394002Y-88068000D01*
X84394002Y-88033590D01*
X84477072Y-88068000D01*
X84479500Y-88068000D01*
X84520500Y-88068000D01*
X84522928Y-88068000D01*
X84750069Y-87973915D01*
X84825000Y-87898984D01*
X84825000Y-87913500D01*
X84979500Y-88068000D01*
X85022928Y-88068000D01*
X85240000Y-87978085D01*
X85240000Y-91000000D01*
X85278821Y-91195169D01*
X85389376Y-91360624D01*
X87468368Y-93439616D01*
X87468368Y-95016000D01*
X87498700Y-95172332D01*
X87588957Y-95309733D01*
X87725215Y-95401708D01*
X87886400Y-95434032D01*
X89613600Y-95434032D01*
X89769932Y-95403700D01*
X89907333Y-95313443D01*
X89999308Y-95177185D01*
X90031632Y-95016000D01*
X90031632Y-94256913D01*
X90113347Y-94667723D01*
X90389429Y-95080908D01*
X90802614Y-95356990D01*
X91290000Y-95453937D01*
X91777386Y-95356990D01*
X92190571Y-95080908D01*
X92466653Y-94667723D01*
X92560000Y-94198435D01*
X92653347Y-94667723D01*
X92929429Y-95080908D01*
X93342614Y-95356990D01*
X93830000Y-95453937D01*
X94317386Y-95356990D01*
X94730571Y-95080908D01*
X95006653Y-94667723D01*
X95100000Y-94198435D01*
X95193347Y-94667723D01*
X95469429Y-95080908D01*
X95882614Y-95356990D01*
X96370000Y-95453937D01*
X96857386Y-95356990D01*
X97270571Y-95080908D01*
X97546653Y-94667723D01*
X97548084Y-94660526D01*
X97641992Y-94919585D01*
X98032102Y-95346432D01*
X98537097Y-95586305D01*
X98766000Y-95471664D01*
X98766000Y-94144000D01*
X98746000Y-94144000D01*
X98746000Y-93856000D01*
X98766000Y-93856000D01*
X98766000Y-92528336D01*
X98537097Y-92413695D01*
X98032102Y-92653568D01*
X97641992Y-93080415D01*
X97548084Y-93339473D01*
X97546653Y-93332277D01*
X97270571Y-92919092D01*
X96857386Y-92643010D01*
X96370000Y-92546063D01*
X95882614Y-92643010D01*
X95793681Y-92702433D01*
X94368000Y-91276752D01*
X94368000Y-89747928D01*
X94368000Y-89502072D01*
X94368000Y-89298500D01*
X94368000Y-88701500D01*
X94368000Y-88497928D01*
X94368000Y-88252072D01*
X94273915Y-88024931D01*
X94100069Y-87851085D01*
X93872928Y-87757000D01*
X93548500Y-87757000D01*
X93394000Y-87911500D01*
X93394000Y-88856000D01*
X94213500Y-88856000D01*
X94368000Y-88701500D01*
X94368000Y-89298500D01*
X94213500Y-89144000D01*
X93394000Y-89144000D01*
X93394000Y-90088500D01*
X93548500Y-90243000D01*
X93872928Y-90243000D01*
X94100069Y-90148915D01*
X94273915Y-89975069D01*
X94368000Y-89747928D01*
X94368000Y-91276752D01*
X93780624Y-90689376D01*
X93615169Y-90578821D01*
X93420000Y-90540000D01*
X90611248Y-90540000D01*
X88760000Y-88688751D01*
X88760000Y-88068000D01*
X88894002Y-88068000D01*
X88894002Y-88033590D01*
X88977072Y-88068000D01*
X88979500Y-88068000D01*
X89020500Y-88068000D01*
X89022928Y-88068000D01*
X89250000Y-87973943D01*
X89477072Y-88068000D01*
X89479500Y-88068000D01*
X89520500Y-88068000D01*
X89522928Y-88068000D01*
X89750000Y-87973943D01*
X89977072Y-88068000D01*
X89979500Y-88068000D01*
X90020500Y-88068000D01*
X90022928Y-88068000D01*
X90105998Y-88033591D01*
X90105998Y-88068000D01*
X90213000Y-88068000D01*
X90213000Y-88500000D01*
X90253877Y-88705501D01*
X90331968Y-88822372D01*
X90331968Y-89625000D01*
X90362300Y-89781332D01*
X90452557Y-89918733D01*
X90588815Y-90010708D01*
X90750000Y-90043032D01*
X91750000Y-90043032D01*
X91906332Y-90012700D01*
X92043733Y-89922443D01*
X92135708Y-89786185D01*
X92139667Y-89766439D01*
X92226085Y-89975069D01*
X92399931Y-90148915D01*
X92627072Y-90243000D01*
X92951500Y-90243000D01*
X93106000Y-90088500D01*
X93106000Y-89144000D01*
X93086000Y-89144000D01*
X93086000Y-88856000D01*
X93106000Y-88856000D01*
X93106000Y-87911500D01*
X92951500Y-87757000D01*
X92627072Y-87757000D01*
X92399931Y-87851085D01*
X92226085Y-88024931D01*
X92140295Y-88232045D01*
X92137700Y-88218668D01*
X92047443Y-88081267D01*
X91911185Y-87989292D01*
X91750000Y-87956968D01*
X91287000Y-87956968D01*
X91287000Y-87610000D01*
X93610000Y-87610000D01*
X93610000Y-85613984D01*
X93723915Y-85500069D01*
X93818000Y-85272928D01*
X93818000Y-85229500D01*
X93663500Y-85075000D01*
X93648984Y-85075000D01*
X93723915Y-85000069D01*
X93818000Y-84772928D01*
X93818000Y-84770500D01*
X93818000Y-84729500D01*
X93818000Y-84727072D01*
X93723943Y-84500000D01*
X93818000Y-84272928D01*
X93818000Y-84270500D01*
X93818000Y-84229500D01*
X93818000Y-84227072D01*
X93723943Y-84000000D01*
X93818000Y-83772928D01*
X93818000Y-83770500D01*
X93818000Y-83729500D01*
X93818000Y-83727072D01*
X93723915Y-83499931D01*
X93648984Y-83425000D01*
X93663500Y-83425000D01*
X93818000Y-83270500D01*
X93818000Y-83227072D01*
X93723943Y-83000000D01*
X93818000Y-82772928D01*
X93818000Y-82729500D01*
X93732502Y-82644002D01*
X93818000Y-82644002D01*
X93818000Y-82510000D01*
X98213751Y-82510000D01*
X98290000Y-82586248D01*
X98290000Y-89400000D01*
X98328821Y-89595169D01*
X98439376Y-89760624D01*
X102939376Y-94260624D01*
X103104831Y-94371179D01*
X103300000Y-94410000D01*
X103813506Y-94410000D01*
X103917074Y-94565000D01*
X103917074Y-94565000D01*
G37*
X103917074Y-94565000D02*
X102850000Y-94565000D01*
X102654831Y-94603821D01*
X102489375Y-94714376D01*
X100914376Y-96289376D01*
X100803821Y-96454831D01*
X100765000Y-96650000D01*
X100765000Y-99000000D01*
X100765000Y-99025000D01*
X100765000Y-101550000D01*
X100765000Y-102838751D01*
X100375076Y-103228675D01*
X100375076Y-94375941D01*
X100375076Y-93624059D01*
X100178008Y-93080415D01*
X99787898Y-92653568D01*
X99282903Y-92413695D01*
X99054000Y-92528336D01*
X99054000Y-93856000D01*
X100237508Y-93856000D01*
X100375076Y-93624059D01*
X100375076Y-94375941D01*
X100237508Y-94144000D01*
X99054000Y-94144000D01*
X99054000Y-95471664D01*
X99282903Y-95586305D01*
X99787898Y-95346432D01*
X100178008Y-94919585D01*
X100375076Y-94375941D01*
X100375076Y-103228675D01*
X99863751Y-103740000D01*
X79952688Y-103740000D01*
X80002374Y-103620344D01*
X80002440Y-103543454D01*
X80125000Y-103568032D01*
X80875000Y-103568032D01*
X81031332Y-103537700D01*
X81168733Y-103447443D01*
X81260708Y-103311185D01*
X81293032Y-103150000D01*
X81293032Y-102350000D01*
X81262700Y-102193668D01*
X81172443Y-102056267D01*
X81088907Y-101999879D01*
X81168733Y-101947443D01*
X81260708Y-101811185D01*
X81270972Y-101760000D01*
X81633908Y-101760000D01*
X81662300Y-101906332D01*
X81752557Y-102043733D01*
X81888815Y-102135708D01*
X82050000Y-102168032D01*
X82950000Y-102168032D01*
X83106332Y-102137700D01*
X83243733Y-102047443D01*
X83335708Y-101911185D01*
X83368032Y-101750000D01*
X83368032Y-101250000D01*
X83337700Y-101093668D01*
X83247443Y-100956267D01*
X83111185Y-100864292D01*
X82950000Y-100831968D01*
X82524708Y-100831968D01*
X82445169Y-100778821D01*
X82250000Y-100740000D01*
X81271689Y-100740000D01*
X81262700Y-100693668D01*
X81172443Y-100556267D01*
X81036185Y-100464292D01*
X80875000Y-100431968D01*
X80125000Y-100431968D01*
X79968668Y-100462300D01*
X79831267Y-100552557D01*
X79739292Y-100688815D01*
X79706968Y-100850000D01*
X79706968Y-101165000D01*
X79700000Y-101165000D01*
X79093032Y-101165000D01*
X79093032Y-100800000D01*
X79062700Y-100643668D01*
X78972443Y-100506267D01*
X78836185Y-100414292D01*
X78675000Y-100381968D01*
X78460000Y-100381968D01*
X78460000Y-98787000D01*
X78998134Y-98787000D01*
X79002557Y-98793733D01*
X79138815Y-98885708D01*
X79300000Y-98918032D01*
X80200000Y-98918032D01*
X80356332Y-98887700D01*
X80493733Y-98797443D01*
X80519007Y-98760000D01*
X81990000Y-98760000D01*
X81990000Y-99343609D01*
X81893668Y-99362300D01*
X81756267Y-99452557D01*
X81664292Y-99588815D01*
X81631968Y-99750000D01*
X81631968Y-100250000D01*
X81662300Y-100406332D01*
X81752557Y-100543733D01*
X81888815Y-100635708D01*
X82050000Y-100668032D01*
X82950000Y-100668032D01*
X83106332Y-100637700D01*
X83243733Y-100547443D01*
X83335708Y-100411185D01*
X83368032Y-100250000D01*
X83368032Y-99750000D01*
X83337700Y-99593668D01*
X83247443Y-99456267D01*
X83111185Y-99364292D01*
X83010000Y-99344000D01*
X83010000Y-98500000D01*
X82971179Y-98304831D01*
X82860624Y-98139376D01*
X82860624Y-98139375D01*
X82610624Y-97889376D01*
X82445169Y-97778821D01*
X82250000Y-97740000D01*
X80519601Y-97740000D01*
X80497443Y-97706267D01*
X80361185Y-97614292D01*
X80200000Y-97581968D01*
X79300000Y-97581968D01*
X79143668Y-97612300D01*
X79006267Y-97702557D01*
X78999217Y-97713000D01*
X78320050Y-97713000D01*
X78343733Y-97697443D01*
X78435708Y-97561185D01*
X78468032Y-97400000D01*
X78468032Y-96500000D01*
X78437700Y-96343668D01*
X78347443Y-96206267D01*
X78211185Y-96114292D01*
X78050000Y-96081968D01*
X77550000Y-96081968D01*
X77393668Y-96112300D01*
X77256267Y-96202557D01*
X77164292Y-96338815D01*
X77131968Y-96500000D01*
X77131968Y-97400000D01*
X77162300Y-97556332D01*
X77252557Y-97693733D01*
X77281100Y-97713000D01*
X76820050Y-97713000D01*
X76843733Y-97697443D01*
X76935708Y-97561185D01*
X76968032Y-97400000D01*
X76968032Y-96500000D01*
X76937700Y-96343668D01*
X76847443Y-96206267D01*
X76760000Y-96147242D01*
X76760000Y-95434032D01*
X77266000Y-95434032D01*
X77422332Y-95403700D01*
X77559733Y-95313443D01*
X77651708Y-95177185D01*
X77684032Y-95016000D01*
X77684032Y-92984000D01*
X77653700Y-92827668D01*
X77563443Y-92690267D01*
X77427185Y-92598292D01*
X77382014Y-92589233D01*
X79240000Y-90731248D01*
X79240000Y-96093609D01*
X79143668Y-96112300D01*
X79006267Y-96202557D01*
X78914292Y-96338815D01*
X78881968Y-96500000D01*
X78881968Y-97000000D01*
X78912300Y-97156332D01*
X79002557Y-97293733D01*
X79138815Y-97385708D01*
X79300000Y-97418032D01*
X80200000Y-97418032D01*
X80356332Y-97387700D01*
X80493733Y-97297443D01*
X80585708Y-97161185D01*
X80618032Y-97000000D01*
X80618032Y-96500000D01*
X80587700Y-96343668D01*
X80497443Y-96206267D01*
X80361185Y-96114292D01*
X80260000Y-96094000D01*
X80260000Y-90661248D01*
X82110624Y-88810625D01*
X82110624Y-88810624D01*
X82221179Y-88645169D01*
X82259999Y-88450000D01*
X82260000Y-88450000D01*
X82260000Y-88068000D01*
X82394002Y-88068000D01*
X82394002Y-88033590D01*
X82477072Y-88068000D01*
X82479500Y-88068000D01*
X82520500Y-88068000D01*
X82522928Y-88068000D01*
X82605998Y-88033590D01*
X82605998Y-88068000D01*
X82740000Y-88068000D01*
X82740000Y-92565968D01*
X81234000Y-92565968D01*
X81077668Y-92596300D01*
X80940267Y-92686557D01*
X80848292Y-92822815D01*
X80815968Y-92984000D01*
X80815968Y-95016000D01*
X80846300Y-95172332D01*
X80936557Y-95309733D01*
X81072815Y-95401708D01*
X81234000Y-95434032D01*
X83266000Y-95434032D01*
X83422332Y-95403700D01*
X83559733Y-95313443D01*
X83651708Y-95177185D01*
X83684032Y-95016000D01*
X83684032Y-94890151D01*
X83781666Y-95036271D01*
X84244293Y-95345389D01*
X84790000Y-95453937D01*
X85335707Y-95345389D01*
X85798334Y-95036271D01*
X86107452Y-94573644D01*
X86216000Y-94027937D01*
X86216000Y-93972063D01*
X86107452Y-93426356D01*
X85798334Y-92963729D01*
X85335707Y-92654611D01*
X84790000Y-92546063D01*
X84260000Y-92651486D01*
X84260000Y-88068000D01*
X84394002Y-88068000D01*
X84394002Y-88033590D01*
X84477072Y-88068000D01*
X84479500Y-88068000D01*
X84520500Y-88068000D01*
X84522928Y-88068000D01*
X84750069Y-87973915D01*
X84825000Y-87898984D01*
X84825000Y-87913500D01*
X84979500Y-88068000D01*
X85022928Y-88068000D01*
X85240000Y-87978085D01*
X85240000Y-91000000D01*
X85278821Y-91195169D01*
X85389376Y-91360624D01*
X87468368Y-93439616D01*
X87468368Y-95016000D01*
X87498700Y-95172332D01*
X87588957Y-95309733D01*
X87725215Y-95401708D01*
X87886400Y-95434032D01*
X89613600Y-95434032D01*
X89769932Y-95403700D01*
X89907333Y-95313443D01*
X89999308Y-95177185D01*
X90031632Y-95016000D01*
X90031632Y-94256913D01*
X90113347Y-94667723D01*
X90389429Y-95080908D01*
X90802614Y-95356990D01*
X91290000Y-95453937D01*
X91777386Y-95356990D01*
X92190571Y-95080908D01*
X92466653Y-94667723D01*
X92560000Y-94198435D01*
X92653347Y-94667723D01*
X92929429Y-95080908D01*
X93342614Y-95356990D01*
X93830000Y-95453937D01*
X94317386Y-95356990D01*
X94730571Y-95080908D01*
X95006653Y-94667723D01*
X95100000Y-94198435D01*
X95193347Y-94667723D01*
X95469429Y-95080908D01*
X95882614Y-95356990D01*
X96370000Y-95453937D01*
X96857386Y-95356990D01*
X97270571Y-95080908D01*
X97546653Y-94667723D01*
X97548084Y-94660526D01*
X97641992Y-94919585D01*
X98032102Y-95346432D01*
X98537097Y-95586305D01*
X98766000Y-95471664D01*
X98766000Y-94144000D01*
X98746000Y-94144000D01*
X98746000Y-93856000D01*
X98766000Y-93856000D01*
X98766000Y-92528336D01*
X98537097Y-92413695D01*
X98032102Y-92653568D01*
X97641992Y-93080415D01*
X97548084Y-93339473D01*
X97546653Y-93332277D01*
X97270571Y-92919092D01*
X96857386Y-92643010D01*
X96370000Y-92546063D01*
X95882614Y-92643010D01*
X95793681Y-92702433D01*
X94368000Y-91276752D01*
X94368000Y-89747928D01*
X94368000Y-89502072D01*
X94368000Y-89298500D01*
X94368000Y-88701500D01*
X94368000Y-88497928D01*
X94368000Y-88252072D01*
X94273915Y-88024931D01*
X94100069Y-87851085D01*
X93872928Y-87757000D01*
X93548500Y-87757000D01*
X93394000Y-87911500D01*
X93394000Y-88856000D01*
X94213500Y-88856000D01*
X94368000Y-88701500D01*
X94368000Y-89298500D01*
X94213500Y-89144000D01*
X93394000Y-89144000D01*
X93394000Y-90088500D01*
X93548500Y-90243000D01*
X93872928Y-90243000D01*
X94100069Y-90148915D01*
X94273915Y-89975069D01*
X94368000Y-89747928D01*
X94368000Y-91276752D01*
X93780624Y-90689376D01*
X93615169Y-90578821D01*
X93420000Y-90540000D01*
X90611248Y-90540000D01*
X88760000Y-88688751D01*
X88760000Y-88068000D01*
X88894002Y-88068000D01*
X88894002Y-88033590D01*
X88977072Y-88068000D01*
X88979500Y-88068000D01*
X89020500Y-88068000D01*
X89022928Y-88068000D01*
X89250000Y-87973943D01*
X89477072Y-88068000D01*
X89479500Y-88068000D01*
X89520500Y-88068000D01*
X89522928Y-88068000D01*
X89750000Y-87973943D01*
X89977072Y-88068000D01*
X89979500Y-88068000D01*
X90020500Y-88068000D01*
X90022928Y-88068000D01*
X90105998Y-88033591D01*
X90105998Y-88068000D01*
X90213000Y-88068000D01*
X90213000Y-88500000D01*
X90253877Y-88705501D01*
X90331968Y-88822372D01*
X90331968Y-89625000D01*
X90362300Y-89781332D01*
X90452557Y-89918733D01*
X90588815Y-90010708D01*
X90750000Y-90043032D01*
X91750000Y-90043032D01*
X91906332Y-90012700D01*
X92043733Y-89922443D01*
X92135708Y-89786185D01*
X92139667Y-89766439D01*
X92226085Y-89975069D01*
X92399931Y-90148915D01*
X92627072Y-90243000D01*
X92951500Y-90243000D01*
X93106000Y-90088500D01*
X93106000Y-89144000D01*
X93086000Y-89144000D01*
X93086000Y-88856000D01*
X93106000Y-88856000D01*
X93106000Y-87911500D01*
X92951500Y-87757000D01*
X92627072Y-87757000D01*
X92399931Y-87851085D01*
X92226085Y-88024931D01*
X92140295Y-88232045D01*
X92137700Y-88218668D01*
X92047443Y-88081267D01*
X91911185Y-87989292D01*
X91750000Y-87956968D01*
X91287000Y-87956968D01*
X91287000Y-87610000D01*
X93610000Y-87610000D01*
X93610000Y-85613984D01*
X93723915Y-85500069D01*
X93818000Y-85272928D01*
X93818000Y-85229500D01*
X93663500Y-85075000D01*
X93648984Y-85075000D01*
X93723915Y-85000069D01*
X93818000Y-84772928D01*
X93818000Y-84770500D01*
X93818000Y-84729500D01*
X93818000Y-84727072D01*
X93723943Y-84500000D01*
X93818000Y-84272928D01*
X93818000Y-84270500D01*
X93818000Y-84229500D01*
X93818000Y-84227072D01*
X93723943Y-84000000D01*
X93818000Y-83772928D01*
X93818000Y-83770500D01*
X93818000Y-83729500D01*
X93818000Y-83727072D01*
X93723915Y-83499931D01*
X93648984Y-83425000D01*
X93663500Y-83425000D01*
X93818000Y-83270500D01*
X93818000Y-83227072D01*
X93723943Y-83000000D01*
X93818000Y-82772928D01*
X93818000Y-82729500D01*
X93732502Y-82644002D01*
X93818000Y-82644002D01*
X93818000Y-82510000D01*
X98213751Y-82510000D01*
X98290000Y-82586248D01*
X98290000Y-89400000D01*
X98328821Y-89595169D01*
X98439376Y-89760624D01*
X102939376Y-94260624D01*
X103104831Y-94371179D01*
X103300000Y-94410000D01*
X103813506Y-94410000D01*
X103917074Y-94565000D01*
G36*
X104898472Y-69781632D02*
X104487663Y-69863347D01*
X104074478Y-70139429D01*
X104042357Y-70187500D01*
X103743117Y-70187500D01*
X101802500Y-68246882D01*
X101802500Y-67250000D01*
X101737607Y-66923763D01*
X101737607Y-66923762D01*
X101552809Y-66647191D01*
X101552805Y-66647188D01*
X99677809Y-64772191D01*
X99401238Y-64587393D01*
X99347110Y-64576626D01*
X99075000Y-64522499D01*
X99074994Y-64522500D01*
X96275000Y-64522500D01*
X74732994Y-64522500D01*
X74802805Y-64452811D01*
X74802809Y-64452809D01*
X74802811Y-64452805D01*
X74922293Y-64333533D01*
X74987607Y-64176238D01*
X75018225Y-64102500D01*
X102122606Y-64102500D01*
X102122374Y-64369074D01*
X102232896Y-64636558D01*
X102437366Y-64841385D01*
X102704656Y-64952374D01*
X102856257Y-64952506D01*
X104490000Y-66586248D01*
X104490000Y-67218368D01*
X104136400Y-67218368D01*
X103980068Y-67248700D01*
X103842667Y-67338957D01*
X103750692Y-67475215D01*
X103718368Y-67636400D01*
X103718368Y-69363600D01*
X103748700Y-69519932D01*
X103838957Y-69657333D01*
X103975215Y-69749308D01*
X104136400Y-69781632D01*
X104898472Y-69781632D01*
X104898472Y-69781632D01*
G37*
X104898472Y-69781632D02*
X104487663Y-69863347D01*
X104074478Y-70139429D01*
X104042357Y-70187500D01*
X103743117Y-70187500D01*
X101802500Y-68246882D01*
X101802500Y-67250000D01*
X101737607Y-66923763D01*
X101737607Y-66923762D01*
X101552809Y-66647191D01*
X101552805Y-66647188D01*
X99677809Y-64772191D01*
X99401238Y-64587393D01*
X99347110Y-64576626D01*
X99075000Y-64522499D01*
X99074994Y-64522500D01*
X96275000Y-64522500D01*
X74732994Y-64522500D01*
X74802805Y-64452811D01*
X74802809Y-64452809D01*
X74802811Y-64452805D01*
X74922293Y-64333533D01*
X74987607Y-64176238D01*
X75018225Y-64102500D01*
X102122606Y-64102500D01*
X102122374Y-64369074D01*
X102232896Y-64636558D01*
X102437366Y-64841385D01*
X102704656Y-64952374D01*
X102856257Y-64952506D01*
X104490000Y-66586248D01*
X104490000Y-67218368D01*
X104136400Y-67218368D01*
X103980068Y-67248700D01*
X103842667Y-67338957D01*
X103750692Y-67475215D01*
X103718368Y-67636400D01*
X103718368Y-69363600D01*
X103748700Y-69519932D01*
X103838957Y-69657333D01*
X103975215Y-69749308D01*
X104136400Y-69781632D01*
X104898472Y-69781632D01*
G36*
X104956950Y-72310000D02*
X104487663Y-72403347D01*
X104357977Y-72490000D01*
X93610000Y-72490000D01*
X93610000Y-70820109D01*
X93614000Y-70800000D01*
X93614000Y-69750000D01*
X93614000Y-67550000D01*
X93563456Y-67295898D01*
X93419519Y-67080481D01*
X92869519Y-66530481D01*
X92654102Y-66386544D01*
X92400000Y-66336000D01*
X77361229Y-66336000D01*
X77198847Y-66227500D01*
X96275000Y-66227500D01*
X98721882Y-66227500D01*
X100097500Y-67603117D01*
X100097500Y-68599994D01*
X100097499Y-68600000D01*
X100151626Y-68872110D01*
X100162393Y-68926238D01*
X100347191Y-69202809D01*
X102787188Y-71642805D01*
X102787191Y-71642809D01*
X103063762Y-71827607D01*
X103063763Y-71827607D01*
X103117889Y-71838373D01*
X103390000Y-71892501D01*
X103390000Y-71892500D01*
X103390005Y-71892500D01*
X104042357Y-71892500D01*
X104074478Y-71940571D01*
X104487663Y-72216653D01*
X104956950Y-72310000D01*
X104956950Y-72310000D01*
G37*
X104956950Y-72310000D02*
X104487663Y-72403347D01*
X104357977Y-72490000D01*
X93610000Y-72490000D01*
X93610000Y-70820109D01*
X93614000Y-70800000D01*
X93614000Y-69750000D01*
X93614000Y-67550000D01*
X93563456Y-67295898D01*
X93419519Y-67080481D01*
X92869519Y-66530481D01*
X92654102Y-66386544D01*
X92400000Y-66336000D01*
X77361229Y-66336000D01*
X77198847Y-66227500D01*
X96275000Y-66227500D01*
X98721882Y-66227500D01*
X100097500Y-67603117D01*
X100097500Y-68599994D01*
X100097499Y-68600000D01*
X100151626Y-68872110D01*
X100162393Y-68926238D01*
X100347191Y-69202809D01*
X102787188Y-71642805D01*
X102787191Y-71642809D01*
X103063762Y-71827607D01*
X103063763Y-71827607D01*
X103117889Y-71838373D01*
X103390000Y-71892501D01*
X103390000Y-71892500D01*
X103390005Y-71892500D01*
X104042357Y-71892500D01*
X104074478Y-71940571D01*
X104487663Y-72216653D01*
X104956950Y-72310000D01*
G36*
X105164000Y-83884000D02*
X105144000Y-83884000D01*
X105144000Y-83904000D01*
X104856000Y-83904000D01*
X104856000Y-83884000D01*
X103680736Y-83884000D01*
X103566095Y-84112903D01*
X103711927Y-84465000D01*
X103061248Y-84465000D01*
X102609998Y-84013750D01*
X102609998Y-81956246D01*
X103439376Y-82785625D01*
X103538559Y-82851896D01*
X103604831Y-82896179D01*
X103604832Y-82896179D01*
X103775464Y-82930119D01*
X103722385Y-82989752D01*
X103566095Y-83367097D01*
X103680736Y-83596000D01*
X104856000Y-83596000D01*
X104856000Y-83576000D01*
X105144000Y-83576000D01*
X105144000Y-83596000D01*
X105164000Y-83596000D01*
X105164000Y-83884000D01*
X105164000Y-83884000D01*
G37*
X105164000Y-83884000D02*
X105144000Y-83884000D01*
X105144000Y-83904000D01*
X104856000Y-83904000D01*
X104856000Y-83884000D01*
X103680736Y-83884000D01*
X103566095Y-84112903D01*
X103711927Y-84465000D01*
X103061248Y-84465000D01*
X102609998Y-84013750D01*
X102609998Y-81956246D01*
X103439376Y-82785625D01*
X103538559Y-82851896D01*
X103604831Y-82896179D01*
X103604832Y-82896179D01*
X103775464Y-82930119D01*
X103722385Y-82989752D01*
X103566095Y-83367097D01*
X103680736Y-83596000D01*
X104856000Y-83596000D01*
X104856000Y-83576000D01*
X105144000Y-83576000D01*
X105144000Y-83596000D01*
X105164000Y-83596000D01*
X105164000Y-83884000D01*
G36*
X109540000Y-109540000D02*
X86791460Y-109540000D01*
X86791460Y-109351512D01*
X86791460Y-109173500D01*
X86791460Y-108576500D01*
X86791460Y-108398488D01*
X86791460Y-108152632D01*
X86697375Y-107925491D01*
X86523529Y-107751645D01*
X86296388Y-107657560D01*
X85872520Y-107657560D01*
X85718020Y-107812060D01*
X85718020Y-108731000D01*
X86636960Y-108731000D01*
X86791460Y-108576500D01*
X86791460Y-109173500D01*
X86636960Y-109019000D01*
X85718020Y-109019000D01*
X85718020Y-109039000D01*
X85430020Y-109039000D01*
X85430020Y-109019000D01*
X85410020Y-109019000D01*
X85410020Y-108731000D01*
X85430020Y-108731000D01*
X85430020Y-107812060D01*
X85275520Y-107657560D01*
X84851652Y-107657560D01*
X84624511Y-107751645D01*
X84450665Y-107925491D01*
X84406266Y-108032678D01*
X84372863Y-107981827D01*
X84236605Y-107889852D01*
X84075420Y-107857528D01*
X82876540Y-107857528D01*
X82720208Y-107887860D01*
X82582807Y-107978117D01*
X82490832Y-108114375D01*
X82483935Y-108148762D01*
X82472443Y-108131267D01*
X82336185Y-108039292D01*
X82175000Y-108006968D01*
X81675000Y-108006968D01*
X81518668Y-108037300D01*
X81381267Y-108127557D01*
X81289292Y-108263815D01*
X81256968Y-108425000D01*
X81256968Y-109325000D01*
X81287300Y-109481332D01*
X81325838Y-109540000D01*
X81024382Y-109540000D01*
X81060708Y-109486185D01*
X81093032Y-109325000D01*
X81093032Y-108425000D01*
X81062700Y-108268668D01*
X80972443Y-108131267D01*
X80836185Y-108039292D01*
X80675000Y-108006968D01*
X80603216Y-108006968D01*
X80302495Y-107706246D01*
X80302626Y-107555926D01*
X80211341Y-107335000D01*
X102950000Y-107335000D01*
X102950000Y-107334999D01*
X103145169Y-107296179D01*
X103310624Y-107185624D01*
X105360624Y-105135624D01*
X105360625Y-105135624D01*
X105426896Y-105036440D01*
X105471179Y-104970169D01*
X105471179Y-104970168D01*
X105509999Y-104775000D01*
X105510000Y-104775000D01*
X105510000Y-102697117D01*
X105512337Y-102696653D01*
X105925522Y-102420571D01*
X106201604Y-102007386D01*
X106270000Y-101663535D01*
X106338396Y-102007386D01*
X106614478Y-102420571D01*
X107027663Y-102696653D01*
X107515049Y-102793600D01*
X107564951Y-102793600D01*
X108052337Y-102696653D01*
X108465522Y-102420571D01*
X108741604Y-102007386D01*
X108838551Y-101520000D01*
X108741604Y-101032614D01*
X108465522Y-100619429D01*
X108055012Y-100345134D01*
X108433255Y-100162061D01*
X108817615Y-99730248D01*
X108973905Y-99352903D01*
X108859264Y-99124000D01*
X107684000Y-99124000D01*
X107684000Y-99144000D01*
X107396000Y-99144000D01*
X107396000Y-99124000D01*
X107376000Y-99124000D01*
X107376000Y-98836000D01*
X107396000Y-98836000D01*
X107396000Y-98816000D01*
X107684000Y-98816000D01*
X107684000Y-98836000D01*
X108859264Y-98836000D01*
X108973905Y-98607097D01*
X108817615Y-98229752D01*
X108433255Y-97797939D01*
X108055012Y-97614865D01*
X108465522Y-97340571D01*
X108741604Y-96927386D01*
X108838551Y-96440000D01*
X108741604Y-95952614D01*
X108465522Y-95539429D01*
X108052337Y-95263347D01*
X107583049Y-95170000D01*
X108052337Y-95076653D01*
X108465522Y-94800571D01*
X108741604Y-94387386D01*
X108838551Y-93900000D01*
X108741604Y-93412614D01*
X108465522Y-92999429D01*
X108052337Y-92723347D01*
X107583049Y-92630000D01*
X108052337Y-92536653D01*
X108465522Y-92260571D01*
X108741604Y-91847386D01*
X108838551Y-91360000D01*
X108741604Y-90872614D01*
X108465522Y-90459429D01*
X108052337Y-90183347D01*
X107583049Y-90090000D01*
X108052337Y-89996653D01*
X108465522Y-89720571D01*
X108741604Y-89307386D01*
X108838551Y-88820000D01*
X108741604Y-88332614D01*
X108465522Y-87919429D01*
X108052337Y-87643347D01*
X107583049Y-87550000D01*
X108052337Y-87456653D01*
X108465522Y-87180571D01*
X108741604Y-86767386D01*
X108838551Y-86280000D01*
X108741604Y-85792614D01*
X108465522Y-85379429D01*
X108052337Y-85103347D01*
X107583049Y-85010000D01*
X108052337Y-84916653D01*
X108465522Y-84640571D01*
X108741604Y-84227386D01*
X108838551Y-83740000D01*
X108741604Y-83252614D01*
X108465522Y-82839429D01*
X108052337Y-82563347D01*
X107583049Y-82470000D01*
X108052337Y-82376653D01*
X108465522Y-82100571D01*
X108741604Y-81687386D01*
X108838551Y-81200000D01*
X108741604Y-80712614D01*
X108465522Y-80299429D01*
X108052337Y-80023347D01*
X107583049Y-79930000D01*
X108052337Y-79836653D01*
X108465522Y-79560571D01*
X108741604Y-79147386D01*
X108838551Y-78660000D01*
X108741604Y-78172614D01*
X108465522Y-77759429D01*
X108052337Y-77483347D01*
X107583049Y-77390000D01*
X108052337Y-77296653D01*
X108465522Y-77020571D01*
X108741604Y-76607386D01*
X108838551Y-76120000D01*
X108741604Y-75632614D01*
X108465522Y-75219429D01*
X108052337Y-74943347D01*
X107583049Y-74850000D01*
X108052337Y-74756653D01*
X108465522Y-74480571D01*
X108741604Y-74067386D01*
X108838551Y-73580000D01*
X108741604Y-73092614D01*
X108465522Y-72679429D01*
X108052337Y-72403347D01*
X107583049Y-72310000D01*
X108052337Y-72216653D01*
X108465522Y-71940571D01*
X108741604Y-71527386D01*
X108838551Y-71040000D01*
X108741604Y-70552614D01*
X108465522Y-70139429D01*
X108392500Y-70090637D01*
X108392500Y-69449362D01*
X108465522Y-69400571D01*
X108741604Y-68987386D01*
X108838551Y-68500000D01*
X108741604Y-68012614D01*
X108465522Y-67599429D01*
X108392500Y-67550637D01*
X108392500Y-66490005D01*
X108392500Y-66490000D01*
X108392501Y-66490000D01*
X108338373Y-66217889D01*
X108327607Y-66163763D01*
X108327607Y-66163762D01*
X108142809Y-65887192D01*
X108142809Y-65887191D01*
X108142805Y-65887188D01*
X104902809Y-62647191D01*
X104902805Y-62647188D01*
X104802809Y-62547191D01*
X104526237Y-62362393D01*
X104200000Y-62297499D01*
X103873763Y-62362393D01*
X103821221Y-62397500D01*
X103602393Y-62397500D01*
X103602626Y-62130926D01*
X103492104Y-61863442D01*
X103385000Y-61756150D01*
X103385000Y-61525000D01*
X103346179Y-61329831D01*
X103235624Y-61164376D01*
X103235624Y-61164375D01*
X102531248Y-60460000D01*
X109540000Y-60460000D01*
X109540000Y-109540000D01*
X109540000Y-109540000D01*
G37*
X109540000Y-109540000D02*
X86791460Y-109540000D01*
X86791460Y-109351512D01*
X86791460Y-109173500D01*
X86791460Y-108576500D01*
X86791460Y-108398488D01*
X86791460Y-108152632D01*
X86697375Y-107925491D01*
X86523529Y-107751645D01*
X86296388Y-107657560D01*
X85872520Y-107657560D01*
X85718020Y-107812060D01*
X85718020Y-108731000D01*
X86636960Y-108731000D01*
X86791460Y-108576500D01*
X86791460Y-109173500D01*
X86636960Y-109019000D01*
X85718020Y-109019000D01*
X85718020Y-109039000D01*
X85430020Y-109039000D01*
X85430020Y-109019000D01*
X85410020Y-109019000D01*
X85410020Y-108731000D01*
X85430020Y-108731000D01*
X85430020Y-107812060D01*
X85275520Y-107657560D01*
X84851652Y-107657560D01*
X84624511Y-107751645D01*
X84450665Y-107925491D01*
X84406266Y-108032678D01*
X84372863Y-107981827D01*
X84236605Y-107889852D01*
X84075420Y-107857528D01*
X82876540Y-107857528D01*
X82720208Y-107887860D01*
X82582807Y-107978117D01*
X82490832Y-108114375D01*
X82483935Y-108148762D01*
X82472443Y-108131267D01*
X82336185Y-108039292D01*
X82175000Y-108006968D01*
X81675000Y-108006968D01*
X81518668Y-108037300D01*
X81381267Y-108127557D01*
X81289292Y-108263815D01*
X81256968Y-108425000D01*
X81256968Y-109325000D01*
X81287300Y-109481332D01*
X81325838Y-109540000D01*
X81024382Y-109540000D01*
X81060708Y-109486185D01*
X81093032Y-109325000D01*
X81093032Y-108425000D01*
X81062700Y-108268668D01*
X80972443Y-108131267D01*
X80836185Y-108039292D01*
X80675000Y-108006968D01*
X80603216Y-108006968D01*
X80302495Y-107706246D01*
X80302626Y-107555926D01*
X80211341Y-107335000D01*
X102950000Y-107335000D01*
X102950000Y-107334999D01*
X103145169Y-107296179D01*
X103310624Y-107185624D01*
X105360624Y-105135624D01*
X105360625Y-105135624D01*
X105426896Y-105036440D01*
X105471179Y-104970169D01*
X105471179Y-104970168D01*
X105509999Y-104775000D01*
X105510000Y-104775000D01*
X105510000Y-102697117D01*
X105512337Y-102696653D01*
X105925522Y-102420571D01*
X106201604Y-102007386D01*
X106270000Y-101663535D01*
X106338396Y-102007386D01*
X106614478Y-102420571D01*
X107027663Y-102696653D01*
X107515049Y-102793600D01*
X107564951Y-102793600D01*
X108052337Y-102696653D01*
X108465522Y-102420571D01*
X108741604Y-102007386D01*
X108838551Y-101520000D01*
X108741604Y-101032614D01*
X108465522Y-100619429D01*
X108055012Y-100345134D01*
X108433255Y-100162061D01*
X108817615Y-99730248D01*
X108973905Y-99352903D01*
X108859264Y-99124000D01*
X107684000Y-99124000D01*
X107684000Y-99144000D01*
X107396000Y-99144000D01*
X107396000Y-99124000D01*
X107376000Y-99124000D01*
X107376000Y-98836000D01*
X107396000Y-98836000D01*
X107396000Y-98816000D01*
X107684000Y-98816000D01*
X107684000Y-98836000D01*
X108859264Y-98836000D01*
X108973905Y-98607097D01*
X108817615Y-98229752D01*
X108433255Y-97797939D01*
X108055012Y-97614865D01*
X108465522Y-97340571D01*
X108741604Y-96927386D01*
X108838551Y-96440000D01*
X108741604Y-95952614D01*
X108465522Y-95539429D01*
X108052337Y-95263347D01*
X107583049Y-95170000D01*
X108052337Y-95076653D01*
X108465522Y-94800571D01*
X108741604Y-94387386D01*
X108838551Y-93900000D01*
X108741604Y-93412614D01*
X108465522Y-92999429D01*
X108052337Y-92723347D01*
X107583049Y-92630000D01*
X108052337Y-92536653D01*
X108465522Y-92260571D01*
X108741604Y-91847386D01*
X108838551Y-91360000D01*
X108741604Y-90872614D01*
X108465522Y-90459429D01*
X108052337Y-90183347D01*
X107583049Y-90090000D01*
X108052337Y-89996653D01*
X108465522Y-89720571D01*
X108741604Y-89307386D01*
X108838551Y-88820000D01*
X108741604Y-88332614D01*
X108465522Y-87919429D01*
X108052337Y-87643347D01*
X107583049Y-87550000D01*
X108052337Y-87456653D01*
X108465522Y-87180571D01*
X108741604Y-86767386D01*
X108838551Y-86280000D01*
X108741604Y-85792614D01*
X108465522Y-85379429D01*
X108052337Y-85103347D01*
X107583049Y-85010000D01*
X108052337Y-84916653D01*
X108465522Y-84640571D01*
X108741604Y-84227386D01*
X108838551Y-83740000D01*
X108741604Y-83252614D01*
X108465522Y-82839429D01*
X108052337Y-82563347D01*
X107583049Y-82470000D01*
X108052337Y-82376653D01*
X108465522Y-82100571D01*
X108741604Y-81687386D01*
X108838551Y-81200000D01*
X108741604Y-80712614D01*
X108465522Y-80299429D01*
X108052337Y-80023347D01*
X107583049Y-79930000D01*
X108052337Y-79836653D01*
X108465522Y-79560571D01*
X108741604Y-79147386D01*
X108838551Y-78660000D01*
X108741604Y-78172614D01*
X108465522Y-77759429D01*
X108052337Y-77483347D01*
X107583049Y-77390000D01*
X108052337Y-77296653D01*
X108465522Y-77020571D01*
X108741604Y-76607386D01*
X108838551Y-76120000D01*
X108741604Y-75632614D01*
X108465522Y-75219429D01*
X108052337Y-74943347D01*
X107583049Y-74850000D01*
X108052337Y-74756653D01*
X108465522Y-74480571D01*
X108741604Y-74067386D01*
X108838551Y-73580000D01*
X108741604Y-73092614D01*
X108465522Y-72679429D01*
X108052337Y-72403347D01*
X107583049Y-72310000D01*
X108052337Y-72216653D01*
X108465522Y-71940571D01*
X108741604Y-71527386D01*
X108838551Y-71040000D01*
X108741604Y-70552614D01*
X108465522Y-70139429D01*
X108392500Y-70090637D01*
X108392500Y-69449362D01*
X108465522Y-69400571D01*
X108741604Y-68987386D01*
X108838551Y-68500000D01*
X108741604Y-68012614D01*
X108465522Y-67599429D01*
X108392500Y-67550637D01*
X108392500Y-66490005D01*
X108392500Y-66490000D01*
X108392501Y-66490000D01*
X108338373Y-66217889D01*
X108327607Y-66163763D01*
X108327607Y-66163762D01*
X108142809Y-65887192D01*
X108142809Y-65887191D01*
X108142805Y-65887188D01*
X104902809Y-62647191D01*
X104902805Y-62647188D01*
X104802809Y-62547191D01*
X104526237Y-62362393D01*
X104200000Y-62297499D01*
X103873763Y-62362393D01*
X103821221Y-62397500D01*
X103602393Y-62397500D01*
X103602626Y-62130926D01*
X103492104Y-61863442D01*
X103385000Y-61756150D01*
X103385000Y-61525000D01*
X103346179Y-61329831D01*
X103235624Y-61164376D01*
X103235624Y-61164375D01*
X102531248Y-60460000D01*
X109540000Y-60460000D01*
X109540000Y-109540000D01*
D34*
G36*
X91322914Y-83000932D02*
X91272918Y-83075000D01*
X91223750Y-83075000D01*
X91065000Y-83233750D01*
X91065000Y-83276310D01*
X91161673Y-83509699D01*
X91182048Y-83530073D01*
X91182048Y-83650000D01*
X91201770Y-83751652D01*
X91182048Y-83850000D01*
X91182048Y-84150000D01*
X91201770Y-84251652D01*
X91182048Y-84350000D01*
X91182048Y-84650000D01*
X91201770Y-84751652D01*
X91182048Y-84850000D01*
X91182048Y-85150000D01*
X91219630Y-85343699D01*
X91273054Y-85425028D01*
X91259699Y-85411673D01*
X91026310Y-85315000D01*
X90983750Y-85315000D01*
X90825000Y-85473750D01*
X90825000Y-85672009D01*
X90768539Y-85586058D01*
X90675000Y-85522918D01*
X90675000Y-85473750D01*
X90516250Y-85315000D01*
X90473690Y-85315000D01*
X90240301Y-85411673D01*
X90219926Y-85432048D01*
X90100000Y-85432048D01*
X89998347Y-85451770D01*
X89900000Y-85432048D01*
X89600000Y-85432048D01*
X89498347Y-85451770D01*
X89400000Y-85432048D01*
X89100000Y-85432048D01*
X88998347Y-85451770D01*
X88900000Y-85432048D01*
X88600000Y-85432048D01*
X88498347Y-85451770D01*
X88400000Y-85432048D01*
X88100000Y-85432048D01*
X87998347Y-85451770D01*
X87900000Y-85432048D01*
X87780073Y-85432048D01*
X87759699Y-85411673D01*
X87526310Y-85315000D01*
X87483750Y-85315000D01*
X87325000Y-85473750D01*
X87325000Y-85523035D01*
X87249067Y-85572914D01*
X87175000Y-85522918D01*
X87175000Y-85473750D01*
X87016250Y-85315000D01*
X86973690Y-85315000D01*
X86740301Y-85411673D01*
X86719926Y-85432048D01*
X86600000Y-85432048D01*
X86498347Y-85451770D01*
X86400000Y-85432048D01*
X86100000Y-85432048D01*
X85998347Y-85451770D01*
X85900000Y-85432048D01*
X85600000Y-85432048D01*
X85498347Y-85451770D01*
X85400000Y-85432048D01*
X85100000Y-85432048D01*
X84998347Y-85451770D01*
X84900000Y-85432048D01*
X84600000Y-85432048D01*
X84498347Y-85451770D01*
X84400000Y-85432048D01*
X84100000Y-85432048D01*
X83998347Y-85451770D01*
X83900000Y-85432048D01*
X83600000Y-85432048D01*
X83498347Y-85451770D01*
X83400000Y-85432048D01*
X83100000Y-85432048D01*
X82998347Y-85451770D01*
X82900000Y-85432048D01*
X82600000Y-85432048D01*
X82498347Y-85451770D01*
X82400000Y-85432048D01*
X82100000Y-85432048D01*
X81998347Y-85451770D01*
X81900000Y-85432048D01*
X81600000Y-85432048D01*
X81498347Y-85451770D01*
X81400000Y-85432048D01*
X81280073Y-85432048D01*
X81259699Y-85411673D01*
X81026310Y-85315000D01*
X80983750Y-85315000D01*
X80825000Y-85473750D01*
X80825000Y-85509096D01*
X80811719Y-85442329D01*
X80811719Y-85442328D01*
X80679921Y-85245079D01*
X80604921Y-85170079D01*
X80407672Y-85038281D01*
X80175000Y-84992000D01*
X79850000Y-84992000D01*
X78759476Y-84992000D01*
X78668219Y-84900583D01*
X78364923Y-84774643D01*
X78303320Y-84774589D01*
X78298229Y-84748347D01*
X78317952Y-84650000D01*
X78317952Y-84530073D01*
X78338327Y-84509699D01*
X78435000Y-84276310D01*
X78435000Y-84233750D01*
X78276250Y-84075000D01*
X78226964Y-84075000D01*
X78177085Y-83999067D01*
X78227081Y-83925000D01*
X78276250Y-83925000D01*
X78435000Y-83766250D01*
X78435000Y-83723690D01*
X78338327Y-83490301D01*
X78317952Y-83469926D01*
X78317952Y-83350000D01*
X78298229Y-83248347D01*
X78317952Y-83150000D01*
X78317952Y-82850000D01*
X78298229Y-82748347D01*
X78317952Y-82650000D01*
X78317952Y-82350000D01*
X78298229Y-82248347D01*
X78317952Y-82150000D01*
X78317952Y-81850000D01*
X78298229Y-81748347D01*
X78317952Y-81650000D01*
X78317952Y-81350000D01*
X78298229Y-81248347D01*
X78317952Y-81150000D01*
X78317952Y-80850000D01*
X78298229Y-80748347D01*
X78317952Y-80650000D01*
X78317952Y-80350000D01*
X78298229Y-80248347D01*
X78317952Y-80150000D01*
X78317952Y-79850000D01*
X78298229Y-79748347D01*
X78317952Y-79650000D01*
X78317952Y-79350000D01*
X78298229Y-79248347D01*
X78317952Y-79150000D01*
X78317952Y-78850000D01*
X78298229Y-78748347D01*
X78317952Y-78650000D01*
X78317952Y-78350000D01*
X78298229Y-78248347D01*
X78317952Y-78150000D01*
X78317952Y-77850000D01*
X78298229Y-77748347D01*
X78317952Y-77650000D01*
X78317952Y-77350000D01*
X78298229Y-77248347D01*
X78317952Y-77150000D01*
X78317952Y-76850000D01*
X78298229Y-76748347D01*
X78317952Y-76650000D01*
X78317952Y-76350000D01*
X78298229Y-76248347D01*
X78317952Y-76150000D01*
X78317952Y-75850000D01*
X78298229Y-75748347D01*
X78317952Y-75650000D01*
X78317952Y-75530073D01*
X78338327Y-75509699D01*
X78435000Y-75276310D01*
X78435000Y-75233750D01*
X78276250Y-75075000D01*
X78226964Y-75075000D01*
X78177085Y-74999067D01*
X78227081Y-74925000D01*
X78276250Y-74925000D01*
X78435000Y-74766250D01*
X78435000Y-74723690D01*
X78338327Y-74490301D01*
X78317952Y-74469926D01*
X78317952Y-74350000D01*
X78298229Y-74248347D01*
X78317952Y-74150000D01*
X78317952Y-73850000D01*
X78298229Y-73748347D01*
X78317952Y-73650000D01*
X78317952Y-73350000D01*
X78298229Y-73248347D01*
X78317952Y-73150000D01*
X78317952Y-72850000D01*
X78280370Y-72656301D01*
X78226945Y-72574971D01*
X78240301Y-72588327D01*
X78473690Y-72685000D01*
X78516250Y-72685000D01*
X78675000Y-72526250D01*
X78675000Y-72327990D01*
X78731461Y-72413942D01*
X78825000Y-72477081D01*
X78825000Y-72526250D01*
X78983750Y-72685000D01*
X79026310Y-72685000D01*
X79259699Y-72588327D01*
X79280073Y-72567952D01*
X79400000Y-72567952D01*
X79501652Y-72548229D01*
X79600000Y-72567952D01*
X79900000Y-72567952D01*
X80001652Y-72548229D01*
X80100000Y-72567952D01*
X80219926Y-72567952D01*
X80240301Y-72588327D01*
X80473690Y-72685000D01*
X80516250Y-72685000D01*
X80675000Y-72526250D01*
X80675000Y-72476964D01*
X80750932Y-72427085D01*
X80825000Y-72477081D01*
X80825000Y-72526250D01*
X80983750Y-72685000D01*
X81026310Y-72685000D01*
X81259699Y-72588327D01*
X81280073Y-72567952D01*
X81400000Y-72567952D01*
X81501652Y-72548229D01*
X81600000Y-72567952D01*
X81900000Y-72567952D01*
X82001652Y-72548229D01*
X82100000Y-72567952D01*
X82400000Y-72567952D01*
X82501652Y-72548229D01*
X82600000Y-72567952D01*
X82900000Y-72567952D01*
X83001652Y-72548229D01*
X83100000Y-72567952D01*
X83400000Y-72567952D01*
X83501652Y-72548229D01*
X83600000Y-72567952D01*
X83900000Y-72567952D01*
X84001652Y-72548229D01*
X84100000Y-72567952D01*
X84400000Y-72567952D01*
X84501652Y-72548229D01*
X84600000Y-72567952D01*
X84900000Y-72567952D01*
X85001652Y-72548229D01*
X85100000Y-72567952D01*
X85400000Y-72567952D01*
X85501652Y-72548229D01*
X85600000Y-72567952D01*
X85900000Y-72567952D01*
X86001652Y-72548229D01*
X86100000Y-72567952D01*
X86400000Y-72567952D01*
X86501652Y-72548229D01*
X86600000Y-72567952D01*
X86900000Y-72567952D01*
X87001652Y-72548229D01*
X87100000Y-72567952D01*
X87400000Y-72567952D01*
X87501652Y-72548229D01*
X87600000Y-72567952D01*
X87900000Y-72567952D01*
X88001652Y-72548229D01*
X88100000Y-72567952D01*
X88400000Y-72567952D01*
X88501652Y-72548229D01*
X88600000Y-72567952D01*
X88900000Y-72567952D01*
X89001652Y-72548229D01*
X89100000Y-72567952D01*
X89400000Y-72567952D01*
X89501652Y-72548229D01*
X89600000Y-72567952D01*
X89900000Y-72567952D01*
X90001652Y-72548229D01*
X90100000Y-72567952D01*
X90219926Y-72567952D01*
X90240301Y-72588327D01*
X90473690Y-72685000D01*
X90516250Y-72685000D01*
X90675000Y-72526250D01*
X90675000Y-72476964D01*
X90763942Y-72418539D01*
X90825000Y-72328083D01*
X90825000Y-72526250D01*
X90983750Y-72685000D01*
X91026310Y-72685000D01*
X91259699Y-72588327D01*
X91272696Y-72575329D01*
X91222099Y-72650288D01*
X91182048Y-72850000D01*
X91182048Y-73150000D01*
X91201770Y-73251652D01*
X91182048Y-73350000D01*
X91182048Y-73469926D01*
X91161673Y-73490301D01*
X91065000Y-73723690D01*
X91065000Y-73766250D01*
X91223750Y-73925000D01*
X91273035Y-73925000D01*
X91322914Y-74000932D01*
X91272918Y-74075000D01*
X91223750Y-74075000D01*
X91065000Y-74233750D01*
X91065000Y-74276310D01*
X91161673Y-74509699D01*
X91182048Y-74530073D01*
X91182048Y-74650000D01*
X91201770Y-74751652D01*
X91182048Y-74850000D01*
X91182048Y-75150000D01*
X91201770Y-75251652D01*
X91182048Y-75350000D01*
X91182048Y-75650000D01*
X91201770Y-75751652D01*
X91182048Y-75850000D01*
X91182048Y-76150000D01*
X91201770Y-76251652D01*
X91182048Y-76350000D01*
X91182048Y-76650000D01*
X91201770Y-76751652D01*
X91182048Y-76850000D01*
X91182048Y-77150000D01*
X91201770Y-77251652D01*
X91182048Y-77350000D01*
X91182048Y-77650000D01*
X91201770Y-77751652D01*
X91182048Y-77850000D01*
X91182048Y-78150000D01*
X91201770Y-78251652D01*
X91182048Y-78350000D01*
X91182048Y-78650000D01*
X91201770Y-78751652D01*
X91182048Y-78850000D01*
X91182048Y-79150000D01*
X91201770Y-79251652D01*
X91182048Y-79350000D01*
X91182048Y-79469926D01*
X91161673Y-79490301D01*
X91065000Y-79723690D01*
X91065000Y-79766250D01*
X91223750Y-79925000D01*
X91273035Y-79925000D01*
X91322914Y-80000932D01*
X91272918Y-80075000D01*
X91223750Y-80075000D01*
X91065000Y-80233750D01*
X91065000Y-80276310D01*
X91161673Y-80509699D01*
X91182048Y-80530073D01*
X91182048Y-80650000D01*
X91201770Y-80751652D01*
X91182048Y-80850000D01*
X91182048Y-81150000D01*
X91201770Y-81251652D01*
X91182048Y-81350000D01*
X91182048Y-81650000D01*
X91201770Y-81751652D01*
X91182048Y-81850000D01*
X91182048Y-82150000D01*
X91201770Y-82251652D01*
X91182048Y-82350000D01*
X91182048Y-82469926D01*
X91161673Y-82490301D01*
X91065000Y-82723690D01*
X91065000Y-82766250D01*
X91223750Y-82925000D01*
X91273035Y-82925000D01*
X91322914Y-83000932D01*
X91322914Y-83000932D01*
G37*
X91322914Y-83000932D02*
X91272918Y-83075000D01*
X91223750Y-83075000D01*
X91065000Y-83233750D01*
X91065000Y-83276310D01*
X91161673Y-83509699D01*
X91182048Y-83530073D01*
X91182048Y-83650000D01*
X91201770Y-83751652D01*
X91182048Y-83850000D01*
X91182048Y-84150000D01*
X91201770Y-84251652D01*
X91182048Y-84350000D01*
X91182048Y-84650000D01*
X91201770Y-84751652D01*
X91182048Y-84850000D01*
X91182048Y-85150000D01*
X91219630Y-85343699D01*
X91273054Y-85425028D01*
X91259699Y-85411673D01*
X91026310Y-85315000D01*
X90983750Y-85315000D01*
X90825000Y-85473750D01*
X90825000Y-85672009D01*
X90768539Y-85586058D01*
X90675000Y-85522918D01*
X90675000Y-85473750D01*
X90516250Y-85315000D01*
X90473690Y-85315000D01*
X90240301Y-85411673D01*
X90219926Y-85432048D01*
X90100000Y-85432048D01*
X89998347Y-85451770D01*
X89900000Y-85432048D01*
X89600000Y-85432048D01*
X89498347Y-85451770D01*
X89400000Y-85432048D01*
X89100000Y-85432048D01*
X88998347Y-85451770D01*
X88900000Y-85432048D01*
X88600000Y-85432048D01*
X88498347Y-85451770D01*
X88400000Y-85432048D01*
X88100000Y-85432048D01*
X87998347Y-85451770D01*
X87900000Y-85432048D01*
X87780073Y-85432048D01*
X87759699Y-85411673D01*
X87526310Y-85315000D01*
X87483750Y-85315000D01*
X87325000Y-85473750D01*
X87325000Y-85523035D01*
X87249067Y-85572914D01*
X87175000Y-85522918D01*
X87175000Y-85473750D01*
X87016250Y-85315000D01*
X86973690Y-85315000D01*
X86740301Y-85411673D01*
X86719926Y-85432048D01*
X86600000Y-85432048D01*
X86498347Y-85451770D01*
X86400000Y-85432048D01*
X86100000Y-85432048D01*
X85998347Y-85451770D01*
X85900000Y-85432048D01*
X85600000Y-85432048D01*
X85498347Y-85451770D01*
X85400000Y-85432048D01*
X85100000Y-85432048D01*
X84998347Y-85451770D01*
X84900000Y-85432048D01*
X84600000Y-85432048D01*
X84498347Y-85451770D01*
X84400000Y-85432048D01*
X84100000Y-85432048D01*
X83998347Y-85451770D01*
X83900000Y-85432048D01*
X83600000Y-85432048D01*
X83498347Y-85451770D01*
X83400000Y-85432048D01*
X83100000Y-85432048D01*
X82998347Y-85451770D01*
X82900000Y-85432048D01*
X82600000Y-85432048D01*
X82498347Y-85451770D01*
X82400000Y-85432048D01*
X82100000Y-85432048D01*
X81998347Y-85451770D01*
X81900000Y-85432048D01*
X81600000Y-85432048D01*
X81498347Y-85451770D01*
X81400000Y-85432048D01*
X81280073Y-85432048D01*
X81259699Y-85411673D01*
X81026310Y-85315000D01*
X80983750Y-85315000D01*
X80825000Y-85473750D01*
X80825000Y-85509096D01*
X80811719Y-85442329D01*
X80811719Y-85442328D01*
X80679921Y-85245079D01*
X80604921Y-85170079D01*
X80407672Y-85038281D01*
X80175000Y-84992000D01*
X79850000Y-84992000D01*
X78759476Y-84992000D01*
X78668219Y-84900583D01*
X78364923Y-84774643D01*
X78303320Y-84774589D01*
X78298229Y-84748347D01*
X78317952Y-84650000D01*
X78317952Y-84530073D01*
X78338327Y-84509699D01*
X78435000Y-84276310D01*
X78435000Y-84233750D01*
X78276250Y-84075000D01*
X78226964Y-84075000D01*
X78177085Y-83999067D01*
X78227081Y-83925000D01*
X78276250Y-83925000D01*
X78435000Y-83766250D01*
X78435000Y-83723690D01*
X78338327Y-83490301D01*
X78317952Y-83469926D01*
X78317952Y-83350000D01*
X78298229Y-83248347D01*
X78317952Y-83150000D01*
X78317952Y-82850000D01*
X78298229Y-82748347D01*
X78317952Y-82650000D01*
X78317952Y-82350000D01*
X78298229Y-82248347D01*
X78317952Y-82150000D01*
X78317952Y-81850000D01*
X78298229Y-81748347D01*
X78317952Y-81650000D01*
X78317952Y-81350000D01*
X78298229Y-81248347D01*
X78317952Y-81150000D01*
X78317952Y-80850000D01*
X78298229Y-80748347D01*
X78317952Y-80650000D01*
X78317952Y-80350000D01*
X78298229Y-80248347D01*
X78317952Y-80150000D01*
X78317952Y-79850000D01*
X78298229Y-79748347D01*
X78317952Y-79650000D01*
X78317952Y-79350000D01*
X78298229Y-79248347D01*
X78317952Y-79150000D01*
X78317952Y-78850000D01*
X78298229Y-78748347D01*
X78317952Y-78650000D01*
X78317952Y-78350000D01*
X78298229Y-78248347D01*
X78317952Y-78150000D01*
X78317952Y-77850000D01*
X78298229Y-77748347D01*
X78317952Y-77650000D01*
X78317952Y-77350000D01*
X78298229Y-77248347D01*
X78317952Y-77150000D01*
X78317952Y-76850000D01*
X78298229Y-76748347D01*
X78317952Y-76650000D01*
X78317952Y-76350000D01*
X78298229Y-76248347D01*
X78317952Y-76150000D01*
X78317952Y-75850000D01*
X78298229Y-75748347D01*
X78317952Y-75650000D01*
X78317952Y-75530073D01*
X78338327Y-75509699D01*
X78435000Y-75276310D01*
X78435000Y-75233750D01*
X78276250Y-75075000D01*
X78226964Y-75075000D01*
X78177085Y-74999067D01*
X78227081Y-74925000D01*
X78276250Y-74925000D01*
X78435000Y-74766250D01*
X78435000Y-74723690D01*
X78338327Y-74490301D01*
X78317952Y-74469926D01*
X78317952Y-74350000D01*
X78298229Y-74248347D01*
X78317952Y-74150000D01*
X78317952Y-73850000D01*
X78298229Y-73748347D01*
X78317952Y-73650000D01*
X78317952Y-73350000D01*
X78298229Y-73248347D01*
X78317952Y-73150000D01*
X78317952Y-72850000D01*
X78280370Y-72656301D01*
X78226945Y-72574971D01*
X78240301Y-72588327D01*
X78473690Y-72685000D01*
X78516250Y-72685000D01*
X78675000Y-72526250D01*
X78675000Y-72327990D01*
X78731461Y-72413942D01*
X78825000Y-72477081D01*
X78825000Y-72526250D01*
X78983750Y-72685000D01*
X79026310Y-72685000D01*
X79259699Y-72588327D01*
X79280073Y-72567952D01*
X79400000Y-72567952D01*
X79501652Y-72548229D01*
X79600000Y-72567952D01*
X79900000Y-72567952D01*
X80001652Y-72548229D01*
X80100000Y-72567952D01*
X80219926Y-72567952D01*
X80240301Y-72588327D01*
X80473690Y-72685000D01*
X80516250Y-72685000D01*
X80675000Y-72526250D01*
X80675000Y-72476964D01*
X80750932Y-72427085D01*
X80825000Y-72477081D01*
X80825000Y-72526250D01*
X80983750Y-72685000D01*
X81026310Y-72685000D01*
X81259699Y-72588327D01*
X81280073Y-72567952D01*
X81400000Y-72567952D01*
X81501652Y-72548229D01*
X81600000Y-72567952D01*
X81900000Y-72567952D01*
X82001652Y-72548229D01*
X82100000Y-72567952D01*
X82400000Y-72567952D01*
X82501652Y-72548229D01*
X82600000Y-72567952D01*
X82900000Y-72567952D01*
X83001652Y-72548229D01*
X83100000Y-72567952D01*
X83400000Y-72567952D01*
X83501652Y-72548229D01*
X83600000Y-72567952D01*
X83900000Y-72567952D01*
X84001652Y-72548229D01*
X84100000Y-72567952D01*
X84400000Y-72567952D01*
X84501652Y-72548229D01*
X84600000Y-72567952D01*
X84900000Y-72567952D01*
X85001652Y-72548229D01*
X85100000Y-72567952D01*
X85400000Y-72567952D01*
X85501652Y-72548229D01*
X85600000Y-72567952D01*
X85900000Y-72567952D01*
X86001652Y-72548229D01*
X86100000Y-72567952D01*
X86400000Y-72567952D01*
X86501652Y-72548229D01*
X86600000Y-72567952D01*
X86900000Y-72567952D01*
X87001652Y-72548229D01*
X87100000Y-72567952D01*
X87400000Y-72567952D01*
X87501652Y-72548229D01*
X87600000Y-72567952D01*
X87900000Y-72567952D01*
X88001652Y-72548229D01*
X88100000Y-72567952D01*
X88400000Y-72567952D01*
X88501652Y-72548229D01*
X88600000Y-72567952D01*
X88900000Y-72567952D01*
X89001652Y-72548229D01*
X89100000Y-72567952D01*
X89400000Y-72567952D01*
X89501652Y-72548229D01*
X89600000Y-72567952D01*
X89900000Y-72567952D01*
X90001652Y-72548229D01*
X90100000Y-72567952D01*
X90219926Y-72567952D01*
X90240301Y-72588327D01*
X90473690Y-72685000D01*
X90516250Y-72685000D01*
X90675000Y-72526250D01*
X90675000Y-72476964D01*
X90763942Y-72418539D01*
X90825000Y-72328083D01*
X90825000Y-72526250D01*
X90983750Y-72685000D01*
X91026310Y-72685000D01*
X91259699Y-72588327D01*
X91272696Y-72575329D01*
X91222099Y-72650288D01*
X91182048Y-72850000D01*
X91182048Y-73150000D01*
X91201770Y-73251652D01*
X91182048Y-73350000D01*
X91182048Y-73469926D01*
X91161673Y-73490301D01*
X91065000Y-73723690D01*
X91065000Y-73766250D01*
X91223750Y-73925000D01*
X91273035Y-73925000D01*
X91322914Y-74000932D01*
X91272918Y-74075000D01*
X91223750Y-74075000D01*
X91065000Y-74233750D01*
X91065000Y-74276310D01*
X91161673Y-74509699D01*
X91182048Y-74530073D01*
X91182048Y-74650000D01*
X91201770Y-74751652D01*
X91182048Y-74850000D01*
X91182048Y-75150000D01*
X91201770Y-75251652D01*
X91182048Y-75350000D01*
X91182048Y-75650000D01*
X91201770Y-75751652D01*
X91182048Y-75850000D01*
X91182048Y-76150000D01*
X91201770Y-76251652D01*
X91182048Y-76350000D01*
X91182048Y-76650000D01*
X91201770Y-76751652D01*
X91182048Y-76850000D01*
X91182048Y-77150000D01*
X91201770Y-77251652D01*
X91182048Y-77350000D01*
X91182048Y-77650000D01*
X91201770Y-77751652D01*
X91182048Y-77850000D01*
X91182048Y-78150000D01*
X91201770Y-78251652D01*
X91182048Y-78350000D01*
X91182048Y-78650000D01*
X91201770Y-78751652D01*
X91182048Y-78850000D01*
X91182048Y-79150000D01*
X91201770Y-79251652D01*
X91182048Y-79350000D01*
X91182048Y-79469926D01*
X91161673Y-79490301D01*
X91065000Y-79723690D01*
X91065000Y-79766250D01*
X91223750Y-79925000D01*
X91273035Y-79925000D01*
X91322914Y-80000932D01*
X91272918Y-80075000D01*
X91223750Y-80075000D01*
X91065000Y-80233750D01*
X91065000Y-80276310D01*
X91161673Y-80509699D01*
X91182048Y-80530073D01*
X91182048Y-80650000D01*
X91201770Y-80751652D01*
X91182048Y-80850000D01*
X91182048Y-81150000D01*
X91201770Y-81251652D01*
X91182048Y-81350000D01*
X91182048Y-81650000D01*
X91201770Y-81751652D01*
X91182048Y-81850000D01*
X91182048Y-82150000D01*
X91201770Y-82251652D01*
X91182048Y-82350000D01*
X91182048Y-82469926D01*
X91161673Y-82490301D01*
X91065000Y-82723690D01*
X91065000Y-82766250D01*
X91223750Y-82925000D01*
X91273035Y-82925000D01*
X91322914Y-83000932D01*
M02*
