G04 #@! TF.FileFunction,Copper,L2,Bot,Signal*
%FSLAX46Y46*%
G04 Gerber Fmt 4.6, Leading zero omitted, Abs format (unit mm)*
G04 Created by KiCad (PCBNEW (2015-01-16 BZR 5376)-product) date 23/07/2015 12:13:06*
%MOMM*%
G01*
G04 APERTURE LIST*
%ADD10C,0.100000*%
%ADD11R,0.750000X0.800000*%
%ADD12R,0.800000X0.750000*%
%ADD13R,2.032000X2.032000*%
%ADD14O,2.032000X2.032000*%
%ADD15R,1.727200X1.727200*%
%ADD16O,1.727200X1.727200*%
%ADD17R,1.727200X2.032000*%
%ADD18O,1.727200X2.032000*%
%ADD19C,0.885000*%
%ADD20C,0.635000*%
%ADD21C,6.000000*%
%ADD22C,0.885000*%
%ADD23C,0.381000*%
%ADD24C,0.200000*%
%ADD25C,0.220000*%
G04 APERTURE END LIST*
D10*
D11*
X90500000Y-80000000D03*
X90500000Y-81500000D03*
D12*
X87250000Y-84750000D03*
X88750000Y-84750000D03*
D13*
X76250000Y-94000000D03*
D14*
X73710000Y-94000000D03*
D15*
X105000000Y-68500000D03*
D16*
X107540000Y-68500000D03*
X105000000Y-71040000D03*
X107540000Y-71040000D03*
X105000000Y-73580000D03*
X107540000Y-73580000D03*
X105000000Y-76120000D03*
X107540000Y-76120000D03*
X105000000Y-78660000D03*
X107540000Y-78660000D03*
X105000000Y-81200000D03*
X107540000Y-81200000D03*
X105000000Y-83740000D03*
X107540000Y-83740000D03*
X105000000Y-86280000D03*
X107540000Y-86280000D03*
X105000000Y-88820000D03*
X107540000Y-88820000D03*
X105000000Y-91360000D03*
X107540000Y-91360000D03*
X105000000Y-93900000D03*
X107540000Y-93900000D03*
X105000000Y-96440000D03*
X107540000Y-96440000D03*
X105000000Y-98980000D03*
X107540000Y-98980000D03*
X105000000Y-101520000D03*
X107540000Y-101520000D03*
D17*
X88750000Y-94000000D03*
D18*
X91290000Y-94000000D03*
X93830000Y-94000000D03*
X96370000Y-94000000D03*
X98910000Y-94000000D03*
D13*
X82250000Y-94000000D03*
D14*
X84790000Y-94000000D03*
D15*
X63000000Y-71000000D03*
D16*
X65540000Y-71000000D03*
X63000000Y-73540000D03*
X65540000Y-73540000D03*
X63000000Y-76080000D03*
X65540000Y-76080000D03*
X63000000Y-78620000D03*
X65540000Y-78620000D03*
X63000000Y-81160000D03*
X65540000Y-81160000D03*
X63000000Y-83700000D03*
X65540000Y-83700000D03*
X63000000Y-86240000D03*
X65540000Y-86240000D03*
X63000000Y-88780000D03*
X65540000Y-88780000D03*
X63000000Y-91320000D03*
X65540000Y-91320000D03*
X63000000Y-93860000D03*
X65540000Y-93860000D03*
X63000000Y-96400000D03*
X65540000Y-96400000D03*
X63000000Y-98940000D03*
X65540000Y-98940000D03*
D19*
X74200000Y-62900000D03*
X74200000Y-63850000D03*
X75650000Y-67200000D03*
X74150000Y-67200000D03*
D20*
X86550000Y-84750000D03*
X90650000Y-79450000D03*
D21*
X64000000Y-106000000D03*
X64000000Y-64000000D03*
D20*
X75400000Y-73425000D03*
X75570000Y-77550000D03*
X79050000Y-69850000D03*
X80400000Y-69600000D03*
X85600000Y-69525000D03*
X93700000Y-83425000D03*
X89550000Y-88025000D03*
X87025000Y-88000000D03*
X84500000Y-87950000D03*
X82500000Y-87900000D03*
X78200000Y-85600000D03*
X75825000Y-84800000D03*
X76050000Y-103050000D03*
X83375000Y-102525000D03*
X70975000Y-97025000D03*
X75675000Y-101175000D03*
X74650000Y-97050000D03*
D19*
X97325000Y-69150000D03*
D20*
X95975000Y-74250000D03*
D19*
X102325000Y-66875000D03*
X69475000Y-68475000D03*
X72225000Y-77950000D03*
X71325000Y-85025000D03*
D20*
X72025000Y-101675000D03*
X65575000Y-101700000D03*
X102850000Y-64225000D03*
X102875000Y-62275000D03*
X79275000Y-103475000D03*
X79575000Y-107700000D03*
D22*
X74200000Y-63850000D02*
X74200000Y-62900000D01*
X74150000Y-67200000D02*
X74200000Y-67150000D01*
X74200000Y-67150000D02*
X74200000Y-63850000D01*
X74150000Y-67200000D02*
X75650000Y-67200000D01*
D23*
X87250000Y-84750000D02*
X86550000Y-84750000D01*
X90650000Y-79450000D02*
X90500000Y-79600000D01*
X90500000Y-79600000D02*
X90500000Y-80000000D01*
D24*
X64000000Y-106000000D02*
X63600000Y-106400000D01*
X61235000Y-93860000D02*
X63000000Y-93860000D01*
X60850000Y-104125000D02*
X63600000Y-106875000D01*
X60850000Y-94245000D02*
X60850000Y-104125000D01*
X61235000Y-93860000D02*
X60850000Y-94245000D01*
X63600000Y-106875000D02*
X63600000Y-106400000D01*
X75400000Y-73425000D02*
X74425000Y-73425000D01*
X69475000Y-68475000D02*
X64500000Y-63500000D01*
X72550000Y-71550000D02*
X69475000Y-68475000D01*
X72575000Y-71575000D02*
X72550000Y-71550000D01*
X74425000Y-73425000D02*
X72575000Y-71575000D01*
X64500000Y-63500000D02*
X64000000Y-64000000D01*
X75570000Y-77550000D02*
X75580000Y-77550000D01*
X76575000Y-103050000D02*
X76050000Y-103050000D01*
X83375000Y-102525000D02*
X77100000Y-102525000D01*
X76575000Y-103050000D02*
X77100000Y-102525000D01*
X75675000Y-102675000D02*
X76050000Y-103050000D01*
X75675000Y-101175000D02*
X75675000Y-102675000D01*
X74650000Y-97050000D02*
X71000000Y-97050000D01*
X70975000Y-97025000D02*
X71000000Y-97050000D01*
X97325000Y-69150000D02*
X100050000Y-69150000D01*
X97325000Y-69150000D02*
X95975000Y-70500000D01*
X95975000Y-74250000D02*
X95975000Y-70500000D01*
X102325000Y-66875000D02*
X100050000Y-69150000D01*
X72225000Y-77950000D02*
X72225000Y-84125000D01*
X72575000Y-77600000D02*
X72575000Y-71575000D01*
X72225000Y-77950000D02*
X72575000Y-77600000D01*
X71325000Y-85025000D02*
X72225000Y-84125000D01*
X72000000Y-101700000D02*
X65575000Y-101700000D01*
X72025000Y-101675000D02*
X72000000Y-101700000D01*
X102875000Y-62275000D02*
X102850000Y-62300000D01*
X102850000Y-62300000D02*
X102850000Y-64225000D01*
X82250000Y-94000000D02*
X82250000Y-95850000D01*
X81700000Y-96400000D02*
X65540000Y-96400000D01*
X82250000Y-95850000D02*
X81700000Y-96400000D01*
X63000000Y-98940000D02*
X63000000Y-98350000D01*
X63000000Y-98350000D02*
X63650000Y-97700000D01*
X63650000Y-97700000D02*
X82650000Y-97700000D01*
X82650000Y-97700000D02*
X84790000Y-95560000D01*
X84790000Y-95560000D02*
X84790000Y-94000000D01*
X79275000Y-103475000D02*
X79575000Y-103775000D01*
X79575000Y-103775000D02*
X79575000Y-107700000D01*
X63000000Y-96400000D02*
X63350000Y-96400000D01*
D25*
G36*
X84276880Y-95351871D02*
X82438752Y-97190000D01*
X66539403Y-97190000D01*
X66726493Y-96910000D01*
X81700000Y-96910000D01*
X81700000Y-96909999D01*
X81895169Y-96871179D01*
X82060624Y-96760624D01*
X82610624Y-96210625D01*
X82610624Y-96210624D01*
X82721179Y-96045169D01*
X82759999Y-95850000D01*
X82760000Y-95850000D01*
X82760000Y-95434032D01*
X83266000Y-95434032D01*
X83422332Y-95403700D01*
X83559733Y-95313443D01*
X83651708Y-95177185D01*
X83684032Y-95016000D01*
X83684032Y-94890151D01*
X83781666Y-95036271D01*
X84244293Y-95345389D01*
X84276880Y-95351871D01*
X84276880Y-95351871D01*
G37*
X84276880Y-95351871D02*
X82438752Y-97190000D01*
X66539403Y-97190000D01*
X66726493Y-96910000D01*
X81700000Y-96910000D01*
X81700000Y-96909999D01*
X81895169Y-96871179D01*
X82060624Y-96760624D01*
X82610624Y-96210625D01*
X82610624Y-96210624D01*
X82721179Y-96045169D01*
X82759999Y-95850000D01*
X82760000Y-95850000D01*
X82760000Y-95434032D01*
X83266000Y-95434032D01*
X83422332Y-95403700D01*
X83559733Y-95313443D01*
X83651708Y-95177185D01*
X83684032Y-95016000D01*
X83684032Y-94890151D01*
X83781666Y-95036271D01*
X84244293Y-95345389D01*
X84276880Y-95351871D01*
G36*
X109540000Y-109540000D02*
X108973905Y-109540000D01*
X108973905Y-99352903D01*
X108859264Y-99124000D01*
X107684000Y-99124000D01*
X107684000Y-99144000D01*
X107396000Y-99144000D01*
X107396000Y-99124000D01*
X107376000Y-99124000D01*
X107376000Y-98836000D01*
X107396000Y-98836000D01*
X107396000Y-98816000D01*
X107684000Y-98816000D01*
X107684000Y-98836000D01*
X108859264Y-98836000D01*
X108973905Y-98607097D01*
X108817615Y-98229752D01*
X108433255Y-97797939D01*
X108055012Y-97614865D01*
X108465522Y-97340571D01*
X108741604Y-96927386D01*
X108838551Y-96440000D01*
X108741604Y-95952614D01*
X108465522Y-95539429D01*
X108052337Y-95263347D01*
X107583049Y-95170000D01*
X108052337Y-95076653D01*
X108465522Y-94800571D01*
X108741604Y-94387386D01*
X108838551Y-93900000D01*
X108741604Y-93412614D01*
X108465522Y-92999429D01*
X108052337Y-92723347D01*
X107583049Y-92630000D01*
X108052337Y-92536653D01*
X108465522Y-92260571D01*
X108741604Y-91847386D01*
X108838551Y-91360000D01*
X108741604Y-90872614D01*
X108465522Y-90459429D01*
X108052337Y-90183347D01*
X107583049Y-90090000D01*
X108052337Y-89996653D01*
X108465522Y-89720571D01*
X108741604Y-89307386D01*
X108838551Y-88820000D01*
X108741604Y-88332614D01*
X108465522Y-87919429D01*
X108052337Y-87643347D01*
X107583049Y-87550000D01*
X108052337Y-87456653D01*
X108465522Y-87180571D01*
X108741604Y-86767386D01*
X108838551Y-86280000D01*
X108741604Y-85792614D01*
X108465522Y-85379429D01*
X108052337Y-85103347D01*
X107583049Y-85010000D01*
X108052337Y-84916653D01*
X108465522Y-84640571D01*
X108741604Y-84227386D01*
X108838551Y-83740000D01*
X108741604Y-83252614D01*
X108465522Y-82839429D01*
X108052337Y-82563347D01*
X107583049Y-82470000D01*
X108052337Y-82376653D01*
X108465522Y-82100571D01*
X108741604Y-81687386D01*
X108838551Y-81200000D01*
X108741604Y-80712614D01*
X108465522Y-80299429D01*
X108052337Y-80023347D01*
X107583049Y-79930000D01*
X108052337Y-79836653D01*
X108465522Y-79560571D01*
X108741604Y-79147386D01*
X108838551Y-78660000D01*
X108741604Y-78172614D01*
X108465522Y-77759429D01*
X108052337Y-77483347D01*
X107583049Y-77390000D01*
X108052337Y-77296653D01*
X108465522Y-77020571D01*
X108741604Y-76607386D01*
X108838551Y-76120000D01*
X108741604Y-75632614D01*
X108465522Y-75219429D01*
X108052337Y-74943347D01*
X107583049Y-74850000D01*
X108052337Y-74756653D01*
X108465522Y-74480571D01*
X108741604Y-74067386D01*
X108838551Y-73580000D01*
X108741604Y-73092614D01*
X108465522Y-72679429D01*
X108052337Y-72403347D01*
X107583049Y-72310000D01*
X108052337Y-72216653D01*
X108465522Y-71940571D01*
X108741604Y-71527386D01*
X108838551Y-71040000D01*
X108741604Y-70552614D01*
X108465522Y-70139429D01*
X108052337Y-69863347D01*
X107583049Y-69770000D01*
X108052337Y-69676653D01*
X108465522Y-69400571D01*
X108741604Y-68987386D01*
X108838551Y-68500000D01*
X108741604Y-68012614D01*
X108465522Y-67599429D01*
X108052337Y-67323347D01*
X107564951Y-67226400D01*
X107515049Y-67226400D01*
X107027663Y-67323347D01*
X106614478Y-67599429D01*
X106338396Y-68012614D01*
X106281632Y-68297986D01*
X106281632Y-67636400D01*
X106251300Y-67480068D01*
X106161043Y-67342667D01*
X106024785Y-67250692D01*
X105863600Y-67218368D01*
X104136400Y-67218368D01*
X103980068Y-67248700D01*
X103842667Y-67338957D01*
X103750692Y-67475215D01*
X103718368Y-67636400D01*
X103718368Y-69363600D01*
X103748700Y-69519932D01*
X103838957Y-69657333D01*
X103975215Y-69749308D01*
X104136400Y-69781632D01*
X104898472Y-69781632D01*
X104487663Y-69863347D01*
X104074478Y-70139429D01*
X103798396Y-70552614D01*
X103701449Y-71040000D01*
X103798396Y-71527386D01*
X104074478Y-71940571D01*
X104487663Y-72216653D01*
X104956950Y-72310000D01*
X104487663Y-72403347D01*
X104074478Y-72679429D01*
X103798396Y-73092614D01*
X103701449Y-73580000D01*
X103798396Y-74067386D01*
X104074478Y-74480571D01*
X104487663Y-74756653D01*
X104956950Y-74850000D01*
X104487663Y-74943347D01*
X104074478Y-75219429D01*
X103798396Y-75632614D01*
X103701449Y-76120000D01*
X103798396Y-76607386D01*
X104074478Y-77020571D01*
X104487663Y-77296653D01*
X104956950Y-77390000D01*
X104487663Y-77483347D01*
X104074478Y-77759429D01*
X103798396Y-78172614D01*
X103701449Y-78660000D01*
X103798396Y-79147386D01*
X104074478Y-79560571D01*
X104487663Y-79836653D01*
X104956950Y-79930000D01*
X104487663Y-80023347D01*
X104074478Y-80299429D01*
X103798396Y-80712614D01*
X103701449Y-81200000D01*
X103798396Y-81687386D01*
X104074478Y-82100571D01*
X104484987Y-82374865D01*
X104106745Y-82557939D01*
X103722385Y-82989752D01*
X103602626Y-83278896D01*
X103602626Y-62130926D01*
X103492104Y-61863442D01*
X103287634Y-61658615D01*
X103020344Y-61547626D01*
X102730926Y-61547374D01*
X102463442Y-61657896D01*
X102258615Y-61862366D01*
X102147626Y-62129656D01*
X102147374Y-62419074D01*
X102257896Y-62686558D01*
X102340000Y-62768805D01*
X102340000Y-63706166D01*
X102233615Y-63812366D01*
X102122626Y-64079656D01*
X102122374Y-64369074D01*
X102232896Y-64636558D01*
X102437366Y-64841385D01*
X102704656Y-64952374D01*
X102994074Y-64952626D01*
X103261558Y-64842104D01*
X103466385Y-64637634D01*
X103577374Y-64370344D01*
X103577626Y-64080926D01*
X103467104Y-63813442D01*
X103360000Y-63706150D01*
X103360000Y-62818790D01*
X103491385Y-62687634D01*
X103602374Y-62420344D01*
X103602626Y-62130926D01*
X103602626Y-83278896D01*
X103566095Y-83367097D01*
X103680736Y-83596000D01*
X104856000Y-83596000D01*
X104856000Y-83576000D01*
X105144000Y-83576000D01*
X105144000Y-83596000D01*
X105164000Y-83596000D01*
X105164000Y-83884000D01*
X105144000Y-83884000D01*
X105144000Y-83904000D01*
X104856000Y-83904000D01*
X104856000Y-83884000D01*
X103680736Y-83884000D01*
X103566095Y-84112903D01*
X103722385Y-84490248D01*
X104106745Y-84922061D01*
X104484987Y-85105134D01*
X104074478Y-85379429D01*
X103798396Y-85792614D01*
X103701449Y-86280000D01*
X103798396Y-86767386D01*
X104074478Y-87180571D01*
X104487663Y-87456653D01*
X104956950Y-87550000D01*
X104487663Y-87643347D01*
X104074478Y-87919429D01*
X103798396Y-88332614D01*
X103701449Y-88820000D01*
X103798396Y-89307386D01*
X104074478Y-89720571D01*
X104487663Y-89996653D01*
X104956950Y-90090000D01*
X104487663Y-90183347D01*
X104074478Y-90459429D01*
X103798396Y-90872614D01*
X103701449Y-91360000D01*
X103798396Y-91847386D01*
X104074478Y-92260571D01*
X104487663Y-92536653D01*
X104956950Y-92630000D01*
X104487663Y-92723347D01*
X104074478Y-92999429D01*
X103798396Y-93412614D01*
X103701449Y-93900000D01*
X103798396Y-94387386D01*
X104074478Y-94800571D01*
X104487663Y-95076653D01*
X104956950Y-95170000D01*
X104487663Y-95263347D01*
X104074478Y-95539429D01*
X103798396Y-95952614D01*
X103701449Y-96440000D01*
X103798396Y-96927386D01*
X104074478Y-97340571D01*
X104487663Y-97616653D01*
X104956950Y-97710000D01*
X104487663Y-97803347D01*
X104074478Y-98079429D01*
X103798396Y-98492614D01*
X103701449Y-98980000D01*
X103798396Y-99467386D01*
X104074478Y-99880571D01*
X104487663Y-100156653D01*
X104956950Y-100250000D01*
X104487663Y-100343347D01*
X104074478Y-100619429D01*
X103798396Y-101032614D01*
X103701449Y-101520000D01*
X103798396Y-102007386D01*
X104074478Y-102420571D01*
X104487663Y-102696653D01*
X104975049Y-102793600D01*
X105024951Y-102793600D01*
X105512337Y-102696653D01*
X105925522Y-102420571D01*
X106201604Y-102007386D01*
X106270000Y-101663535D01*
X106338396Y-102007386D01*
X106614478Y-102420571D01*
X107027663Y-102696653D01*
X107515049Y-102793600D01*
X107564951Y-102793600D01*
X108052337Y-102696653D01*
X108465522Y-102420571D01*
X108741604Y-102007386D01*
X108838551Y-101520000D01*
X108741604Y-101032614D01*
X108465522Y-100619429D01*
X108055012Y-100345134D01*
X108433255Y-100162061D01*
X108817615Y-99730248D01*
X108973905Y-99352903D01*
X108973905Y-109540000D01*
X100375076Y-109540000D01*
X100375076Y-94375941D01*
X100375076Y-93624059D01*
X100178008Y-93080415D01*
X99787898Y-92653568D01*
X99282903Y-92413695D01*
X99054000Y-92528336D01*
X99054000Y-93856000D01*
X100237508Y-93856000D01*
X100375076Y-93624059D01*
X100375076Y-94375941D01*
X100237508Y-94144000D01*
X99054000Y-94144000D01*
X99054000Y-95471664D01*
X99282903Y-95586305D01*
X99787898Y-95346432D01*
X100178008Y-94919585D01*
X100375076Y-94375941D01*
X100375076Y-109540000D01*
X98766000Y-109540000D01*
X98766000Y-95471664D01*
X98766000Y-94144000D01*
X98746000Y-94144000D01*
X98746000Y-93856000D01*
X98766000Y-93856000D01*
X98766000Y-92528336D01*
X98537097Y-92413695D01*
X98032102Y-92653568D01*
X97641992Y-93080415D01*
X97548084Y-93339473D01*
X97546653Y-93332277D01*
X97270571Y-92919092D01*
X96857386Y-92643010D01*
X96370000Y-92546063D01*
X95882614Y-92643010D01*
X95469429Y-92919092D01*
X95193347Y-93332277D01*
X95100000Y-93801564D01*
X95006653Y-93332277D01*
X94730571Y-92919092D01*
X94317386Y-92643010D01*
X93830000Y-92546063D01*
X93342614Y-92643010D01*
X92929429Y-92919092D01*
X92653347Y-93332277D01*
X92560000Y-93801564D01*
X92466653Y-93332277D01*
X92190571Y-92919092D01*
X91777386Y-92643010D01*
X91493000Y-92586442D01*
X91493000Y-82022928D01*
X91493000Y-81798500D01*
X91493000Y-81201500D01*
X91493000Y-80977072D01*
X91398915Y-80749931D01*
X91240341Y-80591357D01*
X91260708Y-80561185D01*
X91293032Y-80400000D01*
X91293032Y-79798461D01*
X91377374Y-79595344D01*
X91377626Y-79305926D01*
X91267104Y-79038442D01*
X91062634Y-78833615D01*
X90795344Y-78722626D01*
X90505926Y-78722374D01*
X90238442Y-78832896D01*
X90033615Y-79037366D01*
X89958090Y-79219248D01*
X89831267Y-79302557D01*
X89739292Y-79438815D01*
X89706968Y-79600000D01*
X89706968Y-80400000D01*
X89737300Y-80556332D01*
X89760050Y-80590965D01*
X89601085Y-80749931D01*
X89507000Y-80977072D01*
X89507000Y-81201500D01*
X89661500Y-81356000D01*
X90356000Y-81356000D01*
X90356000Y-81336000D01*
X90644000Y-81336000D01*
X90644000Y-81356000D01*
X91338500Y-81356000D01*
X91493000Y-81201500D01*
X91493000Y-81798500D01*
X91338500Y-81644000D01*
X90644000Y-81644000D01*
X90644000Y-82363500D01*
X90798500Y-82518000D01*
X90997928Y-82518000D01*
X91225069Y-82423915D01*
X91398915Y-82250069D01*
X91493000Y-82022928D01*
X91493000Y-92586442D01*
X91290000Y-92546063D01*
X90802614Y-92643010D01*
X90389429Y-92919092D01*
X90356000Y-92969121D01*
X90356000Y-82363500D01*
X90356000Y-81644000D01*
X89661500Y-81644000D01*
X89507000Y-81798500D01*
X89507000Y-82022928D01*
X89601085Y-82250069D01*
X89774931Y-82423915D01*
X90002072Y-82518000D01*
X90201500Y-82518000D01*
X90356000Y-82363500D01*
X90356000Y-92969121D01*
X90113347Y-93332277D01*
X90031632Y-93743086D01*
X90031632Y-92984000D01*
X90001300Y-92827668D01*
X89911043Y-92690267D01*
X89774785Y-92598292D01*
X89768000Y-92596931D01*
X89768000Y-85247928D01*
X89768000Y-85048500D01*
X89768000Y-84451500D01*
X89768000Y-84252072D01*
X89673915Y-84024931D01*
X89500069Y-83851085D01*
X89272928Y-83757000D01*
X89048500Y-83757000D01*
X88894000Y-83911500D01*
X88894000Y-84606000D01*
X89613500Y-84606000D01*
X89768000Y-84451500D01*
X89768000Y-85048500D01*
X89613500Y-84894000D01*
X88894000Y-84894000D01*
X88894000Y-85588500D01*
X89048500Y-85743000D01*
X89272928Y-85743000D01*
X89500069Y-85648915D01*
X89673915Y-85475069D01*
X89768000Y-85247928D01*
X89768000Y-92596931D01*
X89613600Y-92565968D01*
X88606000Y-92565968D01*
X88606000Y-85588500D01*
X88606000Y-84894000D01*
X88586000Y-84894000D01*
X88586000Y-84606000D01*
X88606000Y-84606000D01*
X88606000Y-83911500D01*
X88451500Y-83757000D01*
X88227072Y-83757000D01*
X87999931Y-83851085D01*
X87841357Y-84009658D01*
X87811185Y-83989292D01*
X87650000Y-83956968D01*
X86850000Y-83956968D01*
X86693668Y-83987300D01*
X86639963Y-84022577D01*
X86405926Y-84022374D01*
X86138442Y-84132896D01*
X85933615Y-84337366D01*
X85822626Y-84604656D01*
X85822374Y-84894074D01*
X85932896Y-85161558D01*
X86137366Y-85366385D01*
X86404656Y-85477374D01*
X86639734Y-85477578D01*
X86688815Y-85510708D01*
X86850000Y-85543032D01*
X87650000Y-85543032D01*
X87806332Y-85512700D01*
X87840965Y-85489949D01*
X87999931Y-85648915D01*
X88227072Y-85743000D01*
X88451500Y-85743000D01*
X88606000Y-85588500D01*
X88606000Y-92565968D01*
X87886400Y-92565968D01*
X87730068Y-92596300D01*
X87592667Y-92686557D01*
X87500692Y-92822815D01*
X87468368Y-92984000D01*
X87468368Y-95016000D01*
X87498700Y-95172332D01*
X87588957Y-95309733D01*
X87725215Y-95401708D01*
X87886400Y-95434032D01*
X89613600Y-95434032D01*
X89769932Y-95403700D01*
X89907333Y-95313443D01*
X89999308Y-95177185D01*
X90031632Y-95016000D01*
X90031632Y-94256913D01*
X90113347Y-94667723D01*
X90389429Y-95080908D01*
X90802614Y-95356990D01*
X91290000Y-95453937D01*
X91777386Y-95356990D01*
X92190571Y-95080908D01*
X92466653Y-94667723D01*
X92560000Y-94198435D01*
X92653347Y-94667723D01*
X92929429Y-95080908D01*
X93342614Y-95356990D01*
X93830000Y-95453937D01*
X94317386Y-95356990D01*
X94730571Y-95080908D01*
X95006653Y-94667723D01*
X95100000Y-94198435D01*
X95193347Y-94667723D01*
X95469429Y-95080908D01*
X95882614Y-95356990D01*
X96370000Y-95453937D01*
X96857386Y-95356990D01*
X97270571Y-95080908D01*
X97546653Y-94667723D01*
X97548084Y-94660526D01*
X97641992Y-94919585D01*
X98032102Y-95346432D01*
X98537097Y-95586305D01*
X98766000Y-95471664D01*
X98766000Y-109540000D01*
X86216000Y-109540000D01*
X86216000Y-94027937D01*
X86216000Y-93972063D01*
X86107452Y-93426356D01*
X85798334Y-92963729D01*
X85335707Y-92654611D01*
X84790000Y-92546063D01*
X84244293Y-92654611D01*
X83781666Y-92963729D01*
X83684032Y-93109848D01*
X83684032Y-92984000D01*
X83653700Y-92827668D01*
X83563443Y-92690267D01*
X83427185Y-92598292D01*
X83266000Y-92565968D01*
X81234000Y-92565968D01*
X81077668Y-92596300D01*
X80940267Y-92686557D01*
X80848292Y-92822815D01*
X80815968Y-92984000D01*
X80815968Y-95016000D01*
X80846300Y-95172332D01*
X80936557Y-95309733D01*
X81072815Y-95401708D01*
X81234000Y-95434032D01*
X81740000Y-95434032D01*
X81740000Y-95638751D01*
X81488751Y-95890000D01*
X77684032Y-95890000D01*
X77684032Y-95016000D01*
X77684032Y-92984000D01*
X77653700Y-92827668D01*
X77563443Y-92690267D01*
X77427185Y-92598292D01*
X77266000Y-92565968D01*
X76502647Y-92565968D01*
X76502647Y-67031171D01*
X76437607Y-66873763D01*
X76437607Y-66873762D01*
X76437606Y-66873760D01*
X76373135Y-66717729D01*
X76252811Y-66597194D01*
X76252809Y-66597191D01*
X76252805Y-66597188D01*
X76133533Y-66477707D01*
X75976238Y-66412393D01*
X75820317Y-66347649D01*
X75650001Y-66347500D01*
X75650000Y-66347500D01*
X75649598Y-66347500D01*
X75481171Y-66347353D01*
X75480815Y-66347500D01*
X75052500Y-66347500D01*
X75052500Y-63850000D01*
X75052500Y-63849598D01*
X75052647Y-63681171D01*
X75052500Y-63680815D01*
X75052500Y-62900000D01*
X75052499Y-62899998D01*
X75052647Y-62731171D01*
X74987607Y-62573763D01*
X74987607Y-62573762D01*
X74987606Y-62573760D01*
X74923135Y-62417729D01*
X74802811Y-62297194D01*
X74802809Y-62297191D01*
X74802805Y-62297188D01*
X74683533Y-62177707D01*
X74526238Y-62112393D01*
X74370317Y-62047649D01*
X74200001Y-62047500D01*
X74200000Y-62047500D01*
X74199998Y-62047500D01*
X74031171Y-62047353D01*
X73873763Y-62112392D01*
X73873762Y-62112393D01*
X73873760Y-62112393D01*
X73717729Y-62176865D01*
X73597194Y-62297188D01*
X73597191Y-62297191D01*
X73597188Y-62297194D01*
X73477707Y-62416467D01*
X73347649Y-62729683D01*
X73347500Y-62899998D01*
X73347500Y-62900000D01*
X73347500Y-62900401D01*
X73347353Y-63068829D01*
X73347500Y-63069184D01*
X73347500Y-63849998D01*
X73347500Y-63850000D01*
X73347500Y-63850001D01*
X73347500Y-63850401D01*
X73347353Y-64018829D01*
X73347500Y-64019184D01*
X73347500Y-66909627D01*
X73297649Y-67029683D01*
X73297500Y-67199993D01*
X73297499Y-67200000D01*
X73297500Y-67200006D01*
X73297353Y-67368829D01*
X73362392Y-67526236D01*
X73362393Y-67526238D01*
X73362393Y-67526239D01*
X73426865Y-67682271D01*
X73547188Y-67802805D01*
X73547191Y-67802809D01*
X73547194Y-67802811D01*
X73666467Y-67922293D01*
X73823762Y-67987607D01*
X73823763Y-67987607D01*
X73979683Y-68052351D01*
X74149993Y-68052499D01*
X74150000Y-68052501D01*
X74150000Y-68052500D01*
X74150005Y-68052500D01*
X74150401Y-68052500D01*
X74318829Y-68052647D01*
X74319184Y-68052500D01*
X75650000Y-68052500D01*
X75650001Y-68052499D01*
X75818829Y-68052647D01*
X75976236Y-67987607D01*
X75976238Y-67987607D01*
X75976239Y-67987606D01*
X76132271Y-67923135D01*
X76252805Y-67802811D01*
X76252809Y-67802809D01*
X76252811Y-67802805D01*
X76372293Y-67683533D01*
X76437607Y-67526238D01*
X76502351Y-67370317D01*
X76502499Y-67200001D01*
X76502500Y-67200000D01*
X76502499Y-67199998D01*
X76502647Y-67031171D01*
X76502647Y-92565968D01*
X75234000Y-92565968D01*
X75077668Y-92596300D01*
X74940267Y-92686557D01*
X74848292Y-92822815D01*
X74840490Y-92861716D01*
X74550211Y-92598561D01*
X74106846Y-92414924D01*
X73854000Y-92527524D01*
X73854000Y-93856000D01*
X73874000Y-93856000D01*
X73874000Y-94144000D01*
X73854000Y-94144000D01*
X73854000Y-95472476D01*
X74106846Y-95585076D01*
X74550211Y-95401439D01*
X74839812Y-95138897D01*
X74846300Y-95172332D01*
X74936557Y-95309733D01*
X75072815Y-95401708D01*
X75234000Y-95434032D01*
X77266000Y-95434032D01*
X77422332Y-95403700D01*
X77559733Y-95313443D01*
X77651708Y-95177185D01*
X77684032Y-95016000D01*
X77684032Y-95890000D01*
X73566000Y-95890000D01*
X73566000Y-95472476D01*
X73566000Y-94144000D01*
X73566000Y-93856000D01*
X73566000Y-92527524D01*
X73313154Y-92414924D01*
X72869789Y-92598561D01*
X72397439Y-93026774D01*
X72124914Y-93603152D01*
X72236848Y-93856000D01*
X73566000Y-93856000D01*
X73566000Y-94144000D01*
X72236848Y-94144000D01*
X72124914Y-94396848D01*
X72397439Y-94973226D01*
X72869789Y-95401439D01*
X73313154Y-95585076D01*
X73566000Y-95472476D01*
X73566000Y-95890000D01*
X66726493Y-95890000D01*
X66465522Y-95499429D01*
X66055012Y-95225134D01*
X66433255Y-95042061D01*
X66817615Y-94610248D01*
X66973905Y-94232903D01*
X66973905Y-93487097D01*
X66817615Y-93109752D01*
X66433255Y-92677939D01*
X66055012Y-92494865D01*
X66465522Y-92220571D01*
X66741604Y-91807386D01*
X66838551Y-91320000D01*
X66741604Y-90832614D01*
X66465522Y-90419429D01*
X66052337Y-90143347D01*
X65583049Y-90050000D01*
X66052337Y-89956653D01*
X66465522Y-89680571D01*
X66741604Y-89267386D01*
X66838551Y-88780000D01*
X66741604Y-88292614D01*
X66465522Y-87879429D01*
X66052337Y-87603347D01*
X65583049Y-87510000D01*
X66052337Y-87416653D01*
X66465522Y-87140571D01*
X66741604Y-86727386D01*
X66838551Y-86240000D01*
X66741604Y-85752614D01*
X66465522Y-85339429D01*
X66052337Y-85063347D01*
X65583049Y-84970000D01*
X66052337Y-84876653D01*
X66465522Y-84600571D01*
X66741604Y-84187386D01*
X66838551Y-83700000D01*
X66741604Y-83212614D01*
X66465522Y-82799429D01*
X66052337Y-82523347D01*
X65583049Y-82430000D01*
X66052337Y-82336653D01*
X66465522Y-82060571D01*
X66741604Y-81647386D01*
X66838551Y-81160000D01*
X66741604Y-80672614D01*
X66465522Y-80259429D01*
X66052337Y-79983347D01*
X65583049Y-79890000D01*
X66052337Y-79796653D01*
X66465522Y-79520571D01*
X66741604Y-79107386D01*
X66838551Y-78620000D01*
X66741604Y-78132614D01*
X66465522Y-77719429D01*
X66052337Y-77443347D01*
X65583049Y-77350000D01*
X66052337Y-77256653D01*
X66465522Y-76980571D01*
X66741604Y-76567386D01*
X66838551Y-76080000D01*
X66741604Y-75592614D01*
X66465522Y-75179429D01*
X66052337Y-74903347D01*
X65583049Y-74810000D01*
X66052337Y-74716653D01*
X66465522Y-74440571D01*
X66741604Y-74027386D01*
X66838551Y-73540000D01*
X66741604Y-73052614D01*
X66465522Y-72639429D01*
X66052337Y-72363347D01*
X65583049Y-72270000D01*
X66052337Y-72176653D01*
X66465522Y-71900571D01*
X66741604Y-71487386D01*
X66838551Y-71000000D01*
X66741604Y-70512614D01*
X66465522Y-70099429D01*
X66052337Y-69823347D01*
X65564951Y-69726400D01*
X65515049Y-69726400D01*
X65027663Y-69823347D01*
X64614478Y-70099429D01*
X64338396Y-70512614D01*
X64281632Y-70797986D01*
X64281632Y-70136400D01*
X64251300Y-69980068D01*
X64161043Y-69842667D01*
X64024785Y-69750692D01*
X63863600Y-69718368D01*
X62136400Y-69718368D01*
X61980068Y-69748700D01*
X61842667Y-69838957D01*
X61750692Y-69975215D01*
X61718368Y-70136400D01*
X61718368Y-71863600D01*
X61748700Y-72019932D01*
X61838957Y-72157333D01*
X61975215Y-72249308D01*
X62136400Y-72281632D01*
X62898472Y-72281632D01*
X62487663Y-72363347D01*
X62074478Y-72639429D01*
X61798396Y-73052614D01*
X61701449Y-73540000D01*
X61798396Y-74027386D01*
X62074478Y-74440571D01*
X62487663Y-74716653D01*
X62956950Y-74810000D01*
X62487663Y-74903347D01*
X62074478Y-75179429D01*
X61798396Y-75592614D01*
X61701449Y-76080000D01*
X61798396Y-76567386D01*
X62074478Y-76980571D01*
X62487663Y-77256653D01*
X62956950Y-77350000D01*
X62487663Y-77443347D01*
X62074478Y-77719429D01*
X61798396Y-78132614D01*
X61701449Y-78620000D01*
X61798396Y-79107386D01*
X62074478Y-79520571D01*
X62487663Y-79796653D01*
X62956950Y-79890000D01*
X62487663Y-79983347D01*
X62074478Y-80259429D01*
X61798396Y-80672614D01*
X61701449Y-81160000D01*
X61798396Y-81647386D01*
X62074478Y-82060571D01*
X62487663Y-82336653D01*
X62956950Y-82430000D01*
X62487663Y-82523347D01*
X62074478Y-82799429D01*
X61798396Y-83212614D01*
X61701449Y-83700000D01*
X61798396Y-84187386D01*
X62074478Y-84600571D01*
X62487663Y-84876653D01*
X62956950Y-84970000D01*
X62487663Y-85063347D01*
X62074478Y-85339429D01*
X61798396Y-85752614D01*
X61701449Y-86240000D01*
X61798396Y-86727386D01*
X62074478Y-87140571D01*
X62487663Y-87416653D01*
X62956950Y-87510000D01*
X62487663Y-87603347D01*
X62074478Y-87879429D01*
X61798396Y-88292614D01*
X61701449Y-88780000D01*
X61798396Y-89267386D01*
X62074478Y-89680571D01*
X62487663Y-89956653D01*
X62956950Y-90050000D01*
X62487663Y-90143347D01*
X62074478Y-90419429D01*
X61798396Y-90832614D01*
X61701449Y-91320000D01*
X61798396Y-91807386D01*
X62074478Y-92220571D01*
X62484987Y-92494865D01*
X62106745Y-92677939D01*
X61722385Y-93109752D01*
X61566095Y-93487097D01*
X61680736Y-93716000D01*
X62856000Y-93716000D01*
X62856000Y-93696000D01*
X63144000Y-93696000D01*
X63144000Y-93716000D01*
X64220736Y-93716000D01*
X64319264Y-93716000D01*
X65396000Y-93716000D01*
X65396000Y-93696000D01*
X65684000Y-93696000D01*
X65684000Y-93716000D01*
X66859264Y-93716000D01*
X66973905Y-93487097D01*
X66973905Y-94232903D01*
X66859264Y-94004000D01*
X65684000Y-94004000D01*
X65684000Y-94024000D01*
X65396000Y-94024000D01*
X65396000Y-94004000D01*
X64319264Y-94004000D01*
X64220736Y-94004000D01*
X63144000Y-94004000D01*
X63144000Y-94024000D01*
X62856000Y-94024000D01*
X62856000Y-94004000D01*
X61680736Y-94004000D01*
X61566095Y-94232903D01*
X61722385Y-94610248D01*
X62106745Y-95042061D01*
X62484987Y-95225134D01*
X62074478Y-95499429D01*
X61798396Y-95912614D01*
X61701449Y-96400000D01*
X61798396Y-96887386D01*
X62074478Y-97300571D01*
X62487663Y-97576653D01*
X62956950Y-97670000D01*
X62487663Y-97763347D01*
X62074478Y-98039429D01*
X61798396Y-98452614D01*
X61701449Y-98940000D01*
X61798396Y-99427386D01*
X62074478Y-99840571D01*
X62487663Y-100116653D01*
X62975049Y-100213600D01*
X63024951Y-100213600D01*
X63512337Y-100116653D01*
X63925522Y-99840571D01*
X64171915Y-99471818D01*
X64262385Y-99690248D01*
X64646745Y-100122061D01*
X65167095Y-100373916D01*
X65396000Y-100260097D01*
X65396000Y-99084000D01*
X65376000Y-99084000D01*
X65376000Y-98796000D01*
X65396000Y-98796000D01*
X65396000Y-98776000D01*
X65684000Y-98776000D01*
X65684000Y-98796000D01*
X66859264Y-98796000D01*
X66973905Y-98567097D01*
X66826001Y-98210000D01*
X82650000Y-98210000D01*
X82650000Y-98209999D01*
X82845169Y-98171179D01*
X83010624Y-98060624D01*
X85150624Y-95920624D01*
X85261179Y-95755169D01*
X85299999Y-95560000D01*
X85300000Y-95560000D01*
X85300000Y-95352491D01*
X85335707Y-95345389D01*
X85798334Y-95036271D01*
X86107452Y-94573644D01*
X86216000Y-94027937D01*
X86216000Y-109540000D01*
X80302626Y-109540000D01*
X80302626Y-107555926D01*
X80192104Y-107288442D01*
X80085000Y-107181150D01*
X80085000Y-103775000D01*
X80046179Y-103579831D01*
X80002466Y-103514411D01*
X80002466Y-103514410D01*
X80002626Y-103330926D01*
X79892104Y-103063442D01*
X79687634Y-102858615D01*
X79420344Y-102747626D01*
X79130926Y-102747374D01*
X78863442Y-102857896D01*
X78658615Y-103062366D01*
X78547626Y-103329656D01*
X78547374Y-103619074D01*
X78657896Y-103886558D01*
X78862366Y-104091385D01*
X79065000Y-104175526D01*
X79065000Y-107181166D01*
X78958615Y-107287366D01*
X78847626Y-107554656D01*
X78847374Y-107844074D01*
X78957896Y-108111558D01*
X79162366Y-108316385D01*
X79429656Y-108427374D01*
X79719074Y-108427626D01*
X79986558Y-108317104D01*
X80191385Y-108112634D01*
X80302374Y-107845344D01*
X80302626Y-107555926D01*
X80302626Y-109540000D01*
X72752626Y-109540000D01*
X72752626Y-101530926D01*
X72642104Y-101263442D01*
X72437634Y-101058615D01*
X72170344Y-100947626D01*
X71880926Y-100947374D01*
X71613442Y-101057896D01*
X71481107Y-101190000D01*
X66973905Y-101190000D01*
X66973905Y-99312903D01*
X66859264Y-99084000D01*
X65684000Y-99084000D01*
X65684000Y-100260097D01*
X65912905Y-100373916D01*
X66433255Y-100122061D01*
X66817615Y-99690248D01*
X66973905Y-99312903D01*
X66973905Y-101190000D01*
X66093833Y-101190000D01*
X65987634Y-101083615D01*
X65720344Y-100972626D01*
X65430926Y-100972374D01*
X65163442Y-101082896D01*
X64958615Y-101287366D01*
X64847626Y-101554656D01*
X64847374Y-101844074D01*
X64957896Y-102111558D01*
X65162366Y-102316385D01*
X65429656Y-102427374D01*
X65719074Y-102427626D01*
X65986558Y-102317104D01*
X66093849Y-102210000D01*
X71531122Y-102210000D01*
X71612366Y-102291385D01*
X71879656Y-102402374D01*
X72169074Y-102402626D01*
X72436558Y-102292104D01*
X72641385Y-102087634D01*
X72752374Y-101820344D01*
X72752626Y-101530926D01*
X72752626Y-109540000D01*
X60460000Y-109540000D01*
X60460000Y-60460000D01*
X109540000Y-60460000D01*
X109540000Y-109540000D01*
X109540000Y-109540000D01*
G37*
X109540000Y-109540000D02*
X108973905Y-109540000D01*
X108973905Y-99352903D01*
X108859264Y-99124000D01*
X107684000Y-99124000D01*
X107684000Y-99144000D01*
X107396000Y-99144000D01*
X107396000Y-99124000D01*
X107376000Y-99124000D01*
X107376000Y-98836000D01*
X107396000Y-98836000D01*
X107396000Y-98816000D01*
X107684000Y-98816000D01*
X107684000Y-98836000D01*
X108859264Y-98836000D01*
X108973905Y-98607097D01*
X108817615Y-98229752D01*
X108433255Y-97797939D01*
X108055012Y-97614865D01*
X108465522Y-97340571D01*
X108741604Y-96927386D01*
X108838551Y-96440000D01*
X108741604Y-95952614D01*
X108465522Y-95539429D01*
X108052337Y-95263347D01*
X107583049Y-95170000D01*
X108052337Y-95076653D01*
X108465522Y-94800571D01*
X108741604Y-94387386D01*
X108838551Y-93900000D01*
X108741604Y-93412614D01*
X108465522Y-92999429D01*
X108052337Y-92723347D01*
X107583049Y-92630000D01*
X108052337Y-92536653D01*
X108465522Y-92260571D01*
X108741604Y-91847386D01*
X108838551Y-91360000D01*
X108741604Y-90872614D01*
X108465522Y-90459429D01*
X108052337Y-90183347D01*
X107583049Y-90090000D01*
X108052337Y-89996653D01*
X108465522Y-89720571D01*
X108741604Y-89307386D01*
X108838551Y-88820000D01*
X108741604Y-88332614D01*
X108465522Y-87919429D01*
X108052337Y-87643347D01*
X107583049Y-87550000D01*
X108052337Y-87456653D01*
X108465522Y-87180571D01*
X108741604Y-86767386D01*
X108838551Y-86280000D01*
X108741604Y-85792614D01*
X108465522Y-85379429D01*
X108052337Y-85103347D01*
X107583049Y-85010000D01*
X108052337Y-84916653D01*
X108465522Y-84640571D01*
X108741604Y-84227386D01*
X108838551Y-83740000D01*
X108741604Y-83252614D01*
X108465522Y-82839429D01*
X108052337Y-82563347D01*
X107583049Y-82470000D01*
X108052337Y-82376653D01*
X108465522Y-82100571D01*
X108741604Y-81687386D01*
X108838551Y-81200000D01*
X108741604Y-80712614D01*
X108465522Y-80299429D01*
X108052337Y-80023347D01*
X107583049Y-79930000D01*
X108052337Y-79836653D01*
X108465522Y-79560571D01*
X108741604Y-79147386D01*
X108838551Y-78660000D01*
X108741604Y-78172614D01*
X108465522Y-77759429D01*
X108052337Y-77483347D01*
X107583049Y-77390000D01*
X108052337Y-77296653D01*
X108465522Y-77020571D01*
X108741604Y-76607386D01*
X108838551Y-76120000D01*
X108741604Y-75632614D01*
X108465522Y-75219429D01*
X108052337Y-74943347D01*
X107583049Y-74850000D01*
X108052337Y-74756653D01*
X108465522Y-74480571D01*
X108741604Y-74067386D01*
X108838551Y-73580000D01*
X108741604Y-73092614D01*
X108465522Y-72679429D01*
X108052337Y-72403347D01*
X107583049Y-72310000D01*
X108052337Y-72216653D01*
X108465522Y-71940571D01*
X108741604Y-71527386D01*
X108838551Y-71040000D01*
X108741604Y-70552614D01*
X108465522Y-70139429D01*
X108052337Y-69863347D01*
X107583049Y-69770000D01*
X108052337Y-69676653D01*
X108465522Y-69400571D01*
X108741604Y-68987386D01*
X108838551Y-68500000D01*
X108741604Y-68012614D01*
X108465522Y-67599429D01*
X108052337Y-67323347D01*
X107564951Y-67226400D01*
X107515049Y-67226400D01*
X107027663Y-67323347D01*
X106614478Y-67599429D01*
X106338396Y-68012614D01*
X106281632Y-68297986D01*
X106281632Y-67636400D01*
X106251300Y-67480068D01*
X106161043Y-67342667D01*
X106024785Y-67250692D01*
X105863600Y-67218368D01*
X104136400Y-67218368D01*
X103980068Y-67248700D01*
X103842667Y-67338957D01*
X103750692Y-67475215D01*
X103718368Y-67636400D01*
X103718368Y-69363600D01*
X103748700Y-69519932D01*
X103838957Y-69657333D01*
X103975215Y-69749308D01*
X104136400Y-69781632D01*
X104898472Y-69781632D01*
X104487663Y-69863347D01*
X104074478Y-70139429D01*
X103798396Y-70552614D01*
X103701449Y-71040000D01*
X103798396Y-71527386D01*
X104074478Y-71940571D01*
X104487663Y-72216653D01*
X104956950Y-72310000D01*
X104487663Y-72403347D01*
X104074478Y-72679429D01*
X103798396Y-73092614D01*
X103701449Y-73580000D01*
X103798396Y-74067386D01*
X104074478Y-74480571D01*
X104487663Y-74756653D01*
X104956950Y-74850000D01*
X104487663Y-74943347D01*
X104074478Y-75219429D01*
X103798396Y-75632614D01*
X103701449Y-76120000D01*
X103798396Y-76607386D01*
X104074478Y-77020571D01*
X104487663Y-77296653D01*
X104956950Y-77390000D01*
X104487663Y-77483347D01*
X104074478Y-77759429D01*
X103798396Y-78172614D01*
X103701449Y-78660000D01*
X103798396Y-79147386D01*
X104074478Y-79560571D01*
X104487663Y-79836653D01*
X104956950Y-79930000D01*
X104487663Y-80023347D01*
X104074478Y-80299429D01*
X103798396Y-80712614D01*
X103701449Y-81200000D01*
X103798396Y-81687386D01*
X104074478Y-82100571D01*
X104484987Y-82374865D01*
X104106745Y-82557939D01*
X103722385Y-82989752D01*
X103602626Y-83278896D01*
X103602626Y-62130926D01*
X103492104Y-61863442D01*
X103287634Y-61658615D01*
X103020344Y-61547626D01*
X102730926Y-61547374D01*
X102463442Y-61657896D01*
X102258615Y-61862366D01*
X102147626Y-62129656D01*
X102147374Y-62419074D01*
X102257896Y-62686558D01*
X102340000Y-62768805D01*
X102340000Y-63706166D01*
X102233615Y-63812366D01*
X102122626Y-64079656D01*
X102122374Y-64369074D01*
X102232896Y-64636558D01*
X102437366Y-64841385D01*
X102704656Y-64952374D01*
X102994074Y-64952626D01*
X103261558Y-64842104D01*
X103466385Y-64637634D01*
X103577374Y-64370344D01*
X103577626Y-64080926D01*
X103467104Y-63813442D01*
X103360000Y-63706150D01*
X103360000Y-62818790D01*
X103491385Y-62687634D01*
X103602374Y-62420344D01*
X103602626Y-62130926D01*
X103602626Y-83278896D01*
X103566095Y-83367097D01*
X103680736Y-83596000D01*
X104856000Y-83596000D01*
X104856000Y-83576000D01*
X105144000Y-83576000D01*
X105144000Y-83596000D01*
X105164000Y-83596000D01*
X105164000Y-83884000D01*
X105144000Y-83884000D01*
X105144000Y-83904000D01*
X104856000Y-83904000D01*
X104856000Y-83884000D01*
X103680736Y-83884000D01*
X103566095Y-84112903D01*
X103722385Y-84490248D01*
X104106745Y-84922061D01*
X104484987Y-85105134D01*
X104074478Y-85379429D01*
X103798396Y-85792614D01*
X103701449Y-86280000D01*
X103798396Y-86767386D01*
X104074478Y-87180571D01*
X104487663Y-87456653D01*
X104956950Y-87550000D01*
X104487663Y-87643347D01*
X104074478Y-87919429D01*
X103798396Y-88332614D01*
X103701449Y-88820000D01*
X103798396Y-89307386D01*
X104074478Y-89720571D01*
X104487663Y-89996653D01*
X104956950Y-90090000D01*
X104487663Y-90183347D01*
X104074478Y-90459429D01*
X103798396Y-90872614D01*
X103701449Y-91360000D01*
X103798396Y-91847386D01*
X104074478Y-92260571D01*
X104487663Y-92536653D01*
X104956950Y-92630000D01*
X104487663Y-92723347D01*
X104074478Y-92999429D01*
X103798396Y-93412614D01*
X103701449Y-93900000D01*
X103798396Y-94387386D01*
X104074478Y-94800571D01*
X104487663Y-95076653D01*
X104956950Y-95170000D01*
X104487663Y-95263347D01*
X104074478Y-95539429D01*
X103798396Y-95952614D01*
X103701449Y-96440000D01*
X103798396Y-96927386D01*
X104074478Y-97340571D01*
X104487663Y-97616653D01*
X104956950Y-97710000D01*
X104487663Y-97803347D01*
X104074478Y-98079429D01*
X103798396Y-98492614D01*
X103701449Y-98980000D01*
X103798396Y-99467386D01*
X104074478Y-99880571D01*
X104487663Y-100156653D01*
X104956950Y-100250000D01*
X104487663Y-100343347D01*
X104074478Y-100619429D01*
X103798396Y-101032614D01*
X103701449Y-101520000D01*
X103798396Y-102007386D01*
X104074478Y-102420571D01*
X104487663Y-102696653D01*
X104975049Y-102793600D01*
X105024951Y-102793600D01*
X105512337Y-102696653D01*
X105925522Y-102420571D01*
X106201604Y-102007386D01*
X106270000Y-101663535D01*
X106338396Y-102007386D01*
X106614478Y-102420571D01*
X107027663Y-102696653D01*
X107515049Y-102793600D01*
X107564951Y-102793600D01*
X108052337Y-102696653D01*
X108465522Y-102420571D01*
X108741604Y-102007386D01*
X108838551Y-101520000D01*
X108741604Y-101032614D01*
X108465522Y-100619429D01*
X108055012Y-100345134D01*
X108433255Y-100162061D01*
X108817615Y-99730248D01*
X108973905Y-99352903D01*
X108973905Y-109540000D01*
X100375076Y-109540000D01*
X100375076Y-94375941D01*
X100375076Y-93624059D01*
X100178008Y-93080415D01*
X99787898Y-92653568D01*
X99282903Y-92413695D01*
X99054000Y-92528336D01*
X99054000Y-93856000D01*
X100237508Y-93856000D01*
X100375076Y-93624059D01*
X100375076Y-94375941D01*
X100237508Y-94144000D01*
X99054000Y-94144000D01*
X99054000Y-95471664D01*
X99282903Y-95586305D01*
X99787898Y-95346432D01*
X100178008Y-94919585D01*
X100375076Y-94375941D01*
X100375076Y-109540000D01*
X98766000Y-109540000D01*
X98766000Y-95471664D01*
X98766000Y-94144000D01*
X98746000Y-94144000D01*
X98746000Y-93856000D01*
X98766000Y-93856000D01*
X98766000Y-92528336D01*
X98537097Y-92413695D01*
X98032102Y-92653568D01*
X97641992Y-93080415D01*
X97548084Y-93339473D01*
X97546653Y-93332277D01*
X97270571Y-92919092D01*
X96857386Y-92643010D01*
X96370000Y-92546063D01*
X95882614Y-92643010D01*
X95469429Y-92919092D01*
X95193347Y-93332277D01*
X95100000Y-93801564D01*
X95006653Y-93332277D01*
X94730571Y-92919092D01*
X94317386Y-92643010D01*
X93830000Y-92546063D01*
X93342614Y-92643010D01*
X92929429Y-92919092D01*
X92653347Y-93332277D01*
X92560000Y-93801564D01*
X92466653Y-93332277D01*
X92190571Y-92919092D01*
X91777386Y-92643010D01*
X91493000Y-92586442D01*
X91493000Y-82022928D01*
X91493000Y-81798500D01*
X91493000Y-81201500D01*
X91493000Y-80977072D01*
X91398915Y-80749931D01*
X91240341Y-80591357D01*
X91260708Y-80561185D01*
X91293032Y-80400000D01*
X91293032Y-79798461D01*
X91377374Y-79595344D01*
X91377626Y-79305926D01*
X91267104Y-79038442D01*
X91062634Y-78833615D01*
X90795344Y-78722626D01*
X90505926Y-78722374D01*
X90238442Y-78832896D01*
X90033615Y-79037366D01*
X89958090Y-79219248D01*
X89831267Y-79302557D01*
X89739292Y-79438815D01*
X89706968Y-79600000D01*
X89706968Y-80400000D01*
X89737300Y-80556332D01*
X89760050Y-80590965D01*
X89601085Y-80749931D01*
X89507000Y-80977072D01*
X89507000Y-81201500D01*
X89661500Y-81356000D01*
X90356000Y-81356000D01*
X90356000Y-81336000D01*
X90644000Y-81336000D01*
X90644000Y-81356000D01*
X91338500Y-81356000D01*
X91493000Y-81201500D01*
X91493000Y-81798500D01*
X91338500Y-81644000D01*
X90644000Y-81644000D01*
X90644000Y-82363500D01*
X90798500Y-82518000D01*
X90997928Y-82518000D01*
X91225069Y-82423915D01*
X91398915Y-82250069D01*
X91493000Y-82022928D01*
X91493000Y-92586442D01*
X91290000Y-92546063D01*
X90802614Y-92643010D01*
X90389429Y-92919092D01*
X90356000Y-92969121D01*
X90356000Y-82363500D01*
X90356000Y-81644000D01*
X89661500Y-81644000D01*
X89507000Y-81798500D01*
X89507000Y-82022928D01*
X89601085Y-82250069D01*
X89774931Y-82423915D01*
X90002072Y-82518000D01*
X90201500Y-82518000D01*
X90356000Y-82363500D01*
X90356000Y-92969121D01*
X90113347Y-93332277D01*
X90031632Y-93743086D01*
X90031632Y-92984000D01*
X90001300Y-92827668D01*
X89911043Y-92690267D01*
X89774785Y-92598292D01*
X89768000Y-92596931D01*
X89768000Y-85247928D01*
X89768000Y-85048500D01*
X89768000Y-84451500D01*
X89768000Y-84252072D01*
X89673915Y-84024931D01*
X89500069Y-83851085D01*
X89272928Y-83757000D01*
X89048500Y-83757000D01*
X88894000Y-83911500D01*
X88894000Y-84606000D01*
X89613500Y-84606000D01*
X89768000Y-84451500D01*
X89768000Y-85048500D01*
X89613500Y-84894000D01*
X88894000Y-84894000D01*
X88894000Y-85588500D01*
X89048500Y-85743000D01*
X89272928Y-85743000D01*
X89500069Y-85648915D01*
X89673915Y-85475069D01*
X89768000Y-85247928D01*
X89768000Y-92596931D01*
X89613600Y-92565968D01*
X88606000Y-92565968D01*
X88606000Y-85588500D01*
X88606000Y-84894000D01*
X88586000Y-84894000D01*
X88586000Y-84606000D01*
X88606000Y-84606000D01*
X88606000Y-83911500D01*
X88451500Y-83757000D01*
X88227072Y-83757000D01*
X87999931Y-83851085D01*
X87841357Y-84009658D01*
X87811185Y-83989292D01*
X87650000Y-83956968D01*
X86850000Y-83956968D01*
X86693668Y-83987300D01*
X86639963Y-84022577D01*
X86405926Y-84022374D01*
X86138442Y-84132896D01*
X85933615Y-84337366D01*
X85822626Y-84604656D01*
X85822374Y-84894074D01*
X85932896Y-85161558D01*
X86137366Y-85366385D01*
X86404656Y-85477374D01*
X86639734Y-85477578D01*
X86688815Y-85510708D01*
X86850000Y-85543032D01*
X87650000Y-85543032D01*
X87806332Y-85512700D01*
X87840965Y-85489949D01*
X87999931Y-85648915D01*
X88227072Y-85743000D01*
X88451500Y-85743000D01*
X88606000Y-85588500D01*
X88606000Y-92565968D01*
X87886400Y-92565968D01*
X87730068Y-92596300D01*
X87592667Y-92686557D01*
X87500692Y-92822815D01*
X87468368Y-92984000D01*
X87468368Y-95016000D01*
X87498700Y-95172332D01*
X87588957Y-95309733D01*
X87725215Y-95401708D01*
X87886400Y-95434032D01*
X89613600Y-95434032D01*
X89769932Y-95403700D01*
X89907333Y-95313443D01*
X89999308Y-95177185D01*
X90031632Y-95016000D01*
X90031632Y-94256913D01*
X90113347Y-94667723D01*
X90389429Y-95080908D01*
X90802614Y-95356990D01*
X91290000Y-95453937D01*
X91777386Y-95356990D01*
X92190571Y-95080908D01*
X92466653Y-94667723D01*
X92560000Y-94198435D01*
X92653347Y-94667723D01*
X92929429Y-95080908D01*
X93342614Y-95356990D01*
X93830000Y-95453937D01*
X94317386Y-95356990D01*
X94730571Y-95080908D01*
X95006653Y-94667723D01*
X95100000Y-94198435D01*
X95193347Y-94667723D01*
X95469429Y-95080908D01*
X95882614Y-95356990D01*
X96370000Y-95453937D01*
X96857386Y-95356990D01*
X97270571Y-95080908D01*
X97546653Y-94667723D01*
X97548084Y-94660526D01*
X97641992Y-94919585D01*
X98032102Y-95346432D01*
X98537097Y-95586305D01*
X98766000Y-95471664D01*
X98766000Y-109540000D01*
X86216000Y-109540000D01*
X86216000Y-94027937D01*
X86216000Y-93972063D01*
X86107452Y-93426356D01*
X85798334Y-92963729D01*
X85335707Y-92654611D01*
X84790000Y-92546063D01*
X84244293Y-92654611D01*
X83781666Y-92963729D01*
X83684032Y-93109848D01*
X83684032Y-92984000D01*
X83653700Y-92827668D01*
X83563443Y-92690267D01*
X83427185Y-92598292D01*
X83266000Y-92565968D01*
X81234000Y-92565968D01*
X81077668Y-92596300D01*
X80940267Y-92686557D01*
X80848292Y-92822815D01*
X80815968Y-92984000D01*
X80815968Y-95016000D01*
X80846300Y-95172332D01*
X80936557Y-95309733D01*
X81072815Y-95401708D01*
X81234000Y-95434032D01*
X81740000Y-95434032D01*
X81740000Y-95638751D01*
X81488751Y-95890000D01*
X77684032Y-95890000D01*
X77684032Y-95016000D01*
X77684032Y-92984000D01*
X77653700Y-92827668D01*
X77563443Y-92690267D01*
X77427185Y-92598292D01*
X77266000Y-92565968D01*
X76502647Y-92565968D01*
X76502647Y-67031171D01*
X76437607Y-66873763D01*
X76437607Y-66873762D01*
X76437606Y-66873760D01*
X76373135Y-66717729D01*
X76252811Y-66597194D01*
X76252809Y-66597191D01*
X76252805Y-66597188D01*
X76133533Y-66477707D01*
X75976238Y-66412393D01*
X75820317Y-66347649D01*
X75650001Y-66347500D01*
X75650000Y-66347500D01*
X75649598Y-66347500D01*
X75481171Y-66347353D01*
X75480815Y-66347500D01*
X75052500Y-66347500D01*
X75052500Y-63850000D01*
X75052500Y-63849598D01*
X75052647Y-63681171D01*
X75052500Y-63680815D01*
X75052500Y-62900000D01*
X75052499Y-62899998D01*
X75052647Y-62731171D01*
X74987607Y-62573763D01*
X74987607Y-62573762D01*
X74987606Y-62573760D01*
X74923135Y-62417729D01*
X74802811Y-62297194D01*
X74802809Y-62297191D01*
X74802805Y-62297188D01*
X74683533Y-62177707D01*
X74526238Y-62112393D01*
X74370317Y-62047649D01*
X74200001Y-62047500D01*
X74200000Y-62047500D01*
X74199998Y-62047500D01*
X74031171Y-62047353D01*
X73873763Y-62112392D01*
X73873762Y-62112393D01*
X73873760Y-62112393D01*
X73717729Y-62176865D01*
X73597194Y-62297188D01*
X73597191Y-62297191D01*
X73597188Y-62297194D01*
X73477707Y-62416467D01*
X73347649Y-62729683D01*
X73347500Y-62899998D01*
X73347500Y-62900000D01*
X73347500Y-62900401D01*
X73347353Y-63068829D01*
X73347500Y-63069184D01*
X73347500Y-63849998D01*
X73347500Y-63850000D01*
X73347500Y-63850001D01*
X73347500Y-63850401D01*
X73347353Y-64018829D01*
X73347500Y-64019184D01*
X73347500Y-66909627D01*
X73297649Y-67029683D01*
X73297500Y-67199993D01*
X73297499Y-67200000D01*
X73297500Y-67200006D01*
X73297353Y-67368829D01*
X73362392Y-67526236D01*
X73362393Y-67526238D01*
X73362393Y-67526239D01*
X73426865Y-67682271D01*
X73547188Y-67802805D01*
X73547191Y-67802809D01*
X73547194Y-67802811D01*
X73666467Y-67922293D01*
X73823762Y-67987607D01*
X73823763Y-67987607D01*
X73979683Y-68052351D01*
X74149993Y-68052499D01*
X74150000Y-68052501D01*
X74150000Y-68052500D01*
X74150005Y-68052500D01*
X74150401Y-68052500D01*
X74318829Y-68052647D01*
X74319184Y-68052500D01*
X75650000Y-68052500D01*
X75650001Y-68052499D01*
X75818829Y-68052647D01*
X75976236Y-67987607D01*
X75976238Y-67987607D01*
X75976239Y-67987606D01*
X76132271Y-67923135D01*
X76252805Y-67802811D01*
X76252809Y-67802809D01*
X76252811Y-67802805D01*
X76372293Y-67683533D01*
X76437607Y-67526238D01*
X76502351Y-67370317D01*
X76502499Y-67200001D01*
X76502500Y-67200000D01*
X76502499Y-67199998D01*
X76502647Y-67031171D01*
X76502647Y-92565968D01*
X75234000Y-92565968D01*
X75077668Y-92596300D01*
X74940267Y-92686557D01*
X74848292Y-92822815D01*
X74840490Y-92861716D01*
X74550211Y-92598561D01*
X74106846Y-92414924D01*
X73854000Y-92527524D01*
X73854000Y-93856000D01*
X73874000Y-93856000D01*
X73874000Y-94144000D01*
X73854000Y-94144000D01*
X73854000Y-95472476D01*
X74106846Y-95585076D01*
X74550211Y-95401439D01*
X74839812Y-95138897D01*
X74846300Y-95172332D01*
X74936557Y-95309733D01*
X75072815Y-95401708D01*
X75234000Y-95434032D01*
X77266000Y-95434032D01*
X77422332Y-95403700D01*
X77559733Y-95313443D01*
X77651708Y-95177185D01*
X77684032Y-95016000D01*
X77684032Y-95890000D01*
X73566000Y-95890000D01*
X73566000Y-95472476D01*
X73566000Y-94144000D01*
X73566000Y-93856000D01*
X73566000Y-92527524D01*
X73313154Y-92414924D01*
X72869789Y-92598561D01*
X72397439Y-93026774D01*
X72124914Y-93603152D01*
X72236848Y-93856000D01*
X73566000Y-93856000D01*
X73566000Y-94144000D01*
X72236848Y-94144000D01*
X72124914Y-94396848D01*
X72397439Y-94973226D01*
X72869789Y-95401439D01*
X73313154Y-95585076D01*
X73566000Y-95472476D01*
X73566000Y-95890000D01*
X66726493Y-95890000D01*
X66465522Y-95499429D01*
X66055012Y-95225134D01*
X66433255Y-95042061D01*
X66817615Y-94610248D01*
X66973905Y-94232903D01*
X66973905Y-93487097D01*
X66817615Y-93109752D01*
X66433255Y-92677939D01*
X66055012Y-92494865D01*
X66465522Y-92220571D01*
X66741604Y-91807386D01*
X66838551Y-91320000D01*
X66741604Y-90832614D01*
X66465522Y-90419429D01*
X66052337Y-90143347D01*
X65583049Y-90050000D01*
X66052337Y-89956653D01*
X66465522Y-89680571D01*
X66741604Y-89267386D01*
X66838551Y-88780000D01*
X66741604Y-88292614D01*
X66465522Y-87879429D01*
X66052337Y-87603347D01*
X65583049Y-87510000D01*
X66052337Y-87416653D01*
X66465522Y-87140571D01*
X66741604Y-86727386D01*
X66838551Y-86240000D01*
X66741604Y-85752614D01*
X66465522Y-85339429D01*
X66052337Y-85063347D01*
X65583049Y-84970000D01*
X66052337Y-84876653D01*
X66465522Y-84600571D01*
X66741604Y-84187386D01*
X66838551Y-83700000D01*
X66741604Y-83212614D01*
X66465522Y-82799429D01*
X66052337Y-82523347D01*
X65583049Y-82430000D01*
X66052337Y-82336653D01*
X66465522Y-82060571D01*
X66741604Y-81647386D01*
X66838551Y-81160000D01*
X66741604Y-80672614D01*
X66465522Y-80259429D01*
X66052337Y-79983347D01*
X65583049Y-79890000D01*
X66052337Y-79796653D01*
X66465522Y-79520571D01*
X66741604Y-79107386D01*
X66838551Y-78620000D01*
X66741604Y-78132614D01*
X66465522Y-77719429D01*
X66052337Y-77443347D01*
X65583049Y-77350000D01*
X66052337Y-77256653D01*
X66465522Y-76980571D01*
X66741604Y-76567386D01*
X66838551Y-76080000D01*
X66741604Y-75592614D01*
X66465522Y-75179429D01*
X66052337Y-74903347D01*
X65583049Y-74810000D01*
X66052337Y-74716653D01*
X66465522Y-74440571D01*
X66741604Y-74027386D01*
X66838551Y-73540000D01*
X66741604Y-73052614D01*
X66465522Y-72639429D01*
X66052337Y-72363347D01*
X65583049Y-72270000D01*
X66052337Y-72176653D01*
X66465522Y-71900571D01*
X66741604Y-71487386D01*
X66838551Y-71000000D01*
X66741604Y-70512614D01*
X66465522Y-70099429D01*
X66052337Y-69823347D01*
X65564951Y-69726400D01*
X65515049Y-69726400D01*
X65027663Y-69823347D01*
X64614478Y-70099429D01*
X64338396Y-70512614D01*
X64281632Y-70797986D01*
X64281632Y-70136400D01*
X64251300Y-69980068D01*
X64161043Y-69842667D01*
X64024785Y-69750692D01*
X63863600Y-69718368D01*
X62136400Y-69718368D01*
X61980068Y-69748700D01*
X61842667Y-69838957D01*
X61750692Y-69975215D01*
X61718368Y-70136400D01*
X61718368Y-71863600D01*
X61748700Y-72019932D01*
X61838957Y-72157333D01*
X61975215Y-72249308D01*
X62136400Y-72281632D01*
X62898472Y-72281632D01*
X62487663Y-72363347D01*
X62074478Y-72639429D01*
X61798396Y-73052614D01*
X61701449Y-73540000D01*
X61798396Y-74027386D01*
X62074478Y-74440571D01*
X62487663Y-74716653D01*
X62956950Y-74810000D01*
X62487663Y-74903347D01*
X62074478Y-75179429D01*
X61798396Y-75592614D01*
X61701449Y-76080000D01*
X61798396Y-76567386D01*
X62074478Y-76980571D01*
X62487663Y-77256653D01*
X62956950Y-77350000D01*
X62487663Y-77443347D01*
X62074478Y-77719429D01*
X61798396Y-78132614D01*
X61701449Y-78620000D01*
X61798396Y-79107386D01*
X62074478Y-79520571D01*
X62487663Y-79796653D01*
X62956950Y-79890000D01*
X62487663Y-79983347D01*
X62074478Y-80259429D01*
X61798396Y-80672614D01*
X61701449Y-81160000D01*
X61798396Y-81647386D01*
X62074478Y-82060571D01*
X62487663Y-82336653D01*
X62956950Y-82430000D01*
X62487663Y-82523347D01*
X62074478Y-82799429D01*
X61798396Y-83212614D01*
X61701449Y-83700000D01*
X61798396Y-84187386D01*
X62074478Y-84600571D01*
X62487663Y-84876653D01*
X62956950Y-84970000D01*
X62487663Y-85063347D01*
X62074478Y-85339429D01*
X61798396Y-85752614D01*
X61701449Y-86240000D01*
X61798396Y-86727386D01*
X62074478Y-87140571D01*
X62487663Y-87416653D01*
X62956950Y-87510000D01*
X62487663Y-87603347D01*
X62074478Y-87879429D01*
X61798396Y-88292614D01*
X61701449Y-88780000D01*
X61798396Y-89267386D01*
X62074478Y-89680571D01*
X62487663Y-89956653D01*
X62956950Y-90050000D01*
X62487663Y-90143347D01*
X62074478Y-90419429D01*
X61798396Y-90832614D01*
X61701449Y-91320000D01*
X61798396Y-91807386D01*
X62074478Y-92220571D01*
X62484987Y-92494865D01*
X62106745Y-92677939D01*
X61722385Y-93109752D01*
X61566095Y-93487097D01*
X61680736Y-93716000D01*
X62856000Y-93716000D01*
X62856000Y-93696000D01*
X63144000Y-93696000D01*
X63144000Y-93716000D01*
X64220736Y-93716000D01*
X64319264Y-93716000D01*
X65396000Y-93716000D01*
X65396000Y-93696000D01*
X65684000Y-93696000D01*
X65684000Y-93716000D01*
X66859264Y-93716000D01*
X66973905Y-93487097D01*
X66973905Y-94232903D01*
X66859264Y-94004000D01*
X65684000Y-94004000D01*
X65684000Y-94024000D01*
X65396000Y-94024000D01*
X65396000Y-94004000D01*
X64319264Y-94004000D01*
X64220736Y-94004000D01*
X63144000Y-94004000D01*
X63144000Y-94024000D01*
X62856000Y-94024000D01*
X62856000Y-94004000D01*
X61680736Y-94004000D01*
X61566095Y-94232903D01*
X61722385Y-94610248D01*
X62106745Y-95042061D01*
X62484987Y-95225134D01*
X62074478Y-95499429D01*
X61798396Y-95912614D01*
X61701449Y-96400000D01*
X61798396Y-96887386D01*
X62074478Y-97300571D01*
X62487663Y-97576653D01*
X62956950Y-97670000D01*
X62487663Y-97763347D01*
X62074478Y-98039429D01*
X61798396Y-98452614D01*
X61701449Y-98940000D01*
X61798396Y-99427386D01*
X62074478Y-99840571D01*
X62487663Y-100116653D01*
X62975049Y-100213600D01*
X63024951Y-100213600D01*
X63512337Y-100116653D01*
X63925522Y-99840571D01*
X64171915Y-99471818D01*
X64262385Y-99690248D01*
X64646745Y-100122061D01*
X65167095Y-100373916D01*
X65396000Y-100260097D01*
X65396000Y-99084000D01*
X65376000Y-99084000D01*
X65376000Y-98796000D01*
X65396000Y-98796000D01*
X65396000Y-98776000D01*
X65684000Y-98776000D01*
X65684000Y-98796000D01*
X66859264Y-98796000D01*
X66973905Y-98567097D01*
X66826001Y-98210000D01*
X82650000Y-98210000D01*
X82650000Y-98209999D01*
X82845169Y-98171179D01*
X83010624Y-98060624D01*
X85150624Y-95920624D01*
X85261179Y-95755169D01*
X85299999Y-95560000D01*
X85300000Y-95560000D01*
X85300000Y-95352491D01*
X85335707Y-95345389D01*
X85798334Y-95036271D01*
X86107452Y-94573644D01*
X86216000Y-94027937D01*
X86216000Y-109540000D01*
X80302626Y-109540000D01*
X80302626Y-107555926D01*
X80192104Y-107288442D01*
X80085000Y-107181150D01*
X80085000Y-103775000D01*
X80046179Y-103579831D01*
X80002466Y-103514411D01*
X80002466Y-103514410D01*
X80002626Y-103330926D01*
X79892104Y-103063442D01*
X79687634Y-102858615D01*
X79420344Y-102747626D01*
X79130926Y-102747374D01*
X78863442Y-102857896D01*
X78658615Y-103062366D01*
X78547626Y-103329656D01*
X78547374Y-103619074D01*
X78657896Y-103886558D01*
X78862366Y-104091385D01*
X79065000Y-104175526D01*
X79065000Y-107181166D01*
X78958615Y-107287366D01*
X78847626Y-107554656D01*
X78847374Y-107844074D01*
X78957896Y-108111558D01*
X79162366Y-108316385D01*
X79429656Y-108427374D01*
X79719074Y-108427626D01*
X79986558Y-108317104D01*
X80191385Y-108112634D01*
X80302374Y-107845344D01*
X80302626Y-107555926D01*
X80302626Y-109540000D01*
X72752626Y-109540000D01*
X72752626Y-101530926D01*
X72642104Y-101263442D01*
X72437634Y-101058615D01*
X72170344Y-100947626D01*
X71880926Y-100947374D01*
X71613442Y-101057896D01*
X71481107Y-101190000D01*
X66973905Y-101190000D01*
X66973905Y-99312903D01*
X66859264Y-99084000D01*
X65684000Y-99084000D01*
X65684000Y-100260097D01*
X65912905Y-100373916D01*
X66433255Y-100122061D01*
X66817615Y-99690248D01*
X66973905Y-99312903D01*
X66973905Y-101190000D01*
X66093833Y-101190000D01*
X65987634Y-101083615D01*
X65720344Y-100972626D01*
X65430926Y-100972374D01*
X65163442Y-101082896D01*
X64958615Y-101287366D01*
X64847626Y-101554656D01*
X64847374Y-101844074D01*
X64957896Y-102111558D01*
X65162366Y-102316385D01*
X65429656Y-102427374D01*
X65719074Y-102427626D01*
X65986558Y-102317104D01*
X66093849Y-102210000D01*
X71531122Y-102210000D01*
X71612366Y-102291385D01*
X71879656Y-102402374D01*
X72169074Y-102402626D01*
X72436558Y-102292104D01*
X72641385Y-102087634D01*
X72752374Y-101820344D01*
X72752626Y-101530926D01*
X72752626Y-109540000D01*
X60460000Y-109540000D01*
X60460000Y-60460000D01*
X109540000Y-60460000D01*
X109540000Y-109540000D01*
M02*
