G04 #@! TF.FileFunction,Soldermask,Bot*
%FSLAX46Y46*%
G04 Gerber Fmt 4.6, Leading zero omitted, Abs format (unit mm)*
G04 Created by KiCad (PCBNEW (2015-01-16 BZR 5376)-product) date 23/07/2015 12:13:06*
%MOMM*%
G01*
G04 APERTURE LIST*
%ADD10C,0.100000*%
%ADD11R,0.750000X0.800000*%
%ADD12R,0.800000X0.750000*%
%ADD13R,2.032000X2.032000*%
%ADD14O,2.032000X2.032000*%
%ADD15R,1.727200X1.727200*%
%ADD16O,1.727200X1.727200*%
%ADD17R,1.727200X2.032000*%
%ADD18O,1.727200X2.032000*%
G04 APERTURE END LIST*
D10*
D11*
X90500000Y-80000000D03*
X90500000Y-81500000D03*
D12*
X87250000Y-84750000D03*
X88750000Y-84750000D03*
D13*
X76250000Y-94000000D03*
D14*
X73710000Y-94000000D03*
D15*
X105000000Y-68500000D03*
D16*
X107540000Y-68500000D03*
X105000000Y-71040000D03*
X107540000Y-71040000D03*
X105000000Y-73580000D03*
X107540000Y-73580000D03*
X105000000Y-76120000D03*
X107540000Y-76120000D03*
X105000000Y-78660000D03*
X107540000Y-78660000D03*
X105000000Y-81200000D03*
X107540000Y-81200000D03*
X105000000Y-83740000D03*
X107540000Y-83740000D03*
X105000000Y-86280000D03*
X107540000Y-86280000D03*
X105000000Y-88820000D03*
X107540000Y-88820000D03*
X105000000Y-91360000D03*
X107540000Y-91360000D03*
X105000000Y-93900000D03*
X107540000Y-93900000D03*
X105000000Y-96440000D03*
X107540000Y-96440000D03*
X105000000Y-98980000D03*
X107540000Y-98980000D03*
X105000000Y-101520000D03*
X107540000Y-101520000D03*
D17*
X88750000Y-94000000D03*
D18*
X91290000Y-94000000D03*
X93830000Y-94000000D03*
X96370000Y-94000000D03*
X98910000Y-94000000D03*
D13*
X82250000Y-94000000D03*
D14*
X84790000Y-94000000D03*
D15*
X63000000Y-71000000D03*
D16*
X65540000Y-71000000D03*
X63000000Y-73540000D03*
X65540000Y-73540000D03*
X63000000Y-76080000D03*
X65540000Y-76080000D03*
X63000000Y-78620000D03*
X65540000Y-78620000D03*
X63000000Y-81160000D03*
X65540000Y-81160000D03*
X63000000Y-83700000D03*
X65540000Y-83700000D03*
X63000000Y-86240000D03*
X65540000Y-86240000D03*
X63000000Y-88780000D03*
X65540000Y-88780000D03*
X63000000Y-91320000D03*
X65540000Y-91320000D03*
X63000000Y-93860000D03*
X65540000Y-93860000D03*
X63000000Y-96400000D03*
X65540000Y-96400000D03*
X63000000Y-98940000D03*
X65540000Y-98940000D03*
M02*
