G04 #@! TF.FileFunction,Copper,L2,Bot,Signal*
%FSLAX46Y46*%
G04 Gerber Fmt 4.6, Leading zero omitted, Abs format (unit mm)*
G04 Created by KiCad (PCBNEW (2015-01-16 BZR 5376)-product) date 23/07/2015 11:51:53*
%MOMM*%
G01*
G04 APERTURE LIST*
%ADD10C,0.100000*%
%ADD11R,0.750000X0.800000*%
%ADD12C,2.999740*%
%ADD13R,1.727200X1.727200*%
%ADD14O,1.727200X1.727200*%
%ADD15C,0.635000*%
%ADD16C,6.000000*%
%ADD17C,0.200000*%
%ADD18C,0.381000*%
%ADD19C,0.254000*%
%ADD20C,0.220000*%
G04 APERTURE END LIST*
D10*
D11*
X95000000Y-83750000D03*
X95000000Y-85250000D03*
X89650000Y-66900000D03*
X89650000Y-65400000D03*
X89450000Y-72250000D03*
X89450000Y-73750000D03*
X93100000Y-66900000D03*
X93100000Y-65400000D03*
X93400000Y-72300000D03*
X93400000Y-73800000D03*
D12*
X90000000Y-82500000D03*
X90500000Y-87500000D03*
D13*
X66000000Y-61000000D03*
D14*
X63460000Y-61000000D03*
X66000000Y-63540000D03*
X63460000Y-63540000D03*
X66000000Y-66080000D03*
X63460000Y-66080000D03*
X66000000Y-68620000D03*
X63460000Y-68620000D03*
X66000000Y-71160000D03*
X63460000Y-71160000D03*
X66000000Y-73700000D03*
X63460000Y-73700000D03*
X66000000Y-76240000D03*
X63460000Y-76240000D03*
X66000000Y-78780000D03*
X63460000Y-78780000D03*
X66000000Y-81320000D03*
X63460000Y-81320000D03*
X66000000Y-83860000D03*
X63460000Y-83860000D03*
X66000000Y-86400000D03*
X63460000Y-86400000D03*
X66000000Y-88940000D03*
X63460000Y-88940000D03*
D13*
X105000000Y-58500000D03*
D14*
X107540000Y-58500000D03*
X105000000Y-61040000D03*
X107540000Y-61040000D03*
X105000000Y-63580000D03*
X107540000Y-63580000D03*
X105000000Y-66120000D03*
X107540000Y-66120000D03*
X105000000Y-68660000D03*
X107540000Y-68660000D03*
X105000000Y-71200000D03*
X107540000Y-71200000D03*
X105000000Y-73740000D03*
X107540000Y-73740000D03*
X105000000Y-76280000D03*
X107540000Y-76280000D03*
X105000000Y-78820000D03*
X107540000Y-78820000D03*
X105000000Y-81360000D03*
X107540000Y-81360000D03*
X105000000Y-83900000D03*
X107540000Y-83900000D03*
X105000000Y-86440000D03*
X107540000Y-86440000D03*
X105000000Y-88980000D03*
X107540000Y-88980000D03*
X105000000Y-91520000D03*
X107540000Y-91520000D03*
D15*
X94325000Y-83750000D03*
X84750000Y-80750000D03*
X85500000Y-84750000D03*
X83650000Y-81650000D03*
X85550000Y-56500000D03*
X107900000Y-51850000D03*
X106000000Y-53200000D03*
X103150000Y-52336000D03*
X86250000Y-56700000D03*
X71000000Y-86750000D03*
X69750000Y-82500000D03*
X69750000Y-78250000D03*
X69750000Y-74500000D03*
X69750000Y-70000000D03*
X69750000Y-64500000D03*
X69250000Y-59750000D03*
X69500000Y-55000000D03*
D16*
X64000000Y-54000000D03*
D15*
X69250000Y-56750000D03*
X90500000Y-84750000D03*
X88675000Y-75300000D03*
X99280000Y-55510000D03*
X77800000Y-82000000D03*
X77800000Y-81975000D03*
X77550000Y-77750000D03*
X77800000Y-72975000D03*
X77800000Y-68475000D03*
X77800000Y-63975000D03*
X77750000Y-59475000D03*
X77550000Y-54975000D03*
X78050000Y-86550000D03*
X82200000Y-90050000D03*
X84850000Y-90050000D03*
X92000000Y-92800000D03*
X92000000Y-90500000D03*
X101000000Y-90700000D03*
X102300000Y-92250000D03*
X94350000Y-85100000D03*
X100575000Y-83375000D03*
X94225000Y-73800000D03*
X94325000Y-75300000D03*
X88675000Y-73800000D03*
X89225000Y-70800000D03*
X89200000Y-68300000D03*
X88725000Y-65300000D03*
X91725000Y-63775000D03*
X89025000Y-63800000D03*
X91775000Y-73925000D03*
X91725000Y-68275000D03*
X91725000Y-70900000D03*
X91775000Y-76000000D03*
X94275000Y-68300000D03*
X94375000Y-70800000D03*
X94250000Y-65300000D03*
X96525000Y-63625000D03*
X99827000Y-52984000D03*
X80750000Y-81500000D03*
X80000000Y-78000000D03*
X80750000Y-73500000D03*
X81250000Y-69750000D03*
X81000000Y-66000000D03*
X80750000Y-61000000D03*
X80500000Y-56000000D03*
X93227000Y-53259000D03*
X86000000Y-51000000D03*
X77300000Y-51350000D03*
X80360000Y-92870000D03*
X77830000Y-95280000D03*
X75015000Y-97725000D03*
X74110000Y-95350000D03*
D16*
X64000000Y-96000000D03*
D15*
X88875000Y-66750000D03*
X88850000Y-72200000D03*
X93450000Y-71500000D03*
X93450000Y-67900000D03*
X67730000Y-88530000D03*
X72810000Y-87740000D03*
X74720000Y-88960000D03*
X91550000Y-83050000D03*
X92525000Y-87075000D03*
X82270000Y-86720000D03*
X80900000Y-90230000D03*
X76230000Y-87710000D03*
X74220000Y-86680000D03*
X76440000Y-97060000D03*
X76450000Y-98420000D03*
X105630000Y-94150000D03*
X108360000Y-94140000D03*
D17*
X94325000Y-83750000D02*
X94300000Y-83725000D01*
X95000000Y-83750000D02*
X94325000Y-83750000D01*
X84750000Y-80750000D02*
X84750000Y-84000000D01*
X85500000Y-84750000D02*
X84750000Y-84000000D01*
X106000000Y-53200000D02*
X107350000Y-51850000D01*
X107900000Y-51850000D02*
X107350000Y-51850000D01*
X103150000Y-52336000D02*
X103150000Y-52350000D01*
X71000000Y-86750000D02*
X69750000Y-85500000D01*
X69750000Y-64500000D02*
X69250000Y-64000000D01*
X69250000Y-59750000D02*
X69250000Y-56750000D01*
X69250000Y-59750000D02*
X69250000Y-64000000D01*
X69750000Y-64500000D02*
X69750000Y-70000000D01*
X69750000Y-70000000D02*
X69750000Y-74500000D01*
X69750000Y-74500000D02*
X69750000Y-78250000D01*
X69750000Y-78250000D02*
X69750000Y-82500000D01*
X69750000Y-82500000D02*
X69750000Y-85500000D01*
X69500000Y-55000000D02*
X69250000Y-55250000D01*
X69250000Y-56750000D02*
X66500000Y-54000000D01*
X64000000Y-54000000D02*
X66500000Y-54000000D01*
X69250000Y-56750000D02*
X69250000Y-55250000D01*
X84750000Y-80750000D02*
X88675000Y-76825000D01*
X88675000Y-76825000D02*
X88675000Y-75300000D01*
D18*
X99280000Y-55510000D02*
X99280000Y-55520000D01*
D17*
X77800000Y-81975000D02*
X77800000Y-82000000D01*
X77800000Y-72975000D02*
X77800000Y-73000000D01*
X77800000Y-68475000D02*
X77800000Y-68450000D01*
X77800000Y-63975000D02*
X77800000Y-63950000D01*
X77750000Y-59475000D02*
X77750000Y-59450000D01*
X77550000Y-54975000D02*
X77550000Y-55000000D01*
X92000000Y-92800000D02*
X92000000Y-90500000D01*
X94350000Y-85100000D02*
X94500000Y-85250000D01*
X94500000Y-85250000D02*
X95000000Y-85250000D01*
X100575000Y-83375000D02*
X100550000Y-83350000D01*
X88725000Y-73750000D02*
X89450000Y-73750000D01*
X88675000Y-73800000D02*
X88725000Y-73750000D01*
D19*
X88825000Y-65400000D02*
X88725000Y-65300000D01*
X89650000Y-65400000D02*
X88825000Y-65400000D01*
X89025000Y-63800000D02*
X89050000Y-63775000D01*
X91725000Y-63775000D02*
X89050000Y-63775000D01*
X91725000Y-70900000D02*
X91725000Y-68275000D01*
X91775000Y-76000000D02*
X91775000Y-73925000D01*
X94150000Y-65400000D02*
X94250000Y-65300000D01*
X93100000Y-65400000D02*
X94150000Y-65400000D01*
D17*
X92200000Y-51000000D02*
X93227000Y-52027000D01*
X93227000Y-52027000D02*
X93227000Y-53259000D01*
X80500000Y-56000000D02*
X86000000Y-56000000D01*
X80750000Y-61000000D02*
X80750000Y-56250000D01*
X81000000Y-66000000D02*
X81000000Y-61250000D01*
X81250000Y-69750000D02*
X81250000Y-66250000D01*
X80750000Y-73500000D02*
X80750000Y-70250000D01*
X80000000Y-78000000D02*
X80000000Y-74250000D01*
X80750000Y-81500000D02*
X80750000Y-78750000D01*
X81500000Y-80750000D02*
X84750000Y-80750000D01*
X80750000Y-81500000D02*
X81500000Y-80750000D01*
X80000000Y-78000000D02*
X80750000Y-78750000D01*
X80750000Y-73500000D02*
X80000000Y-74250000D01*
X81250000Y-69750000D02*
X80750000Y-70250000D01*
X81000000Y-66000000D02*
X81250000Y-66250000D01*
X80750000Y-61000000D02*
X81000000Y-61250000D01*
X80500000Y-56000000D02*
X80750000Y-56250000D01*
X86000000Y-56000000D02*
X86000000Y-51000000D01*
X86000000Y-51000000D02*
X92200000Y-51000000D01*
X77650000Y-51000000D02*
X77300000Y-51350000D01*
X86000000Y-51000000D02*
X77650000Y-51000000D01*
X75015000Y-97725000D02*
X75020000Y-97730000D01*
X66000000Y-94000000D02*
X64000000Y-96000000D01*
X66000000Y-88940000D02*
X66000000Y-94000000D01*
D18*
X88875000Y-66750000D02*
X89025000Y-66900000D01*
X89025000Y-66900000D02*
X89650000Y-66900000D01*
X88850000Y-72200000D02*
X88900000Y-72250000D01*
X88900000Y-72250000D02*
X89450000Y-72250000D01*
D17*
X93450000Y-71500000D02*
X93400000Y-71550000D01*
X93400000Y-71550000D02*
X93400000Y-72300000D01*
D18*
X93100000Y-67550000D02*
X93100000Y-66900000D01*
X93450000Y-67900000D02*
X93100000Y-67550000D01*
D17*
X66000000Y-86800000D02*
X66000000Y-86400000D01*
X67730000Y-88530000D02*
X66000000Y-86800000D01*
X72810000Y-87740000D02*
X74030000Y-88960000D01*
X74030000Y-88960000D02*
X74720000Y-88960000D01*
X90000000Y-82500000D02*
X91000000Y-82500000D01*
X91000000Y-82500000D02*
X91550000Y-83050000D01*
X90500000Y-87500000D02*
X92100000Y-87500000D01*
X92100000Y-87500000D02*
X92525000Y-87075000D01*
X80900000Y-90230000D02*
X80900000Y-89990000D01*
X82270000Y-86720000D02*
X80900000Y-88090000D01*
X80900000Y-88090000D02*
X80900000Y-89990000D01*
X74220000Y-86680000D02*
X75250000Y-87710000D01*
X75250000Y-87710000D02*
X76230000Y-87710000D01*
X76450000Y-97070000D02*
X76450000Y-98420000D01*
X76440000Y-97060000D02*
X76450000Y-97070000D01*
X108080000Y-94140000D02*
X108360000Y-94140000D01*
X108070000Y-94150000D02*
X108080000Y-94140000D01*
X105630000Y-94150000D02*
X108070000Y-94150000D01*
D20*
G36*
X109540000Y-99540000D02*
X109087626Y-99540000D01*
X109087626Y-93995926D01*
X108977104Y-93728442D01*
X108973905Y-93725237D01*
X108973905Y-89352903D01*
X108859264Y-89124000D01*
X107684000Y-89124000D01*
X107684000Y-89144000D01*
X107396000Y-89144000D01*
X107396000Y-89124000D01*
X107376000Y-89124000D01*
X107376000Y-88836000D01*
X107396000Y-88836000D01*
X107396000Y-88816000D01*
X107684000Y-88816000D01*
X107684000Y-88836000D01*
X108859264Y-88836000D01*
X108973905Y-88607097D01*
X108817615Y-88229752D01*
X108433255Y-87797939D01*
X108055012Y-87614865D01*
X108465522Y-87340571D01*
X108741604Y-86927386D01*
X108838551Y-86440000D01*
X108741604Y-85952614D01*
X108465522Y-85539429D01*
X108052337Y-85263347D01*
X107583049Y-85170000D01*
X108052337Y-85076653D01*
X108465522Y-84800571D01*
X108741604Y-84387386D01*
X108838551Y-83900000D01*
X108741604Y-83412614D01*
X108465522Y-82999429D01*
X108052337Y-82723347D01*
X107583049Y-82630000D01*
X108052337Y-82536653D01*
X108465522Y-82260571D01*
X108741604Y-81847386D01*
X108838551Y-81360000D01*
X108741604Y-80872614D01*
X108465522Y-80459429D01*
X108052337Y-80183347D01*
X107583049Y-80090000D01*
X108052337Y-79996653D01*
X108465522Y-79720571D01*
X108741604Y-79307386D01*
X108838551Y-78820000D01*
X108741604Y-78332614D01*
X108465522Y-77919429D01*
X108052337Y-77643347D01*
X107583049Y-77550000D01*
X108052337Y-77456653D01*
X108465522Y-77180571D01*
X108741604Y-76767386D01*
X108838551Y-76280000D01*
X108741604Y-75792614D01*
X108465522Y-75379429D01*
X108052337Y-75103347D01*
X107583049Y-75010000D01*
X108052337Y-74916653D01*
X108465522Y-74640571D01*
X108741604Y-74227386D01*
X108838551Y-73740000D01*
X108741604Y-73252614D01*
X108465522Y-72839429D01*
X108052337Y-72563347D01*
X107583049Y-72470000D01*
X108052337Y-72376653D01*
X108465522Y-72100571D01*
X108741604Y-71687386D01*
X108838551Y-71200000D01*
X108741604Y-70712614D01*
X108465522Y-70299429D01*
X108052337Y-70023347D01*
X107583049Y-69930000D01*
X108052337Y-69836653D01*
X108465522Y-69560571D01*
X108741604Y-69147386D01*
X108838551Y-68660000D01*
X108741604Y-68172614D01*
X108465522Y-67759429D01*
X108052337Y-67483347D01*
X107583049Y-67390000D01*
X108052337Y-67296653D01*
X108465522Y-67020571D01*
X108741604Y-66607386D01*
X108838551Y-66120000D01*
X108741604Y-65632614D01*
X108465522Y-65219429D01*
X108052337Y-64943347D01*
X107583049Y-64850000D01*
X108052337Y-64756653D01*
X108465522Y-64480571D01*
X108741604Y-64067386D01*
X108838551Y-63580000D01*
X108741604Y-63092614D01*
X108465522Y-62679429D01*
X108052337Y-62403347D01*
X107583049Y-62310000D01*
X108052337Y-62216653D01*
X108465522Y-61940571D01*
X108741604Y-61527386D01*
X108838551Y-61040000D01*
X108741604Y-60552614D01*
X108465522Y-60139429D01*
X108052337Y-59863347D01*
X107583049Y-59770000D01*
X108052337Y-59676653D01*
X108465522Y-59400571D01*
X108741604Y-58987386D01*
X108838551Y-58500000D01*
X108741604Y-58012614D01*
X108465522Y-57599429D01*
X108052337Y-57323347D01*
X107564951Y-57226400D01*
X107515049Y-57226400D01*
X107027663Y-57323347D01*
X106614478Y-57599429D01*
X106338396Y-58012614D01*
X106281632Y-58297986D01*
X106281632Y-57636400D01*
X106251300Y-57480068D01*
X106161043Y-57342667D01*
X106024785Y-57250692D01*
X105863600Y-57218368D01*
X104136400Y-57218368D01*
X103980068Y-57248700D01*
X103842667Y-57338957D01*
X103750692Y-57475215D01*
X103718368Y-57636400D01*
X103718368Y-59363600D01*
X103748700Y-59519932D01*
X103838957Y-59657333D01*
X103975215Y-59749308D01*
X104136400Y-59781632D01*
X104898472Y-59781632D01*
X104487663Y-59863347D01*
X104074478Y-60139429D01*
X103798396Y-60552614D01*
X103701449Y-61040000D01*
X103798396Y-61527386D01*
X104074478Y-61940571D01*
X104487663Y-62216653D01*
X104956950Y-62310000D01*
X104487663Y-62403347D01*
X104074478Y-62679429D01*
X103798396Y-63092614D01*
X103701449Y-63580000D01*
X103798396Y-64067386D01*
X104074478Y-64480571D01*
X104487663Y-64756653D01*
X104956950Y-64850000D01*
X104487663Y-64943347D01*
X104074478Y-65219429D01*
X103798396Y-65632614D01*
X103701449Y-66120000D01*
X103798396Y-66607386D01*
X104074478Y-67020571D01*
X104487663Y-67296653D01*
X104956950Y-67390000D01*
X104487663Y-67483347D01*
X104074478Y-67759429D01*
X103798396Y-68172614D01*
X103701449Y-68660000D01*
X103798396Y-69147386D01*
X104074478Y-69560571D01*
X104487663Y-69836653D01*
X104956950Y-69930000D01*
X104487663Y-70023347D01*
X104074478Y-70299429D01*
X103798396Y-70712614D01*
X103701449Y-71200000D01*
X103798396Y-71687386D01*
X104074478Y-72100571D01*
X104484987Y-72374865D01*
X104106745Y-72557939D01*
X103722385Y-72989752D01*
X103566095Y-73367097D01*
X103680736Y-73596000D01*
X104856000Y-73596000D01*
X104856000Y-73576000D01*
X105144000Y-73576000D01*
X105144000Y-73596000D01*
X105164000Y-73596000D01*
X105164000Y-73884000D01*
X105144000Y-73884000D01*
X105144000Y-73904000D01*
X104856000Y-73904000D01*
X104856000Y-73884000D01*
X103680736Y-73884000D01*
X103566095Y-74112903D01*
X103722385Y-74490248D01*
X104106745Y-74922061D01*
X104484987Y-75105134D01*
X104074478Y-75379429D01*
X103798396Y-75792614D01*
X103701449Y-76280000D01*
X103798396Y-76767386D01*
X104074478Y-77180571D01*
X104487663Y-77456653D01*
X104956950Y-77550000D01*
X104487663Y-77643347D01*
X104074478Y-77919429D01*
X103798396Y-78332614D01*
X103701449Y-78820000D01*
X103798396Y-79307386D01*
X104074478Y-79720571D01*
X104487663Y-79996653D01*
X104956950Y-80090000D01*
X104487663Y-80183347D01*
X104074478Y-80459429D01*
X103798396Y-80872614D01*
X103701449Y-81360000D01*
X103798396Y-81847386D01*
X104074478Y-82260571D01*
X104487663Y-82536653D01*
X104956950Y-82630000D01*
X104487663Y-82723347D01*
X104074478Y-82999429D01*
X103798396Y-83412614D01*
X103701449Y-83900000D01*
X103798396Y-84387386D01*
X104074478Y-84800571D01*
X104487663Y-85076653D01*
X104956950Y-85170000D01*
X104487663Y-85263347D01*
X104074478Y-85539429D01*
X103798396Y-85952614D01*
X103701449Y-86440000D01*
X103798396Y-86927386D01*
X104074478Y-87340571D01*
X104487663Y-87616653D01*
X104956950Y-87710000D01*
X104487663Y-87803347D01*
X104074478Y-88079429D01*
X103798396Y-88492614D01*
X103701449Y-88980000D01*
X103798396Y-89467386D01*
X104074478Y-89880571D01*
X104487663Y-90156653D01*
X104956950Y-90250000D01*
X104487663Y-90343347D01*
X104074478Y-90619429D01*
X103798396Y-91032614D01*
X103701449Y-91520000D01*
X103798396Y-92007386D01*
X104074478Y-92420571D01*
X104487663Y-92696653D01*
X104975049Y-92793600D01*
X105024951Y-92793600D01*
X105512337Y-92696653D01*
X105925522Y-92420571D01*
X106201604Y-92007386D01*
X106270000Y-91663535D01*
X106338396Y-92007386D01*
X106614478Y-92420571D01*
X107027663Y-92696653D01*
X107515049Y-92793600D01*
X107564951Y-92793600D01*
X108052337Y-92696653D01*
X108465522Y-92420571D01*
X108741604Y-92007386D01*
X108838551Y-91520000D01*
X108741604Y-91032614D01*
X108465522Y-90619429D01*
X108055012Y-90345134D01*
X108433255Y-90162061D01*
X108817615Y-89730248D01*
X108973905Y-89352903D01*
X108973905Y-93725237D01*
X108772634Y-93523615D01*
X108505344Y-93412626D01*
X108215926Y-93412374D01*
X107948442Y-93522896D01*
X107831133Y-93640000D01*
X106148833Y-93640000D01*
X106042634Y-93533615D01*
X105775344Y-93422626D01*
X105485926Y-93422374D01*
X105218442Y-93532896D01*
X105013615Y-93737366D01*
X104902626Y-94004656D01*
X104902374Y-94294074D01*
X105012896Y-94561558D01*
X105217366Y-94766385D01*
X105484656Y-94877374D01*
X105774074Y-94877626D01*
X106041558Y-94767104D01*
X106148849Y-94660000D01*
X107851148Y-94660000D01*
X107947366Y-94756385D01*
X108214656Y-94867374D01*
X108504074Y-94867626D01*
X108771558Y-94757104D01*
X108976385Y-94552634D01*
X109087374Y-94285344D01*
X109087626Y-93995926D01*
X109087626Y-99540000D01*
X95993000Y-99540000D01*
X95993000Y-85772928D01*
X95993000Y-85548500D01*
X95993000Y-84951500D01*
X95993000Y-84727072D01*
X95898915Y-84499931D01*
X95740341Y-84341357D01*
X95760708Y-84311185D01*
X95793032Y-84150000D01*
X95793032Y-83350000D01*
X95762700Y-83193668D01*
X95672443Y-83056267D01*
X95536185Y-82964292D01*
X95375000Y-82931968D01*
X94625000Y-82931968D01*
X94468668Y-82962300D01*
X94393000Y-83012004D01*
X94393000Y-74322928D01*
X94393000Y-74098500D01*
X94393000Y-73501500D01*
X94393000Y-73277072D01*
X94298915Y-73049931D01*
X94140341Y-72891357D01*
X94160708Y-72861185D01*
X94193032Y-72700000D01*
X94193032Y-71900000D01*
X94162700Y-71743668D01*
X94146675Y-71719273D01*
X94177374Y-71645344D01*
X94177626Y-71355926D01*
X94177626Y-67755926D01*
X94067104Y-67488442D01*
X93890683Y-67311713D01*
X93893032Y-67300000D01*
X93893032Y-66500000D01*
X93862700Y-66343668D01*
X93839949Y-66309034D01*
X93998915Y-66150069D01*
X94093000Y-65922928D01*
X94093000Y-65698500D01*
X94093000Y-65101500D01*
X94093000Y-64877072D01*
X93998915Y-64649931D01*
X93825069Y-64476085D01*
X93597928Y-64382000D01*
X93398500Y-64382000D01*
X93244000Y-64536500D01*
X93244000Y-65256000D01*
X93938500Y-65256000D01*
X94093000Y-65101500D01*
X94093000Y-65698500D01*
X93938500Y-65544000D01*
X93244000Y-65544000D01*
X93244000Y-65564000D01*
X92956000Y-65564000D01*
X92956000Y-65544000D01*
X92956000Y-65256000D01*
X92956000Y-64536500D01*
X92801500Y-64382000D01*
X92602072Y-64382000D01*
X92374931Y-64476085D01*
X92201085Y-64649931D01*
X92107000Y-64877072D01*
X92107000Y-65101500D01*
X92261500Y-65256000D01*
X92956000Y-65256000D01*
X92956000Y-65544000D01*
X92261500Y-65544000D01*
X92107000Y-65698500D01*
X92107000Y-65922928D01*
X92201085Y-66150069D01*
X92359658Y-66308642D01*
X92339292Y-66338815D01*
X92306968Y-66500000D01*
X92306968Y-67300000D01*
X92337300Y-67456332D01*
X92427557Y-67593733D01*
X92520704Y-67656608D01*
X92520705Y-67656608D01*
X92545210Y-67779802D01*
X92675382Y-67974618D01*
X92722393Y-68021629D01*
X92722374Y-68044074D01*
X92832896Y-68311558D01*
X93037366Y-68516385D01*
X93304656Y-68627374D01*
X93594074Y-68627626D01*
X93861558Y-68517104D01*
X94066385Y-68312634D01*
X94177374Y-68045344D01*
X94177626Y-67755926D01*
X94177626Y-71355926D01*
X94067104Y-71088442D01*
X93862634Y-70883615D01*
X93595344Y-70772626D01*
X93305926Y-70772374D01*
X93038442Y-70882896D01*
X92833615Y-71087366D01*
X92722626Y-71354656D01*
X92722398Y-71615695D01*
X92639292Y-71738815D01*
X92606968Y-71900000D01*
X92606968Y-72700000D01*
X92637300Y-72856332D01*
X92660050Y-72890965D01*
X92501085Y-73049931D01*
X92407000Y-73277072D01*
X92407000Y-73501500D01*
X92561500Y-73656000D01*
X93256000Y-73656000D01*
X93256000Y-73636000D01*
X93544000Y-73636000D01*
X93544000Y-73656000D01*
X94238500Y-73656000D01*
X94393000Y-73501500D01*
X94393000Y-74098500D01*
X94238500Y-73944000D01*
X93544000Y-73944000D01*
X93544000Y-74663500D01*
X93698500Y-74818000D01*
X93897928Y-74818000D01*
X94125069Y-74723915D01*
X94298915Y-74550069D01*
X94393000Y-74322928D01*
X94393000Y-83012004D01*
X94376955Y-83022544D01*
X94180926Y-83022374D01*
X93913442Y-83132896D01*
X93708615Y-83337366D01*
X93597626Y-83604656D01*
X93597374Y-83894074D01*
X93707896Y-84161558D01*
X93912366Y-84366385D01*
X94140076Y-84460939D01*
X94101085Y-84499931D01*
X94007000Y-84727072D01*
X94007000Y-84951500D01*
X94161500Y-85106000D01*
X94856000Y-85106000D01*
X94856000Y-85086000D01*
X95144000Y-85086000D01*
X95144000Y-85106000D01*
X95838500Y-85106000D01*
X95993000Y-84951500D01*
X95993000Y-85548500D01*
X95838500Y-85394000D01*
X95144000Y-85394000D01*
X95144000Y-86113500D01*
X95298500Y-86268000D01*
X95497928Y-86268000D01*
X95725069Y-86173915D01*
X95898915Y-86000069D01*
X95993000Y-85772928D01*
X95993000Y-99540000D01*
X94856000Y-99540000D01*
X94856000Y-86113500D01*
X94856000Y-85394000D01*
X94161500Y-85394000D01*
X94007000Y-85548500D01*
X94007000Y-85772928D01*
X94101085Y-86000069D01*
X94274931Y-86173915D01*
X94502072Y-86268000D01*
X94701500Y-86268000D01*
X94856000Y-86113500D01*
X94856000Y-99540000D01*
X93256000Y-99540000D01*
X93256000Y-74663500D01*
X93256000Y-73944000D01*
X92561500Y-73944000D01*
X92407000Y-74098500D01*
X92407000Y-74322928D01*
X92501085Y-74550069D01*
X92674931Y-74723915D01*
X92902072Y-74818000D01*
X93101500Y-74818000D01*
X93256000Y-74663500D01*
X93256000Y-99540000D01*
X93252626Y-99540000D01*
X93252626Y-86930926D01*
X93142104Y-86663442D01*
X92937634Y-86458615D01*
X92670344Y-86347626D01*
X92380926Y-86347374D01*
X92277626Y-86390056D01*
X92277626Y-82905926D01*
X92167104Y-82638442D01*
X91962634Y-82433615D01*
X91909947Y-82411737D01*
X91910201Y-82121770D01*
X91620053Y-81419559D01*
X91083267Y-80881835D01*
X90643000Y-80699020D01*
X90643000Y-65922928D01*
X90643000Y-65698500D01*
X90643000Y-65101500D01*
X90643000Y-64877072D01*
X90548915Y-64649931D01*
X90375069Y-64476085D01*
X90147928Y-64382000D01*
X89948500Y-64382000D01*
X89794000Y-64536500D01*
X89794000Y-65256000D01*
X90488500Y-65256000D01*
X90643000Y-65101500D01*
X90643000Y-65698500D01*
X90488500Y-65544000D01*
X89794000Y-65544000D01*
X89794000Y-65564000D01*
X89506000Y-65564000D01*
X89506000Y-65544000D01*
X89506000Y-65256000D01*
X89506000Y-64536500D01*
X89351500Y-64382000D01*
X89152072Y-64382000D01*
X88924931Y-64476085D01*
X88751085Y-64649931D01*
X88657000Y-64877072D01*
X88657000Y-65101500D01*
X88811500Y-65256000D01*
X89506000Y-65256000D01*
X89506000Y-65544000D01*
X88811500Y-65544000D01*
X88657000Y-65698500D01*
X88657000Y-65922928D01*
X88702975Y-66033922D01*
X88463442Y-66132896D01*
X88258615Y-66337366D01*
X88147626Y-66604656D01*
X88147374Y-66894074D01*
X88257896Y-67161558D01*
X88462366Y-67366385D01*
X88729656Y-67477374D01*
X88901220Y-67477523D01*
X88977557Y-67593733D01*
X89113815Y-67685708D01*
X89275000Y-67718032D01*
X90025000Y-67718032D01*
X90181332Y-67687700D01*
X90318733Y-67597443D01*
X90410708Y-67461185D01*
X90443032Y-67300000D01*
X90443032Y-66500000D01*
X90412700Y-66343668D01*
X90389949Y-66309034D01*
X90548915Y-66150069D01*
X90643000Y-65922928D01*
X90643000Y-80699020D01*
X90443000Y-80615972D01*
X90443000Y-74272928D01*
X90443000Y-74048500D01*
X90443000Y-73451500D01*
X90443000Y-73227072D01*
X90348915Y-72999931D01*
X90190341Y-72841357D01*
X90210708Y-72811185D01*
X90243032Y-72650000D01*
X90243032Y-71850000D01*
X90212700Y-71693668D01*
X90122443Y-71556267D01*
X89986185Y-71464292D01*
X89825000Y-71431968D01*
X89075000Y-71431968D01*
X88918668Y-71462300D01*
X88903070Y-71472545D01*
X88705926Y-71472374D01*
X88438442Y-71582896D01*
X88233615Y-71787366D01*
X88122626Y-72054656D01*
X88122374Y-72344074D01*
X88232896Y-72611558D01*
X88437366Y-72816385D01*
X88647411Y-72903604D01*
X88551085Y-72999931D01*
X88457000Y-73227072D01*
X88457000Y-73451500D01*
X88611500Y-73606000D01*
X89306000Y-73606000D01*
X89306000Y-73586000D01*
X89594000Y-73586000D01*
X89594000Y-73606000D01*
X90288500Y-73606000D01*
X90443000Y-73451500D01*
X90443000Y-74048500D01*
X90288500Y-73894000D01*
X89594000Y-73894000D01*
X89594000Y-74613500D01*
X89748500Y-74768000D01*
X89947928Y-74768000D01*
X90175069Y-74673915D01*
X90348915Y-74500069D01*
X90443000Y-74272928D01*
X90443000Y-80615972D01*
X90381563Y-80590462D01*
X89621770Y-80589799D01*
X89306000Y-80720272D01*
X89306000Y-74613500D01*
X89306000Y-73894000D01*
X88611500Y-73894000D01*
X88457000Y-74048500D01*
X88457000Y-74272928D01*
X88551085Y-74500069D01*
X88724931Y-74673915D01*
X88952072Y-74768000D01*
X89151500Y-74768000D01*
X89306000Y-74613500D01*
X89306000Y-80720272D01*
X88919559Y-80879947D01*
X88381835Y-81416733D01*
X88090462Y-82118437D01*
X88089799Y-82878230D01*
X88379947Y-83580441D01*
X88916733Y-84118165D01*
X89618437Y-84409538D01*
X90378230Y-84410201D01*
X91080441Y-84120053D01*
X91423702Y-83777390D01*
X91694074Y-83777626D01*
X91961558Y-83667104D01*
X92166385Y-83462634D01*
X92277374Y-83195344D01*
X92277626Y-82905926D01*
X92277626Y-86390056D01*
X92132619Y-86449972D01*
X92120053Y-86419559D01*
X91583267Y-85881835D01*
X90881563Y-85590462D01*
X90121770Y-85589799D01*
X89419559Y-85879947D01*
X88881835Y-86416733D01*
X88590462Y-87118437D01*
X88589799Y-87878230D01*
X88879947Y-88580441D01*
X89416733Y-89118165D01*
X90118437Y-89409538D01*
X90878230Y-89410201D01*
X91580441Y-89120053D01*
X92118165Y-88583267D01*
X92401954Y-87899826D01*
X92460624Y-87860624D01*
X92518753Y-87802495D01*
X92669074Y-87802626D01*
X92936558Y-87692104D01*
X93141385Y-87487634D01*
X93252374Y-87220344D01*
X93252626Y-86930926D01*
X93252626Y-99540000D01*
X82997626Y-99540000D01*
X82997626Y-86575926D01*
X82887104Y-86308442D01*
X82682634Y-86103615D01*
X82415344Y-85992626D01*
X82125926Y-85992374D01*
X81858442Y-86102896D01*
X81653615Y-86307366D01*
X81542626Y-86574656D01*
X81542493Y-86726257D01*
X80539376Y-87729376D01*
X80428821Y-87894831D01*
X80390000Y-88090000D01*
X80390000Y-89711166D01*
X80283615Y-89817366D01*
X80172626Y-90084656D01*
X80172374Y-90374074D01*
X80282896Y-90641558D01*
X80487366Y-90846385D01*
X80754656Y-90957374D01*
X81044074Y-90957626D01*
X81311558Y-90847104D01*
X81516385Y-90642634D01*
X81627374Y-90375344D01*
X81627626Y-90085926D01*
X81517104Y-89818442D01*
X81410000Y-89711150D01*
X81410000Y-88301248D01*
X82263753Y-87447495D01*
X82414074Y-87447626D01*
X82681558Y-87337104D01*
X82886385Y-87132634D01*
X82997374Y-86865344D01*
X82997626Y-86575926D01*
X82997626Y-99540000D01*
X77177626Y-99540000D01*
X77177626Y-98275926D01*
X77067104Y-98008442D01*
X76960000Y-97901150D01*
X76960000Y-97568851D01*
X77056385Y-97472634D01*
X77167374Y-97205344D01*
X77167626Y-96915926D01*
X77057104Y-96648442D01*
X76957626Y-96548790D01*
X76957626Y-87565926D01*
X76847104Y-87298442D01*
X76642634Y-87093615D01*
X76375344Y-86982626D01*
X76085926Y-86982374D01*
X75818442Y-87092896D01*
X75711150Y-87200000D01*
X75461248Y-87200000D01*
X74947495Y-86686247D01*
X74947626Y-86535926D01*
X74837104Y-86268442D01*
X74632634Y-86063615D01*
X74365344Y-85952626D01*
X74075926Y-85952374D01*
X73808442Y-86062896D01*
X73603615Y-86267366D01*
X73492626Y-86534656D01*
X73492374Y-86824074D01*
X73602896Y-87091558D01*
X73807366Y-87296385D01*
X74074656Y-87407374D01*
X74226258Y-87407506D01*
X74889376Y-88070624D01*
X75054831Y-88181179D01*
X75250000Y-88220000D01*
X75711166Y-88220000D01*
X75817366Y-88326385D01*
X76084656Y-88437374D01*
X76374074Y-88437626D01*
X76641558Y-88327104D01*
X76846385Y-88122634D01*
X76957374Y-87855344D01*
X76957626Y-87565926D01*
X76957626Y-96548790D01*
X76852634Y-96443615D01*
X76585344Y-96332626D01*
X76295926Y-96332374D01*
X76028442Y-96442896D01*
X75823615Y-96647366D01*
X75712626Y-96914656D01*
X75712374Y-97204074D01*
X75822896Y-97471558D01*
X75940000Y-97588866D01*
X75940000Y-97901166D01*
X75833615Y-98007366D01*
X75722626Y-98274656D01*
X75722374Y-98564074D01*
X75832896Y-98831558D01*
X76037366Y-99036385D01*
X76304656Y-99147374D01*
X76594074Y-99147626D01*
X76861558Y-99037104D01*
X77066385Y-98832634D01*
X77177374Y-98565344D01*
X77177626Y-98275926D01*
X77177626Y-99540000D01*
X75447626Y-99540000D01*
X75447626Y-88815926D01*
X75337104Y-88548442D01*
X75132634Y-88343615D01*
X74865344Y-88232626D01*
X74575926Y-88232374D01*
X74308442Y-88342896D01*
X74221217Y-88429968D01*
X73537495Y-87746246D01*
X73537626Y-87595926D01*
X73427104Y-87328442D01*
X73222634Y-87123615D01*
X72955344Y-87012626D01*
X72665926Y-87012374D01*
X72398442Y-87122896D01*
X72193615Y-87327366D01*
X72082626Y-87594656D01*
X72082374Y-87884074D01*
X72192896Y-88151558D01*
X72397366Y-88356385D01*
X72664656Y-88467374D01*
X72816257Y-88467506D01*
X73669376Y-89320625D01*
X73834831Y-89431179D01*
X73834832Y-89431180D01*
X74030000Y-89470000D01*
X74201166Y-89470000D01*
X74307366Y-89576385D01*
X74574656Y-89687374D01*
X74864074Y-89687626D01*
X75131558Y-89577104D01*
X75336385Y-89372634D01*
X75447374Y-89105344D01*
X75447626Y-88815926D01*
X75447626Y-99540000D01*
X68457626Y-99540000D01*
X68457626Y-88385926D01*
X68347104Y-88118442D01*
X68142634Y-87913615D01*
X67875344Y-87802626D01*
X67723742Y-87802493D01*
X67044202Y-87122953D01*
X67201604Y-86887386D01*
X67298551Y-86400000D01*
X67201604Y-85912614D01*
X66925522Y-85499429D01*
X66512337Y-85223347D01*
X66043049Y-85130000D01*
X66512337Y-85036653D01*
X66925522Y-84760571D01*
X67201604Y-84347386D01*
X67298551Y-83860000D01*
X67201604Y-83372614D01*
X66925522Y-82959429D01*
X66512337Y-82683347D01*
X66043049Y-82590000D01*
X66512337Y-82496653D01*
X66925522Y-82220571D01*
X67201604Y-81807386D01*
X67298551Y-81320000D01*
X67201604Y-80832614D01*
X66925522Y-80419429D01*
X66512337Y-80143347D01*
X66043049Y-80050000D01*
X66512337Y-79956653D01*
X66925522Y-79680571D01*
X67201604Y-79267386D01*
X67298551Y-78780000D01*
X67201604Y-78292614D01*
X66925522Y-77879429D01*
X66512337Y-77603347D01*
X66043049Y-77510000D01*
X66512337Y-77416653D01*
X66925522Y-77140571D01*
X67201604Y-76727386D01*
X67298551Y-76240000D01*
X67201604Y-75752614D01*
X66925522Y-75339429D01*
X66512337Y-75063347D01*
X66043049Y-74970000D01*
X66512337Y-74876653D01*
X66925522Y-74600571D01*
X67201604Y-74187386D01*
X67298551Y-73700000D01*
X67201604Y-73212614D01*
X66925522Y-72799429D01*
X66512337Y-72523347D01*
X66043049Y-72430000D01*
X66512337Y-72336653D01*
X66925522Y-72060571D01*
X67201604Y-71647386D01*
X67298551Y-71160000D01*
X67201604Y-70672614D01*
X66925522Y-70259429D01*
X66512337Y-69983347D01*
X66043049Y-69890000D01*
X66512337Y-69796653D01*
X66925522Y-69520571D01*
X67201604Y-69107386D01*
X67298551Y-68620000D01*
X67201604Y-68132614D01*
X66925522Y-67719429D01*
X66512337Y-67443347D01*
X66043049Y-67350000D01*
X66512337Y-67256653D01*
X66925522Y-66980571D01*
X67201604Y-66567386D01*
X67298551Y-66080000D01*
X67201604Y-65592614D01*
X66925522Y-65179429D01*
X66512337Y-64903347D01*
X66043049Y-64810000D01*
X66512337Y-64716653D01*
X66925522Y-64440571D01*
X67201604Y-64027386D01*
X67298551Y-63540000D01*
X67201604Y-63052614D01*
X66925522Y-62639429D01*
X66689314Y-62481600D01*
X66986528Y-62481600D01*
X67213669Y-62387515D01*
X67387515Y-62213669D01*
X67481600Y-61986528D01*
X67481600Y-61740672D01*
X67481600Y-61298500D01*
X67481600Y-60701500D01*
X67481600Y-60259328D01*
X67481600Y-60013472D01*
X67387515Y-59786331D01*
X67213669Y-59612485D01*
X66986528Y-59518400D01*
X66298500Y-59518400D01*
X66144000Y-59672900D01*
X66144000Y-60856000D01*
X67327100Y-60856000D01*
X67481600Y-60701500D01*
X67481600Y-61298500D01*
X67327100Y-61144000D01*
X66144000Y-61144000D01*
X66144000Y-61164000D01*
X65856000Y-61164000D01*
X65856000Y-61144000D01*
X65856000Y-60856000D01*
X65856000Y-59672900D01*
X65701500Y-59518400D01*
X65013472Y-59518400D01*
X64786331Y-59612485D01*
X64612485Y-59786331D01*
X64521226Y-60006648D01*
X64353255Y-59817939D01*
X63832905Y-59566084D01*
X63604000Y-59679903D01*
X63604000Y-60856000D01*
X64672900Y-60856000D01*
X64779264Y-60856000D01*
X65856000Y-60856000D01*
X65856000Y-61144000D01*
X64779264Y-61144000D01*
X64672900Y-61144000D01*
X63604000Y-61144000D01*
X63604000Y-61164000D01*
X63316000Y-61164000D01*
X63316000Y-61144000D01*
X63316000Y-60856000D01*
X63316000Y-59679903D01*
X63087095Y-59566084D01*
X62566745Y-59817939D01*
X62182385Y-60249752D01*
X62026095Y-60627097D01*
X62140736Y-60856000D01*
X63316000Y-60856000D01*
X63316000Y-61144000D01*
X62140736Y-61144000D01*
X62026095Y-61372903D01*
X62182385Y-61750248D01*
X62566745Y-62182061D01*
X62944987Y-62365134D01*
X62534478Y-62639429D01*
X62258396Y-63052614D01*
X62161449Y-63540000D01*
X62258396Y-64027386D01*
X62534478Y-64440571D01*
X62947663Y-64716653D01*
X63416950Y-64810000D01*
X62947663Y-64903347D01*
X62534478Y-65179429D01*
X62258396Y-65592614D01*
X62161449Y-66080000D01*
X62258396Y-66567386D01*
X62534478Y-66980571D01*
X62947663Y-67256653D01*
X63416950Y-67350000D01*
X62947663Y-67443347D01*
X62534478Y-67719429D01*
X62258396Y-68132614D01*
X62161449Y-68620000D01*
X62258396Y-69107386D01*
X62534478Y-69520571D01*
X62947663Y-69796653D01*
X63416950Y-69890000D01*
X62947663Y-69983347D01*
X62534478Y-70259429D01*
X62258396Y-70672614D01*
X62161449Y-71160000D01*
X62258396Y-71647386D01*
X62534478Y-72060571D01*
X62947663Y-72336653D01*
X63416950Y-72430000D01*
X62947663Y-72523347D01*
X62534478Y-72799429D01*
X62258396Y-73212614D01*
X62161449Y-73700000D01*
X62258396Y-74187386D01*
X62534478Y-74600571D01*
X62947663Y-74876653D01*
X63416950Y-74970000D01*
X62947663Y-75063347D01*
X62534478Y-75339429D01*
X62258396Y-75752614D01*
X62161449Y-76240000D01*
X62258396Y-76727386D01*
X62534478Y-77140571D01*
X62947663Y-77416653D01*
X63416950Y-77510000D01*
X62947663Y-77603347D01*
X62534478Y-77879429D01*
X62258396Y-78292614D01*
X62161449Y-78780000D01*
X62258396Y-79267386D01*
X62534478Y-79680571D01*
X62947663Y-79956653D01*
X63416950Y-80050000D01*
X62947663Y-80143347D01*
X62534478Y-80419429D01*
X62258396Y-80832614D01*
X62161449Y-81320000D01*
X62258396Y-81807386D01*
X62534478Y-82220571D01*
X62944987Y-82494865D01*
X62566745Y-82677939D01*
X62182385Y-83109752D01*
X62026095Y-83487097D01*
X62140736Y-83716000D01*
X63316000Y-83716000D01*
X63316000Y-83696000D01*
X63604000Y-83696000D01*
X63604000Y-83716000D01*
X63624000Y-83716000D01*
X63624000Y-84004000D01*
X63604000Y-84004000D01*
X63604000Y-84024000D01*
X63316000Y-84024000D01*
X63316000Y-84004000D01*
X62140736Y-84004000D01*
X62026095Y-84232903D01*
X62182385Y-84610248D01*
X62566745Y-85042061D01*
X62944987Y-85225134D01*
X62534478Y-85499429D01*
X62258396Y-85912614D01*
X62161449Y-86400000D01*
X62258396Y-86887386D01*
X62534478Y-87300571D01*
X62947663Y-87576653D01*
X63416950Y-87670000D01*
X62947663Y-87763347D01*
X62534478Y-88039429D01*
X62258396Y-88452614D01*
X62161449Y-88940000D01*
X62258396Y-89427386D01*
X62534478Y-89840571D01*
X62947663Y-90116653D01*
X63435049Y-90213600D01*
X63484951Y-90213600D01*
X63972337Y-90116653D01*
X64385522Y-89840571D01*
X64631915Y-89471818D01*
X64722385Y-89690248D01*
X65106745Y-90122061D01*
X65627095Y-90373916D01*
X65856000Y-90260097D01*
X65856000Y-89084000D01*
X65836000Y-89084000D01*
X65836000Y-88796000D01*
X65856000Y-88796000D01*
X65856000Y-88776000D01*
X66144000Y-88776000D01*
X66144000Y-88796000D01*
X66164000Y-88796000D01*
X66164000Y-89084000D01*
X66144000Y-89084000D01*
X66144000Y-90260097D01*
X66372905Y-90373916D01*
X66893255Y-90122061D01*
X67277615Y-89690248D01*
X67433905Y-89312903D01*
X67359210Y-89163760D01*
X67584656Y-89257374D01*
X67874074Y-89257626D01*
X68141558Y-89147104D01*
X68346385Y-88942634D01*
X68457374Y-88675344D01*
X68457626Y-88385926D01*
X68457626Y-99540000D01*
X60460000Y-99540000D01*
X60460000Y-50460000D01*
X70000000Y-50460000D01*
X109540000Y-50460000D01*
X109540000Y-99540000D01*
X109540000Y-99540000D01*
G37*
X109540000Y-99540000D02*
X109087626Y-99540000D01*
X109087626Y-93995926D01*
X108977104Y-93728442D01*
X108973905Y-93725237D01*
X108973905Y-89352903D01*
X108859264Y-89124000D01*
X107684000Y-89124000D01*
X107684000Y-89144000D01*
X107396000Y-89144000D01*
X107396000Y-89124000D01*
X107376000Y-89124000D01*
X107376000Y-88836000D01*
X107396000Y-88836000D01*
X107396000Y-88816000D01*
X107684000Y-88816000D01*
X107684000Y-88836000D01*
X108859264Y-88836000D01*
X108973905Y-88607097D01*
X108817615Y-88229752D01*
X108433255Y-87797939D01*
X108055012Y-87614865D01*
X108465522Y-87340571D01*
X108741604Y-86927386D01*
X108838551Y-86440000D01*
X108741604Y-85952614D01*
X108465522Y-85539429D01*
X108052337Y-85263347D01*
X107583049Y-85170000D01*
X108052337Y-85076653D01*
X108465522Y-84800571D01*
X108741604Y-84387386D01*
X108838551Y-83900000D01*
X108741604Y-83412614D01*
X108465522Y-82999429D01*
X108052337Y-82723347D01*
X107583049Y-82630000D01*
X108052337Y-82536653D01*
X108465522Y-82260571D01*
X108741604Y-81847386D01*
X108838551Y-81360000D01*
X108741604Y-80872614D01*
X108465522Y-80459429D01*
X108052337Y-80183347D01*
X107583049Y-80090000D01*
X108052337Y-79996653D01*
X108465522Y-79720571D01*
X108741604Y-79307386D01*
X108838551Y-78820000D01*
X108741604Y-78332614D01*
X108465522Y-77919429D01*
X108052337Y-77643347D01*
X107583049Y-77550000D01*
X108052337Y-77456653D01*
X108465522Y-77180571D01*
X108741604Y-76767386D01*
X108838551Y-76280000D01*
X108741604Y-75792614D01*
X108465522Y-75379429D01*
X108052337Y-75103347D01*
X107583049Y-75010000D01*
X108052337Y-74916653D01*
X108465522Y-74640571D01*
X108741604Y-74227386D01*
X108838551Y-73740000D01*
X108741604Y-73252614D01*
X108465522Y-72839429D01*
X108052337Y-72563347D01*
X107583049Y-72470000D01*
X108052337Y-72376653D01*
X108465522Y-72100571D01*
X108741604Y-71687386D01*
X108838551Y-71200000D01*
X108741604Y-70712614D01*
X108465522Y-70299429D01*
X108052337Y-70023347D01*
X107583049Y-69930000D01*
X108052337Y-69836653D01*
X108465522Y-69560571D01*
X108741604Y-69147386D01*
X108838551Y-68660000D01*
X108741604Y-68172614D01*
X108465522Y-67759429D01*
X108052337Y-67483347D01*
X107583049Y-67390000D01*
X108052337Y-67296653D01*
X108465522Y-67020571D01*
X108741604Y-66607386D01*
X108838551Y-66120000D01*
X108741604Y-65632614D01*
X108465522Y-65219429D01*
X108052337Y-64943347D01*
X107583049Y-64850000D01*
X108052337Y-64756653D01*
X108465522Y-64480571D01*
X108741604Y-64067386D01*
X108838551Y-63580000D01*
X108741604Y-63092614D01*
X108465522Y-62679429D01*
X108052337Y-62403347D01*
X107583049Y-62310000D01*
X108052337Y-62216653D01*
X108465522Y-61940571D01*
X108741604Y-61527386D01*
X108838551Y-61040000D01*
X108741604Y-60552614D01*
X108465522Y-60139429D01*
X108052337Y-59863347D01*
X107583049Y-59770000D01*
X108052337Y-59676653D01*
X108465522Y-59400571D01*
X108741604Y-58987386D01*
X108838551Y-58500000D01*
X108741604Y-58012614D01*
X108465522Y-57599429D01*
X108052337Y-57323347D01*
X107564951Y-57226400D01*
X107515049Y-57226400D01*
X107027663Y-57323347D01*
X106614478Y-57599429D01*
X106338396Y-58012614D01*
X106281632Y-58297986D01*
X106281632Y-57636400D01*
X106251300Y-57480068D01*
X106161043Y-57342667D01*
X106024785Y-57250692D01*
X105863600Y-57218368D01*
X104136400Y-57218368D01*
X103980068Y-57248700D01*
X103842667Y-57338957D01*
X103750692Y-57475215D01*
X103718368Y-57636400D01*
X103718368Y-59363600D01*
X103748700Y-59519932D01*
X103838957Y-59657333D01*
X103975215Y-59749308D01*
X104136400Y-59781632D01*
X104898472Y-59781632D01*
X104487663Y-59863347D01*
X104074478Y-60139429D01*
X103798396Y-60552614D01*
X103701449Y-61040000D01*
X103798396Y-61527386D01*
X104074478Y-61940571D01*
X104487663Y-62216653D01*
X104956950Y-62310000D01*
X104487663Y-62403347D01*
X104074478Y-62679429D01*
X103798396Y-63092614D01*
X103701449Y-63580000D01*
X103798396Y-64067386D01*
X104074478Y-64480571D01*
X104487663Y-64756653D01*
X104956950Y-64850000D01*
X104487663Y-64943347D01*
X104074478Y-65219429D01*
X103798396Y-65632614D01*
X103701449Y-66120000D01*
X103798396Y-66607386D01*
X104074478Y-67020571D01*
X104487663Y-67296653D01*
X104956950Y-67390000D01*
X104487663Y-67483347D01*
X104074478Y-67759429D01*
X103798396Y-68172614D01*
X103701449Y-68660000D01*
X103798396Y-69147386D01*
X104074478Y-69560571D01*
X104487663Y-69836653D01*
X104956950Y-69930000D01*
X104487663Y-70023347D01*
X104074478Y-70299429D01*
X103798396Y-70712614D01*
X103701449Y-71200000D01*
X103798396Y-71687386D01*
X104074478Y-72100571D01*
X104484987Y-72374865D01*
X104106745Y-72557939D01*
X103722385Y-72989752D01*
X103566095Y-73367097D01*
X103680736Y-73596000D01*
X104856000Y-73596000D01*
X104856000Y-73576000D01*
X105144000Y-73576000D01*
X105144000Y-73596000D01*
X105164000Y-73596000D01*
X105164000Y-73884000D01*
X105144000Y-73884000D01*
X105144000Y-73904000D01*
X104856000Y-73904000D01*
X104856000Y-73884000D01*
X103680736Y-73884000D01*
X103566095Y-74112903D01*
X103722385Y-74490248D01*
X104106745Y-74922061D01*
X104484987Y-75105134D01*
X104074478Y-75379429D01*
X103798396Y-75792614D01*
X103701449Y-76280000D01*
X103798396Y-76767386D01*
X104074478Y-77180571D01*
X104487663Y-77456653D01*
X104956950Y-77550000D01*
X104487663Y-77643347D01*
X104074478Y-77919429D01*
X103798396Y-78332614D01*
X103701449Y-78820000D01*
X103798396Y-79307386D01*
X104074478Y-79720571D01*
X104487663Y-79996653D01*
X104956950Y-80090000D01*
X104487663Y-80183347D01*
X104074478Y-80459429D01*
X103798396Y-80872614D01*
X103701449Y-81360000D01*
X103798396Y-81847386D01*
X104074478Y-82260571D01*
X104487663Y-82536653D01*
X104956950Y-82630000D01*
X104487663Y-82723347D01*
X104074478Y-82999429D01*
X103798396Y-83412614D01*
X103701449Y-83900000D01*
X103798396Y-84387386D01*
X104074478Y-84800571D01*
X104487663Y-85076653D01*
X104956950Y-85170000D01*
X104487663Y-85263347D01*
X104074478Y-85539429D01*
X103798396Y-85952614D01*
X103701449Y-86440000D01*
X103798396Y-86927386D01*
X104074478Y-87340571D01*
X104487663Y-87616653D01*
X104956950Y-87710000D01*
X104487663Y-87803347D01*
X104074478Y-88079429D01*
X103798396Y-88492614D01*
X103701449Y-88980000D01*
X103798396Y-89467386D01*
X104074478Y-89880571D01*
X104487663Y-90156653D01*
X104956950Y-90250000D01*
X104487663Y-90343347D01*
X104074478Y-90619429D01*
X103798396Y-91032614D01*
X103701449Y-91520000D01*
X103798396Y-92007386D01*
X104074478Y-92420571D01*
X104487663Y-92696653D01*
X104975049Y-92793600D01*
X105024951Y-92793600D01*
X105512337Y-92696653D01*
X105925522Y-92420571D01*
X106201604Y-92007386D01*
X106270000Y-91663535D01*
X106338396Y-92007386D01*
X106614478Y-92420571D01*
X107027663Y-92696653D01*
X107515049Y-92793600D01*
X107564951Y-92793600D01*
X108052337Y-92696653D01*
X108465522Y-92420571D01*
X108741604Y-92007386D01*
X108838551Y-91520000D01*
X108741604Y-91032614D01*
X108465522Y-90619429D01*
X108055012Y-90345134D01*
X108433255Y-90162061D01*
X108817615Y-89730248D01*
X108973905Y-89352903D01*
X108973905Y-93725237D01*
X108772634Y-93523615D01*
X108505344Y-93412626D01*
X108215926Y-93412374D01*
X107948442Y-93522896D01*
X107831133Y-93640000D01*
X106148833Y-93640000D01*
X106042634Y-93533615D01*
X105775344Y-93422626D01*
X105485926Y-93422374D01*
X105218442Y-93532896D01*
X105013615Y-93737366D01*
X104902626Y-94004656D01*
X104902374Y-94294074D01*
X105012896Y-94561558D01*
X105217366Y-94766385D01*
X105484656Y-94877374D01*
X105774074Y-94877626D01*
X106041558Y-94767104D01*
X106148849Y-94660000D01*
X107851148Y-94660000D01*
X107947366Y-94756385D01*
X108214656Y-94867374D01*
X108504074Y-94867626D01*
X108771558Y-94757104D01*
X108976385Y-94552634D01*
X109087374Y-94285344D01*
X109087626Y-93995926D01*
X109087626Y-99540000D01*
X95993000Y-99540000D01*
X95993000Y-85772928D01*
X95993000Y-85548500D01*
X95993000Y-84951500D01*
X95993000Y-84727072D01*
X95898915Y-84499931D01*
X95740341Y-84341357D01*
X95760708Y-84311185D01*
X95793032Y-84150000D01*
X95793032Y-83350000D01*
X95762700Y-83193668D01*
X95672443Y-83056267D01*
X95536185Y-82964292D01*
X95375000Y-82931968D01*
X94625000Y-82931968D01*
X94468668Y-82962300D01*
X94393000Y-83012004D01*
X94393000Y-74322928D01*
X94393000Y-74098500D01*
X94393000Y-73501500D01*
X94393000Y-73277072D01*
X94298915Y-73049931D01*
X94140341Y-72891357D01*
X94160708Y-72861185D01*
X94193032Y-72700000D01*
X94193032Y-71900000D01*
X94162700Y-71743668D01*
X94146675Y-71719273D01*
X94177374Y-71645344D01*
X94177626Y-71355926D01*
X94177626Y-67755926D01*
X94067104Y-67488442D01*
X93890683Y-67311713D01*
X93893032Y-67300000D01*
X93893032Y-66500000D01*
X93862700Y-66343668D01*
X93839949Y-66309034D01*
X93998915Y-66150069D01*
X94093000Y-65922928D01*
X94093000Y-65698500D01*
X94093000Y-65101500D01*
X94093000Y-64877072D01*
X93998915Y-64649931D01*
X93825069Y-64476085D01*
X93597928Y-64382000D01*
X93398500Y-64382000D01*
X93244000Y-64536500D01*
X93244000Y-65256000D01*
X93938500Y-65256000D01*
X94093000Y-65101500D01*
X94093000Y-65698500D01*
X93938500Y-65544000D01*
X93244000Y-65544000D01*
X93244000Y-65564000D01*
X92956000Y-65564000D01*
X92956000Y-65544000D01*
X92956000Y-65256000D01*
X92956000Y-64536500D01*
X92801500Y-64382000D01*
X92602072Y-64382000D01*
X92374931Y-64476085D01*
X92201085Y-64649931D01*
X92107000Y-64877072D01*
X92107000Y-65101500D01*
X92261500Y-65256000D01*
X92956000Y-65256000D01*
X92956000Y-65544000D01*
X92261500Y-65544000D01*
X92107000Y-65698500D01*
X92107000Y-65922928D01*
X92201085Y-66150069D01*
X92359658Y-66308642D01*
X92339292Y-66338815D01*
X92306968Y-66500000D01*
X92306968Y-67300000D01*
X92337300Y-67456332D01*
X92427557Y-67593733D01*
X92520704Y-67656608D01*
X92520705Y-67656608D01*
X92545210Y-67779802D01*
X92675382Y-67974618D01*
X92722393Y-68021629D01*
X92722374Y-68044074D01*
X92832896Y-68311558D01*
X93037366Y-68516385D01*
X93304656Y-68627374D01*
X93594074Y-68627626D01*
X93861558Y-68517104D01*
X94066385Y-68312634D01*
X94177374Y-68045344D01*
X94177626Y-67755926D01*
X94177626Y-71355926D01*
X94067104Y-71088442D01*
X93862634Y-70883615D01*
X93595344Y-70772626D01*
X93305926Y-70772374D01*
X93038442Y-70882896D01*
X92833615Y-71087366D01*
X92722626Y-71354656D01*
X92722398Y-71615695D01*
X92639292Y-71738815D01*
X92606968Y-71900000D01*
X92606968Y-72700000D01*
X92637300Y-72856332D01*
X92660050Y-72890965D01*
X92501085Y-73049931D01*
X92407000Y-73277072D01*
X92407000Y-73501500D01*
X92561500Y-73656000D01*
X93256000Y-73656000D01*
X93256000Y-73636000D01*
X93544000Y-73636000D01*
X93544000Y-73656000D01*
X94238500Y-73656000D01*
X94393000Y-73501500D01*
X94393000Y-74098500D01*
X94238500Y-73944000D01*
X93544000Y-73944000D01*
X93544000Y-74663500D01*
X93698500Y-74818000D01*
X93897928Y-74818000D01*
X94125069Y-74723915D01*
X94298915Y-74550069D01*
X94393000Y-74322928D01*
X94393000Y-83012004D01*
X94376955Y-83022544D01*
X94180926Y-83022374D01*
X93913442Y-83132896D01*
X93708615Y-83337366D01*
X93597626Y-83604656D01*
X93597374Y-83894074D01*
X93707896Y-84161558D01*
X93912366Y-84366385D01*
X94140076Y-84460939D01*
X94101085Y-84499931D01*
X94007000Y-84727072D01*
X94007000Y-84951500D01*
X94161500Y-85106000D01*
X94856000Y-85106000D01*
X94856000Y-85086000D01*
X95144000Y-85086000D01*
X95144000Y-85106000D01*
X95838500Y-85106000D01*
X95993000Y-84951500D01*
X95993000Y-85548500D01*
X95838500Y-85394000D01*
X95144000Y-85394000D01*
X95144000Y-86113500D01*
X95298500Y-86268000D01*
X95497928Y-86268000D01*
X95725069Y-86173915D01*
X95898915Y-86000069D01*
X95993000Y-85772928D01*
X95993000Y-99540000D01*
X94856000Y-99540000D01*
X94856000Y-86113500D01*
X94856000Y-85394000D01*
X94161500Y-85394000D01*
X94007000Y-85548500D01*
X94007000Y-85772928D01*
X94101085Y-86000069D01*
X94274931Y-86173915D01*
X94502072Y-86268000D01*
X94701500Y-86268000D01*
X94856000Y-86113500D01*
X94856000Y-99540000D01*
X93256000Y-99540000D01*
X93256000Y-74663500D01*
X93256000Y-73944000D01*
X92561500Y-73944000D01*
X92407000Y-74098500D01*
X92407000Y-74322928D01*
X92501085Y-74550069D01*
X92674931Y-74723915D01*
X92902072Y-74818000D01*
X93101500Y-74818000D01*
X93256000Y-74663500D01*
X93256000Y-99540000D01*
X93252626Y-99540000D01*
X93252626Y-86930926D01*
X93142104Y-86663442D01*
X92937634Y-86458615D01*
X92670344Y-86347626D01*
X92380926Y-86347374D01*
X92277626Y-86390056D01*
X92277626Y-82905926D01*
X92167104Y-82638442D01*
X91962634Y-82433615D01*
X91909947Y-82411737D01*
X91910201Y-82121770D01*
X91620053Y-81419559D01*
X91083267Y-80881835D01*
X90643000Y-80699020D01*
X90643000Y-65922928D01*
X90643000Y-65698500D01*
X90643000Y-65101500D01*
X90643000Y-64877072D01*
X90548915Y-64649931D01*
X90375069Y-64476085D01*
X90147928Y-64382000D01*
X89948500Y-64382000D01*
X89794000Y-64536500D01*
X89794000Y-65256000D01*
X90488500Y-65256000D01*
X90643000Y-65101500D01*
X90643000Y-65698500D01*
X90488500Y-65544000D01*
X89794000Y-65544000D01*
X89794000Y-65564000D01*
X89506000Y-65564000D01*
X89506000Y-65544000D01*
X89506000Y-65256000D01*
X89506000Y-64536500D01*
X89351500Y-64382000D01*
X89152072Y-64382000D01*
X88924931Y-64476085D01*
X88751085Y-64649931D01*
X88657000Y-64877072D01*
X88657000Y-65101500D01*
X88811500Y-65256000D01*
X89506000Y-65256000D01*
X89506000Y-65544000D01*
X88811500Y-65544000D01*
X88657000Y-65698500D01*
X88657000Y-65922928D01*
X88702975Y-66033922D01*
X88463442Y-66132896D01*
X88258615Y-66337366D01*
X88147626Y-66604656D01*
X88147374Y-66894074D01*
X88257896Y-67161558D01*
X88462366Y-67366385D01*
X88729656Y-67477374D01*
X88901220Y-67477523D01*
X88977557Y-67593733D01*
X89113815Y-67685708D01*
X89275000Y-67718032D01*
X90025000Y-67718032D01*
X90181332Y-67687700D01*
X90318733Y-67597443D01*
X90410708Y-67461185D01*
X90443032Y-67300000D01*
X90443032Y-66500000D01*
X90412700Y-66343668D01*
X90389949Y-66309034D01*
X90548915Y-66150069D01*
X90643000Y-65922928D01*
X90643000Y-80699020D01*
X90443000Y-80615972D01*
X90443000Y-74272928D01*
X90443000Y-74048500D01*
X90443000Y-73451500D01*
X90443000Y-73227072D01*
X90348915Y-72999931D01*
X90190341Y-72841357D01*
X90210708Y-72811185D01*
X90243032Y-72650000D01*
X90243032Y-71850000D01*
X90212700Y-71693668D01*
X90122443Y-71556267D01*
X89986185Y-71464292D01*
X89825000Y-71431968D01*
X89075000Y-71431968D01*
X88918668Y-71462300D01*
X88903070Y-71472545D01*
X88705926Y-71472374D01*
X88438442Y-71582896D01*
X88233615Y-71787366D01*
X88122626Y-72054656D01*
X88122374Y-72344074D01*
X88232896Y-72611558D01*
X88437366Y-72816385D01*
X88647411Y-72903604D01*
X88551085Y-72999931D01*
X88457000Y-73227072D01*
X88457000Y-73451500D01*
X88611500Y-73606000D01*
X89306000Y-73606000D01*
X89306000Y-73586000D01*
X89594000Y-73586000D01*
X89594000Y-73606000D01*
X90288500Y-73606000D01*
X90443000Y-73451500D01*
X90443000Y-74048500D01*
X90288500Y-73894000D01*
X89594000Y-73894000D01*
X89594000Y-74613500D01*
X89748500Y-74768000D01*
X89947928Y-74768000D01*
X90175069Y-74673915D01*
X90348915Y-74500069D01*
X90443000Y-74272928D01*
X90443000Y-80615972D01*
X90381563Y-80590462D01*
X89621770Y-80589799D01*
X89306000Y-80720272D01*
X89306000Y-74613500D01*
X89306000Y-73894000D01*
X88611500Y-73894000D01*
X88457000Y-74048500D01*
X88457000Y-74272928D01*
X88551085Y-74500069D01*
X88724931Y-74673915D01*
X88952072Y-74768000D01*
X89151500Y-74768000D01*
X89306000Y-74613500D01*
X89306000Y-80720272D01*
X88919559Y-80879947D01*
X88381835Y-81416733D01*
X88090462Y-82118437D01*
X88089799Y-82878230D01*
X88379947Y-83580441D01*
X88916733Y-84118165D01*
X89618437Y-84409538D01*
X90378230Y-84410201D01*
X91080441Y-84120053D01*
X91423702Y-83777390D01*
X91694074Y-83777626D01*
X91961558Y-83667104D01*
X92166385Y-83462634D01*
X92277374Y-83195344D01*
X92277626Y-82905926D01*
X92277626Y-86390056D01*
X92132619Y-86449972D01*
X92120053Y-86419559D01*
X91583267Y-85881835D01*
X90881563Y-85590462D01*
X90121770Y-85589799D01*
X89419559Y-85879947D01*
X88881835Y-86416733D01*
X88590462Y-87118437D01*
X88589799Y-87878230D01*
X88879947Y-88580441D01*
X89416733Y-89118165D01*
X90118437Y-89409538D01*
X90878230Y-89410201D01*
X91580441Y-89120053D01*
X92118165Y-88583267D01*
X92401954Y-87899826D01*
X92460624Y-87860624D01*
X92518753Y-87802495D01*
X92669074Y-87802626D01*
X92936558Y-87692104D01*
X93141385Y-87487634D01*
X93252374Y-87220344D01*
X93252626Y-86930926D01*
X93252626Y-99540000D01*
X82997626Y-99540000D01*
X82997626Y-86575926D01*
X82887104Y-86308442D01*
X82682634Y-86103615D01*
X82415344Y-85992626D01*
X82125926Y-85992374D01*
X81858442Y-86102896D01*
X81653615Y-86307366D01*
X81542626Y-86574656D01*
X81542493Y-86726257D01*
X80539376Y-87729376D01*
X80428821Y-87894831D01*
X80390000Y-88090000D01*
X80390000Y-89711166D01*
X80283615Y-89817366D01*
X80172626Y-90084656D01*
X80172374Y-90374074D01*
X80282896Y-90641558D01*
X80487366Y-90846385D01*
X80754656Y-90957374D01*
X81044074Y-90957626D01*
X81311558Y-90847104D01*
X81516385Y-90642634D01*
X81627374Y-90375344D01*
X81627626Y-90085926D01*
X81517104Y-89818442D01*
X81410000Y-89711150D01*
X81410000Y-88301248D01*
X82263753Y-87447495D01*
X82414074Y-87447626D01*
X82681558Y-87337104D01*
X82886385Y-87132634D01*
X82997374Y-86865344D01*
X82997626Y-86575926D01*
X82997626Y-99540000D01*
X77177626Y-99540000D01*
X77177626Y-98275926D01*
X77067104Y-98008442D01*
X76960000Y-97901150D01*
X76960000Y-97568851D01*
X77056385Y-97472634D01*
X77167374Y-97205344D01*
X77167626Y-96915926D01*
X77057104Y-96648442D01*
X76957626Y-96548790D01*
X76957626Y-87565926D01*
X76847104Y-87298442D01*
X76642634Y-87093615D01*
X76375344Y-86982626D01*
X76085926Y-86982374D01*
X75818442Y-87092896D01*
X75711150Y-87200000D01*
X75461248Y-87200000D01*
X74947495Y-86686247D01*
X74947626Y-86535926D01*
X74837104Y-86268442D01*
X74632634Y-86063615D01*
X74365344Y-85952626D01*
X74075926Y-85952374D01*
X73808442Y-86062896D01*
X73603615Y-86267366D01*
X73492626Y-86534656D01*
X73492374Y-86824074D01*
X73602896Y-87091558D01*
X73807366Y-87296385D01*
X74074656Y-87407374D01*
X74226258Y-87407506D01*
X74889376Y-88070624D01*
X75054831Y-88181179D01*
X75250000Y-88220000D01*
X75711166Y-88220000D01*
X75817366Y-88326385D01*
X76084656Y-88437374D01*
X76374074Y-88437626D01*
X76641558Y-88327104D01*
X76846385Y-88122634D01*
X76957374Y-87855344D01*
X76957626Y-87565926D01*
X76957626Y-96548790D01*
X76852634Y-96443615D01*
X76585344Y-96332626D01*
X76295926Y-96332374D01*
X76028442Y-96442896D01*
X75823615Y-96647366D01*
X75712626Y-96914656D01*
X75712374Y-97204074D01*
X75822896Y-97471558D01*
X75940000Y-97588866D01*
X75940000Y-97901166D01*
X75833615Y-98007366D01*
X75722626Y-98274656D01*
X75722374Y-98564074D01*
X75832896Y-98831558D01*
X76037366Y-99036385D01*
X76304656Y-99147374D01*
X76594074Y-99147626D01*
X76861558Y-99037104D01*
X77066385Y-98832634D01*
X77177374Y-98565344D01*
X77177626Y-98275926D01*
X77177626Y-99540000D01*
X75447626Y-99540000D01*
X75447626Y-88815926D01*
X75337104Y-88548442D01*
X75132634Y-88343615D01*
X74865344Y-88232626D01*
X74575926Y-88232374D01*
X74308442Y-88342896D01*
X74221217Y-88429968D01*
X73537495Y-87746246D01*
X73537626Y-87595926D01*
X73427104Y-87328442D01*
X73222634Y-87123615D01*
X72955344Y-87012626D01*
X72665926Y-87012374D01*
X72398442Y-87122896D01*
X72193615Y-87327366D01*
X72082626Y-87594656D01*
X72082374Y-87884074D01*
X72192896Y-88151558D01*
X72397366Y-88356385D01*
X72664656Y-88467374D01*
X72816257Y-88467506D01*
X73669376Y-89320625D01*
X73834831Y-89431179D01*
X73834832Y-89431180D01*
X74030000Y-89470000D01*
X74201166Y-89470000D01*
X74307366Y-89576385D01*
X74574656Y-89687374D01*
X74864074Y-89687626D01*
X75131558Y-89577104D01*
X75336385Y-89372634D01*
X75447374Y-89105344D01*
X75447626Y-88815926D01*
X75447626Y-99540000D01*
X68457626Y-99540000D01*
X68457626Y-88385926D01*
X68347104Y-88118442D01*
X68142634Y-87913615D01*
X67875344Y-87802626D01*
X67723742Y-87802493D01*
X67044202Y-87122953D01*
X67201604Y-86887386D01*
X67298551Y-86400000D01*
X67201604Y-85912614D01*
X66925522Y-85499429D01*
X66512337Y-85223347D01*
X66043049Y-85130000D01*
X66512337Y-85036653D01*
X66925522Y-84760571D01*
X67201604Y-84347386D01*
X67298551Y-83860000D01*
X67201604Y-83372614D01*
X66925522Y-82959429D01*
X66512337Y-82683347D01*
X66043049Y-82590000D01*
X66512337Y-82496653D01*
X66925522Y-82220571D01*
X67201604Y-81807386D01*
X67298551Y-81320000D01*
X67201604Y-80832614D01*
X66925522Y-80419429D01*
X66512337Y-80143347D01*
X66043049Y-80050000D01*
X66512337Y-79956653D01*
X66925522Y-79680571D01*
X67201604Y-79267386D01*
X67298551Y-78780000D01*
X67201604Y-78292614D01*
X66925522Y-77879429D01*
X66512337Y-77603347D01*
X66043049Y-77510000D01*
X66512337Y-77416653D01*
X66925522Y-77140571D01*
X67201604Y-76727386D01*
X67298551Y-76240000D01*
X67201604Y-75752614D01*
X66925522Y-75339429D01*
X66512337Y-75063347D01*
X66043049Y-74970000D01*
X66512337Y-74876653D01*
X66925522Y-74600571D01*
X67201604Y-74187386D01*
X67298551Y-73700000D01*
X67201604Y-73212614D01*
X66925522Y-72799429D01*
X66512337Y-72523347D01*
X66043049Y-72430000D01*
X66512337Y-72336653D01*
X66925522Y-72060571D01*
X67201604Y-71647386D01*
X67298551Y-71160000D01*
X67201604Y-70672614D01*
X66925522Y-70259429D01*
X66512337Y-69983347D01*
X66043049Y-69890000D01*
X66512337Y-69796653D01*
X66925522Y-69520571D01*
X67201604Y-69107386D01*
X67298551Y-68620000D01*
X67201604Y-68132614D01*
X66925522Y-67719429D01*
X66512337Y-67443347D01*
X66043049Y-67350000D01*
X66512337Y-67256653D01*
X66925522Y-66980571D01*
X67201604Y-66567386D01*
X67298551Y-66080000D01*
X67201604Y-65592614D01*
X66925522Y-65179429D01*
X66512337Y-64903347D01*
X66043049Y-64810000D01*
X66512337Y-64716653D01*
X66925522Y-64440571D01*
X67201604Y-64027386D01*
X67298551Y-63540000D01*
X67201604Y-63052614D01*
X66925522Y-62639429D01*
X66689314Y-62481600D01*
X66986528Y-62481600D01*
X67213669Y-62387515D01*
X67387515Y-62213669D01*
X67481600Y-61986528D01*
X67481600Y-61740672D01*
X67481600Y-61298500D01*
X67481600Y-60701500D01*
X67481600Y-60259328D01*
X67481600Y-60013472D01*
X67387515Y-59786331D01*
X67213669Y-59612485D01*
X66986528Y-59518400D01*
X66298500Y-59518400D01*
X66144000Y-59672900D01*
X66144000Y-60856000D01*
X67327100Y-60856000D01*
X67481600Y-60701500D01*
X67481600Y-61298500D01*
X67327100Y-61144000D01*
X66144000Y-61144000D01*
X66144000Y-61164000D01*
X65856000Y-61164000D01*
X65856000Y-61144000D01*
X65856000Y-60856000D01*
X65856000Y-59672900D01*
X65701500Y-59518400D01*
X65013472Y-59518400D01*
X64786331Y-59612485D01*
X64612485Y-59786331D01*
X64521226Y-60006648D01*
X64353255Y-59817939D01*
X63832905Y-59566084D01*
X63604000Y-59679903D01*
X63604000Y-60856000D01*
X64672900Y-60856000D01*
X64779264Y-60856000D01*
X65856000Y-60856000D01*
X65856000Y-61144000D01*
X64779264Y-61144000D01*
X64672900Y-61144000D01*
X63604000Y-61144000D01*
X63604000Y-61164000D01*
X63316000Y-61164000D01*
X63316000Y-61144000D01*
X63316000Y-60856000D01*
X63316000Y-59679903D01*
X63087095Y-59566084D01*
X62566745Y-59817939D01*
X62182385Y-60249752D01*
X62026095Y-60627097D01*
X62140736Y-60856000D01*
X63316000Y-60856000D01*
X63316000Y-61144000D01*
X62140736Y-61144000D01*
X62026095Y-61372903D01*
X62182385Y-61750248D01*
X62566745Y-62182061D01*
X62944987Y-62365134D01*
X62534478Y-62639429D01*
X62258396Y-63052614D01*
X62161449Y-63540000D01*
X62258396Y-64027386D01*
X62534478Y-64440571D01*
X62947663Y-64716653D01*
X63416950Y-64810000D01*
X62947663Y-64903347D01*
X62534478Y-65179429D01*
X62258396Y-65592614D01*
X62161449Y-66080000D01*
X62258396Y-66567386D01*
X62534478Y-66980571D01*
X62947663Y-67256653D01*
X63416950Y-67350000D01*
X62947663Y-67443347D01*
X62534478Y-67719429D01*
X62258396Y-68132614D01*
X62161449Y-68620000D01*
X62258396Y-69107386D01*
X62534478Y-69520571D01*
X62947663Y-69796653D01*
X63416950Y-69890000D01*
X62947663Y-69983347D01*
X62534478Y-70259429D01*
X62258396Y-70672614D01*
X62161449Y-71160000D01*
X62258396Y-71647386D01*
X62534478Y-72060571D01*
X62947663Y-72336653D01*
X63416950Y-72430000D01*
X62947663Y-72523347D01*
X62534478Y-72799429D01*
X62258396Y-73212614D01*
X62161449Y-73700000D01*
X62258396Y-74187386D01*
X62534478Y-74600571D01*
X62947663Y-74876653D01*
X63416950Y-74970000D01*
X62947663Y-75063347D01*
X62534478Y-75339429D01*
X62258396Y-75752614D01*
X62161449Y-76240000D01*
X62258396Y-76727386D01*
X62534478Y-77140571D01*
X62947663Y-77416653D01*
X63416950Y-77510000D01*
X62947663Y-77603347D01*
X62534478Y-77879429D01*
X62258396Y-78292614D01*
X62161449Y-78780000D01*
X62258396Y-79267386D01*
X62534478Y-79680571D01*
X62947663Y-79956653D01*
X63416950Y-80050000D01*
X62947663Y-80143347D01*
X62534478Y-80419429D01*
X62258396Y-80832614D01*
X62161449Y-81320000D01*
X62258396Y-81807386D01*
X62534478Y-82220571D01*
X62944987Y-82494865D01*
X62566745Y-82677939D01*
X62182385Y-83109752D01*
X62026095Y-83487097D01*
X62140736Y-83716000D01*
X63316000Y-83716000D01*
X63316000Y-83696000D01*
X63604000Y-83696000D01*
X63604000Y-83716000D01*
X63624000Y-83716000D01*
X63624000Y-84004000D01*
X63604000Y-84004000D01*
X63604000Y-84024000D01*
X63316000Y-84024000D01*
X63316000Y-84004000D01*
X62140736Y-84004000D01*
X62026095Y-84232903D01*
X62182385Y-84610248D01*
X62566745Y-85042061D01*
X62944987Y-85225134D01*
X62534478Y-85499429D01*
X62258396Y-85912614D01*
X62161449Y-86400000D01*
X62258396Y-86887386D01*
X62534478Y-87300571D01*
X62947663Y-87576653D01*
X63416950Y-87670000D01*
X62947663Y-87763347D01*
X62534478Y-88039429D01*
X62258396Y-88452614D01*
X62161449Y-88940000D01*
X62258396Y-89427386D01*
X62534478Y-89840571D01*
X62947663Y-90116653D01*
X63435049Y-90213600D01*
X63484951Y-90213600D01*
X63972337Y-90116653D01*
X64385522Y-89840571D01*
X64631915Y-89471818D01*
X64722385Y-89690248D01*
X65106745Y-90122061D01*
X65627095Y-90373916D01*
X65856000Y-90260097D01*
X65856000Y-89084000D01*
X65836000Y-89084000D01*
X65836000Y-88796000D01*
X65856000Y-88796000D01*
X65856000Y-88776000D01*
X66144000Y-88776000D01*
X66144000Y-88796000D01*
X66164000Y-88796000D01*
X66164000Y-89084000D01*
X66144000Y-89084000D01*
X66144000Y-90260097D01*
X66372905Y-90373916D01*
X66893255Y-90122061D01*
X67277615Y-89690248D01*
X67433905Y-89312903D01*
X67359210Y-89163760D01*
X67584656Y-89257374D01*
X67874074Y-89257626D01*
X68141558Y-89147104D01*
X68346385Y-88942634D01*
X68457374Y-88675344D01*
X68457626Y-88385926D01*
X68457626Y-99540000D01*
X60460000Y-99540000D01*
X60460000Y-50460000D01*
X70000000Y-50460000D01*
X109540000Y-50460000D01*
X109540000Y-99540000D01*
M02*
