G04 #@! TF.FileFunction,Legend,Top*
%FSLAX46Y46*%
G04 Gerber Fmt 4.6, Leading zero omitted, Abs format (unit mm)*
G04 Created by KiCad (PCBNEW (2015-01-16 BZR 5376)-product) date 23/07/2015 11:51:53*
%MOMM*%
G01*
G04 APERTURE LIST*
%ADD10C,0.100000*%
%ADD11C,0.300000*%
%ADD12C,0.150000*%
G04 APERTURE END LIST*
D10*
D11*
X92678572Y-58678571D02*
X92678572Y-59678571D01*
X92321429Y-58107143D02*
X91964286Y-59178571D01*
X92892858Y-59178571D01*
X93250000Y-58178571D02*
X93750000Y-59678571D01*
X94250000Y-58178571D01*
X94607143Y-58178571D02*
X95607143Y-58178571D01*
X94964286Y-59678571D01*
X81821429Y-98178571D02*
X82321429Y-99678571D01*
X82821429Y-98178571D01*
X83321429Y-99107143D02*
X84464286Y-99107143D01*
X78500000Y-97928571D02*
X79000000Y-99428571D01*
X79500000Y-97928571D01*
X80000000Y-98428571D02*
X80000000Y-99428571D01*
X80000000Y-98571429D02*
X80071428Y-98500000D01*
X80214286Y-98428571D01*
X80428571Y-98428571D01*
X80571428Y-98500000D01*
X80642857Y-98642857D01*
X80642857Y-99428571D01*
X81928571Y-99357143D02*
X81785714Y-99428571D01*
X81500000Y-99428571D01*
X81357143Y-99357143D01*
X81285714Y-99214286D01*
X81285714Y-98642857D01*
X81357143Y-98500000D01*
X81500000Y-98428571D01*
X81785714Y-98428571D01*
X81928571Y-98500000D01*
X82000000Y-98642857D01*
X82000000Y-98785714D01*
X81285714Y-98928571D01*
X83285714Y-98428571D02*
X83285714Y-99642857D01*
X83214285Y-99785714D01*
X83142857Y-99857143D01*
X83000000Y-99928571D01*
X82785714Y-99928571D01*
X82642857Y-99857143D01*
X83285714Y-99357143D02*
X83142857Y-99428571D01*
X82857143Y-99428571D01*
X82714285Y-99357143D01*
X82642857Y-99285714D01*
X82571428Y-99142857D01*
X82571428Y-98714286D01*
X82642857Y-98571429D01*
X82714285Y-98500000D01*
X82857143Y-98428571D01*
X83142857Y-98428571D01*
X83285714Y-98500000D01*
D12*
X78150000Y-56600000D02*
X78150000Y-55900000D01*
X79350000Y-55900000D02*
X79350000Y-56600000D01*
X78150000Y-61100000D02*
X78150000Y-60400000D01*
X79350000Y-60400000D02*
X79350000Y-61100000D01*
X78150000Y-65600000D02*
X78150000Y-64900000D01*
X79350000Y-64900000D02*
X79350000Y-65600000D01*
X78150000Y-74600000D02*
X78150000Y-73900000D01*
X79350000Y-73900000D02*
X79350000Y-74600000D01*
X78150000Y-70100000D02*
X78150000Y-69400000D01*
X79350000Y-69400000D02*
X79350000Y-70100000D01*
X78150000Y-78850000D02*
X78150000Y-78150000D01*
X79350000Y-78150000D02*
X79350000Y-78850000D01*
X78150000Y-83850000D02*
X78150000Y-83150000D01*
X79350000Y-83150000D02*
X79350000Y-83850000D01*
X78150000Y-52100000D02*
X78150000Y-51400000D01*
X79350000Y-51400000D02*
X79350000Y-52100000D01*
X100492000Y-53436000D02*
X100492000Y-52736000D01*
X101692000Y-52736000D02*
X101692000Y-53436000D01*
X95352000Y-52509000D02*
X95352000Y-53209000D01*
X94152000Y-53209000D02*
X94152000Y-52509000D01*
X97140000Y-54910000D02*
X97840000Y-54910000D01*
X97840000Y-56110000D02*
X97140000Y-56110000D01*
X100150000Y-92750000D02*
X100150000Y-93750000D01*
X101850000Y-93750000D02*
X101850000Y-92750000D01*
X73490000Y-97150000D02*
X72490000Y-97150000D01*
X72490000Y-98850000D02*
X73490000Y-98850000D01*
X100850000Y-83600000D02*
X100850000Y-82900000D01*
X102050000Y-82900000D02*
X102050000Y-83600000D01*
X94150000Y-92250000D02*
X94150000Y-93250000D01*
X95850000Y-93250000D02*
X95850000Y-92250000D01*
X88150000Y-91990000D02*
X88850000Y-91990000D01*
X88850000Y-93190000D02*
X88150000Y-93190000D01*
X83975000Y-91750000D02*
X83975000Y-93750000D01*
X86025000Y-93750000D02*
X86025000Y-91750000D01*
X80975000Y-91750000D02*
X80975000Y-93750000D01*
X83025000Y-93750000D02*
X83025000Y-91750000D01*
X92817500Y-96750000D02*
X93198500Y-96750000D01*
X91801500Y-96750000D02*
X92182500Y-96750000D01*
X92182500Y-96750000D02*
X92817500Y-96369000D01*
X92817500Y-96369000D02*
X92817500Y-97131000D01*
X92817500Y-97131000D02*
X92182500Y-96750000D01*
X92182500Y-96242000D02*
X92182500Y-97258000D01*
X90500000Y-97650000D02*
X94040000Y-97650000D01*
X90500000Y-95850000D02*
X94040000Y-95850000D01*
X99600200Y-94250760D02*
X99600200Y-92249240D01*
X96399800Y-93250000D02*
X96399800Y-92249240D01*
X96399800Y-93250000D02*
X96399800Y-94250760D01*
X76000000Y-91175000D02*
X75000000Y-91175000D01*
X75000000Y-89825000D02*
X76000000Y-89825000D01*
X73060000Y-90945000D02*
X72060000Y-90945000D01*
X72060000Y-89595000D02*
X73060000Y-89595000D01*
X70675000Y-96000000D02*
X70675000Y-97000000D01*
X69325000Y-97000000D02*
X69325000Y-96000000D01*
X89000000Y-91425000D02*
X88000000Y-91425000D01*
X88000000Y-90075000D02*
X89000000Y-90075000D01*
X87000000Y-96075000D02*
X88000000Y-96075000D01*
X88000000Y-97425000D02*
X87000000Y-97425000D01*
X83500000Y-97425000D02*
X82500000Y-97425000D01*
X82500000Y-96075000D02*
X83500000Y-96075000D01*
X72875000Y-52375000D02*
X72875000Y-52600000D01*
X76125000Y-52375000D02*
X76125000Y-52600000D01*
X76125000Y-55625000D02*
X76125000Y-55400000D01*
X72875000Y-55625000D02*
X72875000Y-55400000D01*
X72875000Y-52375000D02*
X76125000Y-52375000D01*
X72875000Y-55625000D02*
X76125000Y-55625000D01*
X72875000Y-52600000D02*
X71800000Y-52600000D01*
X72875000Y-56875000D02*
X72875000Y-57100000D01*
X76125000Y-56875000D02*
X76125000Y-57100000D01*
X76125000Y-60125000D02*
X76125000Y-59900000D01*
X72875000Y-60125000D02*
X72875000Y-59900000D01*
X72875000Y-56875000D02*
X76125000Y-56875000D01*
X72875000Y-60125000D02*
X76125000Y-60125000D01*
X72875000Y-57100000D02*
X71800000Y-57100000D01*
X72875000Y-61375000D02*
X72875000Y-61600000D01*
X76125000Y-61375000D02*
X76125000Y-61600000D01*
X76125000Y-64625000D02*
X76125000Y-64400000D01*
X72875000Y-64625000D02*
X72875000Y-64400000D01*
X72875000Y-61375000D02*
X76125000Y-61375000D01*
X72875000Y-64625000D02*
X76125000Y-64625000D01*
X72875000Y-61600000D02*
X71800000Y-61600000D01*
X72875000Y-65875000D02*
X72875000Y-66100000D01*
X76125000Y-65875000D02*
X76125000Y-66100000D01*
X76125000Y-69125000D02*
X76125000Y-68900000D01*
X72875000Y-69125000D02*
X72875000Y-68900000D01*
X72875000Y-65875000D02*
X76125000Y-65875000D01*
X72875000Y-69125000D02*
X76125000Y-69125000D01*
X72875000Y-66100000D02*
X71800000Y-66100000D01*
X72875000Y-70375000D02*
X72875000Y-70600000D01*
X76125000Y-70375000D02*
X76125000Y-70600000D01*
X76125000Y-73625000D02*
X76125000Y-73400000D01*
X72875000Y-73625000D02*
X72875000Y-73400000D01*
X72875000Y-70375000D02*
X76125000Y-70375000D01*
X72875000Y-73625000D02*
X76125000Y-73625000D01*
X72875000Y-70600000D02*
X71800000Y-70600000D01*
X72875000Y-74875000D02*
X72875000Y-75100000D01*
X76125000Y-74875000D02*
X76125000Y-75100000D01*
X76125000Y-78125000D02*
X76125000Y-77900000D01*
X72875000Y-78125000D02*
X72875000Y-77900000D01*
X72875000Y-74875000D02*
X76125000Y-74875000D01*
X72875000Y-78125000D02*
X76125000Y-78125000D01*
X72875000Y-75100000D02*
X71800000Y-75100000D01*
X72875000Y-79375000D02*
X72875000Y-79600000D01*
X76125000Y-79375000D02*
X76125000Y-79600000D01*
X76125000Y-82625000D02*
X76125000Y-82400000D01*
X72875000Y-82625000D02*
X72875000Y-82400000D01*
X72875000Y-79375000D02*
X76125000Y-79375000D01*
X72875000Y-82625000D02*
X76125000Y-82625000D01*
X72875000Y-79600000D02*
X71800000Y-79600000D01*
X72875000Y-83875000D02*
X72875000Y-84100000D01*
X76125000Y-83875000D02*
X76125000Y-84100000D01*
X76125000Y-87125000D02*
X76125000Y-86900000D01*
X72875000Y-87125000D02*
X72875000Y-86900000D01*
X72875000Y-83875000D02*
X76125000Y-83875000D01*
X72875000Y-87125000D02*
X76125000Y-87125000D01*
X72875000Y-84100000D02*
X71800000Y-84100000D01*
X98002000Y-54684000D02*
G75*
G03X98002000Y-54684000I-100000J0D01*
G01*
X97352000Y-54434000D02*
X97852000Y-54434000D01*
X97352000Y-51534000D02*
X97352000Y-54434000D01*
X97852000Y-51534000D02*
X97352000Y-51534000D01*
X97852000Y-54434000D02*
X97852000Y-51534000D01*
X71900000Y-93550000D02*
G75*
G03X71900000Y-93550000I-100000J0D01*
G01*
X72050000Y-93000000D02*
X72050000Y-93500000D01*
X74950000Y-93000000D02*
X72050000Y-93000000D01*
X74950000Y-93500000D02*
X74950000Y-93000000D01*
X72050000Y-93500000D02*
X74950000Y-93500000D01*
X93800000Y-86725000D02*
X98200000Y-86725000D01*
X92225000Y-81275000D02*
X98200000Y-81275000D01*
X93600200Y-92399480D02*
X93109980Y-92399480D01*
X93600200Y-93100520D02*
X93600200Y-92399480D01*
X90399800Y-93100520D02*
X90399800Y-92399480D01*
X88325000Y-63175000D02*
X88325000Y-63432500D01*
X94675000Y-63175000D02*
X94675000Y-63432500D01*
X94675000Y-75925000D02*
X94675000Y-75667500D01*
X88325000Y-75925000D02*
X88325000Y-75667500D01*
X88325000Y-63175000D02*
X94675000Y-63175000D01*
X88325000Y-75925000D02*
X94675000Y-75925000D01*
X88325000Y-63432500D02*
X87250000Y-63432500D01*
X71750000Y-95325000D02*
X72750000Y-95325000D01*
X72750000Y-96675000D02*
X71750000Y-96675000D01*
X76860000Y-96625000D02*
X75860000Y-96625000D01*
X75860000Y-95275000D02*
X76860000Y-95275000D01*
X75650000Y-93550000D02*
G75*
G03X75650000Y-93550000I-100000J0D01*
G01*
X75800000Y-93000000D02*
X75800000Y-93500000D01*
X78700000Y-93000000D02*
X75800000Y-93000000D01*
X78700000Y-93500000D02*
X78700000Y-93000000D01*
X75800000Y-93500000D02*
X78700000Y-93500000D01*
X108810000Y-92790000D02*
X108810000Y-57230000D01*
X103730000Y-59770000D02*
X103730000Y-92790000D01*
X108810000Y-92790000D02*
X103730000Y-92790000D01*
X108810000Y-57230000D02*
X106270000Y-57230000D01*
X105000000Y-56950000D02*
X103450000Y-56950000D01*
X106270000Y-57230000D02*
X106270000Y-59770000D01*
X106270000Y-59770000D02*
X103730000Y-59770000D01*
X103450000Y-56950000D02*
X103450000Y-58500000D01*
X83000000Y-82025000D02*
X81000000Y-82025000D01*
X81000000Y-84975000D02*
X83000000Y-84975000D01*
X84200000Y-55025000D02*
X82200000Y-55025000D01*
X82200000Y-57975000D02*
X84200000Y-57975000D01*
X100650000Y-54825000D02*
X101650000Y-54825000D01*
X101650000Y-56175000D02*
X100650000Y-56175000D01*
X103325000Y-54250000D02*
X103325000Y-53250000D01*
X104675000Y-53250000D02*
X104675000Y-54250000D01*
M02*
