M48
;DRILL file {kicad (2015-01-16 BZR 5376)-product} date 23/07/2015 11:51:58
;FORMAT={-:-/ absolute / inch / decimal}
FMAT,2
INCH,TZ
T1C0.012
T2C0.040
T3C0.126
%
G90
G05
M72
T1
X2.6665Y-3.4854
X2.7264Y-2.2343
X2.7264Y-2.3524
X2.7362Y-2.1654
X2.7461Y-2.5394
X2.7461Y-2.7559
X2.7461Y-2.9331
X2.7461Y-3.0807
X2.7461Y-3.248
X2.7953Y-3.4154
X2.8665Y-3.4543
X2.9177Y-3.7539
X2.922Y-3.4126
X2.9417Y-3.5024
X2.9533Y-3.8474
X3.0012Y-3.4531
X3.0094Y-3.8213
X3.0098Y-3.8748
X3.0433Y-2.0217
X3.0531Y-2.1644
X3.0531Y-3.061
X3.061Y-2.3415
X3.063Y-2.5187
X3.063Y-2.6959
X3.063Y-2.873
X3.063Y-3.2274
X3.063Y-3.2283
X3.0642Y-3.7512
X3.0728Y-3.4075
X3.1496Y-3.0709
X3.1638Y-3.6563
X3.1693Y-2.2047
X3.1791Y-2.4016
X3.1791Y-2.8937
X3.1791Y-3.2087
X3.185Y-3.5524
X3.189Y-2.5984
X3.1988Y-2.7461
X3.2362Y-3.5453
X3.239Y-3.4142
X3.2933Y-3.2146
X3.3366Y-3.1791
X3.3406Y-3.5453
X3.3661Y-3.3366
X3.3681Y-2.2244
X3.3858Y-2.0079
X3.3957Y-2.2323
X3.4911Y-2.9055
X3.4911Y-2.9646
X3.4931Y-2.5709
X3.498Y-2.8425
X3.499Y-2.628
X3.5049Y-2.5118
X3.5118Y-2.689
X3.5128Y-2.7874
X3.563Y-3.3366
X3.6043Y-3.2697
X3.6112Y-2.5108
X3.6112Y-2.688
X3.6112Y-2.7913
X3.6132Y-2.9104
X3.6132Y-2.9921
X3.622Y-3.563
X3.622Y-3.6535
X3.6427Y-3.4281
X3.6704Y-2.0968
X3.6791Y-2.6732
X3.6791Y-2.815
X3.7096Y-2.9055
X3.7106Y-2.5709
X3.7116Y-2.689
X3.7136Y-2.9646
X3.7136Y-3.2972
X3.7146Y-3.3504
X3.7156Y-2.7874
X3.8002Y-2.5049
X3.9087Y-2.1854
X3.9302Y-2.086
X3.9596Y-3.2825
X3.9764Y-3.5709
X4.0276Y-3.6319
X4.061Y-2.0605
X4.1587Y-3.7067
X4.1732Y-2.0945
X4.248Y-2.0413
X4.2661Y-3.7063
T2
X2.4984Y-2.4016
X2.4984Y-2.5016
X2.4984Y-2.6016
X2.4984Y-2.7016
X2.4984Y-2.8016
X2.4984Y-2.9016
X2.4984Y-3.0016
X2.4984Y-3.1016
X2.4984Y-3.2016
X2.4984Y-3.3016
X2.4984Y-3.4016
X2.4984Y-3.5016
X2.5984Y-2.4016
X2.5984Y-2.5016
X2.5984Y-2.6016
X2.5984Y-2.7016
X2.5984Y-2.8016
X2.5984Y-2.9016
X2.5984Y-3.0016
X2.5984Y-3.1016
X2.5984Y-3.2016
X2.5984Y-3.3016
X2.5984Y-3.4016
X2.5984Y-3.5016
X4.1339Y-2.3031
X4.1339Y-2.4031
X4.1339Y-2.5031
X4.1339Y-2.6031
X4.1339Y-2.7031
X4.1339Y-2.8031
X4.1339Y-2.9031
X4.1339Y-3.0031
X4.1339Y-3.1031
X4.1339Y-3.2031
X4.1339Y-3.3031
X4.1339Y-3.4031
X4.1339Y-3.5031
X4.1339Y-3.6031
X4.2339Y-2.3031
X4.2339Y-2.4031
X4.2339Y-2.5031
X4.2339Y-2.6031
X4.2339Y-2.7031
X4.2339Y-2.8031
X4.2339Y-2.9031
X4.2339Y-3.0031
X4.2339Y-3.1031
X4.2339Y-3.2031
X4.2339Y-3.3031
X4.2339Y-3.4031
X4.2339Y-3.5031
X4.2339Y-3.6031
T3
X2.5197Y-2.126
X2.5197Y-3.7795
T0
M30
