G04 #@! TF.FileFunction,Copper,L1,Top,Signal*
%FSLAX46Y46*%
G04 Gerber Fmt 4.6, Leading zero omitted, Abs format (unit mm)*
G04 Created by KiCad (PCBNEW (2015-01-16 BZR 5376)-product) date 23/07/2015 11:51:53*
%MOMM*%
G01*
G04 APERTURE LIST*
%ADD10C,0.100000*%
%ADD11R,0.750000X0.800000*%
%ADD12R,0.800000X0.750000*%
%ADD13R,1.250000X1.000000*%
%ADD14R,1.000000X1.250000*%
%ADD15R,1.600000X1.000000*%
%ADD16R,0.910000X1.220000*%
%ADD17R,2.799080X1.501140*%
%ADD18R,0.500000X0.900000*%
%ADD19R,0.900000X0.500000*%
%ADD20R,1.100000X0.400000*%
%ADD21R,1.060000X0.650000*%
%ADD22R,0.650000X1.060000*%
%ADD23R,1.500000X0.450000*%
%ADD24R,0.690880X1.000760*%
%ADD25R,1.000000X0.285000*%
%ADD26C,2.999740*%
%ADD27R,1.727200X1.727200*%
%ADD28O,1.727200X1.727200*%
%ADD29R,1.000000X2.500000*%
%ADD30C,0.635000*%
%ADD31C,6.000000*%
%ADD32C,0.200000*%
%ADD33C,0.381000*%
%ADD34C,0.508000*%
%ADD35C,0.254000*%
%ADD36C,0.762000*%
%ADD37C,0.885000*%
%ADD38C,0.220000*%
G04 APERTURE END LIST*
D10*
D11*
X78750000Y-57000000D03*
X78750000Y-55500000D03*
X78750000Y-61500000D03*
X78750000Y-60000000D03*
X78750000Y-66000000D03*
X78750000Y-64500000D03*
X78750000Y-75000000D03*
X78750000Y-73500000D03*
X78750000Y-70500000D03*
X78750000Y-69000000D03*
X78750000Y-79250000D03*
X78750000Y-77750000D03*
X78750000Y-84250000D03*
X78750000Y-82750000D03*
X78750000Y-52500000D03*
X78750000Y-51000000D03*
X101092000Y-53836000D03*
X101092000Y-52336000D03*
X94752000Y-52109000D03*
X94752000Y-53609000D03*
D12*
X96740000Y-55510000D03*
X98240000Y-55510000D03*
D13*
X101000000Y-94250000D03*
X101000000Y-92250000D03*
D14*
X71990000Y-98000000D03*
X73990000Y-98000000D03*
D11*
X101450000Y-84000000D03*
X101450000Y-82500000D03*
D13*
X95000000Y-93750000D03*
X95000000Y-91750000D03*
D12*
X87750000Y-92590000D03*
X89250000Y-92590000D03*
D15*
X85000000Y-94250000D03*
X85000000Y-91250000D03*
X82000000Y-94250000D03*
X82000000Y-91250000D03*
D16*
X90865000Y-96750000D03*
X94135000Y-96750000D03*
D17*
X98000000Y-95500440D03*
X98000000Y-90999560D03*
D18*
X74750000Y-90500000D03*
X76250000Y-90500000D03*
X71810000Y-90270000D03*
X73310000Y-90270000D03*
D19*
X70000000Y-97250000D03*
X70000000Y-95750000D03*
D18*
X87750000Y-90750000D03*
X89250000Y-90750000D03*
X88250000Y-96750000D03*
X86750000Y-96750000D03*
X82250000Y-96750000D03*
X83750000Y-96750000D03*
D20*
X72350000Y-53025000D03*
X72350000Y-53675000D03*
X72350000Y-54325000D03*
X72350000Y-54975000D03*
X76650000Y-54975000D03*
X76650000Y-54325000D03*
X76650000Y-53675000D03*
X76650000Y-53025000D03*
X72350000Y-57525000D03*
X72350000Y-58175000D03*
X72350000Y-58825000D03*
X72350000Y-59475000D03*
X76650000Y-59475000D03*
X76650000Y-58825000D03*
X76650000Y-58175000D03*
X76650000Y-57525000D03*
X72350000Y-62025000D03*
X72350000Y-62675000D03*
X72350000Y-63325000D03*
X72350000Y-63975000D03*
X76650000Y-63975000D03*
X76650000Y-63325000D03*
X76650000Y-62675000D03*
X76650000Y-62025000D03*
X72350000Y-66525000D03*
X72350000Y-67175000D03*
X72350000Y-67825000D03*
X72350000Y-68475000D03*
X76650000Y-68475000D03*
X76650000Y-67825000D03*
X76650000Y-67175000D03*
X76650000Y-66525000D03*
X72350000Y-71025000D03*
X72350000Y-71675000D03*
X72350000Y-72325000D03*
X72350000Y-72975000D03*
X76650000Y-72975000D03*
X76650000Y-72325000D03*
X76650000Y-71675000D03*
X76650000Y-71025000D03*
X72350000Y-75525000D03*
X72350000Y-76175000D03*
X72350000Y-76825000D03*
X72350000Y-77475000D03*
X76650000Y-77475000D03*
X76650000Y-76825000D03*
X76650000Y-76175000D03*
X76650000Y-75525000D03*
X72350000Y-80025000D03*
X72350000Y-80675000D03*
X72350000Y-81325000D03*
X72350000Y-81975000D03*
X76650000Y-81975000D03*
X76650000Y-81325000D03*
X76650000Y-80675000D03*
X76650000Y-80025000D03*
X72350000Y-84525000D03*
X72350000Y-85175000D03*
X72350000Y-85825000D03*
X72350000Y-86475000D03*
X76650000Y-86475000D03*
X76650000Y-85825000D03*
X76650000Y-85175000D03*
X76650000Y-84525000D03*
D21*
X98702000Y-53934000D03*
X98702000Y-52984000D03*
X98702000Y-52034000D03*
X96502000Y-52034000D03*
X96502000Y-53934000D03*
D22*
X72550000Y-94350000D03*
X73500000Y-94350000D03*
X74450000Y-94350000D03*
X74450000Y-92150000D03*
X72550000Y-92150000D03*
D23*
X93050000Y-81725000D03*
X93050000Y-82375000D03*
X93050000Y-83025000D03*
X93050000Y-83675000D03*
X93050000Y-84325000D03*
X93050000Y-84975000D03*
X93050000Y-85625000D03*
X93050000Y-86275000D03*
X98950000Y-86275000D03*
X98950000Y-85625000D03*
X98950000Y-84975000D03*
X98950000Y-84325000D03*
X98950000Y-83675000D03*
X98950000Y-83025000D03*
X98950000Y-82375000D03*
X98950000Y-81725000D03*
D24*
X92949960Y-91449520D03*
X92000000Y-91449520D03*
X91050040Y-91449520D03*
X91050040Y-94050480D03*
X92000000Y-94050480D03*
X92949960Y-94050480D03*
D25*
X87750000Y-63800000D03*
X87750000Y-64300000D03*
X87750000Y-64800000D03*
X87750000Y-65300000D03*
X87750000Y-65800000D03*
X87750000Y-66300000D03*
X87750000Y-66800000D03*
X87750000Y-67300000D03*
X87750000Y-67800000D03*
X87750000Y-68300000D03*
X87750000Y-68800000D03*
X87750000Y-69300000D03*
X87750000Y-69800000D03*
X87750000Y-70300000D03*
X87750000Y-70800000D03*
X87750000Y-71300000D03*
X87750000Y-71800000D03*
X87750000Y-72300000D03*
X87750000Y-72800000D03*
X87750000Y-73300000D03*
X87750000Y-73800000D03*
X87750000Y-74300000D03*
X87750000Y-74800000D03*
X87750000Y-75300000D03*
X95250000Y-75300000D03*
X95250000Y-74800000D03*
X95250000Y-74300000D03*
X95250000Y-73800000D03*
X95250000Y-73300000D03*
X95250000Y-72800000D03*
X95250000Y-72300000D03*
X95250000Y-71800000D03*
X95250000Y-71300000D03*
X95250000Y-70800000D03*
X95250000Y-70300000D03*
X95250000Y-69800000D03*
X95250000Y-69300000D03*
X95250000Y-68800000D03*
X95250000Y-68300000D03*
X95250000Y-67800000D03*
X95250000Y-67300000D03*
X95250000Y-66800000D03*
X95250000Y-66300000D03*
X95250000Y-65800000D03*
X95250000Y-65300000D03*
X95250000Y-64800000D03*
X95250000Y-64300000D03*
X95250000Y-63800000D03*
D26*
X93927000Y-56009000D03*
X80190000Y-96960000D03*
D18*
X73000000Y-96000000D03*
X71500000Y-96000000D03*
X75610000Y-95950000D03*
X77110000Y-95950000D03*
D22*
X76300000Y-94350000D03*
X77250000Y-94350000D03*
X78200000Y-94350000D03*
X78200000Y-92150000D03*
X76300000Y-92150000D03*
D27*
X66000000Y-61000000D03*
D28*
X63460000Y-61000000D03*
X66000000Y-63540000D03*
X63460000Y-63540000D03*
X66000000Y-66080000D03*
X63460000Y-66080000D03*
X66000000Y-68620000D03*
X63460000Y-68620000D03*
X66000000Y-71160000D03*
X63460000Y-71160000D03*
X66000000Y-73700000D03*
X63460000Y-73700000D03*
X66000000Y-76240000D03*
X63460000Y-76240000D03*
X66000000Y-78780000D03*
X63460000Y-78780000D03*
X66000000Y-81320000D03*
X63460000Y-81320000D03*
X66000000Y-83860000D03*
X63460000Y-83860000D03*
X66000000Y-86400000D03*
X63460000Y-86400000D03*
X66000000Y-88940000D03*
X63460000Y-88940000D03*
D27*
X105000000Y-58500000D03*
D28*
X107540000Y-58500000D03*
X105000000Y-61040000D03*
X107540000Y-61040000D03*
X105000000Y-63580000D03*
X107540000Y-63580000D03*
X105000000Y-66120000D03*
X107540000Y-66120000D03*
X105000000Y-68660000D03*
X107540000Y-68660000D03*
X105000000Y-71200000D03*
X107540000Y-71200000D03*
X105000000Y-73740000D03*
X107540000Y-73740000D03*
X105000000Y-76280000D03*
X107540000Y-76280000D03*
X105000000Y-78820000D03*
X107540000Y-78820000D03*
X105000000Y-81360000D03*
X107540000Y-81360000D03*
X105000000Y-83900000D03*
X107540000Y-83900000D03*
X105000000Y-86440000D03*
X107540000Y-86440000D03*
X105000000Y-88980000D03*
X107540000Y-88980000D03*
X105000000Y-91520000D03*
X107540000Y-91520000D03*
D29*
X80500000Y-83500000D03*
X83500000Y-83500000D03*
X81700000Y-56500000D03*
X84700000Y-56500000D03*
D18*
X101900000Y-55500000D03*
X100400000Y-55500000D03*
D19*
X104000000Y-53000000D03*
X104000000Y-54500000D03*
D30*
X94325000Y-83750000D03*
X84750000Y-80750000D03*
X85500000Y-84750000D03*
X83650000Y-81650000D03*
X85550000Y-56500000D03*
X107900000Y-51850000D03*
X106000000Y-53200000D03*
X103150000Y-52336000D03*
X86250000Y-56700000D03*
X71000000Y-86750000D03*
X69750000Y-82500000D03*
X69750000Y-78250000D03*
X69750000Y-74500000D03*
X69750000Y-70000000D03*
X69750000Y-64500000D03*
X69250000Y-59750000D03*
X69500000Y-55000000D03*
D31*
X64000000Y-54000000D03*
D30*
X69250000Y-56750000D03*
X90500000Y-84750000D03*
X88675000Y-75300000D03*
X99280000Y-55510000D03*
X77800000Y-82000000D03*
X77800000Y-81975000D03*
X77550000Y-77750000D03*
X77800000Y-72975000D03*
X77800000Y-68475000D03*
X77800000Y-63975000D03*
X77750000Y-59475000D03*
X77550000Y-54975000D03*
X78050000Y-86550000D03*
X82200000Y-90050000D03*
X84850000Y-90050000D03*
X92000000Y-92800000D03*
X92000000Y-90500000D03*
X101000000Y-90700000D03*
X102300000Y-92250000D03*
X94350000Y-85100000D03*
X100575000Y-83375000D03*
X94225000Y-73800000D03*
X94325000Y-75300000D03*
X88675000Y-73800000D03*
X89225000Y-70800000D03*
X89200000Y-68300000D03*
X88725000Y-65300000D03*
X91725000Y-63775000D03*
X89025000Y-63800000D03*
X91775000Y-73925000D03*
X91725000Y-68275000D03*
X91725000Y-70900000D03*
X91775000Y-76000000D03*
X94275000Y-68300000D03*
X94375000Y-70800000D03*
X94250000Y-65300000D03*
X96525000Y-63625000D03*
X99827000Y-52984000D03*
X80750000Y-81500000D03*
X80000000Y-78000000D03*
X80750000Y-73500000D03*
X81250000Y-69750000D03*
X81000000Y-66000000D03*
X80750000Y-61000000D03*
X80500000Y-56000000D03*
X93227000Y-53259000D03*
X86000000Y-51000000D03*
X77300000Y-51350000D03*
X80360000Y-92870000D03*
X77830000Y-95280000D03*
X75015000Y-97725000D03*
X74110000Y-95350000D03*
D31*
X64000000Y-96000000D03*
D30*
X88875000Y-66750000D03*
X88850000Y-72200000D03*
X93450000Y-71500000D03*
X93450000Y-67900000D03*
X67730000Y-88530000D03*
X72810000Y-87740000D03*
X74720000Y-88960000D03*
X91550000Y-83050000D03*
X92525000Y-87075000D03*
X82270000Y-86720000D03*
X80900000Y-90230000D03*
X76230000Y-87710000D03*
X74220000Y-86680000D03*
X76440000Y-97060000D03*
X76450000Y-98420000D03*
X105630000Y-94150000D03*
X108360000Y-94140000D03*
D32*
X96740000Y-55510000D02*
X96740000Y-56340000D01*
X99100000Y-56750000D02*
X100350000Y-55500000D01*
X97150000Y-56750000D02*
X99100000Y-56750000D01*
X96740000Y-56340000D02*
X97150000Y-56750000D01*
X100350000Y-55500000D02*
X100400000Y-55500000D01*
D33*
X76650000Y-57525000D02*
X75125000Y-57525000D01*
X75125000Y-57525000D02*
X75050000Y-57450000D01*
D34*
X81700000Y-56500000D02*
X81250000Y-56500000D01*
X81250000Y-56500000D02*
X80750000Y-57000000D01*
X80750000Y-57000000D02*
X78750000Y-57000000D01*
X75050000Y-56550000D02*
X78300000Y-56550000D01*
X78300000Y-56550000D02*
X78750000Y-57000000D01*
D33*
X76650000Y-84525000D02*
X78475000Y-84525000D01*
X78475000Y-84525000D02*
X78750000Y-84250000D01*
D34*
X78750000Y-84250000D02*
X79750000Y-84250000D01*
X79750000Y-84250000D02*
X80500000Y-83500000D01*
X75050000Y-83350000D02*
X77200000Y-83350000D01*
X78100000Y-84250000D02*
X78750000Y-84250000D01*
X77200000Y-83350000D02*
X78100000Y-84250000D01*
D33*
X96740000Y-55510000D02*
X94426000Y-55510000D01*
X94426000Y-55510000D02*
X93927000Y-56009000D01*
X96502000Y-53934000D02*
X96502000Y-55272000D01*
X96502000Y-55272000D02*
X96740000Y-55510000D01*
D35*
X94426000Y-55510000D02*
X93927000Y-56009000D01*
X96740000Y-54172000D02*
X96502000Y-53934000D01*
D34*
X79740000Y-52500000D02*
X90418000Y-52500000D01*
X90418000Y-52500000D02*
X93927000Y-56009000D01*
X75050000Y-79850000D02*
X75050000Y-83350000D01*
X75050000Y-83350000D02*
X75050000Y-84200000D01*
X75050000Y-84200000D02*
X75050000Y-87080000D01*
D33*
X75050000Y-87080000D02*
X74435000Y-87695000D01*
D32*
X74950000Y-88060000D02*
X74800000Y-88060000D01*
X74800000Y-88060000D02*
X74435000Y-87695000D01*
X75730000Y-88719998D02*
X75609998Y-88719998D01*
X75609998Y-88719998D02*
X74950000Y-88060000D01*
X93050000Y-83675000D02*
X89225000Y-83675000D01*
X84180002Y-88719998D02*
X75730000Y-88719998D01*
X75730000Y-88719998D02*
X75659998Y-88719998D01*
X89225000Y-83675000D02*
X84180002Y-88719998D01*
D33*
X72580000Y-88580000D02*
X73550000Y-88580000D01*
X70030000Y-88580000D02*
X72580000Y-88580000D01*
X69940000Y-88580000D02*
X70030000Y-88580000D01*
X74535000Y-87595000D02*
X74435000Y-87695000D01*
X73550000Y-88580000D02*
X74535000Y-87595000D01*
X76650000Y-80025000D02*
X75225000Y-80025000D01*
X75225000Y-80025000D02*
X75050000Y-79850000D01*
X76650000Y-80025000D02*
X77975000Y-80025000D01*
X77975000Y-80025000D02*
X78750000Y-79250000D01*
X76650000Y-75525000D02*
X78225000Y-75525000D01*
X78225000Y-75525000D02*
X78750000Y-75000000D01*
X76650000Y-75525000D02*
X75050000Y-75525000D01*
X75000000Y-75550000D02*
X75050000Y-75550000D01*
X75025000Y-75550000D02*
X75000000Y-75550000D01*
X75050000Y-75525000D02*
X75025000Y-75550000D01*
X76650000Y-71025000D02*
X78225000Y-71025000D01*
X78225000Y-71025000D02*
X78750000Y-70500000D01*
X75050000Y-71050000D02*
X76625000Y-71050000D01*
X76625000Y-71050000D02*
X76650000Y-71025000D01*
X76650000Y-66525000D02*
X78225000Y-66525000D01*
X78225000Y-66525000D02*
X78750000Y-66000000D01*
X76650000Y-66525000D02*
X75050000Y-66525000D01*
X75200000Y-66550000D02*
X75050000Y-66550000D01*
X75075000Y-66550000D02*
X75200000Y-66550000D01*
X75050000Y-66525000D02*
X75075000Y-66550000D01*
X76650000Y-62025000D02*
X78225000Y-62025000D01*
X78225000Y-62025000D02*
X78750000Y-61500000D01*
X75050000Y-61900000D02*
X76525000Y-61900000D01*
X76525000Y-61900000D02*
X76650000Y-62025000D01*
X76650000Y-53025000D02*
X78225000Y-53025000D01*
X78225000Y-53025000D02*
X78750000Y-52500000D01*
D34*
X75050000Y-53200000D02*
X75050000Y-56550000D01*
X75050000Y-56550000D02*
X75050000Y-57450000D01*
X75050000Y-57450000D02*
X75050000Y-61900000D01*
X75050000Y-61900000D02*
X75050000Y-66550000D01*
X75050000Y-66550000D02*
X75050000Y-71050000D01*
X75050000Y-71050000D02*
X75050000Y-75550000D01*
X75050000Y-75550000D02*
X75050000Y-79850000D01*
D33*
X75225000Y-53025000D02*
X75050000Y-53200000D01*
X76650000Y-53025000D02*
X75225000Y-53025000D01*
D32*
X94250000Y-83675000D02*
X94325000Y-83750000D01*
X93050000Y-83675000D02*
X94250000Y-83675000D01*
D33*
X79975000Y-52500000D02*
X80000000Y-52500000D01*
X78750000Y-52500000D02*
X79740000Y-52500000D01*
X79740000Y-52500000D02*
X79975000Y-52500000D01*
X94802000Y-56009000D02*
X93927000Y-56009000D01*
X69110000Y-87660000D02*
X70030000Y-88580000D01*
X64210000Y-87660000D02*
X69110000Y-87660000D01*
X63460000Y-86910000D02*
X64210000Y-87660000D01*
X63460000Y-86400000D02*
X63460000Y-86910000D01*
X72580000Y-88990000D02*
X72550000Y-89020000D01*
X72550000Y-89020000D02*
X72550000Y-92150000D01*
X72580000Y-88580000D02*
X72580000Y-88990000D01*
X74900000Y-93190000D02*
X75940000Y-92150000D01*
X75940000Y-92150000D02*
X76300000Y-92150000D01*
X72550000Y-92150000D02*
X72550000Y-92690000D01*
X72550000Y-92690000D02*
X73050000Y-93190000D01*
X73050000Y-93190000D02*
X74900000Y-93190000D01*
D32*
X83650000Y-81600000D02*
X83650000Y-81650000D01*
X83500000Y-81800000D02*
X83650000Y-81650000D01*
X83650000Y-81650000D02*
X83650000Y-81600000D01*
X83500000Y-83500000D02*
X83500000Y-81800000D01*
X105800000Y-53000000D02*
X104000000Y-53000000D01*
X105800000Y-53000000D02*
X106000000Y-53200000D01*
X101092000Y-52336000D02*
X103150000Y-52336000D01*
X103150000Y-52336000D02*
X103336000Y-52336000D01*
X103336000Y-52336000D02*
X104000000Y-53000000D01*
D33*
X86250000Y-56700000D02*
X86050000Y-56500000D01*
X86050000Y-56500000D02*
X85550000Y-56500000D01*
X85550000Y-56500000D02*
X84700000Y-56500000D01*
D32*
X66675000Y-51325000D02*
X77325000Y-51325000D01*
X64000000Y-54000000D02*
X66675000Y-51325000D01*
X90500000Y-84750000D02*
X90725000Y-84975000D01*
X90725000Y-84975000D02*
X93050000Y-84975000D01*
D33*
X98240000Y-55510000D02*
X99280000Y-55510000D01*
X99280000Y-55510000D02*
X99300000Y-55530000D01*
X98702000Y-52984000D02*
X97996000Y-52984000D01*
X97700000Y-54780000D02*
X97700000Y-53280000D01*
X97700000Y-54780000D02*
X98240000Y-55320000D01*
X97996000Y-52984000D02*
X97700000Y-53280000D01*
X98240000Y-55510000D02*
X98240000Y-55320000D01*
D32*
X77975000Y-81975000D02*
X78750000Y-82750000D01*
X77800000Y-81975000D02*
X77975000Y-81975000D01*
X76650000Y-81975000D02*
X77800000Y-81975000D01*
X76925000Y-77750000D02*
X76650000Y-77475000D01*
X77550000Y-77750000D02*
X76925000Y-77750000D01*
X78750000Y-77750000D02*
X77550000Y-77750000D01*
X78225000Y-72975000D02*
X78750000Y-73500000D01*
X77800000Y-72975000D02*
X78225000Y-72975000D01*
X76650000Y-72975000D02*
X77800000Y-72975000D01*
X78225000Y-68475000D02*
X78750000Y-69000000D01*
X77800000Y-68475000D02*
X78225000Y-68475000D01*
X76650000Y-68475000D02*
X77800000Y-68475000D01*
X78400000Y-64500000D02*
X78750000Y-64500000D01*
X78100000Y-64200000D02*
X78400000Y-64500000D01*
X77875000Y-63975000D02*
X78100000Y-64200000D01*
X77800000Y-63975000D02*
X77875000Y-63975000D01*
X76650000Y-63975000D02*
X77800000Y-63975000D01*
X78225000Y-59475000D02*
X78750000Y-60000000D01*
X77750000Y-59475000D02*
X78225000Y-59475000D01*
X76650000Y-59475000D02*
X77750000Y-59475000D01*
X78225000Y-54975000D02*
X78750000Y-55500000D01*
X77550000Y-54975000D02*
X78225000Y-54975000D01*
X76650000Y-54975000D02*
X77550000Y-54975000D01*
X77650000Y-51000000D02*
X78750000Y-51000000D01*
X77325000Y-51325000D02*
X77650000Y-51000000D01*
X76650000Y-86475000D02*
X77975000Y-86475000D01*
X77975000Y-86475000D02*
X78050000Y-86550000D01*
X77975000Y-86475000D02*
X78050000Y-86550000D01*
X82000000Y-90250000D02*
X82000000Y-91250000D01*
X82200000Y-90050000D02*
X82000000Y-90250000D01*
X85000000Y-90200000D02*
X85000000Y-91250000D01*
X84850000Y-90050000D02*
X85000000Y-90200000D01*
X92000000Y-90500000D02*
X92000000Y-91449520D01*
X92000000Y-91449520D02*
X92000000Y-92800000D01*
X101000000Y-92250000D02*
X101000000Y-90700000D01*
X102300000Y-92250000D02*
X102350000Y-92200000D01*
X101000000Y-92250000D02*
X102300000Y-92250000D01*
X93050000Y-84975000D02*
X94225000Y-84975000D01*
X94225000Y-84975000D02*
X94350000Y-85100000D01*
X97650000Y-82000000D02*
X97925000Y-81725000D01*
X97925000Y-81725000D02*
X98950000Y-81725000D01*
X98950000Y-83675000D02*
X97775000Y-83675000D01*
X97650000Y-82450000D02*
X97650000Y-82050000D01*
X97650000Y-83000000D02*
X97650000Y-82450000D01*
X97650000Y-83550000D02*
X97650000Y-83000000D01*
X97775000Y-83675000D02*
X97650000Y-83550000D01*
X97650000Y-82050000D02*
X97650000Y-82000000D01*
X97650000Y-82375000D02*
X97575000Y-82450000D01*
X97575000Y-82450000D02*
X97550000Y-82450000D01*
X97550000Y-82450000D02*
X97650000Y-82450000D01*
X98950000Y-82375000D02*
X97650000Y-82375000D01*
X97675000Y-83025000D02*
X97650000Y-83000000D01*
X98950000Y-83025000D02*
X97675000Y-83025000D01*
X100575000Y-83375000D02*
X101450000Y-82500000D01*
X100275000Y-83675000D02*
X100575000Y-83375000D01*
X98950000Y-83675000D02*
X100275000Y-83675000D01*
X94225000Y-73800000D02*
X94200000Y-73825000D01*
X95250000Y-73800000D02*
X94225000Y-73800000D01*
X94325000Y-75300000D02*
X94300000Y-75325000D01*
X95250000Y-75300000D02*
X94325000Y-75300000D01*
X87750000Y-73800000D02*
X88675000Y-73800000D01*
X88675000Y-75300000D02*
X88700000Y-75325000D01*
X87750000Y-75300000D02*
X88675000Y-75300000D01*
D35*
X87750000Y-70800000D02*
X89225000Y-70800000D01*
X89200000Y-68300000D02*
X89225000Y-68275000D01*
X87750000Y-68300000D02*
X89200000Y-68300000D01*
X88725000Y-65300000D02*
X88775000Y-65350000D01*
X87750000Y-65300000D02*
X88725000Y-65300000D01*
X89025000Y-63800000D02*
X89050000Y-63825000D01*
X87750000Y-63800000D02*
X89025000Y-63800000D01*
X91725000Y-68275000D02*
X91700000Y-68300000D01*
X91725000Y-63775000D02*
X91725000Y-66300000D01*
X91725000Y-66300000D02*
X91725000Y-68275000D01*
X91725000Y-70900000D02*
X91775000Y-70950000D01*
X91775000Y-70950000D02*
X91775000Y-73925000D01*
X95250000Y-68300000D02*
X94275000Y-68300000D01*
X94375000Y-70800000D02*
X94350000Y-70825000D01*
X95250000Y-70800000D02*
X94375000Y-70800000D01*
X94250000Y-65300000D02*
X94225000Y-65325000D01*
X95250000Y-65300000D02*
X94250000Y-65300000D01*
X96350000Y-63800000D02*
X95250000Y-63800000D01*
X96525000Y-63625000D02*
X96350000Y-63800000D01*
X100027000Y-52984000D02*
X100677000Y-52334000D01*
X99827000Y-52984000D02*
X100027000Y-52984000D01*
X98702000Y-52984000D02*
X99827000Y-52984000D01*
X93227000Y-53259000D02*
X93577000Y-53609000D01*
X94752000Y-53609000D02*
X93577000Y-53609000D01*
D32*
X77300000Y-51350000D02*
X77325000Y-51325000D01*
X82000000Y-91250000D02*
X81980000Y-91250000D01*
X81980000Y-91250000D02*
X80360000Y-92870000D01*
X77250000Y-94350000D02*
X78200000Y-94350000D01*
X78200000Y-94910000D02*
X78200000Y-94350000D01*
X77830000Y-95280000D02*
X78200000Y-94910000D01*
X75015000Y-97725000D02*
X75140000Y-97600000D01*
X74740000Y-98000000D02*
X75015000Y-97725000D01*
X73990000Y-98000000D02*
X74740000Y-98000000D01*
X74450000Y-95010000D02*
X74450000Y-94350000D01*
X74110000Y-95350000D02*
X74450000Y-95010000D01*
D33*
X98702000Y-53934000D02*
X100994000Y-53934000D01*
X100994000Y-53934000D02*
X101092000Y-53836000D01*
X101092000Y-53836000D02*
X101092000Y-56508000D01*
D34*
X97600000Y-60000000D02*
X101092000Y-56508000D01*
X97600000Y-60000000D02*
X92740000Y-60000000D01*
D33*
X98800000Y-53836000D02*
X98702000Y-53934000D01*
X92775000Y-60000000D02*
X92740000Y-60000000D01*
X92740000Y-60000000D02*
X92625000Y-60000000D01*
D35*
X88825000Y-66800000D02*
X88875000Y-66750000D01*
X87750000Y-66800000D02*
X88825000Y-66800000D01*
X88750000Y-72300000D02*
X88850000Y-72200000D01*
X87750000Y-72300000D02*
X88750000Y-72300000D01*
D33*
X90275000Y-62075000D02*
X90275000Y-67025000D01*
X92775000Y-60000000D02*
X92350000Y-60000000D01*
X92350000Y-60000000D02*
X90275000Y-62075000D01*
X90275000Y-67025000D02*
X90275000Y-70775000D01*
X88975000Y-72075000D02*
X88850000Y-72200000D01*
X89725000Y-72075000D02*
X88975000Y-72075000D01*
X90275000Y-71525000D02*
X89725000Y-72075000D01*
X90275000Y-70775000D02*
X90275000Y-71525000D01*
X90000000Y-66750000D02*
X90275000Y-67025000D01*
X88875000Y-66750000D02*
X90000000Y-66750000D01*
D34*
X103080000Y-61040000D02*
X101092000Y-59052000D01*
X101092000Y-59052000D02*
X101092000Y-56508000D01*
X105000000Y-61040000D02*
X103080000Y-61040000D01*
D35*
X96427000Y-52109000D02*
X96502000Y-52034000D01*
X94752000Y-52109000D02*
X96427000Y-52109000D01*
D33*
X93200000Y-92750000D02*
X93250000Y-92700000D01*
D34*
X99000000Y-92750000D02*
X93200000Y-92750000D01*
X100500000Y-94250000D02*
X99000000Y-92750000D01*
D33*
X92949960Y-93000040D02*
X93200000Y-92750000D01*
D34*
X96340000Y-83310000D02*
X96340000Y-87940000D01*
X96340000Y-87940000D02*
X97630000Y-89230000D01*
X97630000Y-89230000D02*
X97660000Y-89260000D01*
X96340000Y-81060000D02*
X96340000Y-80190000D01*
X93340000Y-71500000D02*
X93290000Y-71550000D01*
X93290000Y-71550000D02*
X93290000Y-74210000D01*
X93450000Y-71500000D02*
X93340000Y-71500000D01*
X97000000Y-83970000D02*
X96340000Y-83310000D01*
X96340000Y-83310000D02*
X96340000Y-81060000D01*
D35*
X97025000Y-84025000D02*
X97000000Y-84000000D01*
X97325000Y-84325000D02*
X97025000Y-84025000D01*
X97325000Y-84325000D02*
X98950000Y-84325000D01*
D34*
X97000000Y-84000000D02*
X97000000Y-83970000D01*
X93290000Y-77140000D02*
X93290000Y-74210000D01*
X96340000Y-80190000D02*
X93290000Y-77140000D01*
X93450000Y-67900000D02*
X93450000Y-71500000D01*
X93130000Y-63160000D02*
X93130000Y-67580000D01*
X93130000Y-67580000D02*
X93450000Y-67900000D01*
X103320000Y-62280000D02*
X94010000Y-62280000D01*
X93070000Y-67520000D02*
X93450000Y-67900000D01*
X94010000Y-62280000D02*
X93130000Y-63160000D01*
X93130000Y-63160000D02*
X93070000Y-63220000D01*
D33*
X103320000Y-62280000D02*
X103300000Y-62280000D01*
X103300000Y-62280000D02*
X103290000Y-62290000D01*
D32*
X101125000Y-84325000D02*
X101450000Y-84000000D01*
X98950000Y-84325000D02*
X101125000Y-84325000D01*
X95250000Y-72300000D02*
X94250000Y-72300000D01*
X94250000Y-72300000D02*
X93450000Y-71500000D01*
D35*
X94550000Y-66800000D02*
X93450000Y-67900000D01*
X95250000Y-66800000D02*
X94550000Y-66800000D01*
D36*
X101075000Y-94175000D02*
X101000000Y-94250000D01*
X99749560Y-95500440D02*
X101000000Y-94250000D01*
X98000000Y-95500440D02*
X99749560Y-95500440D01*
D33*
X101000000Y-94250000D02*
X101000000Y-94150000D01*
X92949960Y-94050480D02*
X92949960Y-93000040D01*
D34*
X101000000Y-94250000D02*
X100500000Y-94250000D01*
D33*
X107540000Y-61040000D02*
X107540000Y-58500000D01*
X106270000Y-62310000D02*
X107540000Y-61040000D01*
X103300000Y-62280000D02*
X104490000Y-62280000D01*
X104520000Y-62310000D02*
X105050000Y-62310000D01*
X104490000Y-62280000D02*
X104520000Y-62310000D01*
X105050000Y-62310000D02*
X106270000Y-62310000D01*
D34*
X102470000Y-94250000D02*
X103450000Y-93270000D01*
X103450000Y-93270000D02*
X103450000Y-92090000D01*
X103450000Y-92090000D02*
X100590000Y-89230000D01*
X100590000Y-89230000D02*
X97630000Y-89230000D01*
X101000000Y-94250000D02*
X102470000Y-94250000D01*
D32*
X71500000Y-97510000D02*
X71990000Y-98000000D01*
X71500000Y-96000000D02*
X71500000Y-97510000D01*
X70750000Y-98000000D02*
X70000000Y-97250000D01*
X71990000Y-98000000D02*
X70750000Y-98000000D01*
X70000000Y-97250000D02*
X69100000Y-97250000D01*
X68990000Y-89790000D02*
X67730000Y-88530000D01*
X68990000Y-97140000D02*
X68990000Y-89790000D01*
X69100000Y-97250000D02*
X68990000Y-97140000D01*
D33*
X95675000Y-94175000D02*
X95600000Y-94250000D01*
D37*
X95000000Y-95885000D02*
X94135000Y-96750000D01*
X95000000Y-95900000D02*
X95000000Y-95885000D01*
X95000000Y-93750000D02*
X95000000Y-95900000D01*
X93850000Y-95550000D02*
X94200000Y-95900000D01*
X94200000Y-95900000D02*
X94985000Y-95900000D01*
X94985000Y-95900000D02*
X95000000Y-95900000D01*
D34*
X92000000Y-95000000D02*
X92000000Y-95050000D01*
X92000000Y-94050480D02*
X92000000Y-95000000D01*
X92000000Y-95050000D02*
X92500000Y-95550000D01*
D37*
X92500000Y-95550000D02*
X93850000Y-95550000D01*
X95350440Y-90999560D02*
X98000000Y-90999560D01*
X95000000Y-91350000D02*
X95350440Y-90999560D01*
X95000000Y-91750000D02*
X95000000Y-91350000D01*
D33*
X94699520Y-91449520D02*
X95000000Y-91750000D01*
X92949960Y-91449520D02*
X94699520Y-91449520D01*
D34*
X85500000Y-94250000D02*
X85000000Y-94250000D01*
D37*
X85000000Y-94250000D02*
X86250000Y-94250000D01*
X86250000Y-96250000D02*
X86750000Y-96750000D01*
X86250000Y-95900000D02*
X86250000Y-96250000D01*
X86250000Y-94300000D02*
X86250000Y-95900000D01*
X86250000Y-94250000D02*
X86250000Y-94300000D01*
X85400000Y-96750000D02*
X86250000Y-95900000D01*
X83750000Y-96750000D02*
X85400000Y-96750000D01*
D35*
X87750000Y-90750000D02*
X87750000Y-91070000D01*
X86590000Y-94250000D02*
X87750000Y-93090000D01*
X87750000Y-93090000D02*
X87750000Y-92590000D01*
X85000000Y-94250000D02*
X86590000Y-94250000D01*
X87750000Y-92590000D02*
X87750000Y-90750000D01*
D33*
X89949520Y-91449520D02*
X89250000Y-90750000D01*
X91050040Y-91449520D02*
X89949520Y-91449520D01*
D35*
X89250000Y-92590000D02*
X89250000Y-90750000D01*
D34*
X82250000Y-94500000D02*
X82000000Y-94250000D01*
X82250000Y-96750000D02*
X82250000Y-94500000D01*
D32*
X79290000Y-97210000D02*
X79750000Y-96750000D01*
D35*
X79750000Y-97720000D02*
X79620000Y-97720000D01*
D32*
X75935000Y-97685000D02*
X75160000Y-96910000D01*
X75970000Y-97720000D02*
X75935000Y-97685000D01*
X75160000Y-96910000D02*
X73090000Y-96910000D01*
D35*
X72350000Y-96530000D02*
X72350000Y-96780000D01*
D32*
X72350000Y-95350000D02*
X72350000Y-96530000D01*
X73500000Y-94960000D02*
X73230000Y-95230000D01*
X73230000Y-95230000D02*
X72470000Y-95230000D01*
X72470000Y-95230000D02*
X72350000Y-95350000D01*
X73500000Y-94960000D02*
X73500000Y-94350000D01*
D35*
X72480000Y-96910000D02*
X73060000Y-96910000D01*
X73060000Y-96910000D02*
X73090000Y-96910000D01*
X72350000Y-96780000D02*
X72480000Y-96910000D01*
D32*
X79465000Y-97685000D02*
X80190000Y-96960000D01*
X75935000Y-97685000D02*
X79465000Y-97685000D01*
X80190000Y-96960000D02*
X82440000Y-96960000D01*
D37*
X88250000Y-96750000D02*
X90865000Y-96750000D01*
D32*
X70750000Y-87740000D02*
X72810000Y-87740000D01*
X87955000Y-85625000D02*
X93050000Y-85625000D01*
X84460000Y-89120000D02*
X87955000Y-85625000D01*
X74880000Y-89120000D02*
X84460000Y-89120000D01*
X74720000Y-88960000D02*
X74880000Y-89120000D01*
X70190000Y-87740000D02*
X70750000Y-87740000D01*
X66310000Y-83860000D02*
X70190000Y-87740000D01*
X66000000Y-83860000D02*
X66310000Y-83860000D01*
X72075000Y-84525000D02*
X72350000Y-84525000D01*
X70665000Y-84525000D02*
X67690000Y-81550000D01*
X67690000Y-81550000D02*
X67690000Y-81160000D01*
X67690000Y-81160000D02*
X66590000Y-80060000D01*
X66590000Y-80060000D02*
X63540000Y-80060000D01*
X63540000Y-80060000D02*
X63460000Y-80140000D01*
X63460000Y-80140000D02*
X63460000Y-81320000D01*
X72350000Y-84525000D02*
X70665000Y-84525000D01*
X70375000Y-85825000D02*
X72350000Y-85825000D01*
X66000000Y-81450000D02*
X70375000Y-85825000D01*
X66000000Y-81320000D02*
X66000000Y-81450000D01*
X69985000Y-80025000D02*
X72350000Y-80025000D01*
X67480000Y-77520000D02*
X69985000Y-80025000D01*
X64390000Y-77520000D02*
X67480000Y-77520000D01*
X63460000Y-78450000D02*
X64390000Y-77520000D01*
X63460000Y-78780000D02*
X63460000Y-78450000D01*
X67580000Y-78780000D02*
X70125000Y-81325000D01*
X70125000Y-81325000D02*
X72350000Y-81325000D01*
X66000000Y-78780000D02*
X67580000Y-78780000D01*
X69855000Y-75525000D02*
X72350000Y-75525000D01*
X69290000Y-74960000D02*
X69855000Y-75525000D01*
X64320000Y-74960000D02*
X69290000Y-74960000D01*
X63460000Y-75820000D02*
X64320000Y-74960000D01*
X63460000Y-76240000D02*
X63460000Y-75820000D01*
X69610000Y-76240000D02*
X70195000Y-76825000D01*
X70195000Y-76825000D02*
X72350000Y-76825000D01*
X66000000Y-76240000D02*
X69610000Y-76240000D01*
X63460000Y-72710000D02*
X63810000Y-72360000D01*
X63810000Y-72360000D02*
X69110000Y-72360000D01*
X69110000Y-72360000D02*
X70445000Y-71025000D01*
X70445000Y-71025000D02*
X72350000Y-71025000D01*
X63460000Y-73700000D02*
X63460000Y-72710000D01*
X68770000Y-73700000D02*
X70145000Y-72325000D01*
X70145000Y-72325000D02*
X72350000Y-72325000D01*
X66000000Y-73700000D02*
X68770000Y-73700000D01*
X63460000Y-70200000D02*
X63720000Y-69940000D01*
X63720000Y-69940000D02*
X66530000Y-69940000D01*
X66530000Y-69940000D02*
X69945000Y-66525000D01*
X69945000Y-66525000D02*
X72350000Y-66525000D01*
X63460000Y-71160000D02*
X63460000Y-70200000D01*
X69595000Y-67825000D02*
X72350000Y-67825000D01*
X66260000Y-71160000D02*
X69595000Y-67825000D01*
X66000000Y-71160000D02*
X66260000Y-71160000D01*
X63460000Y-67540000D02*
X63640000Y-67360000D01*
X63640000Y-67360000D02*
X67160000Y-67360000D01*
X67160000Y-67360000D02*
X69050000Y-65470000D01*
X69050000Y-65470000D02*
X69050000Y-63030000D01*
X69050000Y-63030000D02*
X70055000Y-62025000D01*
X70055000Y-62025000D02*
X72350000Y-62025000D01*
X63460000Y-68620000D02*
X63460000Y-67540000D01*
X71235000Y-63325000D02*
X72350000Y-63325000D01*
X70550000Y-64010000D02*
X71235000Y-63325000D01*
X70550000Y-64880000D02*
X70550000Y-64010000D01*
X66810000Y-68620000D02*
X70550000Y-64880000D01*
X66000000Y-68620000D02*
X66810000Y-68620000D01*
X69745000Y-57525000D02*
X72350000Y-57525000D01*
X68070000Y-59200000D02*
X69745000Y-57525000D01*
X68070000Y-63720000D02*
X68070000Y-59200000D01*
X66970000Y-64820000D02*
X68070000Y-63720000D01*
X63990000Y-64820000D02*
X66970000Y-64820000D01*
X63460000Y-65350000D02*
X63990000Y-64820000D01*
X63460000Y-66080000D02*
X63460000Y-65350000D01*
X66740000Y-66080000D02*
X66000000Y-66080000D01*
X69065000Y-58825000D02*
X68560000Y-59330000D01*
X68560000Y-59330000D02*
X68560000Y-64260000D01*
X68560000Y-64260000D02*
X66740000Y-66080000D01*
X72350000Y-58825000D02*
X69065000Y-58825000D01*
X70455000Y-53025000D02*
X72350000Y-53025000D01*
X70175000Y-53025000D02*
X70455000Y-53025000D01*
X64740000Y-58460000D02*
X70175000Y-53025000D01*
X64740000Y-62730000D02*
X64740000Y-58460000D01*
X63930000Y-63540000D02*
X64740000Y-62730000D01*
X63460000Y-63540000D02*
X63930000Y-63540000D01*
X71285000Y-54325000D02*
X72350000Y-54325000D01*
X69950000Y-55660000D02*
X71285000Y-54325000D01*
X68730000Y-55660000D02*
X69950000Y-55660000D01*
X67260000Y-57130000D02*
X68730000Y-55660000D01*
X67260000Y-62760000D02*
X67260000Y-57130000D01*
X66480000Y-63540000D02*
X67260000Y-62760000D01*
X66000000Y-63540000D02*
X66480000Y-63540000D01*
X91550000Y-83050000D02*
X91575000Y-83025000D01*
X91575000Y-83025000D02*
X93050000Y-83025000D01*
X92525000Y-87075000D02*
X93050000Y-86550000D01*
X93050000Y-86550000D02*
X93050000Y-86275000D01*
X98070000Y-70300000D02*
X104050000Y-76280000D01*
X104050000Y-76280000D02*
X105000000Y-76280000D01*
X95250000Y-70300000D02*
X98070000Y-70300000D01*
X104290000Y-81360000D02*
X105000000Y-81360000D01*
X96230000Y-73300000D02*
X104290000Y-81360000D01*
X95250000Y-73300000D02*
X96230000Y-73300000D01*
X104030000Y-68660000D02*
X102670000Y-67300000D01*
X102670000Y-67300000D02*
X95250000Y-67300000D01*
X105000000Y-68660000D02*
X104030000Y-68660000D01*
X100560000Y-69300000D02*
X103700000Y-72440000D01*
X103700000Y-72440000D02*
X106300000Y-72440000D01*
X106300000Y-72440000D02*
X107540000Y-71200000D01*
X95250000Y-69300000D02*
X100560000Y-69300000D01*
X96580000Y-71800000D02*
X103600000Y-78820000D01*
X103600000Y-78820000D02*
X105000000Y-78820000D01*
X95250000Y-71800000D02*
X96580000Y-71800000D01*
X96570000Y-72800000D02*
X103760000Y-79990000D01*
X103760000Y-79990000D02*
X106370000Y-79990000D01*
X106370000Y-79990000D02*
X107540000Y-78820000D01*
X95250000Y-72800000D02*
X96570000Y-72800000D01*
X102000000Y-67800000D02*
X104140000Y-69940000D01*
X104140000Y-69940000D02*
X106260000Y-69940000D01*
X106260000Y-69940000D02*
X107540000Y-68660000D01*
X95250000Y-67800000D02*
X102000000Y-67800000D01*
X101170000Y-68800000D02*
X103570000Y-71200000D01*
X103570000Y-71200000D02*
X105000000Y-71200000D01*
X95250000Y-68800000D02*
X101170000Y-68800000D01*
X96030000Y-74300000D02*
X104360000Y-82630000D01*
X104360000Y-82630000D02*
X106270000Y-82630000D01*
X106270000Y-82630000D02*
X107540000Y-81360000D01*
X95250000Y-74300000D02*
X96030000Y-74300000D01*
X105000000Y-83835688D02*
X105000000Y-83860000D01*
X96137156Y-74972844D02*
X96142156Y-74977844D01*
X95964312Y-74800000D02*
X96137156Y-74972844D01*
X95250000Y-74800000D02*
X95964312Y-74800000D01*
X104640000Y-83900000D02*
X105000000Y-83900000D01*
X96137156Y-75397156D02*
X104640000Y-83900000D01*
X96137156Y-74972844D02*
X96137156Y-75397156D01*
X102890000Y-66300000D02*
X103890000Y-67300000D01*
X103890000Y-67300000D02*
X106360000Y-67300000D01*
X106360000Y-67300000D02*
X107540000Y-66120000D01*
X95250000Y-66300000D02*
X102890000Y-66300000D01*
X104680000Y-65800000D02*
X105000000Y-66120000D01*
X95250000Y-65800000D02*
X104680000Y-65800000D01*
X97260000Y-71300000D02*
X103490000Y-77530000D01*
X103490000Y-77530000D02*
X106290000Y-77530000D01*
X106290000Y-77530000D02*
X107540000Y-76280000D01*
X95250000Y-71300000D02*
X97260000Y-71300000D01*
X99120000Y-69800000D02*
X104300000Y-74980000D01*
X104300000Y-74980000D02*
X106800000Y-74980000D01*
X95250000Y-69800000D02*
X99120000Y-69800000D01*
X107540000Y-74240000D02*
X106800000Y-74980000D01*
X107540000Y-73740000D02*
X107540000Y-74240000D01*
X106320000Y-64800000D02*
X107540000Y-63580000D01*
X95250000Y-64800000D02*
X106320000Y-64800000D01*
X104280000Y-64300000D02*
X105000000Y-63580000D01*
X95250000Y-64300000D02*
X104280000Y-64300000D01*
X102085000Y-84975000D02*
X102270000Y-85160000D01*
X102270000Y-85160000D02*
X106280000Y-85160000D01*
X106280000Y-85160000D02*
X107540000Y-83900000D01*
X98950000Y-84975000D02*
X102085000Y-84975000D01*
X104185000Y-85625000D02*
X105000000Y-86440000D01*
X98950000Y-85625000D02*
X104185000Y-85625000D01*
X101295000Y-86275000D02*
X102700000Y-87680000D01*
X102700000Y-87680000D02*
X106300000Y-87680000D01*
X106300000Y-87680000D02*
X107540000Y-86440000D01*
X98950000Y-86275000D02*
X101295000Y-86275000D01*
X91050040Y-95080040D02*
X91050040Y-94050480D01*
X91700000Y-95730000D02*
X91050040Y-95080040D01*
X91700000Y-96050000D02*
X91700000Y-95730000D01*
X105000000Y-96030000D02*
X102590000Y-98440000D01*
X102590000Y-98440000D02*
X92840000Y-98440000D01*
X92840000Y-98440000D02*
X91700000Y-97300000D01*
X91700000Y-97300000D02*
X91700000Y-96050000D01*
X106280000Y-94750000D02*
X105000000Y-96030000D01*
X106280000Y-90300000D02*
X106280000Y-94750000D01*
X106280000Y-89610000D02*
X106280000Y-90300000D01*
X105650000Y-88980000D02*
X106280000Y-89610000D01*
X105000000Y-88980000D02*
X105650000Y-88980000D01*
X108770000Y-90300000D02*
X109270000Y-89800000D01*
X109270000Y-89800000D02*
X109270000Y-55240000D01*
X109270000Y-55240000D02*
X105240000Y-51210000D01*
X105240000Y-51210000D02*
X99526000Y-51210000D01*
X99526000Y-51210000D02*
X98702000Y-52034000D01*
X106280000Y-90300000D02*
X108770000Y-90300000D01*
X74520000Y-90270000D02*
X74750000Y-90500000D01*
X73310000Y-90270000D02*
X74520000Y-90270000D01*
X74750000Y-91850000D02*
X74450000Y-92150000D01*
X74750000Y-90500000D02*
X74750000Y-91850000D01*
X82270000Y-86720000D02*
X83280000Y-86720000D01*
X87265000Y-81725000D02*
X93050000Y-81725000D01*
X86425000Y-81725000D02*
X87265000Y-81725000D01*
X84850000Y-83300000D02*
X86425000Y-81725000D01*
X84850000Y-85150000D02*
X84850000Y-83300000D01*
X83280000Y-86720000D02*
X84850000Y-85150000D01*
X82190000Y-86720000D02*
X82270000Y-86720000D01*
X82190000Y-86720000D02*
X82170000Y-86720000D01*
X76540000Y-90210000D02*
X76250000Y-90500000D01*
X80900000Y-90230000D02*
X80880000Y-90210000D01*
X80880000Y-90210000D02*
X78540000Y-90210000D01*
X78540000Y-90210000D02*
X76540000Y-90210000D01*
X71400000Y-94350000D02*
X70000000Y-95750000D01*
X72550000Y-94350000D02*
X71400000Y-94350000D01*
X71810000Y-93610000D02*
X72550000Y-94350000D01*
X71810000Y-90270000D02*
X71810000Y-93610000D01*
X73395000Y-86355000D02*
X73895000Y-86355000D01*
X73895000Y-86355000D02*
X74220000Y-86680000D01*
X89025000Y-82375000D02*
X93050000Y-82375000D01*
X83820000Y-87580000D02*
X89025000Y-82375000D01*
X76360000Y-87580000D02*
X83820000Y-87580000D01*
X76230000Y-87710000D02*
X76360000Y-87580000D01*
X72350000Y-85175000D02*
X73750000Y-85175000D01*
X73750000Y-85175000D02*
X73750000Y-85200000D01*
X72350000Y-81975000D02*
X73750000Y-81975000D01*
X73650000Y-81950000D02*
X73750000Y-81950000D01*
X73725000Y-81950000D02*
X73650000Y-81950000D01*
X73750000Y-81975000D02*
X73725000Y-81950000D01*
X72350000Y-80675000D02*
X73750000Y-80675000D01*
X73700000Y-80650000D02*
X73750000Y-80650000D01*
X73725000Y-80650000D02*
X73700000Y-80650000D01*
X73750000Y-80675000D02*
X73725000Y-80650000D01*
X72350000Y-77475000D02*
X73750000Y-77475000D01*
X73700000Y-77450000D02*
X73750000Y-77450000D01*
X73725000Y-77450000D02*
X73700000Y-77450000D01*
X73750000Y-77475000D02*
X73725000Y-77450000D01*
X72350000Y-76175000D02*
X73750000Y-76175000D01*
X73750000Y-76175000D02*
X73750000Y-76200000D01*
X72350000Y-72975000D02*
X73750000Y-72975000D01*
X73750000Y-72975000D02*
X73750000Y-72950000D01*
X72350000Y-71675000D02*
X73750000Y-71675000D01*
X73775000Y-71650000D02*
X73800000Y-71650000D01*
X73750000Y-71675000D02*
X73775000Y-71650000D01*
X72350000Y-67175000D02*
X73725000Y-67175000D01*
X73725000Y-67175000D02*
X73750000Y-67150000D01*
X73750000Y-67150000D02*
X73750000Y-63850000D01*
X72350000Y-68475000D02*
X73525000Y-68475000D01*
X73525000Y-68475000D02*
X73750000Y-68250000D01*
X72350000Y-63975000D02*
X73625000Y-63975000D01*
X73625000Y-63975000D02*
X73750000Y-63850000D01*
X72350000Y-62675000D02*
X73525000Y-62675000D01*
X73525000Y-62675000D02*
X73750000Y-62450000D01*
X72350000Y-59475000D02*
X73425000Y-59475000D01*
X73425000Y-59475000D02*
X73750000Y-59150000D01*
X72350000Y-58175000D02*
X73750000Y-58175000D01*
X73700000Y-58100000D02*
X73750000Y-58100000D01*
X73700000Y-58125000D02*
X73700000Y-58100000D01*
X73750000Y-58175000D02*
X73700000Y-58125000D01*
X73750000Y-54900000D02*
X72425000Y-54900000D01*
X72425000Y-54900000D02*
X72350000Y-54975000D01*
X73750000Y-77100000D02*
X73750000Y-76200000D01*
X73750000Y-76200000D02*
X73750000Y-72950000D01*
X73750000Y-72950000D02*
X73750000Y-71650000D01*
X73750000Y-71650000D02*
X73750000Y-68250000D01*
X73750000Y-68250000D02*
X73750000Y-67150000D01*
X73750000Y-63850000D02*
X73750000Y-62450000D01*
X73750000Y-62450000D02*
X73750000Y-59150000D01*
X73750000Y-59150000D02*
X73750000Y-58100000D01*
X73750000Y-58100000D02*
X73750000Y-55000000D01*
X73750000Y-55000000D02*
X73750000Y-54900000D01*
X73750000Y-54900000D02*
X73750000Y-54000000D01*
X73275000Y-86475000D02*
X73395000Y-86355000D01*
X73395000Y-86355000D02*
X73750000Y-86000000D01*
X73750000Y-86000000D02*
X73750000Y-85200000D01*
X73750000Y-85200000D02*
X73750000Y-81950000D01*
X73750000Y-81950000D02*
X73750000Y-80650000D01*
X73750000Y-80650000D02*
X73750000Y-77450000D01*
X73750000Y-77450000D02*
X73750000Y-77100000D01*
X72350000Y-86475000D02*
X73275000Y-86475000D01*
X73425000Y-53675000D02*
X72350000Y-53675000D01*
X73750000Y-54000000D02*
X73425000Y-53675000D01*
X76650000Y-81325000D02*
X79265000Y-81325000D01*
X85440000Y-73300000D02*
X87750000Y-73300000D01*
X81250000Y-77490000D02*
X85440000Y-73300000D01*
X81250000Y-79340000D02*
X81250000Y-77490000D01*
X79265000Y-81325000D02*
X81250000Y-79340000D01*
X87750000Y-70300000D02*
X84390000Y-70300000D01*
X82365000Y-72325000D02*
X76650000Y-72325000D01*
X84390000Y-70300000D02*
X82365000Y-72325000D01*
X87750000Y-69300000D02*
X84060000Y-69300000D01*
X82585000Y-67825000D02*
X76650000Y-67825000D01*
X84060000Y-69300000D02*
X82585000Y-67825000D01*
X87750000Y-67300000D02*
X85420000Y-67300000D01*
X80775000Y-62675000D02*
X81980000Y-63880000D01*
X81980000Y-63880000D02*
X82000000Y-63880000D01*
X82000000Y-63880000D02*
X84880000Y-66760000D01*
X80775000Y-62675000D02*
X76650000Y-62675000D01*
X85420000Y-67300000D02*
X84880000Y-66760000D01*
X87750000Y-72800000D02*
X85200000Y-72800000D01*
X79075000Y-80675000D02*
X76650000Y-80675000D01*
X80720000Y-79030000D02*
X79075000Y-80675000D01*
X80720000Y-77280000D02*
X80720000Y-79030000D01*
X85200000Y-72800000D02*
X80720000Y-77280000D01*
X87750000Y-71800000D02*
X85180000Y-71800000D01*
X80155000Y-76825000D02*
X76650000Y-76825000D01*
X85180000Y-71800000D02*
X80155000Y-76825000D01*
X76650000Y-67175000D02*
X82665000Y-67175000D01*
X84290000Y-68800000D02*
X87750000Y-68800000D01*
X82665000Y-67175000D02*
X84290000Y-68800000D01*
X87750000Y-67800000D02*
X85020000Y-67800000D01*
X80545000Y-63325000D02*
X76650000Y-63325000D01*
X85020000Y-67800000D02*
X80545000Y-63325000D01*
X79900000Y-85825000D02*
X82025000Y-85825000D01*
X82580000Y-83260000D02*
X82580000Y-78170000D01*
X82580000Y-78170000D02*
X85950000Y-74800000D01*
X82580000Y-85270000D02*
X82580000Y-83260000D01*
X82025000Y-85825000D02*
X82580000Y-85270000D01*
X76650000Y-85825000D02*
X79900000Y-85825000D01*
X79900000Y-85825000D02*
X80015000Y-85825000D01*
X87750000Y-74800000D02*
X86350000Y-74800000D01*
X85975000Y-74800000D02*
X85950000Y-74800000D01*
X86350000Y-74800000D02*
X85975000Y-74800000D01*
X85950000Y-74800000D02*
X85875000Y-74800000D01*
X79415000Y-85175000D02*
X81275000Y-85175000D01*
X85370000Y-74300000D02*
X81920000Y-77750000D01*
X81920000Y-77750000D02*
X81920000Y-82670000D01*
X76650000Y-85175000D02*
X79415000Y-85175000D01*
X85370000Y-74300000D02*
X87750000Y-74300000D01*
X81920000Y-84530000D02*
X81920000Y-82670000D01*
X81275000Y-85175000D02*
X81920000Y-84530000D01*
X87750000Y-65800000D02*
X85730000Y-65800000D01*
X82305000Y-58175000D02*
X76650000Y-58175000D01*
X82650000Y-58520000D02*
X82305000Y-58175000D01*
X82650000Y-62720000D02*
X82650000Y-58520000D01*
X85730000Y-65800000D02*
X82650000Y-62720000D01*
X87750000Y-66300000D02*
X85010000Y-66300000D01*
X80365000Y-58825000D02*
X76650000Y-58825000D01*
X81755000Y-58825000D02*
X80365000Y-58825000D01*
X82160000Y-59230000D02*
X81755000Y-58825000D01*
X82160000Y-63450000D02*
X82160000Y-59230000D01*
X85010000Y-66300000D02*
X82160000Y-63450000D01*
X87750000Y-69800000D02*
X84070000Y-69800000D01*
X82195000Y-71675000D02*
X76650000Y-71675000D01*
X84070000Y-69800000D02*
X82195000Y-71675000D01*
X76650000Y-76175000D02*
X79685000Y-76175000D01*
X84560000Y-71300000D02*
X87750000Y-71300000D01*
X79685000Y-76175000D02*
X84560000Y-71300000D01*
X76650000Y-53675000D02*
X82175000Y-53675000D01*
X86390000Y-64300000D02*
X87750000Y-64300000D01*
X83670000Y-61580000D02*
X86390000Y-64300000D01*
X83670000Y-55170000D02*
X83670000Y-61580000D01*
X82175000Y-53675000D02*
X83670000Y-55170000D01*
X87750000Y-64800000D02*
X85560000Y-64800000D01*
X81955000Y-54325000D02*
X76650000Y-54325000D01*
X83269998Y-55639998D02*
X81955000Y-54325000D01*
X83269998Y-62509998D02*
X83269998Y-55639998D01*
X85560000Y-64800000D02*
X83269998Y-62509998D01*
D35*
X78270000Y-95950000D02*
X79440000Y-94780000D01*
X79440000Y-94780000D02*
X79440000Y-93390000D01*
X79320000Y-93270000D02*
X78200000Y-92150000D01*
X79440000Y-93390000D02*
X79320000Y-93270000D01*
X77110000Y-95950000D02*
X78270000Y-95950000D01*
D32*
X75580000Y-93420000D02*
X75770000Y-93230000D01*
X75770000Y-93230000D02*
X79160000Y-93230000D01*
X79160000Y-93230000D02*
X79200000Y-93270000D01*
X79200000Y-93270000D02*
X79320000Y-93270000D01*
X75090000Y-94930000D02*
X75090000Y-94170502D01*
X74420000Y-96000000D02*
X75090000Y-95330000D01*
X75090000Y-95330000D02*
X75090000Y-94930000D01*
D35*
X73000000Y-96000000D02*
X74110000Y-96000000D01*
D32*
X74110000Y-96000000D02*
X74420000Y-96000000D01*
X75090000Y-94170502D02*
X75580000Y-93680502D01*
X75580000Y-93680502D02*
X75580000Y-93420000D01*
X76300000Y-94350000D02*
X76300000Y-94700000D01*
D35*
X75610000Y-95040000D02*
X76300000Y-94350000D01*
X75610000Y-95950000D02*
X75610000Y-95040000D01*
D32*
X75610000Y-95950000D02*
X75610000Y-96230000D01*
X76450000Y-98420000D02*
X77120000Y-99090000D01*
X77120000Y-99090000D02*
X106270000Y-99090000D01*
X106270000Y-99090000D02*
X106280000Y-99080000D01*
X76440000Y-97060000D02*
X75610000Y-96230000D01*
X107540000Y-91520000D02*
X107540000Y-97820000D01*
X107540000Y-97820000D02*
X106280000Y-99080000D01*
X63460000Y-89760000D02*
X63460000Y-88940000D01*
X108360000Y-94140000D02*
X108430000Y-94210000D01*
X108430000Y-94210000D02*
X108430000Y-98150000D01*
X108430000Y-98150000D02*
X107020000Y-99560000D01*
X107020000Y-99560000D02*
X69580000Y-99560000D01*
X69580000Y-99560000D02*
X68280000Y-98260000D01*
X68280000Y-98260000D02*
X68280000Y-94580000D01*
X68280000Y-94580000D02*
X63460000Y-89760000D01*
X105000000Y-93520000D02*
X105630000Y-94150000D01*
X105000000Y-91520000D02*
X105000000Y-93520000D01*
X102950000Y-55500000D02*
X102950000Y-56450000D01*
X102950000Y-56450000D02*
X105000000Y-58500000D01*
X101900000Y-55500000D02*
X102950000Y-55500000D01*
X102950000Y-55500000D02*
X103000000Y-55500000D01*
X103000000Y-55500000D02*
X104000000Y-54500000D01*
D38*
G36*
X66750000Y-59518400D02*
X66298500Y-59518400D01*
X66144000Y-59672900D01*
X66144000Y-60856000D01*
X66164000Y-60856000D01*
X66164000Y-61144000D01*
X66144000Y-61144000D01*
X66144000Y-61164000D01*
X65856000Y-61164000D01*
X65856000Y-61144000D01*
X65836000Y-61144000D01*
X65836000Y-60856000D01*
X65856000Y-60856000D01*
X65856000Y-59672900D01*
X65701500Y-59518400D01*
X65250000Y-59518400D01*
X65250000Y-58671248D01*
X66750000Y-57171248D01*
X66750000Y-59518400D01*
X66750000Y-59518400D01*
G37*
X66750000Y-59518400D02*
X66298500Y-59518400D01*
X66144000Y-59672900D01*
X66144000Y-60856000D01*
X66164000Y-60856000D01*
X66164000Y-61144000D01*
X66144000Y-61144000D01*
X66144000Y-61164000D01*
X65856000Y-61164000D01*
X65856000Y-61144000D01*
X65836000Y-61144000D01*
X65836000Y-60856000D01*
X65856000Y-60856000D01*
X65856000Y-59672900D01*
X65701500Y-59518400D01*
X65250000Y-59518400D01*
X65250000Y-58671248D01*
X66750000Y-57171248D01*
X66750000Y-59518400D01*
G36*
X68480000Y-94058751D02*
X64311367Y-89890119D01*
X64385522Y-89840571D01*
X64631915Y-89471818D01*
X64722385Y-89690248D01*
X65106745Y-90122061D01*
X65627095Y-90373916D01*
X65856000Y-90260097D01*
X65856000Y-89084000D01*
X65836000Y-89084000D01*
X65836000Y-88796000D01*
X65856000Y-88796000D01*
X65856000Y-88776000D01*
X66144000Y-88776000D01*
X66144000Y-88796000D01*
X66164000Y-88796000D01*
X66164000Y-89084000D01*
X66144000Y-89084000D01*
X66144000Y-90260097D01*
X66372905Y-90373916D01*
X66893255Y-90122061D01*
X67277615Y-89690248D01*
X67433905Y-89312903D01*
X67359210Y-89163760D01*
X67584656Y-89257374D01*
X67736257Y-89257506D01*
X68480000Y-90001248D01*
X68480000Y-94058751D01*
X68480000Y-94058751D01*
G37*
X68480000Y-94058751D02*
X64311367Y-89890119D01*
X64385522Y-89840571D01*
X64631915Y-89471818D01*
X64722385Y-89690248D01*
X65106745Y-90122061D01*
X65627095Y-90373916D01*
X65856000Y-90260097D01*
X65856000Y-89084000D01*
X65836000Y-89084000D01*
X65836000Y-88796000D01*
X65856000Y-88796000D01*
X65856000Y-88776000D01*
X66144000Y-88776000D01*
X66144000Y-88796000D01*
X66164000Y-88796000D01*
X66164000Y-89084000D01*
X66144000Y-89084000D01*
X66144000Y-90260097D01*
X66372905Y-90373916D01*
X66893255Y-90122061D01*
X67277615Y-89690248D01*
X67433905Y-89312903D01*
X67359210Y-89163760D01*
X67584656Y-89257374D01*
X67736257Y-89257506D01*
X68480000Y-90001248D01*
X68480000Y-94058751D01*
G36*
X71381968Y-53815000D02*
X71285000Y-53815000D01*
X71089831Y-53853821D01*
X70924375Y-53964376D01*
X69738751Y-55150000D01*
X68771248Y-55150000D01*
X70386248Y-53535000D01*
X70455000Y-53535000D01*
X71381968Y-53535000D01*
X71381968Y-53815000D01*
X71381968Y-53815000D01*
G37*
X71381968Y-53815000D02*
X71285000Y-53815000D01*
X71089831Y-53853821D01*
X70924375Y-53964376D01*
X69738751Y-55150000D01*
X68771248Y-55150000D01*
X70386248Y-53535000D01*
X70455000Y-53535000D01*
X71381968Y-53535000D01*
X71381968Y-53815000D01*
G36*
X71381968Y-62815000D02*
X71235000Y-62815000D01*
X71039831Y-62853821D01*
X70874375Y-62964376D01*
X70189376Y-63649376D01*
X70078821Y-63814831D01*
X70040000Y-64010000D01*
X70040000Y-64668751D01*
X69560000Y-65148751D01*
X69560000Y-63241248D01*
X70266248Y-62535000D01*
X71381968Y-62535000D01*
X71381968Y-62815000D01*
X71381968Y-62815000D01*
G37*
X71381968Y-62815000D02*
X71235000Y-62815000D01*
X71039831Y-62853821D01*
X70874375Y-62964376D01*
X70189376Y-63649376D01*
X70078821Y-63814831D01*
X70040000Y-64010000D01*
X70040000Y-64668751D01*
X69560000Y-65148751D01*
X69560000Y-63241248D01*
X70266248Y-62535000D01*
X71381968Y-62535000D01*
X71381968Y-62815000D01*
G36*
X72470718Y-87093032D02*
X72398442Y-87122896D01*
X72291150Y-87230000D01*
X70750000Y-87230000D01*
X70401248Y-87230000D01*
X67254202Y-84082954D01*
X67298551Y-83860000D01*
X67201663Y-83372911D01*
X70014375Y-86185624D01*
X70014376Y-86185624D01*
X70179831Y-86296179D01*
X70375000Y-86335000D01*
X71381968Y-86335000D01*
X71381968Y-86675000D01*
X71412300Y-86831332D01*
X71502557Y-86968733D01*
X71638815Y-87060708D01*
X71800000Y-87093032D01*
X72470718Y-87093032D01*
X72470718Y-87093032D01*
G37*
X72470718Y-87093032D02*
X72398442Y-87122896D01*
X72291150Y-87230000D01*
X70750000Y-87230000D01*
X70401248Y-87230000D01*
X67254202Y-84082954D01*
X67298551Y-83860000D01*
X67201663Y-83372911D01*
X70014375Y-86185624D01*
X70014376Y-86185624D01*
X70179831Y-86296179D01*
X70375000Y-86335000D01*
X71381968Y-86335000D01*
X71381968Y-86675000D01*
X71412300Y-86831332D01*
X71502557Y-86968733D01*
X71638815Y-87060708D01*
X71800000Y-87093032D01*
X72470718Y-87093032D01*
G36*
X73240000Y-57096052D02*
X73197443Y-57031267D01*
X73061185Y-56939292D01*
X72900000Y-56906968D01*
X71800000Y-56906968D01*
X71643668Y-56937300D01*
X71525382Y-57015000D01*
X69745000Y-57015000D01*
X69549831Y-57053821D01*
X69483559Y-57098103D01*
X69384376Y-57164375D01*
X67770000Y-58778751D01*
X67770000Y-57341248D01*
X68941248Y-56170000D01*
X69950000Y-56170000D01*
X69950000Y-56169999D01*
X70145169Y-56131179D01*
X70310624Y-56020624D01*
X71381968Y-54949280D01*
X71381968Y-55175000D01*
X71412300Y-55331332D01*
X71502557Y-55468733D01*
X71638815Y-55560708D01*
X71800000Y-55593032D01*
X72900000Y-55593032D01*
X73056332Y-55562700D01*
X73193733Y-55472443D01*
X73235882Y-55410000D01*
X73240000Y-55410000D01*
X73240000Y-57096052D01*
X73240000Y-57096052D01*
G37*
X73240000Y-57096052D02*
X73197443Y-57031267D01*
X73061185Y-56939292D01*
X72900000Y-56906968D01*
X71800000Y-56906968D01*
X71643668Y-56937300D01*
X71525382Y-57015000D01*
X69745000Y-57015000D01*
X69549831Y-57053821D01*
X69483559Y-57098103D01*
X69384376Y-57164375D01*
X67770000Y-58778751D01*
X67770000Y-57341248D01*
X68941248Y-56170000D01*
X69950000Y-56170000D01*
X69950000Y-56169999D01*
X70145169Y-56131179D01*
X70310624Y-56020624D01*
X71381968Y-54949280D01*
X71381968Y-55175000D01*
X71412300Y-55331332D01*
X71502557Y-55468733D01*
X71638815Y-55560708D01*
X71800000Y-55593032D01*
X72900000Y-55593032D01*
X73056332Y-55562700D01*
X73193733Y-55472443D01*
X73235882Y-55410000D01*
X73240000Y-55410000D01*
X73240000Y-57096052D01*
G36*
X73240000Y-61596052D02*
X73197443Y-61531267D01*
X73061185Y-61439292D01*
X72900000Y-61406968D01*
X71800000Y-61406968D01*
X71643668Y-61437300D01*
X71525382Y-61515000D01*
X70055000Y-61515000D01*
X69859831Y-61553821D01*
X69793559Y-61598103D01*
X69694376Y-61664375D01*
X69070000Y-62288751D01*
X69070000Y-59541248D01*
X69276248Y-59335000D01*
X71381968Y-59335000D01*
X71381968Y-59675000D01*
X71412300Y-59831332D01*
X71502557Y-59968733D01*
X71638815Y-60060708D01*
X71800000Y-60093032D01*
X72900000Y-60093032D01*
X73056332Y-60062700D01*
X73174617Y-59985000D01*
X73240000Y-59985000D01*
X73240000Y-61596052D01*
X73240000Y-61596052D01*
G37*
X73240000Y-61596052D02*
X73197443Y-61531267D01*
X73061185Y-61439292D01*
X72900000Y-61406968D01*
X71800000Y-61406968D01*
X71643668Y-61437300D01*
X71525382Y-61515000D01*
X70055000Y-61515000D01*
X69859831Y-61553821D01*
X69793559Y-61598103D01*
X69694376Y-61664375D01*
X69070000Y-62288751D01*
X69070000Y-59541248D01*
X69276248Y-59335000D01*
X71381968Y-59335000D01*
X71381968Y-59675000D01*
X71412300Y-59831332D01*
X71502557Y-59968733D01*
X71638815Y-60060708D01*
X71800000Y-60093032D01*
X72900000Y-60093032D01*
X73056332Y-60062700D01*
X73174617Y-59985000D01*
X73240000Y-59985000D01*
X73240000Y-61596052D01*
G36*
X73240000Y-70596052D02*
X73197443Y-70531267D01*
X73061185Y-70439292D01*
X72900000Y-70406968D01*
X71800000Y-70406968D01*
X71643668Y-70437300D01*
X71525382Y-70515000D01*
X70445000Y-70515000D01*
X70249831Y-70553821D01*
X70084375Y-70664376D01*
X68898751Y-71850000D01*
X67066221Y-71850000D01*
X67201604Y-71647386D01*
X67298551Y-71160000D01*
X67245907Y-70895341D01*
X69806248Y-68335000D01*
X71381968Y-68335000D01*
X71381968Y-68675000D01*
X71412300Y-68831332D01*
X71502557Y-68968733D01*
X71638815Y-69060708D01*
X71800000Y-69093032D01*
X72900000Y-69093032D01*
X73056332Y-69062700D01*
X73174617Y-68985000D01*
X73240000Y-68985000D01*
X73240000Y-70596052D01*
X73240000Y-70596052D01*
G37*
X73240000Y-70596052D02*
X73197443Y-70531267D01*
X73061185Y-70439292D01*
X72900000Y-70406968D01*
X71800000Y-70406968D01*
X71643668Y-70437300D01*
X71525382Y-70515000D01*
X70445000Y-70515000D01*
X70249831Y-70553821D01*
X70084375Y-70664376D01*
X68898751Y-71850000D01*
X67066221Y-71850000D01*
X67201604Y-71647386D01*
X67298551Y-71160000D01*
X67245907Y-70895341D01*
X69806248Y-68335000D01*
X71381968Y-68335000D01*
X71381968Y-68675000D01*
X71412300Y-68831332D01*
X71502557Y-68968733D01*
X71638815Y-69060708D01*
X71800000Y-69093032D01*
X72900000Y-69093032D01*
X73056332Y-69062700D01*
X73174617Y-68985000D01*
X73240000Y-68985000D01*
X73240000Y-70596052D01*
G36*
X73240000Y-75096052D02*
X73197443Y-75031267D01*
X73061185Y-74939292D01*
X72900000Y-74906968D01*
X71800000Y-74906968D01*
X71643668Y-74937300D01*
X71525382Y-75015000D01*
X70066248Y-75015000D01*
X69650624Y-74599376D01*
X69485169Y-74488821D01*
X69290000Y-74450000D01*
X67026130Y-74450000D01*
X67186493Y-74210000D01*
X68770000Y-74210000D01*
X68770000Y-74209999D01*
X68965169Y-74171179D01*
X69130624Y-74060624D01*
X70356248Y-72835000D01*
X71381968Y-72835000D01*
X71381968Y-73175000D01*
X71412300Y-73331332D01*
X71502557Y-73468733D01*
X71638815Y-73560708D01*
X71800000Y-73593032D01*
X72900000Y-73593032D01*
X73056332Y-73562700D01*
X73174617Y-73485000D01*
X73240000Y-73485000D01*
X73240000Y-75096052D01*
X73240000Y-75096052D01*
G37*
X73240000Y-75096052D02*
X73197443Y-75031267D01*
X73061185Y-74939292D01*
X72900000Y-74906968D01*
X71800000Y-74906968D01*
X71643668Y-74937300D01*
X71525382Y-75015000D01*
X70066248Y-75015000D01*
X69650624Y-74599376D01*
X69485169Y-74488821D01*
X69290000Y-74450000D01*
X67026130Y-74450000D01*
X67186493Y-74210000D01*
X68770000Y-74210000D01*
X68770000Y-74209999D01*
X68965169Y-74171179D01*
X69130624Y-74060624D01*
X70356248Y-72835000D01*
X71381968Y-72835000D01*
X71381968Y-73175000D01*
X71412300Y-73331332D01*
X71502557Y-73468733D01*
X71638815Y-73560708D01*
X71800000Y-73593032D01*
X72900000Y-73593032D01*
X73056332Y-73562700D01*
X73174617Y-73485000D01*
X73240000Y-73485000D01*
X73240000Y-75096052D01*
G36*
X73240000Y-79596052D02*
X73197443Y-79531267D01*
X73061185Y-79439292D01*
X72900000Y-79406968D01*
X71800000Y-79406968D01*
X71643668Y-79437300D01*
X71525382Y-79515000D01*
X70196248Y-79515000D01*
X67840624Y-77159376D01*
X67675169Y-77048821D01*
X67480000Y-77010000D01*
X67012766Y-77010000D01*
X67186493Y-76750000D01*
X69398751Y-76750000D01*
X69834376Y-77185625D01*
X69933559Y-77251896D01*
X69999831Y-77296179D01*
X69999832Y-77296179D01*
X70195000Y-77335000D01*
X71381968Y-77335000D01*
X71381968Y-77675000D01*
X71412300Y-77831332D01*
X71502557Y-77968733D01*
X71638815Y-78060708D01*
X71800000Y-78093032D01*
X72900000Y-78093032D01*
X73056332Y-78062700D01*
X73174617Y-77985000D01*
X73240000Y-77985000D01*
X73240000Y-79596052D01*
X73240000Y-79596052D01*
G37*
X73240000Y-79596052D02*
X73197443Y-79531267D01*
X73061185Y-79439292D01*
X72900000Y-79406968D01*
X71800000Y-79406968D01*
X71643668Y-79437300D01*
X71525382Y-79515000D01*
X70196248Y-79515000D01*
X67840624Y-77159376D01*
X67675169Y-77048821D01*
X67480000Y-77010000D01*
X67012766Y-77010000D01*
X67186493Y-76750000D01*
X69398751Y-76750000D01*
X69834376Y-77185625D01*
X69933559Y-77251896D01*
X69999831Y-77296179D01*
X69999832Y-77296179D01*
X70195000Y-77335000D01*
X71381968Y-77335000D01*
X71381968Y-77675000D01*
X71412300Y-77831332D01*
X71502557Y-77968733D01*
X71638815Y-78060708D01*
X71800000Y-78093032D01*
X72900000Y-78093032D01*
X73056332Y-78062700D01*
X73174617Y-77985000D01*
X73240000Y-77985000D01*
X73240000Y-79596052D01*
G36*
X73240000Y-84096052D02*
X73197443Y-84031267D01*
X73061185Y-83939292D01*
X72900000Y-83906968D01*
X71800000Y-83906968D01*
X71643668Y-83937300D01*
X71525382Y-84015000D01*
X70876248Y-84015000D01*
X68200000Y-81338751D01*
X68200000Y-81160000D01*
X68161179Y-80964832D01*
X68161179Y-80964831D01*
X68116896Y-80898559D01*
X68050625Y-80799376D01*
X66950624Y-79699376D01*
X66924001Y-79681587D01*
X66925522Y-79680571D01*
X67186493Y-79290000D01*
X67368751Y-79290000D01*
X69764376Y-81685625D01*
X69929831Y-81796179D01*
X69929832Y-81796180D01*
X70125000Y-81835000D01*
X71381968Y-81835000D01*
X71381968Y-82175000D01*
X71412300Y-82331332D01*
X71502557Y-82468733D01*
X71638815Y-82560708D01*
X71800000Y-82593032D01*
X72900000Y-82593032D01*
X73056332Y-82562700D01*
X73174617Y-82485000D01*
X73240000Y-82485000D01*
X73240000Y-84096052D01*
X73240000Y-84096052D01*
G37*
X73240000Y-84096052D02*
X73197443Y-84031267D01*
X73061185Y-83939292D01*
X72900000Y-83906968D01*
X71800000Y-83906968D01*
X71643668Y-83937300D01*
X71525382Y-84015000D01*
X70876248Y-84015000D01*
X68200000Y-81338751D01*
X68200000Y-81160000D01*
X68161179Y-80964832D01*
X68161179Y-80964831D01*
X68116896Y-80898559D01*
X68050625Y-80799376D01*
X66950624Y-79699376D01*
X66924001Y-79681587D01*
X66925522Y-79680571D01*
X67186493Y-79290000D01*
X67368751Y-79290000D01*
X69764376Y-81685625D01*
X69929831Y-81796179D01*
X69929832Y-81796180D01*
X70125000Y-81835000D01*
X71381968Y-81835000D01*
X71381968Y-82175000D01*
X71412300Y-82331332D01*
X71502557Y-82468733D01*
X71638815Y-82560708D01*
X71800000Y-82593032D01*
X72900000Y-82593032D01*
X73056332Y-82562700D01*
X73174617Y-82485000D01*
X73240000Y-82485000D01*
X73240000Y-84096052D01*
G36*
X74580000Y-94514000D02*
X74306000Y-94514000D01*
X74306000Y-94494000D01*
X74286000Y-94494000D01*
X74286000Y-94206000D01*
X74306000Y-94206000D01*
X74306000Y-94186000D01*
X74580000Y-94186000D01*
X74580000Y-94514000D01*
X74580000Y-94514000D01*
G37*
X74580000Y-94514000D02*
X74306000Y-94514000D01*
X74306000Y-94494000D01*
X74286000Y-94494000D01*
X74286000Y-94206000D01*
X74306000Y-94206000D01*
X74306000Y-94186000D01*
X74580000Y-94186000D01*
X74580000Y-94514000D01*
G36*
X76070154Y-99050000D02*
X74938984Y-99050000D01*
X75013915Y-98975069D01*
X75108000Y-98747928D01*
X75108000Y-98502072D01*
X75108000Y-98298500D01*
X74953500Y-98144000D01*
X74134000Y-98144000D01*
X74134000Y-98164000D01*
X73846000Y-98164000D01*
X73846000Y-98144000D01*
X73826000Y-98144000D01*
X73826000Y-97856000D01*
X73846000Y-97856000D01*
X73846000Y-97836000D01*
X74134000Y-97836000D01*
X74134000Y-97856000D01*
X74953500Y-97856000D01*
X75108000Y-97701500D01*
X75108000Y-97579248D01*
X75574376Y-98045625D01*
X75574379Y-98045627D01*
X75609375Y-98080624D01*
X75761098Y-98182003D01*
X75722626Y-98274656D01*
X75722374Y-98564074D01*
X75832896Y-98831558D01*
X76037366Y-99036385D01*
X76070154Y-99050000D01*
X76070154Y-99050000D01*
G37*
X76070154Y-99050000D02*
X74938984Y-99050000D01*
X75013915Y-98975069D01*
X75108000Y-98747928D01*
X75108000Y-98502072D01*
X75108000Y-98298500D01*
X74953500Y-98144000D01*
X74134000Y-98144000D01*
X74134000Y-98164000D01*
X73846000Y-98164000D01*
X73846000Y-98144000D01*
X73826000Y-98144000D01*
X73826000Y-97856000D01*
X73846000Y-97856000D01*
X73846000Y-97836000D01*
X74134000Y-97836000D01*
X74134000Y-97856000D01*
X74953500Y-97856000D01*
X75108000Y-97701500D01*
X75108000Y-97579248D01*
X75574376Y-98045625D01*
X75574379Y-98045627D01*
X75609375Y-98080624D01*
X75761098Y-98182003D01*
X75722626Y-98274656D01*
X75722374Y-98564074D01*
X75832896Y-98831558D01*
X76037366Y-99036385D01*
X76070154Y-99050000D01*
G36*
X78009658Y-78658642D02*
X77989292Y-78688815D01*
X77956968Y-78850000D01*
X77956968Y-79193796D01*
X77726264Y-79424500D01*
X77287424Y-79424500D01*
X77200000Y-79406968D01*
X76100000Y-79406968D01*
X76009639Y-79424500D01*
X75714000Y-79424500D01*
X75714000Y-78162984D01*
X75749931Y-78198915D01*
X75977072Y-78293000D01*
X76351500Y-78293000D01*
X76506000Y-78138500D01*
X76506000Y-77575000D01*
X76486000Y-77575000D01*
X76486000Y-77443032D01*
X76814000Y-77443032D01*
X76814000Y-77575000D01*
X76794000Y-77575000D01*
X76794000Y-78138500D01*
X76948500Y-78293000D01*
X77322928Y-78293000D01*
X77550069Y-78198915D01*
X77723915Y-78025069D01*
X77778204Y-77894002D01*
X77818000Y-77894002D01*
X77911498Y-77894002D01*
X77818000Y-77987500D01*
X77757000Y-78048500D01*
X77757000Y-78272928D01*
X77851085Y-78500069D01*
X78009658Y-78658642D01*
X78009658Y-78658642D01*
G37*
X78009658Y-78658642D02*
X77989292Y-78688815D01*
X77956968Y-78850000D01*
X77956968Y-79193796D01*
X77726264Y-79424500D01*
X77287424Y-79424500D01*
X77200000Y-79406968D01*
X76100000Y-79406968D01*
X76009639Y-79424500D01*
X75714000Y-79424500D01*
X75714000Y-78162984D01*
X75749931Y-78198915D01*
X75977072Y-78293000D01*
X76351500Y-78293000D01*
X76506000Y-78138500D01*
X76506000Y-77575000D01*
X76486000Y-77575000D01*
X76486000Y-77443032D01*
X76814000Y-77443032D01*
X76814000Y-77575000D01*
X76794000Y-77575000D01*
X76794000Y-78138500D01*
X76948500Y-78293000D01*
X77322928Y-78293000D01*
X77550069Y-78198915D01*
X77723915Y-78025069D01*
X77778204Y-77894002D01*
X77818000Y-77894002D01*
X77911498Y-77894002D01*
X77818000Y-77987500D01*
X77757000Y-78048500D01*
X77757000Y-78272928D01*
X77851085Y-78500069D01*
X78009658Y-78658642D01*
G36*
X78016016Y-81835000D02*
X77851085Y-81999931D01*
X77818000Y-82079805D01*
X77774155Y-82185655D01*
X77663500Y-82075000D01*
X76794000Y-82075000D01*
X76794000Y-82139000D01*
X76506000Y-82139000D01*
X76506000Y-82075000D01*
X76486000Y-82075000D01*
X76486000Y-81943032D01*
X77200000Y-81943032D01*
X77356332Y-81912700D01*
X77413723Y-81875000D01*
X77663500Y-81875000D01*
X77703500Y-81835000D01*
X77818000Y-81835000D01*
X78016016Y-81835000D01*
X78016016Y-81835000D01*
G37*
X78016016Y-81835000D02*
X77851085Y-81999931D01*
X77818000Y-82079805D01*
X77774155Y-82185655D01*
X77663500Y-82075000D01*
X76794000Y-82075000D01*
X76794000Y-82139000D01*
X76506000Y-82139000D01*
X76506000Y-82075000D01*
X76486000Y-82075000D01*
X76486000Y-81943032D01*
X77200000Y-81943032D01*
X77356332Y-81912700D01*
X77413723Y-81875000D01*
X77663500Y-81875000D01*
X77703500Y-81835000D01*
X77818000Y-81835000D01*
X78016016Y-81835000D01*
G36*
X78364000Y-94494000D02*
X78344000Y-94494000D01*
X78344000Y-94514000D01*
X78058500Y-94514000D01*
X78056000Y-94511500D01*
X78056000Y-94494000D01*
X78038500Y-94494000D01*
X77411500Y-94494000D01*
X77394000Y-94494000D01*
X77394000Y-94511500D01*
X77391500Y-94514000D01*
X77106000Y-94514000D01*
X77106000Y-94494000D01*
X77086000Y-94494000D01*
X77086000Y-94206000D01*
X77106000Y-94206000D01*
X77106000Y-94186000D01*
X77391500Y-94186000D01*
X77394000Y-94188500D01*
X77394000Y-94206000D01*
X77411500Y-94206000D01*
X78038500Y-94206000D01*
X78056000Y-94206000D01*
X78056000Y-94188500D01*
X78058500Y-94186000D01*
X78344000Y-94186000D01*
X78344000Y-94206000D01*
X78364000Y-94206000D01*
X78364000Y-94494000D01*
X78364000Y-94494000D01*
G37*
X78364000Y-94494000D02*
X78344000Y-94494000D01*
X78344000Y-94514000D01*
X78058500Y-94514000D01*
X78056000Y-94511500D01*
X78056000Y-94494000D01*
X78038500Y-94494000D01*
X77411500Y-94494000D01*
X77394000Y-94494000D01*
X77394000Y-94511500D01*
X77391500Y-94514000D01*
X77106000Y-94514000D01*
X77106000Y-94494000D01*
X77086000Y-94494000D01*
X77086000Y-94206000D01*
X77106000Y-94206000D01*
X77106000Y-94186000D01*
X77391500Y-94186000D01*
X77394000Y-94188500D01*
X77394000Y-94206000D01*
X77411500Y-94206000D01*
X78038500Y-94206000D01*
X78056000Y-94206000D01*
X78056000Y-94188500D01*
X78058500Y-94186000D01*
X78344000Y-94186000D01*
X78344000Y-94206000D01*
X78364000Y-94206000D01*
X78364000Y-94494000D01*
G36*
X78914000Y-82894000D02*
X78894000Y-82894000D01*
X78894000Y-82914000D01*
X78606000Y-82914000D01*
X78606000Y-82894000D01*
X77911500Y-82894000D01*
X77797269Y-83008231D01*
X77669519Y-82880481D01*
X77456062Y-82737853D01*
X77550069Y-82698915D01*
X77723915Y-82525069D01*
X77757000Y-82445194D01*
X77757000Y-82451500D01*
X77911500Y-82606000D01*
X78606000Y-82606000D01*
X78606000Y-82586000D01*
X78894000Y-82586000D01*
X78894000Y-82606000D01*
X78914000Y-82606000D01*
X78914000Y-82894000D01*
X78914000Y-82894000D01*
G37*
X78914000Y-82894000D02*
X78894000Y-82894000D01*
X78894000Y-82914000D01*
X78606000Y-82914000D01*
X78606000Y-82894000D01*
X77911500Y-82894000D01*
X77797269Y-83008231D01*
X77669519Y-82880481D01*
X77456062Y-82737853D01*
X77550069Y-82698915D01*
X77723915Y-82525069D01*
X77757000Y-82445194D01*
X77757000Y-82451500D01*
X77911500Y-82606000D01*
X78606000Y-82606000D01*
X78606000Y-82586000D01*
X78894000Y-82586000D01*
X78894000Y-82606000D01*
X78914000Y-82606000D01*
X78914000Y-82894000D01*
G36*
X80210000Y-78818751D02*
X79543032Y-79485719D01*
X79543032Y-78850000D01*
X79512700Y-78693668D01*
X79489949Y-78659034D01*
X79648915Y-78500069D01*
X79743000Y-78272928D01*
X79743000Y-78048500D01*
X79588500Y-77894000D01*
X78894000Y-77894000D01*
X78894000Y-77914000D01*
X78606000Y-77914000D01*
X78606000Y-77894000D01*
X78586000Y-77894000D01*
X78586000Y-77606000D01*
X78606000Y-77606000D01*
X78606000Y-77586000D01*
X78894000Y-77586000D01*
X78894000Y-77606000D01*
X79588500Y-77606000D01*
X79743000Y-77451500D01*
X79743000Y-77335000D01*
X80155000Y-77335000D01*
X80155000Y-77334999D01*
X80210000Y-77324059D01*
X80210000Y-78818751D01*
X80210000Y-78818751D01*
G37*
X80210000Y-78818751D02*
X79543032Y-79485719D01*
X79543032Y-78850000D01*
X79512700Y-78693668D01*
X79489949Y-78659034D01*
X79648915Y-78500069D01*
X79743000Y-78272928D01*
X79743000Y-78048500D01*
X79588500Y-77894000D01*
X78894000Y-77894000D01*
X78894000Y-77914000D01*
X78606000Y-77914000D01*
X78606000Y-77894000D01*
X78586000Y-77894000D01*
X78586000Y-77606000D01*
X78606000Y-77606000D01*
X78606000Y-77586000D01*
X78894000Y-77586000D01*
X78894000Y-77606000D01*
X79588500Y-77606000D01*
X79743000Y-77451500D01*
X79743000Y-77335000D01*
X80155000Y-77335000D01*
X80155000Y-77334999D01*
X80210000Y-77324059D01*
X80210000Y-78818751D01*
G36*
X81184372Y-54835000D02*
X81043668Y-54862300D01*
X80906267Y-54952557D01*
X80814292Y-55088815D01*
X80781968Y-55250000D01*
X80781968Y-56029487D01*
X80780481Y-56030481D01*
X80474962Y-56336000D01*
X79562984Y-56336000D01*
X79648915Y-56250069D01*
X79743000Y-56022928D01*
X79743000Y-55798500D01*
X79588500Y-55644000D01*
X78894000Y-55644000D01*
X78894000Y-55664000D01*
X78606000Y-55664000D01*
X78606000Y-55644000D01*
X77911500Y-55644000D01*
X77757000Y-55798500D01*
X77757000Y-55886000D01*
X75714000Y-55886000D01*
X75714000Y-55662984D01*
X75749931Y-55698915D01*
X75977072Y-55793000D01*
X76351500Y-55793000D01*
X76506000Y-55638500D01*
X76506000Y-55075000D01*
X76486000Y-55075000D01*
X76486000Y-54943032D01*
X76814000Y-54943032D01*
X76814000Y-55075000D01*
X76794000Y-55075000D01*
X76794000Y-55638500D01*
X76948500Y-55793000D01*
X77322928Y-55793000D01*
X77550069Y-55698915D01*
X77723915Y-55525069D01*
X77818000Y-55297928D01*
X77818000Y-55262500D01*
X77911500Y-55356000D01*
X78606000Y-55356000D01*
X78606000Y-55336000D01*
X78894000Y-55336000D01*
X78894000Y-55356000D01*
X79588500Y-55356000D01*
X79743000Y-55201500D01*
X79743000Y-54977072D01*
X79684151Y-54835000D01*
X81184372Y-54835000D01*
X81184372Y-54835000D01*
G37*
X81184372Y-54835000D02*
X81043668Y-54862300D01*
X80906267Y-54952557D01*
X80814292Y-55088815D01*
X80781968Y-55250000D01*
X80781968Y-56029487D01*
X80780481Y-56030481D01*
X80474962Y-56336000D01*
X79562984Y-56336000D01*
X79648915Y-56250069D01*
X79743000Y-56022928D01*
X79743000Y-55798500D01*
X79588500Y-55644000D01*
X78894000Y-55644000D01*
X78894000Y-55664000D01*
X78606000Y-55664000D01*
X78606000Y-55644000D01*
X77911500Y-55644000D01*
X77757000Y-55798500D01*
X77757000Y-55886000D01*
X75714000Y-55886000D01*
X75714000Y-55662984D01*
X75749931Y-55698915D01*
X75977072Y-55793000D01*
X76351500Y-55793000D01*
X76506000Y-55638500D01*
X76506000Y-55075000D01*
X76486000Y-55075000D01*
X76486000Y-54943032D01*
X76814000Y-54943032D01*
X76814000Y-55075000D01*
X76794000Y-55075000D01*
X76794000Y-55638500D01*
X76948500Y-55793000D01*
X77322928Y-55793000D01*
X77550069Y-55698915D01*
X77723915Y-55525069D01*
X77818000Y-55297928D01*
X77818000Y-55262500D01*
X77911500Y-55356000D01*
X78606000Y-55356000D01*
X78606000Y-55336000D01*
X78894000Y-55336000D01*
X78894000Y-55356000D01*
X79588500Y-55356000D01*
X79743000Y-55201500D01*
X79743000Y-54977072D01*
X79684151Y-54835000D01*
X81184372Y-54835000D01*
G36*
X81410000Y-82208602D02*
X81387700Y-82093668D01*
X81297443Y-81956267D01*
X81161185Y-81864292D01*
X81000000Y-81831968D01*
X80000000Y-81831968D01*
X79843668Y-81862300D01*
X79706267Y-81952557D01*
X79658564Y-82023226D01*
X79648915Y-81999931D01*
X79475069Y-81826085D01*
X79421458Y-81803878D01*
X79460169Y-81796179D01*
X79625624Y-81685624D01*
X81410000Y-79901248D01*
X81410000Y-82208602D01*
X81410000Y-82208602D01*
G37*
X81410000Y-82208602D02*
X81387700Y-82093668D01*
X81297443Y-81956267D01*
X81161185Y-81864292D01*
X81000000Y-81831968D01*
X80000000Y-81831968D01*
X79843668Y-81862300D01*
X79706267Y-81952557D01*
X79658564Y-82023226D01*
X79648915Y-81999931D01*
X79475069Y-81826085D01*
X79421458Y-81803878D01*
X79460169Y-81796179D01*
X79625624Y-81685624D01*
X81410000Y-79901248D01*
X81410000Y-82208602D01*
G36*
X81642140Y-86335000D02*
X81542626Y-86574656D01*
X81542374Y-86864074D01*
X81627460Y-87070000D01*
X77678984Y-87070000D01*
X77723915Y-87025069D01*
X77818000Y-86797928D01*
X77818000Y-86729500D01*
X77663500Y-86575000D01*
X76794000Y-86575000D01*
X76794000Y-86639000D01*
X76506000Y-86639000D01*
X76506000Y-86575000D01*
X76486000Y-86575000D01*
X76486000Y-86443032D01*
X77200000Y-86443032D01*
X77356332Y-86412700D01*
X77413723Y-86375000D01*
X77663500Y-86375000D01*
X77703500Y-86335000D01*
X77818000Y-86335000D01*
X79900000Y-86335000D01*
X80015000Y-86335000D01*
X81642140Y-86335000D01*
X81642140Y-86335000D01*
G37*
X81642140Y-86335000D02*
X81542626Y-86574656D01*
X81542374Y-86864074D01*
X81627460Y-87070000D01*
X77678984Y-87070000D01*
X77723915Y-87025069D01*
X77818000Y-86797928D01*
X77818000Y-86729500D01*
X77663500Y-86575000D01*
X76794000Y-86575000D01*
X76794000Y-86639000D01*
X76506000Y-86639000D01*
X76506000Y-86575000D01*
X76486000Y-86575000D01*
X76486000Y-86443032D01*
X77200000Y-86443032D01*
X77356332Y-86412700D01*
X77413723Y-86375000D01*
X77663500Y-86375000D01*
X77703500Y-86335000D01*
X77818000Y-86335000D01*
X79900000Y-86335000D01*
X80015000Y-86335000D01*
X81642140Y-86335000D01*
G36*
X81650000Y-62828751D02*
X81135624Y-62314376D01*
X80970169Y-62203821D01*
X80775000Y-62165000D01*
X79440632Y-62165000D01*
X79510708Y-62061185D01*
X79543032Y-61900000D01*
X79543032Y-61100000D01*
X79512700Y-60943668D01*
X79489949Y-60909034D01*
X79648915Y-60750069D01*
X79743000Y-60522928D01*
X79743000Y-60298500D01*
X79588500Y-60144000D01*
X78894000Y-60144000D01*
X78894000Y-60164000D01*
X78606000Y-60164000D01*
X78606000Y-60144000D01*
X77911500Y-60144000D01*
X77757000Y-60298500D01*
X77757000Y-60522928D01*
X77851085Y-60750069D01*
X78009658Y-60908642D01*
X77989292Y-60938815D01*
X77956968Y-61100000D01*
X77956968Y-61424500D01*
X77287424Y-61424500D01*
X77200000Y-61406968D01*
X76847229Y-61406968D01*
X76754802Y-61345210D01*
X76525000Y-61299499D01*
X76524994Y-61299500D01*
X75714000Y-61299500D01*
X75714000Y-60162984D01*
X75749931Y-60198915D01*
X75977072Y-60293000D01*
X76351500Y-60293000D01*
X76506000Y-60138500D01*
X76506000Y-59575000D01*
X76486000Y-59575000D01*
X76486000Y-59443032D01*
X76814000Y-59443032D01*
X76814000Y-59575000D01*
X76794000Y-59575000D01*
X76794000Y-60138500D01*
X76948500Y-60293000D01*
X77322928Y-60293000D01*
X77550069Y-60198915D01*
X77723915Y-60025069D01*
X77818000Y-59797928D01*
X77818000Y-59762500D01*
X77911500Y-59856000D01*
X78606000Y-59856000D01*
X78606000Y-59836000D01*
X78894000Y-59836000D01*
X78894000Y-59856000D01*
X79588500Y-59856000D01*
X79743000Y-59701500D01*
X79743000Y-59477072D01*
X79684151Y-59335000D01*
X80365000Y-59335000D01*
X81543751Y-59335000D01*
X81650000Y-59441248D01*
X81650000Y-62828751D01*
X81650000Y-62828751D01*
G37*
X81650000Y-62828751D02*
X81135624Y-62314376D01*
X80970169Y-62203821D01*
X80775000Y-62165000D01*
X79440632Y-62165000D01*
X79510708Y-62061185D01*
X79543032Y-61900000D01*
X79543032Y-61100000D01*
X79512700Y-60943668D01*
X79489949Y-60909034D01*
X79648915Y-60750069D01*
X79743000Y-60522928D01*
X79743000Y-60298500D01*
X79588500Y-60144000D01*
X78894000Y-60144000D01*
X78894000Y-60164000D01*
X78606000Y-60164000D01*
X78606000Y-60144000D01*
X77911500Y-60144000D01*
X77757000Y-60298500D01*
X77757000Y-60522928D01*
X77851085Y-60750069D01*
X78009658Y-60908642D01*
X77989292Y-60938815D01*
X77956968Y-61100000D01*
X77956968Y-61424500D01*
X77287424Y-61424500D01*
X77200000Y-61406968D01*
X76847229Y-61406968D01*
X76754802Y-61345210D01*
X76525000Y-61299499D01*
X76524994Y-61299500D01*
X75714000Y-61299500D01*
X75714000Y-60162984D01*
X75749931Y-60198915D01*
X75977072Y-60293000D01*
X76351500Y-60293000D01*
X76506000Y-60138500D01*
X76506000Y-59575000D01*
X76486000Y-59575000D01*
X76486000Y-59443032D01*
X76814000Y-59443032D01*
X76814000Y-59575000D01*
X76794000Y-59575000D01*
X76794000Y-60138500D01*
X76948500Y-60293000D01*
X77322928Y-60293000D01*
X77550069Y-60198915D01*
X77723915Y-60025069D01*
X77818000Y-59797928D01*
X77818000Y-59762500D01*
X77911500Y-59856000D01*
X78606000Y-59856000D01*
X78606000Y-59836000D01*
X78894000Y-59836000D01*
X78894000Y-59856000D01*
X79588500Y-59856000D01*
X79743000Y-59701500D01*
X79743000Y-59477072D01*
X79684151Y-59335000D01*
X80365000Y-59335000D01*
X81543751Y-59335000D01*
X81650000Y-59441248D01*
X81650000Y-62828751D01*
G36*
X82303751Y-72835000D02*
X79473751Y-75665000D01*
X79440632Y-75665000D01*
X79510708Y-75561185D01*
X79543032Y-75400000D01*
X79543032Y-74600000D01*
X79512700Y-74443668D01*
X79489949Y-74409034D01*
X79648915Y-74250069D01*
X79743000Y-74022928D01*
X79743000Y-73798500D01*
X79588500Y-73644000D01*
X78894000Y-73644000D01*
X78894000Y-73664000D01*
X78606000Y-73664000D01*
X78606000Y-73644000D01*
X77911500Y-73644000D01*
X77757000Y-73798500D01*
X77757000Y-74022928D01*
X77851085Y-74250069D01*
X78009658Y-74408642D01*
X77989292Y-74438815D01*
X77956968Y-74600000D01*
X77956968Y-74924500D01*
X77287424Y-74924500D01*
X77200000Y-74906968D01*
X76100000Y-74906968D01*
X76009639Y-74924500D01*
X75714000Y-74924500D01*
X75714000Y-73662984D01*
X75749931Y-73698915D01*
X75977072Y-73793000D01*
X76351500Y-73793000D01*
X76506000Y-73638500D01*
X76506000Y-73075000D01*
X76486000Y-73075000D01*
X76486000Y-72943032D01*
X76814000Y-72943032D01*
X76814000Y-73075000D01*
X76794000Y-73075000D01*
X76794000Y-73638500D01*
X76948500Y-73793000D01*
X77322928Y-73793000D01*
X77550069Y-73698915D01*
X77723915Y-73525069D01*
X77818000Y-73297928D01*
X77818000Y-73262500D01*
X77911500Y-73356000D01*
X78606000Y-73356000D01*
X78606000Y-73336000D01*
X78894000Y-73336000D01*
X78894000Y-73356000D01*
X79588500Y-73356000D01*
X79743000Y-73201500D01*
X79743000Y-72977072D01*
X79684151Y-72835000D01*
X82303751Y-72835000D01*
X82303751Y-72835000D01*
G37*
X82303751Y-72835000D02*
X79473751Y-75665000D01*
X79440632Y-75665000D01*
X79510708Y-75561185D01*
X79543032Y-75400000D01*
X79543032Y-74600000D01*
X79512700Y-74443668D01*
X79489949Y-74409034D01*
X79648915Y-74250069D01*
X79743000Y-74022928D01*
X79743000Y-73798500D01*
X79588500Y-73644000D01*
X78894000Y-73644000D01*
X78894000Y-73664000D01*
X78606000Y-73664000D01*
X78606000Y-73644000D01*
X77911500Y-73644000D01*
X77757000Y-73798500D01*
X77757000Y-74022928D01*
X77851085Y-74250069D01*
X78009658Y-74408642D01*
X77989292Y-74438815D01*
X77956968Y-74600000D01*
X77956968Y-74924500D01*
X77287424Y-74924500D01*
X77200000Y-74906968D01*
X76100000Y-74906968D01*
X76009639Y-74924500D01*
X75714000Y-74924500D01*
X75714000Y-73662984D01*
X75749931Y-73698915D01*
X75977072Y-73793000D01*
X76351500Y-73793000D01*
X76506000Y-73638500D01*
X76506000Y-73075000D01*
X76486000Y-73075000D01*
X76486000Y-72943032D01*
X76814000Y-72943032D01*
X76814000Y-73075000D01*
X76794000Y-73075000D01*
X76794000Y-73638500D01*
X76948500Y-73793000D01*
X77322928Y-73793000D01*
X77550069Y-73698915D01*
X77723915Y-73525069D01*
X77818000Y-73297928D01*
X77818000Y-73262500D01*
X77911500Y-73356000D01*
X78606000Y-73356000D01*
X78606000Y-73336000D01*
X78894000Y-73336000D01*
X78894000Y-73356000D01*
X79588500Y-73356000D01*
X79743000Y-73201500D01*
X79743000Y-72977072D01*
X79684151Y-72835000D01*
X82303751Y-72835000D01*
G36*
X83593751Y-69554999D02*
X81983751Y-71165000D01*
X79440632Y-71165000D01*
X79510708Y-71061185D01*
X79543032Y-70900000D01*
X79543032Y-70100000D01*
X79512700Y-69943668D01*
X79489949Y-69909034D01*
X79648915Y-69750069D01*
X79743000Y-69522928D01*
X79743000Y-69298500D01*
X79588500Y-69144000D01*
X78894000Y-69144000D01*
X78894000Y-69164000D01*
X78606000Y-69164000D01*
X78606000Y-69144000D01*
X77911500Y-69144000D01*
X77757000Y-69298500D01*
X77757000Y-69522928D01*
X77851085Y-69750069D01*
X78009658Y-69908642D01*
X77989292Y-69938815D01*
X77956968Y-70100000D01*
X77956968Y-70424500D01*
X77287424Y-70424500D01*
X77200000Y-70406968D01*
X76100000Y-70406968D01*
X75943668Y-70437300D01*
X75925095Y-70449500D01*
X75714000Y-70449500D01*
X75714000Y-69162984D01*
X75749931Y-69198915D01*
X75977072Y-69293000D01*
X76351500Y-69293000D01*
X76506000Y-69138500D01*
X76506000Y-68575000D01*
X76486000Y-68575000D01*
X76486000Y-68443032D01*
X76814000Y-68443032D01*
X76814000Y-68575000D01*
X76794000Y-68575000D01*
X76794000Y-69138500D01*
X76948500Y-69293000D01*
X77322928Y-69293000D01*
X77550069Y-69198915D01*
X77723915Y-69025069D01*
X77818000Y-68797928D01*
X77818000Y-68762500D01*
X77911500Y-68856000D01*
X78606000Y-68856000D01*
X78606000Y-68836000D01*
X78894000Y-68836000D01*
X78894000Y-68856000D01*
X79588500Y-68856000D01*
X79743000Y-68701500D01*
X79743000Y-68477072D01*
X79684151Y-68335000D01*
X82373752Y-68335000D01*
X83593751Y-69554999D01*
X83593751Y-69554999D01*
G37*
X83593751Y-69554999D02*
X81983751Y-71165000D01*
X79440632Y-71165000D01*
X79510708Y-71061185D01*
X79543032Y-70900000D01*
X79543032Y-70100000D01*
X79512700Y-69943668D01*
X79489949Y-69909034D01*
X79648915Y-69750069D01*
X79743000Y-69522928D01*
X79743000Y-69298500D01*
X79588500Y-69144000D01*
X78894000Y-69144000D01*
X78894000Y-69164000D01*
X78606000Y-69164000D01*
X78606000Y-69144000D01*
X77911500Y-69144000D01*
X77757000Y-69298500D01*
X77757000Y-69522928D01*
X77851085Y-69750069D01*
X78009658Y-69908642D01*
X77989292Y-69938815D01*
X77956968Y-70100000D01*
X77956968Y-70424500D01*
X77287424Y-70424500D01*
X77200000Y-70406968D01*
X76100000Y-70406968D01*
X75943668Y-70437300D01*
X75925095Y-70449500D01*
X75714000Y-70449500D01*
X75714000Y-69162984D01*
X75749931Y-69198915D01*
X75977072Y-69293000D01*
X76351500Y-69293000D01*
X76506000Y-69138500D01*
X76506000Y-68575000D01*
X76486000Y-68575000D01*
X76486000Y-68443032D01*
X76814000Y-68443032D01*
X76814000Y-68575000D01*
X76794000Y-68575000D01*
X76794000Y-69138500D01*
X76948500Y-69293000D01*
X77322928Y-69293000D01*
X77550069Y-69198915D01*
X77723915Y-69025069D01*
X77818000Y-68797928D01*
X77818000Y-68762500D01*
X77911500Y-68856000D01*
X78606000Y-68856000D01*
X78606000Y-68836000D01*
X78894000Y-68836000D01*
X78894000Y-68856000D01*
X79588500Y-68856000D01*
X79743000Y-68701500D01*
X79743000Y-68477072D01*
X79684151Y-68335000D01*
X82373752Y-68335000D01*
X83593751Y-69554999D01*
G36*
X84919451Y-68290000D02*
X84501248Y-68290000D01*
X83025624Y-66814376D01*
X82860169Y-66703821D01*
X82665000Y-66665000D01*
X79440632Y-66665000D01*
X79510708Y-66561185D01*
X79543032Y-66400000D01*
X79543032Y-65600000D01*
X79512700Y-65443668D01*
X79489949Y-65409034D01*
X79648915Y-65250069D01*
X79743000Y-65022928D01*
X79743000Y-64798500D01*
X79588500Y-64644000D01*
X78894000Y-64644000D01*
X78894000Y-64664000D01*
X78606000Y-64664000D01*
X78606000Y-64644000D01*
X77911500Y-64644000D01*
X77757000Y-64798500D01*
X77757000Y-65022928D01*
X77851085Y-65250069D01*
X78009658Y-65408642D01*
X77989292Y-65438815D01*
X77956968Y-65600000D01*
X77956968Y-65924500D01*
X77287424Y-65924500D01*
X77200000Y-65906968D01*
X76100000Y-65906968D01*
X76009639Y-65924500D01*
X75714000Y-65924500D01*
X75714000Y-64662984D01*
X75749931Y-64698915D01*
X75977072Y-64793000D01*
X76351500Y-64793000D01*
X76506000Y-64638500D01*
X76506000Y-64075000D01*
X76486000Y-64075000D01*
X76486000Y-63943032D01*
X76814000Y-63943032D01*
X76814000Y-64075000D01*
X76794000Y-64075000D01*
X76794000Y-64638500D01*
X76948500Y-64793000D01*
X77322928Y-64793000D01*
X77550069Y-64698915D01*
X77723915Y-64525069D01*
X77818000Y-64297928D01*
X77818000Y-64262500D01*
X77911500Y-64356000D01*
X78606000Y-64356000D01*
X78606000Y-64336000D01*
X78894000Y-64336000D01*
X78894000Y-64356000D01*
X79588500Y-64356000D01*
X79743000Y-64201500D01*
X79743000Y-63977072D01*
X79684151Y-63835000D01*
X80333751Y-63835000D01*
X84659376Y-68160625D01*
X84758559Y-68226896D01*
X84824831Y-68271179D01*
X84824832Y-68271179D01*
X84919451Y-68290000D01*
X84919451Y-68290000D01*
G37*
X84919451Y-68290000D02*
X84501248Y-68290000D01*
X83025624Y-66814376D01*
X82860169Y-66703821D01*
X82665000Y-66665000D01*
X79440632Y-66665000D01*
X79510708Y-66561185D01*
X79543032Y-66400000D01*
X79543032Y-65600000D01*
X79512700Y-65443668D01*
X79489949Y-65409034D01*
X79648915Y-65250069D01*
X79743000Y-65022928D01*
X79743000Y-64798500D01*
X79588500Y-64644000D01*
X78894000Y-64644000D01*
X78894000Y-64664000D01*
X78606000Y-64664000D01*
X78606000Y-64644000D01*
X77911500Y-64644000D01*
X77757000Y-64798500D01*
X77757000Y-65022928D01*
X77851085Y-65250069D01*
X78009658Y-65408642D01*
X77989292Y-65438815D01*
X77956968Y-65600000D01*
X77956968Y-65924500D01*
X77287424Y-65924500D01*
X77200000Y-65906968D01*
X76100000Y-65906968D01*
X76009639Y-65924500D01*
X75714000Y-65924500D01*
X75714000Y-64662984D01*
X75749931Y-64698915D01*
X75977072Y-64793000D01*
X76351500Y-64793000D01*
X76506000Y-64638500D01*
X76506000Y-64075000D01*
X76486000Y-64075000D01*
X76486000Y-63943032D01*
X76814000Y-63943032D01*
X76814000Y-64075000D01*
X76794000Y-64075000D01*
X76794000Y-64638500D01*
X76948500Y-64793000D01*
X77322928Y-64793000D01*
X77550069Y-64698915D01*
X77723915Y-64525069D01*
X77818000Y-64297928D01*
X77818000Y-64262500D01*
X77911500Y-64356000D01*
X78606000Y-64356000D01*
X78606000Y-64336000D01*
X78894000Y-64336000D01*
X78894000Y-64356000D01*
X79588500Y-64356000D01*
X79743000Y-64201500D01*
X79743000Y-63977072D01*
X79684151Y-63835000D01*
X80333751Y-63835000D01*
X84659376Y-68160625D01*
X84758559Y-68226896D01*
X84824831Y-68271179D01*
X84824832Y-68271179D01*
X84919451Y-68290000D01*
G36*
X88443751Y-82235000D02*
X85296201Y-85382550D01*
X85321179Y-85345169D01*
X85359999Y-85150000D01*
X85360000Y-85150000D01*
X85360000Y-83511248D01*
X86636248Y-82235000D01*
X87265000Y-82235000D01*
X88443751Y-82235000D01*
X88443751Y-82235000D01*
G37*
X88443751Y-82235000D02*
X85296201Y-85382550D01*
X85321179Y-85345169D01*
X85359999Y-85150000D01*
X85360000Y-85150000D01*
X85360000Y-83511248D01*
X86636248Y-82235000D01*
X87265000Y-82235000D01*
X88443751Y-82235000D01*
G36*
X89674500Y-71276264D02*
X89476264Y-71474500D01*
X88999857Y-71474500D01*
X88995344Y-71472626D01*
X88705926Y-71472374D01*
X88658076Y-71492145D01*
X88668032Y-71442500D01*
X88668032Y-71398452D01*
X88773915Y-71292569D01*
X88868000Y-71065428D01*
X88868000Y-71025750D01*
X88713500Y-70871250D01*
X88552358Y-70871250D01*
X88547443Y-70863767D01*
X88452644Y-70799777D01*
X88543733Y-70739943D01*
X88551288Y-70728750D01*
X88713500Y-70728750D01*
X88868000Y-70574250D01*
X88868000Y-70534572D01*
X88773915Y-70307431D01*
X88668032Y-70201548D01*
X88668032Y-70157500D01*
X88646830Y-70048224D01*
X88668032Y-69942500D01*
X88668032Y-69657500D01*
X88646830Y-69548224D01*
X88668032Y-69442500D01*
X88668032Y-69157500D01*
X88646830Y-69048224D01*
X88668032Y-68942500D01*
X88668032Y-68898452D01*
X88773915Y-68792569D01*
X88868000Y-68565428D01*
X88868000Y-68525750D01*
X88713500Y-68371250D01*
X88552358Y-68371250D01*
X88547443Y-68363767D01*
X88452644Y-68299777D01*
X88543733Y-68239943D01*
X88551288Y-68228750D01*
X88713500Y-68228750D01*
X88868000Y-68074250D01*
X88868000Y-68034572D01*
X88773915Y-67807431D01*
X88668032Y-67701548D01*
X88668032Y-67657500D01*
X88646830Y-67548224D01*
X88666313Y-67451071D01*
X88729656Y-67477374D01*
X89019074Y-67477626D01*
X89286558Y-67367104D01*
X89303190Y-67350500D01*
X89674500Y-67350500D01*
X89674500Y-70775000D01*
X89674500Y-71276264D01*
X89674500Y-71276264D01*
G37*
X89674500Y-71276264D02*
X89476264Y-71474500D01*
X88999857Y-71474500D01*
X88995344Y-71472626D01*
X88705926Y-71472374D01*
X88658076Y-71492145D01*
X88668032Y-71442500D01*
X88668032Y-71398452D01*
X88773915Y-71292569D01*
X88868000Y-71065428D01*
X88868000Y-71025750D01*
X88713500Y-70871250D01*
X88552358Y-70871250D01*
X88547443Y-70863767D01*
X88452644Y-70799777D01*
X88543733Y-70739943D01*
X88551288Y-70728750D01*
X88713500Y-70728750D01*
X88868000Y-70574250D01*
X88868000Y-70534572D01*
X88773915Y-70307431D01*
X88668032Y-70201548D01*
X88668032Y-70157500D01*
X88646830Y-70048224D01*
X88668032Y-69942500D01*
X88668032Y-69657500D01*
X88646830Y-69548224D01*
X88668032Y-69442500D01*
X88668032Y-69157500D01*
X88646830Y-69048224D01*
X88668032Y-68942500D01*
X88668032Y-68898452D01*
X88773915Y-68792569D01*
X88868000Y-68565428D01*
X88868000Y-68525750D01*
X88713500Y-68371250D01*
X88552358Y-68371250D01*
X88547443Y-68363767D01*
X88452644Y-68299777D01*
X88543733Y-68239943D01*
X88551288Y-68228750D01*
X88713500Y-68228750D01*
X88868000Y-68074250D01*
X88868000Y-68034572D01*
X88773915Y-67807431D01*
X88668032Y-67701548D01*
X88668032Y-67657500D01*
X88646830Y-67548224D01*
X88666313Y-67451071D01*
X88729656Y-67477374D01*
X89019074Y-67477626D01*
X89286558Y-67367104D01*
X89303190Y-67350500D01*
X89674500Y-67350500D01*
X89674500Y-70775000D01*
X89674500Y-71276264D01*
G36*
X94547355Y-70800222D02*
X94456267Y-70860057D01*
X94448711Y-70871250D01*
X94286500Y-70871250D01*
X94132000Y-71025750D01*
X94132000Y-71065428D01*
X94226085Y-71292569D01*
X94331968Y-71398452D01*
X94331968Y-71442500D01*
X94353169Y-71551775D01*
X94331968Y-71657500D01*
X94331968Y-71660719D01*
X94177495Y-71506246D01*
X94177626Y-71355926D01*
X94114000Y-71201939D01*
X94114000Y-68197964D01*
X94132000Y-68154616D01*
X94155579Y-68097829D01*
X94286500Y-68228750D01*
X94447641Y-68228750D01*
X94452557Y-68236233D01*
X94547355Y-68300222D01*
X94456267Y-68360057D01*
X94448711Y-68371250D01*
X94286500Y-68371250D01*
X94132000Y-68525750D01*
X94132000Y-68565428D01*
X94226085Y-68792569D01*
X94331968Y-68898452D01*
X94331968Y-68942500D01*
X94353169Y-69051775D01*
X94331968Y-69157500D01*
X94331968Y-69442500D01*
X94353169Y-69551775D01*
X94331968Y-69657500D01*
X94331968Y-69942500D01*
X94353169Y-70051775D01*
X94331968Y-70157500D01*
X94331968Y-70201548D01*
X94226085Y-70307431D01*
X94132000Y-70534572D01*
X94132000Y-70574250D01*
X94286500Y-70728750D01*
X94447641Y-70728750D01*
X94452557Y-70736233D01*
X94547355Y-70800222D01*
X94547355Y-70800222D01*
G37*
X94547355Y-70800222D02*
X94456267Y-70860057D01*
X94448711Y-70871250D01*
X94286500Y-70871250D01*
X94132000Y-71025750D01*
X94132000Y-71065428D01*
X94226085Y-71292569D01*
X94331968Y-71398452D01*
X94331968Y-71442500D01*
X94353169Y-71551775D01*
X94331968Y-71657500D01*
X94331968Y-71660719D01*
X94177495Y-71506246D01*
X94177626Y-71355926D01*
X94114000Y-71201939D01*
X94114000Y-68197964D01*
X94132000Y-68154616D01*
X94155579Y-68097829D01*
X94286500Y-68228750D01*
X94447641Y-68228750D01*
X94452557Y-68236233D01*
X94547355Y-68300222D01*
X94456267Y-68360057D01*
X94448711Y-68371250D01*
X94286500Y-68371250D01*
X94132000Y-68525750D01*
X94132000Y-68565428D01*
X94226085Y-68792569D01*
X94331968Y-68898452D01*
X94331968Y-68942500D01*
X94353169Y-69051775D01*
X94331968Y-69157500D01*
X94331968Y-69442500D01*
X94353169Y-69551775D01*
X94331968Y-69657500D01*
X94331968Y-69942500D01*
X94353169Y-70051775D01*
X94331968Y-70157500D01*
X94331968Y-70201548D01*
X94226085Y-70307431D01*
X94132000Y-70534572D01*
X94132000Y-70574250D01*
X94286500Y-70728750D01*
X94447641Y-70728750D01*
X94452557Y-70736233D01*
X94547355Y-70800222D01*
G36*
X100292930Y-56368032D02*
X97324962Y-59336000D01*
X92740000Y-59336000D01*
X92485898Y-59386544D01*
X92466507Y-59399500D01*
X92350000Y-59399500D01*
X92120198Y-59445210D01*
X91925382Y-59575382D01*
X89850382Y-61650382D01*
X89720210Y-61845198D01*
X89674499Y-62075000D01*
X89674500Y-62075005D01*
X89674500Y-66149500D01*
X89303491Y-66149500D01*
X89287634Y-66133615D01*
X89020344Y-66022626D01*
X88730926Y-66022374D01*
X88648428Y-66056461D01*
X88646830Y-66048224D01*
X88668032Y-65942500D01*
X88668032Y-65898452D01*
X88773915Y-65792569D01*
X88868000Y-65565428D01*
X88868000Y-65525750D01*
X88713500Y-65371250D01*
X88552358Y-65371250D01*
X88547443Y-65363767D01*
X88452644Y-65299777D01*
X88543733Y-65239943D01*
X88551288Y-65228750D01*
X88713500Y-65228750D01*
X88868000Y-65074250D01*
X88868000Y-65034572D01*
X88773915Y-64807431D01*
X88668032Y-64701548D01*
X88668032Y-64657500D01*
X88646830Y-64548224D01*
X88668032Y-64442500D01*
X88668032Y-64398452D01*
X88773915Y-64292569D01*
X88868000Y-64065428D01*
X88868000Y-64025750D01*
X88868000Y-63574250D01*
X88868000Y-63534572D01*
X88773915Y-63307431D01*
X88600069Y-63133585D01*
X88372928Y-63039500D01*
X88048500Y-63039500D01*
X87894000Y-63194000D01*
X87894000Y-63728750D01*
X88713500Y-63728750D01*
X88868000Y-63574250D01*
X88868000Y-64025750D01*
X88713500Y-63871250D01*
X88552358Y-63871250D01*
X88547443Y-63863767D01*
X88411185Y-63771792D01*
X88250000Y-63739468D01*
X87606000Y-63739468D01*
X87586000Y-63739468D01*
X87586000Y-63728750D01*
X87606000Y-63728750D01*
X87606000Y-63194000D01*
X87451500Y-63039500D01*
X87127072Y-63039500D01*
X86899931Y-63133585D01*
X86726085Y-63307431D01*
X86632000Y-63534572D01*
X86632000Y-63574250D01*
X86713748Y-63655998D01*
X86632000Y-63655998D01*
X86632000Y-63790000D01*
X86601248Y-63790000D01*
X85818000Y-63006751D01*
X85818000Y-57872928D01*
X85818000Y-57627072D01*
X85818000Y-56798500D01*
X85818000Y-56201500D01*
X85818000Y-55372928D01*
X85818000Y-55127072D01*
X85723915Y-54899931D01*
X85550069Y-54726085D01*
X85322928Y-54632000D01*
X84998500Y-54632000D01*
X84844000Y-54786500D01*
X84844000Y-56356000D01*
X85663500Y-56356000D01*
X85818000Y-56201500D01*
X85818000Y-56798500D01*
X85663500Y-56644000D01*
X84844000Y-56644000D01*
X84844000Y-58213500D01*
X84998500Y-58368000D01*
X85322928Y-58368000D01*
X85550069Y-58273915D01*
X85723915Y-58100069D01*
X85818000Y-57872928D01*
X85818000Y-63006751D01*
X84180000Y-61368751D01*
X84180000Y-58368000D01*
X84401500Y-58368000D01*
X84556000Y-58213500D01*
X84556000Y-56644000D01*
X84536000Y-56644000D01*
X84536000Y-56356000D01*
X84556000Y-56356000D01*
X84556000Y-54786500D01*
X84401500Y-54632000D01*
X84077072Y-54632000D01*
X83918805Y-54697556D01*
X82535624Y-53314376D01*
X82370169Y-53203821D01*
X82175000Y-53165000D01*
X79440632Y-53165000D01*
X79478680Y-53108633D01*
X79485898Y-53113456D01*
X79740000Y-53164000D01*
X90142962Y-53164000D01*
X92190258Y-55211296D01*
X92017462Y-55627437D01*
X92016799Y-56387230D01*
X92306947Y-57089441D01*
X92843733Y-57627165D01*
X93545437Y-57918538D01*
X94305230Y-57919201D01*
X95007441Y-57629053D01*
X95545165Y-57092267D01*
X95836538Y-56390563D01*
X95836782Y-56110500D01*
X95997735Y-56110500D01*
X96042557Y-56178733D01*
X96178815Y-56270708D01*
X96230000Y-56280972D01*
X96230000Y-56340000D01*
X96268821Y-56535169D01*
X96379376Y-56700624D01*
X96789376Y-57110625D01*
X96954831Y-57221179D01*
X96954832Y-57221180D01*
X97150000Y-57260000D01*
X99100000Y-57260000D01*
X99100000Y-57259999D01*
X99295169Y-57221179D01*
X99460624Y-57110624D01*
X100203216Y-56368032D01*
X100292930Y-56368032D01*
X100292930Y-56368032D01*
G37*
X100292930Y-56368032D02*
X97324962Y-59336000D01*
X92740000Y-59336000D01*
X92485898Y-59386544D01*
X92466507Y-59399500D01*
X92350000Y-59399500D01*
X92120198Y-59445210D01*
X91925382Y-59575382D01*
X89850382Y-61650382D01*
X89720210Y-61845198D01*
X89674499Y-62075000D01*
X89674500Y-62075005D01*
X89674500Y-66149500D01*
X89303491Y-66149500D01*
X89287634Y-66133615D01*
X89020344Y-66022626D01*
X88730926Y-66022374D01*
X88648428Y-66056461D01*
X88646830Y-66048224D01*
X88668032Y-65942500D01*
X88668032Y-65898452D01*
X88773915Y-65792569D01*
X88868000Y-65565428D01*
X88868000Y-65525750D01*
X88713500Y-65371250D01*
X88552358Y-65371250D01*
X88547443Y-65363767D01*
X88452644Y-65299777D01*
X88543733Y-65239943D01*
X88551288Y-65228750D01*
X88713500Y-65228750D01*
X88868000Y-65074250D01*
X88868000Y-65034572D01*
X88773915Y-64807431D01*
X88668032Y-64701548D01*
X88668032Y-64657500D01*
X88646830Y-64548224D01*
X88668032Y-64442500D01*
X88668032Y-64398452D01*
X88773915Y-64292569D01*
X88868000Y-64065428D01*
X88868000Y-64025750D01*
X88868000Y-63574250D01*
X88868000Y-63534572D01*
X88773915Y-63307431D01*
X88600069Y-63133585D01*
X88372928Y-63039500D01*
X88048500Y-63039500D01*
X87894000Y-63194000D01*
X87894000Y-63728750D01*
X88713500Y-63728750D01*
X88868000Y-63574250D01*
X88868000Y-64025750D01*
X88713500Y-63871250D01*
X88552358Y-63871250D01*
X88547443Y-63863767D01*
X88411185Y-63771792D01*
X88250000Y-63739468D01*
X87606000Y-63739468D01*
X87586000Y-63739468D01*
X87586000Y-63728750D01*
X87606000Y-63728750D01*
X87606000Y-63194000D01*
X87451500Y-63039500D01*
X87127072Y-63039500D01*
X86899931Y-63133585D01*
X86726085Y-63307431D01*
X86632000Y-63534572D01*
X86632000Y-63574250D01*
X86713748Y-63655998D01*
X86632000Y-63655998D01*
X86632000Y-63790000D01*
X86601248Y-63790000D01*
X85818000Y-63006751D01*
X85818000Y-57872928D01*
X85818000Y-57627072D01*
X85818000Y-56798500D01*
X85818000Y-56201500D01*
X85818000Y-55372928D01*
X85818000Y-55127072D01*
X85723915Y-54899931D01*
X85550069Y-54726085D01*
X85322928Y-54632000D01*
X84998500Y-54632000D01*
X84844000Y-54786500D01*
X84844000Y-56356000D01*
X85663500Y-56356000D01*
X85818000Y-56201500D01*
X85818000Y-56798500D01*
X85663500Y-56644000D01*
X84844000Y-56644000D01*
X84844000Y-58213500D01*
X84998500Y-58368000D01*
X85322928Y-58368000D01*
X85550069Y-58273915D01*
X85723915Y-58100069D01*
X85818000Y-57872928D01*
X85818000Y-63006751D01*
X84180000Y-61368751D01*
X84180000Y-58368000D01*
X84401500Y-58368000D01*
X84556000Y-58213500D01*
X84556000Y-56644000D01*
X84536000Y-56644000D01*
X84536000Y-56356000D01*
X84556000Y-56356000D01*
X84556000Y-54786500D01*
X84401500Y-54632000D01*
X84077072Y-54632000D01*
X83918805Y-54697556D01*
X82535624Y-53314376D01*
X82370169Y-53203821D01*
X82175000Y-53165000D01*
X79440632Y-53165000D01*
X79478680Y-53108633D01*
X79485898Y-53113456D01*
X79740000Y-53164000D01*
X90142962Y-53164000D01*
X92190258Y-55211296D01*
X92017462Y-55627437D01*
X92016799Y-56387230D01*
X92306947Y-57089441D01*
X92843733Y-57627165D01*
X93545437Y-57918538D01*
X94305230Y-57919201D01*
X95007441Y-57629053D01*
X95545165Y-57092267D01*
X95836538Y-56390563D01*
X95836782Y-56110500D01*
X95997735Y-56110500D01*
X96042557Y-56178733D01*
X96178815Y-56270708D01*
X96230000Y-56280972D01*
X96230000Y-56340000D01*
X96268821Y-56535169D01*
X96379376Y-56700624D01*
X96789376Y-57110625D01*
X96954831Y-57221179D01*
X96954832Y-57221180D01*
X97150000Y-57260000D01*
X99100000Y-57260000D01*
X99100000Y-57259999D01*
X99295169Y-57221179D01*
X99460624Y-57110624D01*
X100203216Y-56368032D01*
X100292930Y-56368032D01*
G36*
X100491500Y-54631968D02*
X100150000Y-54631968D01*
X99993668Y-54662300D01*
X99856267Y-54752557D01*
X99764292Y-54888815D01*
X99731968Y-55050000D01*
X99731968Y-55396784D01*
X99258000Y-55870752D01*
X99258000Y-55808500D01*
X99103500Y-55654000D01*
X98384000Y-55654000D01*
X98384000Y-55674000D01*
X98096000Y-55674000D01*
X98096000Y-55654000D01*
X98076000Y-55654000D01*
X98076000Y-55366000D01*
X98096000Y-55366000D01*
X98096000Y-55346000D01*
X98384000Y-55346000D01*
X98384000Y-55366000D01*
X99103500Y-55366000D01*
X99258000Y-55211500D01*
X99258000Y-55012072D01*
X99163915Y-54784931D01*
X99056016Y-54677032D01*
X99232000Y-54677032D01*
X99388332Y-54646700D01*
X99525733Y-54556443D01*
X99540544Y-54534500D01*
X100426619Y-54534500D01*
X100491500Y-54578294D01*
X100491500Y-54631968D01*
X100491500Y-54631968D01*
G37*
X100491500Y-54631968D02*
X100150000Y-54631968D01*
X99993668Y-54662300D01*
X99856267Y-54752557D01*
X99764292Y-54888815D01*
X99731968Y-55050000D01*
X99731968Y-55396784D01*
X99258000Y-55870752D01*
X99258000Y-55808500D01*
X99103500Y-55654000D01*
X98384000Y-55654000D01*
X98384000Y-55674000D01*
X98096000Y-55674000D01*
X98096000Y-55654000D01*
X98076000Y-55654000D01*
X98076000Y-55366000D01*
X98096000Y-55366000D01*
X98096000Y-55346000D01*
X98384000Y-55346000D01*
X98384000Y-55366000D01*
X99103500Y-55366000D01*
X99258000Y-55211500D01*
X99258000Y-55012072D01*
X99163915Y-54784931D01*
X99056016Y-54677032D01*
X99232000Y-54677032D01*
X99388332Y-54646700D01*
X99525733Y-54556443D01*
X99540544Y-54534500D01*
X100426619Y-54534500D01*
X100491500Y-54578294D01*
X100491500Y-54631968D01*
G36*
X102769841Y-61616000D02*
X94010000Y-61616000D01*
X93755898Y-61666544D01*
X93540481Y-61810481D01*
X92660481Y-62690481D01*
X92600481Y-62750481D01*
X92456544Y-62965898D01*
X92406000Y-63220000D01*
X92456544Y-63474102D01*
X92466000Y-63488253D01*
X92466000Y-67251746D01*
X92456544Y-67265898D01*
X92406000Y-67520000D01*
X92456544Y-67774102D01*
X92600481Y-67989519D01*
X92660481Y-68049519D01*
X92769788Y-68158826D01*
X92786000Y-68198060D01*
X92786000Y-71132085D01*
X92676544Y-71295898D01*
X92626000Y-71550000D01*
X92626000Y-74210000D01*
X92626000Y-77140000D01*
X92676544Y-77394102D01*
X92820481Y-77609519D01*
X95676000Y-80465038D01*
X95676000Y-81060000D01*
X95676000Y-83310000D01*
X95676000Y-87940000D01*
X95726544Y-88194102D01*
X95870481Y-88409519D01*
X97160481Y-89699519D01*
X97190481Y-89729519D01*
X97342295Y-89830958D01*
X96600460Y-89830958D01*
X96444128Y-89861290D01*
X96306727Y-89951547D01*
X96214752Y-90087805D01*
X96202869Y-90147060D01*
X95350445Y-90147060D01*
X95350440Y-90147059D01*
X95078329Y-90201186D01*
X95024202Y-90211953D01*
X94747631Y-90396751D01*
X94397191Y-90747191D01*
X94335413Y-90839648D01*
X94335412Y-90839648D01*
X94287113Y-90849020D01*
X93694006Y-90849020D01*
X93683100Y-90792808D01*
X93592843Y-90655407D01*
X93456585Y-90563432D01*
X93295400Y-90531108D01*
X92801392Y-90531108D01*
X92695509Y-90425225D01*
X92468368Y-90331140D01*
X92298500Y-90331140D01*
X92144000Y-90485640D01*
X92144000Y-91305520D01*
X92164000Y-91305520D01*
X92164000Y-91593520D01*
X92144000Y-91593520D01*
X92144000Y-92413400D01*
X92298500Y-92567900D01*
X92468368Y-92567900D01*
X92578469Y-92522294D01*
X92525342Y-92575422D01*
X92395170Y-92770238D01*
X92349459Y-93000040D01*
X92349460Y-93000045D01*
X92349460Y-93132874D01*
X92345440Y-93132068D01*
X91654560Y-93132068D01*
X91522880Y-93157616D01*
X91395480Y-93132068D01*
X90704600Y-93132068D01*
X90548268Y-93162400D01*
X90410867Y-93252657D01*
X90318892Y-93388915D01*
X90286568Y-93550100D01*
X90286568Y-94550860D01*
X90316900Y-94707192D01*
X90407157Y-94844593D01*
X90540040Y-94934289D01*
X90540040Y-95080040D01*
X90578861Y-95275209D01*
X90689416Y-95440664D01*
X90970719Y-95721968D01*
X90410000Y-95721968D01*
X90253668Y-95752300D01*
X90116267Y-95842557D01*
X90079180Y-95897500D01*
X88577450Y-95897500D01*
X88500000Y-95881968D01*
X88000000Y-95881968D01*
X87843668Y-95912300D01*
X87706267Y-96002557D01*
X87614292Y-96138815D01*
X87597783Y-96221134D01*
X87500000Y-96367478D01*
X87402940Y-96222219D01*
X87387700Y-96143668D01*
X87297443Y-96006267D01*
X87161185Y-95914292D01*
X87109555Y-95903938D01*
X87102500Y-95896882D01*
X87102500Y-94496932D01*
X88129716Y-93469716D01*
X88129717Y-93469716D01*
X88193243Y-93374641D01*
X88306332Y-93352700D01*
X88443733Y-93262443D01*
X88500120Y-93178907D01*
X88552557Y-93258733D01*
X88688815Y-93350708D01*
X88850000Y-93383032D01*
X89650000Y-93383032D01*
X89806332Y-93352700D01*
X89943733Y-93262443D01*
X90035708Y-93126185D01*
X90068032Y-92965000D01*
X90068032Y-92215000D01*
X90037700Y-92058668D01*
X90032019Y-92050020D01*
X90305993Y-92050020D01*
X90316900Y-92106232D01*
X90407157Y-92243633D01*
X90543415Y-92335608D01*
X90704600Y-92367932D01*
X91198608Y-92367932D01*
X91304491Y-92473815D01*
X91531632Y-92567900D01*
X91701500Y-92567900D01*
X91856000Y-92413400D01*
X91856000Y-91593520D01*
X91836000Y-91593520D01*
X91836000Y-91305520D01*
X91856000Y-91305520D01*
X91856000Y-90485640D01*
X91701500Y-90331140D01*
X91531632Y-90331140D01*
X91304491Y-90425225D01*
X91198608Y-90531108D01*
X90704600Y-90531108D01*
X90548268Y-90561440D01*
X90410867Y-90651697D01*
X90318892Y-90787955D01*
X90306646Y-90849020D01*
X90198255Y-90849020D01*
X89918032Y-90568796D01*
X89918032Y-90300000D01*
X89887700Y-90143668D01*
X89797443Y-90006267D01*
X89661185Y-89914292D01*
X89500000Y-89881968D01*
X89000000Y-89881968D01*
X88843668Y-89912300D01*
X88706267Y-90002557D01*
X88614292Y-90138815D01*
X88581968Y-90300000D01*
X88581968Y-91200000D01*
X88612300Y-91356332D01*
X88702557Y-91493733D01*
X88713000Y-91500782D01*
X88713000Y-91823549D01*
X88693668Y-91827300D01*
X88556267Y-91917557D01*
X88499879Y-92001092D01*
X88447443Y-91921267D01*
X88311185Y-91829292D01*
X88287000Y-91824441D01*
X88287000Y-91501865D01*
X88293733Y-91497443D01*
X88385708Y-91361185D01*
X88418032Y-91200000D01*
X88418032Y-90300000D01*
X88387700Y-90143668D01*
X88297443Y-90006267D01*
X88161185Y-89914292D01*
X88000000Y-89881968D01*
X87500000Y-89881968D01*
X87343668Y-89912300D01*
X87206267Y-90002557D01*
X87114292Y-90138815D01*
X87081968Y-90300000D01*
X87081968Y-91200000D01*
X87112300Y-91356332D01*
X87202557Y-91493733D01*
X87213000Y-91500782D01*
X87213000Y-91823549D01*
X87193668Y-91827300D01*
X87056267Y-91917557D01*
X86964292Y-92053815D01*
X86931968Y-92215000D01*
X86931968Y-92965000D01*
X86961802Y-93118765D01*
X86601377Y-93479190D01*
X86576238Y-93462393D01*
X86418000Y-93430917D01*
X86418000Y-91872928D01*
X86418000Y-91548500D01*
X86418000Y-90951500D01*
X86418000Y-90627072D01*
X86323915Y-90399931D01*
X86150069Y-90226085D01*
X85922928Y-90132000D01*
X85677072Y-90132000D01*
X85298500Y-90132000D01*
X85144000Y-90286500D01*
X85144000Y-91106000D01*
X86263500Y-91106000D01*
X86418000Y-90951500D01*
X86418000Y-91548500D01*
X86263500Y-91394000D01*
X85144000Y-91394000D01*
X85144000Y-92213500D01*
X85298500Y-92368000D01*
X85677072Y-92368000D01*
X85922928Y-92368000D01*
X86150069Y-92273915D01*
X86323915Y-92100069D01*
X86418000Y-91872928D01*
X86418000Y-93430917D01*
X86250000Y-93397500D01*
X86010381Y-93397500D01*
X85961185Y-93364292D01*
X85800000Y-93331968D01*
X84856000Y-93331968D01*
X84856000Y-92213500D01*
X84856000Y-91394000D01*
X84856000Y-91106000D01*
X84856000Y-90286500D01*
X84701500Y-90132000D01*
X84322928Y-90132000D01*
X84077072Y-90132000D01*
X83849931Y-90226085D01*
X83676085Y-90399931D01*
X83582000Y-90627072D01*
X83582000Y-90951500D01*
X83736500Y-91106000D01*
X84856000Y-91106000D01*
X84856000Y-91394000D01*
X83736500Y-91394000D01*
X83582000Y-91548500D01*
X83582000Y-91872928D01*
X83676085Y-92100069D01*
X83849931Y-92273915D01*
X84077072Y-92368000D01*
X84322928Y-92368000D01*
X84701500Y-92368000D01*
X84856000Y-92213500D01*
X84856000Y-93331968D01*
X84200000Y-93331968D01*
X84043668Y-93362300D01*
X83906267Y-93452557D01*
X83814292Y-93588815D01*
X83781968Y-93750000D01*
X83781968Y-94750000D01*
X83812300Y-94906332D01*
X83902557Y-95043733D01*
X84038815Y-95135708D01*
X84200000Y-95168032D01*
X85397500Y-95168032D01*
X85397500Y-95546882D01*
X85046882Y-95897500D01*
X84077450Y-95897500D01*
X84000000Y-95881968D01*
X83500000Y-95881968D01*
X83418000Y-95897877D01*
X83418000Y-91872928D01*
X83418000Y-91548500D01*
X83418000Y-90951500D01*
X83418000Y-90627072D01*
X83323915Y-90399931D01*
X83150069Y-90226085D01*
X82922928Y-90132000D01*
X82677072Y-90132000D01*
X82298500Y-90132000D01*
X82144000Y-90286500D01*
X82144000Y-91106000D01*
X83263500Y-91106000D01*
X83418000Y-90951500D01*
X83418000Y-91548500D01*
X83263500Y-91394000D01*
X82144000Y-91394000D01*
X82144000Y-92213500D01*
X82298500Y-92368000D01*
X82677072Y-92368000D01*
X82922928Y-92368000D01*
X83150069Y-92273915D01*
X83323915Y-92100069D01*
X83418000Y-91872928D01*
X83418000Y-95897877D01*
X83343668Y-95912300D01*
X83206267Y-96002557D01*
X83114292Y-96138815D01*
X83097783Y-96221134D01*
X82962393Y-96423762D01*
X82918032Y-96646779D01*
X82918032Y-96300000D01*
X82914000Y-96279218D01*
X82914000Y-95145913D01*
X82956332Y-95137700D01*
X83093733Y-95047443D01*
X83185708Y-94911185D01*
X83218032Y-94750000D01*
X83218032Y-93750000D01*
X83187700Y-93593668D01*
X83097443Y-93456267D01*
X82961185Y-93364292D01*
X82800000Y-93331968D01*
X81856000Y-93331968D01*
X81856000Y-92213500D01*
X81856000Y-91394000D01*
X80736500Y-91394000D01*
X80582000Y-91548500D01*
X80582000Y-91872928D01*
X80676085Y-92100069D01*
X80849931Y-92273915D01*
X81077072Y-92368000D01*
X81322928Y-92368000D01*
X81701500Y-92368000D01*
X81856000Y-92213500D01*
X81856000Y-93331968D01*
X81200000Y-93331968D01*
X81043668Y-93362300D01*
X80906267Y-93452557D01*
X80814292Y-93588815D01*
X80781968Y-93750000D01*
X80781968Y-94750000D01*
X80812300Y-94906332D01*
X80902557Y-95043733D01*
X81038815Y-95135708D01*
X81200000Y-95168032D01*
X81586000Y-95168032D01*
X81586000Y-95655114D01*
X81273267Y-95341835D01*
X80571563Y-95050462D01*
X79893112Y-95049869D01*
X79936123Y-94985501D01*
X79977000Y-94780000D01*
X79977000Y-93390000D01*
X79936123Y-93184499D01*
X79819717Y-93010284D01*
X79699716Y-92890284D01*
X78943032Y-92133600D01*
X78943032Y-91620000D01*
X78912700Y-91463668D01*
X78822443Y-91326267D01*
X78686185Y-91234292D01*
X78525000Y-91201968D01*
X77875000Y-91201968D01*
X77718668Y-91232300D01*
X77581267Y-91322557D01*
X77489292Y-91458815D01*
X77456968Y-91620000D01*
X77456968Y-92680000D01*
X77464728Y-92720000D01*
X77035010Y-92720000D01*
X77043032Y-92680000D01*
X77043032Y-91620000D01*
X77012700Y-91463668D01*
X76922443Y-91326267D01*
X76797468Y-91241908D01*
X76885708Y-91111185D01*
X76918032Y-90950000D01*
X76918032Y-90720000D01*
X78540000Y-90720000D01*
X80361201Y-90720000D01*
X80487366Y-90846385D01*
X80582000Y-90885680D01*
X80582000Y-90951500D01*
X80736500Y-91106000D01*
X81856000Y-91106000D01*
X81856000Y-90286500D01*
X81701500Y-90132000D01*
X81627585Y-90132000D01*
X81627626Y-90085926D01*
X81517104Y-89818442D01*
X81328990Y-89630000D01*
X84460000Y-89630000D01*
X84460000Y-89629999D01*
X84655169Y-89591179D01*
X84820624Y-89480624D01*
X88166248Y-86135000D01*
X91881968Y-86135000D01*
X91881968Y-86500000D01*
X91912300Y-86656332D01*
X91913234Y-86657754D01*
X91908615Y-86662366D01*
X91797626Y-86929656D01*
X91797374Y-87219074D01*
X91907896Y-87486558D01*
X92112366Y-87691385D01*
X92379656Y-87802374D01*
X92669074Y-87802626D01*
X92936558Y-87692104D01*
X93141385Y-87487634D01*
X93252374Y-87220344D01*
X93252506Y-87068742D01*
X93403216Y-86918032D01*
X93800000Y-86918032D01*
X93956332Y-86887700D01*
X94093733Y-86797443D01*
X94185708Y-86661185D01*
X94218032Y-86500000D01*
X94218032Y-86050000D01*
X94198309Y-85948348D01*
X94218032Y-85850000D01*
X94218032Y-85655952D01*
X94323915Y-85550069D01*
X94418000Y-85322928D01*
X94418000Y-85242000D01*
X94263500Y-85087500D01*
X94069640Y-85087500D01*
X93961185Y-85014292D01*
X93800000Y-84981968D01*
X92300000Y-84981968D01*
X92143668Y-85012300D01*
X92029188Y-85087500D01*
X91836500Y-85087500D01*
X91809000Y-85115000D01*
X91682000Y-85115000D01*
X88506248Y-85115000D01*
X89436248Y-84185000D01*
X91881968Y-84185000D01*
X91881968Y-84294048D01*
X91776085Y-84399931D01*
X91682000Y-84627072D01*
X91682000Y-84708000D01*
X91836500Y-84862500D01*
X92030359Y-84862500D01*
X92138815Y-84935708D01*
X92300000Y-84968032D01*
X93800000Y-84968032D01*
X93956332Y-84937700D01*
X94070811Y-84862500D01*
X94263500Y-84862500D01*
X94418000Y-84708000D01*
X94418000Y-84627072D01*
X94356056Y-84477527D01*
X94469074Y-84477626D01*
X94736558Y-84367104D01*
X94941385Y-84162634D01*
X95052374Y-83895344D01*
X95052626Y-83605926D01*
X94942104Y-83338442D01*
X94737634Y-83133615D01*
X94470344Y-83022626D01*
X94218032Y-83022406D01*
X94218032Y-82800000D01*
X94198309Y-82698348D01*
X94218032Y-82600000D01*
X94218032Y-82150000D01*
X94198309Y-82048348D01*
X94218032Y-81950000D01*
X94218032Y-81500000D01*
X94187700Y-81343668D01*
X94097443Y-81206267D01*
X93961185Y-81114292D01*
X93800000Y-81081968D01*
X92300000Y-81081968D01*
X92143668Y-81112300D01*
X92006267Y-81202557D01*
X91997867Y-81215000D01*
X88868000Y-81215000D01*
X88868000Y-75565428D01*
X88868000Y-75525750D01*
X88713500Y-75371250D01*
X87894000Y-75371250D01*
X87894000Y-75906000D01*
X88048500Y-76060500D01*
X88372928Y-76060500D01*
X88600069Y-75966415D01*
X88773915Y-75792569D01*
X88868000Y-75565428D01*
X88868000Y-81215000D01*
X87606000Y-81215000D01*
X87265000Y-81215000D01*
X86425000Y-81215000D01*
X86229831Y-81253821D01*
X86064375Y-81364376D01*
X84618000Y-82810751D01*
X84618000Y-82372928D01*
X84618000Y-82127072D01*
X84523915Y-81899931D01*
X84350069Y-81726085D01*
X84122928Y-81632000D01*
X83798500Y-81632000D01*
X83644000Y-81786500D01*
X83644000Y-83356000D01*
X83664000Y-83356000D01*
X83664000Y-83644000D01*
X83644000Y-83644000D01*
X83644000Y-85213500D01*
X83798500Y-85368000D01*
X83910751Y-85368000D01*
X83068751Y-86210000D01*
X82788833Y-86210000D01*
X82682634Y-86103615D01*
X82530715Y-86040532D01*
X82940624Y-85630624D01*
X82940625Y-85630624D01*
X83051179Y-85465169D01*
X83051180Y-85465168D01*
X83070507Y-85368000D01*
X83201500Y-85368000D01*
X83356000Y-85213500D01*
X83356000Y-83644000D01*
X83336000Y-83644000D01*
X83336000Y-83356000D01*
X83356000Y-83356000D01*
X83356000Y-81786500D01*
X83201500Y-81632000D01*
X83090000Y-81632000D01*
X83090000Y-78381248D01*
X86161248Y-75310000D01*
X86350000Y-75310000D01*
X86632000Y-75310000D01*
X86632000Y-75444002D01*
X86713748Y-75444002D01*
X86632000Y-75525750D01*
X86632000Y-75565428D01*
X86726085Y-75792569D01*
X86899931Y-75966415D01*
X87127072Y-76060500D01*
X87451500Y-76060500D01*
X87606000Y-75906000D01*
X87606000Y-75371250D01*
X87586000Y-75371250D01*
X87586000Y-75360532D01*
X88250000Y-75360532D01*
X88406332Y-75330200D01*
X88543733Y-75239943D01*
X88551288Y-75228750D01*
X88713500Y-75228750D01*
X88868000Y-75074250D01*
X88868000Y-75034572D01*
X88773915Y-74807431D01*
X88668032Y-74701548D01*
X88668032Y-74657500D01*
X88646830Y-74548224D01*
X88668032Y-74442500D01*
X88668032Y-74398452D01*
X88773915Y-74292569D01*
X88868000Y-74065428D01*
X88868000Y-74025750D01*
X88713500Y-73871250D01*
X88552358Y-73871250D01*
X88547443Y-73863767D01*
X88452644Y-73799777D01*
X88543733Y-73739943D01*
X88551288Y-73728750D01*
X88713500Y-73728750D01*
X88868000Y-73574250D01*
X88868000Y-73534572D01*
X88773915Y-73307431D01*
X88668032Y-73201548D01*
X88668032Y-73157500D01*
X88646830Y-73048224D01*
X88668032Y-72942500D01*
X88668032Y-72912166D01*
X88704656Y-72927374D01*
X88994074Y-72927626D01*
X89261558Y-72817104D01*
X89403409Y-72675500D01*
X89724994Y-72675500D01*
X89725000Y-72675501D01*
X89725000Y-72675500D01*
X89954801Y-72629790D01*
X89954802Y-72629790D01*
X90149618Y-72499618D01*
X90699614Y-71949620D01*
X90699617Y-71949618D01*
X90699618Y-71949618D01*
X90829789Y-71754802D01*
X90829790Y-71754801D01*
X90875500Y-71525000D01*
X90875500Y-70775000D01*
X90875500Y-67025005D01*
X90875500Y-67025000D01*
X90875501Y-67025000D01*
X90875500Y-67024994D01*
X90875500Y-62323736D01*
X92569208Y-60630027D01*
X92740000Y-60664000D01*
X97600000Y-60664000D01*
X97854102Y-60613456D01*
X98069519Y-60469519D01*
X100428000Y-58111038D01*
X100428000Y-59052000D01*
X100478544Y-59306102D01*
X100622481Y-59521519D01*
X102610481Y-61509519D01*
X102769841Y-61616000D01*
X102769841Y-61616000D01*
G37*
X102769841Y-61616000D02*
X94010000Y-61616000D01*
X93755898Y-61666544D01*
X93540481Y-61810481D01*
X92660481Y-62690481D01*
X92600481Y-62750481D01*
X92456544Y-62965898D01*
X92406000Y-63220000D01*
X92456544Y-63474102D01*
X92466000Y-63488253D01*
X92466000Y-67251746D01*
X92456544Y-67265898D01*
X92406000Y-67520000D01*
X92456544Y-67774102D01*
X92600481Y-67989519D01*
X92660481Y-68049519D01*
X92769788Y-68158826D01*
X92786000Y-68198060D01*
X92786000Y-71132085D01*
X92676544Y-71295898D01*
X92626000Y-71550000D01*
X92626000Y-74210000D01*
X92626000Y-77140000D01*
X92676544Y-77394102D01*
X92820481Y-77609519D01*
X95676000Y-80465038D01*
X95676000Y-81060000D01*
X95676000Y-83310000D01*
X95676000Y-87940000D01*
X95726544Y-88194102D01*
X95870481Y-88409519D01*
X97160481Y-89699519D01*
X97190481Y-89729519D01*
X97342295Y-89830958D01*
X96600460Y-89830958D01*
X96444128Y-89861290D01*
X96306727Y-89951547D01*
X96214752Y-90087805D01*
X96202869Y-90147060D01*
X95350445Y-90147060D01*
X95350440Y-90147059D01*
X95078329Y-90201186D01*
X95024202Y-90211953D01*
X94747631Y-90396751D01*
X94397191Y-90747191D01*
X94335413Y-90839648D01*
X94335412Y-90839648D01*
X94287113Y-90849020D01*
X93694006Y-90849020D01*
X93683100Y-90792808D01*
X93592843Y-90655407D01*
X93456585Y-90563432D01*
X93295400Y-90531108D01*
X92801392Y-90531108D01*
X92695509Y-90425225D01*
X92468368Y-90331140D01*
X92298500Y-90331140D01*
X92144000Y-90485640D01*
X92144000Y-91305520D01*
X92164000Y-91305520D01*
X92164000Y-91593520D01*
X92144000Y-91593520D01*
X92144000Y-92413400D01*
X92298500Y-92567900D01*
X92468368Y-92567900D01*
X92578469Y-92522294D01*
X92525342Y-92575422D01*
X92395170Y-92770238D01*
X92349459Y-93000040D01*
X92349460Y-93000045D01*
X92349460Y-93132874D01*
X92345440Y-93132068D01*
X91654560Y-93132068D01*
X91522880Y-93157616D01*
X91395480Y-93132068D01*
X90704600Y-93132068D01*
X90548268Y-93162400D01*
X90410867Y-93252657D01*
X90318892Y-93388915D01*
X90286568Y-93550100D01*
X90286568Y-94550860D01*
X90316900Y-94707192D01*
X90407157Y-94844593D01*
X90540040Y-94934289D01*
X90540040Y-95080040D01*
X90578861Y-95275209D01*
X90689416Y-95440664D01*
X90970719Y-95721968D01*
X90410000Y-95721968D01*
X90253668Y-95752300D01*
X90116267Y-95842557D01*
X90079180Y-95897500D01*
X88577450Y-95897500D01*
X88500000Y-95881968D01*
X88000000Y-95881968D01*
X87843668Y-95912300D01*
X87706267Y-96002557D01*
X87614292Y-96138815D01*
X87597783Y-96221134D01*
X87500000Y-96367478D01*
X87402940Y-96222219D01*
X87387700Y-96143668D01*
X87297443Y-96006267D01*
X87161185Y-95914292D01*
X87109555Y-95903938D01*
X87102500Y-95896882D01*
X87102500Y-94496932D01*
X88129716Y-93469716D01*
X88129717Y-93469716D01*
X88193243Y-93374641D01*
X88306332Y-93352700D01*
X88443733Y-93262443D01*
X88500120Y-93178907D01*
X88552557Y-93258733D01*
X88688815Y-93350708D01*
X88850000Y-93383032D01*
X89650000Y-93383032D01*
X89806332Y-93352700D01*
X89943733Y-93262443D01*
X90035708Y-93126185D01*
X90068032Y-92965000D01*
X90068032Y-92215000D01*
X90037700Y-92058668D01*
X90032019Y-92050020D01*
X90305993Y-92050020D01*
X90316900Y-92106232D01*
X90407157Y-92243633D01*
X90543415Y-92335608D01*
X90704600Y-92367932D01*
X91198608Y-92367932D01*
X91304491Y-92473815D01*
X91531632Y-92567900D01*
X91701500Y-92567900D01*
X91856000Y-92413400D01*
X91856000Y-91593520D01*
X91836000Y-91593520D01*
X91836000Y-91305520D01*
X91856000Y-91305520D01*
X91856000Y-90485640D01*
X91701500Y-90331140D01*
X91531632Y-90331140D01*
X91304491Y-90425225D01*
X91198608Y-90531108D01*
X90704600Y-90531108D01*
X90548268Y-90561440D01*
X90410867Y-90651697D01*
X90318892Y-90787955D01*
X90306646Y-90849020D01*
X90198255Y-90849020D01*
X89918032Y-90568796D01*
X89918032Y-90300000D01*
X89887700Y-90143668D01*
X89797443Y-90006267D01*
X89661185Y-89914292D01*
X89500000Y-89881968D01*
X89000000Y-89881968D01*
X88843668Y-89912300D01*
X88706267Y-90002557D01*
X88614292Y-90138815D01*
X88581968Y-90300000D01*
X88581968Y-91200000D01*
X88612300Y-91356332D01*
X88702557Y-91493733D01*
X88713000Y-91500782D01*
X88713000Y-91823549D01*
X88693668Y-91827300D01*
X88556267Y-91917557D01*
X88499879Y-92001092D01*
X88447443Y-91921267D01*
X88311185Y-91829292D01*
X88287000Y-91824441D01*
X88287000Y-91501865D01*
X88293733Y-91497443D01*
X88385708Y-91361185D01*
X88418032Y-91200000D01*
X88418032Y-90300000D01*
X88387700Y-90143668D01*
X88297443Y-90006267D01*
X88161185Y-89914292D01*
X88000000Y-89881968D01*
X87500000Y-89881968D01*
X87343668Y-89912300D01*
X87206267Y-90002557D01*
X87114292Y-90138815D01*
X87081968Y-90300000D01*
X87081968Y-91200000D01*
X87112300Y-91356332D01*
X87202557Y-91493733D01*
X87213000Y-91500782D01*
X87213000Y-91823549D01*
X87193668Y-91827300D01*
X87056267Y-91917557D01*
X86964292Y-92053815D01*
X86931968Y-92215000D01*
X86931968Y-92965000D01*
X86961802Y-93118765D01*
X86601377Y-93479190D01*
X86576238Y-93462393D01*
X86418000Y-93430917D01*
X86418000Y-91872928D01*
X86418000Y-91548500D01*
X86418000Y-90951500D01*
X86418000Y-90627072D01*
X86323915Y-90399931D01*
X86150069Y-90226085D01*
X85922928Y-90132000D01*
X85677072Y-90132000D01*
X85298500Y-90132000D01*
X85144000Y-90286500D01*
X85144000Y-91106000D01*
X86263500Y-91106000D01*
X86418000Y-90951500D01*
X86418000Y-91548500D01*
X86263500Y-91394000D01*
X85144000Y-91394000D01*
X85144000Y-92213500D01*
X85298500Y-92368000D01*
X85677072Y-92368000D01*
X85922928Y-92368000D01*
X86150069Y-92273915D01*
X86323915Y-92100069D01*
X86418000Y-91872928D01*
X86418000Y-93430917D01*
X86250000Y-93397500D01*
X86010381Y-93397500D01*
X85961185Y-93364292D01*
X85800000Y-93331968D01*
X84856000Y-93331968D01*
X84856000Y-92213500D01*
X84856000Y-91394000D01*
X84856000Y-91106000D01*
X84856000Y-90286500D01*
X84701500Y-90132000D01*
X84322928Y-90132000D01*
X84077072Y-90132000D01*
X83849931Y-90226085D01*
X83676085Y-90399931D01*
X83582000Y-90627072D01*
X83582000Y-90951500D01*
X83736500Y-91106000D01*
X84856000Y-91106000D01*
X84856000Y-91394000D01*
X83736500Y-91394000D01*
X83582000Y-91548500D01*
X83582000Y-91872928D01*
X83676085Y-92100069D01*
X83849931Y-92273915D01*
X84077072Y-92368000D01*
X84322928Y-92368000D01*
X84701500Y-92368000D01*
X84856000Y-92213500D01*
X84856000Y-93331968D01*
X84200000Y-93331968D01*
X84043668Y-93362300D01*
X83906267Y-93452557D01*
X83814292Y-93588815D01*
X83781968Y-93750000D01*
X83781968Y-94750000D01*
X83812300Y-94906332D01*
X83902557Y-95043733D01*
X84038815Y-95135708D01*
X84200000Y-95168032D01*
X85397500Y-95168032D01*
X85397500Y-95546882D01*
X85046882Y-95897500D01*
X84077450Y-95897500D01*
X84000000Y-95881968D01*
X83500000Y-95881968D01*
X83418000Y-95897877D01*
X83418000Y-91872928D01*
X83418000Y-91548500D01*
X83418000Y-90951500D01*
X83418000Y-90627072D01*
X83323915Y-90399931D01*
X83150069Y-90226085D01*
X82922928Y-90132000D01*
X82677072Y-90132000D01*
X82298500Y-90132000D01*
X82144000Y-90286500D01*
X82144000Y-91106000D01*
X83263500Y-91106000D01*
X83418000Y-90951500D01*
X83418000Y-91548500D01*
X83263500Y-91394000D01*
X82144000Y-91394000D01*
X82144000Y-92213500D01*
X82298500Y-92368000D01*
X82677072Y-92368000D01*
X82922928Y-92368000D01*
X83150069Y-92273915D01*
X83323915Y-92100069D01*
X83418000Y-91872928D01*
X83418000Y-95897877D01*
X83343668Y-95912300D01*
X83206267Y-96002557D01*
X83114292Y-96138815D01*
X83097783Y-96221134D01*
X82962393Y-96423762D01*
X82918032Y-96646779D01*
X82918032Y-96300000D01*
X82914000Y-96279218D01*
X82914000Y-95145913D01*
X82956332Y-95137700D01*
X83093733Y-95047443D01*
X83185708Y-94911185D01*
X83218032Y-94750000D01*
X83218032Y-93750000D01*
X83187700Y-93593668D01*
X83097443Y-93456267D01*
X82961185Y-93364292D01*
X82800000Y-93331968D01*
X81856000Y-93331968D01*
X81856000Y-92213500D01*
X81856000Y-91394000D01*
X80736500Y-91394000D01*
X80582000Y-91548500D01*
X80582000Y-91872928D01*
X80676085Y-92100069D01*
X80849931Y-92273915D01*
X81077072Y-92368000D01*
X81322928Y-92368000D01*
X81701500Y-92368000D01*
X81856000Y-92213500D01*
X81856000Y-93331968D01*
X81200000Y-93331968D01*
X81043668Y-93362300D01*
X80906267Y-93452557D01*
X80814292Y-93588815D01*
X80781968Y-93750000D01*
X80781968Y-94750000D01*
X80812300Y-94906332D01*
X80902557Y-95043733D01*
X81038815Y-95135708D01*
X81200000Y-95168032D01*
X81586000Y-95168032D01*
X81586000Y-95655114D01*
X81273267Y-95341835D01*
X80571563Y-95050462D01*
X79893112Y-95049869D01*
X79936123Y-94985501D01*
X79977000Y-94780000D01*
X79977000Y-93390000D01*
X79936123Y-93184499D01*
X79819717Y-93010284D01*
X79699716Y-92890284D01*
X78943032Y-92133600D01*
X78943032Y-91620000D01*
X78912700Y-91463668D01*
X78822443Y-91326267D01*
X78686185Y-91234292D01*
X78525000Y-91201968D01*
X77875000Y-91201968D01*
X77718668Y-91232300D01*
X77581267Y-91322557D01*
X77489292Y-91458815D01*
X77456968Y-91620000D01*
X77456968Y-92680000D01*
X77464728Y-92720000D01*
X77035010Y-92720000D01*
X77043032Y-92680000D01*
X77043032Y-91620000D01*
X77012700Y-91463668D01*
X76922443Y-91326267D01*
X76797468Y-91241908D01*
X76885708Y-91111185D01*
X76918032Y-90950000D01*
X76918032Y-90720000D01*
X78540000Y-90720000D01*
X80361201Y-90720000D01*
X80487366Y-90846385D01*
X80582000Y-90885680D01*
X80582000Y-90951500D01*
X80736500Y-91106000D01*
X81856000Y-91106000D01*
X81856000Y-90286500D01*
X81701500Y-90132000D01*
X81627585Y-90132000D01*
X81627626Y-90085926D01*
X81517104Y-89818442D01*
X81328990Y-89630000D01*
X84460000Y-89630000D01*
X84460000Y-89629999D01*
X84655169Y-89591179D01*
X84820624Y-89480624D01*
X88166248Y-86135000D01*
X91881968Y-86135000D01*
X91881968Y-86500000D01*
X91912300Y-86656332D01*
X91913234Y-86657754D01*
X91908615Y-86662366D01*
X91797626Y-86929656D01*
X91797374Y-87219074D01*
X91907896Y-87486558D01*
X92112366Y-87691385D01*
X92379656Y-87802374D01*
X92669074Y-87802626D01*
X92936558Y-87692104D01*
X93141385Y-87487634D01*
X93252374Y-87220344D01*
X93252506Y-87068742D01*
X93403216Y-86918032D01*
X93800000Y-86918032D01*
X93956332Y-86887700D01*
X94093733Y-86797443D01*
X94185708Y-86661185D01*
X94218032Y-86500000D01*
X94218032Y-86050000D01*
X94198309Y-85948348D01*
X94218032Y-85850000D01*
X94218032Y-85655952D01*
X94323915Y-85550069D01*
X94418000Y-85322928D01*
X94418000Y-85242000D01*
X94263500Y-85087500D01*
X94069640Y-85087500D01*
X93961185Y-85014292D01*
X93800000Y-84981968D01*
X92300000Y-84981968D01*
X92143668Y-85012300D01*
X92029188Y-85087500D01*
X91836500Y-85087500D01*
X91809000Y-85115000D01*
X91682000Y-85115000D01*
X88506248Y-85115000D01*
X89436248Y-84185000D01*
X91881968Y-84185000D01*
X91881968Y-84294048D01*
X91776085Y-84399931D01*
X91682000Y-84627072D01*
X91682000Y-84708000D01*
X91836500Y-84862500D01*
X92030359Y-84862500D01*
X92138815Y-84935708D01*
X92300000Y-84968032D01*
X93800000Y-84968032D01*
X93956332Y-84937700D01*
X94070811Y-84862500D01*
X94263500Y-84862500D01*
X94418000Y-84708000D01*
X94418000Y-84627072D01*
X94356056Y-84477527D01*
X94469074Y-84477626D01*
X94736558Y-84367104D01*
X94941385Y-84162634D01*
X95052374Y-83895344D01*
X95052626Y-83605926D01*
X94942104Y-83338442D01*
X94737634Y-83133615D01*
X94470344Y-83022626D01*
X94218032Y-83022406D01*
X94218032Y-82800000D01*
X94198309Y-82698348D01*
X94218032Y-82600000D01*
X94218032Y-82150000D01*
X94198309Y-82048348D01*
X94218032Y-81950000D01*
X94218032Y-81500000D01*
X94187700Y-81343668D01*
X94097443Y-81206267D01*
X93961185Y-81114292D01*
X93800000Y-81081968D01*
X92300000Y-81081968D01*
X92143668Y-81112300D01*
X92006267Y-81202557D01*
X91997867Y-81215000D01*
X88868000Y-81215000D01*
X88868000Y-75565428D01*
X88868000Y-75525750D01*
X88713500Y-75371250D01*
X87894000Y-75371250D01*
X87894000Y-75906000D01*
X88048500Y-76060500D01*
X88372928Y-76060500D01*
X88600069Y-75966415D01*
X88773915Y-75792569D01*
X88868000Y-75565428D01*
X88868000Y-81215000D01*
X87606000Y-81215000D01*
X87265000Y-81215000D01*
X86425000Y-81215000D01*
X86229831Y-81253821D01*
X86064375Y-81364376D01*
X84618000Y-82810751D01*
X84618000Y-82372928D01*
X84618000Y-82127072D01*
X84523915Y-81899931D01*
X84350069Y-81726085D01*
X84122928Y-81632000D01*
X83798500Y-81632000D01*
X83644000Y-81786500D01*
X83644000Y-83356000D01*
X83664000Y-83356000D01*
X83664000Y-83644000D01*
X83644000Y-83644000D01*
X83644000Y-85213500D01*
X83798500Y-85368000D01*
X83910751Y-85368000D01*
X83068751Y-86210000D01*
X82788833Y-86210000D01*
X82682634Y-86103615D01*
X82530715Y-86040532D01*
X82940624Y-85630624D01*
X82940625Y-85630624D01*
X83051179Y-85465169D01*
X83051180Y-85465168D01*
X83070507Y-85368000D01*
X83201500Y-85368000D01*
X83356000Y-85213500D01*
X83356000Y-83644000D01*
X83336000Y-83644000D01*
X83336000Y-83356000D01*
X83356000Y-83356000D01*
X83356000Y-81786500D01*
X83201500Y-81632000D01*
X83090000Y-81632000D01*
X83090000Y-78381248D01*
X86161248Y-75310000D01*
X86350000Y-75310000D01*
X86632000Y-75310000D01*
X86632000Y-75444002D01*
X86713748Y-75444002D01*
X86632000Y-75525750D01*
X86632000Y-75565428D01*
X86726085Y-75792569D01*
X86899931Y-75966415D01*
X87127072Y-76060500D01*
X87451500Y-76060500D01*
X87606000Y-75906000D01*
X87606000Y-75371250D01*
X87586000Y-75371250D01*
X87586000Y-75360532D01*
X88250000Y-75360532D01*
X88406332Y-75330200D01*
X88543733Y-75239943D01*
X88551288Y-75228750D01*
X88713500Y-75228750D01*
X88868000Y-75074250D01*
X88868000Y-75034572D01*
X88773915Y-74807431D01*
X88668032Y-74701548D01*
X88668032Y-74657500D01*
X88646830Y-74548224D01*
X88668032Y-74442500D01*
X88668032Y-74398452D01*
X88773915Y-74292569D01*
X88868000Y-74065428D01*
X88868000Y-74025750D01*
X88713500Y-73871250D01*
X88552358Y-73871250D01*
X88547443Y-73863767D01*
X88452644Y-73799777D01*
X88543733Y-73739943D01*
X88551288Y-73728750D01*
X88713500Y-73728750D01*
X88868000Y-73574250D01*
X88868000Y-73534572D01*
X88773915Y-73307431D01*
X88668032Y-73201548D01*
X88668032Y-73157500D01*
X88646830Y-73048224D01*
X88668032Y-72942500D01*
X88668032Y-72912166D01*
X88704656Y-72927374D01*
X88994074Y-72927626D01*
X89261558Y-72817104D01*
X89403409Y-72675500D01*
X89724994Y-72675500D01*
X89725000Y-72675501D01*
X89725000Y-72675500D01*
X89954801Y-72629790D01*
X89954802Y-72629790D01*
X90149618Y-72499618D01*
X90699614Y-71949620D01*
X90699617Y-71949618D01*
X90699618Y-71949618D01*
X90829789Y-71754802D01*
X90829790Y-71754801D01*
X90875500Y-71525000D01*
X90875500Y-70775000D01*
X90875500Y-67025005D01*
X90875500Y-67025000D01*
X90875501Y-67025000D01*
X90875500Y-67024994D01*
X90875500Y-62323736D01*
X92569208Y-60630027D01*
X92740000Y-60664000D01*
X97600000Y-60664000D01*
X97854102Y-60613456D01*
X98069519Y-60469519D01*
X100428000Y-58111038D01*
X100428000Y-59052000D01*
X100478544Y-59306102D01*
X100622481Y-59521519D01*
X102610481Y-61509519D01*
X102769841Y-61616000D01*
G36*
X102786000Y-92994962D02*
X102194962Y-93586000D01*
X102007662Y-93586000D01*
X101922443Y-93456267D01*
X101786185Y-93364292D01*
X101766439Y-93360332D01*
X101975069Y-93273915D01*
X102148915Y-93100069D01*
X102243000Y-92872928D01*
X102243000Y-92548500D01*
X102088500Y-92394000D01*
X101144000Y-92394000D01*
X101144000Y-92414000D01*
X100856000Y-92414000D01*
X100856000Y-92394000D01*
X99911500Y-92394000D01*
X99757000Y-92548500D01*
X99757000Y-92567962D01*
X99469519Y-92280481D01*
X99301421Y-92168162D01*
X99399540Y-92168162D01*
X99555872Y-92137830D01*
X99693273Y-92047573D01*
X99757670Y-91952170D01*
X99911500Y-92106000D01*
X100856000Y-92106000D01*
X100856000Y-91286500D01*
X100701500Y-91132000D01*
X100497928Y-91132000D01*
X100252072Y-91132000D01*
X100024931Y-91226085D01*
X99851085Y-91399931D01*
X99817572Y-91480838D01*
X99817572Y-90248990D01*
X99787240Y-90092658D01*
X99696983Y-89955257D01*
X99606232Y-89894000D01*
X100314962Y-89894000D01*
X101552962Y-91132000D01*
X101502072Y-91132000D01*
X101298500Y-91132000D01*
X101144000Y-91286500D01*
X101144000Y-92106000D01*
X102088500Y-92106000D01*
X102243000Y-91951500D01*
X102243000Y-91822038D01*
X102786000Y-92365038D01*
X102786000Y-92994962D01*
X102786000Y-92994962D01*
G37*
X102786000Y-92994962D02*
X102194962Y-93586000D01*
X102007662Y-93586000D01*
X101922443Y-93456267D01*
X101786185Y-93364292D01*
X101766439Y-93360332D01*
X101975069Y-93273915D01*
X102148915Y-93100069D01*
X102243000Y-92872928D01*
X102243000Y-92548500D01*
X102088500Y-92394000D01*
X101144000Y-92394000D01*
X101144000Y-92414000D01*
X100856000Y-92414000D01*
X100856000Y-92394000D01*
X99911500Y-92394000D01*
X99757000Y-92548500D01*
X99757000Y-92567962D01*
X99469519Y-92280481D01*
X99301421Y-92168162D01*
X99399540Y-92168162D01*
X99555872Y-92137830D01*
X99693273Y-92047573D01*
X99757670Y-91952170D01*
X99911500Y-92106000D01*
X100856000Y-92106000D01*
X100856000Y-91286500D01*
X100701500Y-91132000D01*
X100497928Y-91132000D01*
X100252072Y-91132000D01*
X100024931Y-91226085D01*
X99851085Y-91399931D01*
X99817572Y-91480838D01*
X99817572Y-90248990D01*
X99787240Y-90092658D01*
X99696983Y-89955257D01*
X99606232Y-89894000D01*
X100314962Y-89894000D01*
X101552962Y-91132000D01*
X101502072Y-91132000D01*
X101298500Y-91132000D01*
X101144000Y-91286500D01*
X101144000Y-92106000D01*
X102088500Y-92106000D01*
X102243000Y-91951500D01*
X102243000Y-91822038D01*
X102786000Y-92365038D01*
X102786000Y-92994962D01*
G36*
X103940126Y-62880500D02*
X103798396Y-63092614D01*
X103701449Y-63580000D01*
X103743220Y-63790000D01*
X96368000Y-63790000D01*
X96368000Y-63655998D01*
X96286252Y-63655998D01*
X96368000Y-63574250D01*
X96368000Y-63534572D01*
X96273915Y-63307431D01*
X96100069Y-63133585D01*
X95872928Y-63039500D01*
X95548500Y-63039500D01*
X95394000Y-63194000D01*
X95394000Y-63728750D01*
X95414000Y-63728750D01*
X95414000Y-63739468D01*
X95106000Y-63739468D01*
X95106000Y-63728750D01*
X95106000Y-63194000D01*
X94951500Y-63039500D01*
X94627072Y-63039500D01*
X94399931Y-63133585D01*
X94226085Y-63307431D01*
X94132000Y-63534572D01*
X94132000Y-63574250D01*
X94286500Y-63728750D01*
X95106000Y-63728750D01*
X95106000Y-63739468D01*
X94750000Y-63739468D01*
X94593668Y-63769800D01*
X94456267Y-63860057D01*
X94448711Y-63871250D01*
X94286500Y-63871250D01*
X94132000Y-64025750D01*
X94132000Y-64065428D01*
X94226085Y-64292569D01*
X94331968Y-64398452D01*
X94331968Y-64442500D01*
X94353169Y-64551775D01*
X94331968Y-64657500D01*
X94331968Y-64701548D01*
X94226085Y-64807431D01*
X94132000Y-65034572D01*
X94132000Y-65074250D01*
X94286500Y-65228750D01*
X94447641Y-65228750D01*
X94452557Y-65236233D01*
X94547355Y-65300222D01*
X94456267Y-65360057D01*
X94448711Y-65371250D01*
X94286500Y-65371250D01*
X94132000Y-65525750D01*
X94132000Y-65565428D01*
X94226085Y-65792569D01*
X94331968Y-65898452D01*
X94331968Y-65942500D01*
X94353169Y-66051775D01*
X94331968Y-66157500D01*
X94331968Y-66312249D01*
X94170284Y-66420284D01*
X93794000Y-66796568D01*
X93794000Y-63435038D01*
X94285038Y-62944000D01*
X103320000Y-62944000D01*
X103574102Y-62893456D01*
X103593492Y-62880500D01*
X103940126Y-62880500D01*
X103940126Y-62880500D01*
G37*
X103940126Y-62880500D02*
X103798396Y-63092614D01*
X103701449Y-63580000D01*
X103743220Y-63790000D01*
X96368000Y-63790000D01*
X96368000Y-63655998D01*
X96286252Y-63655998D01*
X96368000Y-63574250D01*
X96368000Y-63534572D01*
X96273915Y-63307431D01*
X96100069Y-63133585D01*
X95872928Y-63039500D01*
X95548500Y-63039500D01*
X95394000Y-63194000D01*
X95394000Y-63728750D01*
X95414000Y-63728750D01*
X95414000Y-63739468D01*
X95106000Y-63739468D01*
X95106000Y-63728750D01*
X95106000Y-63194000D01*
X94951500Y-63039500D01*
X94627072Y-63039500D01*
X94399931Y-63133585D01*
X94226085Y-63307431D01*
X94132000Y-63534572D01*
X94132000Y-63574250D01*
X94286500Y-63728750D01*
X95106000Y-63728750D01*
X95106000Y-63739468D01*
X94750000Y-63739468D01*
X94593668Y-63769800D01*
X94456267Y-63860057D01*
X94448711Y-63871250D01*
X94286500Y-63871250D01*
X94132000Y-64025750D01*
X94132000Y-64065428D01*
X94226085Y-64292569D01*
X94331968Y-64398452D01*
X94331968Y-64442500D01*
X94353169Y-64551775D01*
X94331968Y-64657500D01*
X94331968Y-64701548D01*
X94226085Y-64807431D01*
X94132000Y-65034572D01*
X94132000Y-65074250D01*
X94286500Y-65228750D01*
X94447641Y-65228750D01*
X94452557Y-65236233D01*
X94547355Y-65300222D01*
X94456267Y-65360057D01*
X94448711Y-65371250D01*
X94286500Y-65371250D01*
X94132000Y-65525750D01*
X94132000Y-65565428D01*
X94226085Y-65792569D01*
X94331968Y-65898452D01*
X94331968Y-65942500D01*
X94353169Y-66051775D01*
X94331968Y-66157500D01*
X94331968Y-66312249D01*
X94170284Y-66420284D01*
X93794000Y-66796568D01*
X93794000Y-63435038D01*
X94285038Y-62944000D01*
X103320000Y-62944000D01*
X103574102Y-62893456D01*
X103593492Y-62880500D01*
X103940126Y-62880500D01*
G36*
X103973869Y-84650000D02*
X102481248Y-84650000D01*
X102445624Y-84614376D01*
X102280169Y-84503821D01*
X102224434Y-84492734D01*
X102243032Y-84400000D01*
X102243032Y-83600000D01*
X102212700Y-83443668D01*
X102189949Y-83409034D01*
X102348915Y-83250069D01*
X102443000Y-83022928D01*
X102443000Y-82798500D01*
X102288500Y-82644000D01*
X101594000Y-82644000D01*
X101594000Y-82664000D01*
X101306000Y-82664000D01*
X101306000Y-82644000D01*
X101306000Y-82356000D01*
X101306000Y-81636500D01*
X101151500Y-81482000D01*
X100952072Y-81482000D01*
X100724931Y-81576085D01*
X100551085Y-81749931D01*
X100457000Y-81977072D01*
X100457000Y-82201500D01*
X100611500Y-82356000D01*
X101306000Y-82356000D01*
X101306000Y-82644000D01*
X100611500Y-82644000D01*
X100457000Y-82798500D01*
X100457000Y-83022928D01*
X100551085Y-83250069D01*
X100709658Y-83408642D01*
X100689292Y-83438815D01*
X100656968Y-83600000D01*
X100656968Y-83815000D01*
X100318000Y-83815000D01*
X100191000Y-83815000D01*
X100163500Y-83787500D01*
X100017271Y-83787500D01*
X100050069Y-83773915D01*
X100223915Y-83600069D01*
X100293200Y-83432799D01*
X100318000Y-83408000D01*
X100318000Y-83372928D01*
X100318000Y-83327072D01*
X100318000Y-83292000D01*
X100293200Y-83267200D01*
X100223915Y-83099931D01*
X100148984Y-83025000D01*
X100223915Y-82950069D01*
X100293200Y-82782799D01*
X100318000Y-82758000D01*
X100318000Y-82722928D01*
X100318000Y-82677072D01*
X100318000Y-82642000D01*
X100293200Y-82617200D01*
X100223915Y-82449931D01*
X100148984Y-82375000D01*
X100223915Y-82300069D01*
X100293200Y-82132799D01*
X100318000Y-82108000D01*
X100318000Y-82072928D01*
X100318000Y-82027072D01*
X100318000Y-81992000D01*
X100293200Y-81967200D01*
X100223915Y-81799931D01*
X100050069Y-81626085D01*
X100017271Y-81612500D01*
X100163500Y-81612500D01*
X100318000Y-81458000D01*
X100318000Y-81377072D01*
X100223915Y-81149931D01*
X100050069Y-80976085D01*
X99822928Y-80882000D01*
X99248500Y-80882000D01*
X99094000Y-81036500D01*
X99094000Y-81612500D01*
X99168000Y-81612500D01*
X99094000Y-81686500D01*
X99094000Y-81837500D01*
X99094000Y-82262500D01*
X99094000Y-82336500D01*
X99094000Y-82413500D01*
X99094000Y-82487500D01*
X99094000Y-82912500D01*
X99094000Y-82986500D01*
X99094000Y-83063500D01*
X99094000Y-83137500D01*
X99094000Y-83189000D01*
X98806000Y-83189000D01*
X98806000Y-83137500D01*
X98806000Y-83063500D01*
X98806000Y-82986500D01*
X98806000Y-82912500D01*
X98806000Y-82487500D01*
X98806000Y-82413500D01*
X98806000Y-82336500D01*
X98806000Y-82262500D01*
X98806000Y-81837500D01*
X98806000Y-81686500D01*
X98732000Y-81612500D01*
X98806000Y-81612500D01*
X98806000Y-81036500D01*
X98651500Y-80882000D01*
X98077072Y-80882000D01*
X97849931Y-80976085D01*
X97676085Y-81149931D01*
X97582000Y-81377072D01*
X97582000Y-81458000D01*
X97736500Y-81612500D01*
X97882728Y-81612500D01*
X97849931Y-81626085D01*
X97676085Y-81799931D01*
X97606799Y-81967200D01*
X97582000Y-81992000D01*
X97582000Y-82027072D01*
X97582000Y-82072928D01*
X97582000Y-82108000D01*
X97606799Y-82132799D01*
X97676085Y-82300069D01*
X97751016Y-82375000D01*
X97676085Y-82449931D01*
X97606799Y-82617200D01*
X97582000Y-82642000D01*
X97582000Y-82677072D01*
X97582000Y-82722928D01*
X97582000Y-82758000D01*
X97606799Y-82782799D01*
X97676085Y-82950069D01*
X97751016Y-83025000D01*
X97676085Y-83099931D01*
X97606799Y-83267200D01*
X97582000Y-83292000D01*
X97582000Y-83327072D01*
X97582000Y-83372928D01*
X97582000Y-83408000D01*
X97606799Y-83432799D01*
X97647474Y-83530998D01*
X97582000Y-83530998D01*
X97582000Y-83668820D01*
X97469519Y-83500481D01*
X97004000Y-83034962D01*
X97004000Y-81060000D01*
X97004000Y-80190000D01*
X96953456Y-79935898D01*
X96809519Y-79720481D01*
X95106000Y-78016962D01*
X95106000Y-75906000D01*
X95106000Y-75371250D01*
X94286500Y-75371250D01*
X94132000Y-75525750D01*
X94132000Y-75565428D01*
X94226085Y-75792569D01*
X94399931Y-75966415D01*
X94627072Y-76060500D01*
X94951500Y-76060500D01*
X95106000Y-75906000D01*
X95106000Y-78016962D01*
X93954000Y-76864962D01*
X93954000Y-74210000D01*
X93954000Y-72703805D01*
X93988559Y-72726896D01*
X94054831Y-72771179D01*
X94054832Y-72771179D01*
X94250000Y-72810000D01*
X94331968Y-72810000D01*
X94331968Y-72942500D01*
X94353169Y-73051775D01*
X94331968Y-73157500D01*
X94331968Y-73201548D01*
X94226085Y-73307431D01*
X94132000Y-73534572D01*
X94132000Y-73574250D01*
X94286500Y-73728750D01*
X94447641Y-73728750D01*
X94452557Y-73736233D01*
X94547355Y-73800222D01*
X94456267Y-73860057D01*
X94448711Y-73871250D01*
X94286500Y-73871250D01*
X94132000Y-74025750D01*
X94132000Y-74065428D01*
X94226085Y-74292569D01*
X94331968Y-74398452D01*
X94331968Y-74442500D01*
X94353169Y-74551775D01*
X94331968Y-74657500D01*
X94331968Y-74701548D01*
X94226085Y-74807431D01*
X94132000Y-75034572D01*
X94132000Y-75074250D01*
X94286500Y-75228750D01*
X94447641Y-75228750D01*
X94452557Y-75236233D01*
X94588815Y-75328208D01*
X94750000Y-75360532D01*
X95414000Y-75360532D01*
X95414000Y-75371250D01*
X95394000Y-75371250D01*
X95394000Y-75906000D01*
X95548500Y-76060500D01*
X95872928Y-76060500D01*
X96018821Y-76000069D01*
X101624625Y-81605874D01*
X101594000Y-81636500D01*
X101594000Y-82356000D01*
X102288500Y-82356000D01*
X102331625Y-82312874D01*
X103737501Y-83718750D01*
X103701449Y-83900000D01*
X103798396Y-84387386D01*
X103973869Y-84650000D01*
X103973869Y-84650000D01*
G37*
X103973869Y-84650000D02*
X102481248Y-84650000D01*
X102445624Y-84614376D01*
X102280169Y-84503821D01*
X102224434Y-84492734D01*
X102243032Y-84400000D01*
X102243032Y-83600000D01*
X102212700Y-83443668D01*
X102189949Y-83409034D01*
X102348915Y-83250069D01*
X102443000Y-83022928D01*
X102443000Y-82798500D01*
X102288500Y-82644000D01*
X101594000Y-82644000D01*
X101594000Y-82664000D01*
X101306000Y-82664000D01*
X101306000Y-82644000D01*
X101306000Y-82356000D01*
X101306000Y-81636500D01*
X101151500Y-81482000D01*
X100952072Y-81482000D01*
X100724931Y-81576085D01*
X100551085Y-81749931D01*
X100457000Y-81977072D01*
X100457000Y-82201500D01*
X100611500Y-82356000D01*
X101306000Y-82356000D01*
X101306000Y-82644000D01*
X100611500Y-82644000D01*
X100457000Y-82798500D01*
X100457000Y-83022928D01*
X100551085Y-83250069D01*
X100709658Y-83408642D01*
X100689292Y-83438815D01*
X100656968Y-83600000D01*
X100656968Y-83815000D01*
X100318000Y-83815000D01*
X100191000Y-83815000D01*
X100163500Y-83787500D01*
X100017271Y-83787500D01*
X100050069Y-83773915D01*
X100223915Y-83600069D01*
X100293200Y-83432799D01*
X100318000Y-83408000D01*
X100318000Y-83372928D01*
X100318000Y-83327072D01*
X100318000Y-83292000D01*
X100293200Y-83267200D01*
X100223915Y-83099931D01*
X100148984Y-83025000D01*
X100223915Y-82950069D01*
X100293200Y-82782799D01*
X100318000Y-82758000D01*
X100318000Y-82722928D01*
X100318000Y-82677072D01*
X100318000Y-82642000D01*
X100293200Y-82617200D01*
X100223915Y-82449931D01*
X100148984Y-82375000D01*
X100223915Y-82300069D01*
X100293200Y-82132799D01*
X100318000Y-82108000D01*
X100318000Y-82072928D01*
X100318000Y-82027072D01*
X100318000Y-81992000D01*
X100293200Y-81967200D01*
X100223915Y-81799931D01*
X100050069Y-81626085D01*
X100017271Y-81612500D01*
X100163500Y-81612500D01*
X100318000Y-81458000D01*
X100318000Y-81377072D01*
X100223915Y-81149931D01*
X100050069Y-80976085D01*
X99822928Y-80882000D01*
X99248500Y-80882000D01*
X99094000Y-81036500D01*
X99094000Y-81612500D01*
X99168000Y-81612500D01*
X99094000Y-81686500D01*
X99094000Y-81837500D01*
X99094000Y-82262500D01*
X99094000Y-82336500D01*
X99094000Y-82413500D01*
X99094000Y-82487500D01*
X99094000Y-82912500D01*
X99094000Y-82986500D01*
X99094000Y-83063500D01*
X99094000Y-83137500D01*
X99094000Y-83189000D01*
X98806000Y-83189000D01*
X98806000Y-83137500D01*
X98806000Y-83063500D01*
X98806000Y-82986500D01*
X98806000Y-82912500D01*
X98806000Y-82487500D01*
X98806000Y-82413500D01*
X98806000Y-82336500D01*
X98806000Y-82262500D01*
X98806000Y-81837500D01*
X98806000Y-81686500D01*
X98732000Y-81612500D01*
X98806000Y-81612500D01*
X98806000Y-81036500D01*
X98651500Y-80882000D01*
X98077072Y-80882000D01*
X97849931Y-80976085D01*
X97676085Y-81149931D01*
X97582000Y-81377072D01*
X97582000Y-81458000D01*
X97736500Y-81612500D01*
X97882728Y-81612500D01*
X97849931Y-81626085D01*
X97676085Y-81799931D01*
X97606799Y-81967200D01*
X97582000Y-81992000D01*
X97582000Y-82027072D01*
X97582000Y-82072928D01*
X97582000Y-82108000D01*
X97606799Y-82132799D01*
X97676085Y-82300069D01*
X97751016Y-82375000D01*
X97676085Y-82449931D01*
X97606799Y-82617200D01*
X97582000Y-82642000D01*
X97582000Y-82677072D01*
X97582000Y-82722928D01*
X97582000Y-82758000D01*
X97606799Y-82782799D01*
X97676085Y-82950069D01*
X97751016Y-83025000D01*
X97676085Y-83099931D01*
X97606799Y-83267200D01*
X97582000Y-83292000D01*
X97582000Y-83327072D01*
X97582000Y-83372928D01*
X97582000Y-83408000D01*
X97606799Y-83432799D01*
X97647474Y-83530998D01*
X97582000Y-83530998D01*
X97582000Y-83668820D01*
X97469519Y-83500481D01*
X97004000Y-83034962D01*
X97004000Y-81060000D01*
X97004000Y-80190000D01*
X96953456Y-79935898D01*
X96809519Y-79720481D01*
X95106000Y-78016962D01*
X95106000Y-75906000D01*
X95106000Y-75371250D01*
X94286500Y-75371250D01*
X94132000Y-75525750D01*
X94132000Y-75565428D01*
X94226085Y-75792569D01*
X94399931Y-75966415D01*
X94627072Y-76060500D01*
X94951500Y-76060500D01*
X95106000Y-75906000D01*
X95106000Y-78016962D01*
X93954000Y-76864962D01*
X93954000Y-74210000D01*
X93954000Y-72703805D01*
X93988559Y-72726896D01*
X94054831Y-72771179D01*
X94054832Y-72771179D01*
X94250000Y-72810000D01*
X94331968Y-72810000D01*
X94331968Y-72942500D01*
X94353169Y-73051775D01*
X94331968Y-73157500D01*
X94331968Y-73201548D01*
X94226085Y-73307431D01*
X94132000Y-73534572D01*
X94132000Y-73574250D01*
X94286500Y-73728750D01*
X94447641Y-73728750D01*
X94452557Y-73736233D01*
X94547355Y-73800222D01*
X94456267Y-73860057D01*
X94448711Y-73871250D01*
X94286500Y-73871250D01*
X94132000Y-74025750D01*
X94132000Y-74065428D01*
X94226085Y-74292569D01*
X94331968Y-74398452D01*
X94331968Y-74442500D01*
X94353169Y-74551775D01*
X94331968Y-74657500D01*
X94331968Y-74701548D01*
X94226085Y-74807431D01*
X94132000Y-75034572D01*
X94132000Y-75074250D01*
X94286500Y-75228750D01*
X94447641Y-75228750D01*
X94452557Y-75236233D01*
X94588815Y-75328208D01*
X94750000Y-75360532D01*
X95414000Y-75360532D01*
X95414000Y-75371250D01*
X95394000Y-75371250D01*
X95394000Y-75906000D01*
X95548500Y-76060500D01*
X95872928Y-76060500D01*
X96018821Y-76000069D01*
X101624625Y-81605874D01*
X101594000Y-81636500D01*
X101594000Y-82356000D01*
X102288500Y-82356000D01*
X102331625Y-82312874D01*
X103737501Y-83718750D01*
X103701449Y-83900000D01*
X103798396Y-84387386D01*
X103973869Y-84650000D01*
G36*
X105164000Y-73884000D02*
X105144000Y-73884000D01*
X105144000Y-73904000D01*
X104856000Y-73904000D01*
X104856000Y-73884000D01*
X104836000Y-73884000D01*
X104836000Y-73596000D01*
X104856000Y-73596000D01*
X104856000Y-73576000D01*
X105144000Y-73576000D01*
X105144000Y-73596000D01*
X105164000Y-73596000D01*
X105164000Y-73884000D01*
X105164000Y-73884000D01*
G37*
X105164000Y-73884000D02*
X105144000Y-73884000D01*
X105144000Y-73904000D01*
X104856000Y-73904000D01*
X104856000Y-73884000D01*
X104836000Y-73884000D01*
X104836000Y-73596000D01*
X104856000Y-73596000D01*
X104856000Y-73576000D01*
X105144000Y-73576000D01*
X105144000Y-73596000D01*
X105164000Y-73596000D01*
X105164000Y-73884000D01*
G36*
X107704000Y-89124000D02*
X107684000Y-89124000D01*
X107684000Y-89144000D01*
X107396000Y-89144000D01*
X107396000Y-89124000D01*
X107376000Y-89124000D01*
X107376000Y-88836000D01*
X107396000Y-88836000D01*
X107396000Y-88816000D01*
X107684000Y-88816000D01*
X107684000Y-88836000D01*
X107704000Y-88836000D01*
X107704000Y-89124000D01*
X107704000Y-89124000D01*
G37*
X107704000Y-89124000D02*
X107684000Y-89124000D01*
X107684000Y-89144000D01*
X107396000Y-89144000D01*
X107396000Y-89124000D01*
X107376000Y-89124000D01*
X107376000Y-88836000D01*
X107396000Y-88836000D01*
X107396000Y-88816000D01*
X107684000Y-88816000D01*
X107684000Y-88836000D01*
X107704000Y-88836000D01*
X107704000Y-89124000D01*
G36*
X109540000Y-54788751D02*
X105600624Y-50849376D01*
X105435169Y-50738821D01*
X105240000Y-50700000D01*
X99526000Y-50700000D01*
X99330831Y-50738821D01*
X99165376Y-50849376D01*
X98723784Y-51290968D01*
X98172000Y-51290968D01*
X98015668Y-51321300D01*
X97878267Y-51411557D01*
X97786292Y-51547815D01*
X97753968Y-51709000D01*
X97753968Y-52203048D01*
X97648085Y-52308931D01*
X97554000Y-52536072D01*
X97554000Y-52685500D01*
X97708500Y-52840000D01*
X98558000Y-52840000D01*
X98558000Y-52820000D01*
X98846000Y-52820000D01*
X98846000Y-52840000D01*
X99695500Y-52840000D01*
X99850000Y-52685500D01*
X99850000Y-52536072D01*
X99755915Y-52308931D01*
X99650032Y-52203048D01*
X99650032Y-51807216D01*
X99737248Y-51720000D01*
X100137551Y-51720000D01*
X100099000Y-51813072D01*
X100099000Y-52037500D01*
X100253500Y-52192000D01*
X100948000Y-52192000D01*
X100948000Y-52172000D01*
X101236000Y-52172000D01*
X101236000Y-52192000D01*
X101930500Y-52192000D01*
X102085000Y-52037500D01*
X102085000Y-51813072D01*
X102046448Y-51720000D01*
X105028751Y-51720000D01*
X108760000Y-55451248D01*
X108760000Y-58105097D01*
X108741604Y-58012614D01*
X108465522Y-57599429D01*
X108052337Y-57323347D01*
X107564951Y-57226400D01*
X107515049Y-57226400D01*
X107027663Y-57323347D01*
X106614478Y-57599429D01*
X106338396Y-58012614D01*
X106281632Y-58297986D01*
X106281632Y-57636400D01*
X106251300Y-57480068D01*
X106161043Y-57342667D01*
X106024785Y-57250692D01*
X105863600Y-57218368D01*
X104439616Y-57218368D01*
X103460000Y-56238751D01*
X103460000Y-55761248D01*
X104053216Y-55168032D01*
X104450000Y-55168032D01*
X104606332Y-55137700D01*
X104743733Y-55047443D01*
X104835708Y-54911185D01*
X104868032Y-54750000D01*
X104868032Y-54250000D01*
X104837700Y-54093668D01*
X104747443Y-53956267D01*
X104611185Y-53864292D01*
X104591439Y-53860332D01*
X104800069Y-53773915D01*
X104973915Y-53600069D01*
X105068000Y-53372928D01*
X105068000Y-53279500D01*
X105068000Y-52720500D01*
X105068000Y-52627072D01*
X104973915Y-52399931D01*
X104800069Y-52226085D01*
X104572928Y-52132000D01*
X104327072Y-52132000D01*
X104298500Y-52132000D01*
X104144000Y-52286500D01*
X104144000Y-52875000D01*
X104913500Y-52875000D01*
X105068000Y-52720500D01*
X105068000Y-53279500D01*
X104913500Y-53125000D01*
X104144000Y-53125000D01*
X104144000Y-53164000D01*
X103856000Y-53164000D01*
X103856000Y-53125000D01*
X103856000Y-52875000D01*
X103856000Y-52286500D01*
X103701500Y-52132000D01*
X103672928Y-52132000D01*
X103427072Y-52132000D01*
X103199931Y-52226085D01*
X103026085Y-52399931D01*
X102932000Y-52627072D01*
X102932000Y-52720500D01*
X103086500Y-52875000D01*
X103856000Y-52875000D01*
X103856000Y-53125000D01*
X103086500Y-53125000D01*
X102932000Y-53279500D01*
X102932000Y-53372928D01*
X103026085Y-53600069D01*
X103199931Y-53773915D01*
X103407045Y-53859704D01*
X103393668Y-53862300D01*
X103256267Y-53952557D01*
X103164292Y-54088815D01*
X103131968Y-54250000D01*
X103131968Y-54646783D01*
X102788751Y-54990000D01*
X102556390Y-54990000D01*
X102537700Y-54893668D01*
X102447443Y-54756267D01*
X102311185Y-54664292D01*
X102150000Y-54631968D01*
X101692500Y-54631968D01*
X101692500Y-54578264D01*
X101760733Y-54533443D01*
X101852708Y-54397185D01*
X101885032Y-54236000D01*
X101885032Y-53436000D01*
X101854700Y-53279668D01*
X101831949Y-53245034D01*
X101990915Y-53086069D01*
X102085000Y-52858928D01*
X102085000Y-52634500D01*
X101930500Y-52480000D01*
X101236000Y-52480000D01*
X101236000Y-52500000D01*
X100948000Y-52500000D01*
X100948000Y-52480000D01*
X100253500Y-52480000D01*
X100099000Y-52634500D01*
X100099000Y-52858928D01*
X100193085Y-53086069D01*
X100351658Y-53244642D01*
X100331292Y-53274815D01*
X100319523Y-53333500D01*
X99850000Y-53333500D01*
X99850000Y-53282500D01*
X99695500Y-53128000D01*
X98846000Y-53128000D01*
X98846000Y-53148000D01*
X98558000Y-53148000D01*
X98558000Y-53128000D01*
X97708500Y-53128000D01*
X97554000Y-53282500D01*
X97554000Y-53431928D01*
X97648085Y-53659069D01*
X97753968Y-53764952D01*
X97753968Y-54259000D01*
X97784300Y-54415332D01*
X97851084Y-54517000D01*
X97717072Y-54517000D01*
X97489931Y-54611085D01*
X97331357Y-54769658D01*
X97301185Y-54749292D01*
X97140000Y-54716968D01*
X97102500Y-54716968D01*
X97102500Y-54663353D01*
X97188332Y-54646700D01*
X97325733Y-54556443D01*
X97417708Y-54420185D01*
X97450032Y-54259000D01*
X97450032Y-53609000D01*
X97419700Y-53452668D01*
X97329443Y-53315267D01*
X97193185Y-53223292D01*
X97032000Y-53190968D01*
X95972000Y-53190968D01*
X95815668Y-53221300D01*
X95745000Y-53267720D01*
X95745000Y-53086072D01*
X95650915Y-52858931D01*
X95492341Y-52700357D01*
X95512708Y-52670185D01*
X95517558Y-52646000D01*
X95670134Y-52646000D01*
X95674557Y-52652733D01*
X95810815Y-52744708D01*
X95972000Y-52777032D01*
X97032000Y-52777032D01*
X97188332Y-52746700D01*
X97325733Y-52656443D01*
X97417708Y-52520185D01*
X97450032Y-52359000D01*
X97450032Y-51709000D01*
X97419700Y-51552668D01*
X97329443Y-51415267D01*
X97193185Y-51323292D01*
X97032000Y-51290968D01*
X95972000Y-51290968D01*
X95815668Y-51321300D01*
X95678267Y-51411557D01*
X95586292Y-51547815D01*
X95581441Y-51572000D01*
X95518450Y-51572000D01*
X95514700Y-51552668D01*
X95424443Y-51415267D01*
X95288185Y-51323292D01*
X95127000Y-51290968D01*
X94377000Y-51290968D01*
X94220668Y-51321300D01*
X94083267Y-51411557D01*
X93991292Y-51547815D01*
X93958968Y-51709000D01*
X93958968Y-52509000D01*
X93989300Y-52665332D01*
X94012050Y-52699965D01*
X93853085Y-52858931D01*
X93759000Y-53086072D01*
X93759000Y-53310500D01*
X93913500Y-53465000D01*
X94608000Y-53465000D01*
X94608000Y-53445000D01*
X94896000Y-53445000D01*
X94896000Y-53465000D01*
X94916000Y-53465000D01*
X94916000Y-53753000D01*
X94896000Y-53753000D01*
X94896000Y-53773000D01*
X94608000Y-53773000D01*
X94608000Y-53753000D01*
X93913500Y-53753000D01*
X93759000Y-53907500D01*
X93759000Y-54098982D01*
X93548770Y-54098799D01*
X93129199Y-54272161D01*
X90887519Y-52030481D01*
X90672102Y-51886544D01*
X90418000Y-51836000D01*
X79740000Y-51836000D01*
X79519030Y-51879953D01*
X79648915Y-51750069D01*
X79743000Y-51522928D01*
X79743000Y-51298500D01*
X79588500Y-51144000D01*
X78894000Y-51144000D01*
X78894000Y-51164000D01*
X78606000Y-51164000D01*
X78606000Y-51144000D01*
X77911500Y-51144000D01*
X77757000Y-51298500D01*
X77757000Y-51522928D01*
X77851085Y-51750069D01*
X78009658Y-51908642D01*
X77989292Y-51938815D01*
X77956968Y-52100000D01*
X77956968Y-52424500D01*
X77287424Y-52424500D01*
X77200000Y-52406968D01*
X76100000Y-52406968D01*
X76009639Y-52424500D01*
X75225000Y-52424500D01*
X74995199Y-52470210D01*
X74831773Y-52579407D01*
X74831771Y-52579408D01*
X74795898Y-52586544D01*
X74580481Y-52730481D01*
X74436544Y-52945898D01*
X74386000Y-53200000D01*
X74386000Y-56550000D01*
X74386000Y-57450000D01*
X74386000Y-61900000D01*
X74386000Y-66550000D01*
X74386000Y-71050000D01*
X74386000Y-75550000D01*
X74386000Y-79850000D01*
X74386000Y-83350000D01*
X74386000Y-84200000D01*
X74386000Y-85961203D01*
X74365344Y-85952626D01*
X74260000Y-85952534D01*
X74260000Y-85200000D01*
X74260000Y-85175000D01*
X74260000Y-81975000D01*
X74260000Y-81950000D01*
X74260000Y-80675000D01*
X74260000Y-80650000D01*
X74260000Y-77475000D01*
X74260000Y-77450000D01*
X74260000Y-77100000D01*
X74260000Y-76200000D01*
X74260000Y-76175000D01*
X74260000Y-72975000D01*
X74260000Y-72950000D01*
X74260000Y-71861899D01*
X74271179Y-71845169D01*
X74310000Y-71650000D01*
X74271179Y-71454831D01*
X74260000Y-71438100D01*
X74260000Y-68250000D01*
X74260000Y-67150000D01*
X74260000Y-63850000D01*
X74260000Y-62450000D01*
X74260000Y-59150000D01*
X74260000Y-58175000D01*
X74260000Y-58100000D01*
X74260000Y-55000000D01*
X74260000Y-54900000D01*
X74260000Y-54000000D01*
X74221179Y-53804831D01*
X74110624Y-53639376D01*
X74110624Y-53639375D01*
X73785624Y-53314376D01*
X73620169Y-53203821D01*
X73425000Y-53165000D01*
X73318032Y-53165000D01*
X73318032Y-52825000D01*
X73287700Y-52668668D01*
X73197443Y-52531267D01*
X73061185Y-52439292D01*
X72900000Y-52406968D01*
X71800000Y-52406968D01*
X71643668Y-52437300D01*
X71525382Y-52515000D01*
X70455000Y-52515000D01*
X70175000Y-52515000D01*
X69979831Y-52553821D01*
X69913559Y-52598103D01*
X69814376Y-52664375D01*
X64379376Y-58099376D01*
X64268821Y-58264831D01*
X64230000Y-58460000D01*
X64230000Y-59758282D01*
X63832905Y-59566084D01*
X63604000Y-59679903D01*
X63604000Y-60856000D01*
X63624000Y-60856000D01*
X63624000Y-61144000D01*
X63604000Y-61144000D01*
X63604000Y-61164000D01*
X63316000Y-61164000D01*
X63316000Y-61144000D01*
X63316000Y-60856000D01*
X63316000Y-59679903D01*
X63087095Y-59566084D01*
X62566745Y-59817939D01*
X62182385Y-60249752D01*
X62026095Y-60627097D01*
X62140736Y-60856000D01*
X63316000Y-60856000D01*
X63316000Y-61144000D01*
X62140736Y-61144000D01*
X62026095Y-61372903D01*
X62182385Y-61750248D01*
X62566745Y-62182061D01*
X62944987Y-62365134D01*
X62534478Y-62639429D01*
X62258396Y-63052614D01*
X62161449Y-63540000D01*
X62258396Y-64027386D01*
X62534478Y-64440571D01*
X62947663Y-64716653D01*
X63301680Y-64787071D01*
X63244436Y-64844315D01*
X62947663Y-64903347D01*
X62534478Y-65179429D01*
X62258396Y-65592614D01*
X62161449Y-66080000D01*
X62258396Y-66567386D01*
X62534478Y-66980571D01*
X62947663Y-67256653D01*
X63035999Y-67274224D01*
X62988821Y-67344831D01*
X62970113Y-67438881D01*
X62947663Y-67443347D01*
X62534478Y-67719429D01*
X62258396Y-68132614D01*
X62161449Y-68620000D01*
X62258396Y-69107386D01*
X62534478Y-69520571D01*
X62947663Y-69796653D01*
X63109839Y-69828911D01*
X63099376Y-69839376D01*
X63011685Y-69970612D01*
X62947663Y-69983347D01*
X62534478Y-70259429D01*
X62258396Y-70672614D01*
X62161449Y-71160000D01*
X62258396Y-71647386D01*
X62534478Y-72060571D01*
X62947663Y-72336653D01*
X63089081Y-72364782D01*
X62988821Y-72514831D01*
X62988752Y-72515173D01*
X62947663Y-72523347D01*
X62534478Y-72799429D01*
X62258396Y-73212614D01*
X62161449Y-73700000D01*
X62258396Y-74187386D01*
X62534478Y-74600571D01*
X62947663Y-74876653D01*
X63416950Y-74970000D01*
X62947663Y-75063347D01*
X62534478Y-75339429D01*
X62258396Y-75752614D01*
X62161449Y-76240000D01*
X62258396Y-76727386D01*
X62534478Y-77140571D01*
X62947663Y-77416653D01*
X63416950Y-77510000D01*
X62947663Y-77603347D01*
X62534478Y-77879429D01*
X62258396Y-78292614D01*
X62161449Y-78780000D01*
X62258396Y-79267386D01*
X62534478Y-79680571D01*
X62947663Y-79956653D01*
X62984992Y-79964078D01*
X62950000Y-80140000D01*
X62950000Y-80142882D01*
X62947663Y-80143347D01*
X62534478Y-80419429D01*
X62258396Y-80832614D01*
X62161449Y-81320000D01*
X62258396Y-81807386D01*
X62534478Y-82220571D01*
X62944987Y-82494865D01*
X62566745Y-82677939D01*
X62182385Y-83109752D01*
X62026095Y-83487097D01*
X62140736Y-83716000D01*
X63316000Y-83716000D01*
X63316000Y-83696000D01*
X63604000Y-83696000D01*
X63604000Y-83716000D01*
X63624000Y-83716000D01*
X63624000Y-84004000D01*
X63604000Y-84004000D01*
X63604000Y-84024000D01*
X63316000Y-84024000D01*
X63316000Y-84004000D01*
X62140736Y-84004000D01*
X62026095Y-84232903D01*
X62182385Y-84610248D01*
X62566745Y-85042061D01*
X62944987Y-85225134D01*
X62534478Y-85499429D01*
X62258396Y-85912614D01*
X62161449Y-86400000D01*
X62258396Y-86887386D01*
X62534478Y-87300571D01*
X62947663Y-87576653D01*
X63359295Y-87658531D01*
X63378426Y-87677662D01*
X62947663Y-87763347D01*
X62534478Y-88039429D01*
X62258396Y-88452614D01*
X62161449Y-88940000D01*
X62258396Y-89427386D01*
X62534478Y-89840571D01*
X62947663Y-90116653D01*
X63132089Y-90153337D01*
X67770000Y-94791248D01*
X67770000Y-98260000D01*
X67808821Y-98455169D01*
X67919376Y-98620624D01*
X68838751Y-99540000D01*
X60460000Y-99540000D01*
X60460000Y-50460000D01*
X70000000Y-50460000D01*
X77764071Y-50460000D01*
X77757000Y-50477072D01*
X77757000Y-50701500D01*
X77911500Y-50856000D01*
X78606000Y-50856000D01*
X78606000Y-50836000D01*
X78894000Y-50836000D01*
X78894000Y-50856000D01*
X79588500Y-50856000D01*
X79743000Y-50701500D01*
X79743000Y-50477072D01*
X79735928Y-50460000D01*
X109540000Y-50460000D01*
X109540000Y-54788751D01*
X109540000Y-54788751D01*
G37*
X109540000Y-54788751D02*
X105600624Y-50849376D01*
X105435169Y-50738821D01*
X105240000Y-50700000D01*
X99526000Y-50700000D01*
X99330831Y-50738821D01*
X99165376Y-50849376D01*
X98723784Y-51290968D01*
X98172000Y-51290968D01*
X98015668Y-51321300D01*
X97878267Y-51411557D01*
X97786292Y-51547815D01*
X97753968Y-51709000D01*
X97753968Y-52203048D01*
X97648085Y-52308931D01*
X97554000Y-52536072D01*
X97554000Y-52685500D01*
X97708500Y-52840000D01*
X98558000Y-52840000D01*
X98558000Y-52820000D01*
X98846000Y-52820000D01*
X98846000Y-52840000D01*
X99695500Y-52840000D01*
X99850000Y-52685500D01*
X99850000Y-52536072D01*
X99755915Y-52308931D01*
X99650032Y-52203048D01*
X99650032Y-51807216D01*
X99737248Y-51720000D01*
X100137551Y-51720000D01*
X100099000Y-51813072D01*
X100099000Y-52037500D01*
X100253500Y-52192000D01*
X100948000Y-52192000D01*
X100948000Y-52172000D01*
X101236000Y-52172000D01*
X101236000Y-52192000D01*
X101930500Y-52192000D01*
X102085000Y-52037500D01*
X102085000Y-51813072D01*
X102046448Y-51720000D01*
X105028751Y-51720000D01*
X108760000Y-55451248D01*
X108760000Y-58105097D01*
X108741604Y-58012614D01*
X108465522Y-57599429D01*
X108052337Y-57323347D01*
X107564951Y-57226400D01*
X107515049Y-57226400D01*
X107027663Y-57323347D01*
X106614478Y-57599429D01*
X106338396Y-58012614D01*
X106281632Y-58297986D01*
X106281632Y-57636400D01*
X106251300Y-57480068D01*
X106161043Y-57342667D01*
X106024785Y-57250692D01*
X105863600Y-57218368D01*
X104439616Y-57218368D01*
X103460000Y-56238751D01*
X103460000Y-55761248D01*
X104053216Y-55168032D01*
X104450000Y-55168032D01*
X104606332Y-55137700D01*
X104743733Y-55047443D01*
X104835708Y-54911185D01*
X104868032Y-54750000D01*
X104868032Y-54250000D01*
X104837700Y-54093668D01*
X104747443Y-53956267D01*
X104611185Y-53864292D01*
X104591439Y-53860332D01*
X104800069Y-53773915D01*
X104973915Y-53600069D01*
X105068000Y-53372928D01*
X105068000Y-53279500D01*
X105068000Y-52720500D01*
X105068000Y-52627072D01*
X104973915Y-52399931D01*
X104800069Y-52226085D01*
X104572928Y-52132000D01*
X104327072Y-52132000D01*
X104298500Y-52132000D01*
X104144000Y-52286500D01*
X104144000Y-52875000D01*
X104913500Y-52875000D01*
X105068000Y-52720500D01*
X105068000Y-53279500D01*
X104913500Y-53125000D01*
X104144000Y-53125000D01*
X104144000Y-53164000D01*
X103856000Y-53164000D01*
X103856000Y-53125000D01*
X103856000Y-52875000D01*
X103856000Y-52286500D01*
X103701500Y-52132000D01*
X103672928Y-52132000D01*
X103427072Y-52132000D01*
X103199931Y-52226085D01*
X103026085Y-52399931D01*
X102932000Y-52627072D01*
X102932000Y-52720500D01*
X103086500Y-52875000D01*
X103856000Y-52875000D01*
X103856000Y-53125000D01*
X103086500Y-53125000D01*
X102932000Y-53279500D01*
X102932000Y-53372928D01*
X103026085Y-53600069D01*
X103199931Y-53773915D01*
X103407045Y-53859704D01*
X103393668Y-53862300D01*
X103256267Y-53952557D01*
X103164292Y-54088815D01*
X103131968Y-54250000D01*
X103131968Y-54646783D01*
X102788751Y-54990000D01*
X102556390Y-54990000D01*
X102537700Y-54893668D01*
X102447443Y-54756267D01*
X102311185Y-54664292D01*
X102150000Y-54631968D01*
X101692500Y-54631968D01*
X101692500Y-54578264D01*
X101760733Y-54533443D01*
X101852708Y-54397185D01*
X101885032Y-54236000D01*
X101885032Y-53436000D01*
X101854700Y-53279668D01*
X101831949Y-53245034D01*
X101990915Y-53086069D01*
X102085000Y-52858928D01*
X102085000Y-52634500D01*
X101930500Y-52480000D01*
X101236000Y-52480000D01*
X101236000Y-52500000D01*
X100948000Y-52500000D01*
X100948000Y-52480000D01*
X100253500Y-52480000D01*
X100099000Y-52634500D01*
X100099000Y-52858928D01*
X100193085Y-53086069D01*
X100351658Y-53244642D01*
X100331292Y-53274815D01*
X100319523Y-53333500D01*
X99850000Y-53333500D01*
X99850000Y-53282500D01*
X99695500Y-53128000D01*
X98846000Y-53128000D01*
X98846000Y-53148000D01*
X98558000Y-53148000D01*
X98558000Y-53128000D01*
X97708500Y-53128000D01*
X97554000Y-53282500D01*
X97554000Y-53431928D01*
X97648085Y-53659069D01*
X97753968Y-53764952D01*
X97753968Y-54259000D01*
X97784300Y-54415332D01*
X97851084Y-54517000D01*
X97717072Y-54517000D01*
X97489931Y-54611085D01*
X97331357Y-54769658D01*
X97301185Y-54749292D01*
X97140000Y-54716968D01*
X97102500Y-54716968D01*
X97102500Y-54663353D01*
X97188332Y-54646700D01*
X97325733Y-54556443D01*
X97417708Y-54420185D01*
X97450032Y-54259000D01*
X97450032Y-53609000D01*
X97419700Y-53452668D01*
X97329443Y-53315267D01*
X97193185Y-53223292D01*
X97032000Y-53190968D01*
X95972000Y-53190968D01*
X95815668Y-53221300D01*
X95745000Y-53267720D01*
X95745000Y-53086072D01*
X95650915Y-52858931D01*
X95492341Y-52700357D01*
X95512708Y-52670185D01*
X95517558Y-52646000D01*
X95670134Y-52646000D01*
X95674557Y-52652733D01*
X95810815Y-52744708D01*
X95972000Y-52777032D01*
X97032000Y-52777032D01*
X97188332Y-52746700D01*
X97325733Y-52656443D01*
X97417708Y-52520185D01*
X97450032Y-52359000D01*
X97450032Y-51709000D01*
X97419700Y-51552668D01*
X97329443Y-51415267D01*
X97193185Y-51323292D01*
X97032000Y-51290968D01*
X95972000Y-51290968D01*
X95815668Y-51321300D01*
X95678267Y-51411557D01*
X95586292Y-51547815D01*
X95581441Y-51572000D01*
X95518450Y-51572000D01*
X95514700Y-51552668D01*
X95424443Y-51415267D01*
X95288185Y-51323292D01*
X95127000Y-51290968D01*
X94377000Y-51290968D01*
X94220668Y-51321300D01*
X94083267Y-51411557D01*
X93991292Y-51547815D01*
X93958968Y-51709000D01*
X93958968Y-52509000D01*
X93989300Y-52665332D01*
X94012050Y-52699965D01*
X93853085Y-52858931D01*
X93759000Y-53086072D01*
X93759000Y-53310500D01*
X93913500Y-53465000D01*
X94608000Y-53465000D01*
X94608000Y-53445000D01*
X94896000Y-53445000D01*
X94896000Y-53465000D01*
X94916000Y-53465000D01*
X94916000Y-53753000D01*
X94896000Y-53753000D01*
X94896000Y-53773000D01*
X94608000Y-53773000D01*
X94608000Y-53753000D01*
X93913500Y-53753000D01*
X93759000Y-53907500D01*
X93759000Y-54098982D01*
X93548770Y-54098799D01*
X93129199Y-54272161D01*
X90887519Y-52030481D01*
X90672102Y-51886544D01*
X90418000Y-51836000D01*
X79740000Y-51836000D01*
X79519030Y-51879953D01*
X79648915Y-51750069D01*
X79743000Y-51522928D01*
X79743000Y-51298500D01*
X79588500Y-51144000D01*
X78894000Y-51144000D01*
X78894000Y-51164000D01*
X78606000Y-51164000D01*
X78606000Y-51144000D01*
X77911500Y-51144000D01*
X77757000Y-51298500D01*
X77757000Y-51522928D01*
X77851085Y-51750069D01*
X78009658Y-51908642D01*
X77989292Y-51938815D01*
X77956968Y-52100000D01*
X77956968Y-52424500D01*
X77287424Y-52424500D01*
X77200000Y-52406968D01*
X76100000Y-52406968D01*
X76009639Y-52424500D01*
X75225000Y-52424500D01*
X74995199Y-52470210D01*
X74831773Y-52579407D01*
X74831771Y-52579408D01*
X74795898Y-52586544D01*
X74580481Y-52730481D01*
X74436544Y-52945898D01*
X74386000Y-53200000D01*
X74386000Y-56550000D01*
X74386000Y-57450000D01*
X74386000Y-61900000D01*
X74386000Y-66550000D01*
X74386000Y-71050000D01*
X74386000Y-75550000D01*
X74386000Y-79850000D01*
X74386000Y-83350000D01*
X74386000Y-84200000D01*
X74386000Y-85961203D01*
X74365344Y-85952626D01*
X74260000Y-85952534D01*
X74260000Y-85200000D01*
X74260000Y-85175000D01*
X74260000Y-81975000D01*
X74260000Y-81950000D01*
X74260000Y-80675000D01*
X74260000Y-80650000D01*
X74260000Y-77475000D01*
X74260000Y-77450000D01*
X74260000Y-77100000D01*
X74260000Y-76200000D01*
X74260000Y-76175000D01*
X74260000Y-72975000D01*
X74260000Y-72950000D01*
X74260000Y-71861899D01*
X74271179Y-71845169D01*
X74310000Y-71650000D01*
X74271179Y-71454831D01*
X74260000Y-71438100D01*
X74260000Y-68250000D01*
X74260000Y-67150000D01*
X74260000Y-63850000D01*
X74260000Y-62450000D01*
X74260000Y-59150000D01*
X74260000Y-58175000D01*
X74260000Y-58100000D01*
X74260000Y-55000000D01*
X74260000Y-54900000D01*
X74260000Y-54000000D01*
X74221179Y-53804831D01*
X74110624Y-53639376D01*
X74110624Y-53639375D01*
X73785624Y-53314376D01*
X73620169Y-53203821D01*
X73425000Y-53165000D01*
X73318032Y-53165000D01*
X73318032Y-52825000D01*
X73287700Y-52668668D01*
X73197443Y-52531267D01*
X73061185Y-52439292D01*
X72900000Y-52406968D01*
X71800000Y-52406968D01*
X71643668Y-52437300D01*
X71525382Y-52515000D01*
X70455000Y-52515000D01*
X70175000Y-52515000D01*
X69979831Y-52553821D01*
X69913559Y-52598103D01*
X69814376Y-52664375D01*
X64379376Y-58099376D01*
X64268821Y-58264831D01*
X64230000Y-58460000D01*
X64230000Y-59758282D01*
X63832905Y-59566084D01*
X63604000Y-59679903D01*
X63604000Y-60856000D01*
X63624000Y-60856000D01*
X63624000Y-61144000D01*
X63604000Y-61144000D01*
X63604000Y-61164000D01*
X63316000Y-61164000D01*
X63316000Y-61144000D01*
X63316000Y-60856000D01*
X63316000Y-59679903D01*
X63087095Y-59566084D01*
X62566745Y-59817939D01*
X62182385Y-60249752D01*
X62026095Y-60627097D01*
X62140736Y-60856000D01*
X63316000Y-60856000D01*
X63316000Y-61144000D01*
X62140736Y-61144000D01*
X62026095Y-61372903D01*
X62182385Y-61750248D01*
X62566745Y-62182061D01*
X62944987Y-62365134D01*
X62534478Y-62639429D01*
X62258396Y-63052614D01*
X62161449Y-63540000D01*
X62258396Y-64027386D01*
X62534478Y-64440571D01*
X62947663Y-64716653D01*
X63301680Y-64787071D01*
X63244436Y-64844315D01*
X62947663Y-64903347D01*
X62534478Y-65179429D01*
X62258396Y-65592614D01*
X62161449Y-66080000D01*
X62258396Y-66567386D01*
X62534478Y-66980571D01*
X62947663Y-67256653D01*
X63035999Y-67274224D01*
X62988821Y-67344831D01*
X62970113Y-67438881D01*
X62947663Y-67443347D01*
X62534478Y-67719429D01*
X62258396Y-68132614D01*
X62161449Y-68620000D01*
X62258396Y-69107386D01*
X62534478Y-69520571D01*
X62947663Y-69796653D01*
X63109839Y-69828911D01*
X63099376Y-69839376D01*
X63011685Y-69970612D01*
X62947663Y-69983347D01*
X62534478Y-70259429D01*
X62258396Y-70672614D01*
X62161449Y-71160000D01*
X62258396Y-71647386D01*
X62534478Y-72060571D01*
X62947663Y-72336653D01*
X63089081Y-72364782D01*
X62988821Y-72514831D01*
X62988752Y-72515173D01*
X62947663Y-72523347D01*
X62534478Y-72799429D01*
X62258396Y-73212614D01*
X62161449Y-73700000D01*
X62258396Y-74187386D01*
X62534478Y-74600571D01*
X62947663Y-74876653D01*
X63416950Y-74970000D01*
X62947663Y-75063347D01*
X62534478Y-75339429D01*
X62258396Y-75752614D01*
X62161449Y-76240000D01*
X62258396Y-76727386D01*
X62534478Y-77140571D01*
X62947663Y-77416653D01*
X63416950Y-77510000D01*
X62947663Y-77603347D01*
X62534478Y-77879429D01*
X62258396Y-78292614D01*
X62161449Y-78780000D01*
X62258396Y-79267386D01*
X62534478Y-79680571D01*
X62947663Y-79956653D01*
X62984992Y-79964078D01*
X62950000Y-80140000D01*
X62950000Y-80142882D01*
X62947663Y-80143347D01*
X62534478Y-80419429D01*
X62258396Y-80832614D01*
X62161449Y-81320000D01*
X62258396Y-81807386D01*
X62534478Y-82220571D01*
X62944987Y-82494865D01*
X62566745Y-82677939D01*
X62182385Y-83109752D01*
X62026095Y-83487097D01*
X62140736Y-83716000D01*
X63316000Y-83716000D01*
X63316000Y-83696000D01*
X63604000Y-83696000D01*
X63604000Y-83716000D01*
X63624000Y-83716000D01*
X63624000Y-84004000D01*
X63604000Y-84004000D01*
X63604000Y-84024000D01*
X63316000Y-84024000D01*
X63316000Y-84004000D01*
X62140736Y-84004000D01*
X62026095Y-84232903D01*
X62182385Y-84610248D01*
X62566745Y-85042061D01*
X62944987Y-85225134D01*
X62534478Y-85499429D01*
X62258396Y-85912614D01*
X62161449Y-86400000D01*
X62258396Y-86887386D01*
X62534478Y-87300571D01*
X62947663Y-87576653D01*
X63359295Y-87658531D01*
X63378426Y-87677662D01*
X62947663Y-87763347D01*
X62534478Y-88039429D01*
X62258396Y-88452614D01*
X62161449Y-88940000D01*
X62258396Y-89427386D01*
X62534478Y-89840571D01*
X62947663Y-90116653D01*
X63132089Y-90153337D01*
X67770000Y-94791248D01*
X67770000Y-98260000D01*
X67808821Y-98455169D01*
X67919376Y-98620624D01*
X68838751Y-99540000D01*
X60460000Y-99540000D01*
X60460000Y-50460000D01*
X70000000Y-50460000D01*
X77764071Y-50460000D01*
X77757000Y-50477072D01*
X77757000Y-50701500D01*
X77911500Y-50856000D01*
X78606000Y-50856000D01*
X78606000Y-50836000D01*
X78894000Y-50836000D01*
X78894000Y-50856000D01*
X79588500Y-50856000D01*
X79743000Y-50701500D01*
X79743000Y-50477072D01*
X79735928Y-50460000D01*
X109540000Y-50460000D01*
X109540000Y-54788751D01*
M02*
