G04 #@! TF.FileFunction,Soldermask,Top*
%FSLAX46Y46*%
G04 Gerber Fmt 4.6, Leading zero omitted, Abs format (unit mm)*
G04 Created by KiCad (PCBNEW (2015-01-16 BZR 5376)-product) date 23/07/2015 11:51:53*
%MOMM*%
G01*
G04 APERTURE LIST*
%ADD10C,0.100000*%
%ADD11R,0.750000X0.800000*%
%ADD12R,0.800000X0.750000*%
%ADD13R,1.250000X1.000000*%
%ADD14R,1.000000X1.250000*%
%ADD15R,1.600000X1.000000*%
%ADD16R,0.910000X1.220000*%
%ADD17R,2.799080X1.501140*%
%ADD18R,0.500000X0.900000*%
%ADD19R,0.900000X0.500000*%
%ADD20R,1.100000X0.400000*%
%ADD21R,1.060000X0.650000*%
%ADD22R,0.650000X1.060000*%
%ADD23R,1.500000X0.450000*%
%ADD24R,0.690880X1.000760*%
%ADD25R,1.000000X0.285000*%
%ADD26C,2.999740*%
%ADD27R,1.727200X1.727200*%
%ADD28O,1.727200X1.727200*%
%ADD29R,1.000000X2.500000*%
G04 APERTURE END LIST*
D10*
D11*
X78750000Y-57000000D03*
X78750000Y-55500000D03*
X78750000Y-61500000D03*
X78750000Y-60000000D03*
X78750000Y-66000000D03*
X78750000Y-64500000D03*
X78750000Y-75000000D03*
X78750000Y-73500000D03*
X78750000Y-70500000D03*
X78750000Y-69000000D03*
X78750000Y-79250000D03*
X78750000Y-77750000D03*
X78750000Y-84250000D03*
X78750000Y-82750000D03*
X78750000Y-52500000D03*
X78750000Y-51000000D03*
X101092000Y-53836000D03*
X101092000Y-52336000D03*
X94752000Y-52109000D03*
X94752000Y-53609000D03*
D12*
X96740000Y-55510000D03*
X98240000Y-55510000D03*
D13*
X101000000Y-94250000D03*
X101000000Y-92250000D03*
D14*
X71990000Y-98000000D03*
X73990000Y-98000000D03*
D11*
X101450000Y-84000000D03*
X101450000Y-82500000D03*
D13*
X95000000Y-93750000D03*
X95000000Y-91750000D03*
D12*
X87750000Y-92590000D03*
X89250000Y-92590000D03*
D15*
X85000000Y-94250000D03*
X85000000Y-91250000D03*
X82000000Y-94250000D03*
X82000000Y-91250000D03*
D16*
X90865000Y-96750000D03*
X94135000Y-96750000D03*
D17*
X98000000Y-95500440D03*
X98000000Y-90999560D03*
D18*
X74750000Y-90500000D03*
X76250000Y-90500000D03*
X71810000Y-90270000D03*
X73310000Y-90270000D03*
D19*
X70000000Y-97250000D03*
X70000000Y-95750000D03*
D18*
X87750000Y-90750000D03*
X89250000Y-90750000D03*
X88250000Y-96750000D03*
X86750000Y-96750000D03*
X82250000Y-96750000D03*
X83750000Y-96750000D03*
D20*
X72350000Y-53025000D03*
X72350000Y-53675000D03*
X72350000Y-54325000D03*
X72350000Y-54975000D03*
X76650000Y-54975000D03*
X76650000Y-54325000D03*
X76650000Y-53675000D03*
X76650000Y-53025000D03*
X72350000Y-57525000D03*
X72350000Y-58175000D03*
X72350000Y-58825000D03*
X72350000Y-59475000D03*
X76650000Y-59475000D03*
X76650000Y-58825000D03*
X76650000Y-58175000D03*
X76650000Y-57525000D03*
X72350000Y-62025000D03*
X72350000Y-62675000D03*
X72350000Y-63325000D03*
X72350000Y-63975000D03*
X76650000Y-63975000D03*
X76650000Y-63325000D03*
X76650000Y-62675000D03*
X76650000Y-62025000D03*
X72350000Y-66525000D03*
X72350000Y-67175000D03*
X72350000Y-67825000D03*
X72350000Y-68475000D03*
X76650000Y-68475000D03*
X76650000Y-67825000D03*
X76650000Y-67175000D03*
X76650000Y-66525000D03*
X72350000Y-71025000D03*
X72350000Y-71675000D03*
X72350000Y-72325000D03*
X72350000Y-72975000D03*
X76650000Y-72975000D03*
X76650000Y-72325000D03*
X76650000Y-71675000D03*
X76650000Y-71025000D03*
X72350000Y-75525000D03*
X72350000Y-76175000D03*
X72350000Y-76825000D03*
X72350000Y-77475000D03*
X76650000Y-77475000D03*
X76650000Y-76825000D03*
X76650000Y-76175000D03*
X76650000Y-75525000D03*
X72350000Y-80025000D03*
X72350000Y-80675000D03*
X72350000Y-81325000D03*
X72350000Y-81975000D03*
X76650000Y-81975000D03*
X76650000Y-81325000D03*
X76650000Y-80675000D03*
X76650000Y-80025000D03*
X72350000Y-84525000D03*
X72350000Y-85175000D03*
X72350000Y-85825000D03*
X72350000Y-86475000D03*
X76650000Y-86475000D03*
X76650000Y-85825000D03*
X76650000Y-85175000D03*
X76650000Y-84525000D03*
D21*
X98702000Y-53934000D03*
X98702000Y-52984000D03*
X98702000Y-52034000D03*
X96502000Y-52034000D03*
X96502000Y-53934000D03*
D22*
X72550000Y-94350000D03*
X73500000Y-94350000D03*
X74450000Y-94350000D03*
X74450000Y-92150000D03*
X72550000Y-92150000D03*
D23*
X93050000Y-81725000D03*
X93050000Y-82375000D03*
X93050000Y-83025000D03*
X93050000Y-83675000D03*
X93050000Y-84325000D03*
X93050000Y-84975000D03*
X93050000Y-85625000D03*
X93050000Y-86275000D03*
X98950000Y-86275000D03*
X98950000Y-85625000D03*
X98950000Y-84975000D03*
X98950000Y-84325000D03*
X98950000Y-83675000D03*
X98950000Y-83025000D03*
X98950000Y-82375000D03*
X98950000Y-81725000D03*
D24*
X92949960Y-91449520D03*
X92000000Y-91449520D03*
X91050040Y-91449520D03*
X91050040Y-94050480D03*
X92000000Y-94050480D03*
X92949960Y-94050480D03*
D25*
X87750000Y-63800000D03*
X87750000Y-64300000D03*
X87750000Y-64800000D03*
X87750000Y-65300000D03*
X87750000Y-65800000D03*
X87750000Y-66300000D03*
X87750000Y-66800000D03*
X87750000Y-67300000D03*
X87750000Y-67800000D03*
X87750000Y-68300000D03*
X87750000Y-68800000D03*
X87750000Y-69300000D03*
X87750000Y-69800000D03*
X87750000Y-70300000D03*
X87750000Y-70800000D03*
X87750000Y-71300000D03*
X87750000Y-71800000D03*
X87750000Y-72300000D03*
X87750000Y-72800000D03*
X87750000Y-73300000D03*
X87750000Y-73800000D03*
X87750000Y-74300000D03*
X87750000Y-74800000D03*
X87750000Y-75300000D03*
X95250000Y-75300000D03*
X95250000Y-74800000D03*
X95250000Y-74300000D03*
X95250000Y-73800000D03*
X95250000Y-73300000D03*
X95250000Y-72800000D03*
X95250000Y-72300000D03*
X95250000Y-71800000D03*
X95250000Y-71300000D03*
X95250000Y-70800000D03*
X95250000Y-70300000D03*
X95250000Y-69800000D03*
X95250000Y-69300000D03*
X95250000Y-68800000D03*
X95250000Y-68300000D03*
X95250000Y-67800000D03*
X95250000Y-67300000D03*
X95250000Y-66800000D03*
X95250000Y-66300000D03*
X95250000Y-65800000D03*
X95250000Y-65300000D03*
X95250000Y-64800000D03*
X95250000Y-64300000D03*
X95250000Y-63800000D03*
D26*
X93927000Y-56009000D03*
X80190000Y-96960000D03*
D18*
X73000000Y-96000000D03*
X71500000Y-96000000D03*
X75610000Y-95950000D03*
X77110000Y-95950000D03*
D22*
X76300000Y-94350000D03*
X77250000Y-94350000D03*
X78200000Y-94350000D03*
X78200000Y-92150000D03*
X76300000Y-92150000D03*
D27*
X66000000Y-61000000D03*
D28*
X63460000Y-61000000D03*
X66000000Y-63540000D03*
X63460000Y-63540000D03*
X66000000Y-66080000D03*
X63460000Y-66080000D03*
X66000000Y-68620000D03*
X63460000Y-68620000D03*
X66000000Y-71160000D03*
X63460000Y-71160000D03*
X66000000Y-73700000D03*
X63460000Y-73700000D03*
X66000000Y-76240000D03*
X63460000Y-76240000D03*
X66000000Y-78780000D03*
X63460000Y-78780000D03*
X66000000Y-81320000D03*
X63460000Y-81320000D03*
X66000000Y-83860000D03*
X63460000Y-83860000D03*
X66000000Y-86400000D03*
X63460000Y-86400000D03*
X66000000Y-88940000D03*
X63460000Y-88940000D03*
D27*
X105000000Y-58500000D03*
D28*
X107540000Y-58500000D03*
X105000000Y-61040000D03*
X107540000Y-61040000D03*
X105000000Y-63580000D03*
X107540000Y-63580000D03*
X105000000Y-66120000D03*
X107540000Y-66120000D03*
X105000000Y-68660000D03*
X107540000Y-68660000D03*
X105000000Y-71200000D03*
X107540000Y-71200000D03*
X105000000Y-73740000D03*
X107540000Y-73740000D03*
X105000000Y-76280000D03*
X107540000Y-76280000D03*
X105000000Y-78820000D03*
X107540000Y-78820000D03*
X105000000Y-81360000D03*
X107540000Y-81360000D03*
X105000000Y-83900000D03*
X107540000Y-83900000D03*
X105000000Y-86440000D03*
X107540000Y-86440000D03*
X105000000Y-88980000D03*
X107540000Y-88980000D03*
X105000000Y-91520000D03*
X107540000Y-91520000D03*
D29*
X80500000Y-83500000D03*
X83500000Y-83500000D03*
X81700000Y-56500000D03*
X84700000Y-56500000D03*
D18*
X101900000Y-55500000D03*
X100400000Y-55500000D03*
D19*
X104000000Y-53000000D03*
X104000000Y-54500000D03*
M02*
